<svg xmlns="http://www.w3.org/2000/svg" width="48" height="36"><path fill="#550DB8" fill-rule="evenodd" d="M32.643 20.476l-7.218 7.18a1.171 1.171 0 0 1-.924.34 1.174 1.174 0 0 1-.926-.34l-7.218-7.18a1.22 1.22 0 1 1 1.729-1.725l5.18 5.151V12.215a1.216 1.216 0 0 1 2.43 0v11.724l5.218-5.188a1.22 1.22 0 1 1 1.729 1.725zM34.6 7.545C32.399 3.075 27.815 0 22.5 0 15.376 0 9.555 5.52 9.05 12.51 3.812 14.01 0 18.585 0 24c0 6.39 5.31 11.595 12 11.97l25.5.03C42.655 33.765 48 27.525 48 21.75c0-7.575-5.927-13.77-13.4-14.205z"/></svg>