<svg xmlns="http://www.w3.org/2000/svg" width="48" height="31"><path fill="#550DB8" fill-rule="evenodd" d="M32.727 13.286c3.71 0 6.546-2.879 6.546-6.643S36.436 0 32.727 0s-6.545 2.879-6.545 6.643 2.836 6.643 6.545 6.643zm-17.454 0c3.709 0 6.545-2.879 6.545-6.643S18.982 0 15.273 0c-3.71 0-6.546 2.879-6.546 6.643s2.837 6.643 6.546 6.643zm0 4.428C10.255 17.714 0 20.371 0 25.464V31h30.545v-5.536c0-5.093-10.254-7.75-15.272-7.75zm17.454 0c-.654 0-1.309 0-2.182.222 2.619 1.771 4.364 4.428 4.364 7.528V31H48v-5.536c0-5.093-10.255-7.75-15.273-7.75z"/></svg>