<svg xmlns="http://www.w3.org/2000/svg" width="54" height="36"><path fill="#550DB8" fill-rule="evenodd" d="M46.325 17.58c0-4.428-3.342-8.057-7.676-8.672v2.514c2.92.582 5.117 3.118 5.117 6.159 0 3.04-2.198 5.576-5.117 6.158v2.515c4.334-.615 7.676-4.244 7.676-8.673zM38.649 0v2.58c7.512 1.423 12.793 7.443 12.793 15 0 7.516-5.117 13.338-12.793 15v2.583C47.317 33.916 54 26.56 54 17.58 54 8.6 47.317 1.246 38.65 0zM19.46 25.116h3.243V9.88H19.46v15.237zM32.432 3.35l-7.568 5.08v18.138l7.568 5.08a2.17 2.17 0 0 0 2.162-2.177V5.526a2.17 2.17 0 0 0-2.162-2.177zM0 17.498c0 4.063 2.769 6.691 6.507 7.411l-.02.207v8.707A2.17 2.17 0 0 0 8.647 36h3.244a2.17 2.17 0 0 0 2.162-2.177v-8.707h3.243V9.88H8.648C3.872 9.88 0 12.69 0 17.498z"/></svg>