<svg xmlns="http://www.w3.org/2000/svg" width="42" height="42"><path fill="#550DB8" fill-rule="evenodd" d="M22.313 24.938a1.311 1.311 0 1 1-2.625 0V13.124a1.312 1.312 0 1 1 2.625 0v11.813zm7.875 0a1.311 1.311 0 1 1-2.625 0V9.188a1.312 1.312 0 1 1 2.625 0v15.75zm-15.75 0a1.311 1.311 0 1 1-2.626 0v-5.25a1.312 1.312 0 1 1 2.626 0v5.25zM0 0v2.625h2.625v24.938c0 3.11 2.158 5.25 5.25 5.25h7.875L10.5 42l3.953-.017 5.235-9.17h2.625l5.234 9.17L31.5 42l-5.25-9.188h7.875c3.092 0 5.25-2.139 5.25-5.25V2.625H42V0H0z"/></svg>