<svg xmlns="http://www.w3.org/2000/svg" width="149" height="165" xmlns:xlink="http://www.w3.org/1999/xlink"><defs><path id="a" d="M11.347 2.91c.435-.61 1.88-1.106 3.234-1.106h.454c1.354 0 2.8.497 3.234 1.106l3.104 4.124c.796.848.624 1.536-.43 1.536H8.672c-1.053 0-1.227-.686-.43-1.536l3.104-4.124z"/><path id="b" d="M24.57 93.867h8.093s2.14 2.485 1.488 7.368c-1.565 1.561-8.64 1.654-11.067 0-.513-4.96 1.485-7.368 1.485-7.368z"/><path id="c" d="M35.844 93.867h8.093s2.14 2.485 1.488 7.368c-1.565 1.561-8.64 1.654-11.066 0-.514-4.96 1.485-7.368 1.485-7.368z"/><path id="d" d="M29.993 95.672h8.157s2.157 2.485 1.5 7.368c-1.578 1.561-8.708 1.655-11.153 0-.518-4.96 1.496-7.368 1.496-7.368z"/><path id="e" d="M31.512 1.254C31.859.562 33.012 0 34.093 0h.363c1.08 0 2.235.563 2.581 1.254l2.478 4.677c.635.961.498 1.74-.344 1.74h-9.793c-.841 0-.98-.777-.344-1.74l2.478-4.677z"/><linearGradient id="f" x1="50%" x2="50%" y1="10.732%" y2="100%"><stop stop-color="#FFF" offset="0%"/><stop stop-color="#FFF" stop-opacity="0" offset="100%"/></linearGradient></defs><g fill="none" fill-rule="evenodd"><path fill="#F27E2D" opacity=".6" d="M33.429 66.855l10.164 10.164-22.76 25.323L8.105 89.614z"/><path fill="#FFF" opacity=".5" d="M32.1 71.632l.801.8-19.82 21.192-2.122-2.122zM38.534 78.532l.8.8-19.82 21.192-2.122-2.122z"/><path fill="#FFBD8F" d="M31.618 78.264l.8.8-14.871 16.242-2.121-2.121z"/><path fill="#FFBD8F" d="M40.098 66.573l2.392 2.392s-9.117 10.158-13.66 15.82c-4.543 5.661-9.695 15.98-9.695 15.98L8.528 90.156s9.832-4.753 15.984-9.69c6.153-4.937 15.586-13.894 15.586-13.894z" opacity=".6"/><path fill="#FFF" d="M38.204 69.086L40.118 71s-8.233 9.065-12.364 14.091c-4.132 5.027-9.008 14.035-9.008 14.035l-8.485-8.486s8.576-4.513 14.038-9.003c5.463-4.49 13.905-12.551 13.905-12.551z" opacity=".6"/><g opacity=".5" transform="rotate(79 5.977 143.931)"><path fill="#F27E2D" d="M13.669 40.873h14.125v90.284H13.669z"/><path fill="#FFBD8F" d="M3.645 40.873h10.024v90.284H3.645z"/><path fill="#F6E5D3" d="M1.823 40.873h1.823v90.284H1.823z"/><path fill="#4E5F60" d="M1.823 27.964h25.515v1.804H1.823zM.456 61.791h27.338v1.804H.456zM.456 129.446h27.338v1.804H.456z"/><path fill="#F6E5D3" d="M8.035 8.021C11.66.843 17.793.715 21.245 7.984c0 0 7.915 9.933 7.915 33.962H.035c0-23.362 8-33.925 8-33.925z"/><path fill="#FFBD8F" d="M11.47 7.971c3.03-6.025 7.456-5.805 9.662.58 0 0 5.784 12.198 6.963 33.395H3.68c0-23.362 7.79-33.975 7.79-33.975z"/><path fill="#F27E2D" d="M13.669 6.82c0-4.256 2.215-5.057 4.636-1.573 0 0 9.98 8.647 10.773 37.179h-15.41V6.82z"/><path stroke="#4E5F60" stroke-width="1.8" d="M28.257 38.79H.94.94c.085-9.718 1.551-17.868 3.943-24.518.858-2.387 1.776-4.402 2.69-6.055.318-.573.611-1.06.873-1.459.152-.233.257-.383.308-.449l.085-.138C12.15-.386 17.324-.43 20.432 6.115l.11.175c.047.06.15.199.299.419.257.378.545.841.858 1.392.903 1.59 1.809 3.551 2.657 5.904 2.367 6.564 3.819 14.784 3.9 24.786z"/><use fill="#4E5F60" xlink:href="#a"/><path stroke="#4E5F60" stroke-width="2.178" d="M20.346 7.48H9.27l2.947-3.915.017-.023c.189-.265 1.31-.649 2.347-.649h.454c1.036 0 2.16.385 2.347.649l2.964 3.939z"/><path fill="#4E5F60" d="M1.823 39.68v91.589H0V39.68M29.16 39.68v91.589h-1.822V39.68"/></g><g transform="rotate(45 69.206 90.864)"><path fill="#FFF" d="M18.903 58.263c1.76-3.868 7.6-36.815 7.6-36.815v57.226l-1.744 3.183H0s.209-3.347 1.007-4.4c.799-1.053 16.136-15.327 17.896-19.194z"/><path fill="#DEE4E4" d="M21.158 58.714c1.76-3.868 7.6-36.815 7.6-36.815v56.009l-3.836 4.4H2.255s0-3.182 1.007-4.4C4.27 76.69 19.398 62.581 21.158 58.714z"/><path fill="#FFF" d="M.451 83.036h23.902v6.318L.451 85.168z"/><path fill="#C1C9CA" d="M49.993 58.263c-1.761-3.868-7.601-36.815-7.601-36.815v57.226l1.744 3.183h24.76s-.209-3.347-1.007-4.4c-.799-1.053-16.136-15.327-17.896-19.194zM68.098 83.036H44.196v6.318l23.902-4.186z"/><path fill="#DEE4E4" d="M2.255 83.036l23.156-.814-1.671 7.94-21.485-4.994z"/><path fill="#FFF" d="M34.275 1.531l-2.68.751-4.764 18.074v59.195h7.444"/><path fill="#DEE4E4" d="M36.757 1.531l-3.336.769-4.107 18.078v58.571h7.212"/><path fill="#C1C9CA" d="M34.275 1.531l2.679.751 4.764 18.126v59.143h-7.443z"/><use fill="#DEE4E4" xlink:href="#b"/><path stroke="#4E5F60" stroke-width="1.8" d="M25.041 94.767h7.162c.129.207.282.492.44.855.6 1.382.88 3.094.658 5.146-1.575 1.03-7.116 1.056-9.361-.074-.152-2.026.125-3.707.677-5.056.152-.37.3-.66.424-.871z"/><use fill="#98A6A7" xlink:href="#c"/><path stroke="#4E5F60" stroke-width="1.8" d="M36.316 94.767h7.161c.13.207.283.492.44.855.6 1.382.88 3.094.658 5.146-1.575 1.03-7.115 1.056-9.36-.074-.153-2.026.125-3.707.677-5.056.152-.37.3-.66.424-.871z"/><use fill="#C1C9CA" xlink:href="#d"/><path stroke="#4E5F60" stroke-width="1.8" d="M30.463 96.572h7.23c.13.207.285.493.444.857.605 1.382.887 3.092.663 5.142-1.59 1.033-7.182 1.06-9.448-.074-.153-2.025.126-3.703.682-5.051.154-.372.303-.663.43-.874z"/><path fill="#FFF" fill-rule="nonzero" d="M26.27 82.31c-1.138 3.047-1.703 6.848-1.373 11.43 4.475 2.518 15.704 2.456 18.808.154.474-4.634-.097-8.505-1.332-11.627a14.856 14.856 0 0 0-.923-1.939H27.162c-.3.55-.604 1.21-.892 1.981z"/><path fill="#C1C9CA" fill-rule="nonzero" d="M27.714 82.432c-1.208 3.237-1.808 7.274-1.458 12.14 4.753 2.675 14.968 2.087 18.265-.358.504-4.923.175-8.466-1.137-11.782-.316-.799-1.468-1.53-1.798-2.104H28.662a16.287 16.287 0 0 0-.948 2.104z"/><path fill="#DEE4E4" fill-rule="nonzero" d="M27.714 82.432c-1.208 3.237-1.808 7.274-1.458 12.14 4.753 2.675 5.125 3.15 8.422.705.504-4.922.895-3.158-.417-6.474-.316-.799.33-7.901 0-8.475h-5.6a16.287 16.287 0 0 0-.947 2.104z"/><path stroke="#4E5F60" stroke-width="1.8" d="M26.637 79.423h15.319c.06.094.127.204.202.33.356.603.715 1.33 1.052 2.18 1.32 3.338 1.91 7.477 1.351 12.421-3.166 2.877-15.882 2.95-20.532-.082-.413-4.922.17-9.008 1.392-12.28a15.93 15.93 0 0 1 1.025-2.242c.07-.125.135-.234.191-.327z"/><use fill="#4E5F60" xlink:href="#e"/><path stroke="#4E5F60" stroke-width="1.8" d="M38.952 6.772h-9.357c.04-.094.102-.212.19-.345l2.522-4.751.01-.019C32.492 1.305 33.325.9 34.092.9h.363c.766 0 1.6.406 1.777.757l2.487 4.695c.112.174.186.314.232.42z"/><path fill="#4E5F60" d="M26.157 26.626h16.235v1.805H26.157z"/><path fill="#502CBB" d="M38.784 19.63V17.15l-4.51-2.257v2.257l2.255 1.805v1.805h2.255v-1.128zm-6.764-.676l2.255-1.805v-2.257l-4.51 2.257V20.759h2.255v-1.805z"/><ellipse cx="34.275" cy="92.062" fill="#DEE4E4" stroke="#4E5F60" stroke-width="1.8" rx="1.804" ry="13.538"/><path fill="#4E5F60" d="M0 81.231h25.255v1.805H0zM27.961 19.405v60.021h-1.804V19.405M42.392 19.405v60.021h-1.804V19.405M35.176 26.626v51.897h-1.803V26.626"/><path fill="#4E5F60" d="M12.627 82.133h1.804v6.318h-1.804z"/><path stroke="#4E5F60" stroke-width="1.8" d="M23.722 90.03L1.599 85.72C.865 85.576.27 84.86.27 84.118v-3.72c0-1.246.698-2.978 1.57-3.878l15.54-16.062c1.034-1.068 2.107-3.114 2.402-4.59l9.576-48.083" stroke-linecap="square"/><path fill="#4E5F60" d="M68.549 81.231H43.294v1.805h25.255z"/><path fill="#4E5F60" d="M55.922 82.133h-1.804v6.318h1.804z"/><path stroke="#4E5F60" stroke-width="1.8" d="M44.853 90.03l22.123-4.311c.733-.143 1.328-.858 1.328-1.601v-3.72c0-1.246-.698-2.978-1.57-3.878l-15.54-16.062c-1.035-1.068-2.109-3.123-2.398-4.584l-7.08-35.678-2.538-12.384" stroke-linecap="square"/></g><path fill="url(#f)" transform="rotate(-133 18.396 101.8)" d="M7.274 100.795H43.95v36.676H7.274z"/><g transform="rotate(45 -68.524 69.24)"><ellipse cx="9.465" cy="12.262" fill="#F27E2D" rx="2.704" ry="8.629"/><ellipse cx="2.254" cy="6.812" fill="#F27E2D" rx="2.254" ry="6.812"/><ellipse cx="16.676" cy="6.812" fill="#F27E2D" rx="2.254" ry="6.812"/><ellipse cx="9.465" cy="10.218" fill="#FFBD8F" rx="1.352" ry="5.223"/><ellipse cx="2.254" cy="4.178" fill="#FFBD8F" rx="1" ry="3.27"/><ellipse cx="16.676" cy="4.178" fill="#FFBD8F" rx="1" ry="3.27"/></g></g></svg>