<svg xmlns="http://www.w3.org/2000/svg" width="128" height="228" xmlns:xlink="http://www.w3.org/1999/xlink"><defs><path id="a" d="M11.347 2.91c.435-.61 1.88-1.106 3.234-1.106h.454c1.354 0 2.8.497 3.234 1.106l3.104 4.124c.796.848.624 1.536-.43 1.536H8.672c-1.053 0-1.227-.686-.43-1.536l3.104-4.124z"/><path id="b" d="M24.57 93.867h8.093s2.14 2.485 1.488 7.368c-1.565 1.561-8.64 1.654-11.067 0-.513-4.96 1.485-7.368 1.485-7.368z"/><path id="c" d="M35.844 93.867h8.093s2.14 2.485 1.488 7.368c-1.565 1.561-8.64 1.654-11.066 0-.514-4.96 1.485-7.368 1.485-7.368z"/><path id="d" d="M29.993 95.672h8.157s2.157 2.485 1.5 7.368c-1.578 1.561-8.708 1.655-11.153 0-.518-4.96 1.496-7.368 1.496-7.368z"/><path id="e" d="M31.512 1.254C31.859.562 33.012 0 34.093 0h.363c1.08 0 2.235.563 2.581 1.254l2.478 4.677c.635.961.498 1.74-.344 1.74h-9.793c-.841 0-.98-.777-.344-1.74l2.478-4.677z"/></defs><g fill="none" fill-rule="evenodd"><g transform="translate(0 124)"><path fill="#FFF" d="M64.2 0h4.982s1.083 19.363 2.248 29.614c1.164 10.252 6.542 25.792 6.542 25.792H55.887s5.287-14.652 6.552-25.792C63.705 18.474 64.201 0 64.201 0z"/><path fill="#FFBD8F" d="M64.2 0h4.982s1.083 19.363 2.248 29.614c1.164 10.252 6.542 25.792 6.542 25.792H55.887s5.287-14.652 6.552-25.792C63.705 18.474 64.201 0 64.201 0z" opacity=".5"/><path fill="#FFF" d="M64.758 5.45h3.964s.862 17.458 1.79 26.701c.926 9.243 5.206 23.255 5.206 23.255H58.141s4.207-13.21 5.215-23.255C64.363 22.107 64.758 5.45 64.758 5.45z"/><g transform="translate(39.662 23.162)"><ellipse cx="27.493" cy="12.262" fill="#F27E2D" rx="2.704" ry="8.629"/><ellipse cx="20.282" cy="6.812" fill="#F27E2D" rx="2.254" ry="6.812"/><ellipse cx="34.704" cy="6.812" fill="#F27E2D" rx="2.254" ry="6.812"/><path fill="#F27E2D" d="M1.453 7.721H12.97l1.453 20.89H0z"/><ellipse cx="27.493" cy="10.218" fill="#FFBD8F" rx="1.352" ry="5.223"/><ellipse cx="20.282" cy="4.178" fill="#FFBD8F" rx="1" ry="3.27"/><path fill="#FFBD8F" d="M2.991 11.778h.928l.796 22.606H2.254zM10.653 11.778h.928l.795 22.606H9.915zM6.896 14.144h.738l.632 17.969H6.31z"/><path fill="#F27E2D" d="M41.565 7.721h11.517l1.453 26.663H40.113z"/><path fill="#FFBD8F" d="M43.104 11.778h.928l.795 22.606h-2.461zM50.766 11.778h.928l.795 22.606h-2.461zM47.009 15.053h.738l.632 17.969h-1.956z"/><ellipse cx="34.704" cy="4.178" fill="#FFBD8F" rx="1" ry="3.27"/></g><g fill="#FFF" transform="translate(15.775 35.878)"><ellipse cx="87.887" cy="43.691" rx="14.423" ry="16.257"/><ellipse cx="31.549" cy="24.893" rx="12.169" ry="13.717"/><ellipse cx="74.366" cy="30.99" rx="9.465" ry="10.669"/><ellipse cx="17.56" cy="33.003" rx="8.997" ry="10.141"/><ellipse cx="38.986" cy="8.383" rx="7.437" ry="8.383"/><ellipse cx="7.437" cy="36.832" rx="7.437" ry="8.383"/><ellipse cx="66.93" cy="17.019" rx="6.535" ry="7.366"/><ellipse cx="59.944" cy="7.62" rx="5.859" ry="6.604"/></g><g fill="#FFBD8F" opacity=".5" transform="translate(15.775 35.878)"><ellipse cx="87.887" cy="43.691" rx="14.423" ry="16.257"/><ellipse cx="31.549" cy="24.893" rx="12.169" ry="13.717"/><ellipse cx="74.366" cy="30.99" rx="9.465" ry="10.669"/><ellipse cx="17.56" cy="33.003" rx="8.997" ry="10.141"/><ellipse cx="38.986" cy="8.383" rx="7.437" ry="8.383"/><ellipse cx="7.437" cy="36.832" rx="7.437" ry="8.383"/><ellipse cx="66.93" cy="17.019" rx="6.535" ry="7.366"/><ellipse cx="59.944" cy="7.62" rx="5.859" ry="6.604"/></g><ellipse cx="71.887" cy="64.262" fill="#FFF" rx="14.197" ry="14.306"/><ellipse cx="15.839" cy="83.059" fill="#FFF" rx="6.445" ry="6.612"/><ellipse cx="6.783" cy="85.041" fill="#FFF" rx="6.445" ry="6.612"/><ellipse cx="75.718" cy="45.315" fill="#FFF" rx="5.859" ry="6.604"/><ellipse cx="82.704" cy="54.713" fill="#FFF" rx="6.535" ry="7.366"/><ellipse cx="23.211" cy="74.527" fill="#FFF" rx="7.437" ry="8.383"/><ellipse cx="54.761" cy="46.077" fill="#FFF" rx="7.437" ry="8.383"/><ellipse cx="33.335" cy="70.697" fill="#FFF" rx="8.997" ry="10.141"/><ellipse cx="90.141" cy="68.684" fill="#FFF" rx="9.465" ry="10.669"/><ellipse cx="39.211" cy="88.559" fill="#FFF" rx="15.324" ry="15.441"/><ellipse cx="61.07" cy="59.721" fill="#FFF" rx="12.845" ry="12.943"/><ellipse cx="10.817" cy="88.559" fill="#FFF" rx="9.465" ry="9.537"/><ellipse cx="47.324" cy="62.588" fill="#FFF" rx="12.169" ry="13.717"/><ellipse cx="115.831" cy="87.651" fill="#FFF" rx="12.169" ry="12.262"/><ellipse cx="103.662" cy="81.385" fill="#FFF" rx="14.423" ry="16.257"/><ellipse cx="24.34" cy="87.198" fill="#FFF" rx="9.465" ry="9.537"/><circle cx="83" cy="73" r="7" fill="#D5C9E5" transform="matrix(-1 0 0 1 166 0)"/><circle cx="82" cy="71" r="7" fill="#FFF" transform="matrix(-1 0 0 1 164 0)"/><ellipse cx="50.028" cy="66.76" fill="#D5C9E5" transform="matrix(-1 0 0 1 100.056 0)" rx="6.761" ry="6.812"/><ellipse cx="50.93" cy="64.943" fill="#FFF" transform="matrix(-1 0 0 1 101.86 0)" rx="6.761" ry="6.812"/><ellipse cx="62.648" cy="66.76" fill="#D5C9E5" transform="matrix(-1 0 0 1 125.296 0)" rx="9.014" ry="9.083"/><ellipse cx="62.197" cy="64.489" fill="#FFF" transform="matrix(-1 0 0 1 124.394 0)" rx="9.014" ry="9.083"/></g><g transform="translate(52.85 .55)"><path fill="#F27E2D" d="M13.669 40.873h14.125v90.284H13.669z"/><path fill="#FFBD8F" d="M3.645 40.873h10.024v90.284H3.645z"/><path fill="#F6E5D3" d="M1.823 40.873h1.823v90.284H1.823z"/><path fill="#4E5F60" d="M1.823 27.964h25.515v1.804H1.823zM.456 61.791h27.338v1.804H.456zM.456 129.446h27.338v1.804H.456z"/><path fill="#F6E5D3" d="M8.035 8.021C11.66.843 17.793.715 21.245 7.984c0 0 7.915 9.933 7.915 33.962H.035c0-23.362 8-33.925 8-33.925z"/><path fill="#FFBD8F" d="M11.47 7.971c3.03-6.025 7.456-5.805 9.662.58 0 0 5.784 12.198 6.963 33.395H3.68c0-23.362 7.79-33.975 7.79-33.975z"/><path fill="#F27E2D" d="M13.669 6.82c0-4.256 2.215-5.057 4.636-1.573 0 0 9.98 8.647 10.773 37.179h-15.41V6.82z"/><path stroke="#4E5F60" stroke-width="1.8" d="M28.257 38.79H.94.94c.085-9.718 1.551-17.868 3.943-24.518.858-2.387 1.776-4.402 2.69-6.055.318-.573.611-1.06.873-1.459.152-.233.257-.383.308-.449l.085-.138C12.15-.386 17.324-.43 20.432 6.115l.11.175c.047.06.15.199.299.419.257.378.545.841.858 1.392.903 1.59 1.809 3.551 2.657 5.904 2.367 6.564 3.819 14.784 3.9 24.786z"/><use fill="#4E5F60" xlink:href="#a"/><path stroke="#4E5F60" stroke-width="2.178" d="M20.346 7.48H9.27l2.947-3.915.017-.023c.189-.265 1.31-.649 2.347-.649h.454c1.036 0 2.16.385 2.347.649l2.964 3.939z"/><path fill="#4E5F60" d="M1.823 39.68v91.589H0V39.68M29.16 39.68v91.589h-1.822V39.68"/></g><path fill="#FFF" d="M47.47 34.624l-2.273 1.159-4.041 12.167v102.68l-2.102 4.42h8.416z"/><path fill="#DEE4E4" d="M49.273 34.624l-2.092.722-4.222 12.604v102.68l-2.102 4.42h8.416z"/><path fill="#C1C9CA" d="M47.172 34.624l2.273 1.159 4.04 12.167v102.68l2.102 4.42h-8.415z"/><path fill="#4E5F60" d="M43.564 38.5h7.216v1.8h-7.216z"/><path stroke="#4E5F60" stroke-width="1.8" d="M40.606 149.65h13.131l1.848 5.346c.124.357.019.504-.363.504H39.121c-.376 0-.485-.152-.363-.504l1.848-5.346zm3.888-113.257c.33-1.057 1.467-1.943 2.445-1.943h.465c.976 0 2.116.889 2.445 1.943l3.176 9.615c.366.894.508 1.647.45 2.139-.03.256-.028.253-.036.253H40.904c-.008 0-.005.003-.036-.252-.058-.492.084-1.244.428-2.079l3.194-9.662.004-.014z"/><path fill="#4E5F60" d="M39.956 72.25h14.431v1.8H39.956zM39.956 92.05h14.431v1.8H39.956zM39.956 136.6h14.431v1.8H39.956zM39.956 140.65h14.431v1.8H39.956zM39.956 144.7h14.431v1.8H39.956z"/><path fill="#4E5F60" d="M41.758 47.838v102.824h-1.8V47.838zM54.387 48.41v102.14h-1.804V48.41M44.015 45.25h2.255v2.25h-2.255zM44.015 63.25h2.255v3.15h-2.255zM44.015 96.1h2.255v3.15h-2.255z"/><g><path fill="#FFF" d="M87.07 34.624l-2.273 1.159-4.041 12.167v102.68l-2.102 4.42h8.416z"/><path fill="#DEE4E4" d="M88.873 34.624l-2.094.724-4.22 12.602v102.68l-2.102 4.42h8.416z"/><path fill="#C1C9CA" d="M86.772 34.624l2.273 1.159 4.04 12.167v102.68l2.102 4.42h-8.415z"/><path fill="#4E5F60" d="M83.164 38.5h7.216v1.8h-7.216z"/><path stroke="#4E5F60" stroke-width="1.8" d="M80.206 149.65h13.131l1.848 5.346c.124.357.019.504-.363.504H78.721c-.376 0-.485-.152-.363-.504l1.848-5.346zm3.888-113.257c.33-1.057 1.467-1.943 2.445-1.943h.465c.976 0 2.116.889 2.445 1.943l3.176 9.615c.366.894.508 1.647.45 2.139-.03.256-.028.253-.036.253H80.504c-.008 0-.005.003-.036-.252-.058-.492.084-1.244.428-2.079l3.194-9.662.004-.014z"/><path fill="#4E5F60" d="M79.556 72.25h14.431v1.8H79.556zM79.556 92.05h14.431v1.8H79.556zM79.556 136.6h14.431v1.8H79.556zM79.556 140.65h14.431v1.8H79.556zM79.556 144.7h14.431v1.8H79.556z"/><path fill="#4E5F60" d="M81.36 48.41v102.14h-1.804V48.41M93.985 47.839v102.824h-1.8V47.839zM83.615 45.25h2.255v2.25h-2.255zM83.615 63.25h2.255v3.15h-2.255zM83.615 96.1h2.255v3.15h-2.255z"/></g><g transform="translate(33.05 45.55)"><path fill="#FFF" d="M18.903 58.263c1.76-3.868 7.6-36.815 7.6-36.815v57.226l-1.744 3.183H0s.209-3.347 1.007-4.4c.799-1.053 16.136-15.327 17.896-19.194z"/><path fill="#DEE4E4" d="M21.158 58.714c1.76-3.868 7.6-36.815 7.6-36.815v56.009l-3.836 4.4H2.255s0-3.182 1.007-4.4C4.27 76.69 19.398 62.581 21.158 58.714z"/><path fill="#FFF" d="M.451 83.036h23.902v6.318L.451 85.168z"/><path fill="#C1C9CA" d="M49.993 58.263c-1.761-3.868-7.601-36.815-7.601-36.815v57.226l1.744 3.183h24.76s-.209-3.347-1.007-4.4c-.799-1.053-16.136-15.327-17.896-19.194zM68.098 83.036H44.196v6.318l23.902-4.186z"/><path fill="#DEE4E4" d="M2.255 83.036l23.156-.814-1.671 7.94-21.485-4.994z"/><path fill="#FFF" d="M34.275 1.531l-2.68.751-4.764 18.074v59.195h7.444"/><path fill="#DEE4E4" d="M36.757 1.531l-3.336.769-4.107 18.078v58.571h7.212"/><path fill="#C1C9CA" d="M34.275 1.531l2.679.751 4.764 18.126v59.143h-7.443z"/><use fill="#DEE4E4" xlink:href="#b"/><path stroke="#4E5F60" stroke-width="1.8" d="M25.041 94.767h7.162c.129.207.282.492.44.855.6 1.382.88 3.094.658 5.146-1.575 1.03-7.116 1.056-9.361-.074-.152-2.026.125-3.707.677-5.056.152-.37.3-.66.424-.871z"/><use fill="#98A6A7" xlink:href="#c"/><path stroke="#4E5F60" stroke-width="1.8" d="M36.316 94.767h7.161c.13.207.283.492.44.855.6 1.382.88 3.094.658 5.146-1.575 1.03-7.115 1.056-9.36-.074-.153-2.026.125-3.707.677-5.056.152-.37.3-.66.424-.871z"/><use fill="#C1C9CA" xlink:href="#d"/><path stroke="#4E5F60" stroke-width="1.8" d="M30.463 96.572h7.23c.13.207.285.493.444.857.605 1.382.887 3.092.663 5.142-1.59 1.033-7.182 1.06-9.448-.074-.153-2.025.126-3.703.682-5.051.154-.372.303-.663.43-.874z"/><path fill="#FFF" fill-rule="nonzero" d="M26.27 82.31c-1.138 3.047-1.703 6.848-1.373 11.43 4.475 2.518 15.704 2.456 18.808.154.474-4.634-.097-8.505-1.332-11.627a14.856 14.856 0 0 0-.923-1.939H27.162c-.3.55-.604 1.21-.892 1.981z"/><path fill="#C1C9CA" fill-rule="nonzero" d="M27.714 82.432c-1.208 3.237-1.808 7.274-1.458 12.14 4.753 2.675 14.968 2.087 18.265-.358.504-4.923.175-8.466-1.137-11.782-.316-.799-1.468-1.53-1.798-2.104H28.662a16.287 16.287 0 0 0-.948 2.104z"/><path fill="#DEE4E4" fill-rule="nonzero" d="M27.714 82.432c-1.208 3.237-1.808 7.274-1.458 12.14 4.753 2.675 5.125 3.15 8.422.705.504-4.922.895-3.158-.417-6.474-.316-.799.33-7.901 0-8.475h-5.6a16.287 16.287 0 0 0-.947 2.104z"/><path stroke="#4E5F60" stroke-width="1.8" d="M26.637 79.423h15.319c.06.094.127.204.202.33.356.603.715 1.33 1.052 2.18 1.32 3.338 1.91 7.477 1.351 12.421-3.166 2.877-15.882 2.95-20.532-.082-.413-4.922.17-9.008 1.392-12.28a15.93 15.93 0 0 1 1.025-2.242c.07-.125.135-.234.191-.327z"/><use fill="#4E5F60" xlink:href="#e"/><path stroke="#4E5F60" stroke-width="1.8" d="M38.952 6.772h-9.357c.04-.094.102-.212.19-.345l2.522-4.751.01-.019C32.492 1.305 33.325.9 34.092.9h.363c.766 0 1.6.406 1.777.757l2.487 4.695c.112.174.186.314.232.42z"/><path fill="#4E5F60" d="M26.157 26.626h16.235v1.805H26.157z"/><path fill="#502CBB" d="M38.784 19.63V17.15l-4.51-2.257v2.257l2.255 1.805v1.805h2.255v-1.128zm-6.764-.676l2.255-1.805v-2.257l-4.51 2.257V20.759h2.255v-1.805z"/><ellipse cx="34.275" cy="92.062" fill="#DEE4E4" stroke="#4E5F60" stroke-width="1.8" rx="1.804" ry="13.538"/><path fill="#4E5F60" d="M0 81.231h25.255v1.805H0zM27.961 19.405v60.021h-1.804V19.405M42.392 19.405v60.021h-1.804V19.405M35.176 26.626v51.897h-1.803V26.626"/><path fill="#4E5F60" d="M12.627 82.133h1.804v6.318h-1.804z"/><path stroke="#4E5F60" stroke-width="1.8" d="M23.722 90.03L1.599 85.72C.865 85.576.27 84.86.27 84.118v-3.72c0-1.246.698-2.978 1.57-3.878l15.54-16.062c1.034-1.068 2.107-3.114 2.402-4.59l9.576-48.083" stroke-linecap="square"/><path fill="#4E5F60" d="M68.549 81.231H43.294v1.805h25.255z"/><path fill="#4E5F60" d="M55.922 82.133h-1.804v6.318h1.804z"/><path stroke="#4E5F60" stroke-width="1.8" d="M44.853 90.03l22.123-4.311c.733-.143 1.328-.858 1.328-1.601v-3.72c0-1.246-.698-2.978-1.57-3.878l-15.54-16.062c-1.035-1.068-2.109-3.123-2.398-4.584l-7.08-35.678-2.538-12.384" stroke-linecap="square"/></g></g></svg>