<svg xmlns="http://www.w3.org/2000/svg" width="169" height="197" xmlns:xlink="http://www.w3.org/1999/xlink"><defs><path id="a" d="M11.347 2.91c.435-.61 1.88-1.106 3.234-1.106h.454c1.354 0 2.8.497 3.234 1.106l3.104 4.124c.796.848.624 1.536-.43 1.536H8.672c-1.053 0-1.227-.686-.43-1.536l3.104-4.124z"/><path id="b" d="M24.57 93.867h8.093s2.14 2.485 1.488 7.368c-1.565 1.561-8.64 1.654-11.067 0-.513-4.96 1.485-7.368 1.485-7.368z"/><path id="c" d="M35.844 93.867h8.093s2.14 2.485 1.488 7.368c-1.565 1.561-8.64 1.654-11.066 0-.514-4.96 1.485-7.368 1.485-7.368z"/><path id="d" d="M29.993 95.672h8.157s2.157 2.485 1.5 7.368c-1.578 1.561-8.708 1.655-11.153 0-.518-4.96 1.496-7.368 1.496-7.368z"/><path id="e" d="M31.512 1.254C31.859.562 33.012 0 34.093 0h.363c1.08 0 2.235.563 2.581 1.254l2.478 4.677c.635.961.498 1.74-.344 1.74h-9.793c-.841 0-.98-.777-.344-1.74l2.478-4.677z"/><linearGradient id="f" x1="50%" x2="50%" y1="10.732%" y2="100%"><stop stop-color="#FFF" offset="0%"/><stop stop-color="#FFF" stop-opacity="0" offset="100%"/></linearGradient></defs><g fill="none" fill-rule="evenodd"><path fill="#F27E2D" opacity=".6" d="M59.268 121.31l17.98 10.38-21.732 42.88-22.516-13z"/><path fill="#FFF" opacity=".5" d="M58.538 128.6l1.307.754-19.38 36.154-3.465-2zM70.538 135.6l1.307.754-19.38 36.154-3.465-2z"/><path fill="#FFBD8F" d="M61.038 138.6l1.307.754-14.88 28.358-3.465-2z"/><path fill="#FFBD8F" d="M68.903 119.157l4.314 2.49s-8.744 17.31-12.86 26.77c-4.118 9.461-7.231 25.609-7.231 25.609L34 162.983s11.904-10.045 18.57-19.06c6.666-9.015 16.333-24.766 16.333-24.766z" opacity=".6"/><path fill="#FFF" d="M66.708 123.309l3.434 1.982s-7.983 15.55-11.801 24.018c-3.82 8.468-7.119 22.743-7.119 22.743L36 163.264s10.25-9.337 16.144-17.533c5.894-8.195 14.564-22.422 14.564-22.422z" opacity=".6"/><g><g transform="rotate(30 76.259 233.104)"><path fill="#F27E2D" d="M13.669 40.873h14.125v90.284H13.669z"/><path fill="#FFBD8F" d="M3.645 40.873h10.024v90.284H3.645z"/><path fill="#F6E5D3" d="M1.823 40.873h1.823v90.284H1.823z"/><path fill="#4E5F60" d="M1.823 27.964h25.515v1.804H1.823zM.456 61.791h27.338v1.804H.456zM.456 129.446h27.338v1.804H.456z"/><path fill="#F6E5D3" d="M8.035 8.021C11.66.843 17.793.715 21.245 7.984c0 0 7.915 9.933 7.915 33.962H.035c0-23.362 8-33.925 8-33.925z"/><path fill="#FFBD8F" d="M11.47 7.971c3.03-6.025 7.456-5.805 9.662.58 0 0 5.784 12.198 6.963 33.395H3.68c0-23.362 7.79-33.975 7.79-33.975z"/><path fill="#F27E2D" d="M13.669 6.82c0-4.256 2.215-5.057 4.636-1.573 0 0 9.98 8.647 10.773 37.179h-15.41V6.82z"/><path stroke="#4E5F60" stroke-width="1.8" d="M28.257 38.79H.94.94c.085-9.718 1.551-17.868 3.943-24.518.858-2.387 1.776-4.402 2.69-6.055.318-.573.611-1.06.873-1.459.152-.233.257-.383.308-.449l.085-.138C12.15-.386 17.324-.43 20.432 6.115l.11.175c.047.06.15.199.299.419.257.378.545.841.858 1.392.903 1.59 1.809 3.551 2.657 5.904 2.367 6.564 3.819 14.784 3.9 24.786z"/><use fill="#4E5F60" xlink:href="#a"/><path stroke="#4E5F60" stroke-width="2.178" d="M20.346 7.48H9.27l2.947-3.915.017-.023c.189-.265 1.31-.649 2.347-.649h.454c1.036 0 2.16.385 2.347.649l2.964 3.939z"/><path fill="#4E5F60" d="M1.823 39.68v91.589H0V39.68M29.16 39.68v91.589h-1.822V39.68"/></g><g opacity=".5"><path fill="#FFF" d="M20.155 51.963l-2.365.956-5.086 11.769-8.95 102.289-2.479 4.22 8.384.733z"/><path fill="#DEE4E4" d="M21.951 52.12l-2.147.537L14.5 64.845 5.55 167.134l-2.479 4.22 8.384.734z"/><path fill="#C1C9CA" d="M19.858 51.937l2.164 1.352 2.964 12.473-8.95 102.29 1.71 4.586-8.384-.734z"/><path fill="#4E5F60" d="M15.926 55.483l7.189.63-.157 1.793-7.189-.63z"/><path stroke="#4E5F60" stroke-width="1.8" d="M3.292 165.953l13.081 1.144 1.376 5.487c.091.366-.026.504-.406.47l-16.04-1.403c-.375-.033-.47-.194-.318-.533l2.307-5.165zM17.037 53.466c.42-1.024 1.63-1.808 2.605-1.723l.462.04c.973.086 2.03 1.07 2.267 2.15l2.326 9.855c.286.922.363 1.684.261 2.17-.052.252-.05.25-.057.248l-12.487-1.092c-.009 0-.006.003-.014-.255-.016-.495.192-1.232.607-2.033l4.024-9.347.006-.013z"/><path fill="#4E5F60" d="M9.39 88.79l14.376 1.258-.156 1.793-14.377-1.257zM7.665 108.515l14.376 1.258-.157 1.793-14.376-1.258zM3.782 152.896l14.376 1.257-.157 1.794-14.376-1.258zM3.429 156.93l14.376 1.258-.157 1.793-14.376-1.258zM3.076 160.965l14.376 1.258-.157 1.793-14.376-1.258z"/><path fill="#4E5F60" d="M13.313 64.629L4.351 167.06l-1.793-.157L11.52 64.472zM25.844 66.299L16.942 168.05l-1.797-.157 8.902-101.751M15.787 62.247l2.247.197-.197 2.241-2.246-.196zM14.218 80.179l2.247.196-.275 3.138-2.246-.196zM11.355 112.904l2.247.196-.275 3.138-2.246-.196z"/></g><g opacity=".5"><path fill="#FFF" d="M167.559 119.493l-2.253-1.197-12.285 3.668-84.11 58.895-4.826.813 4.827 6.894z"/><path fill="#DEE4E4" d="M168.593 120.97l-1.794-1.3-12.743 3.771-84.11 58.895-4.827.813 4.827 6.894z"/><path fill="#C1C9CA" d="M167.388 119.249l.354 2.526-7.649 10.288-84.11 58.895-2.415 4.257-4.827-6.893z"/><path fill="#4E5F60" d="M162.144 118.516l4.139 5.911-1.475 1.033-4.139-5.911z"/><path stroke="#4E5F60" stroke-width="1.8" d="M69.398 179.846l7.532 10.757-3.32 4.58c-.22.306-.401.304-.62-.008l-9.236-13.19c-.215-.308-.153-.484.205-.586l5.44-1.553zm95.005-61.776c1.055-.336 2.433.087 2.994.888l.267.38c.56.8.485 2.244-.19 3.118l-6.054 8.117c-.523.812-1.057 1.36-1.494 1.595-.228.122-.223.123-.228.116l-7.19-10.268c-.004-.007-.005-.002.187-.174.369-.33 1.067-.645 1.948-.842l9.746-2.926.014-.004z"/><path fill="#4E5F60" d="M132.428 134.92l8.277 11.82-1.474 1.033-8.278-11.822zM116.209 146.276l8.277 11.821-1.475 1.032-8.277-11.82zM79.715 171.829l8.278 11.82-1.475 1.033-8.277-11.82zM76.398 174.152l8.277 11.82-1.474 1.033-8.278-11.82zM73.08 176.475l8.277 11.82-1.474 1.033-8.277-11.82z"/><path fill="#4E5F60" d="M152.991 122.723l-83.668 58.585-1.035-1.478 83.668-58.585M160.7 132.737l-84.228 58.977-1.033-1.474 84.229-58.977zM156.873 122.757l1.293 1.848-1.843 1.29-1.293-1.847zM142.128 133.082l1.294 1.847-2.58 1.807-1.294-1.847zM115.22 151.924l1.293 1.847-2.58 1.807-1.294-1.847z"/></g><g transform="rotate(30 2.188 173.656)"><path fill="#FFF" d="M18.903 58.263c1.76-3.868 7.6-36.815 7.6-36.815v57.226l-1.744 3.183H0s.209-3.347 1.007-4.4c.799-1.053 16.136-15.327 17.896-19.194z"/><path fill="#DEE4E4" d="M21.158 58.714c1.76-3.868 7.6-36.815 7.6-36.815v56.009l-3.836 4.4H2.255s0-3.182 1.007-4.4C4.27 76.69 19.398 62.581 21.158 58.714z"/><path fill="#FFF" d="M.451 83.036h23.902v6.318L.451 85.168z"/><path fill="#C1C9CA" d="M49.993 58.263c-1.761-3.868-7.601-36.815-7.601-36.815v57.226l1.744 3.183h24.76s-.209-3.347-1.007-4.4c-.799-1.053-16.136-15.327-17.896-19.194zM68.098 83.036H44.196v6.318l23.902-4.186z"/><path fill="#DEE4E4" d="M2.255 83.036l23.156-.814-1.671 7.94-21.485-4.994z"/><path fill="#FFF" d="M34.275 1.531l-2.68.751-4.764 18.074v59.195h7.444"/><path fill="#DEE4E4" d="M36.757 1.531l-3.336.769-4.107 18.078v58.571h7.212"/><path fill="#C1C9CA" d="M34.275 1.531l2.679.751 4.764 18.126v59.143h-7.443z"/><use fill="#DEE4E4" xlink:href="#b"/><path stroke="#4E5F60" stroke-width="1.8" d="M25.041 94.767h7.162c.129.207.282.492.44.855.6 1.382.88 3.094.658 5.146-1.575 1.03-7.116 1.056-9.361-.074-.152-2.026.125-3.707.677-5.056.152-.37.3-.66.424-.871z"/><use fill="#98A6A7" xlink:href="#c"/><path stroke="#4E5F60" stroke-width="1.8" d="M36.316 94.767h7.161c.13.207.283.492.44.855.6 1.382.88 3.094.658 5.146-1.575 1.03-7.115 1.056-9.36-.074-.153-2.026.125-3.707.677-5.056.152-.37.3-.66.424-.871z"/><use fill="#C1C9CA" xlink:href="#d"/><path stroke="#4E5F60" stroke-width="1.8" d="M30.463 96.572h7.23c.13.207.285.493.444.857.605 1.382.887 3.092.663 5.142-1.59 1.033-7.182 1.06-9.448-.074-.153-2.025.126-3.703.682-5.051.154-.372.303-.663.43-.874z"/><path fill="#FFF" fill-rule="nonzero" d="M26.27 82.31c-1.138 3.047-1.703 6.848-1.373 11.43 4.475 2.518 15.704 2.456 18.808.154.474-4.634-.097-8.505-1.332-11.627a14.856 14.856 0 0 0-.923-1.939H27.162c-.3.55-.604 1.21-.892 1.981z"/><path fill="#C1C9CA" fill-rule="nonzero" d="M27.714 82.432c-1.208 3.237-1.808 7.274-1.458 12.14 4.753 2.675 14.968 2.087 18.265-.358.504-4.923.175-8.466-1.137-11.782-.316-.799-1.468-1.53-1.798-2.104H28.662a16.287 16.287 0 0 0-.948 2.104z"/><path fill="#DEE4E4" fill-rule="nonzero" d="M27.714 82.432c-1.208 3.237-1.808 7.274-1.458 12.14 4.753 2.675 5.125 3.15 8.422.705.504-4.922.895-3.158-.417-6.474-.316-.799.33-7.901 0-8.475h-5.6a16.287 16.287 0 0 0-.947 2.104z"/><path stroke="#4E5F60" stroke-width="1.8" d="M26.637 79.423h15.319c.06.094.127.204.202.33.356.603.715 1.33 1.052 2.18 1.32 3.338 1.91 7.477 1.351 12.421-3.166 2.877-15.882 2.95-20.532-.082-.413-4.922.17-9.008 1.392-12.28a15.93 15.93 0 0 1 1.025-2.242c.07-.125.135-.234.191-.327z"/><use fill="#4E5F60" xlink:href="#e"/><path stroke="#4E5F60" stroke-width="1.8" d="M38.952 6.772h-9.357c.04-.094.102-.212.19-.345l2.522-4.751.01-.019C32.492 1.305 33.325.9 34.092.9h.363c.766 0 1.6.406 1.777.757l2.487 4.695c.112.174.186.314.232.42z"/><path fill="#4E5F60" d="M26.157 26.626h16.235v1.805H26.157z"/><path fill="#502CBB" d="M38.784 19.63V17.15l-4.51-2.257v2.257l2.255 1.805v1.805h2.255v-1.128zm-6.764-.676l2.255-1.805v-2.257l-4.51 2.257V20.759h2.255v-1.805z"/><ellipse cx="34.275" cy="92.062" fill="#DEE4E4" stroke="#4E5F60" stroke-width="1.8" rx="1.804" ry="13.538"/><path fill="#4E5F60" d="M0 81.231h25.255v1.805H0zM27.961 19.405v60.021h-1.804V19.405M42.392 19.405v60.021h-1.804V19.405M35.176 26.626v51.897h-1.803V26.626"/><path fill="#4E5F60" d="M12.627 82.133h1.804v6.318h-1.804z"/><path stroke="#4E5F60" stroke-width="1.8" d="M23.722 90.03L1.599 85.72C.865 85.576.27 84.86.27 84.118v-3.72c0-1.246.698-2.978 1.57-3.878l15.54-16.062c1.034-1.068 2.107-3.114 2.402-4.59l9.576-48.083" stroke-linecap="square"/><path fill="#4E5F60" d="M68.549 81.231H43.294v1.805h25.255z"/><path fill="#4E5F60" d="M55.922 82.133h-1.804v6.318h1.804z"/><path stroke="#4E5F60" stroke-width="1.8" d="M44.853 90.03l22.123-4.311c.733-.143 1.328-.858 1.328-1.601v-3.72c0-1.246-.698-2.978-1.57-3.878l-15.54-16.062c-1.035-1.068-2.109-3.123-2.398-4.584l-7.08-35.678-2.538-12.384" stroke-linecap="square"/></g></g><g transform="rotate(30 -210.6 169.43)"><ellipse cx="9.465" cy="12.262" fill="#F27E2D" rx="2.704" ry="8.629"/><ellipse cx="2.254" cy="6.812" fill="#F27E2D" rx="2.254" ry="6.812"/><ellipse cx="16.676" cy="6.812" fill="#F27E2D" rx="2.254" ry="6.812"/><ellipse cx="9.465" cy="10.218" fill="#FFBD8F" rx="1.352" ry="5.223"/><ellipse cx="2.254" cy="4.178" fill="#FFBD8F" rx="1" ry="3.27"/><ellipse cx="16.676" cy="4.178" fill="#FFBD8F" rx="1" ry="3.27"/></g><path fill="url(#f)" transform="rotate(-148 67.622 184.169)" d="M80.931 182.931h33v33h-33z"/></g></svg>