<svg xmlns="http://www.w3.org/2000/svg" width="181" height="184" xmlns:xlink="http://www.w3.org/1999/xlink"><defs><path id="a" d="M24.57 93.867h8.093s2.14 2.485 1.488 7.368c-1.565 1.561-8.64 1.654-11.067 0-.513-4.96 1.485-7.368 1.485-7.368z"/><path id="b" d="M35.844 93.867h8.093s2.14 2.485 1.488 7.368c-1.565 1.561-8.64 1.654-11.066 0-.514-4.96 1.485-7.368 1.485-7.368z"/><path id="c" d="M29.993 95.672h8.157s2.157 2.485 1.5 7.368c-1.578 1.561-8.708 1.655-11.153 0-.518-4.96 1.496-7.368 1.496-7.368z"/><path id="d" d="M31.512 1.254C31.859.562 33.012 0 34.093 0h.363c1.08 0 2.235.563 2.581 1.254l2.478 4.677c.635.961.498 1.74-.344 1.74h-9.793c-.841 0-.98-.777-.344-1.74l2.478-4.677z"/><path id="e" d="M25.756 20.013c-4.184 0-8.12 1.594-11.077 4.49a2.862 2.862 0 0 0 0 4.112 3.018 3.018 0 0 0 4.204 0c1.834-1.797 4.276-2.786 6.873-2.786 2.598 0 5.04.99 6.874 2.786a3.003 3.003 0 0 0 2.102.852c.762 0 1.521-.284 2.101-.852a2.862 2.862 0 0 0 0-4.112c-2.957-2.896-6.893-4.49-11.077-4.49z"/><path id="f" d="M25.395 10.558c-6.785 0-13.163 2.613-17.96 7.357a2.91 2.91 0 0 0 0 4.148 2.989 2.989 0 0 0 4.194 0c3.677-3.637 8.566-5.64 13.766-5.64 5.198 0 10.088 2.003 13.764 5.64.579.573 1.34.859 2.097.859a2.97 2.97 0 0 0 2.097-.86 2.91 2.91 0 0 0 0-4.147c-4.797-4.744-11.173-7.357-17.958-7.357z"/><path id="g" d="M50.598 10.618C43.964 4.013 35.142.376 25.758.376 16.371.376 7.55 4.013.916 10.618a2.937 2.937 0 0 0 0 4.168c.579.576 1.336.863 2.094.863.757 0 1.517-.287 2.093-.863 5.516-5.492 12.852-8.515 20.653-8.515 7.802 0 15.136 3.023 20.651 8.515a2.972 2.972 0 0 0 4.188.001 2.94 2.94 0 0 0 .002-4.169z"/><ellipse id="h" cx="36.207" cy="10.909" rx="5.793" ry="5.818"/><circle id="i" cx="142" cy="149" r="12"/><circle id="j" cx="29" cy="182" r="7"/></defs><g fill="none" fill-rule="evenodd"><g transform="rotate(90 29.5 77.5)"><path fill="#FFF" d="M18.903 58.263c1.76-3.868 7.6-36.815 7.6-36.815v57.226l-1.744 3.183H0s.209-3.347 1.007-4.4c.799-1.053 16.136-15.327 17.896-19.194z"/><path fill="#DEE4E4" d="M21.158 58.714c1.76-3.868 7.6-36.815 7.6-36.815v56.009l-3.836 4.4H2.255s0-3.182 1.007-4.4C4.27 76.69 19.398 62.581 21.158 58.714z"/><path fill="#FFF" d="M.451 83.036h23.902v6.318L.451 85.168z"/><path fill="#C1C9CA" d="M49.993 58.263c-1.761-3.868-7.601-36.815-7.601-36.815v57.226l1.744 3.183h24.76s-.209-3.347-1.007-4.4c-.799-1.053-16.136-15.327-17.896-19.194zM68.098 83.036H44.196v6.318l23.902-4.186z"/><path fill="#DEE4E4" d="M2.255 83.036l23.156-.814-1.671 7.94-21.485-4.994z"/><path fill="#FFF" d="M34.275 1.531l-2.68.751-4.764 18.074v59.195h7.444"/><path fill="#DEE4E4" d="M36.757 1.531l-3.336.769-4.107 18.078v58.571h7.212"/><path fill="#C1C9CA" d="M34.275 1.531l2.679.751 4.764 18.126v59.143h-7.443z"/><use fill="#DEE4E4" xlink:href="#a"/><path stroke="#4E5F60" stroke-width="1.8" d="M25.041 94.767h7.162c.129.207.282.492.44.855.6 1.382.88 3.094.658 5.146-1.575 1.03-7.116 1.056-9.361-.074-.152-2.026.125-3.707.677-5.056.152-.37.3-.66.424-.871z"/><use fill="#98A6A7" xlink:href="#b"/><path stroke="#4E5F60" stroke-width="1.8" d="M36.316 94.767h7.161c.13.207.283.492.44.855.6 1.382.88 3.094.658 5.146-1.575 1.03-7.115 1.056-9.36-.074-.153-2.026.125-3.707.677-5.056.152-.37.3-.66.424-.871z"/><use fill="#C1C9CA" xlink:href="#c"/><path stroke="#4E5F60" stroke-width="1.8" d="M30.463 96.572h7.23c.13.207.285.493.444.857.605 1.382.887 3.092.663 5.142-1.59 1.033-7.182 1.06-9.448-.074-.153-2.025.126-3.703.682-5.051.154-.372.303-.663.43-.874z"/><path fill="#FFF" fill-rule="nonzero" d="M26.27 82.31c-1.138 3.047-1.703 6.848-1.373 11.43 4.475 2.518 15.704 2.456 18.808.154.474-4.634-.097-8.505-1.332-11.627a14.856 14.856 0 0 0-.923-1.939H27.162c-.3.55-.604 1.21-.892 1.981z"/><path fill="#C1C9CA" fill-rule="nonzero" d="M27.714 82.432c-1.208 3.237-1.808 7.274-1.458 12.14 4.753 2.675 14.968 2.087 18.265-.358.504-4.923.175-8.466-1.137-11.782-.316-.799-1.468-1.53-1.798-2.104H28.662a16.287 16.287 0 0 0-.948 2.104z"/><path fill="#DEE4E4" fill-rule="nonzero" d="M27.714 82.432c-1.208 3.237-1.808 7.274-1.458 12.14 4.753 2.675 5.125 3.15 8.422.705.504-4.922.895-3.158-.417-6.474-.316-.799.33-7.901 0-8.475h-5.6a16.287 16.287 0 0 0-.947 2.104z"/><path stroke="#4E5F60" stroke-width="1.8" d="M26.637 79.423h15.319c.06.094.127.204.202.33.356.603.715 1.33 1.052 2.18 1.32 3.338 1.91 7.477 1.351 12.421-3.166 2.877-15.882 2.95-20.532-.082-.413-4.922.17-9.008 1.392-12.28a15.93 15.93 0 0 1 1.025-2.242c.07-.125.135-.234.191-.327z"/><use fill="#4E5F60" xlink:href="#d"/><path stroke="#4E5F60" stroke-width="1.8" d="M38.952 6.772h-9.357c.04-.094.102-.212.19-.345l2.522-4.751.01-.019C32.492 1.305 33.325.9 34.092.9h.363c.766 0 1.6.406 1.777.757l2.487 4.695c.112.174.186.314.232.42z"/><path fill="#4E5F60" d="M26.157 26.626h16.235v1.805H26.157z"/><path fill="#502CBB" d="M38.784 19.63V17.15l-4.51-2.257v2.257l2.255 1.805v1.805h2.255v-1.128zm-6.764-.676l2.255-1.805v-2.257l-4.51 2.257V20.759h2.255v-1.805z"/><ellipse cx="34.275" cy="92.062" fill="#DEE4E4" stroke="#4E5F60" stroke-width="1.8" rx="1.804" ry="13.538"/><path fill="#4E5F60" d="M0 81.231h25.255v1.805H0zM27.961 19.405v60.021h-1.804V19.405M42.392 19.405v60.021h-1.804V19.405M35.176 26.626v51.897h-1.803V26.626"/><path fill="#4E5F60" d="M12.627 82.133h1.804v6.318h-1.804z"/><path stroke="#4E5F60" stroke-width="1.8" d="M23.722 90.03L1.599 85.72C.865 85.576.27 84.86.27 84.118v-3.72c0-1.246.698-2.978 1.57-3.878l15.54-16.062c1.034-1.068 2.107-3.114 2.402-4.59l9.576-48.083" stroke-linecap="square"/><path fill="#4E5F60" d="M68.549 81.231H43.294v1.805h25.255z"/><path fill="#4E5F60" d="M55.922 82.133h-1.804v6.318h1.804z"/><path stroke="#4E5F60" stroke-width="1.8" d="M44.853 90.03l22.123-4.311c.733-.143 1.328-.858 1.328-1.601v-3.72c0-1.246-.698-2.978-1.57-3.878l-15.54-16.062c-1.035-1.068-2.109-3.123-2.398-4.584l-7.08-35.678-2.538-12.384" stroke-linecap="square"/></g><g transform="rotate(20 77.755 358.06)"><g fill-rule="nonzero" transform="rotate(-165 29.01 24.489)"><use fill="#FFBD8F" fill-rule="evenodd" xlink:href="#e"/><path stroke="#FFF" stroke-width="2.88" d="M25.756 18.573c-4.56 0-8.858 1.742-12.084 4.901a4.302 4.302 0 0 0 0 6.171 4.458 4.458 0 0 0 6.217 0c1.565-1.533 3.645-2.376 5.867-2.376 2.223 0 4.303.843 5.866 2.375a4.443 4.443 0 0 0 3.11 1.263 4.43 4.43 0 0 0 3.109-1.262 4.302 4.302 0 0 0 0-6.171c-3.227-3.16-7.524-4.901-12.085-4.901z"/><use fill="#FFBD8F" fill-rule="evenodd" xlink:href="#f"/><path stroke="#FFF" stroke-width="2.88" d="M25.395 9.118c-7.163 0-13.906 2.762-18.972 7.773a4.35 4.35 0 0 0 0 6.196 4.429 4.429 0 0 0 6.22-.001c3.405-3.369 7.93-5.222 12.752-5.222 4.82 0 9.346 1.854 12.751 5.222a4.414 4.414 0 0 0 3.11 1.276 4.41 4.41 0 0 0 3.11-1.276 4.35 4.35 0 0 0 0-6.195c-5.067-5.011-11.808-7.773-18.97-7.773z"/><use fill="#FFBD8F" fill-rule="evenodd" xlink:href="#g"/><path stroke="#FFF" stroke-width="2.88" d="M51.614 9.598C44.71 2.724 35.523-1.064 25.757-1.064c-9.766 0-18.952 3.788-25.856 10.662a4.377 4.377 0 0 0 0 6.209 4.4 4.4 0 0 0 3.11 1.282 4.393 4.393 0 0 0 3.11-1.284c5.244-5.22 12.214-8.094 19.636-8.094 7.421 0 14.39 2.873 19.636 8.095a4.412 4.412 0 0 0 6.217.003 4.381 4.381 0 0 0 .005-6.21l-.001-.001z"/></g><rect width="52.138" height="7.273" x="10.138" y="7.273" fill="#72D3D4" transform="rotate(15 36.207 10.91)" rx="1.44"/><use fill="#1DBCBC" xlink:href="#h"/><ellipse cx="36.207" cy="10.909" stroke="#FFF" stroke-width="2.88" rx="7.233" ry="7.258"/></g><g opacity=".7" transform="translate(1 -5)"><use fill="#1DBCBC" xlink:href="#i"/><circle cx="142" cy="149" r="10.08" stroke="#CCEFEF" stroke-width="3.84"/></g><g opacity=".4" transform="translate(1 -5)"><use fill="#1DBCBC" xlink:href="#j"/><circle cx="29" cy="182" r="5.848" stroke="#CCEFEF" stroke-width="2.304"/></g></g></svg>