<svg xmlns="http://www.w3.org/2000/svg" width="602" height="777" xmlns:xlink="http://www.w3.org/1999/xlink"><defs><rect id="a" width="582" height="650" y="112" rx="6"/><path id="b" d="M28 144.003A3.998 3.998 0 0 1 31.994 140h514.012a4 4 0 0 1 3.994 3.994v502.042c0 2.206-1.271 5.267-2.832 6.829l-74.229 74.3c-1.564 1.566-4.613 2.835-6.823 2.835H31.991A4.001 4.001 0 0 1 28 725.997V144.003z"/><path id="c" d="M551.17 652.83c1.563-1.563 2.83-1.037 2.83 1.165v76.01a3.998 3.998 0 0 1-3.995 3.995h-76.01c-2.206 0-2.726-1.27-1.164-2.83l78.338-78.34z"/><path id="d" d="M245 60c0-33.137 26.863-60 60-60s60 26.863 60 60h76.002A3.997 3.997 0 0 1 445 63.993v112.014a3.994 3.994 0 0 1-3.998 3.993H168.998a3.997 3.997 0 0 1-3.998-3.993V63.993A3.994 3.994 0 0 1 168.998 60H245zm60 32c17.673 0 32-14.327 32-32 0-17.673-14.327-32-32-32-17.673 0-32 14.327-32 32 0 17.673 14.327 32 32 32z"/></defs><g fill="none" fill-rule="evenodd" transform="translate(5)"><rect width="582" height="650" x="15" y="127" fill="#DEE4E4" opacity=".4" rx="6"/><use fill="#DEE4E4" xlink:href="#a"/><rect width="586.4" height="654.4" x="-2.2" y="109.8" stroke="#717D7E" stroke-width="4.4" rx="6"/><use fill="#FFF" xlink:href="#b"/><path stroke="#98A6A7" stroke-width="4" d="M26 144.003v581.994c0 3.31 2.683 6.003 5.991 6.003h434.125c2.74 0 6.298-1.48 8.238-3.42l74.23-74.302c1.935-1.938 3.416-5.507 3.416-8.242V143.994a6 6 0 0 0-5.994-5.994H31.994A5.998 5.998 0 0 0 26 144.003z"/><g transform="rotate(-180 512 692)"><use fill="#98A6A7" xlink:href="#c"/><path stroke="#98A6A7" stroke-width="4" d="M552 654.828v75.177c0 1.1-.896 1.995-1.995 1.995h-75.177L552 654.828z"/></g><path fill="#98A6A7" d="M469.826 734.459s-8.825.669-8.825 0c0-.67 8.825-4.414 8.825-4.414V654.46a3.995 3.995 0 0 1 3.995-4.001h76.01l3.995-8.458v21.791c0 2.209-1.268 5.263-2.828 6.82l-61.16 61.024c-1.561 1.56-4.618 2.823-6.835 2.823h-13.177z" opacity=".3"/><path stroke="#FFF" stroke-width="4" d="M8.5 754h228.178M8 684.5v69.116" stroke-linecap="round" stroke-linejoin="round"/><path fill="#98A6A7" d="M255 70c0-33.137 26.863-60 60-60s60 26.863 60 60h76.002A3.997 3.997 0 0 1 455 73.993v112.014a3.994 3.994 0 0 1-3.998 3.993H178.998a3.997 3.997 0 0 1-3.998-3.993V73.993A3.994 3.994 0 0 1 178.998 70H255zm60 32c17.673 0 32-14.327 32-32 0-17.673-14.327-32-32-32-17.673 0-32 14.327-32 32 0 17.673 14.327 32 32 32z" opacity=".295"/><use fill="#98A6A7" xlink:href="#d"/><path stroke="#4E5F60" stroke-width="4" d="M247 60c0-32.033 25.967-58 58-58s58 25.967 58 58v2h78.002c1.103 0 1.998.894 1.998 1.993v112.014c0 1.101-.893 1.993-1.998 1.993H168.998a1.997 1.997 0 0 1-1.998-1.993V63.993c0-1.101.893-1.993 1.998-1.993H247v-2zm58 34c18.778 0 34-15.222 34-34s-15.222-34-34-34-34 15.222-34 34 15.222 34 34 34z"/><path stroke="#FFF" stroke-width="4" d="M177.5 169h228.178M248 74s1.102 45 58.133 45M177 99.5v69.116" stroke-linecap="round" stroke-linejoin="round"/></g></svg>