<svg xmlns="http://www.w3.org/2000/svg" width="3285" height="518" viewBox="0 0 3285 518">
  <g fill="none" fill-rule="evenodd" transform="translate(-778)">
    <ellipse cx="2117.255" cy="358.931" fill="#FFFFFF" rx="23.732" ry="24.161"/>
    <ellipse cx="2189.952" cy="374.447" fill="#FFFFFF" rx="12.431" ry="12.656"/>
    <ellipse cx="2172.722" cy="369.519" fill="#FFFFFF" rx="12.431" ry="12.656"/>
    <ellipse cx="2148.12" cy="360.844" fill="#FFFFFF" rx="15.821" ry="16.107"/>
    <ellipse cx="2090.689" cy="335.757" fill="#FFFFFF" rx="20.341" ry="20.71"/>
    <circle cx="2211.825" cy="381.474" r="14.343" fill="#FFFFFF"/>
    <circle cx="2230.91" cy="381.451" r="14.343" fill="#FFFFFF"/>
    <circle cx="2257.731" cy="382.451" r="15.546" fill="#FFFFFF"/>
    <circle cx="3027.5" cy="330.5" r="31.5" fill="#FFFFFF"/>
    <ellipse cx="2391.826" cy="358.969" fill="#FFFFFF" rx="8.983" ry="8.192"/>
    <ellipse cx="2351.046" cy="372.699" fill="#FFFFFF" rx="19.866" ry="20.225"/>
    <ellipse cx="2282.195" cy="370.699" fill="#FFFFFF" rx="10.406" ry="10.594"/>
    <ellipse cx="2301.921" cy="367.799" fill="#FFFFFF" rx="13.244" ry="13.483"/>
    <ellipse cx="2323.756" cy="370.599" fill="#FFFFFF" rx="17.028" ry="17.336"/>
    <circle cx="2374.435" cy="360.457" r="15.281" fill="#FFFFFF"/>
    <ellipse cx="2395.598" cy="364.774" fill="#FFFFFF" rx="19.513" ry="17.796"/>
    <ellipse cx="2507.158" cy="379.51" fill="#FFFFFF" rx="19.372" ry="19.723"/>
    <ellipse cx="1898.083" cy="253.694" fill="#FFFFFF" rx="14.3" ry="14.559"/>
    <ellipse cx="1869.701" cy="237.842" fill="#FFFFFF" rx="18.2" ry="18.529"/>
    <ellipse cx="2034.516" cy="335.921" fill="#FFFFFF" rx="12.345" ry="11.258"/>
    <ellipse cx="2016.962" cy="331.963" fill="#FFFFFF" rx="10.581" ry="9.65"/>
    <ellipse cx="2003.445" cy="323.694" fill="#FFFFFF" rx="9.41" ry="8.582"/>
    <ellipse cx="2034.677" cy="324.661" fill="#FFFFFF" rx="27.3" ry="27.794"/>
    <ellipse cx="1998.488" cy="313.661" fill="#FFFFFF" rx="27.3" ry="27.794"/>
    <ellipse cx="1953.677" cy="322.661" fill="#FFFFFF" rx="27.3" ry="27.794"/>
    <ellipse cx="2042.603" cy="355.713" fill="#FFFFFF" rx="27.3" ry="27.794"/>
    <ellipse cx="1986.691" cy="319.935" fill="#FFFFFF" rx="14.3" ry="14.559"/>
    <ellipse cx="1962.4" cy="300.705" fill="#FFFFFF" rx="18.2" ry="18.529"/>
    <circle cx="2061.339" cy="337.052" r="21" fill="#FFFFFF"/>
    <ellipse cx="2568.898" cy="373.433" fill="#FFFFFF" rx="14.3" ry="14.559"/>
    <ellipse cx="2543.257" cy="382.892" fill="#FFFFFF" rx="18.2" ry="18.529"/>
    <ellipse cx="2468.902" cy="371.837" fill="#FFFFFF" rx="23.4" ry="23.824"/>
    <circle cx="2428.487" cy="367.849" r="21" fill="#FFFFFF"/>
    <circle cx="2697.996" cy="375.004" r="21" fill="#FFFFFF"/>
    <ellipse cx="2713.66" cy="357" fill="#FFFFFF" rx="14.254" ry="13"/>
    <ellipse cx="2692.947" cy="357.543" fill="#FFFFFF" rx="15.947" ry="14.543"/>
    <ellipse cx="2683.174" cy="355.582" fill="#FFFFFF" rx="9.41" ry="8.582"/>
    <ellipse cx="2589.548" cy="381" fill="#FFFFFF" rx="16.847" ry="17.152"/>
    <ellipse cx="2614.082" cy="375.066" fill="#FFFFFF" rx="16.782" ry="17.085"/>
    <ellipse cx="2669.98" cy="359.813" fill="#FFFFFF" rx="14.3" ry="14.559"/>
    <ellipse cx="2646.211" cy="373.973" fill="#FFFFFF" rx="18.2" ry="18.529"/>
    <ellipse cx="2823.615" cy="370.121" fill="#FFFFFF" rx="27.3" ry="27.794"/>
    <ellipse cx="2903.143" cy="339.889" fill="#FFFFFF" rx="14.3" ry="14.559"/>
    <ellipse cx="2883.05" cy="344.254" fill="#FFFFFF" rx="14.3" ry="14.559"/>
    <ellipse cx="2858.743" cy="358.414" fill="#FFFFFF" rx="18.2" ry="18.529"/>
    <ellipse cx="2783.384" cy="360.961" fill="#FFFFFF" rx="23.4" ry="23.824"/>
    <circle cx="1835" cy="208" r="23" fill="#FFFFFF"/>
    <circle cx="1794" cy="204" r="23" fill="#FFFFFF"/>
    <circle cx="1748.5" cy="138.5" r="21.5" fill="#FFFFFF"/>
    <circle cx="1653.5" cy="85.5" r="16.5" fill="#FFFFFF"/>
    <circle cx="1672.5" cy="104.5" r="16.5" fill="#FFFFFF"/>
    <circle cx="1692.5" cy="122.5" r="16.5" fill="#FFFFFF"/>
    <circle cx="1718.5" cy="133.5" r="16.5" fill="#FFFFFF"/>
    <circle cx="1687" cy="152" r="33" fill="#FFFFFF"/>
    <circle cx="1765.5" cy="175.5" r="32.5" fill="#FFFFFF"/>
    <circle cx="1618" cy="152" r="40" fill="#FFFFFF"/>
    <circle cx="3170.5" cy="332.5" r="31.5" fill="#FFFFFF"/>
    <circle cx="3198.5" cy="297.5" r="21.5" fill="#FFFFFF"/>
    <ellipse cx="3051.5" cy="309.475" fill="#FFFFFF" rx="14.5" ry="16.22"/>
    <ellipse cx="2919.5" cy="353.102" fill="#FFFFFF" rx="16.5" ry="18.458"/>
    <circle cx="3240.5" cy="254.5" r="16.5" fill="#FFFFFF"/>
    <ellipse cx="2996.5" cy="299.458" fill="#FFFFFF" rx="16.5" ry="18.458"/>
    <ellipse cx="3024.5" cy="303.458" fill="#FFFFFF" rx="16.5" ry="18.458"/>
    <ellipse cx="2941.962" cy="344.669" fill="#FFFFFF" rx="19.962" ry="22.331"/>
    <circle cx="3217.5" cy="267.5" r="16.5" fill="#FFFFFF"/>
    <ellipse cx="3068" cy="340.237" fill="#FFFFFF" rx="21" ry="23.492"/>
    <circle cx="2955" cy="352" r="34" fill="#FFFFFF"/>
    <circle cx="3003.5" cy="320.5" r="28.5" fill="#FFFFFF"/>
    <circle cx="2892" cy="352" r="21" fill="#FFFFFF"/>
    <circle cx="3232.5" cy="313.5" r="43.5" fill="#FFFFFF"/>
    <circle cx="2740" cy="359" r="21" fill="#FFFFFF"/>
    <ellipse cx="2973" cy="326.814" fill="#FFFFFF" rx="27" ry="30.203"/>
    <circle cx="3122.5" cy="347.5" r="29.5" fill="#FFFFFF"/>
    <ellipse cx="3070" cy="337.797" fill="#FFFFFF" rx="32" ry="35.797"/>
    <circle cx="2002.5" cy="343.5" r="27.5" fill="#FFFFFF"/>
    <circle cx="1914.5" cy="294.5" r="35.5" fill="#FFFFFF"/>
    <circle cx="1873.5" cy="278.5" r="38.5" fill="#FFFFFF"/>
    <circle cx="1658.5" cy="133.5" r="35.5" fill="#FFFFFF"/>
    <circle cx="1555.5" cy="85.5" r="38.5" fill="#FFFFFF"/>
    <circle cx="1607.5" cy="116.5" r="38.5" fill="#FFFFFF"/>
    <circle cx="1530.5" cy="133.5" r="38.5" fill="#FFFFFF"/>
    <circle cx="1593.5" cy="72.5" r="29.5" fill="#FFFFFF"/>
    <circle cx="1629.5" cy="85.5" r="21.5" fill="#FFFFFF"/>
    <circle cx="1811.5" cy="262.5" r="58.5" fill="#FFFFFF"/>
    <circle cx="1746.5" cy="285.5" r="58.5" fill="#FFFFFF"/>
    <circle cx="1728.5" cy="196.5" r="58.5" fill="#FFFFFF"/>
    <circle cx="1659.5" cy="218.5" r="58.5" fill="#FFFFFF"/>
    <circle cx="1676.5" cy="305.5" r="58.5" fill="#FFFFFF"/>
    <circle cx="1572" cy="155" r="40" fill="#FFFFFF"/>
    <circle cx="1565.5" cy="219.5" r="58.5" fill="#FFFFFF"/>
    <circle cx="1585.5" cy="298.5" r="58.5" fill="#FFFFFF"/>
    <circle cx="2762.004" cy="379.004" r="21" fill="#FFFFFF"/>
    <circle cx="2922.004" cy="349.004" r="21" fill="#FFFFFF"/>
    <ellipse cx="2711.881" cy="365.03" fill="#FFFFFF" transform="rotate(-21 2711.881 365.03)" rx="23.4" ry="23.824"/>
    <circle cx="2681.223" cy="369.957" r="21" fill="#FFFFFF" transform="rotate(-21 2681.223 369.957)"/>
    <circle cx="3235" cy="323" r="34.994" fill="#FFFFFF"/>
    <ellipse cx="3363" cy="297" fill="#FFFFFF" rx="29.819" ry="30.173"/>
    <ellipse cx="3260.5" cy="293" fill="#FFFFFF" rx="15.406" ry="16.092"/>
    <ellipse cx="3290" cy="288" fill="#FFFFFF" rx="19.879" ry="20.115"/>
    <ellipse cx="3322.5" cy="293" fill="#FFFFFF" rx="25.346" ry="26.15"/>
    <circle cx="3398" cy="278" r="22.996" fill="#FFFFFF"/>
    <ellipse cx="3606" cy="344.5" fill="#FFFFFF" rx="35.393" ry="36.089"/>
    <ellipse cx="3573" cy="337.5" fill="#FFFFFF" rx="35.393" ry="36.089"/>
    <ellipse cx="3546" cy="295.5" fill="#FFFFFF" rx="35.393" ry="36.089"/>
    <ellipse cx="3657" cy="318.5" fill="#FFFFFF" rx="18.68" ry="18.807"/>
    <ellipse cx="3630" cy="311.5" fill="#FFFFFF" rx="18.68" ry="18.807"/>
    <ellipse cx="3593" cy="299" fill="#FFFFFF" rx="23.595" ry="24.398"/>
    <ellipse cx="3507" cy="260.5" fill="#FFFFFF" rx="30.477" ry="31.006"/>
    <circle cx="3689.5" cy="329.5" r="21.496" fill="#FFFFFF"/>
    <circle cx="3713.5" cy="342.5" r="21.496" fill="#FFFFFF"/>
    <circle cx="3739.503" cy="352.503" r="15.5" fill="#FFFFFF"/>
    <circle cx="3642.5" cy="342.5" r="27.495" fill="#FFFFFF"/>
    <ellipse cx="3423.015" cy="260" fill="#FFFFFF" rx="18.259" ry="16.695"/>
    <ellipse cx="3397.13" cy="254.5" fill="#FFFFFF" rx="16.111" ry="14.24"/>
    <ellipse cx="3376" cy="243" fill="#FFFFFF" rx="14.136" ry="12.845"/>
    <ellipse cx="3424" cy="244.5" fill="#FFFFFF" rx="40.857" ry="41.621"/>
    <ellipse cx="3368" cy="227.5" fill="#FFFFFF" rx="40.857" ry="41.621"/>
    <ellipse cx="3275" cy="260.5" fill="#FFFFFF" rx="40.857" ry="41.621"/>
    <ellipse cx="3434" cy="290.5" fill="#FFFFFF" rx="40.857" ry="41.621"/>
    <ellipse cx="3351.5" cy="237" fill="#FFFFFF" rx="21.425" ry="22.064"/>
    <ellipse cx="3332" cy="195" fill="#FFFFFF" rx="30" ry="20"/>
    <circle cx="3463.5" cy="262.5" r="31.491" fill="#FFFFFF"/>
    <ellipse cx="3333.002" cy="226.002" fill="#FFFFFF" rx="61.5" ry="62.5"/>
    <circle cx="3487" cy="314" r="50" fill="#FFFFFF"/>
    <circle cx="3443" cy="330" r="50" fill="#FFFFFF"/>
    <circle cx="3374.5" cy="272.5" r="41.5" fill="#FFFFFF"/>
    <ellipse cx="1138.917" cy="210.694" fill="#FFFFFF" transform="matrix(-1 0 0 1 2277.834 0)" rx="14.3" ry="14.559"/>
    <ellipse cx="1167.299" cy="194.842" fill="#FFFFFF" transform="matrix(-1 0 0 1 2334.598 0)" rx="18.2" ry="18.529"/>
    <circle cx="1202" cy="165" r="23" fill="#FFFFFF" transform="matrix(-1 0 0 1 2404 0)"/>
    <circle cx="1243" cy="161" r="23" fill="#FFFFFF" transform="matrix(-1 0 0 1 2486 0)"/>
    <circle cx="1288.5" cy="95.5" r="21.5" fill="#FFFFFF" transform="matrix(-1 0 0 1 2577 0)"/>
    <circle cx="1383.5" cy="42.5" r="16.5" fill="#FFFFFF" transform="matrix(-1 0 0 1 2767 0)"/>
    <circle cx="1364.5" cy="61.5" r="16.5" fill="#FFFFFF" transform="matrix(-1 0 0 1 2729 0)"/>
    <circle cx="1344.5" cy="79.5" r="16.5" fill="#FFFFFF" transform="matrix(-1 0 0 1 2689 0)"/>
    <circle cx="1318.5" cy="90.5" r="16.5" fill="#FFFFFF" transform="matrix(-1 0 0 1 2637 0)"/>
    <circle cx="1350" cy="109" r="33" fill="#FFFFFF" transform="matrix(-1 0 0 1 2700 0)"/>
    <circle cx="1271.5" cy="132.5" r="32.5" fill="#FFFFFF" transform="matrix(-1 0 0 1 2543 0)"/>
    <circle cx="1419" cy="109" r="40" fill="#FFFFFF" transform="matrix(-1 0 0 1 2838 0)"/>
    <circle cx="1122.5" cy="251.5" r="35.5" fill="#FFFFFF" opacity=".9" transform="matrix(-1 0 0 1 2245 0)"/>
    <circle cx="1163.5" cy="235.5" r="38.5" fill="#FFFFFF" transform="matrix(-1 0 0 1 2327 0)"/>
    <circle cx="1378.5" cy="90.5" r="35.5" fill="#FFFFFF" transform="matrix(-1 0 0 1 2757 0)"/>
    <circle cx="1481.5" cy="42.5" r="38.5" fill="#FFFFFF" transform="matrix(-1 0 0 1 2963 0)"/>
    <circle cx="1429.5" cy="73.5" r="38.5" fill="#FFFFFF" transform="matrix(-1 0 0 1 2859 0)"/>
    <circle cx="1506.5" cy="90.5" r="38.5" fill="#FFFFFF" transform="matrix(-1 0 0 1 3013 0)"/>
    <circle cx="1443.5" cy="29.5" r="29.5" fill="#FFFFFF" transform="matrix(-1 0 0 1 2887 0)"/>
    <circle cx="1407.5" cy="42.5" r="21.5" fill="#FFFFFF" transform="matrix(-1 0 0 1 2815 0)"/>
    <circle cx="1225.5" cy="219.5" r="58.5" fill="#FFFFFF" transform="matrix(-1 0 0 1 2451 0)"/>
    <circle cx="1290.5" cy="242.5" r="58.5" fill="#FFFFFF" transform="matrix(-1 0 0 1 2581 0)"/>
    <circle cx="1517.5" cy="245.5" r="58.5" fill="#FFFFFF" transform="matrix(-1 0 0 1 3035 0)"/>
    <circle cx="1308.5" cy="153.5" r="58.5" fill="#FFFFFF" transform="matrix(-1 0 0 1 2617 0)"/>
    <circle cx="1377.5" cy="175.5" r="58.5" fill="#FFFFFF" transform="matrix(-1 0 0 1 2755 0)"/>
    <circle cx="1360.5" cy="262.5" r="58.5" fill="#FFFFFF" transform="matrix(-1 0 0 1 2721 0)"/>
    <circle cx="1465" cy="112" r="40" fill="#FFFFFF" transform="matrix(-1 0 0 1 2930 0)"/>
    <circle cx="1471.5" cy="176.5" r="58.5" fill="#FFFFFF" transform="matrix(-1 0 0 1 2943 0)"/>
    <circle cx="1451.5" cy="255.5" r="58.5" fill="#FFFFFF" transform="matrix(-1 0 0 1 2903 0)"/>
    <ellipse cx="1221.5" cy="319" fill="#FFFFFF" rx="40.997" ry="41.49"/>
    <ellipse cx="1172.5" cy="286.5" fill="#FFFFFF" rx="49.5" ry="50.5"/>
    <ellipse cx="1138.178" cy="351.835" fill="#FFFFFF" opacity=".9" rx="49.5" ry="50.5"/>
    <circle cx="1103.5" cy="290.5" r="31.495" fill="#FFFFFF" opacity=".9"/>
    <circle cx="1088.5" cy="277.5" r="31.495" fill="#FFFFFF" opacity=".7"/>
    <circle cx="1051.5" cy="366.5" r="31.495" fill="#FFFFFF" opacity=".7"/>
    <circle cx="1091.5" cy="366.5" r="31.495" fill="#FFFFFF" opacity=".8"/>
    <circle cx="1018" cy="370" r="28" fill="#FFFFFF" opacity=".5"/>
    <ellipse cx="1060.5" cy="328.5" fill="#FFFFFF" opacity=".7" rx="41.126" ry="41.871"/>
    <ellipse cx="1082.5" cy="335.5" fill="#FFFFFF" opacity=".7" rx="41.126" ry="41.871"/>
    <ellipse cx="1123.5" cy="337.5" fill="#FFFFFF" opacity=".9" rx="41.126" ry="41.871"/>
    <ellipse cx="1172.5" cy="358.5" fill="#FFFFFF" opacity=".9" rx="41.126" ry="41.871"/>
    <ellipse cx="1200.5" cy="334.5" fill="#FFFFFF" transform="rotate(180 1200.5 334.5)" rx="41.126" ry="41.871"/>
    <ellipse cx="1201.5" cy="358.5" fill="#FFFFFF" transform="rotate(180 1201.5 358.5)" rx="41.126" ry="41.871"/>
    <path fill="#FFFFFF" d="M2675,361 L2888.74182,351.1875 C2888.74182,351.1875 2978.83155,336.372261 3002.7207,334.699405 C3026.60986,333.026549 3124.1994,334.699405 3124.1994,334.699405 L3329.10268,247.515625 L3754,361 L3754,401 L2675,401 L2675,361 Z"/>
    <rect width="729" height="131" x="1203" y="270" fill="#FFFFFF"/>
    <path fill="#FFFFFF" d="M2095,373 L2124.36523,364.626953 L2235.07422,379.574219 C2235.07422,379.574219 2306.94638,365.048216 2344.68359,364.626953 C2357.0996,364.488352 2411.02264,374.575889 2480.75977,375.791016 C2550.49689,377.006142 2824,373 2824,373 L2824,401 L2095,401 L2095,373 Z"/>
    <rect width="250" height="70" x="1859" y="331" fill="#FFFFFF"/>
    <circle cx="2981" cy="341" r="15" fill="#D5C9E5" transform="matrix(-1 0 0 1 5962 0)"/>
    <circle cx="2983" cy="337" r="15" fill="#FFFFFF" transform="matrix(-1 0 0 1 5966 0)"/>
    <circle cx="3009" cy="341" r="20" fill="#D5C9E5" transform="matrix(-1 0 0 1 6018 0)"/>
    <circle cx="3008" cy="336" r="20" fill="#FFFFFF" transform="matrix(-1 0 0 1 6016 0)"/>
    <g transform="translate(0 356)">
      <ellipse cx="2498.088" cy="120.13" fill="#EAE6F0" transform="matrix(-1 0 0 1 4996.175 0)" rx="23.088" ry="23.13"/>
      <ellipse cx="2499.088" cy="115.13" fill="#FFFFFF" transform="matrix(-1 0 0 1 4998.175 0)" rx="23.088" ry="23.13"/>
      <ellipse cx="2535.191" cy="107.229" fill="#EAE6F0" transform="matrix(-1 0 0 1 5070.383 0)" rx="20.009" ry="20.409"/>
      <ellipse cx="2535.191" cy="103.229" fill="#FFFFFF" transform="matrix(-1 0 0 1 5070.383 0)" rx="20.009" ry="20.409"/>
      <ellipse cx="2310.548" cy="106.548" fill="#EAE6F0" transform="matrix(-1 0 0 1 4621.096 0)" rx="27.3" ry="27.794"/>
      <ellipse cx="2309.548" cy="102.548" fill="#FFFFFF" transform="matrix(-1 0 0 1 4619.096 0)" rx="27.3" ry="27.794"/>
      <ellipse cx="2355.302" cy="103.953" fill="#EAE6F0" transform="scale(-1 1) rotate(18 0 -14766.835)" rx="23.732" ry="24.161"/>
      <ellipse cx="2355.302" cy="98.953" fill="#FFFFFF" transform="scale(-1 1) rotate(18 0 -14771.835)" rx="23.732" ry="24.161"/>
      <ellipse cx="2621.618" cy="126.713" fill="#EAE6F0" transform="scale(-1 1) rotate(18 0 -16425.534)" rx="27.3" ry="27.794"/>
      <ellipse cx="2623.618" cy="122.713" fill="#FFFFFF" transform="scale(-1 1) rotate(18 0 -16442.161)" rx="27.3" ry="27.794"/>
      <ellipse cx="2457.618" cy="103.713" fill="#EAE6F0" transform="scale(-1 1) rotate(18 0 -15413.078)" rx="27.3" ry="27.794"/>
      <ellipse cx="2457.618" cy="98.713" fill="#FFFFFF" transform="scale(-1 1) rotate(18 0 -15418.078)" rx="27.3" ry="27.794"/>
      <circle cx="2404.143" cy="115.033" r="33.444" fill="#EAE6F0" transform="scale(-1 1) rotate(18 0 -15064.125)"/>
      <circle cx="2404.143" cy="110.033" r="33.444" fill="#FFFFFF" transform="scale(-1 1) rotate(18 0 -15069.125)"/>
      <ellipse cx="2264.548" cy="126.548" fill="#EAE6F0" transform="matrix(1 0 0 -1 0 253.096)" rx="27.3" ry="27.794"/>
      <polygon fill="#FFFFFF" points="1191.178 27.047 2173.875 60.055 3713.699 27.047 3743 88 1177 88"/>
      <rect width="1926" height="54" x="1780" y="52" fill="#FFFFFF"/>
      <circle cx="2688.225" cy="115" r="47" fill="#EAE6F0" transform="scale(-1 1) rotate(30 0 -9917.59)"/>
      <circle cx="2688.225" cy="110" r="47" fill="#FFFFFF" transform="scale(-1 1) rotate(30 0 -9922.59)"/>
      <circle cx="2737.27" cy="96.046" r="28" fill="#EAE6F0" transform="scale(-1 1) rotate(30 0 -10119.586)"/>
      <circle cx="2741.056" cy="87.831" r="31.504" fill="#FFFFFF" transform="scale(-1 1) rotate(30 0 -10141.929)"/>
      <circle cx="2781.021" cy="115.797" r="21" fill="#EAE6F0" transform="matrix(-1 0 0 1 5562.043 0)"/>
      <circle cx="2784.021" cy="111.797" r="21" fill="#FFFFFF" transform="matrix(-1 0 0 1 5568.043 0)"/>
      <ellipse cx="2814.387" cy="102.162" fill="#EAE6F0" transform="matrix(-1 0 0 1 5628.774 0)" rx="18.2" ry="18.529"/>
      <ellipse cx="2817.387" cy="96.162" fill="#FFFFFF" transform="matrix(-1 0 0 1 5634.774 0)" rx="18.2" ry="18.529"/>
      <ellipse cx="2853.57" cy="112.345" fill="#EAE6F0" transform="matrix(-1 0 0 1 5707.14 0)" rx="27.3" ry="27.794"/>
      <ellipse cx="2857.57" cy="109.345" fill="#FFFFFF" transform="matrix(-1 0 0 1 5715.14 0)" rx="27.3" ry="27.794"/>
      <ellipse cx="2103.548" cy="97.548" fill="#EAE6F0" transform="matrix(-1 0 0 1 4207.096 0)" rx="27.3" ry="27.794"/>
      <ellipse cx="2108.548" cy="92.548" fill="#FFFFFF" transform="matrix(-1 0 0 1 4217.096 0)" rx="27.3" ry="27.794"/>
      <ellipse cx="2048.538" cy="94.406" fill="#EAE6F0" transform="rotate(30 2048.538 94.406)" rx="51.673" ry="51.768"/>
      <ellipse cx="2048.538" cy="85.594" fill="#FFFFFF" transform="rotate(30 2048.538 85.594)" rx="51.673" ry="51.768"/>
      <ellipse cx="1995.493" cy="93.491" fill="#EAE6F0" transform="rotate(30 1995.493 93.491)" rx="30.784" ry="30.841"/>
      <ellipse cx="1991.33" cy="84.444" fill="#FFFFFF" transform="rotate(30 1991.33 84.444)" rx="34.635" ry="34.7"/>
      <ellipse cx="1947.392" cy="103.659" fill="#EAE6F0" rx="23.088" ry="23.13"/>
      <ellipse cx="1944.094" cy="99.253" fill="#FFFFFF" rx="23.088" ry="23.13"/>
      <ellipse cx="1910.709" cy="100.67" fill="#EAE6F0" rx="20.009" ry="20.409"/>
      <ellipse cx="1910.411" cy="97.062" fill="#FFFFFF" rx="20.009" ry="20.409"/>
      <ellipse cx="1867.631" cy="110.872" fill="#EAE6F0" rx="30.014" ry="30.614"/>
      <ellipse cx="1863.234" cy="109.77" fill="#FFFFFF" rx="30.014" ry="30.614"/>
      <ellipse cx="1796.772" cy="95.42" fill="#EAE6F0" rx="47.275" ry="47.362"/>
      <ellipse cx="1792.374" cy="88.812" fill="#FFFFFF" rx="47.275" ry="47.362"/>
      <circle cx="2147.135" cy="119.135" r="21" fill="#EAE6F0" transform="scale(-1 1) rotate(-21 0 11704.042)"/>
      <circle cx="2149.135" cy="114.135" r="21" fill="#FFFFFF" transform="scale(-1 1) rotate(-21 0 11709.833)"/>
      <circle cx="2183.135" cy="98.135" r="21" fill="#FFFFFF" transform="scale(-1 1) rotate(-21 0 11877.28)"/>
      <ellipse cx="2212.634" cy="112.634" fill="#EAE6F0" transform="scale(-1 1) rotate(-21 0 12050.94)" rx="32.703" ry="33.295"/>
      <ellipse cx="2212.634" cy="106.634" fill="#FFFFFF" transform="scale(-1 1) rotate(-21 0 12044.94)" rx="32.703" ry="33.295"/>
      <circle cx="3206.203" cy="84.203" r="47" fill="#FFFFFF" transform="scale(-1 1) rotate(30 0 -11881.51)"/>
      <circle cx="2924.249" cy="70" r="28" fill="#FFFFFF" transform="scale(-1 1) rotate(30 0 -10843.445)"/>
      <circle cx="2922.663" cy="90.29" r="56.453" fill="#EAE6F0" transform="scale(-1 1) rotate(30 0 -10817.238)"/>
      <circle cx="2925.663" cy="82.29" r="56.453" fill="#FFFFFF" transform="scale(-1 1) rotate(30 0 -10836.434)"/>
      <circle cx="3082.203" cy="82.203" r="47" fill="#FFFFFF" transform="scale(-1 1) rotate(30 0 -11420.736)"/>
      <circle cx="2970.249" cy="95" r="28" fill="#EAE6F0" transform="scale(-1 1) rotate(30 0 -10990.12)"/>
      <circle cx="2973.531" cy="86.463" r="31.504" fill="#FFFFFF" transform="scale(-1 1) rotate(30 0 -11010.906)"/>
      <circle cx="2981.035" cy="60.035" r="31.504" fill="#FFFFFF" transform="scale(-1 1) rotate(30 0 -11065.338)"/>
      <circle cx="3148.5" cy="105.5" r="47" fill="#EAE6F0" transform="scale(-1 1) rotate(30 0 -11644.862)"/>
      <circle cx="3146.203" cy="101.203" r="47" fill="#FFFFFF" transform="scale(-1 1) rotate(30 0 -11640.587)"/>
      <circle cx="3029.203" cy="101.203" r="47" fill="#EAE6F0" transform="scale(-1 1) rotate(30 0 -11203.937)"/>
      <circle cx="3033" cy="96" r="49" fill="#FFFFFF" transform="scale(-1 1) rotate(30 0 -11223.31)"/>
      <circle cx="3137" cy="54" r="21" fill="#D5C9E5" transform="matrix(-1 0 0 1 6274 0)"/>
      <circle cx="3134" cy="50" r="21" fill="#FFFFFF" transform="matrix(-1 0 0 1 6268 0)"/>
      <circle cx="2941" cy="60" r="25" fill="#FFFFFF" transform="matrix(-1 0 0 1 5882 0)"/>
      <ellipse cx="2265.548" cy="116.048" fill="#FFFFFF" transform="matrix(1 0 0 -1 0 232.096)" rx="32.75" ry="33.343"/>
      <circle cx="2578.652" cy="113.543" r="27.5" fill="#EAE6F0" transform="scale(-1 1) rotate(18 0 -16167.425)"/>
      <circle cx="2578.652" cy="108.543" r="27.5" fill="#FFFFFF" transform="scale(-1 1) rotate(18 0 -16172.425)"/>
      <circle cx="1562" cy="95" r="31" fill="#EAE6F0" transform="matrix(-1 0 0 1 3124 0)"/>
      <circle cx="1564.223" cy="89.402" r="31" fill="#FFFFFF" transform="matrix(-1 0 0 1 3128.446 0)"/>
      <ellipse cx="1612.723" cy="78.902" fill="#EAE6F0" transform="matrix(-1 0 0 1 3225.446 0)" rx="27.252" ry="27.746"/>
      <ellipse cx="1612.723" cy="73.902" fill="#FFFFFF" transform="matrix(-1 0 0 1 3225.446 0)" rx="27.252" ry="27.746"/>
      <ellipse cx="1309.223" cy="77.402" fill="#EAE6F0" transform="matrix(-1 0 0 1 2618.446 0)" rx="36.667" ry="37.33"/>
      <ellipse cx="1308.223" cy="72.402" fill="#FFFFFF" transform="matrix(-1 0 0 1 2616.446 0)" rx="36.667" ry="37.33"/>
      <ellipse cx="1370.021" cy="73.879" fill="#EAE6F0" transform="scale(-1 1) rotate(18 0 -8576.091)" rx="31.952" ry="32.531"/>
      <ellipse cx="1370.021" cy="66.879" fill="#FFFFFF" transform="scale(-1 1) rotate(18 0 -8583.091)" rx="31.952" ry="32.531"/>
      <ellipse cx="1730" cy="104.5" fill="#EAE6F0" transform="scale(-1 1) rotate(18 0 -10818.29)" rx="36.871" ry="37.609"/>
      <ellipse cx="1733" cy="99.5" fill="#FFFFFF" transform="scale(-1 1) rotate(18 0 -10842.231)" rx="36.871" ry="37.609"/>
      <ellipse cx="1509" cy="73.5" fill="#EAE6F0" transform="scale(-1 1) rotate(18 0 -9453.951)" rx="36.871" ry="37.609"/>
      <ellipse cx="1509" cy="67.5" fill="#FFFFFF" transform="scale(-1 1) rotate(18 0 -9459.951)" rx="36.871" ry="37.609"/>
      <circle cx="1435.926" cy="89.105" r="45" fill="#EAE6F0" transform="scale(-1 1) rotate(18 0 -8976.975)"/>
      <circle cx="1435.926" cy="82.105" r="45" fill="#FFFFFF" transform="scale(-1 1) rotate(18 0 -8983.975)"/>
      <ellipse cx="1247.223" cy="104.402" fill="#EAE6F0" transform="matrix(1 0 0 -1 0 208.804)" rx="36.667" ry="37.33"/>
      <circle cx="1089.043" cy="95.222" r="28.495" fill="#EAE6F0" opacity=".9" transform="scale(-1 1) rotate(-21 0 5971.174)"/>
      <circle cx="1092.043" cy="88.222" r="28.495" fill="#FFFFFF" opacity=".9" transform="scale(-1 1) rotate(-21 0 5980.36)"/>
      <ellipse cx="1176.714" cy="85.893" fill="#EAE6F0" transform="scale(-1 1) rotate(-21 0 6434.877)" rx="44.099" ry="44.897"/>
      <ellipse cx="1176.714" cy="77.893" fill="#FFFFFF" transform="scale(-1 1) rotate(-21 0 6426.877)" rx="44.099" ry="44.897"/>
      <ellipse cx="1249.723" cy="90.902" fill="#FFFFFF" transform="matrix(1 0 0 -1 0 181.804)" rx="44.099" ry="44.897"/>
      <circle cx="1671.845" cy="87.024" r="37" fill="#EAE6F0" transform="scale(-1 1) rotate(18 0 -10468.593)"/>
      <circle cx="1671.845" cy="80.024" r="37" fill="#FFFFFF" transform="scale(-1 1) rotate(18 0 -10475.593)"/>
      <ellipse cx="1030.275" cy="76.039" fill="#EAE6F0" opacity=".8" rx="47.275" ry="47.362"/>
      <ellipse cx="1026.275" cy="69.039" fill="#FFFFFF" opacity=".8" rx="47.275" ry="47.362"/>
      <circle cx="974.5" cy="76.5" r="46.5" fill="#EAE6F0" opacity=".6" transform="rotate(30 974.5 76.5)"/>
      <circle cx="974.5" cy="68.5" r="46.5" fill="#FFFFFF" opacity=".6" transform="rotate(30 974.5 68.5)"/>
      <ellipse cx="921.08" cy="87.778" fill="#EAE6F0" opacity=".6" transform="rotate(30 921.08 87.778)" rx="30.784" ry="30.841"/>
      <ellipse cx="917.345" cy="79.046" fill="#FFFFFF" opacity=".6" transform="rotate(30 917.345 79.046)" rx="34.635" ry="34.7"/>
      <ellipse cx="873.287" cy="79.02" fill="#EAE6F0" opacity=".4" rx="30.014" ry="30.614"/>
      <ellipse cx="869.287" cy="78.02" fill="#FFFFFF" opacity=".4" rx="30.014" ry="30.614"/>
      <ellipse cx="835.088" cy="81.808" fill="#EAE6F0" opacity=".3" rx="23.088" ry="23.13"/>
      <ellipse cx="832.088" cy="77.808" fill="#FFFFFF" opacity=".3" rx="23.088" ry="23.13"/>
      <ellipse cx="798.191" cy="78.906" fill="#EAE6F0" opacity=".2" rx="20.009" ry="20.409"/>
      <ellipse cx="798.191" cy="74.906" fill="#FFFFFF" opacity=".2" rx="20.009" ry="20.409"/>
      <circle cx="3760.117" cy="85.453" r="56.453" fill="#EAE6F0" transform="scale(-1 1) rotate(30 0 -13947.493)"/>
      <circle cx="3763.117" cy="77.453" r="56.453" fill="#FFFFFF" transform="scale(-1 1) rotate(30 0 -13966.689)"/>
      <circle cx="3841.203" cy="96.54" r="47" fill="#EAE6F0" opacity=".9" transform="scale(-1 1) rotate(30 0 -14239.026)"/>
      <circle cx="3841.203" cy="91.54" r="47" fill="#FFFFFF" opacity=".9" transform="scale(-1 1) rotate(30 0 -14244.026)"/>
      <circle cx="3889.226" cy="108.563" r="37.506" fill="#EAE6F0" opacity=".7"/>
      <circle cx="3892.275" cy="103.612" r="39.007" fill="#FFFFFF" opacity=".7"/>
      <circle cx="3932.249" cy="117.585" r="28" fill="#EAE6F0" opacity=".6" transform="scale(-1 1) rotate(30 0 -14557.767)"/>
      <circle cx="3935.035" cy="108.371" r="31.504" fill="#FFFFFF" opacity=".6" transform="scale(-1 1) rotate(30 0 -14577.378)"/>
      <circle cx="3974.249" cy="120.585" r="28" fill="#EAE6F0" opacity=".5" transform="scale(-1 1) rotate(30 0 -14711.513)"/>
      <circle cx="3978.035" cy="112.371" r="31.504" fill="#FFFFFF" opacity=".5" transform="scale(-1 1) rotate(30 0 -14733.856)"/>
      <circle cx="4009" cy="126.337" r="21" fill="#EAE6F0" opacity=".4" transform="matrix(-1 0 0 1 8018 0)"/>
      <circle cx="4012" cy="122.337" r="21" fill="#FFFFFF" opacity=".4" transform="matrix(-1 0 0 1 8024 0)"/>
      <ellipse cx="4041.365" cy="125.702" fill="#EAE6F0" opacity=".4" transform="matrix(-1 0 0 1 8082.73 0)" rx="18.2" ry="18.529"/>
      <ellipse cx="4044.365" cy="120.702" fill="#FFFFFF" opacity=".4" transform="matrix(-1 0 0 1 8088.73 0)" rx="18.2" ry="18.529"/>
      <ellipse cx="3369" cy="105" fill="#EAE6F0" transform="matrix(1 0 0 -1 0 210)" rx="36.667" ry="37.33"/>
      <circle cx="3209.703" cy="95.821" r="28.495" fill="#EAE6F0" opacity=".9" transform="scale(-1 1) rotate(-21 0 17413.83)"/>
      <circle cx="3212.703" cy="88.821" r="28.495" fill="#FFFFFF" opacity=".9" transform="scale(-1 1) rotate(-21 0 17423.016)"/>
      <circle cx="3258.703" cy="67.821" r="28.495" fill="#FFFFFF" transform="scale(-1 1) rotate(-21 0 17650.21)"/>
      <ellipse cx="3297.374" cy="86.492" fill="#EAE6F0" transform="scale(-1 1) rotate(-21 0 17877.532)" rx="44.099" ry="44.897"/>
      <ellipse cx="3297.374" cy="78.492" fill="#FFFFFF" transform="scale(-1 1) rotate(-21 0 17869.532)" rx="44.099" ry="44.897"/>
      <ellipse cx="3370.383" cy="91.5" fill="#FFFFFF" transform="matrix(1 0 0 -1 0 183)" rx="44.099" ry="44.897"/>
      <ellipse cx="3430.681" cy="99.477" fill="#EAE6F0" transform="scale(-1 1) rotate(18 0 -21560.988)" rx="31.952" ry="32.531"/>
      <ellipse cx="3430.681" cy="92.477" fill="#FFFFFF" transform="scale(-1 1) rotate(18 0 -21567.988)" rx="31.952" ry="32.531"/>
      <ellipse cx="3569.66" cy="99.098" fill="#EAE6F0" transform="scale(-1 1) rotate(18 0 -22438.847)" rx="36.871" ry="37.609"/>
      <ellipse cx="3569.66" cy="93.098" fill="#FFFFFF" transform="scale(-1 1) rotate(18 0 -22444.847)" rx="36.871" ry="37.609"/>
      <circle cx="3496.586" cy="114.703" r="45" fill="#EAE6F0" transform="scale(-1 1) rotate(18 0 -21961.872)"/>
      <circle cx="3496.586" cy="107.703" r="45" fill="#FFFFFF" transform="scale(-1 1) rotate(18 0 -21968.872)"/>
      <circle cx="3686" cy="98" r="45" fill="#EAE6F0" transform="scale(-1 1) rotate(18 0 -23174.488)"/>
      <circle cx="3686" cy="91" r="45" fill="#FFFFFF" transform="scale(-1 1) rotate(18 0 -23181.488)"/>
      <ellipse cx="3248.024" cy="113.865" fill="#EAE6F0" transform="scale(-1 1) rotate(18 0 -20393.35)" rx="36.871" ry="37.609"/>
      <ellipse cx="3251.024" cy="108.865" fill="#FFFFFF" transform="scale(-1 1) rotate(18 0 -20417.29)" rx="36.871" ry="37.609"/>
      <circle cx="3630.505" cy="108.623" r="37" fill="#EAE6F0" transform="scale(-1 1) rotate(18 0 -22813.486)"/>
      <circle cx="3630.505" cy="101.623" r="37" fill="#FFFFFF" transform="scale(-1 1) rotate(18 0 -22820.486)"/>
      <rect width="763" height="62" x="1219" y="25" fill="#FFFFFF"/>
      <polygon fill="#FFFFFF" points="1207.777 21 3762 21 3762 83 1207.777 83"/>
      <rect width="1366" height="50" x="2346" y="38" fill="#FFFFFF"/>
      <ellipse cx="1114" cy="56" fill="#FFFFFF" opacity=".9" transform="rotate(180 1114 56)" rx="35" ry="36"/>
      <ellipse cx="1164" cy="56" fill="#FFFFFF" opacity=".9" transform="rotate(180 1164 56)" rx="35" ry="36"/>
      <ellipse cx="1065.5" cy="56.5" fill="#FFFFFF" opacity=".9" transform="rotate(180 1065.5 56.5)" rx="35.18" ry="35.817"/>
      <circle cx="1138.043" cy="67.222" r="28.495" fill="#FFFFFF" transform="scale(-1 1) rotate(-21 0 6207.554)"/>
    </g>
  </g>
</svg>
