<svg xmlns="http://www.w3.org/2000/svg" width="2598" height="687"><g fill="none" fill-rule="evenodd" transform="translate(-2)" opacity=".45"><path fill="#9E7DD8" opacity=".796" d="M1580.346 188.998l6.036-1.845-2.045-6.687 4.916-1.503 2.044 6.687 6.035-1.845 1.382 4.517-6.036 1.845 2.045 6.687-4.916 1.503-2.044-6.687-6.035 1.845z"/><path fill="#9E7DD8" d="M1176.36 192.094l6.035-1.845-2.045-6.686 4.915-1.503 2.044 6.687 6.035-1.845 1.382 4.517-6.036 1.845 2.045 6.687-4.915 1.502-2.044-6.686-6.035 1.845zM1787.65 240.832l8.443 4.489 4.974-9.354 6.876 3.656-4.974 9.354 8.443 4.49-3.36 6.318-8.443-4.489-4.973 9.354-6.877-3.656 4.974-9.354-8.443-4.489z"/><path fill="#9E7DD8" opacity=".796" d="M1350.06 123.844l6.138 1.417-1.417 6.138-6.138-1.417z"/><path fill="#1DBCBC" opacity=".6" d="M1777.607 125.793l-5.72 11.224 11.226 5.72 5.719-11.225z"/><ellipse cx="1730.21" cy="215.435" stroke="#1DBCBC" stroke-width="4.2" opacity=".796" transform="rotate(-17 1730.21 215.435)" rx="10.497" ry="10.498"/><path fill="#9E7DD8" opacity=".796" d="M1384.354 478.48l6.033 3.209 3.554-6.684 4.914 2.612-3.554 6.684 6.033 3.208-2.401 4.517-6.034-3.208-3.553 6.684-4.914-2.613 3.554-6.684-6.033-3.208zM1650.962 343.498l6.033 3.208 3.554-6.684 4.914 2.612-3.554 6.684 6.033 3.208-2.401 4.517-6.034-3.208-3.554 6.684-4.914-2.612 3.555-6.685-6.033-3.208z"/><path fill="#1DBCBC" opacity=".796" d="M2350.044 23.112l9.664 4.102-4.102 9.664-9.664-4.102z"/><path stroke="#9E7DD8" stroke-width="3.465" opacity=".796" d="M1984.595 57.615l-3.178 11.862-11.864-3.178 3.179-11.863z"/><path stroke="#1DBCBC" stroke-width="3.15" d="M1957.961 119.25l-5.844 15.163 17.744-4.096-11.9-11.068z"/><path fill="#9E7DD8" d="M1315.204 461.017l-9.87 11.48 16.67 2.048z"/><path stroke="#1DBCBC" stroke-width="3.15" d="M1262.206 518.278l-16.228-.872 9.38 15.61 6.848-14.738z"/><path fill="#1DBCBC" d="M2047.328 212.35l-9.87 11.482 16.67 2.046zM1266.347 391.767l-9.87 11.48 16.67 2.047z"/><path stroke="#9E7DD8" stroke-width="3.15" d="M1191.145 396.04l-16.228-.872 9.38 15.61 6.848-14.738z"/><path fill="#1DBCBC" d="M1229.34 246.695l-9.87 11.48 16.67 2.048zM2025.754 299.727l-9.871 11.48 16.67 2.048z"/><path stroke="#9E7DD8" stroke-width="3.15" d="M1369.02 371.58l-16.228-.872 9.379 15.61 6.848-14.738z"/><path fill="#1DBCBC" opacity=".796" d="M1949.962 337.108l11.595 4.922-4.922 11.596-11.596-4.922z"/><path fill="#9E7DD8" opacity=".796" d="M2599.621 5.408l-5.342 3.338-3.338-5.342 5.342-3.338zM2093.293 115.786l9.27-3.935-4.293-10.112 7.55-3.205 4.293 10.113 9.27-3.935 2.9 6.832-9.27 3.936 4.293 10.112-7.55 3.205-4.293-10.113-9.27 3.935zM1814.483 167.263l6.916 3.678 4.053-7.622 5.632 2.995-4.052 7.621 6.916 3.678-2.739 5.15-6.916-3.677-4.052 7.62-5.632-2.994 4.052-7.621-6.916-3.677z"/><ellipse cx="2293.899" cy="154.285" stroke="#1DBCBC" stroke-width="4.2" opacity=".796" transform="rotate(-17 2293.9 154.285)" rx="6.823" ry="6.823"/><ellipse cx="1433.68" cy="203.841" stroke="#1DBCBC" stroke-width="4.2" opacity=".796" transform="rotate(-17 1433.68 203.841)" rx="6.823" ry="6.823"/><ellipse cx="1239.283" cy="154.362" stroke="#1DBCBC" stroke-width="4.2" opacity=".796" transform="rotate(-17 1239.283 154.362)" rx="6.823" ry="6.823"/><ellipse cx="2025.484" cy="135.684" stroke="#1DBCBC" stroke-width="4.2" opacity=".796" transform="rotate(-17 2025.484 135.684)" rx="6.823" ry="6.823"/><ellipse cx="1227.256" cy="468.286" fill="#1DBCBC" opacity=".796" transform="rotate(-17 1227.256 468.286)" rx="7.348" ry="7.349"/><path fill="#1DBCBC" opacity=".796" d="M2217.39 188.04l5.342-3.338 3.338 5.342-5.342 3.338z"/><path fill="#9E7DD8" opacity=".796" d="M2176.487 177.823l8.386.44-.44 8.387-8.386-.44z"/><ellipse cx="2161.671" cy="56.775" stroke="#1DBCBC" stroke-width="4.2" opacity=".8" transform="scale(-1 1) rotate(73 0 -2864.555)" rx="7.348" ry="7.348"/><path fill="#9E7DD8" d="M2323.03 73.596l-9.871 11.48 16.67 2.048z"/><path fill="#1DBCBC" d="M2557.374 8.886l-9.871 11.48 16.672 2.048z"/><path fill="#1DBCBC" opacity=".796" d="M1680.15 421.378l5.341-3.338 3.338 5.342-5.342 3.338z"/><path fill="#9E7DD8" opacity=".796" d="M1898.008 164.35l8.386.44-.44 8.387-8.386-.44z"/><ellipse cx="1670.428" cy="165.35" stroke="#1DBCBC" stroke-width="4.2" opacity=".8" transform="scale(-1 1) rotate(73 0 -2092.103)" rx="7.348" ry="7.348"/><path fill="#1DBCBC" opacity=".796" d="M1518.095 474.027l9.664 4.102-4.102 9.663-9.664-4.102z"/><path stroke="#9E7DD8" stroke-width="3.465" opacity=".796" d="M1731.564 98.78l-3.178 11.862-11.864-3.179 3.179-11.862z"/><path fill="#1DBCBC" d="M1705.33 271.698l-9.87 11.48 16.67 2.048z"/><path fill="#9E7DD8" opacity=".796" d="M1444.11 344.033l6.916 3.677 4.053-7.621 5.631 2.994-4.052 7.621 6.916 3.678-2.738 5.15-6.916-3.678-4.053 7.621-5.631-2.994 4.052-7.621-6.916-3.678z"/><ellipse cx="2284.311" cy="16.041" stroke="#1DBCBC" stroke-width="4.2" opacity=".796" transform="rotate(-17 2284.311 16.041)" rx="6.823" ry="6.823"/><path fill="#9E7DD8" d="M1403.019 283.781l-9.87 11.48 16.67 2.048z"/><path fill="#1DBCBC" d="M1519.333 214.854l-9.87 11.48 16.67 2.047z"/><ellipse cx="2162.337" cy="232.125" fill="#1DBCBC" opacity=".796" transform="rotate(-17 2162.337 232.125)" rx="7.348" ry="7.349"/><path fill="#1DBCBC" opacity=".796" d="M2052.913 50.649l5.342-3.338 3.338 5.342-5.342 3.338z"/><path fill="#9E7DD8" d="M2476.667 58.187l-1.845 6.035-6.687-2.044-1.502 4.915 6.686 2.044-1.845 6.035 4.518 1.381 1.845-6.035 6.686 2.044 1.503-4.914-6.687-2.044 1.845-6.036z"/><path fill="#1DBCBC" opacity=".6" d="M2270.95 106.757l1.417 6.138 6.138-1.417-1.417-6.138z"/><ellipse cx="1577.307" cy="355.756" stroke="#1DBCBC" stroke-width="4.2" transform="scale(-1 1) rotate(73 0 -1775.852)" rx="9.972" ry="9.973"/><path fill="#1DBCBC" opacity=".6" d="M1497.481 292.237l4.922 11.596L1514 298.91l-4.922-11.595z"/><path fill="#9E7DD8" opacity=".6" d="M1732.046 353.452l4.922 11.596 11.596-4.923-4.922-11.595z"/><path fill="#9E7DD8" opacity=".796" d="M1021.201 180.874l6.138 1.417-1.417 6.138-6.138-1.417zM1514.005 147.923l-5.342 3.338-3.338-5.342 5.342-3.338zM1408.414 418.705l-5.342 3.338-3.338-5.342 5.342-3.338zM1288.958 169.336l8.386.44-.44 8.387-8.386-.44z"/><path fill="#9E7DD8" opacity=".6" d="M1304.89 319.67l4.921 11.595 11.597-4.923-4.922-11.595z"/><ellipse cx="1961.562" cy="268.487" fill="#1DBCBC" opacity=".796" transform="rotate(-17 1961.562 268.487)" rx="7.348" ry="7.349"/><ellipse cx="1390.141" cy="171.01" fill="#1DBCBC" opacity=".796" transform="rotate(-17 1390.141 171.01)" rx="7.348" ry="7.349"/><path fill="#1DBCBC" opacity=".796" d="M1836.747 69.333l5.342-3.338 3.338 5.342-5.342 3.338z"/><path fill="#9E7DD8" opacity=".796" d="M1799.743 320.797l8.386.44-.44 8.387-8.386-.44z"/><path fill="#9E7DD8" d="M1604.804 100.979l-1.845 6.035-6.687-2.044-1.502 4.915 6.686 2.045-1.845 6.035 4.518 1.381 1.845-6.035 6.686 2.044 1.503-4.915-6.686-2.045 1.845-6.035z"/><path stroke="#9E7DD8" stroke-width="3.15" d="M1454.464 120.84l-15.84 3.635 13.319 12.42 2.521-16.055z"/><path fill="#9E7DD8" opacity=".8" d="M1942.745 226.935l-6.902-3.67 4.035-7.59-5.62-2.988-4.036 7.59-6.902-3.67-2.727 5.128 6.902 3.67-4.035 7.59 5.62 2.988 4.036-7.59 6.902 3.67z"/><path fill="#9E7DD8" opacity=".796" d="M2378.074 120.056l-6.035-1.845-2.044 6.686-4.916-1.503 2.044-6.686-6.035-1.845 1.382-4.518 6.035 1.845 2.044-6.686 4.915 1.503-2.044 6.686 6.036 1.845z"/><ellipse cx="2203.27" cy="128.2" stroke="#1DBCBC" stroke-width="4.2" opacity=".796" transform="rotate(-163 2203.27 128.2)" rx="7.348" ry="7.348"/><path fill="#9E7DD8" d="M2256.891 78.675l-6.035-1.845-2.044 6.686-4.915-1.502 2.045-6.687-6.036-1.845 1.382-4.517 6.035 1.845 2.044-6.687 4.915 1.503-2.045 6.686 6.036 1.845z"/><path fill="#1DBCBC" opacity=".796" d="M1221.159 359.805l-5.718-8.804 8.804-5.718 5.718 8.804z"/><path stroke="#9E7DD8" stroke-width="3.465" opacity=".796" d="M1326.064 244.404l9.27-8.057 8.057 9.27-9.269 8.057z"/><path fill="#9E7DD8" d="M2095.273 278.006l1.763-15.037-14.965 7.625z"/><path stroke="#1DBCBC" stroke-width="3.15" d="M2412.954 72.49l13.94-8.353-16.504-7.696 2.564 16.048z"/><ellipse cx="1878.436" cy="244.816" stroke="#1DBCBC" stroke-width="4.2" opacity=".796" transform="rotate(-163 1878.436 244.816)" rx="6.823" ry="6.823"/><ellipse cx="1470.212" cy="425.191" fill="#1DBCBC" opacity=".796" transform="rotate(-163 1470.212 425.191)" rx="7.348" ry="7.349"/><path fill="#1DBCBC" opacity=".796" d="M1988.475 200.344l-6.295-.22.22-6.295 6.295.22z"/><path fill="#1DBCBC" opacity=".6" d="M2112.388 195.287l-6.023-1.842 1.841-6.023 6.024 1.841z"/><path fill="#9E7DD8" opacity=".796" d="M1615.405 265.224l-6.707-5.054 5.055-6.707 6.706 5.054z"/><path fill="#9E7DD8" d="M1618.392 433.56l-1.846-6.035 6.687-2.044-1.503-4.915-6.686 2.044-1.846-6.035-4.517 1.38 1.845 6.036-6.686 2.044 1.502 4.916 6.687-2.045 1.845 6.036z"/><path fill="#1DBCBC" opacity=".6" d="M1886.096 114.535l-4.607-4.296-4.295 4.607 4.606 4.296z"/><path stroke="#9E7DD8" stroke-width="3.15" d="M1776.225 416.763l11.099-11.87-17.987-2.85 6.888 14.72zM1883.726 324.025l11.1-11.87-17.987-2.85 6.887 14.72z"/><path stroke="#1DBCBC" stroke-width="3.15" d="M888.802 400.349l-5.844 15.164 17.744-4.096-11.9-11.068z" opacity=".4"/><path fill="#1DBCBC" opacity=".6" d="M1113.67 533.706l-9.87 11.48 16.67 2.047z"/><path fill="#1DBCBC" d="M1547.21 393.135l-9.871 11.48 16.67 2.047z"/><path fill="#9E7DD8" opacity=".6" d="M1048.831 493.459l9.27-3.936-4.292-10.112 7.55-3.205 4.293 10.113 9.27-3.935 2.9 6.833-9.27 3.935 4.293 10.112-7.55 3.205-4.293-10.113-9.27 3.935z"/><ellipse cx="923.224" cy="192.922" stroke="#1DBCBC" stroke-width="4.2" opacity=".5" transform="rotate(-17 923.224 192.922)" rx="6.823" ry="6.823"/><path fill="#1DBCBC" opacity=".7" d="M1238.089 569.35l5.342-3.339 3.338 5.342-5.342 3.338z"/><path fill="#9E7DD8" opacity=".4" d="M822.487 378.205l8.386.44-.44 8.387-8.386-.44z"/><ellipse cx="1117.151" cy="415.411" stroke="#1DBCBC" stroke-width="4.2" opacity=".6" transform="scale(-1 1) rotate(73 0 -1094.332)" rx="7.348" ry="7.348"/><ellipse cx="1099.343" cy="284.669" fill="#1DBCBC" opacity=".7" transform="rotate(-17 1099.343 284.67)" rx="7.348" ry="7.349"/><ellipse cx="1178.767" cy="519.621" stroke="#1DBCBC" stroke-width="4.2" opacity=".7" transform="rotate(-163 1178.767 519.62)" rx="7.348" ry="7.348"/><path fill="#9E7DD8" opacity=".7" d="M1110.599 351.674l1.763-15.038-14.965 7.626z"/><path fill="#1DBCBC" opacity=".4" d="M758.893 205.585l-6.295-.22.22-6.295 6.295.22z"/><path fill="#1DBCBC" opacity=".8" d="M1123.897 166.502l-6.024-1.842 1.842-6.023 6.023 1.841z"/><path fill="#9E7DD8" opacity=".8" d="M1169.873 304.57l6.036-1.845-2.045-6.687 4.916-1.503 2.044 6.687 6.035-1.845 1.382 4.517-6.036 1.845 2.045 6.687-4.916 1.503-2.044-6.687-6.035 1.845z"/><path fill="#9E7DD8" opacity=".796" d="M1875.118 362.674l6.138 1.417-1.417 6.138-6.138-1.417z"/><path fill="#1DBCBC" opacity=".8" d="M1446.497 506.498l-9.87 11.48 16.67 2.046z"/><ellipse cx="1326.324" cy="542.163" stroke="#1DBCBC" stroke-width="4.2" opacity=".8" transform="rotate(-17 1326.325 542.163)" rx="6.823" ry="6.823"/><path fill="#9E7DD8" opacity=".796" d="M1603.243 462.902l8.386.44-.44 8.387-8.386-.44z"/><ellipse cx="2445.264" cy="13.195" fill="#1DBCBC" opacity=".796" transform="rotate(-17 2445.264 13.195)" rx="7.348" ry="7.349"/><path stroke="#9E7DD8" stroke-width="3.15" d="M2495.817 19.929l-15.84 3.635 13.32 12.42 2.52-16.055z"/><path fill="#9E7DD8" opacity=".5" d="M944.56 295.919l6.036-1.845-2.044-6.687 4.915-1.503 2.044 6.687 6.036-1.845 1.38 4.517-6.034 1.845 2.044 6.687-4.916 1.503-2.044-6.687-6.035 1.845z"/><path fill="#9E7DD8" opacity=".1" d="M574.687 220.44l6.036-1.846-2.045-6.686 4.915-1.503 2.044 6.687 6.036-1.846 1.381 4.518-6.036 1.845 2.045 6.687-4.915 1.502-2.044-6.686-6.035 1.845z"/><path fill="#9E7DD8" opacity=".3" d="M714.274 230.765l6.138 1.417-1.417 6.138-6.138-1.417z"/><path stroke="#9E7DD8" stroke-width="3.15" d="M660.354 220.481l-16.228-.871 9.38 15.61 6.848-14.739z" opacity=".2"/><path fill="#1DBCBC" opacity=".1" d="M641.26 334.452l-9.87 11.48 16.67 2.046z"/><ellipse cx="797.526" cy="311.459" stroke="#1DBCBC" stroke-width="4.2" opacity=".4" transform="rotate(-17 797.526 311.459)" rx="6.823" ry="6.823"/><ellipse cx="609.742" cy="283.619" stroke="#1DBCBC" stroke-width="4.2" opacity=".1" transform="rotate(-17 609.742 283.619)" rx="6.823" ry="6.823"/><ellipse cx="1034.642" cy="272.271" stroke="#1DBCBC" stroke-width="4.2" opacity=".6" transform="scale(-1 1) rotate(73 0 -1125.967)" rx="7.348" ry="7.348"/><path stroke="#9E7DD8" stroke-width="3.465" opacity=".8" d="M1095.778 205.7l-3.178 11.863-11.864-3.179 3.179-11.862z"/><path fill="#9E7DD8" opacity=".3" d="M762.372 397.111l-9.87 11.48 16.67 2.048z"/><path fill="#1DBCBC" opacity=".4" d="M883.547 321.775l-9.87 11.48 16.67 2.047z"/><path fill="#9E7DD8" opacity=".5" d="M878.22 254.841l-5.342 3.338-3.338-5.342 5.342-3.338z"/><path fill="#9E7DD8" opacity=".2" d="M653.172 276.257l8.386.44-.44 8.387-8.386-.44z"/><path stroke="#9E7DD8" stroke-width="3.15" d="M634.018 440.481l-16.228-.872 9.38 15.61 6.848-14.738z" opacity=".2"/><path fill="#1DBCBC" opacity=".1" d="M661.865 549.057l-9.87 11.48 16.67 2.047z"/><ellipse cx="609.742" cy="515.543" stroke="#1DBCBC" stroke-width="4.2" opacity=".1" transform="rotate(-17 609.742 515.543)" rx="6.823" ry="6.823"/><path fill="#9E7DD8" opacity=".2" d="M648.737 487.275l8.386.44-.44 8.387-8.386-.44z"/><path fill="#9E7DD8" opacity=".1" d="M671.911 417.794l4.922 11.596 11.597-4.922-4.922-11.596z"/><ellipse cx="754.271" cy="277.967" fill="#1DBCBC" opacity=".3" transform="rotate(-17 754.27 277.967)" rx="7.348" ry="7.349"/><path fill="#9E7DD8" opacity=".6" d="M969.019 207.9l-1.846 6.035-6.685-2.044-1.503 4.915 6.686 2.044-1.846 6.036 4.519 1.381 1.845-6.035 6.686 2.044 1.502-4.916-6.685-2.044 1.845-6.035z"/><path stroke="#9E7DD8" stroke-width="3.15" d="M820.962 212.669l-15.84 3.635 13.32 12.42 2.52-16.055z" opacity=".4"/><path fill="#1DBCBC" opacity=".3" d="M741.402 342.409l-5.718-8.804 8.804-5.718 5.718 8.804z"/><path stroke="#9E7DD8" stroke-width="3.465" opacity=".2" d="M689.612 351.592l9.27-8.057 8.057 9.27-9.269 8.057z"/><path fill="#1DBCBC" opacity=".1" d="M631.26 604.359l-9.87 11.48 16.67 2.047z"/><path fill="#9E7DD8" opacity=".1" d="M689.708 665.115l4.922 11.596 11.597-4.923-4.922-11.595z"/><path stroke="#9E7DD8" stroke-width="3.465" opacity=".2" d="M678.874 598.192l9.27-8.057 8.057 9.27-9.269 8.057z"/><path fill="#1DBCBC" opacity=".8" d="M1141.82 232.714l-5.719 11.224 11.225 5.72 5.72-11.224z"/><path fill="#9E7DD8" opacity=".3" d="M812.639 458.174l6.033 3.208 3.554-6.685 4.914 2.613-3.554 6.685 6.033 3.208-2.401 4.516-6.034-3.208-3.554 6.684-4.913-2.613 3.554-6.683-6.033-3.208z"/><path fill="#1DBCBC" opacity=".5" d="M962.528 479.526l5.342-3.338 3.338 5.342-5.342 3.338z"/><path fill="#1DBCBC" opacity=".4" d="M858.434 504.172l9.664 4.102-4.102 9.664-9.664-4.102z"/><ellipse cx="738.984" cy="470.431" stroke="#1DBCBC" stroke-width="4.2" opacity=".2" transform="scale(-1 1) rotate(73 0 -528.248)" rx="9.972" ry="9.973"/><path fill="#1DBCBC" opacity=".4" d="M780.332 515.585l-6.295-.22.22-6.295 6.295.22z"/><path fill="#9E7DD8" opacity=".3" d="M824.554 540.055l6.138 1.417-1.417 6.138-6.138-1.417z"/><ellipse cx="754.174" cy="623.108" stroke="#1DBCBC" stroke-width="4.2" opacity=".4" transform="rotate(-17 754.174 623.108)" rx="6.823" ry="6.823"/><path fill="#9E7DD8" opacity=".3" d="M927.222 608.744l-9.87 11.48 16.67 2.047z"/><ellipse cx="804.958" cy="584.901" fill="#1DBCBC" opacity=".3" transform="rotate(-17 804.958 584.901)" rx="7.348" ry="7.349"/><path fill="#1DBCBC" opacity=".3" d="M861.465 655.282l-5.718-8.804 8.804-5.718 5.718 8.804z"/><path stroke="#9E7DD8" stroke-width="3.465" opacity=".2" d="M773.7 674.795l9.27-8.057 8.057 9.27-9.268 8.057z"/><ellipse cx="731.412" cy="544.327" stroke="#1DBCBC" stroke-width="4.2" opacity=".2" transform="scale(-1 1) rotate(73 0 -444.12)" rx="9.972" ry="9.973"/><path fill="#9E7DD8" opacity=".4" d="M893.723 468.127l4.922 11.596 11.596-4.923-4.922-11.595z"/><path fill="#9E7DD8" opacity=".5" d="M961.42 435.472l8.386.44-.44 8.387-8.386-.44z"/><ellipse cx="1019.5" cy="552.128" fill="#1DBCBC" opacity=".5" transform="rotate(-163 1019.5 552.128)" rx="7.348" ry="7.349"/><path fill="#9E7DD8" opacity=".4" d="M893.53 569.083l-1.846-6.035 6.686-2.044-1.503-4.915-6.686 2.044-1.845-6.036-4.518 1.382 1.845 6.035-6.686 2.044 1.503 4.916 6.686-2.044 1.845 6.035z"/><path stroke="#9E7DD8" stroke-width="3.15" d="M944.204 542.75l11.1-11.871-17.987-2.85 6.887 14.72z" opacity=".5"/><path fill="#9E7DD8" opacity=".5" d="M949.327 355.507l8.443 4.489 4.974-9.354 6.875 3.656-4.973 9.354 8.443 4.49-3.36 6.32-8.444-4.49-4.973 9.353-6.876-3.656 4.974-9.353-8.443-4.49z"/><path stroke="#1DBCBC" stroke-width="3.15" d="M1158.347 573.106l-5.843 15.164 17.743-4.097-11.9-11.067z" opacity=".4"/><path fill="#1DBCBC" opacity=".4" d="M993.35 609.913l-9.872 11.48 16.671 2.048z"/><path fill="#9E7DD8" opacity=".5" d="M1067.441 587.307l8.443 4.489 4.974-9.354 6.875 3.656-4.973 9.354 8.443 4.49-3.36 6.32-8.444-4.49-4.973 9.353-6.876-3.656 4.974-9.353-8.443-4.49z"/><path fill="#1DBCBC" opacity=".6" d="M1127.262 475.885l11.596 4.922-4.923 11.596-11.595-4.922z"/><ellipse cx="1040.112" cy="359.491" stroke="#1DBCBC" stroke-width="4.2" opacity=".6" transform="rotate(-163 1040.112 359.491)" rx="6.823" ry="6.823"/><path stroke="#9E7DD8" stroke-width="3.15" d="M1045.544 439.033l11.1-11.87-17.987-2.85 6.887 14.72z" opacity=".6"/><ellipse cx="9.5" cy="552.128" fill="#FFF" opacity=".01" transform="rotate(-163 9.5 552.128)" rx="7.348" ry="7.349"/></g></svg>