<svg xmlns="http://www.w3.org/2000/svg" width="247" height="234" viewBox="0 0 247 234">
  <g fill="none" fill-rule="evenodd" transform="translate(-1)">
    <g fill="#FFFFFF" transform="translate(0 3)">
      <path d="M0.973684211,230.688889 L164.131579,230.688889 L163.473684,227.411111 C162.486842,222.166667 161.171053,216.922222 158.868421,212.333333 L158.868421,155.3 C158.868421,150.383333 154.921053,146.45 149.986842,146.45 L148.013158,146.45 C146.697368,112.033333 117.75,84.5 82.2236842,84.5 C46.6973684,84.5 17.75,112.033333 16.7631579,146.45 L14.7894737,146.45 C9.85526316,146.45 5.90789474,150.383333 5.90789474,155.3 L5.90789474,212.333333 C3.60526316,217.25 2.28947368,222.166667 1.30263158,227.411111 L0.973684211,230.688889 Z"/>
      <path d="M17.0921053 152.677778C18.0789474 164.477778 22.0263158 175.622222 28.9342105 184.8 22.3552632 189.716667 16.7631579 195.288889 12.1578947 201.844444L12.1578947 155.3C12.1578947 153.661111 13.4736842 152.35 15.1184211 152.35L17.0921053 152.35 17.0921053 152.677778zM141.763158 148.088889C141.763158 161.527778 137.157895 173.655556 129.263158 183.488889 118.407895 196.927778 101.302632 205.777778 82.5526316 205.777778 63.4736842 205.777778 46.6973684 197.255556 35.8421053 183.488889 27.9473684 173.655556 23.3421053 161.527778 23.3421053 148.088889 23.3421053 116.294444 49.9868421 90.4 82.5526316 90.4 115.118421 90.4 141.763158 116.294444 141.763158 148.088889zM152.618421 201.844444C148.013158 195.616667 142.421053 189.716667 135.842105 184.8 142.421053 175.622222 146.697368 164.477778 147.684211 152.677778L149.986842 152.677778C151.631579 152.677778 152.947368 153.988889 152.947368 155.627778L152.947368 201.844444 152.618421 201.844444z"/>
      <path d="M7.88157895 223.788889C11.1710526 209.694444 20.0526316 197.238889 32.5526316 188.388889 44.3947368 202.155556 62.4868421 210.677778 82.2236842 210.677778 102.289474 210.677778 120.052632 201.827778 131.894737 188.388889 144.394737 197.566667 153.276316 209.694444 156.565789 223.788889L7.88157895 223.788889zM156.236842 98.25C150.973684 98.25 146.697368 93.9888889 146.697368 88.7444444 146.697368 83.5 150.973684 79.2388889 156.236842 79.2388889 161.5 79.2388889 165.776316 83.5 165.776316 88.7444444 165.776316 93.9888889 161.171053 98.25 156.236842 98.25zM167.421053 37.9388889C167.421053 16.9611111 184.526316.244444444 205.25.244444444 225.973684.244444444 243.078947 17.2888889 243.078947 37.9388889 243.078947 58.5888889 225.973684 75.6333333 205.25 75.6333333 184.526316 75.6333333 167.421053 58.5888889 167.421053 37.9388889z"/>
    </g>
    <g transform="translate(36 118)">
      <path fill="#CCEFEF" d="M46.9999311,76.9208561 C73.3649951,78.6871854 94.1167509,50.4994747 93.9995056,31.2374847 C93.9505433,23.1935616 91.2451299,15.1619231 87.7472575,9.91582031 C84.249385,4.66971753 61.5462023,0 47.4845404,0 C32.7639147,0 6.77449479,5.55282992 3.67374145,12.326779 C1.34792837,18.8447034 -0.207792442,21.9272241 0.0225623185,28.9606548 C0.765281897,51.63814 14.4391306,74.3837649 46.9999311,76.9208561 Z"/>
      <path stroke="#72D3D4" stroke-width="2.842" d="M45,71.6858517 C55.4630593,73.5727612 75.7370577,67.2417912 84,45" stroke-linecap="round"/>
    </g>
    <path fill="#6B00C2" fill-rule="nonzero" d="M156.236842,106.183333 C163.473684,106.183333 169.723684,100.283333 169.723684,92.7444444 C169.723684,85.2055556 163.802632,79.3055556 156.236842,79.3055556 C149,79.3055556 142.75,85.2055556 142.75,92.7444444 C142.75,100.283333 148.671053,106.183333 156.236842,106.183333 Z M156.236842,102.25 C150.973684,102.25 146.697368,97.9888889 146.697368,92.7444444 C146.697368,87.5 150.973684,83.2388889 156.236842,83.2388889 C161.5,83.2388889 165.776316,87.5 165.776316,92.7444444 C165.776316,97.9888889 161.171053,102.25 156.236842,102.25 Z M163.473684,41.9388889 C163.473684,64.8833333 182.223684,83.5666667 205.25,83.5666667 C228.276316,83.5666667 247.026316,64.8833333 247.026316,41.9388889 C247.026316,18.9944444 228.276316,0.311111111 205.25,0.311111111 C182.223684,0.311111111 163.473684,18.9944444 163.473684,41.9388889 Z M167.421053,41.9388889 C167.421053,20.9611111 184.526316,4.24444444 205.25,4.24444444 C225.973684,4.24444444 243.078947,21.2888889 243.078947,41.9388889 C243.078947,62.5888889 225.973684,79.6333333 205.25,79.6333333 C184.526316,79.6333333 167.421053,62.5888889 167.421053,41.9388889 Z M0.973684211,233.688889 L164.131579,233.688889 L163.473684,230.411111 C162.486842,225.166667 161.171053,219.922222 158.868421,215.333333 L158.868421,158.3 C158.868421,153.383333 154.921053,149.45 149.986842,149.45 L148.013158,149.45 C146.697368,115.033333 117.75,87.5 82.2236842,87.5 C46.6973684,87.5 17.75,115.033333 16.7631579,149.45 L14.7894737,149.45 C9.85526316,149.45 5.90789474,153.383333 5.90789474,158.3 L5.90789474,215.333333 C3.60526316,220.25 2.28947368,225.166667 1.30263158,230.411111 L0.973684211,233.688889 Z M17.0921053,155.677778 C18.0789474,167.477778 22.0263158,178.622222 28.9342105,187.8 C22.3552632,192.716667 16.7631579,198.288889 12.1578947,204.844444 L12.1578947,158.3 C12.1578947,156.661111 13.4736842,155.35 15.1184211,155.35 L17.0921053,155.35 L17.0921053,155.677778 Z M141.763158,151.088889 C141.763158,164.527778 137.157895,176.655556 129.263158,186.488889 C118.407895,199.927778 101.302632,208.777778 82.5526316,208.777778 C63.4736842,208.777778 46.6973684,200.255556 35.8421053,186.488889 C27.9473684,176.655556 23.3421053,164.527778 23.3421053,151.088889 C23.3421053,119.294444 49.9868421,93.4 82.5526316,93.4 C115.118421,93.4 141.763158,119.294444 141.763158,151.088889 Z M152.618421,204.844444 C148.013158,198.616667 142.421053,192.716667 135.842105,187.8 C142.421053,178.622222 146.697368,167.477778 147.684211,155.677778 L149.986842,155.677778 C151.631579,155.677778 152.947368,156.988889 152.947368,158.627778 L152.947368,204.844444 L152.618421,204.844444 Z M7.88157895,227.788889 C11.1710526,213.694444 20.0526316,201.238889 32.5526316,192.388889 C44.3947368,206.155556 62.4868421,214.677778 82.2236842,214.677778 C102.289474,214.677778 120.052632,205.827778 131.894737,192.388889 C144.394737,201.566667 153.276316,213.694444 156.565789,227.788889 L7.88157895,227.788889 Z M124.986842,184.194444 C132.552632,174.688889 137.157895,162.561111 137.157895,149.45 C137.157895,136.338889 133.539474,129.127778 130.25,125.522222 C130.25,125.522222 129.921053,125.194444 129.263158,124.538889 L128.934211,124.211111 C124.657895,120.277778 112.157895,111.1 82.2236842,111.1 L80.9078947,111.1 C72.0263158,111.1 42.75,112.083333 34.1973684,125.85 C31.2368421,129.783333 27.6184211,136.994444 27.6184211,149.777778 C27.6184211,163.216667 32.2236842,175.344444 40.1184211,184.85 C50.3157895,196.977778 65.4473684,204.844444 82.2236842,204.844444 L82.2236842,204.844444 C99.6578947,204.516667 114.789474,196.65 124.986842,184.194444 Z M133.210526,149.45 C133.210526,161.905556 128.934211,173.05 121.697368,181.9 C112.486842,193.372222 98.3421053,200.583333 82.5526316,200.583333 L82.5526316,200.583333 C66.7631579,200.583333 52.6184211,193.372222 43.4078947,181.9 C36.1710526,173.05 31.8947368,161.905556 31.8947368,149.45 C31.8947368,136.994444 35.5131579,130.766667 37.8157895,127.816667 L37.8157895,127.488889 C45.7105263,115.361111 75.6447368,114.705556 81.2368421,114.705556 L82.5526316,114.705556 C111.5,114.705556 123.342105,123.883333 126.302632,126.833333 L126.631579,127.161111 C126.960526,127.488889 127.289474,127.816667 127.289474,127.816667 C129.592105,130.766667 133.210526,136.994444 133.210526,149.45 Z"/>
    <path fill="#FFFFFF" d="M8.07501221,227.005432 C45.2897574,225.508841 116.915024,225.482696 156.441559,227.278778 C157.056488,229.530396 158.056732,233.820587 158.056732,233.820587 L7.05110168,233.738007 C7.05110168,233.738007 7.22039795,229.674805 8.07501221,227.005432 Z"/>
  </g>
</svg>
