<svg xmlns="http://www.w3.org/2000/svg" width="2598" height="687" viewBox="0 0 2598 687">
  <g fill="none" fill-rule="evenodd" transform="translate(-2)" opacity=".45">
    <polygon fill="#9E7DD8" points="1580.649 186.298 1586.96 186.298 1586.96 179.306 1592.1 179.306 1592.1 186.298 1598.411 186.298 1598.411 191.022 1592.1 191.022 1592.1 198.014 1586.96 198.014 1586.96 191.022 1580.649 191.022" opacity=".796" transform="rotate(-17 1589.53 188.66)"/>
    <polygon fill="#9E7DD8" points="1176.662 189.395 1182.973 189.395 1182.973 182.403 1188.112 182.403 1188.112 189.395 1194.423 189.395 1194.423 194.119 1188.112 194.119 1188.112 201.111 1182.973 201.111 1182.973 194.119 1176.662 194.119" transform="rotate(-17 1185.542 191.757)"/>
    <polygon fill="#9E7DD8" points="1784.395 246.73 1793.957 246.73 1793.957 236.136 1801.745 236.136 1801.745 246.73 1811.307 246.73 1811.307 253.887 1801.745 253.887 1801.745 264.481 1793.957 264.481 1793.957 253.887 1784.395 253.887" transform="rotate(28 1797.851 250.309)"/>
    <rect width="6.299" height="6.299" x="1349.271" y="124.472" fill="#9E7DD8" opacity=".796" transform="rotate(13 1352.42 127.622)"/>
    <rect width="12.597" height="12.598" x="1774.061" y="127.966" fill="#1DBCBC" opacity=".6" transform="scale(-1 1) rotate(63 0 -2771.018)"/>
    <ellipse cx="1730.21" cy="215.435" stroke="#1DBCBC" stroke-width="4.2" opacity=".796" transform="rotate(-17 1730.21 215.435)" rx="10.497" ry="10.498"/>
    <polygon fill="#9E7DD8" points="1382.028 482.696 1388.861 482.696 1388.861 475.126 1394.426 475.126 1394.426 482.696 1401.259 482.696 1401.259 487.811 1394.426 487.811 1394.426 495.381 1388.861 495.381 1388.861 487.811 1382.028 487.811" opacity=".796" transform="rotate(28 1391.644 485.253)"/>
    <polygon fill="#9E7DD8" points="1648.636 347.713 1655.469 347.713 1655.469 340.143 1661.034 340.143 1661.034 347.713 1667.867 347.713 1667.867 352.828 1661.034 352.828 1661.034 360.399 1655.469 360.399 1655.469 352.828 1648.636 352.828" opacity=".796" transform="rotate(28 1658.252 350.27)"/>
    <rect width="10.498" height="10.498" x="2347.576" y="24.746" fill="#1DBCBC" opacity=".796" transform="rotate(23 2352.825 29.995)"/>
    <rect width="12.281" height="12.282" x="1970.932" y="55.815" stroke="#9E7DD8" stroke-width="3.465" opacity=".796" transform="rotate(105 1977.073 61.957)"/>
    <path stroke="#1DBCBC" stroke-width="3.15" d="M1959.33592,119.092619 L1968.44125,132.553523 L1950.2306,132.553523 L1959.33592,119.092619 Z" transform="scale(-1 1) rotate(13 0 -17071.666)"/>
    <polygon fill="#9E7DD8" points="1314.436 460.97 1322.834 473.568 1306.038 473.568" transform="scale(-1 1) rotate(-7 0 21958.11)"/>
    <path stroke="#1DBCBC" stroke-width="3.15" d="M1256.96672,515.313326 L1266.07204,528.77423 L1247.8614,528.77423 L1256.96672,515.313326 Z" transform="scale(-1 1) rotate(-59 0 2743.107)"/>
    <polygon fill="#1DBCBC" points="2046.561 212.304 2054.959 224.902 2038.163 224.902" transform="scale(-1 1) rotate(-7 0 33679.573)"/>
    <polygon fill="#1DBCBC" points="1265.58 391.72 1273.978 404.318 1257.182 404.318" transform="scale(-1 1) rotate(-7 0 21090.067)"/>
    <path stroke="#9E7DD8" stroke-width="3.15" d="M1185.90589,393.07617 L1195.01121,406.537075 L1176.80057,406.537075 L1185.90589,393.07617 Z" transform="scale(-1 1) rotate(-59 0 2495.27)"/>
    <polygon fill="#1DBCBC" points="1228.572 246.648 1236.97 259.246 1220.174 259.246" transform="scale(-1 1) rotate(-7 0 20339.924)"/>
    <polygon fill="#1DBCBC" points="2024.986 299.68 2033.384 312.278 2016.588 312.278" transform="scale(-1 1) rotate(-7 0 33414.207)"/>
    <path stroke="#9E7DD8" stroke-width="3.15" d="M1363.78016,368.615349 L1372.88549,382.076254 L1354.67484,382.076254 L1363.78016,368.615349 Z" transform="scale(-1 1) rotate(-59 0 2785.201)"/>
    <rect width="12.597" height="12.598" x="1947" y="339.068" fill="#1DBCBC" opacity=".796" transform="rotate(23 1953.298 345.367)"/>
    <rect width="6.299" height="6.299" x="2592.133" y="1.257" fill="#9E7DD8" opacity=".796" transform="rotate(148 2595.282 4.406)"/>
    <polygon fill="#9E7DD8" points="2093.616 109.954 2103.687 109.954 2103.687 98.968 2111.889 98.968 2111.889 109.954 2121.96 109.954 2121.96 117.377 2111.889 117.377 2111.889 128.363 2103.687 128.363 2103.687 117.377 2093.616 117.377" opacity=".796" transform="rotate(-23 2107.788 113.665)"/>
    <polygon fill="#9E7DD8" points="1811.824 172.097 1819.657 172.097 1819.657 163.465 1826.036 163.465 1826.036 172.097 1833.869 172.097 1833.869 177.93 1826.036 177.93 1826.036 186.561 1819.657 186.561 1819.657 177.93 1811.824 177.93" opacity=".796" transform="rotate(28 1822.847 175.013)"/>
    <ellipse cx="2293.899" cy="154.285" stroke="#1DBCBC" stroke-width="4.2" opacity=".796" transform="rotate(-17 2293.9 154.285)" rx="6.823" ry="6.823"/>
    <ellipse cx="1433.68" cy="203.841" stroke="#1DBCBC" stroke-width="4.2" opacity=".796" transform="rotate(-17 1433.68 203.841)" rx="6.823" ry="6.823"/>
    <ellipse cx="1239.283" cy="154.362" stroke="#1DBCBC" stroke-width="4.2" opacity=".796" transform="rotate(-17 1239.283 154.362)" rx="6.823" ry="6.823"/>
    <ellipse cx="2025.484" cy="135.684" stroke="#1DBCBC" stroke-width="4.2" opacity=".796" transform="rotate(-17 2025.484 135.684)" rx="6.823" ry="6.823"/>
    <ellipse cx="1227.256" cy="468.286" fill="#1DBCBC" opacity=".796" transform="rotate(-17 1227.256 468.286)" rx="7.348" ry="7.349"/>
    <rect width="6.299" height="6.299" x="2218.581" y="185.893" fill="#1DBCBC" opacity=".796" transform="rotate(-32 2221.73 189.043)"/>
    <rect width="8.398" height="8.399" x="2176.261" y="178.037" fill="#9E7DD8" opacity=".796" transform="rotate(3 2180.46 182.237)"/>
    <ellipse cx="2161.671" cy="56.775" stroke="#1DBCBC" stroke-width="4.2" opacity=".8" transform="scale(-1 1) rotate(73 0 -2864.555)" rx="7.348" ry="7.348"/>
    <polygon fill="#9E7DD8" points="2322.261 73.549 2330.659 86.147 2313.863 86.147" transform="scale(-1 1) rotate(-7 0 38048.487)"/>
    <polygon fill="#1DBCBC" points="2556.607 8.839 2565.005 21.437 2548.208 21.437" transform="scale(-1 1) rotate(-7 0 41815.285)"/>
    <rect width="6.299" height="6.299" x="1681.34" y="419.23" fill="#1DBCBC" opacity=".796" transform="rotate(-32 1684.49 422.38)"/>
    <rect width="8.398" height="8.399" x="1897.782" y="164.564" fill="#9E7DD8" opacity=".796" transform="rotate(3 1901.98 168.763)"/>
    <ellipse cx="1670.428" cy="165.35" stroke="#1DBCBC" stroke-width="4.2" opacity=".8" transform="scale(-1 1) rotate(73 0 -2092.103)" rx="7.348" ry="7.348"/>
    <rect width="10.498" height="10.498" x="1515.627" y="475.66" fill="#1DBCBC" opacity=".796" transform="rotate(23 1520.875 480.909)"/>
    <rect width="12.281" height="12.282" x="1717.902" y="96.981" stroke="#9E7DD8" stroke-width="3.465" opacity=".796" transform="rotate(105 1724.043 103.122)"/>
    <polygon fill="#1DBCBC" points="1704.562 271.651 1712.96 284.249 1696.164 284.249" transform="scale(-1 1) rotate(-7 0 28147.295)"/>
    <polygon fill="#9E7DD8" points="1441.451 348.866 1449.284 348.866 1449.284 340.234 1455.662 340.234 1455.662 348.866 1463.495 348.866 1463.495 354.698 1455.662 354.698 1455.662 363.33 1449.284 363.33 1449.284 354.698 1441.451 354.698" opacity=".796" transform="rotate(28 1452.473 351.782)"/>
    <ellipse cx="2284.311" cy="16.041" stroke="#1DBCBC" stroke-width="4.2" opacity=".796" transform="rotate(-17 2284.311 16.041)" rx="6.823" ry="6.823"/>
    <polygon fill="#9E7DD8" points="1402.251 283.734 1410.649 296.332 1393.853 296.332" transform="scale(-1 1) rotate(-7 0 23216.636)"/>
    <polygon fill="#1DBCBC" points="1518.566 214.807 1526.964 227.405 1510.168 227.405" transform="scale(-1 1) rotate(-7 0 25049.434)"/>
    <ellipse cx="2162.337" cy="232.125" fill="#1DBCBC" opacity=".796" transform="rotate(-17 2162.337 232.125)" rx="7.348" ry="7.349"/>
    <rect width="6.299" height="6.299" x="2054.103" y="48.501" fill="#1DBCBC" opacity=".796" transform="rotate(-32 2057.253 51.65)"/>
    <polygon fill="#9E7DD8" points="2467.449 65.008 2473.76 65.008 2473.76 58.016 2478.899 58.016 2478.899 65.008 2485.21 65.008 2485.21 69.732 2478.899 69.732 2478.899 76.724 2473.76 76.724 2473.76 69.732 2467.449 69.732" transform="scale(-1 1) rotate(73 0 -3279.197)"/>
    <rect width="6.299" height="6.299" x="2271.578" y="105.968" fill="#1DBCBC" opacity=".6" transform="scale(1 -1) rotate(-77 2137.548 0)"/>
    <ellipse cx="1577.307" cy="355.756" stroke="#1DBCBC" stroke-width="4.2" transform="scale(-1 1) rotate(73 0 -1775.852)" rx="9.972" ry="9.973"/>
    <rect width="12.597" height="12.598" x="1499.442" y="289.275" fill="#1DBCBC" opacity=".6" transform="scale(1 -1) rotate(-67 1059.177 0)"/>
    <rect width="12.597" height="12.598" x="1734.007" y="350.489" fill="#9E7DD8" opacity=".6" transform="scale(1 -1) rotate(-67 1201.257 0)"/>
    <rect width="6.299" height="6.299" x="1020.412" y="181.502" fill="#9E7DD8" opacity=".796" transform="rotate(13 1023.561 184.651)"/>
    <rect width="6.299" height="6.299" x="1506.516" y="143.77" fill="#9E7DD8" opacity=".796" transform="rotate(148 1509.665 146.92)"/>
    <rect width="6.299" height="6.299" x="1400.926" y="414.554" fill="#9E7DD8" opacity=".796" transform="rotate(148 1404.075 417.703)"/>
    <rect width="8.398" height="8.399" x="1288.732" y="169.55" fill="#9E7DD8" opacity=".796" transform="rotate(3 1292.93 173.75)"/>
    <rect width="12.597" height="12.598" x="1306.85" y="316.707" fill="#9E7DD8" opacity=".6" transform="scale(1 -1) rotate(-67 825.14 0)"/>
    <ellipse cx="1961.562" cy="268.487" fill="#1DBCBC" opacity=".796" transform="rotate(-17 1961.562 268.487)" rx="7.348" ry="7.349"/>
    <ellipse cx="1390.141" cy="171.01" fill="#1DBCBC" opacity=".796" transform="rotate(-17 1390.141 171.01)" rx="7.348" ry="7.349"/>
    <rect width="6.299" height="6.299" x="1837.938" y="67.185" fill="#1DBCBC" opacity=".796" transform="rotate(-32 1841.088 70.335)"/>
    <rect width="8.398" height="8.399" x="1799.517" y="321.011" fill="#9E7DD8" opacity=".796" transform="rotate(3 1803.716 325.21)"/>
    <polygon fill="#9E7DD8" points="1595.586 107.8 1601.897 107.8 1601.897 100.808 1607.037 100.808 1607.037 107.8 1613.348 107.8 1613.348 112.524 1607.037 112.524 1607.037 119.516 1601.897 119.516 1601.897 112.524 1595.586 112.524" transform="scale(-1 1) rotate(73 0 -2058.15)"/>
    <path stroke="#9E7DD8" stroke-width="3.15" d="M1450.29537,119.198162 L1459.40069,132.659066 L1441.19005,132.659066 L1450.29537,119.198162 Z" transform="scale(-1 1) rotate(-43 0 3807.1)"/>
    <polygon fill="#9E7DD8" points="1920.67 221.431 1928.487 221.431 1928.487 212.835 1934.853 212.835 1934.853 221.431 1942.67 221.431 1942.67 227.239 1934.853 227.239 1934.853 235.835 1928.487 235.835 1928.487 227.239 1920.67 227.239" opacity=".8" transform="scale(-1 1) rotate(-28 0 7971.838)"/>
    <polygon fill="#9E7DD8" points="2361.391 112.837 2367.702 112.837 2367.702 105.846 2372.842 105.846 2372.842 112.837 2379.153 112.837 2379.153 117.562 2372.842 117.562 2372.842 124.553 2367.702 124.553 2367.702 117.562 2361.391 117.562" opacity=".796" transform="rotate(-163 2370.272 115.2)"/>
    <ellipse cx="2203.27" cy="128.2" stroke="#1DBCBC" stroke-width="4.2" opacity=".796" transform="rotate(-163 2203.27 128.2)" rx="7.348" ry="7.348"/>
    <polygon fill="#9E7DD8" points="2240.21 71.458 2246.521 71.458 2246.521 64.466 2251.66 64.466 2251.66 71.458 2257.971 71.458 2257.971 76.182 2251.66 76.182 2251.66 83.174 2246.521 83.174 2246.521 76.182 2240.21 76.182" transform="rotate(-163 2249.09 73.82)"/>
    <rect width="10.498" height="10.498" x="1217.453" y="347.295" fill="#1DBCBC" opacity=".796" transform="rotate(-123 1222.702 352.544)"/>
    <rect width="12.281" height="12.282" x="1328.587" y="238.869" stroke="#9E7DD8" stroke-width="3.465" opacity=".796" transform="rotate(-41 1334.728 245.01)"/>
    <polygon fill="#9E7DD8" points="2092.413 266.094 2100.811 278.692 2084.015 278.692" transform="scale(1 -1) rotate(27 3227.013 0)"/>
    <path stroke="#1DBCBC" stroke-width="3.15" d="M2415.53698,60.8368721 L2424.6423,74.2977764 L2406.43165,74.2977764 L2415.53698,60.8368721 Z" transform="scale(1 -1) rotate(-25 2113.548 0)"/>
    <ellipse cx="1878.436" cy="244.816" stroke="#1DBCBC" stroke-width="4.2" opacity=".796" transform="rotate(-163 1878.436 244.816)" rx="6.823" ry="6.823"/>
    <ellipse cx="1470.212" cy="425.191" fill="#1DBCBC" opacity=".796" transform="rotate(-163 1470.212 425.191)" rx="7.348" ry="7.349"/>
    <rect width="6.299" height="6.299" x="1982.289" y="193.936" fill="#1DBCBC" opacity=".796" transform="rotate(-178 1985.438 197.086)"/>
    <rect width="6.299" height="6.299" x="2107.149" y="188.204" fill="#1DBCBC" opacity=".6" transform="rotate(-163 2110.298 191.354)"/>
    <rect width="8.398" height="8.399" x="1610.38" y="255.143" fill="#9E7DD8" opacity=".796" transform="rotate(-143 1614.579 259.343)"/>
    <polygon fill="#9E7DD8" points="1604.655 423.396 1610.966 423.396 1610.966 416.404 1616.106 416.404 1616.106 423.396 1622.417 423.396 1622.417 428.12 1616.106 428.12 1616.106 435.112 1610.966 435.112 1610.966 428.12 1604.655 428.12" transform="scale(-1 1) rotate(-73 0 2606.327)"/>
    <rect width="6.299" height="6.299" x="1878.496" y="111.541" fill="#1DBCBC" opacity=".6" transform="scale(-1 1) rotate(-43 0 4891.525)"/>
    <path stroke="#9E7DD8" stroke-width="3.15" d="M1777.18112,404.613413 L1786.28644,418.074317 L1768.0758,418.074317 L1777.18112,404.613413 Z" transform="scale(1 -1) rotate(-9 -3441.585 0)"/>
    <path stroke="#9E7DD8" stroke-width="3.15" d="M1884.68247,311.8756 L1893.78779,325.336504 L1875.57715,325.336504 L1884.68247,311.8756 Z" transform="scale(1 -1) rotate(-9 -2155.738 0)"/>
    <path stroke="#1DBCBC" stroke-width="3.15" d="M890.177365,400.192202 L899.282687,413.653106 L881.072043,413.653106 L890.177365,400.192202 Z" opacity=".4" transform="scale(-1 1) rotate(13 0 -7406.682)"/>
    <polygon fill="#1DBCBC" points="1112.903 533.659 1121.301 546.257 1104.505 546.257" opacity=".6" transform="scale(-1 1) rotate(-7 0 18735.759)"/>
    <polygon fill="#1DBCBC" points="1546.441 393.088 1554.839 405.685 1538.043 405.685" transform="scale(-1 1) rotate(-7 0 25683.478)"/>
    <polygon fill="#9E7DD8" points="1049.155 487.626 1059.226 487.626 1059.226 476.64 1067.428 476.64 1067.428 487.626 1077.499 487.626 1077.499 495.049 1067.428 495.049 1067.428 506.035 1059.226 506.035 1059.226 495.049 1049.155 495.049" opacity=".6" transform="rotate(-23 1063.327 491.338)"/>
    <ellipse cx="923.224" cy="192.922" stroke="#1DBCBC" stroke-width="4.2" opacity=".5" transform="rotate(-17 923.224 192.922)" rx="6.823" ry="6.823"/>
    <rect width="6.299" height="6.299" x="1239.279" y="567.202" fill="#1DBCBC" opacity=".7" transform="rotate(-32 1242.428 570.351)"/>
    <rect width="8.398" height="8.399" x="822.261" y="378.419" fill="#9E7DD8" opacity=".4" transform="rotate(3 826.46 382.618)"/>
    <ellipse cx="1117.151" cy="415.411" stroke="#1DBCBC" stroke-width="4.2" opacity=".6" transform="scale(-1 1) rotate(73 0 -1094.332)" rx="7.348" ry="7.348"/>
    <ellipse cx="1099.343" cy="284.669" fill="#1DBCBC" opacity=".7" transform="rotate(-17 1099.343 284.67)" rx="7.348" ry="7.349"/>
    <ellipse cx="1178.767" cy="519.621" stroke="#1DBCBC" stroke-width="4.2" opacity=".7" transform="rotate(-163 1178.767 519.62)" rx="7.348" ry="7.348"/>
    <polygon fill="#9E7DD8" points="1107.739 339.763 1116.137 352.361 1099.341 352.361" opacity=".7" transform="scale(1 -1) rotate(27 2549.19 0)"/>
    <rect width="6.299" height="6.299" x="752.707" y="199.177" fill="#1DBCBC" opacity=".4" transform="rotate(-178 755.856 202.327)"/>
    <rect width="6.299" height="6.299" x="1118.657" y="159.421" fill="#1DBCBC" opacity=".8" transform="rotate(-163 1121.806 162.57)"/>
    <polygon fill="#9E7DD8" points="1170.176 301.87 1176.487 301.87 1176.487 294.878 1181.627 294.878 1181.627 301.87 1187.938 301.87 1187.938 306.594 1181.627 306.594 1181.627 313.586 1176.487 313.586 1176.487 306.594 1170.176 306.594" opacity=".8" transform="rotate(-17 1179.057 304.232)"/>
    <rect width="6.299" height="6.299" x="1874.329" y="363.302" fill="#9E7DD8" opacity=".796" transform="rotate(13 1877.478 366.451)"/>
    <polygon fill="#1DBCBC" points="1445.73 506.451 1454.128 519.048 1437.332 519.048" opacity=".8" transform="scale(-1 1) rotate(-7 0 24150.22)"/>
    <ellipse cx="1326.324" cy="542.163" stroke="#1DBCBC" stroke-width="4.2" opacity=".8" transform="rotate(-17 1326.325 542.163)" rx="6.823" ry="6.823"/>
    <rect width="8.398" height="8.399" x="1603.017" y="463.116" fill="#9E7DD8" opacity=".796" transform="rotate(3 1607.216 467.315)"/>
    <ellipse cx="2445.264" cy="13.195" fill="#1DBCBC" opacity=".796" transform="rotate(-17 2445.264 13.195)" rx="7.348" ry="7.349"/>
    <path stroke="#9E7DD8" stroke-width="3.15" d="M2491.64879,18.2870197 L2500.75411,31.747924 L2482.54346,31.747924 L2491.64879,18.2870197 Z" transform="scale(-1 1) rotate(-43 0 6349.818)"/>
    <polygon fill="#9E7DD8" points="944.863 293.219 951.174 293.219 951.174 286.227 956.314 286.227 956.314 293.219 962.625 293.219 962.625 297.943 956.314 297.943 956.314 304.935 951.174 304.935 951.174 297.943 944.863 297.943" opacity=".5" transform="rotate(-17 953.744 295.58)"/>
    <polygon fill="#9E7DD8" points="574.99 217.74 581.301 217.74 581.301 210.748 586.44 210.748 586.44 217.74 592.752 217.74 592.752 222.464 586.44 222.464 586.44 229.456 581.301 229.456 581.301 222.464 574.99 222.464" opacity=".1" transform="rotate(-17 583.87 220.102)"/>
    <rect width="6.299" height="6.299" x="713.485" y="231.393" fill="#9E7DD8" opacity=".3" transform="rotate(13 716.635 234.543)"/>
    <path stroke="#9E7DD8" stroke-width="3.15" d="M655.114068,217.516953 L664.21939,230.977858 L646.008746,230.977858 L655.114068,217.516953 Z" opacity=".2" transform="scale(-1 1) rotate(-59 0 1381.54)"/>
    <polygon fill="#1DBCBC" points="640.494 334.405 648.892 347.002 632.096 347.002" opacity=".1" transform="scale(-1 1) rotate(-7 0 10812.68)"/>
    <ellipse cx="797.526" cy="311.459" stroke="#1DBCBC" stroke-width="4.2" opacity=".4" transform="rotate(-17 797.526 311.459)" rx="6.823" ry="6.823"/>
    <ellipse cx="609.742" cy="283.619" stroke="#1DBCBC" stroke-width="4.2" opacity=".1" transform="rotate(-17 609.742 283.619)" rx="6.823" ry="6.823"/>
    <ellipse cx="1034.642" cy="272.271" stroke="#1DBCBC" stroke-width="4.2" opacity=".6" transform="scale(-1 1) rotate(73 0 -1125.967)" rx="7.348" ry="7.348"/>
    <rect width="12.281" height="12.282" x="1082.116" y="203.902" stroke="#9E7DD8" stroke-width="3.465" opacity=".8" transform="rotate(105 1088.257 210.043)"/>
    <polygon fill="#9E7DD8" points="761.604 397.064 770.002 409.662 753.206 409.662" opacity=".3" transform="scale(-1 1) rotate(-7 0 12855.482)"/>
    <polygon fill="#1DBCBC" points="882.78 321.728 891.178 334.326 874.382 334.326" opacity=".4" transform="scale(-1 1) rotate(-7 0 14761.346)"/>
    <rect width="6.299" height="6.299" x="870.73" y="250.691" fill="#9E7DD8" opacity=".5" transform="rotate(148 873.88 253.84)"/>
    <rect width="8.398" height="8.399" x="652.946" y="276.471" fill="#9E7DD8" opacity=".2" transform="rotate(3 657.145 280.67)"/>
    <path stroke="#9E7DD8" stroke-width="3.15" d="M628.778759,437.516953 L637.88408,450.977858 L619.673437,450.977858 L628.778759,437.516953 Z" opacity=".2" transform="scale(-1 1) rotate(-59 0 1554.992)"/>
    <polygon fill="#1DBCBC" points="661.098 549.01 669.496 561.608 652.7 561.608" opacity=".1" transform="scale(-1 1) rotate(-7 0 11364.16)"/>
    <ellipse cx="609.742" cy="515.543" stroke="#1DBCBC" stroke-width="4.2" opacity=".1" transform="rotate(-17 609.742 515.543)" rx="6.823" ry="6.823"/>
    <rect width="8.398" height="8.399" x="648.511" y="487.489" fill="#9E7DD8" opacity=".2" transform="rotate(3 652.71 491.688)"/>
    <rect width="12.597" height="12.598" x="673.872" y="414.832" fill="#9E7DD8" opacity=".1" transform="scale(1 -1) rotate(-67 43.911 0)"/>
    <ellipse cx="754.271" cy="277.967" fill="#1DBCBC" opacity=".3" transform="rotate(-17 754.27 277.967)" rx="7.348" ry="7.349"/>
    <polygon fill="#9E7DD8" points="959.8 214.721 966.111 214.721 966.111 207.73 971.251 207.73 971.251 214.721 977.562 214.721 977.562 219.446 971.251 219.446 971.251 226.437 966.111 226.437 966.111 219.446 959.8 219.446" opacity=".6" transform="scale(-1 1) rotate(73 0 -1092.014)"/>
    <path stroke="#9E7DD8" stroke-width="3.15" d="M816.793916,211.026832 L825.899238,224.487737 L807.688595,224.487737 L816.793916,211.026832 Z" opacity=".4" transform="scale(-1 1) rotate(-43 0 2290.691)"/>
    <rect width="10.498" height="10.498" x="737.696" y="329.899" fill="#1DBCBC" opacity=".3" transform="rotate(-123 742.945 335.148)"/>
    <rect width="12.281" height="12.282" x="692.135" y="346.057" stroke="#9E7DD8" stroke-width="3.465" opacity=".2" transform="rotate(-41 698.276 352.198)"/>
    <polygon fill="#1DBCBC" points="630.494 604.312 638.892 616.91 622.096 616.91" opacity=".1" transform="scale(-1 1) rotate(-7 0 10919.09)"/>
    <rect width="12.597" height="12.598" x="691.669" y="662.153" fill="#9E7DD8" opacity=".1" transform="scale(1 -1) rotate(-67 -311.953 0)"/>
    <rect width="12.281" height="12.282" x="681.397" y="592.657" stroke="#9E7DD8" stroke-width="3.465" opacity=".2" transform="rotate(-41 687.538 598.798)"/>
    <rect width="12.597" height="12.598" x="1138.275" y="234.887" fill="#1DBCBC" opacity=".8" transform="scale(-1 1) rotate(63 0 -1626.588)"/>
    <polygon fill="#9E7DD8" points="810.313 462.389 817.146 462.389 817.146 454.818 822.711 454.818 822.711 462.389 829.544 462.389 829.544 467.504 822.711 467.504 822.711 475.074 817.146 475.074 817.146 467.504 810.313 467.504" opacity=".3" transform="rotate(28 819.928 464.946)"/>
    <rect width="6.299" height="6.299" x="963.718" y="477.379" fill="#1DBCBC" opacity=".5" transform="rotate(-32 966.867 480.528)"/>
    <rect width="10.498" height="10.498" x="855.966" y="505.806" fill="#1DBCBC" opacity=".4" transform="rotate(23 861.215 511.055)"/>
    <ellipse cx="738.984" cy="470.431" stroke="#1DBCBC" stroke-width="4.2" opacity=".2" transform="scale(-1 1) rotate(73 0 -528.248)" rx="9.972" ry="9.973"/>
    <rect width="6.299" height="6.299" x="774.144" y="509.177" fill="#1DBCBC" opacity=".4" transform="rotate(-178 777.294 512.327)"/>
    <rect width="6.299" height="6.299" x="823.765" y="540.683" fill="#9E7DD8" opacity=".3" transform="rotate(13 826.914 543.832)"/>
    <ellipse cx="754.174" cy="623.108" stroke="#1DBCBC" stroke-width="4.2" opacity=".4" transform="rotate(-17 754.174 623.108)" rx="6.823" ry="6.823"/>
    <polygon fill="#9E7DD8" points="926.455 608.697 934.853 621.295 918.057 621.295" opacity=".3" transform="scale(-1 1) rotate(-7 0 15762.4)"/>
    <ellipse cx="804.958" cy="584.901" fill="#1DBCBC" opacity=".3" transform="rotate(-17 804.958 584.901)" rx="7.348" ry="7.349"/>
    <rect width="10.498" height="10.498" x="857.759" y="642.772" fill="#1DBCBC" opacity=".3" transform="rotate(-123 863.008 648.021)"/>
    <rect width="12.281" height="12.282" x="776.224" y="669.26" stroke="#9E7DD8" stroke-width="3.465" opacity=".2" transform="rotate(-41 782.365 675.402)"/>
    <ellipse cx="731.412" cy="544.327" stroke="#1DBCBC" stroke-width="4.2" opacity=".2" transform="scale(-1 1) rotate(73 0 -444.12)" rx="9.972" ry="9.973"/>
    <rect width="12.597" height="12.598" x="895.684" y="465.164" fill="#9E7DD8" opacity=".4" transform="scale(1 -1) rotate(-67 189.679 0)"/>
    <rect width="8.398" height="8.399" x="961.194" y="435.686" fill="#9E7DD8" opacity=".5" transform="rotate(3 965.393 439.885)"/>
    <ellipse cx="1019.5" cy="552.128" fill="#1DBCBC" opacity=".5" transform="rotate(-163 1019.5 552.128)" rx="7.348" ry="7.349"/>
    <polygon fill="#9E7DD8" points="879.793 558.919 886.104 558.919 886.104 551.928 891.244 551.928 891.244 558.919 897.555 558.919 897.555 563.644 891.244 563.644 891.244 570.635 886.104 570.635 886.104 563.644 879.793 563.644" opacity=".4" transform="scale(-1 1) rotate(-73 0 1762.255)"/>
    <path stroke="#9E7DD8" stroke-width="3.15" d="M945.160412,530.599739 L954.265734,544.060643 L936.055091,544.060643 L945.160412,530.599739 Z" opacity=".5" transform="scale(1 -1) rotate(-9 -5874.414 0)"/>
    <polygon fill="#9E7DD8" points="946.072 361.405 955.634 361.405 955.634 350.811 963.421 350.811 963.421 361.405 972.984 361.405 972.984 368.563 963.421 368.563 963.421 379.156 955.634 379.156 955.634 368.563 946.072 368.563" opacity=".5" transform="rotate(28 959.528 364.984)"/>
    <path stroke="#1DBCBC" stroke-width="3.15" d="M1159.7225,572.94908 L1168.82783,586.409984 L1150.61718,586.409984 L1159.7225,572.94908 Z" opacity=".4" transform="scale(-1 1) rotate(13 0 -9599.692)"/>
    <polygon fill="#1DBCBC" points="992.581 609.866 1000.979 622.464 984.183 622.464" opacity=".4" transform="scale(-1 1) rotate(-7 0 16844.725)"/>
    <polygon fill="#9E7DD8" points="1064.186 593.205 1073.748 593.205 1073.748 582.611 1081.535 582.611 1081.535 593.205 1091.098 593.205 1091.098 600.363 1081.535 600.363 1081.535 610.956 1073.748 610.956 1073.748 600.363 1064.186 600.363" opacity=".5" transform="rotate(28 1077.642 596.784)"/>
    <rect width="12.597" height="12.598" x="1124.3" y="477.845" fill="#1DBCBC" opacity=".6" transform="rotate(23 1130.599 484.144)"/>
    <ellipse cx="1040.112" cy="359.491" stroke="#1DBCBC" stroke-width="4.2" opacity=".6" transform="rotate(-163 1040.112 359.491)" rx="6.823" ry="6.823"/>
    <path stroke="#9E7DD8" stroke-width="3.15" d="M1046.50034,426.883505 L1055.60566,440.344409 L1037.39501,440.344409 L1046.50034,426.883505 Z" opacity=".6" transform="scale(1 -1) rotate(-9 -4455.234 0)"/>
    <ellipse cx="9.5" cy="552.128" fill="#FFFFFF" opacity=".01" transform="rotate(-163 9.5 552.128)" rx="7.348" ry="7.349"/>
  </g>
</svg>
