<svg xmlns="http://www.w3.org/2000/svg" width="3331" height="485"><g fill="none" fill-rule="evenodd"><circle cx="1679" cy="290" r="9.2" stroke="#FFF" stroke-width="3.6" opacity=".1" transform="rotate(37 1679 290)"/><path fill="#FFF" opacity=".1" d="M1553.902 199.972l4.54 3.42 3.825-5.074 3.697 2.787-3.824 5.074 4.54 3.422-2.582 3.427-4.54-3.42-3.825 5.074-3.697-2.787 3.824-5.074-4.54-3.422z"/><path fill="#D8D8D8" opacity=".6" d="M1464.417 165.798l8.785 6.62-6.62 8.784-8.784-6.62z"/><path fill="#D8D8D8" opacity=".1" d="M1697.008 351.999l3.993 3.009-3.009 3.993-3.993-3.009z"/><path fill="#D8D8D8" opacity=".3" d="M1549.008 303.999l3.993 3.009-3.009 3.993-3.993-3.009z"/><circle cx="1922" cy="347" r="5.2" stroke="#FFF" stroke-width="3.6" opacity=".1" transform="rotate(37 1922 347)"/><circle cx="1405.5" cy="256.5" r="5.7" stroke="#FFF" stroke-width="3.6" opacity=".1" transform="rotate(37 1405.5 256.5)"/><path fill="#FFF" opacity=".12" d="M1773.14 225.66l6.526 4.917 5.398-7.163 5.316 4.005-5.399 7.164 6.527 4.918-3.647 4.84-6.527-4.918-5.398 7.163-5.316-4.005 5.399-7.164-6.527-4.918z"/><path fill="#D8D8D8" opacity=".6" d="M2011.008 268.999l3.993 3.009-3.009 3.993-3.993-3.009z"/><circle cx="2097.5" cy="248.5" r="5.7" stroke="#FFF" stroke-width="3.6" opacity=".1" transform="rotate(37 2097.5 248.5)"/><circle cx="1722" cy="82" r="6.2" stroke="#FFF" stroke-width="3.6" opacity=".3" transform="rotate(37 1722 82)"/><path fill="#FFF" opacity=".2" d="M1917.726 198.873l4.257 3.208 3.598-4.776 3.467 2.612-3.6 4.776 4.257 3.207-2.43 3.227-4.258-3.208-3.598 4.776-3.467-2.612 3.6-4.776-4.257-3.207z"/><path fill="#D8D8D8" opacity=".21" d="M1819.008 304.999l3.993 3.009-3.009 3.993-3.993-3.009z"/><path fill="#D8D8D8" opacity=".7" d="M2406.811 357.598l5.59 4.213-4.212 5.59-5.59-4.212z"/><circle cx="1819.5" cy="51.5" r="8.7" stroke="#FFF" stroke-width="3.6" opacity=".2"/><circle cx="1681.5" cy="146.5" r="5.7" stroke="#FFF" stroke-width="3.6" opacity=".2"/><circle cx="1251" cy="169" r="6.2" stroke="#FFF" stroke-width="3.6" opacity=".2"/><circle cx="1392" cy="356" r="9.2" stroke="#FFF" stroke-width="3.6" opacity=".2"/><circle cx="1584" cy="421" r="5.2" stroke="#FFF" stroke-width="3.6" opacity=".2"/><circle cx="2049.5" cy="351.5" r="5.7" stroke="#FFF" stroke-width="3.6" opacity=".2"/><circle cx="2156.5" cy="78.5" r="5.7" stroke="#FFF" stroke-width="3.6" opacity=".2"/><path fill="#FFF" opacity=".2" d="M1499 100.98h5.33V95h4.34v5.98h5.33v4.04h-5.33V111h-4.34v-5.98H1499zM1987 114.212h9.949V103h8.102v11.212H2015v7.576h-9.949V133h-8.102v-11.212H1987zM1773.51 407.726l5.78 5.778 6.342-6.343 4.707 4.707-6.343 6.343 5.778 5.778-4.285 4.285-5.778-5.778-6.343 6.343-4.707-4.707 6.343-6.343-5.778-5.778zM2349.568 273.497l4.774 4.774 5.285-5.286 3.888 3.888-5.286 5.285 4.774 4.774-3.57 3.571-4.775-4.774-5.285 5.286-3.888-3.888 5.286-5.285-4.774-4.774zM1267.86 265.326l4.02 4.02 4.493-4.493 3.274 3.274-4.493 4.493 4.02 4.02-3.035 3.034-4.02-4.02-4.492 4.493-3.274-3.274 4.493-4.493-4.02-4.02z"/><path fill="#D8D8D8" opacity=".2" d="M1610 41h5v5h-5zM2294 97h5v5h-5zM2050.822 33.751l8.427 7.071-7.071 8.427-8.427-7.071zM1176.822 230.751l8.427 7.071-7.071 8.427-8.427-7.071zM2376.408 162.014l6.578 2.394-2.394 6.578-6.578-2.394zM2117.408 424.014l6.578 2.394-2.394 6.578-6.578-2.394zM1934.408 436.014l6.578 2.394-2.394 6.578-6.578-2.394zM1385.585 171.085l4.33 2.5-2.5 4.33-4.33-2.5zM1859.438 136.732l4.83-1.294 1.294 4.83-4.83 1.294zM1452 458h-5v-5h5zM1694.415 484.915l-4.33-2.5 2.5-4.33 4.33 2.5zM1265.562 375.268l-4.83 1.294-1.294-4.83 4.83-1.294zM2393.562 422.268l-4.83 1.294-1.294-4.83 4.83-1.294z"/><g opacity=".7" transform="matrix(-1 0 0 1 3331 0)"><circle cx="381.405" cy="124.405" r="9.2" stroke="#FFF" stroke-width="3.6" opacity=".1" transform="rotate(37 381.405 124.405)"/><path fill="#FFF" opacity=".1" d="M262.582 167.073l4.541 3.422 3.824-5.074 3.696 2.786-3.823 5.074 4.54 3.421-2.583 3.429-4.54-3.422-3.824 5.075-3.697-2.786 3.824-5.074-4.541-3.422z"/><path fill="#D8D8D8" opacity=".2" d="M392.62 310l8.784 6.62-6.62 8.784-8.784-6.62z"/><path fill="#D8D8D8" opacity=".1" d="M405.184 319l3.993 3.009-3.009 3.993-3.993-3.009z"/><path fill="#D8D8D8" opacity=".3" d="M257.184 271l3.993 3.009-3.009 3.993-3.993-3.009z"/><circle cx="629.978" cy="313.803" r="5.2" stroke="#FFF" stroke-width="3.6" opacity=".1" transform="rotate(37 629.978 313.803)"/><circle cx="111.503" cy="235.503" r="5.7" stroke="#FFF" stroke-width="3.6" opacity=".1" transform="rotate(37 111.503 235.503)"/><path fill="#FFF" opacity=".12" d="M414.045 211.163l6.527 4.918 5.398-7.163 5.316 4.005-5.399 7.164 6.527 4.918-3.648 4.84-6.526-4.917-5.398 7.162-5.316-4.005 5.398-7.163-6.526-4.918z"/><path fill="#D8D8D8" opacity=".6" d="M719.184 236l3.993 3.009-3.009 3.993-3.993-3.009z"/><circle cx="805.678" cy="215.503" r="5.7" stroke="#FFF" stroke-width="3.6" opacity=".1" transform="rotate(37 805.678 215.503)"/><circle cx="150.204" cy="70.204" r="6.2" stroke="#FFF" stroke-width="3.6" opacity=".1" transform="rotate(37 150.204 70.204)"/><path fill="#FFF" opacity=".2" d="M626.206 165.775l4.256 3.207 3.599-4.775 3.466 2.612-3.598 4.775 4.256 3.208-2.432 3.227-4.256-3.207-3.6 4.775-3.465-2.611 3.598-4.776-4.256-3.208z"/><path fill="#D8D8D8" opacity=".21" d="M527.184 272l3.993 3.009-3.009 3.993-3.993-3.009z"/><path fill="#D8D8D8" opacity=".7" d="M1115.387 325l5.59 4.213-4.212 5.59-5.59-4.212z"/><circle cx="527.675" cy="18.5" r="8.7" stroke="#FFF" stroke-width="3.6" opacity=".2"/><circle cx="41.5" cy="7.5" r="5.7" stroke="#FFF" stroke-width="3.6" opacity=".1"/><circle cx="954.751" cy="135" r="6.2" stroke="#FFF" stroke-width="3.6" opacity=".2"/><circle cx="17" cy="341" r="9.2" stroke="#FFF" stroke-width="3.6" opacity=".2"/><circle cx="292.175" cy="388" r="5.2" stroke="#FFF" stroke-width="3.6" opacity=".2"/><circle cx="757.675" cy="318.5" r="5.7" stroke="#FFF" stroke-width="3.6" opacity=".2"/><circle cx="864.675" cy="45.5" r="5.7" stroke="#FFF" stroke-width="3.6" opacity=".2"/><path fill="#FFF" opacity=".2" d="M695.175 81.212h9.949V70h8.102v11.212h9.949v7.576h-9.949V100h-8.102V88.788h-9.949zM481.803 374.343l5.778 5.778 6.343-6.343 4.707 4.707-6.343 6.343 5.778 5.778-4.285 4.285-5.778-5.778-6.343 6.343-4.707-4.707 6.343-6.343-5.778-5.778zM1058.033 240.285l4.773 4.774 5.285-5.285 3.887 3.887-5.285 5.285 4.775 4.774-3.572 3.572-4.774-4.774-5.286 5.285-3.887-3.887 5.286-5.285-4.774-4.774zM971.28 231.493l4.02 4.02 4.492-4.493 3.274 3.274-4.493 4.493 4.02 4.02-3.035 3.035-4.02-4.02-4.492 4.492-3.274-3.274 4.492-4.492-4.02-4.02z"/><path fill="#D8D8D8" opacity=".2" d="M318.175 8h5v5h-5zM1002.175 64h5v5h-5zM759.245 1l8.427 7.071-7.071 8.427-8.427-7.071zM880.822 197l8.427 7.071-7.071 8.427-8.427-7.071zM1084.57 129l6.577 2.394-2.394 6.578-6.578-2.394zM825.57 391l6.577 2.394-2.394 6.578-6.578-2.394zM642.57 403l6.577 2.394-2.394 6.578-6.578-2.394zM2.5 135l4.33 2.5-2.5 4.33-4.33-2.5zM568.175 103.294l4.83-1.294 1.294 4.83-4.83 1.294zM160.175 425h-5v-5h5zM402.505 451.83l-4.33-2.5 2.5-4.33 4.33 2.5zM969.875 340.83l-4.83 1.294-1.294-4.83 4.83-1.294zM1102.299 388.83l-4.83 1.294-1.294-4.83 4.83-1.294z"/></g><g opacity=".7"><circle cx="381.405" cy="124.405" r="9.2" stroke="#FFF" stroke-width="3.6" opacity=".1" transform="rotate(37 381.405 124.405)"/><path fill="#FFF" opacity=".1" d="M262.582 167.073l4.541 3.422 3.824-5.074 3.696 2.786-3.823 5.074 4.54 3.421-2.583 3.429-4.54-3.422-3.824 5.075-3.697-2.786 3.824-5.074-4.541-3.422z"/><path fill="#D8D8D8" opacity=".2" d="M392.62 310l8.784 6.62-6.62 8.784-8.784-6.62z"/><path fill="#D8D8D8" opacity=".1" d="M405.184 319l3.993 3.009-3.009 3.993-3.993-3.009z"/><path fill="#D8D8D8" opacity=".3" d="M257.184 271l3.993 3.009-3.009 3.993-3.993-3.009z"/><circle cx="629.978" cy="313.803" r="5.2" stroke="#FFF" stroke-width="3.6" opacity=".1" transform="rotate(37 629.978 313.803)"/><circle cx="111.503" cy="235.503" r="5.7" stroke="#FFF" stroke-width="3.6" opacity=".1" transform="rotate(37 111.503 235.503)"/><path fill="#FFF" opacity=".12" d="M414.045 211.163l6.527 4.918 5.398-7.163 5.316 4.005-5.399 7.164 6.527 4.918-3.648 4.84-6.526-4.917-5.398 7.162-5.316-4.005 5.398-7.163-6.526-4.918z"/><path fill="#D8D8D8" opacity=".6" d="M719.184 236l3.993 3.009-3.009 3.993-3.993-3.009z"/><circle cx="805.678" cy="215.503" r="5.7" stroke="#FFF" stroke-width="3.6" opacity=".1" transform="rotate(37 805.678 215.503)"/><circle cx="150.204" cy="70.204" r="6.2" stroke="#FFF" stroke-width="3.6" opacity=".1" transform="rotate(37 150.204 70.204)"/><path fill="#FFF" opacity=".2" d="M626.206 165.775l4.256 3.207 3.599-4.775 3.466 2.612-3.598 4.775 4.256 3.208-2.432 3.227-4.256-3.207-3.6 4.775-3.465-2.611 3.598-4.776-4.256-3.208z"/><path fill="#D8D8D8" opacity=".21" d="M527.184 272l3.993 3.009-3.009 3.993-3.993-3.009z"/><path fill="#D8D8D8" opacity=".7" d="M1115.387 325l5.59 4.213-4.212 5.59-5.59-4.212z"/><circle cx="527.675" cy="18.5" r="8.7" stroke="#FFF" stroke-width="3.6" opacity=".2"/><circle cx="41.5" cy="7.5" r="5.7" stroke="#FFF" stroke-width="3.6" opacity=".1"/><circle cx="954.751" cy="135" r="6.2" stroke="#FFF" stroke-width="3.6" opacity=".2"/><circle cx="17" cy="341" r="9.2" stroke="#FFF" stroke-width="3.6" opacity=".2"/><circle cx="292.175" cy="388" r="5.2" stroke="#FFF" stroke-width="3.6" opacity=".2"/><circle cx="757.675" cy="318.5" r="5.7" stroke="#FFF" stroke-width="3.6" opacity=".2"/><circle cx="864.675" cy="45.5" r="5.7" stroke="#FFF" stroke-width="3.6" opacity=".2"/><path fill="#FFF" opacity=".2" d="M695.175 81.212h9.949V70h8.102v11.212h9.949v7.576h-9.949V100h-8.102V88.788h-9.949zM481.803 374.343l5.778 5.778 6.343-6.343 4.707 4.707-6.343 6.343 5.778 5.778-4.285 4.285-5.778-5.778-6.343 6.343-4.707-4.707 6.343-6.343-5.778-5.778zM1058.033 240.285l4.773 4.774 5.285-5.285 3.887 3.887-5.285 5.285 4.775 4.774-3.572 3.572-4.774-4.774-5.286 5.285-3.887-3.887 5.286-5.285-4.774-4.774zM971.28 231.493l4.02 4.02 4.492-4.493 3.274 3.274-4.493 4.493 4.02 4.02-3.035 3.035-4.02-4.02-4.492 4.492-3.274-3.274 4.492-4.492-4.02-4.02z"/><path fill="#D8D8D8" opacity=".2" d="M318.175 8h5v5h-5zM1002.175 64h5v5h-5zM759.245 1l8.427 7.071-7.071 8.427-8.427-7.071zM880.822 197l8.427 7.071-7.071 8.427-8.427-7.071zM1084.57 129l6.577 2.394-2.394 6.578-6.578-2.394zM825.57 391l6.577 2.394-2.394 6.578-6.578-2.394zM642.57 403l6.577 2.394-2.394 6.578-6.578-2.394zM2.5 135l4.33 2.5-2.5 4.33-4.33-2.5zM568.175 103.294l4.83-1.294 1.294 4.83-4.83 1.294zM160.175 425h-5v-5h5zM402.505 451.83l-4.33-2.5 2.5-4.33 4.33 2.5zM969.875 340.83l-4.83 1.294-1.294-4.83 4.83-1.294zM1102.299 388.83l-4.83 1.294-1.294-4.83 4.83-1.294z"/></g></g></svg>