<svg xmlns="http://www.w3.org/2000/svg" width="3243" height="1072"><g fill="none" fill-rule="evenodd" opacity=".25"><path fill="#1DBCBC" fill-rule="nonzero" d="M2529.5 44a7.5 7.5 0 1 0 0-15 7.5 7.5 0 0 0 0 15zm0 4c-6.351 0-11.5-5.149-11.5-11.5s5.149-11.5 11.5-11.5 11.5 5.149 11.5 11.5-5.149 11.5-11.5 11.5z" opacity=".45"/><path fill="#1DBCBC" fill-rule="nonzero" d="M2322.5 373a4.5 4.5 0 1 0 0-9 4.5 4.5 0 0 0 0 9zm0 4a8.5 8.5 0 1 1 0-17 8.5 8.5 0 0 1 0 17zM1912 258a5 5 0 1 0 0-10 5 5 0 0 0 0 10zm0 4a9 9 0 1 1 0-18 9 9 0 0 1 0 18zm91 189a8 8 0 1 0 0-16 8 8 0 0 0 0 16zm0 4c-6.627 0-12-5.373-12-12s5.373-12 12-12 12 5.373 12 12-5.373 12-12 12zm344 137a4 4 0 1 0 0-8 4 4 0 0 0 0 8zm0 4a8 8 0 1 1 0-16 8 8 0 0 1 0 16z" opacity=".6"/><path fill="#1DBCBC" fill-rule="nonzero" d="M2768.5 425a4.5 4.5 0 1 0 0-9 4.5 4.5 0 0 0 0 9zm0 4a8.5 8.5 0 1 1 0-17 8.5 8.5 0 0 1 0 17zm79-260a4.5 4.5 0 1 0 0-9 4.5 4.5 0 0 0 0 9zm0 4a8.5 8.5 0 1 1 0-17 8.5 8.5 0 0 1 0 17z" opacity=".3"/><path fill="#1DBCBC" opacity=".6" d="M2179.38 179.66h6.012V173h4.896v6.66h6.012v4.5h-6.012v6.66h-4.896v-6.66h-6.012zM1931 610.717h8.883V601h7.234v9.717H1956v6.566h-8.883V627h-7.234v-9.717H1931zM2153.957 702.136l6.44 6.44 7.136-7.135 5.246 5.246-7.136 7.135 6.441 6.441-4.82 4.821-6.442-6.44-7.135 7.135-5.246-5.246 7.136-7.135-6.441-6.441z"/><path fill="#1DBCBC" opacity=".2" d="M2981.543 200.136l6.44 6.44 7.136-7.135 5.246 5.246-7.136 7.135 6.441 6.441-4.82 4.821-6.442-6.44-7.135 7.135-5.246-5.246 7.136-7.135-6.441-6.441z"/><path fill="#1DBCBC" opacity=".6" d="M2402.957 145.026l6.44 6.44 7.136-7.135 5.246 5.246-7.136 7.135 6.441 6.441-4.82 4.821-6.442-6.44-7.135 7.135-5.246-5.246 7.136-7.135-6.441-6.441z"/><path fill="#1DBCBC" opacity=".1" d="M3041.863 499.887l5.314 5.313 5.886-5.887 4.328 4.328-5.887 5.886 5.313 5.314-3.976 3.976-5.314-5.313-5.886 5.886-4.327-4.327 5.886-5.886-5.313-5.314z"/><path fill="#1DBCBC" opacity=".6" d="M1867.545 516.099l4.603 4.602 5.099-5.099 3.748 3.749-5.099 5.099 4.603 4.602-3.446 3.446-4.603-4.603-5.099 5.1-3.748-3.75 5.099-5.098-4.603-4.603zM2297.246 459.099l4.603 4.602 5.099-5.099 3.749 3.75-5.1 5.098 4.603 4.603-3.445 3.446-4.603-4.603-5.099 5.099-3.749-3.75 5.099-5.098-4.603-4.603z"/><path fill="#1DBCBC" opacity=".4" d="M2723.948 341.1l4.602 4.602 5.1-5.099 3.748 3.748-5.1 5.1 4.603 4.602-3.445 3.446-4.603-4.603-5.099 5.099-3.748-3.748 5.099-5.1-4.603-4.602z"/><path fill="#1DBCBC" opacity=".6" d="M2298 37h6v6h-6z"/><path fill="#1DBCBC" opacity=".1" d="M3058 99h6v6h-6z"/><path fill="#1DBCBC" opacity=".45" d="M2518.713 159l9.193 7.713-7.713 9.193-9.193-7.713z"/><path fill="#1DBCBC" opacity=".6" d="M1986.713 303l9.193 7.713-7.713 9.193-9.193-7.713z"/><path fill="#1DBCBC" opacity=".1" d="M3149.736 171l7.518 2.736-2.736 7.518-7.518-2.736z"/><path fill="#1DBCBC" opacity=".3" d="M2848.736 411l7.518 2.736-2.736 7.518-7.518-2.736z"/><path fill="#1DBCBC" opacity=".4" d="M2679.736 544l7.518 2.736-2.736 7.518-7.518-2.736z"/><path fill="#1DBCBC" opacity=".6" d="M2048.902 180.902l5.196 3-3 5.196-5.196-3zM2353 217.553l5.795-1.553 1.553 5.795-5.795 1.553zM2017 556h-6v-6h6zM2392.196 530.196l-5.196-3 3-5.196 5.196 3zM1915.348 408.795l-5.795 1.553-1.553-5.795 5.795-1.553z"/><path fill="#1DBCBC" fill-rule="nonzero" d="M2906.51 46.466a5 5 0 1 0-7.66 6.427 5 5 0 0 0 7.66-6.427zm1.955 10.108a9 9 0 1 1-11.57-13.789 9 9 0 0 1 11.57 13.789z" opacity=".2"/><path fill="#1DBCBC" fill-rule="nonzero" d="M3063.142 423.129a8 8 0 1 0-10.284-12.257 8 8 0 0 0 10.284 12.257zm2.571 3.064c-5.076 4.26-12.646 3.598-16.906-1.48-4.26-5.076-3.597-12.645 1.48-16.905 5.076-4.26 12.646-3.598 16.906 1.479 4.26 5.077 3.597 12.646-1.48 16.906z" opacity=".1"/><path fill="#1DBCBC" opacity=".1" d="M3083.78 329.629l-.567 6.484-7.183-.629-.462 5.281 7.183.629-.567 6.485 4.853.425.568-6.486 7.183.629.462-5.281-7.183-.629.567-6.484z"/><path fill="#1DBCBC" opacity=".3" d="M2858.084 295L2856 306.818l11.818 2.084 2.084-11.818z"/><path fill="#1DBCBC" opacity=".6" d="M2019.084 71L2017 82.818l11.818 2.084 2.084-11.818z"/><path fill="#1DBCBC" fill-rule="nonzero" d="M2415.5 79a7.5 7.5 0 1 0 0-15 7.5 7.5 0 0 0 0 15zm0 4c-6.351 0-11.5-5.149-11.5-11.5s5.149-11.5 11.5-11.5 11.5 5.149 11.5 11.5-5.149 11.5-11.5 11.5zM1912 142a5 5 0 1 0 0-10 5 5 0 0 0 0 10zm0 4a9 9 0 1 1 0-18 9 9 0 0 1 0 18z" opacity=".6"/><path fill="#1DBCBC" opacity=".6" d="M2151.037 64.456l6.44 6.44 7.136-7.135 5.246 5.246-7.136 7.135 6.442 6.442-4.821 4.82-6.442-6.44-7.135 7.135-5.246-5.246 7.136-7.135-6.441-6.441zM2298 37h6v6h-6z"/><path fill="#1DBCBC" opacity=".45" d="M2518.713 159l9.193 7.713-7.713 9.193-9.193-7.713z"/><path fill="#1DBCBC" opacity=".6" d="M2048.902 180.902l5.196 3-3 5.196-5.196-3z"/><path fill="#1DBCBC" fill-rule="nonzero" d="M2208.3 528.027a8 8 0 1 0 0-16 8 8 0 0 0 0 16zm0 4c-6.627 0-12-5.372-12-12 0-6.627 5.373-12 12-12 6.628 0 12 5.373 12 12 0 6.628-5.372 12-12 12z" opacity=".6"/><path fill="#1DBCBC" opacity=".6" d="M1664.545 707.099l4.603 4.602 5.099-5.099 3.748 3.749-5.099 5.099 4.603 4.602-3.446 3.446-4.603-4.603-5.099 5.1-3.748-3.75 5.099-5.098-4.603-4.603zM2192.013 380.027l9.193 7.713-7.713 9.193-9.193-7.713zM2116.348 489.795l-5.795 1.553-1.553-5.795 5.795-1.553z"/><path fill="#1DBCBC" fill-rule="nonzero" d="M2121.3 265.027a5 5 0 1 0 0-10 5 5 0 0 0 0 10zm0 4a9 9 0 1 1 0-18 9 9 0 0 1 0 18z" opacity=".6"/><path fill="#1DBCBC" opacity=".6" d="M2254.3 258.027l5.196 3-3 5.196-5.196-3z"/><path fill="#1DBCBC" fill-rule="nonzero" d="M2947.561 532a8 8 0 1 0 0-16 8 8 0 0 0 0 16zm0 4c-6.627 0-12-5.373-12-12s5.373-12 12-12c6.628 0 12 5.373 12 12s-5.372 12-12 12z" opacity=".2"/><path fill="#1DBCBC" opacity=".3" d="M2812.106 597.099l4.603 4.602 5.099-5.099 3.748 3.749-5.099 5.099 4.603 4.603-3.445 3.446-4.604-4.604-5.099 5.1-3.748-3.75 5.099-5.098-4.603-4.603z"/><path fill="#1DBCBC" opacity=".2" d="M2931.274 384l9.193 7.713-7.713 9.193-9.193-7.713z"/><path fill="#1DBCBC" opacity=".3" d="M2776.348 527.795l-5.795 1.553-1.553-5.795 5.795-1.553z"/><path fill="#1DBCBC" fill-rule="nonzero" d="M2795 263a5 5 0 1 0 0-10 5 5 0 0 0 0 10zm0 4a9 9 0 1 1 0-18 9 9 0 0 1 0 18z" opacity=".3"/><path fill="#1DBCBC" opacity=".2" d="M2983 299l5.196 3-3 5.196-5.196-3z"/><path fill="#1DBCBC" opacity=".6" d="M2353 217.553l5.795-1.553 1.553 5.795-5.795 1.553zM1979.084 145l-2.083 11.818 11.817 2.084 2.084-11.818zM1900.084 54L1898 65.818l11.818 2.084 2.084-11.818z"/><path fill="#1DBCBC" opacity=".4" d="M2681.083 174L2679 185.82l11.817 2.083 2.084-11.817z"/><path fill="#1DBCBC" opacity=".1" d="M3090.522 244.526l5.438-2.535-2.536-5.438-5.438 2.536z"/><path fill="#1DBCBC" fill-rule="nonzero" d="M2367.5 298a4.5 4.5 0 1 0 0-9 4.5 4.5 0 0 0 0 9zm0 4a8.5 8.5 0 1 1 0-17 8.5 8.5 0 0 1 0 17z" opacity=".6"/><path fill="#1DBCBC" opacity=".6" d="M2437 231h6v6h-6z"/><path fill="#1DBCBC" opacity=".45" d="M2655.736 292.094l7.518 2.736-2.737 7.518-7.517-2.736z"/><path fill="#1DBCBC" fill-rule="nonzero" d="M2092.143 645.129a8 8 0 1 0-10.285-12.257 8 8 0 0 0 10.285 12.257zm2.57 3.064c-5.076 4.26-12.645 3.598-16.905-1.48-4.26-5.076-3.598-12.645 1.479-16.905 5.077-4.26 12.646-3.598 16.906 1.479 4.26 5.077 3.598 12.646-1.48 16.906z" opacity=".6"/><path fill="#1DBCBC" opacity=".45" d="M2617.78 447.723l-.567 6.484-7.184-.628-.462 5.28 7.184.629-.567 6.485 4.853.425.567-6.485 7.184.628.462-5.28-7.184-.63.568-6.484z"/><path fill="#1DBCBC" opacity=".6" d="M2261.084 121L2259 132.818l11.818 2.084 2.083-11.818z"/><path fill="#1DBCBC" opacity=".45" d="M2596.536 365.067l5.438-2.535-2.536-5.438-5.438 2.535z"/><path fill="#1DBCBC" opacity=".1" d="M3169.348 460.795l-5.795 1.553-1.553-5.795 5.795-1.553z"/><path fill="#1DBCBC" opacity=".2" d="M3000.957 642.026l6.44 6.44 7.136-7.135 5.246 5.246-7.136 7.135 6.441 6.441-4.82 4.821-6.442-6.44-7.135 7.135-5.246-5.246 7.136-7.135-6.441-6.441z"/><path fill="#1DBCBC" opacity=".1" d="M3133 646.89h6v6h-6z"/><path fill="#1DBCBC" opacity=".6" d="M2505.713 655l9.193 7.713-7.713 9.193-9.193-7.713z"/><path fill="#1DBCBC" opacity=".4" d="M2689 644.553l5.795-1.553 1.553 5.795-5.795 1.553z"/><path fill="#1DBCBC" opacity=".3" d="M2757.084 85L2755 96.818l11.818 2.084 2.084-11.818z"/><path fill="#1DBCBC" fill-rule="nonzero" d="M1848.5 619a4.5 4.5 0 1 0 0-9 4.5 4.5 0 0 0 0 9zm0 4a8.5 8.5 0 1 1 0-17 8.5 8.5 0 0 1 0 17z" opacity=".6"/><path fill="#1DBCBC" opacity=".3" d="M304.736 736l7.518 2.736-2.736 7.518-7.518-2.736z"/><path fill="#1DBCBC" opacity=".2" d="M2946.458 114.459l6.083 13.864-16.541-2.917z"/><ellipse cx="2645.348" cy="83.349" fill="#1DBCBC" opacity=".45" transform="matrix(-1 0 0 1 5290.697 0)" rx="7.348" ry="7.349"/><path fill="#1DBCBC" opacity=".1" d="M3191.726 360h-6.299v6.299h6.299z"/><path fill="#1DBCBC" d="M2500.455 456l-5.456 3.15 3.15 5.455 5.455-3.15z"/><path fill="#1DBCBC" fill-rule="nonzero" d="M3233.428 220a5 5 0 1 0 0-10 5 5 0 0 0 0 10zm0 4a9 9 0 1 1 0-18 9 9 0 0 1 0 18z" opacity=".1"/><path fill="#1DBCBC" opacity=".3" d="M2869 512l5.196 3-3 5.196-5.196-3z"/><path fill="#1DBCBC" opacity=".1" d="M3079.957 578.136l6.44 6.44 7.136-7.135 5.246 5.246-7.136 7.135 6.441 6.441-4.82 4.821-6.442-6.44-7.135 7.135-5.246-5.246 7.136-7.135-6.441-6.441z"/><path fill="#1DBCBC" opacity=".6" d="M1788 523h6v6h-6z"/><path fill="#1DBCBC" fill-rule="nonzero" d="M1803.893 699.51a5 5 0 1 0-6.427-7.66 5 5 0 0 0 6.427 7.66zm2.572 3.064a9 9 0 1 1-11.57-13.789 9 9 0 0 1 11.57 13.789z" opacity=".6"/><path fill="#1DBCBC" opacity=".6" d="M1723.216 596l-2.084 11.817 11.818 2.084 2.084-11.818z"/><path fill="#1DBCBC" fill-rule="nonzero" d="M2914.18 617a7.5 7.5 0 1 0 0-15 7.5 7.5 0 0 0 0 15zm0 4c-6.352 0-11.5-5.149-11.5-11.5s5.148-11.5 11.5-11.5c6.35 0 11.5 5.149 11.5 11.5s-5.15 11.5-11.5 11.5z" opacity=".2"/><path fill="#1DBCBC" opacity=".1" d="M3174.713 268l9.193 7.713-7.713 9.193-9.193-7.713z"/><path fill="#1DBCBC" fill-rule="nonzero" d="M2399.5 443a4.5 4.5 0 1 0 0-9 4.5 4.5 0 0 0 0 9zm0 4a8.5 8.5 0 1 1 0-17 8.5 8.5 0 0 1 0 17zm84-65a4.5 4.5 0 1 0 0-9 4.5 4.5 0 0 0 0 9zm0 4a8.5 8.5 0 1 1 0-17 8.5 8.5 0 0 1 0 17z" opacity=".6"/><path fill="#1DBCBC" opacity=".45" d="M2607 199.66h6.012V193h4.896v6.66h6.012v4.5h-6.012v6.66h-4.896v-6.66H2607z"/><path fill="#1DBCBC" opacity=".6" d="M1997 724.737h3.198V721h2.604v3.737H2006v2.526h-3.198V731h-2.604v-3.737H1997z"/><path fill="#1DBCBC" opacity=".45" d="M2510.957 530.136l6.44 6.44 7.136-7.135 5.246 5.246-7.136 7.135 6.441 6.441-4.82 4.821-6.442-6.44-7.135 7.135-5.246-5.246 7.136-7.135-6.441-6.441z"/><path fill="#1DBCBC" opacity=".6" d="M2295.545 660.099l4.603 4.602 5.099-5.099 3.748 3.749-5.099 5.099 4.603 4.602-3.446 3.446-4.603-4.603-5.099 5.1-3.748-3.75 5.099-5.098-4.603-4.603zM2361.863 708.887l5.314 5.313 5.886-5.887 4.328 4.328-5.887 5.886 5.313 5.314-3.976 3.976-5.314-5.313-5.886 5.886-4.327-4.327 5.886-5.886-5.313-5.314zM1885.762 330.992h-6.311V324h-5.14v6.992H1868v4.724h6.311v6.992h5.14v-6.992h6.311z"/><path fill="#1DBCBC" fill-rule="nonzero" d="M1692.222 501.27l2.068.513.38 1.521-1.583 1.426-3.691-.915 2.826-2.545zm-13.928-3.453l-1.226-.304-1.774 1.597.174 1.251 3.294.817-.468-3.361zm1.978 14.212l9.124-8.214-10.634-2.637 1.51 10.851zM1675 497l20.913 5.185-17.942 16.156L1675 497zm120.222-303.73l2.068.513.38 1.521-1.583 1.426-3.691-.915 2.826-2.545zm-16.754-.909l-.174-1.25 1.774-1.598 1.226.304.468 3.361-3.294-.817zm4.804 11.668l9.124-8.214-10.634-2.637 1.51 10.851zM1778 189l20.913 5.185-17.942 16.156L1778 189z" opacity=".6"/><path fill="#1DBCBC" opacity=".6" d="M1755.815 325.459l6.083 13.864-16.541-2.917z"/><path fill="#1DBCBC" fill-rule="nonzero" d="M1818.923 405.647a4.723 4.723 0 1 0 0-9.446 4.723 4.723 0 0 0 0 9.446zm0 4.2a8.923 8.923 0 0 1-8.923-8.924 8.923 8.923 0 1 1 17.846 0 8.923 8.923 0 0 1-8.923 8.924z" opacity=".6"/><path fill="#1DBCBC" opacity=".6" d="M1703.892 415l-7.892 2.872 2.873 7.893 7.891-2.872z"/><path fill="#1DBCBC" opacity=".45" d="M2553.748 279.098l-8.097 9.65-9.65-8.098 8.097-9.65z"/><path fill="#1DBCBC" fill-rule="nonzero" d="M2231.405 618.852l1.847 1.062-.054 1.568-1.915.934-3.296-1.897 3.418-1.667zm-15.855-5.492l.177-1.25 2.146-1.047 1.095.63-.477 3.36-2.941-1.693zm1.402 12.54l11.035-5.381-9.496-5.466-1.539 10.847zm-.925-15.9l18.674 10.749L2213 631.333l3.027-21.333z" opacity=".6"/><path fill="#1DBCBC" opacity=".45" d="M2570 722.717h8.883V713h7.234v9.717H2595v6.566h-8.883V739h-7.234v-9.717H2570z"/><path fill="#1DBCBC" opacity=".5" d="M597.957 728.136l6.44 6.44 7.136-7.135 5.246 5.246-7.136 7.135 6.441 6.441-4.82 4.821-6.442-6.44-7.135 7.135-5.246-5.246 7.136-7.135-6.441-6.441z"/><path fill="#1DBCBC" fill-rule="nonzero" d="M1390.143 739.129a8 8 0 1 0-10.285-12.257 8 8 0 0 0 10.285 12.257zm2.57 3.064c-5.076 4.26-12.645 3.598-16.905-1.48-4.26-5.076-3.598-12.645 1.479-16.905 5.077-4.26 12.646-3.598 16.906 1.479 4.26 5.077 3.598 12.646-1.48 16.906z" opacity=".6"/><path fill="#1DBCBC" opacity=".6" d="M2172.727 291.136l6.44 6.44 7.136-7.135 5.246 5.246-7.136 7.135 6.441 6.441-4.82 4.821-6.442-6.44-7.135 7.135-5.246-5.246 7.136-7.135-6.441-6.441zM2416 640h6v6h-6z"/><path fill="#1DBCBC" opacity=".2" d="M80.285 674l9.193 7.713-7.713 9.193-9.193-7.713z"/><path fill="#1DBCBC" opacity=".6" d="M1912 685.553l5.795-1.553 1.553 5.795-5.795 1.553z"/><path fill="#1DBCBC" opacity=".2" d="M33 609.737h3.198V606h2.604v3.737H42v2.526h-3.198V616h-2.604v-3.737H33zM124.39 472.099l4.602 4.603 5.1-5.099 3.748 3.748-5.1 5.1 4.603 4.602-3.445 3.446-4.603-4.603-5.099 5.099-3.748-3.748 5.099-5.1-4.604-4.603z"/><path fill="#1DBCBC" opacity=".4" d="M452.286 729.887l5.314 5.313 5.886-5.887 4.328 4.328-5.887 5.886 5.313 5.314-3.976 3.976-5.314-5.313-5.886 5.886-4.327-4.327 5.886-5.886-5.313-5.314z"/><path fill="#1DBCBC" fill-rule="nonzero" d="M1529.405 712.852l1.847 1.062-.054 1.568-1.915.934-3.296-1.897 3.418-1.667zm-15.855-5.492l.177-1.25 2.146-1.047 1.095.63-.477 3.36-2.94-1.693zm1.402 12.54l11.035-5.381-9.496-5.466-1.539 10.847zm-.925-15.9l18.674 10.749L1511 725.333l3.027-21.333z" opacity=".6"/><path fill="#1DBCBC" opacity=".6" d="M1840.104 251.79l8.042-6.749-6.748-8.041-8.042 6.748z"/><path fill="#1DBCBC" fill-rule="nonzero" d="M2089.85 373.775l-7.477 4.672 4.672 7.477 7.478-4.673-4.672-7.476zm9.447 8.579l-13.354 8.344-8.344-13.353 13.354-8.345 8.344 13.354z" opacity=".6"/><path fill="#1DBCBC" fill-rule="nonzero" d="M2795.5 687a7.5 7.5 0 1 0 0-15 7.5 7.5 0 0 0 0 15zm0 4c-6.351 0-11.5-5.149-11.5-11.5s5.149-11.5 11.5-11.5 11.5 5.149 11.5 11.5-5.149 11.5-11.5 11.5z" opacity=".3"/><path fill="#1DBCBC" opacity=".6" d="M2108.514 536.66h6.012V530h4.896v6.66h6.012v4.5h-6.012v6.66h-4.896v-6.66h-6.012z"/><path fill="#1DBCBC" fill-rule="nonzero" d="M808.5 729a7.5 7.5 0 1 0 0 15 7.5 7.5 0 0 0 0-15zm0-4c6.351 0 11.5 5.149 11.5 11.5s-5.149 11.5-11.5 11.5-11.5-5.149-11.5-11.5 5.149-11.5 11.5-11.5zM1015.5 400a4.5 4.5 0 1 0 0 9 4.5 4.5 0 0 0 0-9zm0-4a8.5 8.5 0 1 1 0 17 8.5 8.5 0 0 1 0-17zM1409.92 535a5 5 0 1 0 0 10 5 5 0 0 0 0-10zm0-4a9 9 0 1 1 0 18 9 9 0 0 1 0-18zM1335 322a8 8 0 1 0 0 16 8 8 0 0 0 0-16zm0-4c6.627 0 12 5.373 12 12s-5.373 12-12 12-12-5.373-12-12 5.373-12 12-12zM991 181a4 4 0 1 0 0 8 4 4 0 0 0 0-8zm0-4a8 8 0 1 1 0 16 8 8 0 0 1 0-16zM789 29a4 4 0 1 0 0 8 4 4 0 0 0 0-8zm0-4a8 8 0 1 1 0 16 8 8 0 0 1 0-16z" opacity=".6"/><path fill="#1DBCBC" fill-rule="nonzero" d="M574.5 301a4.5 4.5 0 1 0 0 9 4.5 4.5 0 0 0 0-9zm0-4a8.5 8.5 0 1 1 0 17 8.5 8.5 0 0 1 0-17zM577.5 552a4.5 4.5 0 1 0 0 9 4.5 4.5 0 0 0 0-9zm0-4a8.5 8.5 0 1 1 0 17 8.5 8.5 0 0 1 0-17z" opacity=".5"/><path fill="#CCEFEF" opacity=".6" d="M1164 617.34h-6.012V624h-4.896v-6.66h-6.012v-4.5h6.012v-6.66h4.896v6.66H1164z"/><path fill="#1DBCBC" opacity=".6" d="M1400.92 161.404h-7.817V170h-6.366v-8.596h-7.817v-5.808h7.817V147h6.366v8.596h7.817zM1184.043 70.864l-6.44-6.44-7.136 7.135-5.246-5.246 7.136-7.135-6.441-6.441 4.82-4.821 6.442 6.44 7.135-7.135 5.246 5.246-7.136 7.135 6.441 6.441z"/><path fill="#1DBCBC" opacity=".2" d="M201.043 744.864l-6.44-6.44-7.136 7.135-5.246-5.246 7.136-7.135-6.441-6.441 4.82-4.821 6.442 6.44 7.135-7.135 5.246 5.246-7.136 7.135 6.441 6.441z"/><path fill="#1DBCBC" opacity=".6" d="M1172.043 740.864l-6.44-6.44-7.136 7.135-5.246-5.246 7.136-7.135-6.441-6.441 4.82-4.821 6.442 6.44 7.135-7.135 5.246 5.246-7.136 7.135 6.441 6.441z"/><path fill="#1DBCBC" opacity=".3" d="M268.137 248.113l-5.314-5.313-5.886 5.886-4.327-4.327 5.886-5.886-5.313-5.314 3.976-3.976 5.314 5.313 5.886-5.887 4.328 4.328-5.887 5.886 5.313 5.314z"/><path fill="#1DBCBC" opacity=".6" d="M1470.455 256.9l-4.603-4.603-5.099 5.1-3.748-3.75 5.099-5.098-4.603-4.603 3.446-3.445 4.603 4.602 5.099-5.099 3.748 3.749-5.099 5.099 4.603 4.602zM1040.755 313.9l-4.603-4.602-5.099 5.099-3.749-3.75 5.099-5.098-4.603-4.603 3.446-3.445 4.603 4.602 5.099-5.099 3.749 3.75-5.1 5.098 4.603 4.603z"/><path fill="#1DBCBC" opacity=".5" d="M614.054 431.9l-4.603-4.602-5.099 5.099-3.748-3.748 5.099-5.1-4.603-4.602 3.446-3.446 4.602 4.603 5.1-5.099 3.748 3.748-5.1 5.1 4.603 4.602z"/><path fill="#1DBCBC" opacity=".6" d="M1040 736h-6v-6h6z"/><path fill="#1DBCBC" opacity=".3" d="M280 674h-6v-6h6z"/><path fill="#1DBCBC" opacity=".6" d="M819.287 614l-9.193-7.713 7.713-9.193 9.193 7.713zM1351.287 470l-9.193-7.713 7.713-9.193 9.193 7.713z"/><path fill="#1DBCBC" opacity=".2" d="M188.264 602l-7.518-2.736 2.736-7.518 7.518 2.736z"/><path fill="#1DBCBC" opacity=".4" d="M492.518 374.254L485 371.518l2.736-7.518 7.518 2.736z"/><path fill="#1DBCBC" opacity=".5" d="M658.264 229l-7.518-2.736 2.736-7.518 7.518 2.736z"/><path fill="#1DBCBC" opacity=".6" d="M1289.098 592.098l-5.196-3 3-5.196 5.196 3zM985 555.447L979.205 557l-1.553-5.795 5.795-1.553zM1321 217h6v6h-6zM945.804 242.804l5.196 3-3 5.196-5.196-3zM1422.652 364.205l5.795-1.553 1.553 5.795-5.795 1.553z"/><path fill="#1DBCBC" fill-rule="nonzero" d="M483.17 656.214a5 5 0 1 0 7.66-6.428 5 5 0 0 0-7.66 6.428zm-1.955-10.109a9 9 0 1 1 11.57 13.79 9 9 0 0 1-11.57-13.79z" opacity=".4"/><path fill="#1DBCBC" fill-rule="nonzero" d="M274.858 349.872a8 8 0 1 0 10.284 12.257 8 8 0 0 0-10.284-12.257zm-2.571-3.064c5.076-4.26 12.646-3.598 16.906 1.479 4.26 5.077 3.597 12.646-1.48 16.906-5.076 4.26-12.646 3.598-16.906-1.48-4.26-5.076-3.597-12.645 1.48-16.905z" opacity=".3"/><path fill="#1DBCBC" opacity=".2" d="M254.22 443.371l.567-6.485 7.183.629.462-5.281-7.183-.629.567-6.484-4.853-.424-.568 6.484-7.183-.629-.462 5.281 7.183.629-.567 6.485z"/><path fill="#1DBCBC" opacity=".3" d="M370.15 563.646l2.085-11.818-11.818-2.084-2.084 11.818z"/><path fill="#1DBCBC" opacity=".6" d="M1318.917 702l2.083-11.817-11.817-2.084-2.084 11.818z"/><path fill="#1DBCBC" fill-rule="nonzero" d="M922.5 694a7.5 7.5 0 1 0 0 15 7.5 7.5 0 0 0 0-15zm0-4c6.351 0 11.5 5.149 11.5 11.5s-5.149 11.5-11.5 11.5-11.5-5.149-11.5-11.5 5.149-11.5 11.5-11.5zM1426 631a5 5 0 1 0 0 10 5 5 0 0 0 0-10zm0-4a9 9 0 1 1 0 18 9 9 0 0 1 0-18z" opacity=".6"/><path fill="#1DBCBC" opacity=".6" d="M1164 617.34h-6.012V624h-4.896v-6.66h-6.012v-4.5h6.012v-6.66h4.896v6.66H1164zM1291.263 784.084l-6.44-6.44-7.136 7.135-5.246-5.246 7.136-7.135-6.441-6.441 4.82-4.821 6.442 6.44 7.135-7.135 5.246 5.246-7.136 7.135 6.441 6.441zM1040 736h-6v-6h6zM819.287 614l-9.193-7.713 7.713-9.193 9.193 7.713zM1289.098 592.098l-5.196-3 3-5.196 5.196 3z"/><path fill="#1DBCBC" fill-rule="nonzero" d="M1129.7 244.973a8 8 0 1 0 0 16 8 8 0 0 0 0-16zm0-4c6.628 0 12 5.373 12 12 0 6.628-5.372 12-12 12-6.627 0-12-5.372-12-12 0-6.627 5.373-12 12-12z" opacity=".6"/><path fill="#1DBCBC" opacity=".6" d="M1267.603 143.499l-4.602-4.603-5.1 5.099-3.748-3.748 5.1-5.1-4.603-4.602 3.445-3.446 4.603 4.603 5.099-5.099 3.748 3.748-5.099 5.1 4.603 4.602zM1145.987 392.973l-9.193-7.713 7.713-9.193 9.193 7.713zM1217.352 287.178l5.795-1.553 1.553 5.795-5.795 1.553z"/><path fill="#1DBCBC" fill-rule="nonzero" d="M1216.7 507.973a5 5 0 1 0 0 10 5 5 0 0 0 0-10zm0-4a9 9 0 1 1 0 18 9 9 0 0 1 0-18z" opacity=".6"/><path fill="#1DBCBC" opacity=".6" d="M1083.7 514.973l-5.196-3 3-5.196 5.196 3z"/><path fill="#1DBCBC" fill-rule="nonzero" d="M390.44 241a8 8 0 1 0 0 16 8 8 0 0 0 0-16zm0-4c6.627 0 12 5.373 12 12s-5.373 12-12 12c-6.628 0-12-5.373-12-12s5.372-12 12-12z" opacity=".4"/><path fill="#1DBCBC" opacity=".5" d="M514.053 138.5l-4.603-4.603-5.099 5.099-3.748-3.749 5.099-5.099-4.603-4.602 3.446-3.446 4.603 4.603 5.099-5.1 3.748 3.75-5.099 5.098 4.603 4.603z"/><path fill="#1DBCBC" opacity=".4" d="M406.726 389l-9.193-7.713 7.713-9.193 9.193 7.713zM478.09 283.205l5.796-1.553 1.553 5.795-5.795 1.553z"/><path fill="#1DBCBC" fill-rule="nonzero" d="M477.44 504a5 5 0 1 0 0 10 5 5 0 0 0 0-10zm0-4a9 9 0 1 1 0 18 9 9 0 0 1 0-18z" opacity=".4"/><path fill="#1DBCBC" opacity=".3" d="M355 474l-5.196-3 3-5.196 5.196 3z"/><path fill="#1DBCBC" opacity=".6" d="M985 555.447L979.205 557l-1.553-5.795 5.795-1.553zM1318.917 702l2.083-11.817-11.817-2.084-2.084 11.818z"/><path fill="#1DBCBC" opacity=".5" d="M656.916 599L659 587.183l-11.818-2.084-2.083 11.817z"/><path fill="#1DBCBC" opacity=".2" d="M247.477 528.473l-5.438 2.536 2.536 5.438 5.438-2.536z"/><path fill="#1DBCBC" fill-rule="nonzero" d="M970.5 475a4.5 4.5 0 1 0 0 9 4.5 4.5 0 0 0 0-9zm0-4a8.5 8.5 0 1 1 0 17 8.5 8.5 0 0 1 0-17z" opacity=".6"/><path fill="#1DBCBC" opacity=".6" d="M901 542h-6v-6h6z"/><path fill="#1DBCBC" opacity=".5" d="M682.263 480.908l-7.517-2.736 2.736-7.518L685 473.39z"/><path fill="#1DBCBC" fill-rule="nonzero" d="M721.952 126.966a8 8 0 1 0 10.284 12.256 8 8 0 0 0-10.284-12.256zm-2.571-3.065c5.076-4.26 12.645-3.597 16.906 1.48 4.26 5.076 3.597 12.645-1.48 16.906-5.076 4.26-12.646 3.597-16.906-1.48-4.26-5.076-3.597-12.646 1.48-16.906z" opacity=".5"/><path fill="#1DBCBC" opacity=".5" d="M687.037 335.303l.567-6.484 7.184.628.462-5.28-7.184-.63.568-6.484-4.854-.425-.567 6.485-7.184-.628-.462 5.28 7.184.63-.568 6.483z"/><path fill="#1DBCBC" opacity=".6" d="M1064.916 606l2.084-11.818-11.818-2.084-2.084 11.818z"/><path fill="#1DBCBC" opacity=".5" d="M741.465 407.932l-5.438 2.536 2.535 5.438L744 413.37z"/><path fill="#1DBCBC" opacity=".2" d="M168.652 312.205l5.795-1.553 1.553 5.795-5.795 1.553z"/><path fill="#1DBCBC" opacity=".3" d="M337.043 130.974l-6.44-6.44-7.136 7.135-5.246-5.246 7.136-7.135-6.441-6.441 4.82-4.821 6.442 6.44 7.135-7.135 5.246 5.246-7.136 7.135 6.441 6.441z"/><path fill="#CCEFEF" opacity=".2" d="M205 126.11h-6v-6h6z"/><path fill="#1DBCBC" opacity=".6" d="M832.287 118l-9.193-7.713 7.713-9.193 9.193 7.713z"/><path fill="#1DBCBC" opacity=".5" d="M649 128.447L643.205 130l-1.553-5.795 5.795-1.553zM580.916 688L583 676.182l-11.818-2.083-2.083 11.817z"/><path fill="#1DBCBC" fill-rule="nonzero" d="M1514.5 152a4.5 4.5 0 1 0 0 9 4.5 4.5 0 0 0 0-9zm0-4a8.5 8.5 0 1 1 0 17 8.5 8.5 0 0 1 0-17z" opacity=".6"/><path fill="#1DBCBC" d="M1467.518 55.254L1460 52.518l2.736-7.518 7.518 2.736z"/><path fill="#1DBCBC" opacity=".4" d="M391.542 658.54l-6.083-13.864L402 647.593z"/><ellipse cx="692.652" cy="689.651" fill="#1DBCBC" opacity=".5" transform="matrix(1 0 0 -1 0 1379.302)" rx="7.348" ry="7.349"/><path fill="#1DBCBC" opacity=".2" d="M146.274 413h6.299v-6.299h-6.299zM3.337 320.153l5.455-3.15-3.15-5.455-5.455 3.15z"/><path fill="#1DBCBC" fill-rule="nonzero" d="M104.572 553a5 5 0 1 0 0 10 5 5 0 0 0 0-10zm0-4a9 9 0 1 1 0 18 9 9 0 0 1 0-18z" opacity=".2"/><path fill="#CCEFEF" opacity=".2" d="M29.572 470l-5.196-3 3-5.196 5.196 3z"/><path fill="#1DBCBC" opacity=".2" d="M177.835 221.017l-6.44-6.44-7.136 7.135-5.246-5.246 7.136-7.135-6.441-6.441 4.82-4.821 6.442 6.44 7.135-7.135 5.246 5.246-7.136 7.135 6.441 6.441z"/><path fill="#1DBCBC" opacity=".6" d="M1550 250h-6v-6h6z"/><path fill="#1DBCBC" fill-rule="nonzero" d="M1534.106 73.49a5 5 0 1 0 6.427 7.66 5 5 0 0 0-6.427-7.66zm-2.572-3.065a9 9 0 1 1 11.57 13.789 9 9 0 0 1-11.57-13.789z" opacity=".6"/><path fill="#1DBCBC" opacity=".6" d="M1614.785 177l2.083-11.818-11.817-2.084-2.084 11.817z"/><path fill="#1DBCBC" fill-rule="nonzero" d="M61.072 393a7.5 7.5 0 1 0 0 15 7.5 7.5 0 0 0 0-15zm0-4c6.351 0 11.5 5.149 11.5 11.5s-5.149 11.5-11.5 11.5-11.5-5.149-11.5-11.5 5.149-11.5 11.5-11.5z" opacity=".2"/><path fill="#1DBCBC" opacity=".2" d="M61.079 215.153l-9.193-7.713 7.713-9.193 9.193 7.713z"/><path fill="#1DBCBC" fill-rule="nonzero" d="M938.5 330a4.5 4.5 0 1 0 0 9 4.5 4.5 0 0 0 0-9zm0-4a8.5 8.5 0 1 1 0 17 8.5 8.5 0 0 1 0-17zM854.5 391a4.5 4.5 0 1 0 0 9 4.5 4.5 0 0 0 0-9zm0-4a8.5 8.5 0 1 1 0 17 8.5 8.5 0 0 1 0-17z" opacity=".6"/><path fill="#1DBCBC" opacity=".5" d="M731 573.34h-6.012V580h-4.896v-6.66h-6.012v-4.5h6.012v-6.66h4.896v6.66H731z"/><path fill="#1DBCBC" opacity=".6" d="M1367.094 63.283h-8.883V73h-7.234v-9.717h-8.883v-6.566h8.883V47h7.234v9.717h8.883zM827.043 242.864l-6.44-6.44-7.136 7.135-5.246-5.246 7.136-7.135-6.441-6.441 4.82-4.821 6.442 6.44 7.135-7.135 5.246 5.246-7.136 7.135 6.441 6.441z"/><path fill="#1DBCBC" fill-rule="nonzero" d="M168.947 4.35a4 4 0 1 0 0 8 4 4 0 0 0 0-8zm0-4a8 8 0 1 1 0 16 8 8 0 0 1 0-16z" opacity=".2"/><path fill="#1DBCBC" opacity=".2" d="M219 137.847l-4.602-4.603-5.099 5.099-3.748-3.748 5.099-5.1-4.604-4.603 3.445-3.445 4.604 4.604 5.099-5.1 3.748 3.75-5.099 5.098 4.603 4.603zM123.947 66.349l5.196 3-3 5.196-5.196-3z"/><path fill="#1DBCBC" fill-rule="nonzero" d="M481.627 51a4.5 4.5 0 1 0 0 9 4.5 4.5 0 0 0 0-9zm0-4a8.5 8.5 0 1 1 0 17 8.5 8.5 0 0 1 0-17z" opacity=".4"/><path fill="#1DBCBC" opacity=".3" d="M337.043 54.084l-6.44-6.44-7.136 7.135-5.246-5.246 7.136-7.135-6.441-6.441 4.82-4.821 6.442 6.44 7.135-7.135 5.246 5.246-7.136 7.135 6.441 6.441z"/><path fill="#1DBCBC" opacity=".6" d="M1042.455 112.9l-4.603-4.603-5.099 5.1-3.748-3.75 5.099-5.098-4.603-4.603 3.446-3.445 4.603 4.602 5.099-5.099 3.748 3.749-5.099 5.099 4.603 4.602zM976.137 64.113l-5.314-5.313-5.886 5.886-4.327-4.327 5.886-5.886-5.313-5.314 3.976-3.976 5.314 5.313 5.886-5.887 4.328 4.328-5.887 5.886 5.313 5.314zM1466 451.716h6.311v6.992h5.14v-6.992h6.311v-4.724h-6.311V440h-5.14v6.992H1466z"/><path fill="#1DBCBC" fill-rule="nonzero" d="M1645.777 271.73l-2.068-.512-.38-1.521 1.583-1.426 3.691.915-2.826 2.545zm13.928 3.454l1.226.304 1.775-1.598-.175-1.25-3.294-.817.468 3.361zm-1.978-14.213l-9.124 8.215 10.634 2.637-1.51-10.852zm5.272 15.03l-20.913-5.185 17.943-16.156 2.97 21.34zM1566.692 625.07l-2.068-.513-.38-1.521 1.583-1.426 3.691.915-2.826 2.545zm16.754.909l.174 1.25-1.774 1.598-1.226-.304-.468-3.361 3.294.817zm-4.804-11.668l-9.124 8.214 10.634 2.637-1.51-10.851zm5.272 15.029l-20.913-5.185 17.942-16.156 2.971 21.341z" opacity=".6"/><path fill="#1DBCBC" opacity=".6" d="M1582.187 447.54l-6.083-13.863 16.541 2.916z"/><path fill="#1DBCBC" fill-rule="nonzero" d="M1519.077 367.354a4.723 4.723 0 1 0 0 9.446 4.723 4.723 0 0 0 0-9.446zm0-4.2a8.923 8.923 0 0 1 8.923 8.923 8.923 8.923 0 1 1-17.846 0 8.923 8.923 0 0 1 8.923-8.923z" opacity=".6"/><path fill="#1DBCBC" opacity=".6" d="M1634.108 358l7.892-2.873-2.873-7.892-7.891 2.872zM784.252 493.902l8.098-9.65 9.65 8.098-8.097 9.65z"/><path fill="#1DBCBC" fill-rule="nonzero" d="M1106.596 154.15l-1.847-1.064.054-1.567 1.915-.934 3.296 1.897-3.418 1.667zm15.855 5.49l-.178 1.251-2.146 1.047-1.094-.63.476-3.36 2.942 1.693zm-1.403-12.54l-11.034 5.382 9.495 5.466 1.54-10.848zm.926 15.9l-18.674-10.748 21.7-10.584-3.026 21.333z" opacity=".6"/><path fill="#1DBCBC" fill-rule="nonzero" d="M479 194.7a4 4 0 1 0 0 8 4 4 0 0 0 0-8zm0-4a8 8 0 1 1 0 16 8 8 0 0 1 0-16z" opacity=".4"/><path fill="#1DBCBC" opacity=".4" d="M416.34 155l5.197 3-3 5.196-5.196-3z"/><path fill="#1DBCBC" fill-rule="nonzero" d="M583 167.9a8 8 0 1 0 0 16 8 8 0 0 0 0-16zm0-4c6.627 0 12 5.373 12 12 0 6.628-5.373 12-12 12s-12-5.372-12-12c0-6.627 5.373-12 12-12zM576.636 66.48l-1.846-1.062.053-1.568 1.915-.934 3.296 1.897-3.418 1.667zm15.855 5.492l-.177 1.25-2.146 1.047-1.095-.63.477-3.36 2.941 1.693zm-1.402-12.54l-11.035 5.381 9.496 5.466 1.539-10.847zm.925 15.9L573.34 64.583 595.041 54l-3.027 21.333z" opacity=".5"/><path fill="#1DBCBC" opacity=".6" d="M1531.042 519l-8.042 6.748 6.748 8.042 8.042-6.748z"/><path fill="#1DBCBC" fill-rule="nonzero" d="M1248.15 399.224l7.477-4.673-4.672-7.476-7.478 4.672 4.672 7.477zm-9.447-8.58l13.354-8.344 8.344 13.354-13.354 8.344-8.344-13.353zM1136.794 446a7.5 7.5 0 1 0 0 15 7.5 7.5 0 0 0 0-15zm0-4c6.351 0 11.5 5.149 11.5 11.5s-5.149 11.5-11.5 11.5-11.5-5.149-11.5-11.5 5.149-11.5 11.5-11.5zM869.5 991a4.5 4.5 0 1 0 0 9 4.5 4.5 0 0 0 0-9zm0-4a8.5 8.5 0 1 1 0 17 8.5 8.5 0 0 1 0-17zM1189 913a8 8 0 1 0 0 16 8 8 0 0 0 0-16zm0-4c6.627 0 12 5.373 12 12s-5.373 12-12 12-12-5.373-12-12 5.373-12 12-12z" opacity=".6"/><path fill="#1DBCBC" fill-rule="nonzero" d="M423.5 939a4.5 4.5 0 1 0 0 9 4.5 4.5 0 0 0 0-9zm0-4a8.5 8.5 0 1 1 0 17 8.5 8.5 0 0 1 0-17z" opacity=".3"/><path fill="#1DBCBC" opacity=".1" d="M122.137 839.113l-5.314-5.313-5.886 5.886-4.327-4.327 5.886-5.886-5.313-5.314 3.976-3.976 5.314 5.313 5.886-5.887 4.328 4.328-5.887 5.886 5.313 5.314z"/><path fill="#1DBCBC" opacity=".6" d="M1324.455 847.9l-4.603-4.603-5.099 5.1-3.748-3.75 5.099-5.098-4.603-4.603 3.446-3.445 4.603 4.602 5.099-5.099 3.748 3.749-5.099 5.099 4.603 4.602zM894.755 904.9l-4.603-4.602-5.099 5.099-3.749-3.75 5.099-5.098-4.603-4.603 3.446-3.445 4.603 4.602 5.099-5.099 3.749 3.75-5.1 5.098 4.603 4.603z"/><path fill="#1DBCBC" opacity=".4" d="M468.054 1022.9l-4.603-4.602-5.099 5.099-3.748-3.748 5.099-5.1-4.603-4.602 3.446-3.446 4.602 4.603 5.1-5.099 3.748 3.748-5.1 5.1 4.603 4.602z"/><path fill="#1DBCBC" opacity=".6" d="M1597.678 776.282l-9.193-7.713 7.713-9.193 9.193 7.713z"/><path fill="#1DBCBC" opacity=".3" d="M343.264 953l-7.518-2.736 2.736-7.518 7.518 2.736z"/><path fill="#1DBCBC" opacity=".4" d="M512.264 820l-7.518-2.736 2.736-7.518 7.518 2.736z"/><path fill="#1DBCBC" opacity=".6" d="M1175 808h6v6h-6zM799.804 833.804l5.196 3-3 5.196-5.196-3zM1276.652 955.205l5.795-1.553 1.553 5.795-5.795 1.553z"/><path fill="#1DBCBC" fill-rule="nonzero" d="M128.858 940.872a8 8 0 1 0 10.284 12.257 8 8 0 0 0-10.284-12.257zm-2.571-3.064c5.076-4.26 12.646-3.598 16.906 1.479 4.26 5.077 3.597 12.646-1.48 16.906-5.076 4.26-12.646 3.598-16.906-1.48-4.26-5.076-3.597-12.645 1.48-16.905z" opacity=".1"/><path fill="#1DBCBC" opacity=".1" d="M108.22 1034.372l.567-6.485 7.184.628.462-5.28-7.184-.629.568-6.484-4.854-.425-.567 6.484-7.184-.628-.462 5.28 7.184.63-.567 6.485z"/><path fill="#1DBCBC" opacity=".3" d="M333.916 1069l2.084-11.818-11.818-2.083-2.083 11.817z"/><path fill="#1DBCBC" fill-rule="nonzero" d="M983.7 835.973a8 8 0 1 0 0 16 8 8 0 0 0 0-16zm0-4c6.628 0 12 5.373 12 12 0 6.628-5.372 12-12 12-6.627 0-12-5.372-12-12 0-6.627 5.373-12 12-12z" opacity=".6"/><path fill="#1DBCBC" opacity=".6" d="M999.987 983.973l-9.193-7.713 7.713-9.193 9.193 7.713zM1075.652 874.205l5.795-1.553 1.553 5.795-5.795 1.553z"/><path fill="#1DBCBC" fill-rule="nonzero" d="M244.44 832a8 8 0 1 0 0 16 8 8 0 0 0 0-16zm0-4c6.627 0 12 5.373 12 12s-5.373 12-12 12c-6.628 0-12-5.373-12-12s5.372-12 12-12z" opacity=".2"/><path fill="#1DBCBC" opacity=".2" d="M260.726 980l-9.193-7.713 7.713-9.193 9.193 7.713z"/><path fill="#1DBCBC" opacity=".3" d="M415.652 836.205l5.795-1.553 1.553 5.795-5.795 1.553z"/><path fill="#1DBCBC" opacity=".2" d="M209 1065l-5.196-3 3-5.196 5.196 3z"/><path fill="#1DBCBC" fill-rule="nonzero" d="M1461.5 770a4.5 4.5 0 1 0 0 9 4.5 4.5 0 0 0 0-9zm0-4a8.5 8.5 0 1 1 0 17 8.5 8.5 0 0 1 0-17z" opacity=".6"/><path fill="#1DBCBC" opacity=".45" d="M536.263 1071.908l-7.517-2.736 2.736-7.518 7.518 2.736zM574.22 916.278l.567-6.485 7.184.628.462-5.28-7.184-.629.568-6.484-4.854-.425-.567 6.484-7.184-.628-.462 5.28 7.184.63-.567 6.484zM595.464 998.932l-5.438 2.536 2.536 5.438 5.438-2.536z"/><path fill="#1DBCBC" opacity=".1" d="M22.652 903.205l5.795-1.553L30 907.447 24.205 909zM.274 1004h6.299v-6.299H.274z"/><path fill="#1DBCBC" d="M691.546 908l5.455-3.15-3.15-5.455-5.455 3.15z"/><path fill="#1DBCBC" opacity=".3" d="M323 852l-5.196-3 3-5.196 5.196 3z"/><path fill="#1DBCBC" opacity=".1" d="M31.835 812.017l-6.44-6.44-7.136 7.135-5.246-5.246 7.136-7.135-6.441-6.441 4.82-4.821 6.442 6.44 7.135-7.135 5.246 5.246-7.136 7.135 6.441 6.441z"/><path fill="#1DBCBC" opacity=".6" d="M1404 841h-6v-6h6z"/><path fill="#1DBCBC" fill-rule="nonzero" d="M792.5 921a4.5 4.5 0 1 0 0 9 4.5 4.5 0 0 0 0-9zm0-4a8.5 8.5 0 1 1 0 17 8.5 8.5 0 0 1 0-17zM708.5 982a4.5 4.5 0 1 0 0 9 4.5 4.5 0 0 0 0-9zm0-4a8.5 8.5 0 1 1 0 17 8.5 8.5 0 0 1 0-17z" opacity=".6"/><path fill="#1DBCBC" opacity=".45" d="M681.043 833.864l-6.44-6.44-7.136 7.135-5.246-5.246 7.136-7.135-6.441-6.441 4.82-4.821 6.442 6.44 7.135-7.135 5.246 5.246-7.136 7.135 6.441 6.441z"/><path fill="#1DBCBC" opacity=".6" d="M1725.238 770.008h6.311V777h5.14v-6.992H1743v-4.724h-6.311v-6.992h-5.14v6.992h-6.311z"/><path fill="#1DBCBC" fill-rule="nonzero" d="M1499.777 862.73l-2.068-.512-.38-1.521 1.583-1.426 3.691.915-2.826 2.545zm13.928 3.454l1.226.304 1.775-1.598-.175-1.25-3.294-.817.468 3.361zm-1.978-14.213l-9.124 8.215 10.634 2.637-1.51-10.852zm5.272 15.03l-20.913-5.185 17.943-16.156 2.97 21.34z" opacity=".6"/><path fill="#1DBCBC" opacity=".6" d="M1880.616 778.75l-6.083-13.865 16.541 2.917z"/><path fill="#1DBCBC" fill-rule="nonzero" d="M1373.077 958.354a4.723 4.723 0 1 0 0 9.446 4.723 4.723 0 0 0 0-9.446zm0-4.2a8.923 8.923 0 0 1 8.923 8.923 8.923 8.923 0 1 1-17.846 0 8.923 8.923 0 0 1 8.923-8.923z" opacity=".6"/><path fill="#1DBCBC" opacity=".6" d="M1488.108 949l7.892-2.873-2.873-7.892-7.891 2.872z"/><path fill="#1DBCBC" opacity=".45" d="M904.066 805.905l8.098-9.65 9.65 8.098-8.097 9.65z"/><path fill="#1DBCBC" opacity=".6" d="M994.274 653.849l-6.441-6.441-7.136 7.135-5.246-5.246 7.136-7.135-6.441-6.441 4.82-4.821 6.442 6.44 7.135-7.135 5.246 5.246-7.135 7.136 6.44 6.44z"/><path fill="#1DBCBC" opacity=".2" d="M3007.455 901.199l-4.603-4.603-5.099 5.1-3.748-3.75 5.099-5.098-4.603-4.603 3.445-3.445 4.603 4.603 5.099-5.099 3.748 3.748-5.099 5.1 4.603 4.602z"/><path fill="#1DBCBC" fill-rule="nonzero" d="M1102.15 990.224l7.477-4.673-4.672-7.476-7.478 4.672 4.672 7.477zm-9.447-8.58l13.354-8.344 8.344 13.354-13.354 8.344-8.344-13.353z" opacity=".6"/><path fill="#1DBCBC" opacity=".6" d="M1083.486 827.34h-6.012V834h-4.896v-6.66h-6.012v-4.5h6.012v-6.66h4.896v6.66h6.012z"/><path fill="#1DBCBC" fill-rule="nonzero" d="M2176.5 964a4.5 4.5 0 1 0 0-9 4.5 4.5 0 0 0 0 9zm0 4a8.5 8.5 0 1 1 0-17 8.5 8.5 0 0 1 0 17zM1822 840a5 5 0 1 0 0-10 5 5 0 0 0 0 10zm0 4a9 9 0 1 1 0-18 9 9 0 0 1 0 18zm236-45a8 8 0 1 0 0-16 8 8 0 0 0 0 16zm0 4c-6.627 0-12-5.373-12-12s5.373-12 12-12 12 5.373 12 12-5.373 12-12 12z" opacity=".6"/><path fill="#1DBCBC" fill-rule="nonzero" d="M2708.5 759a4.5 4.5 0 1 0 0-9 4.5 4.5 0 0 0 0 9zm0 4a8.5 8.5 0 1 1 0-17 8.5 8.5 0 0 1 0 17zm-91 85a4.5 4.5 0 1 0 0-9 4.5 4.5 0 0 0 0 9zm0 4a8.5 8.5 0 1 1 0-17 8.5 8.5 0 0 1 0 17z" opacity=".5"/><path fill="#1DBCBC" opacity=".6" d="M2294.337 882.567l4.604 4.604 5.099-5.1 3.748 3.75-5.099 5.098 4.603 4.603-3.445 3.445-4.603-4.603-5.099 5.099-3.748-3.748 5.099-5.1-4.604-4.603z"/><path fill="#1DBCBC" opacity=".5" d="M2577.948 932.1l4.602 4.602 5.1-5.099 3.748 3.748-5.1 5.1 4.603 4.602-3.445 3.446-4.603-4.603-5.099 5.099-3.748-3.748 5.099-5.1-4.603-4.602z"/><path fill="#1DBCBC" opacity=".6" d="M1840.713 894l9.193 7.713-7.713 9.193-9.193-7.713z"/><path fill="#1DBCBC" opacity=".4" d="M2681.65 939.992l7.518 2.736-2.736 7.518-7.518-2.736z"/><path fill="#1DBCBC" opacity=".6" d="M2207 808.553l5.795-1.553 1.553 5.795-5.795 1.553zM1769.348 999.795l-5.795 1.553-1.553-5.795 5.795-1.553z"/><path fill="#1DBCBC" fill-rule="nonzero" d="M2895.142 872.128a8 8 0 1 0-10.285-12.257 8 8 0 0 0 10.285 12.257zm2.571 3.064c-5.077 4.26-12.646 3.598-16.906-1.479-4.26-5.077-3.598-12.646 1.48-16.906 5.076-4.26 12.645-3.598 16.905 1.48 4.26 5.076 3.598 12.645-1.479 16.905z" opacity=".3"/><path fill="#1DBCBC" opacity=".2" d="M2937.78 920.629l-.567 6.484-7.183-.629-.462 5.281 7.183.629-.567 6.485 4.853.424.568-6.485 7.183.629.462-5.281-7.183-.629.567-6.484z"/><path fill="#1DBCBC" opacity=".3" d="M2821.85 800.354l-2.084 11.818 11.818 2.084 2.084-11.818z"/><path fill="#1DBCBC" opacity=".6" d="M2046.013 971.027l9.193 7.713-7.713 9.193-9.193-7.713zM2270.09 753.225l-5.796 1.553-1.553-5.795 5.795-1.553z"/><path fill="#1DBCBC" fill-rule="nonzero" d="M1975.3 856.027a5 5 0 1 0 0-10 5 5 0 0 0 0 10zm0 4a9 9 0 1 1 0-18 9 9 0 0 1 0 18z" opacity=".6"/><path fill="#1DBCBC" opacity=".6" d="M2108.3 849.027l5.196 3-3 5.196-5.196-3z"/><path fill="#1DBCBC" opacity=".4" d="M2596.538 621.672l9.193 7.713-7.713 9.193-9.193-7.713zM2788.158 957.623l-5.795 1.553-1.553-5.795 5.795-1.553z"/><path fill="#1DBCBC" fill-rule="nonzero" d="M2714.561 860a5 5 0 1 0 0-10 5 5 0 0 0 0 10zm0 4a9 9 0 1 1 0-18 9 9 0 0 1 0 18z" opacity=".4"/><path fill="#1DBCBC" opacity=".3" d="M2837 890l5.196 3-3 5.196-5.196-3z"/><path fill="#1DBCBC" opacity=".6" d="M2207 808.553l5.795-1.553 1.553 5.795-5.795 1.553z"/><path fill="#1DBCBC" opacity=".2" d="M2944.522 835.526l5.438-2.536-2.536-5.437-5.438 2.535z"/><path fill="#1DBCBC" fill-rule="nonzero" d="M2221.5 889a4.5 4.5 0 1 0 0-9 4.5 4.5 0 0 0 0 9zm0 4a8.5 8.5 0 1 1 0-17 8.5 8.5 0 0 1 0 17z" opacity=".6"/><path fill="#1DBCBC" opacity=".6" d="M2291 822h6v6h-6z"/><path fill="#1DBCBC" opacity=".5" d="M2509.736 883.094l7.518 2.736-2.737 7.518-7.517-2.736zM2541.673 799.629l-.567 6.484-7.183-.629-.462 5.281 7.183.629-.567 6.485 4.854.425.568-6.486 7.183.629.462-5.281-7.183-.628.567-6.485zM2450.536 956.067l5.438-2.535-2.536-5.438-5.438 2.536z"/><path fill="#1DBCBC" opacity=".2" d="M3131.778 828.514l-5.795 1.553-1.553-5.795 5.795-1.553zM3046 713.701h-6.299V720H3046zM3080.952 858.35l-5.455 3.15 3.15 5.455 5.455-3.15z"/><path fill="#1DBCBC" fill-rule="nonzero" d="M3013 798a5 5 0 1 0 0-10 5 5 0 0 0 0 10zm0 4a9 9 0 1 1 0-18 9 9 0 0 1 0 18z" opacity=".2"/><path fill="#CCEFEF" opacity=".2" d="M3162.428 894l5.196 3-3 5.196-5.196-3z"/><path fill="#1DBCBC" fill-rule="nonzero" d="M2883.5 751a7.5 7.5 0 1 0 0-15 7.5 7.5 0 0 0 0 15zm0 4c-6.351 0-11.5-5.149-11.5-11.5s5.149-11.5 11.5-11.5 11.5 5.149 11.5 11.5-5.149 11.5-11.5 11.5z" opacity=".2"/><path fill="#1DBCBC" fill-rule="nonzero" d="M2461.5 794a4.5 4.5 0 1 0 0-9 4.5 4.5 0 0 0 0 9zm0 4a8.5 8.5 0 1 1 0-17 8.5 8.5 0 0 1 0 17zm-124 175a4.5 4.5 0 1 0 0-9 4.5 4.5 0 0 0 0 9zm0 4a8.5 8.5 0 1 1 0-17 8.5 8.5 0 0 1 0 17z" opacity=".6"/><path fill="#1DBCBC" opacity=".6" d="M1726 912.284h-6.311v-6.992h-5.14v6.992h-6.311v4.724h6.311V924h5.14v-6.992H1726zM1609.815 916.459l6.083 13.864-16.541-2.917z"/><path fill="#1DBCBC" fill-rule="nonzero" d="M1672.923 996.647a4.723 4.723 0 1 0 0-9.446 4.723 4.723 0 0 0 0 9.446zm0 4.2a8.923 8.923 0 0 1-8.923-8.924 8.923 8.923 0 1 1 17.846 0 8.923 8.923 0 0 1-8.923 8.924z" opacity=".6"/><path fill="#1DBCBC" opacity=".6" d="M1557.892 1006l-7.892 2.872 2.873 7.893 7.891-2.872zM2407.748 870.098l-8.097 9.65-9.65-8.098 8.097-9.65zM1660.958 845l8.042-6.748-6.748-8.042-8.042 6.748z"/><path fill="#1DBCBC" fill-rule="nonzero" d="M1943.85 964.775l-7.477 4.672 4.672 7.477 7.478-4.673-4.672-7.476zm9.447 8.579l-13.354 8.344-8.344-13.353 13.354-8.345 8.344 13.354zM2055.207 918a7.5 7.5 0 1 0 0-15 7.5 7.5 0 0 0 0 15zm0 4c-6.352 0-11.5-5.149-11.5-11.5s5.148-11.5 11.5-11.5c6.35 0 11.5 5.149 11.5 11.5s-5.15 11.5-11.5 11.5z" opacity=".6"/><path fill="#1DBCBC" opacity=".6" d="M1220.92 199.16h-6.012v6.66h-4.896v-6.66H1204v-4.5h6.012V188h4.896v6.66h6.012z"/><path fill="#1DBCBC" fill-rule="nonzero" d="M1709.76 138.5a8 8 0 1 0 0 16 8 8 0 0 0 0-16zm0-4c6.628 0 12 5.373 12 12s-5.372 12-12 12c-6.627 0-12-5.373-12-12s5.373-12 12-12zM1687.056 47.98l-1.847-1.062.054-1.568 1.915-.934 3.296 1.897-3.418 1.667zm15.854 5.492l-.177 1.25-2.146 1.047-1.095-.63.477-3.36 2.941 1.693zm-1.402-12.54l-11.034 5.381 9.495 5.466 1.54-10.847zm.926 15.9l-18.674-10.749 21.7-10.584-3.026 21.333z" opacity=".6"/><path fill="#1DBCBC" opacity=".6" d="M1800.681 92.66h-6.012v6.66h-4.896v-6.66h-6.012v-4.5h6.012V81.5h4.896v6.66h6.012z"/></g></svg>