<svg xmlns="http://www.w3.org/2000/svg" width="5000" height="547"><g fill="none" fill-rule="evenodd"><path fill="#E3D8F3" d="M3043.96 546.51S2788.347 535.451 2547.826 399c-145.89-89.741-194.48-136.54-336.643-159.27-31.84-6.596-64.606-10.047-97.203-9.707-32.597-.34-65.364 3.111-97.203 9.706-142.163 22.731-190.752 69.53-336.642 159.271C1439.613 535.451 1184 546.51 1184 546.51h1859.96z" style="mix-blend-mode:multiply" opacity=".3"/><path fill="#CCEFEF" d="M3527.953 546.187S3221.216 532.903 2932.59 369c-175.068-107.796-233.376-164.01-403.971-191.313-38.207-7.922-77.527-12.068-116.644-11.66-39.116-.408-78.436 3.738-116.643 11.66C2124.737 204.99 2066.43 261.204 1891.362 369 1602.736 532.903 1296 546.187 1296 546.187h2231.953z" style="mix-blend-mode:multiply" opacity=".3"/><path fill="#FFBD8F" d="M4196.948 546.037S3828.92 530.103 3482.62 333.5c-210.05-129.302-280.01-196.73-484.694-229.482-45.842-9.502-93.02-14.475-139.952-13.985-46.932-.49-94.11 4.483-139.952 13.985-204.684 32.752-274.643 100.18-484.693 229.482C1887.029 530.103 1519 546.037 1519 546.037h2677.948z" style="mix-blend-mode:multiply" opacity=".3"/><path fill="#9E7DD8" d="M4999.735 546.87S4558.073 527.761 4142.488 292C3890.412 136.944 3806.456 56.085 3560.82 16.81 3505.806 5.415 3449.19-.548 3392.868.04c-56.323-.588-112.94 5.375-167.953 16.77C2979.28 56.086 2895.323 136.944 2643.247 292 2227.662 527.762 1786 546.87 1786 546.87h3213.735z" style="mix-blend-mode:multiply" opacity=".3"/><path fill="#FFF" d="M0 533h9v10H0z"/></g></svg>