<svg xmlns="http://www.w3.org/2000/svg" width="2488" height="686" viewBox="0 0 2488 686">
  <g fill="none" fill-rule="evenodd" opacity=".45">
    <polygon fill="#9E7DD8" points="939.929 371.869 946.24 371.869 946.24 364.877 951.38 364.877 951.38 371.869 957.691 371.869 957.691 376.593 951.38 376.593 951.38 383.585 946.24 383.585 946.24 376.593 939.929 376.593" opacity=".796" transform="rotate(6 948.81 374.231)"/>
    <polygon fill="#9E7DD8" points="566.846 216.869 573.157 216.869 573.157 209.877 578.297 209.877 578.297 216.869 584.608 216.869 584.608 221.593 578.297 221.593 578.297 228.585 573.157 228.585 573.157 221.593 566.846 221.593" transform="rotate(6 575.727 219.231)"/>
    <polygon fill="#9E7DD8" points="1103.026 508.797 1112.589 508.797 1112.589 498.204 1120.376 498.204 1120.376 508.797 1129.938 508.797 1129.938 515.955 1120.376 515.955 1120.376 526.549 1112.589 526.549 1112.589 515.955 1103.026 515.955" transform="rotate(51 1116.482 512.376)"/>
    <rect width="6.299" height="6.299" x="751.25" y="222.25" fill="#9E7DD8" opacity=".796" transform="rotate(36 754.399 225.4)"/>
    <rect width="12.597" height="12.598" x="1139.424" y="392.424" fill="#1DBCBC" opacity=".6" transform="scale(-1 1) rotate(86 0 -829.915)"/>
    <ellipse cx="1067.845" cy="453.846" stroke="#1DBCBC" stroke-width="4.2" opacity=".796" transform="rotate(6 1067.845 453.846)" rx="10.497" ry="10.498"/>
    <polygon fill="#9E7DD8" points="641.151 567.369 647.984 567.369 647.984 559.799 653.549 559.799 653.549 567.369 660.382 567.369 660.382 572.484 653.549 572.484 653.549 580.054 647.984 580.054 647.984 572.484 641.151 572.484" opacity=".796" transform="rotate(51 650.766 569.926)"/>
    <polygon fill="#9E7DD8" points="939.306 547.289 946.14 547.289 946.14 539.719 951.704 539.719 951.704 547.289 958.538 547.289 958.538 552.404 951.704 552.404 951.704 559.974 946.14 559.974 946.14 552.404 939.306 552.404" opacity=".796" transform="rotate(51 948.922 549.846)"/>
    <rect width="10.498" height="10.498" x="1708.173" y="521.173" fill="#1DBCBC" opacity=".796" transform="rotate(46 1713.422 526.422)"/>
    <rect width="12.281" height="12.282" x="1348.911" y="402.884" stroke="#9E7DD8" stroke-width="3.465" opacity=".796" transform="rotate(128 1355.052 409.025)"/>
    <path stroke="#1DBCBC" stroke-width="3.15" d="M1314.01169,454.202685 L1323.11701,467.66359 L1304.90637,467.66359 L1314.01169,454.202685 Z" transform="scale(-1 1) rotate(36 0 -3583.797)"/>
    <polygon fill="#9E7DD8" points="574.262 501.099 582.66 513.697 565.864 513.697" transform="scale(-1 1) rotate(16 0 -3578.69)"/>
    <path stroke="#1DBCBC" stroke-width="3.15" d="M527.011693,561.202685 L536.117014,574.66359 L517.906371,574.66359 L527.011693,561.202685 Z" transform="scale(-1 1) rotate(-36 0 2189.29)"/>
    <polygon fill="#1DBCBC" points="1357.809 574.071 1366.207 586.669 1349.411 586.669" transform="scale(-1 1) rotate(16 0 -9080.943)"/>
    <polygon fill="#1DBCBC" points="568.809 434.071 577.207 446.669 560.411 446.669" transform="scale(-1 1) rotate(16 0 -3606.916)"/>
    <path stroke="#9E7DD8" stroke-width="3.15" d="M495.011693,404.202685 L504.117014,417.66359 L485.906371,417.66359 L495.011693,404.202685 Z" transform="scale(-1 1) rotate(-36 0 1933.804)"/>
    <polygon fill="#1DBCBC" points="591.428 286.071 599.826 298.669 583.029 298.669" transform="scale(-1 1) rotate(16 0 -3915.856)"/>
    <polygon fill="#1DBCBC" points="1303.809 646.071 1312.207 658.669 1295.411 658.669" transform="scale(-1 1) rotate(16 0 -8624.713)"/>
    <path stroke="#9E7DD8" stroke-width="3.15" d="M668.303428,451.187396 L677.40875,464.6483 L659.198106,464.6483 L668.303428,451.187396 Z" transform="scale(-1 1) rotate(-36 0 2514.126)"/>
    <rect width="12.597" height="12.598" x="1205.608" y="670.607" fill="#1DBCBC" opacity=".796" transform="rotate(46 1211.906 676.906)"/>
    <rect width="6.299" height="6.299" x="1943.454" y="594.454" fill="#9E7DD8" opacity=".796" transform="rotate(171 1946.603 597.603)"/>
    <polygon fill="#9E7DD8" points="1441 503.986 1451.071 503.986 1451.071 493 1459.272 493 1459.272 503.986 1469.343 503.986 1469.343 511.409 1459.272 511.409 1459.272 522.395 1451.071 522.395 1451.071 511.409 1441 511.409" opacity=".796"/>
    <polygon fill="#9E7DD8" points="1157.889 449.917 1165.722 449.917 1165.722 441.285 1172.101 441.285 1172.101 449.917 1179.934 449.917 1179.934 455.75 1172.101 455.75 1172.101 464.381 1165.722 464.381 1165.722 455.75 1157.889 455.75" opacity=".796" transform="rotate(51 1168.911 452.833)"/>
    <ellipse cx="1611.807" cy="605.807" stroke="#1DBCBC" stroke-width="4.2" opacity=".796" transform="rotate(6 1611.807 605.807)" rx="6.823" ry="6.823"/>
    <ellipse cx="799.417" cy="327.31" stroke="#1DBCBC" stroke-width="4.2" opacity=".796" transform="rotate(6 799.417 327.31)" rx="6.823" ry="6.823"/>
    <ellipse cx="639.807" cy="205.807" stroke="#1DBCBC" stroke-width="4.2" opacity=".796" transform="rotate(6 639.807 205.807)" rx="6.823" ry="6.823"/>
    <ellipse cx="1370.807" cy="495.807" stroke="#1DBCBC" stroke-width="4.2" opacity=".796" transform="rotate(6 1370.807 495.807)" rx="6.823" ry="6.823"/>
    <ellipse cx="506.076" cy="490.077" fill="#1DBCBC" opacity=".796" transform="rotate(6 506.076 490.077)" rx="7.348" ry="7.349"/>
    <rect width="6.299" height="6.299" x="1527.454" y="618.454" fill="#1DBCBC" opacity=".796" transform="rotate(-9 1530.603 621.603)"/>
    <rect width="8.398" height="8.399" x="1474.864" y="659.893" fill="#9E7DD8" opacity=".796" transform="rotate(26 1479.063 664.092)"/>
    <ellipse cx="1526.999" cy="476.384" stroke="#1DBCBC" stroke-width="4.2" opacity=".8" transform="scale(1 -1) rotate(-84 997.922 0)" rx="7.348" ry="7.348"/>
    <polygon fill="#9E7DD8" points="1665.809 554.071 1674.207 566.669 1657.411 566.669" transform="scale(-1 1) rotate(16 0 -11292.477)"/>
    <polygon fill="#1DBCBC" points="1906.809 586.071 1915.207 598.669 1898.411 598.669" transform="scale(-1 1) rotate(16 0 -12975.28)"/>
    <rect width="6.299" height="6.299" x="946.353" y="651.949" fill="#1DBCBC" opacity=".796" transform="rotate(-9 949.502 655.099)"/>
    <rect width="8.398" height="8.399" x="1260.416" y="482.416" fill="#9E7DD8" opacity=".796" transform="rotate(26 1264.615 486.615)"/>
    <ellipse cx="1032.384" cy="384.384" stroke="#1DBCBC" stroke-width="4.2" opacity=".8" transform="scale(1 -1) rotate(-84 605.483 0)" rx="7.348" ry="7.348"/>
    <rect width="10.498" height="10.498" x="766.173" y="611.173" fill="#1DBCBC" opacity=".796" transform="rotate(46 771.422 616.422)"/>
    <rect width="12.281" height="12.282" x="1099.911" y="341.91" stroke="#9E7DD8" stroke-width="3.465" opacity=".796" transform="rotate(128 1106.052 348.052)"/>
    <polygon fill="#1DBCBC" points="1019.809 495.071 1028.207 507.669 1011.411 507.669" transform="scale(-1 1) rotate(16 0 -6754.948)"/>
    <polygon fill="#9E7DD8" points="747.889 467.917 755.722 467.917 755.722 459.285 762.101 459.285 762.101 467.917 769.934 467.917 769.934 473.75 762.101 473.75 762.101 482.381 755.722 482.381 755.722 473.75 747.889 473.75" opacity=".796" transform="rotate(51 758.911 470.833)"/>
    <ellipse cx="1655.807" cy="486.807" stroke="#1DBCBC" stroke-width="4.2" opacity=".796" transform="rotate(6 1655.807 486.807)" rx="6.823" ry="6.823"/>
    <polygon fill="#9E7DD8" points="736.809 388.071 745.207 400.669 728.411 400.669" transform="scale(-1 1) rotate(16 0 -4848.298)"/>
    <polygon fill="#1DBCBC" points="870.809 370.071 879.207 382.669 862.411 382.669" transform="scale(-1 1) rotate(16 0 -5819.758)"/>
    <ellipse cx="1435.076" cy="633.077" fill="#1DBCBC" opacity=".796" transform="rotate(6 1435.076 633.077)" rx="7.348" ry="7.349"/>
    <rect width="6.299" height="6.299" x="1429.735" y="427.717" fill="#1DBCBC" opacity=".796" transform="rotate(-9 1432.885 430.867)"/>
    <polygon fill="#9E7DD8" points="1829.038 621.448 1835.349 621.448 1835.349 614.456 1840.489 614.456 1840.489 621.448 1846.8 621.448 1846.8 626.172 1840.489 626.172 1840.489 633.164 1835.349 633.164 1835.349 626.172 1829.038 626.172" transform="scale(1 -1) rotate(-84 1145.108 0)"/>
    <rect width="6.299" height="6.299" x="1759.25" y="639.25" fill="#1DBCBC" opacity=".6" transform="scale(1 -1) rotate(-54 501.62 0)"/>
    <ellipse cx="872.269" cy="523.268" stroke="#1DBCBC" stroke-width="4.2" transform="scale(1 -1) rotate(-84 291.12 0)" rx="9.972" ry="9.973"/>
    <rect width="12.597" height="12.598" x="823.608" y="433.607" fill="#1DBCBC" opacity=".6" transform="scale(1 -1) rotate(-44 -258.9 0)"/>
    <rect width="12.597" height="12.598" x="1015.608" y="581.607" fill="#9E7DD8" opacity=".6" transform="scale(1 -1) rotate(-44 -433.213 0)"/>
    <rect width="6.299" height="6.299" x="426.25" y="146.25" fill="#9E7DD8" opacity=".796" transform="rotate(36 429.399 149.4)"/>
    <rect width="6.299" height="6.299" x="888.454" y="301.454" fill="#9E7DD8" opacity=".796" transform="rotate(171 891.603 304.603)"/>
    <rect width="6.299" height="6.299" x="685.454" y="509.454" fill="#9E7DD8" opacity=".796" transform="rotate(171 688.603 512.603)"/>
    <rect width="8.398" height="8.399" x="677.416" y="240.416" fill="#9E7DD8" opacity=".796" transform="rotate(26 681.615 244.615)"/>
    <rect width="12.597" height="12.598" x="635.608" y="383.607" fill="#9E7DD8" opacity=".6" transform="scale(1 -1) rotate(-44 -323.146 0)"/>
    <ellipse cx="1260.076" cy="593.077" fill="#1DBCBC" opacity=".796" transform="rotate(6 1260.076 593.077)" rx="7.348" ry="7.349"/>
    <ellipse cx="772.168" cy="280.077" fill="#1DBCBC" opacity=".796" transform="rotate(6 772.168 280.077)" rx="7.348" ry="7.349"/>
    <rect width="6.299" height="6.299" x="1223.454" y="360.454" fill="#1DBCBC" opacity=".796" transform="rotate(-9 1226.603 363.603)"/>
    <rect width="8.398" height="8.399" x="1088.416" y="579.416" fill="#9E7DD8" opacity=".796" transform="rotate(26 1092.615 583.615)"/>
    <polygon fill="#9E7DD8" points="984.35 305.448 990.661 305.448 990.661 298.456 995.801 298.456 995.801 305.448 1002.112 305.448 1002.112 310.172 995.801 310.172 995.801 317.164 990.661 317.164 990.661 310.172 984.35 310.172" transform="scale(1 -1) rotate(-84 651.373 0)"/>
    <path stroke="#9E7DD8" stroke-width="3.15" d="M845.39615,255.401847 L854.501472,268.862751 L836.290829,268.862751 L845.39615,255.401847 Z" transform="scale(-1 1) rotate(-20 0 5055.994)"/>
    <polygon fill="#9E7DD8" points="1569.86 652.882 1577.677 652.882 1577.677 644.286 1584.043 644.286 1584.043 652.882 1591.86 652.882 1591.86 658.69 1584.043 658.69 1584.043 667.286 1577.677 667.286 1577.677 658.69 1569.86 658.69" opacity=".8" transform="scale(-1 1) rotate(-51 0 3970.127)"/>
    <polygon fill="#9E7DD8" points="1686.929 625.869 1693.24 625.869 1693.24 618.877 1698.38 618.877 1698.38 625.869 1704.691 625.869 1704.691 630.593 1698.38 630.593 1698.38 637.585 1693.24 637.585 1693.24 630.593 1686.929 630.593" opacity=".796" transform="rotate(174 1695.81 628.231)"/>
    <ellipse cx="1537.384" cy="558.384" stroke="#1DBCBC" stroke-width="4.2" opacity=".796" transform="rotate(174 1537.384 558.384)" rx="7.348" ry="7.348"/>
    <polygon fill="#9E7DD8" points="1591.929 523.869 1598.24 523.869 1598.24 516.877 1603.38 516.877 1603.38 523.869 1609.691 523.869 1609.691 528.593 1603.38 528.593 1603.38 535.585 1598.24 535.585 1598.24 528.593 1591.929 528.593" transform="rotate(174 1600.81 526.231)"/>
    <rect width="10.498" height="10.498" x="541.859" y="376.507" fill="#1DBCBC" opacity=".796" transform="rotate(-146 547.108 381.756)"/>
    <rect width="12.281" height="12.282" x="686.104" y="320.402" stroke="#9E7DD8" stroke-width="3.465" opacity=".796" transform="rotate(-64 692.245 326.543)"/>
    <polygon fill="#9E7DD8" points="1377.817 664.57 1386.215 677.168 1369.419 677.168" transform="scale(1 -1) rotate(4 20589.003 0)"/>
    <path stroke="#1DBCBC" stroke-width="3.15" d="M1756.70931,578.82994 L1765.81463,592.290844 L1747.60399,592.290844 L1756.70931,578.82994 Z" transform="scale(1 -1) rotate(-48 442.907 0)"/>
    <ellipse cx="1192.807" cy="538.807" stroke="#1DBCBC" stroke-width="4.2" opacity=".796" transform="rotate(174 1192.807 538.807)" rx="6.823" ry="6.823"/>
    <ellipse cx="746.556" cy="545.338" fill="#1DBCBC" opacity=".796" transform="rotate(174 746.556 545.338)" rx="7.348" ry="7.349"/>
    <rect width="6.299" height="6.299" x="1306.804" y="533.531" fill="#1DBCBC" opacity=".796" transform="rotate(159 1309.953 536.68)"/>
    <rect width="6.299" height="6.299" x="1423.977" y="577.041" fill="#1DBCBC" opacity=".6" transform="rotate(174 1427.127 580.19)"/>
    <rect width="8.398" height="8.399" x="940.05" y="444.883" fill="#9E7DD8" opacity=".796" transform="rotate(-166 944.25 449.082)"/>
    <polygon fill="#9E7DD8" points="869.385 599.498 875.696 599.498 875.696 592.507 880.836 592.507 880.836 599.498 887.147 599.498 887.147 604.223 880.836 604.223 880.836 611.215 875.696 611.215 875.696 604.223 869.385 604.223" transform="scale(1 -1) rotate(84 1546.7 0)"/>
    <rect width="6.299" height="6.299" x="1243.456" y="417.131" fill="#1DBCBC" opacity=".6" transform="scale(-1 1) rotate(-66 0 2339.884)"/>
    <path stroke="#9E7DD8" stroke-width="3.15" d="M1066.96652,658.85241 L1076.07184,672.313315 L1057.86119,672.313315 L1066.96652,658.85241 Z" transform="scale(1 -1) rotate(-32 -1252.041 0)"/>
    <path stroke="#9E7DD8" stroke-width="3.15" d="M1169.96652,602.490928 L1179.07184,615.951832 L1160.86119,615.951832 L1169.96652,602.490928 Z" transform="scale(1 -1) rotate(-32 -952.486 0)"/>
    <path stroke="#1DBCBC" stroke-width="3.15" d="M220.011693,295.202685 L229.117014,308.66359 L210.906371,308.66359 L220.011693,295.202685 Z" opacity=".4" transform="scale(-1 1) rotate(36 0 -375.811)"/>
    <polygon fill="#1DBCBC" points="372.809 505.071 381.207 517.669 364.411 517.669" opacity=".6" transform="scale(-1 1) rotate(16 0 -2141.304)"/>
    <polygon fill="#1DBCBC" points="826.809 545.071 835.207 557.669 818.411 557.669" transform="scale(-1 1) rotate(16 0 -5331.682)"/>
    <polygon fill="#9E7DD8" points="332 443.532 342.071 443.532 342.071 432.546 350.272 432.546 350.272 443.532 360.343 443.532 360.343 450.955 350.272 450.955 350.272 461.941 342.071 461.941 342.071 450.955 332 450.955" opacity=".6"/>
    <ellipse cx="333.807" cy="117.807" stroke="#1DBCBC" stroke-width="4.2" opacity=".5" transform="rotate(6 333.807 117.807)" rx="6.823" ry="6.823"/>
    <rect width="6.299" height="6.299" x="454.454" y="559.454" fill="#1DBCBC" opacity=".7" transform="rotate(-9 457.603 562.603)"/>
    <rect width="8.398" height="8.399" x="166.416" y="250.416" fill="#9E7DD8" opacity=".4" transform="rotate(26 170.615 254.615)"/>
    <ellipse cx="425.384" cy="398.384" stroke="#1DBCBC" stroke-width="4.2" opacity=".6" transform="scale(1 -1) rotate(-84 -17.066 0)" rx="7.348" ry="7.348"/>
    <ellipse cx="460.076" cy="271.077" fill="#1DBCBC" opacity=".7" transform="rotate(6 460.076 271.077)" rx="7.348" ry="7.349"/>
    <ellipse cx="441.384" cy="518.384" stroke="#1DBCBC" stroke-width="4.2" opacity=".7" transform="rotate(174 441.384 518.384)" rx="7.348" ry="7.348"/>
    <polygon fill="#9E7DD8" points="443.817 324.57 452.215 337.168 435.419 337.168" opacity=".7" transform="scale(1 -1) rotate(4 9918.677 0)"/>
    <rect width="6.299" height="6.299" x="172.919" y="57.919" fill="#1DBCBC" opacity=".4" transform="rotate(159 176.069 61.069)"/>
    <rect width="6.299" height="6.299" x="525.312" y="164.312" fill="#1DBCBC" opacity=".8" transform="rotate(174 528.461 167.461)"/>
    <polygon fill="#9E7DD8" points="516.929 317.869 523.24 317.869 523.24 310.877 528.38 310.877 528.38 317.869 534.691 317.869 534.691 322.593 528.38 322.593 528.38 329.585 523.24 329.585 523.24 322.593 516.929 322.593" opacity=".8" transform="rotate(6 525.81 320.231)"/>
    <rect width="6.299" height="6.299" x="1141.25" y="647.25" fill="#9E7DD8" opacity=".796" transform="rotate(36 1144.399 650.4)"/>
    <polygon fill="#1DBCBC" points="689.809 610.071 698.207 622.669 681.411 622.669" opacity=".8" transform="scale(-1 1) rotate(16 0 -4291.876)"/>
    <ellipse cx="588.807" cy="595.807" stroke="#1DBCBC" stroke-width="4.2" opacity=".8" transform="rotate(6 588.807 595.807)" rx="6.823" ry="6.823"/>
    <rect width="8.398" height="8.399" x="835.416" y="646.416" fill="#9E7DD8" opacity=".796" transform="rotate(26 839.615 650.615)"/>
    <ellipse cx="1805.076" cy="547.077" fill="#1DBCBC" opacity=".796" transform="rotate(6 1805.076 547.077)" rx="7.348" ry="7.349"/>
    <path stroke="#9E7DD8" stroke-width="3.15" d="M1843.39615,569.401847 L1852.50147,582.862751 L1834.29083,582.862751 L1843.39615,569.401847 Z" transform="scale(-1 1) rotate(-20 0 11029.933)"/>
    <polygon fill="#9E7DD8" points="312.908 221.869 319.219 221.869 319.219 214.877 324.358 214.877 324.358 221.869 330.669 221.869 330.669 226.593 324.358 226.593 324.358 233.585 319.219 233.585 319.219 226.593 312.908 226.593" opacity=".5" transform="rotate(6 321.789 224.231)"/>
    <polygon fill="#9E7DD8" points="1.929 7.869 8.24 7.869 8.24 .877 13.38 .877 13.38 7.869 19.691 7.869 19.691 12.593 13.38 12.593 13.38 19.585 8.24 19.585 8.24 12.593 1.929 12.593" opacity=".1" transform="rotate(6 10.81 10.231)"/>
    <rect width="6.299" height="6.299" x="124.228" y="72.25" fill="#9E7DD8" opacity=".3" transform="rotate(36 127.378 75.4)"/>
    <path stroke="#9E7DD8" stroke-width="3.15" d="M75.0116927,35.2026854 L84.1170145,48.6635896 L65.9063709,48.6635896 L75.0116927,35.2026854 Z" opacity=".2" transform="scale(-1 1) rotate(-36 0 272.177)"/>
    <polygon fill="#1DBCBC" points="15.809 137.071 24.207 149.669 7.411 149.669" opacity=".1" transform="scale(-1 1) rotate(16 0 30.883)"/>
    <ellipse cx="171.785" cy="177.807" stroke="#1DBCBC" stroke-width="4.2" opacity=".4" transform="rotate(6 171.785 177.807)" rx="6.823" ry="6.823"/>
    <ellipse cx="9.807" cy="78.807" stroke="#1DBCBC" stroke-width="4.2" opacity=".1" transform="rotate(6 9.807 78.807)" rx="6.823" ry="6.823"/>
    <ellipse cx="405.363" cy="234.384" stroke="#1DBCBC" stroke-width="4.2" opacity=".6" transform="scale(1 -1) rotate(-84 145.053 0)" rx="7.348" ry="7.348"/>
    <rect width="12.281" height="12.282" x="472.89" y="191.91" stroke="#9E7DD8" stroke-width="3.465" opacity=".8" transform="rotate(128 479.03 198.052)"/>
    <polygon fill="#9E7DD8" points="102.809 242.071 111.207 254.669 94.411 254.669" opacity=".3" transform="scale(-1 1) rotate(16 0 -483.154)"/>
    <polygon fill="#1DBCBC" points="243.787 220.071 252.185 232.669 235.389 232.669" opacity=".4" transform="scale(-1 1) rotate(16 0 -1508.268)"/>
    <rect width="6.299" height="6.299" x="261.432" y="151.454" fill="#9E7DD8" opacity=".5" transform="rotate(171 264.582 154.603)"/>
    <rect width="8.398" height="8.399" x="50.394" y="90.416" fill="#9E7DD8" opacity=".2" transform="rotate(26 54.593 94.615)"/>
    <rect width="12.597" height="12.598" x="14.608" y="226.607" fill="#9E7DD8" opacity=".1" transform="scale(1 -1) rotate(-44 -555.557 0)"/>
    <ellipse cx="145.055" cy="130.077" fill="#1DBCBC" opacity=".3" transform="rotate(6 145.055 130.077)" rx="7.348" ry="7.349"/>
    <polygon fill="#9E7DD8" points="357.329 155.448 363.64 155.448 363.64 148.456 368.779 148.456 368.779 155.448 375.09 155.448 375.09 160.172 368.779 160.172 368.779 167.164 363.64 167.164 363.64 160.172 357.329 160.172" opacity=".6" transform="scale(1 -1) rotate(-84 190.944 0)"/>
    <path stroke="#9E7DD8" stroke-width="3.15" d="M226.37467,92.4018472 L235.479992,105.862751 L217.269349,105.862751 L226.37467,92.4018472 Z" opacity=".4" transform="scale(-1 1) rotate(-20 0 1382.349)"/>
    <rect width="10.498" height="10.498" x="107.038" y="173.038" fill="#1DBCBC" opacity=".3" transform="rotate(-146 112.287 178.287)"/>
    <rect width="12.281" height="12.282" x="58.366" y="170.387" stroke="#9E7DD8" stroke-width="3.465" opacity=".2" transform="rotate(-64 64.507 176.528)"/>
    <rect width="12.597" height="12.598" x="512.403" y="242.424" fill="#1DBCBC" opacity=".8" transform="scale(-1 1) rotate(86 0 -307.517)"/>
    <polygon fill="#9E7DD8" points="122.819 325.289 129.652 325.289 129.652 317.719 135.217 317.719 135.217 325.289 142.05 325.289 142.05 330.404 135.217 330.404 135.217 337.974 129.652 337.974 129.652 330.404 122.819 330.404" opacity=".3" transform="rotate(51 132.434 327.846)"/>
    <rect width="6.299" height="6.299" x="258.454" y="396.454" fill="#1DBCBC" opacity=".5" transform="rotate(-9 261.603 399.603)"/>
    <rect width="10.498" height="10.498" x="147.173" y="381.173" fill="#1DBCBC" opacity=".4" transform="rotate(46 152.422 386.422)"/>
    <ellipse cx="55.781" cy="301.268" stroke="#1DBCBC" stroke-width="4.2" opacity=".2" transform="scale(1 -1) rotate(-84 -278.811 0)" rx="9.972" ry="9.973"/>
    <rect width="12.597" height="12.598" x="199.12" y="359.607" fill="#9E7DD8" opacity=".4" transform="scale(1 -1) rotate(-44 -700.232 0)"/>
    <rect width="8.398" height="8.399" x="271.928" y="357.416" fill="#9E7DD8" opacity=".5" transform="rotate(26 276.127 361.615)"/>
    <ellipse cx="282.076" cy="486.077" fill="#1DBCBC" opacity=".5" transform="rotate(174 282.076 486.077)" rx="7.348" ry="7.349"/>
    <polygon fill="#9E7DD8" points="184.35 423.448 190.661 423.448 190.661 416.456 195.801 416.456 195.801 423.448 202.112 423.448 202.112 428.172 195.801 428.172 195.801 435.164 190.661 435.164 190.661 428.172 184.35 428.172" opacity=".4" transform="scale(1 -1) rotate(84 666.14 0)"/>
    <path stroke="#9E7DD8" stroke-width="3.15" d="M250.478624,436.85241 L259.583946,450.313315 L241.373302,450.313315 L250.478624,436.85241 Z" opacity=".5" transform="scale(1 -1) rotate(-32 -1294.323 0)"/>
    <polygon fill="#9E7DD8" points="286.538 286.797 296.101 286.797 296.101 276.204 303.888 276.204 303.888 286.797 313.45 286.797 313.45 293.955 303.888 293.955 303.888 304.549 296.101 304.549 296.101 293.955 286.538 293.955" opacity=".5" transform="rotate(51 299.994 290.376)"/>
    <rect width="12.597" height="12.598" x="404.608" y="460.607" fill="#1DBCBC" opacity=".6" transform="rotate(46 410.906 466.906)"/>
    <ellipse cx="376.319" cy="316.807" stroke="#1DBCBC" stroke-width="4.2" opacity=".6" transform="rotate(174 376.319 316.807)" rx="6.823" ry="6.823"/>
    <path stroke="#9E7DD8" stroke-width="3.15" d="M353.478624,380.85241 L362.583946,394.313315 L344.373302,394.313315 L353.478624,380.85241 Z" opacity=".6" transform="scale(1 -1) rotate(-32 -996.028 0)"/>
    <rect width="8.398" height="8.399" x="2477.416" y="90.416" fill="#FFFFFF" opacity=".01" transform="rotate(26 2481.615 94.615)"/>
  </g>
</svg>
