<svg xmlns="http://www.w3.org/2000/svg" width="5000" height="547" viewBox="0 0 5000 547">
  <g fill="none" fill-rule="evenodd">
    <path fill="#E3D8F3" d="M3043.96043,546.509987 C3043.96043,546.509987 2788.34704,535.45142 2547.82565,399 C2401.93582,309.258735 2353.34617,262.460442 2211.18322,239.729235 C2179.34395,233.134067 2146.57713,229.682882 2113.98022,230.022934 C2081.38331,229.682882 2048.61648,233.134067 2016.77722,239.729235 C1874.61426,262.460444 1826.02461,309.258736 1680.13479,399 C1439.61339,535.45142 1184,546.509987 1184,546.509987 L3043.96043,546.509987 Z" style="mix-blend-mode:multiply" opacity=".3"/>
    <path fill="#CCEFEF" d="M3527.95252,546.186552 C3527.95252,546.186552 3221.21645,532.903185 2932.59077,369 C2757.52298,261.204279 2699.2154,204.990945 2528.61986,177.686595 C2490.41274,169.764589 2451.09255,165.619083 2411.97626,166.027548 C2372.85997,165.619083 2333.53977,169.764589 2295.33266,177.686595 C2124.73712,204.990948 2066.42954,261.204281 1891.36175,369 C1602.73607,532.903185 1296,546.186552 1296,546.186552 L3527.95252,546.186552 Z" style="mix-blend-mode:multiply" opacity=".3"/>
    <path fill="#FFBD8F" d="M4196.94834,546.036578 C4196.94834,546.036578 3828.91929,530.103081 3482.61952,333.5 C3272.56913,204.198236 3202.61035,136.769927 2997.92586,104.018157 C2952.08408,94.5156523 2904.9068,89.543087 2857.97417,90.0330444 C2811.04154,89.543087 2763.86426,94.5156527 2718.02248,104.018157 C2513.33799,136.76993 2443.3792,204.198239 2233.32882,333.5 C1887.02905,530.103081 1519,546.036578 1519,546.036578 L4196.94834,546.036578 Z" style="mix-blend-mode:multiply" opacity=".3"/>
    <path fill="#9E7DD8" d="M4999.73535,546.869326 C4999.73535,546.869326 4558.07337,527.762216 4142.48813,292 C3890.41218,136.944086 3806.45648,56.0854977 3560.82002,16.810275 C3505.8065,5.41507375 3449.19029,-0.547920347 3392.86768,0.0396261605 C3336.54506,-0.547920371 3279.92884,5.41507424 3224.91533,16.810275 C2979.27886,56.085501 2895.32316,136.944089 2643.24722,292 C2227.66198,527.762216 1786,546.869326 1786,546.869326 L4999.73535,546.869326 Z" style="mix-blend-mode:multiply" opacity=".3"/>
    <rect width="9" height="10" y="533" fill="#FFFFFF"/>
  </g>
</svg>
