<svg xmlns="http://www.w3.org/2000/svg" width="3243" height="1072" viewBox="0 0 3243 1072">
  <g fill="none" fill-rule="evenodd" opacity=".25">
    <path fill="#1DBCBC" fill-rule="nonzero" d="M2529.5,44 C2533.64214,44 2537,40.6421356 2537,36.5 C2537,32.3578644 2533.64214,29 2529.5,29 C2525.35786,29 2522,32.3578644 2522,36.5 C2522,40.6421356 2525.35786,44 2529.5,44 Z M2529.5,48 C2523.14873,48 2518,42.8512746 2518,36.5 C2518,30.1487254 2523.14873,25 2529.5,25 C2535.85127,25 2541,30.1487254 2541,36.5 C2541,42.8512746 2535.85127,48 2529.5,48 Z" opacity=".45"/>
    <path fill="#1DBCBC" fill-rule="nonzero" d="M2322.5 373C2324.98528 373 2327 370.985281 2327 368.5 2327 366.014719 2324.98528 364 2322.5 364 2320.01472 364 2318 366.014719 2318 368.5 2318 370.985281 2320.01472 373 2322.5 373zM2322.5 377C2317.80558 377 2314 373.19442 2314 368.5 2314 363.80558 2317.80558 360 2322.5 360 2327.19442 360 2331 363.80558 2331 368.5 2331 373.19442 2327.19442 377 2322.5 377zM1912 258C1914.76142 258 1917 255.761424 1917 253 1917 250.238576 1914.76142 248 1912 248 1909.23858 248 1907 250.238576 1907 253 1907 255.761424 1909.23858 258 1912 258zM1912 262C1907.02944 262 1903 257.970563 1903 253 1903 248.029437 1907.02944 244 1912 244 1916.97056 244 1921 248.029437 1921 253 1921 257.970563 1916.97056 262 1912 262zM2003 451C2007.41828 451 2011 447.418278 2011 443 2011 438.581722 2007.41828 435 2003 435 1998.58172 435 1995 438.581722 1995 443 1995 447.418278 1998.58172 451 2003 451zM2003 455C1996.37258 455 1991 449.627417 1991 443 1991 436.372583 1996.37258 431 2003 431 2009.62742 431 2015 436.372583 2015 443 2015 449.627417 2009.62742 455 2003 455zM2347 592C2349.20914 592 2351 590.209139 2351 588 2351 585.790861 2349.20914 584 2347 584 2344.79086 584 2343 585.790861 2343 588 2343 590.209139 2344.79086 592 2347 592zM2347 596C2342.58172 596 2339 592.418278 2339 588 2339 583.581722 2342.58172 580 2347 580 2351.41828 580 2355 583.581722 2355 588 2355 592.418278 2351.41828 596 2347 596z" opacity=".6"/>
    <path fill="#1DBCBC" fill-rule="nonzero" d="M2768.5 425C2770.98528 425 2773 422.985281 2773 420.5 2773 418.014719 2770.98528 416 2768.5 416 2766.01472 416 2764 418.014719 2764 420.5 2764 422.985281 2766.01472 425 2768.5 425zM2768.5 429C2763.80558 429 2760 425.19442 2760 420.5 2760 415.80558 2763.80558 412 2768.5 412 2773.19442 412 2777 415.80558 2777 420.5 2777 425.19442 2773.19442 429 2768.5 429zM2847.5 169C2849.98528 169 2852 166.985281 2852 164.5 2852 162.014719 2849.98528 160 2847.5 160 2845.01472 160 2843 162.014719 2843 164.5 2843 166.985281 2845.01472 169 2847.5 169zM2847.5 173C2842.80558 173 2839 169.19442 2839 164.5 2839 159.80558 2842.80558 156 2847.5 156 2852.19442 156 2856 159.80558 2856 164.5 2856 169.19442 2852.19442 173 2847.5 173z" opacity=".3"/>
    <polygon fill="#1DBCBC" points="2179.38 179.66 2185.392 179.66 2185.392 173 2190.288 173 2190.288 179.66 2196.3 179.66 2196.3 184.16 2190.288 184.16 2190.288 190.82 2185.392 190.82 2185.392 184.16 2179.38 184.16" opacity=".6"/>
    <polygon fill="#1DBCBC" points="1931 610.717 1939.883 610.717 1939.883 601 1947.117 601 1947.117 610.717 1956 610.717 1956 617.283 1947.117 617.283 1947.117 627 1939.883 627 1939.883 617.283 1931 617.283" opacity=".6"/>
    <polygon fill="#1DBCBC" points="2147.792 710.201 2156.901 710.201 2156.901 700.11 2164.319 700.11 2164.319 710.201 2173.428 710.201 2173.428 717.019 2164.319 717.019 2164.319 727.11 2156.901 727.11 2156.901 717.019 2147.792 717.019" opacity=".6" transform="rotate(45 2160.61 713.61)"/>
    <polygon fill="#1DBCBC" points="2975.378 208.201 2984.487 208.201 2984.487 198.11 2991.905 198.11 2991.905 208.201 3001.014 208.201 3001.014 215.019 2991.905 215.019 2991.905 225.11 2984.487 225.11 2984.487 215.019 2975.378 215.019" opacity=".2" transform="rotate(45 2988.196 211.61)"/>
    <polygon fill="#1DBCBC" points="2396.792 153.091 2405.901 153.091 2405.901 143 2413.319 143 2413.319 153.091 2422.428 153.091 2422.428 159.909 2413.319 159.909 2413.319 170 2405.901 170 2405.901 159.909 2396.792 159.909" opacity=".6" transform="rotate(45 2409.61 156.5)"/>
    <polygon fill="#1DBCBC" points="3036.778 506.54 3044.292 506.54 3044.292 498.215 3050.412 498.215 3050.412 506.54 3057.926 506.54 3057.926 512.164 3050.412 512.164 3050.412 520.488 3044.292 520.488 3044.292 512.164 3036.778 512.164" opacity=".1" transform="rotate(45 3047.352 509.352)"/>
    <polygon fill="#1DBCBC" points="1863.139 521.862 1869.648 521.862 1869.648 514.651 1874.949 514.651 1874.949 521.862 1881.458 521.862 1881.458 526.735 1874.949 526.735 1874.949 533.946 1869.648 533.946 1869.648 526.735 1863.139 526.735" opacity=".6" transform="rotate(45 1872.299 524.299)"/>
    <polygon fill="#1DBCBC" points="2292.84 464.862 2299.349 464.862 2299.349 457.651 2304.651 457.651 2304.651 464.862 2311.16 464.862 2311.16 469.735 2304.651 469.735 2304.651 476.946 2299.349 476.946 2299.349 469.735 2292.84 469.735" opacity=".6" transform="rotate(45 2302 467.299)"/>
    <polygon fill="#1DBCBC" points="2719.542 346.862 2726.051 346.862 2726.051 339.651 2731.352 339.651 2731.352 346.862 2737.861 346.862 2737.861 351.735 2731.352 351.735 2731.352 358.946 2726.051 358.946 2726.051 351.735 2719.542 351.735" opacity=".4" transform="rotate(45 2728.701 349.299)"/>
    <rect width="6" height="6" x="2298" y="37" fill="#1DBCBC" opacity=".6"/>
    <rect width="6" height="6" x="3058" y="99" fill="#1DBCBC" opacity=".1"/>
    <rect width="12" height="12" x="2513.453" y="161.453" fill="#1DBCBC" opacity=".45" transform="rotate(40 2519.453 167.453)"/>
    <rect width="12" height="12" x="1981.453" y="305.453" fill="#1DBCBC" opacity=".6" transform="rotate(40 1987.453 311.453)"/>
    <rect width="8" height="8" x="3148.127" y="172.127" fill="#1DBCBC" opacity=".1" transform="rotate(20 3152.127 176.127)"/>
    <rect width="8" height="8" x="2847.127" y="412.127" fill="#1DBCBC" opacity=".3" transform="rotate(20 2851.127 416.127)"/>
    <rect width="8" height="8" x="2678.127" y="545.127" fill="#1DBCBC" opacity=".4" transform="rotate(20 2682.127 549.127)"/>
    <rect width="6" height="6" x="2047" y="182" fill="#1DBCBC" opacity=".6" transform="rotate(30 2050 185)"/>
    <rect width="6" height="6" x="2353.674" y="216.674" fill="#1DBCBC" opacity=".6" transform="rotate(-15 2356.674 219.674)"/>
    <rect width="6" height="6" x="2011" y="550" fill="#1DBCBC" opacity=".6" transform="rotate(-180 2014 553)"/>
    <rect width="6" height="6" x="2388.098" y="523.098" fill="#1DBCBC" opacity=".6" transform="rotate(-150 2391.098 526.098)"/>
    <rect width="6" height="6" x="1908.674" y="403.674" fill="#1DBCBC" opacity=".6" transform="rotate(165 1911.674 406.674)"/>
    <path fill="#1DBCBC" fill-rule="nonzero" d="M2906.50971,46.4655504 C2904.7347,44.3501771 2901.58092,44.0742573 2899.46555,45.8492663 C2897.35018,47.6242752 2897.07426,50.7780532 2898.84927,52.8934265 C2900.62428,55.0087998 2903.77805,55.2847197 2905.89343,53.5097107 C2908.0088,51.7347017 2908.28472,48.5809237 2906.50971,46.4655504 Z M2908.46458,56.5738885 C2904.6569,59.7689046 2898.9801,59.2722489 2895.78509,55.464577 C2892.59007,51.656905 2893.08673,45.9801046 2896.8944,42.7850885 C2900.70207,39.5900723 2906.37887,40.086728 2909.57389,43.8944 C2912.7689,47.702072 2912.27225,53.3788723 2908.46458,56.5738885 Z" opacity=".2"/>
    <path fill="#1DBCBC" fill-rule="nonzero" d="M3063.1423,423.128635 C3066.5269,420.288621 3066.96837,415.242576 3064.12836,411.857979 C3061.28834,408.473381 3056.2423,408.031909 3052.8577,410.871924 C3049.4731,413.711938 3049.03163,418.757983 3051.87164,422.14258 C3054.71166,425.527178 3059.7577,425.968649 3063.1423,423.128635 Z M3065.71345,426.192813 C3060.63656,430.452834 3053.06749,429.790627 3048.80747,424.713731 C3044.54745,419.636835 3045.20965,412.067768 3050.28655,407.807746 C3055.36344,403.547725 3062.93251,404.209932 3067.19253,409.286828 C3071.45255,414.363724 3070.79035,421.932791 3065.71345,426.192813 Z" opacity=".1"/>
    <polygon fill="#1DBCBC" points="3076.249 336.53 3082.758 336.53 3082.758 329.319 3088.059 329.319 3088.059 336.53 3094.569 336.53 3094.569 341.402 3088.059 341.402 3088.059 348.613 3082.758 348.613 3082.758 341.402 3076.249 341.402" opacity=".1" transform="scale(-1 1) rotate(85 0 -3028.167)"/>
    <rect width="12" height="12" x="2856.951" y="295.951" fill="#1DBCBC" opacity=".3" transform="scale(-1 1) rotate(80 0 -3109.981)"/>
    <rect width="12" height="12" x="2017.951" y="71.951" fill="#1DBCBC" opacity=".6" transform="scale(-1 1) rotate(80 0 -2334.1)"/>
    <path fill="#1DBCBC" fill-rule="nonzero" d="M2415.5 79C2419.64214 79 2423 75.6421356 2423 71.5 2423 67.3578644 2419.64214 64 2415.5 64 2411.35786 64 2408 67.3578644 2408 71.5 2408 75.6421356 2411.35786 79 2415.5 79zM2415.5 83C2409.14873 83 2404 77.8512746 2404 71.5 2404 65.1487254 2409.14873 60 2415.5 60 2421.85127 60 2427 65.1487254 2427 71.5 2427 77.8512746 2421.85127 83 2415.5 83zM1912 142C1914.76142 142 1917 139.761424 1917 137 1917 134.238576 1914.76142 132 1912 132 1909.23858 132 1907 134.238576 1907 137 1907 139.761424 1909.23858 142 1912 142zM1912 146C1907.02944 146 1903 141.970563 1903 137 1903 132.029437 1907.02944 128 1912 128 1916.97056 128 1921 132.029437 1921 137 1921 141.970563 1916.97056 146 1912 146z" opacity=".6"/>
    <polygon fill="#1DBCBC" points="2144.872 72.521 2153.981 72.521 2153.981 62.43 2161.399 62.43 2161.399 72.521 2170.509 72.521 2170.509 79.339 2161.399 79.339 2161.399 89.43 2153.981 89.43 2153.981 79.339 2144.872 79.339" opacity=".6" transform="rotate(45 2157.69 75.93)"/>
    <rect width="6" height="6" x="2298" y="37" fill="#1DBCBC" opacity=".6"/>
    <rect width="12" height="12" x="2513.453" y="161.453" fill="#1DBCBC" opacity=".45" transform="rotate(40 2519.453 167.453)"/>
    <rect width="6" height="6" x="2047" y="182" fill="#1DBCBC" opacity=".6" transform="rotate(30 2050 185)"/>
    <path fill="#1DBCBC" fill-rule="nonzero" d="M2208.30012,528.027144 C2212.7184,528.027144 2216.30012,524.445422 2216.30012,520.027144 C2216.30012,515.608866 2212.7184,512.027144 2208.30012,512.027144 C2203.88184,512.027144 2200.30012,515.608866 2200.30012,520.027144 C2200.30012,524.445422 2203.88184,528.027144 2208.30012,528.027144 Z M2208.30012,532.027144 C2201.6727,532.027144 2196.30012,526.654561 2196.30012,520.027144 C2196.30012,513.399727 2201.6727,508.027144 2208.30012,508.027144 C2214.92754,508.027144 2220.30012,513.399727 2220.30012,520.027144 C2220.30012,526.654561 2214.92754,532.027144 2208.30012,532.027144 Z" opacity=".6"/>
    <polygon fill="#1DBCBC" points="1660.139 712.862 1666.648 712.862 1666.648 705.651 1671.949 705.651 1671.949 712.862 1678.458 712.862 1678.458 717.735 1671.949 717.735 1671.949 724.946 1666.648 724.946 1666.648 717.735 1660.139 717.735" opacity=".6" transform="rotate(45 1669.299 715.299)"/>
    <rect width="12" height="12" x="2186.753" y="382.48" fill="#1DBCBC" opacity=".6" transform="rotate(40 2192.753 388.48)"/>
    <rect width="6" height="6" x="2109.674" y="484.674" fill="#1DBCBC" opacity=".6" transform="rotate(165 2112.674 487.674)"/>
    <path fill="#1DBCBC" fill-rule="nonzero" d="M2121.30012,265.027144 C2124.06155,265.027144 2126.30012,262.788567 2126.30012,260.027144 C2126.30012,257.26572 2124.06155,255.027144 2121.30012,255.027144 C2118.5387,255.027144 2116.30012,257.26572 2116.30012,260.027144 C2116.30012,262.788567 2118.5387,265.027144 2121.30012,265.027144 Z M2121.30012,269.027144 C2116.32956,269.027144 2112.30012,264.997706 2112.30012,260.027144 C2112.30012,255.056581 2116.32956,251.027144 2121.30012,251.027144 C2126.27068,251.027144 2130.30012,255.056581 2130.30012,260.027144 C2130.30012,264.997706 2126.27068,269.027144 2121.30012,269.027144 Z" opacity=".6"/>
    <rect width="6" height="6" x="2252.398" y="259.125" fill="#1DBCBC" opacity=".6" transform="rotate(30 2255.398 262.125)"/>
    <path fill="#1DBCBC" fill-rule="nonzero" d="M2947.56111,532 C2951.97939,532 2955.56111,528.418278 2955.56111,524 C2955.56111,519.581722 2951.97939,516 2947.56111,516 C2943.14283,516 2939.56111,519.581722 2939.56111,524 C2939.56111,528.418278 2943.14283,532 2947.56111,532 Z M2947.56111,536 C2940.93369,536 2935.56111,530.627417 2935.56111,524 C2935.56111,517.372583 2940.93369,512 2947.56111,512 C2954.18853,512 2959.56111,517.372583 2959.56111,524 C2959.56111,530.627417 2954.18853,536 2947.56111,536 Z" opacity=".2"/>
    <polygon fill="#1DBCBC" points="2807.7 602.862 2814.209 602.862 2814.209 595.651 2819.51 595.651 2819.51 602.862 2826.02 602.862 2826.02 607.735 2819.51 607.735 2819.51 614.946 2814.209 614.946 2814.209 607.735 2807.7 607.735" opacity=".3" transform="rotate(45 2816.86 605.299)"/>
    <rect width="12" height="12" x="2926.014" y="386.453" fill="#1DBCBC" opacity=".2" transform="rotate(40 2932.014 392.453)"/>
    <rect width="6" height="6" x="2769.674" y="522.674" fill="#1DBCBC" opacity=".3" transform="rotate(165 2772.674 525.674)"/>
    <path fill="#1DBCBC" fill-rule="nonzero" d="M2795,263 C2797.76142,263 2800,260.761424 2800,258 C2800,255.238576 2797.76142,253 2795,253 C2792.23858,253 2790,255.238576 2790,258 C2790,260.761424 2792.23858,263 2795,263 Z M2795,267 C2790.02944,267 2786,262.970563 2786,258 C2786,253.029437 2790.02944,249 2795,249 C2799.97056,249 2804,253.029437 2804,258 C2804,262.970563 2799.97056,267 2795,267 Z" opacity=".3"/>
    <rect width="6" height="6" x="2981.098" y="300.098" fill="#1DBCBC" opacity=".2" transform="rotate(30 2984.098 303.098)"/>
    <rect width="6" height="6" x="2353.674" y="216.674" fill="#1DBCBC" opacity=".6" transform="rotate(-15 2356.674 219.674)"/>
    <rect width="12" height="12" x="1977.951" y="145.951" fill="#1DBCBC" opacity=".6" transform="scale(-1 1) rotate(80 0 -2212.43)"/>
    <rect width="12" height="12" x="1898.951" y="54.951" fill="#1DBCBC" opacity=".6" transform="scale(-1 1) rotate(80 0 -2209.281)"/>
    <rect width="12" height="12" x="2679.951" y="174.951" fill="#1DBCBC" opacity=".4" transform="scale(-1 1) rotate(80 0 -3020.04)"/>
    <rect width="6" height="6" x="3088.973" y="237.54" fill="#1DBCBC" opacity=".1" transform="scale(1 -1) rotate(25 4176.978 0)"/>
    <path fill="#1DBCBC" fill-rule="nonzero" d="M2367.5,298 C2369.98528,298 2372,295.985281 2372,293.5 C2372,291.014719 2369.98528,289 2367.5,289 C2365.01472,289 2363,291.014719 2363,293.5 C2363,295.985281 2365.01472,298 2367.5,298 Z M2367.5,302 C2362.80558,302 2359,298.19442 2359,293.5 C2359,288.80558 2362.80558,285 2367.5,285 C2372.19442,285 2376,288.80558 2376,293.5 C2376,298.19442 2372.19442,302 2367.5,302 Z" opacity=".6"/>
    <rect width="6" height="6" x="2437" y="231" fill="#1DBCBC" opacity=".6"/>
    <rect width="8" height="8" x="2654.127" y="293.221" fill="#1DBCBC" opacity=".45" transform="rotate(20 2658.127 297.22)"/>
    <path fill="#1DBCBC" fill-rule="nonzero" d="M2092.14258,645.128635 C2095.52718,642.288621 2095.96865,637.242576 2093.12863,633.857979 C2090.28862,630.473381 2085.24258,630.031909 2081.85798,632.871924 C2078.47338,635.711938 2078.03191,640.757983 2080.87192,644.14258 C2083.71194,647.527178 2088.75798,647.968649 2092.14258,645.128635 Z M2094.71373,648.192813 C2089.63683,652.452834 2082.06777,651.790627 2077.80775,646.713731 C2073.54772,641.636835 2074.20993,634.067768 2079.28683,629.807746 C2084.36372,625.547725 2091.93279,626.209932 2096.19281,631.286828 C2100.45283,636.363724 2099.79063,643.932791 2094.71373,648.192813 Z" opacity=".6"/>
    <polygon fill="#1DBCBC" points="2610.249 454.624 2616.758 454.624 2616.758 447.413 2622.059 447.413 2622.059 454.624 2628.569 454.624 2628.569 459.496 2622.059 459.496 2622.059 466.707 2616.758 466.707 2616.758 459.496 2610.249 459.496" opacity=".45" transform="scale(-1 1) rotate(85 0 -2401.523)"/>
    <rect width="12" height="12" x="2259.951" y="121.951" fill="#1DBCBC" opacity=".6" transform="scale(-1 1) rotate(80 0 -2572.504)"/>
    <rect width="6" height="6" x="2594.987" y="358.081" fill="#1DBCBC" opacity=".45" transform="scale(1 -1) rotate(25 4226.717 0)"/>
    <rect width="6" height="6" x="3162.674" y="455.674" fill="#1DBCBC" opacity=".1" transform="rotate(165 3165.674 458.674)"/>
    <polygon fill="#1DBCBC" points="2994.792 650.091 3003.901 650.091 3003.901 640 3011.319 640 3011.319 650.091 3020.428 650.091 3020.428 656.909 3011.319 656.909 3011.319 667 3003.901 667 3003.901 656.909 2994.792 656.909" opacity=".2" transform="rotate(45 3007.61 653.5)"/>
    <rect width="6" height="6" x="3133" y="646.89" fill="#1DBCBC" opacity=".1"/>
    <rect width="12" height="12" x="2500.453" y="657.453" fill="#1DBCBC" opacity=".6" transform="rotate(40 2506.453 663.453)"/>
    <rect width="6" height="6" x="2689.674" y="643.674" fill="#1DBCBC" opacity=".4" transform="rotate(-15 2692.674 646.674)"/>
    <rect width="12" height="12" x="2755.951" y="85.951" fill="#1DBCBC" opacity=".3" transform="scale(-1 1) rotate(80 0 -3199.614)"/>
    <path fill="#1DBCBC" fill-rule="nonzero" d="M1848.5,619 C1850.98528,619 1853,616.985281 1853,614.5 C1853,612.014719 1850.98528,610 1848.5,610 C1846.01472,610 1844,612.014719 1844,614.5 C1844,616.985281 1846.01472,619 1848.5,619 Z M1848.5,623 C1843.80558,623 1840,619.19442 1840,614.5 C1840,609.80558 1843.80558,606 1848.5,606 C1853.19442,606 1857,609.80558 1857,614.5 C1857,619.19442 1853.19442,623 1848.5,623 Z" opacity=".6"/>
    <rect width="8" height="8" x="303.127" y="737.127" fill="#1DBCBC" opacity=".3" transform="rotate(20 307.127 741.127)"/>
    <polygon fill="#1DBCBC" points="2945.364 114.363 2953.762 126.96 2936.966 126.96" opacity=".2" transform="rotate(10 2945.364 120.662)"/>
    <ellipse cx="2645.348" cy="83.349" fill="#1DBCBC" opacity=".45" transform="matrix(-1 0 0 1 5290.697 0)" rx="7.348" ry="7.349"/>
    <rect width="6.299" height="6.299" x="3185.428" y="360" fill="#1DBCBC" opacity=".1" transform="matrix(-1 0 0 1 6377.154 0)"/>
    <rect width="6.299" height="6.299" x="2496.153" y="457.153" fill="#1DBCBC" transform="scale(-1 1) rotate(30 0 -8867.22)"/>
    <path fill="#1DBCBC" fill-rule="nonzero" d="M3233.42795,220 C3236.18937,220 3238.42795,217.761424 3238.42795,215 C3238.42795,212.238576 3236.18937,210 3233.42795,210 C3230.66652,210 3228.42795,212.238576 3228.42795,215 C3228.42795,217.761424 3230.66652,220 3233.42795,220 Z M3233.42795,224 C3228.45738,224 3224.42795,219.970563 3224.42795,215 C3224.42795,210.029437 3228.45738,206 3233.42795,206 C3238.39851,206 3242.42795,210.029437 3242.42795,215 C3242.42795,219.970563 3238.39851,224 3233.42795,224 Z" opacity=".1"/>
    <rect width="6" height="6" x="2867.098" y="513.098" fill="#1DBCBC" opacity=".3" transform="rotate(30 2870.098 516.098)"/>
    <polygon fill="#1DBCBC" points="3073.792 586.201 3082.901 586.201 3082.901 576.11 3090.319 576.11 3090.319 586.201 3099.428 586.201 3099.428 593.019 3090.319 593.019 3090.319 603.11 3082.901 603.11 3082.901 593.019 3073.792 593.019" opacity=".1" transform="rotate(45 3086.61 589.61)"/>
    <rect width="6" height="6" x="1788" y="523" fill="#1DBCBC" opacity=".6"/>
    <path fill="#1DBCBC" fill-rule="nonzero" d="M1803.89343,699.509711 C1806.0088,697.734702 1806.28472,694.580924 1804.50971,692.46555 C1802.7347,690.350177 1799.58092,690.074257 1797.46555,691.849266 C1795.35018,693.624275 1795.07426,696.778053 1796.84927,698.893427 C1798.62428,701.0088 1801.77805,701.28472 1803.89343,699.509711 Z M1806.46458,702.573888 C1802.6569,705.768905 1796.9801,705.272249 1793.78509,701.464577 C1790.59007,697.656905 1791.08673,691.980105 1794.8944,688.785088 C1798.70207,685.590072 1804.37887,686.086728 1807.57389,689.8944 C1810.7689,693.702072 1810.27225,699.378872 1806.46458,702.573888 Z" opacity=".6"/>
    <rect width="12" height="12" x="1722.082" y="596.951" fill="#1DBCBC" opacity=".6" transform="scale(-1 1) rotate(80 0 -1456.498)"/>
    <path fill="#1DBCBC" fill-rule="nonzero" d="M2914.17949,617 C2918.32162,617 2921.67949,613.642136 2921.67949,609.5 C2921.67949,605.357864 2918.32162,602 2914.17949,602 C2910.03735,602 2906.67949,605.357864 2906.67949,609.5 C2906.67949,613.642136 2910.03735,617 2914.17949,617 Z M2914.17949,621 C2907.82821,621 2902.67949,615.851275 2902.67949,609.5 C2902.67949,603.148725 2907.82821,598 2914.17949,598 C2920.53076,598 2925.67949,603.148725 2925.67949,609.5 C2925.67949,615.851275 2920.53076,621 2914.17949,621 Z" opacity=".2"/>
    <rect width="12" height="12" x="3169.453" y="270.453" fill="#1DBCBC" opacity=".1" transform="rotate(40 3175.453 276.453)"/>
    <path fill="#1DBCBC" fill-rule="nonzero" d="M2399.5 443C2401.98528 443 2404 440.985281 2404 438.5 2404 436.014719 2401.98528 434 2399.5 434 2397.01472 434 2395 436.014719 2395 438.5 2395 440.985281 2397.01472 443 2399.5 443zM2399.5 447C2394.80558 447 2391 443.19442 2391 438.5 2391 433.80558 2394.80558 430 2399.5 430 2404.19442 430 2408 433.80558 2408 438.5 2408 443.19442 2404.19442 447 2399.5 447zM2483.5 382C2485.98528 382 2488 379.985281 2488 377.5 2488 375.014719 2485.98528 373 2483.5 373 2481.01472 373 2479 375.014719 2479 377.5 2479 379.985281 2481.01472 382 2483.5 382zM2483.5 386C2478.80558 386 2475 382.19442 2475 377.5 2475 372.80558 2478.80558 369 2483.5 369 2488.19442 369 2492 372.80558 2492 377.5 2492 382.19442 2488.19442 386 2483.5 386z" opacity=".6"/>
    <polygon fill="#1DBCBC" points="2607 199.66 2613.012 199.66 2613.012 193 2617.908 193 2617.908 199.66 2623.92 199.66 2623.92 204.16 2617.908 204.16 2617.908 210.82 2613.012 210.82 2613.012 204.16 2607 204.16" opacity=".45"/>
    <polygon fill="#1DBCBC" points="1997 724.737 2000.198 724.737 2000.198 721 2002.802 721 2002.802 724.737 2006 724.737 2006 727.263 2002.802 727.263 2002.802 731 2000.198 731 2000.198 727.263 1997 727.263" opacity=".6"/>
    <polygon fill="#1DBCBC" points="2504.792 538.201 2513.901 538.201 2513.901 528.11 2521.319 528.11 2521.319 538.201 2530.428 538.201 2530.428 545.019 2521.319 545.019 2521.319 555.11 2513.901 555.11 2513.901 545.019 2504.792 545.019" opacity=".45" transform="rotate(45 2517.61 541.61)"/>
    <polygon fill="#1DBCBC" points="2291.139 665.862 2297.648 665.862 2297.648 658.651 2302.949 658.651 2302.949 665.862 2309.458 665.862 2309.458 670.735 2302.949 670.735 2302.949 677.946 2297.648 677.946 2297.648 670.735 2291.139 670.735" opacity=".6" transform="rotate(45 2300.299 668.299)"/>
    <polygon fill="#1DBCBC" points="2356.778 715.54 2364.292 715.54 2364.292 707.215 2370.412 707.215 2370.412 715.54 2377.926 715.54 2377.926 721.164 2370.412 721.164 2370.412 729.488 2364.292 729.488 2364.292 721.164 2356.778 721.164" opacity=".6" transform="rotate(45 2367.352 718.352)"/>
    <polygon fill="#1DBCBC" points="1868 330.992 1874.311 330.992 1874.311 324 1879.451 324 1879.451 330.992 1885.762 330.992 1885.762 335.716 1879.451 335.716 1879.451 342.708 1874.311 342.708 1874.311 335.716 1868 335.716" opacity=".6" transform="matrix(-1 0 0 1 3753.762 0)"/>
    <path fill="#1DBCBC" fill-rule="nonzero" d="M1692.22212 501.269863L1694.29025 501.782613 1694.67063 503.303959 1693.08718 504.729706 1689.39596 503.814547 1692.22212 501.269863zM1678.29405 497.816691L1677.06813 497.51275 1675.29376 499.110398 1675.46789 500.361374 1678.76195 501.178065 1678.29405 497.816691zM1680.27243 512.029415L1689.39596 503.814547 1678.76195 501.178065 1680.27243 512.029415zM1675 497L1695.91333 502.185022 1677.97058 518.340752 1675 497zM1795.22212 193.269863L1797.29025 193.782613 1797.67063 195.303959 1796.08718 196.729706 1792.39596 195.814547 1795.22212 193.269863zM1778.46789 192.361374L1778.29376 191.110398 1780.06813 189.51275 1781.29405 189.816691 1781.76195 193.178065 1778.46789 192.361374zM1783.27243 204.029415L1792.39596 195.814547 1781.76195 193.178065 1783.27243 204.029415zM1778 189L1798.91333 194.185022 1780.97058 210.340752 1778 189z" opacity=".6"/>
    <polygon fill="#1DBCBC" points="1754.721 325.363 1763.119 337.96 1746.323 337.96" opacity=".6" transform="rotate(10 1754.72 331.662)"/>
    <path fill="#1DBCBC" fill-rule="nonzero" d="M1818.92292,405.646975 C1821.53125,405.646975 1823.64583,403.532258 1823.64583,400.923488 C1823.64583,398.314717 1821.53125,396.2 1818.92292,396.2 C1816.31458,396.2 1814.2,398.314717 1814.2,400.923488 C1814.2,403.532258 1816.31458,405.646975 1818.92292,405.646975 Z M1818.92292,409.846975 C1813.99493,409.846975 1810,405.851794 1810,400.923488 C1810,395.995181 1813.99493,392 1818.92292,392 C1823.85091,392 1827.84583,395.995181 1827.84583,400.923488 C1827.84583,405.851794 1823.85091,409.846975 1818.92292,409.846975 Z" opacity=".6"/>
    <rect width="8.398" height="8.399" x="1697.183" y="416.183" fill="#1DBCBC" opacity=".6" transform="scale(-1 1) rotate(20 0 -9228.635)"/>
    <rect width="12.597" height="12.598" x="2538.575" y="273.575" fill="#1DBCBC" opacity=".45" transform="rotate(130 2544.874 279.874)"/>
    <path fill="#1DBCBC" fill-rule="nonzero" d="M2231.40484,618.851516 L2233.25152,619.914457 L2233.19782,621.481715 L2231.28272,622.415772 L2227.98675,620.518628 L2231.40484,618.851516 Z M2215.55005,613.36013 L2215.72748,612.109617 L2217.87349,611.062941 L2218.96814,611.693018 L2218.49139,615.053147 L2215.55005,613.36013 Z M2216.95232,625.900479 L2227.98675,620.518628 L2218.49139,615.053147 L2216.95232,625.900479 Z M2216.0268,610 L2234.70081,620.74866 L2213,631.33285 L2216.0268,610 Z" opacity=".6"/>
    <polygon fill="#1DBCBC" points="2570 722.717 2578.883 722.717 2578.883 713 2586.117 713 2586.117 722.717 2595 722.717 2595 729.283 2586.117 729.283 2586.117 739 2578.883 739 2578.883 729.283 2570 729.283" opacity=".45"/>
    <polygon fill="#1DBCBC" points="591.792 736.201 600.901 736.201 600.901 726.11 608.319 726.11 608.319 736.201 617.428 736.201 617.428 743.019 608.319 743.019 608.319 753.11 600.901 753.11 600.901 743.019 591.792 743.019" opacity=".5" transform="rotate(45 604.61 739.61)"/>
    <path fill="#1DBCBC" fill-rule="nonzero" d="M1390.14258,739.128635 C1393.52718,736.288621 1393.96865,731.242576 1391.12863,727.857979 C1388.28862,724.473381 1383.24258,724.031909 1379.85798,726.871924 C1376.47338,729.711938 1376.03191,734.757983 1378.87192,738.14258 C1381.71194,741.527178 1386.75798,741.968649 1390.14258,739.128635 Z M1392.71373,742.192813 C1387.63683,746.452834 1380.06777,745.790627 1375.80775,740.713731 C1371.54772,735.636835 1372.20993,728.067768 1377.28683,723.807746 C1382.36372,719.547725 1389.93279,720.209932 1394.19281,725.286828 C1398.45283,730.363724 1397.79063,737.932791 1392.71373,742.192813 Z" opacity=".6"/>
    <polygon fill="#1DBCBC" points="2166.562 299.201 2175.671 299.201 2175.671 289.11 2183.089 289.11 2183.089 299.201 2192.198 299.201 2192.198 306.019 2183.089 306.019 2183.089 316.11 2175.671 316.11 2175.671 306.019 2166.562 306.019" opacity=".6" transform="rotate(45 2179.38 302.61)"/>
    <rect width="6" height="6" x="2416" y="640" fill="#1DBCBC" opacity=".6"/>
    <rect width="12" height="12" x="75.025" y="676.453" fill="#1DBCBC" opacity=".2" transform="rotate(40 81.025 682.453)"/>
    <rect width="6" height="6" x="1912.674" y="684.674" fill="#1DBCBC" opacity=".6" transform="rotate(-15 1915.674 687.674)"/>
    <polygon fill="#1DBCBC" points="33 609.737 36.198 609.737 36.198 606 38.802 606 38.802 609.737 42 609.737 42 612.263 38.802 612.263 38.802 616 36.198 616 36.198 612.263 33 612.263" opacity=".2"/>
    <polygon fill="#1DBCBC" points="119.983 477.862 126.493 477.862 126.493 470.651 131.794 470.651 131.794 477.862 138.303 477.862 138.303 482.735 131.794 482.735 131.794 489.946 126.493 489.946 126.493 482.735 119.983 482.735" opacity=".2" transform="rotate(45 129.143 480.299)"/>
    <polygon fill="#1DBCBC" points="447.201 736.54 454.715 736.54 454.715 728.215 460.835 728.215 460.835 736.54 468.349 736.54 468.349 742.164 460.835 742.164 460.835 750.488 454.715 750.488 454.715 742.164 447.201 742.164" opacity=".4" transform="rotate(45 457.775 739.352)"/>
    <path fill="#1DBCBC" fill-rule="nonzero" d="M1529.40484,712.851516 L1531.25152,713.914457 L1531.19782,715.481715 L1529.28272,716.415772 L1525.98675,714.518628 L1529.40484,712.851516 Z M1513.55005,707.36013 L1513.72748,706.109617 L1515.87349,705.062941 L1516.96814,705.693018 L1516.49139,709.053147 L1513.55005,707.36013 Z M1514.95232,719.900479 L1525.98675,714.518628 L1516.49139,709.053147 L1514.95232,719.900479 Z M1514.0268,704 L1532.70081,714.74866 L1511,725.33285 L1514.0268,704 Z" opacity=".6"/>
    <rect width="10.498" height="10.498" x="1835.502" y="239.146" fill="#1DBCBC" opacity=".6" transform="scale(1 -1) rotate(40 2512.22 0)"/>
    <path fill="#1DBCBC" fill-rule="nonzero" d="M2089.85088,373.774657 L2082.37336,378.44713 L2087.0453,385.923795 L2094.52282,381.251321 L2089.85088,373.774657 Z M2099.29748,382.353638 L2085.94298,390.698452 L2077.5987,377.344814 L2090.9532,369 L2099.29748,382.353638 Z" opacity=".6"/>
    <path fill="#1DBCBC" fill-rule="nonzero" d="M2795.5,687 C2799.64214,687 2803,683.642136 2803,679.5 C2803,675.357864 2799.64214,672 2795.5,672 C2791.35786,672 2788,675.357864 2788,679.5 C2788,683.642136 2791.35786,687 2795.5,687 Z M2795.5,691 C2789.14873,691 2784,685.851275 2784,679.5 C2784,673.148725 2789.14873,668 2795.5,668 C2801.85127,668 2807,673.148725 2807,679.5 C2807,685.851275 2801.85127,691 2795.5,691 Z" opacity=".3"/>
    <polygon fill="#1DBCBC" points="2108.514 536.66 2114.526 536.66 2114.526 530 2119.422 530 2119.422 536.66 2125.434 536.66 2125.434 541.16 2119.422 541.16 2119.422 547.82 2114.526 547.82 2114.526 541.16 2108.514 541.16" opacity=".6"/>
    <path fill="#1DBCBC" fill-rule="nonzero" d="M808.5,744 C812.642136,744 816,740.642136 816,736.5 C816,732.357864 812.642136,729 808.5,729 C804.357864,729 801,732.357864 801,736.5 C801,740.642136 804.357864,744 808.5,744 Z M808.5,748 C802.148725,748 797,742.851275 797,736.5 C797,730.148725 802.148725,725 808.5,725 C814.851275,725 820,730.148725 820,736.5 C820,742.851275 814.851275,748 808.5,748 Z" opacity=".6" transform="rotate(180 808.5 736.5)"/>
    <path fill="#1DBCBC" fill-rule="nonzero" d="M1015.5,409 C1017.98528,409 1020,406.985281 1020,404.5 C1020,402.014719 1017.98528,400 1015.5,400 C1013.01472,400 1011,402.014719 1011,404.5 C1011,406.985281 1013.01472,409 1015.5,409 Z M1015.5,413 C1010.80558,413 1007,409.19442 1007,404.5 C1007,399.80558 1010.80558,396 1015.5,396 C1020.19442,396 1024,399.80558 1024,404.5 C1024,409.19442 1020.19442,413 1015.5,413 Z" opacity=".6" transform="rotate(180 1015.5 404.5)"/>
    <path fill="#1DBCBC" fill-rule="nonzero" d="M1409.92,545 C1412.68142,545 1414.92,542.761424 1414.92,540 C1414.92,537.238576 1412.68142,535 1409.92,535 C1407.15858,535 1404.92,537.238576 1404.92,540 C1404.92,542.761424 1407.15858,545 1409.92,545 Z M1409.92,549 C1404.94944,549 1400.92,544.970563 1400.92,540 C1400.92,535.029437 1404.94944,531 1409.92,531 C1414.89056,531 1418.92,535.029437 1418.92,540 C1418.92,544.970563 1414.89056,549 1409.92,549 Z" opacity=".6" transform="rotate(180 1409.92 540)"/>
    <path fill="#1DBCBC" fill-rule="nonzero" d="M1335,338 C1339.41828,338 1343,334.418278 1343,330 C1343,325.581722 1339.41828,322 1335,322 C1330.58172,322 1327,325.581722 1327,330 C1327,334.418278 1330.58172,338 1335,338 Z M1335,342 C1328.37258,342 1323,336.627417 1323,330 C1323,323.372583 1328.37258,318 1335,318 C1341.62742,318 1347,323.372583 1347,330 C1347,336.627417 1341.62742,342 1335,342 Z" opacity=".6" transform="rotate(180 1335 330)"/>
    <path fill="#1DBCBC" fill-rule="nonzero" d="M991,189 C993.209139,189 995,187.209139 995,185 C995,182.790861 993.209139,181 991,181 C988.790861,181 987,182.790861 987,185 C987,187.209139 988.790861,189 991,189 Z M991,193 C986.581722,193 983,189.418278 983,185 C983,180.581722 986.581722,177 991,177 C995.418278,177 999,180.581722 999,185 C999,189.418278 995.418278,193 991,193 Z" opacity=".6" transform="rotate(180 991 185)"/>
    <path fill="#1DBCBC" fill-rule="nonzero" d="M789,37 C791.209139,37 793,35.209139 793,33 C793,30.790861 791.209139,29 789,29 C786.790861,29 785,30.790861 785,33 C785,35.209139 786.790861,37 789,37 Z M789,41 C784.581722,41 781,37.418278 781,33 C781,28.581722 784.581722,25 789,25 C793.418278,25 797,28.581722 797,33 C797,37.418278 793.418278,41 789,41 Z" opacity=".6" transform="rotate(180 789 33)"/>
    <path fill="#1DBCBC" fill-rule="nonzero" d="M574.5,310 C576.985281,310 579,307.985281 579,305.5 C579,303.014719 576.985281,301 574.5,301 C572.014719,301 570,303.014719 570,305.5 C570,307.985281 572.014719,310 574.5,310 Z M574.5,314 C569.80558,314 566,310.19442 566,305.5 C566,300.80558 569.80558,297 574.5,297 C579.19442,297 583,300.80558 583,305.5 C583,310.19442 579.19442,314 574.5,314 Z" opacity=".5" transform="rotate(180 574.5 305.5)"/>
    <path fill="#1DBCBC" fill-rule="nonzero" d="M577.5,561 C579.985281,561 582,558.985281 582,556.5 C582,554.014719 579.985281,552 577.5,552 C575.014719,552 573,554.014719 573,556.5 C573,558.985281 575.014719,561 577.5,561 Z M577.5,565 C572.80558,565 569,561.19442 569,556.5 C569,551.80558 572.80558,548 577.5,548 C582.19442,548 586,551.80558 586,556.5 C586,561.19442 582.19442,565 577.5,565 Z" opacity=".5" transform="rotate(180 577.5 556.5)"/>
    <polygon fill="#CCEFEF" points="1147.08 612.84 1153.092 612.84 1153.092 606.18 1157.988 606.18 1157.988 612.84 1164 612.84 1164 617.34 1157.988 617.34 1157.988 624 1153.092 624 1153.092 617.34 1147.08 617.34" opacity=".6" transform="rotate(180 1155.54 615.09)"/>
    <polygon fill="#1DBCBC" points="1378.92 155.596 1386.737 155.596 1386.737 147 1393.103 147 1393.103 155.596 1400.92 155.596 1400.92 161.404 1393.103 161.404 1393.103 170 1386.737 170 1386.737 161.404 1378.92 161.404" opacity=".6" transform="rotate(180 1389.92 158.5)"/>
    <polygon fill="#1DBCBC" points="1164.572 55.981 1173.681 55.981 1173.681 45.89 1181.099 45.89 1181.099 55.981 1190.208 55.981 1190.208 62.799 1181.099 62.799 1181.099 72.89 1173.681 72.89 1173.681 62.799 1164.572 62.799" opacity=".6" transform="rotate(-135 1177.39 59.39)"/>
    <polygon fill="#1DBCBC" points="181.572 729.981 190.681 729.981 190.681 719.89 198.099 719.89 198.099 729.981 207.208 729.981 207.208 736.799 198.099 736.799 198.099 746.89 190.681 746.89 190.681 736.799 181.572 736.799" opacity=".2" transform="rotate(-135 194.39 733.39)"/>
    <polygon fill="#1DBCBC" points="1152.572 725.981 1161.681 725.981 1161.681 715.89 1169.099 715.89 1169.099 725.981 1178.208 725.981 1178.208 732.799 1169.099 732.799 1169.099 742.89 1161.681 742.89 1161.681 732.799 1152.572 732.799" opacity=".6" transform="rotate(-135 1165.39 729.39)"/>
    <polygon fill="#1DBCBC" points="252.074 235.836 259.588 235.836 259.588 227.512 265.708 227.512 265.708 235.836 273.222 235.836 273.222 241.46 265.708 241.46 265.708 249.785 259.588 249.785 259.588 241.46 252.074 241.46" opacity=".3" transform="rotate(-135 262.648 238.648)"/>
    <polygon fill="#1DBCBC" points="1456.542 246.265 1463.051 246.265 1463.051 239.054 1468.352 239.054 1468.352 246.265 1474.861 246.265 1474.861 251.138 1468.352 251.138 1468.352 258.349 1463.051 258.349 1463.051 251.138 1456.542 251.138" opacity=".6" transform="rotate(-135 1465.701 248.701)"/>
    <polygon fill="#1DBCBC" points="1026.84 303.265 1033.349 303.265 1033.349 296.054 1038.651 296.054 1038.651 303.265 1045.16 303.265 1045.16 308.138 1038.651 308.138 1038.651 315.349 1033.349 315.349 1033.349 308.138 1026.84 308.138" opacity=".6" transform="rotate(-135 1036 305.701)"/>
    <polygon fill="#1DBCBC" points="600.139 421.265 606.648 421.265 606.648 414.054 611.949 414.054 611.949 421.265 618.458 421.265 618.458 426.138 611.949 426.138 611.949 433.349 606.648 433.349 606.648 426.138 600.139 426.138" opacity=".5" transform="rotate(-135 609.299 423.701)"/>
    <rect width="6" height="6" x="1034" y="730" fill="#1DBCBC" opacity=".6" transform="rotate(180 1037 733)"/>
    <rect width="6" height="6" x="274" y="668" fill="#1DBCBC" opacity=".3" transform="rotate(180 277 671)"/>
    <rect width="12" height="12" x="812.547" y="599.547" fill="#1DBCBC" opacity=".6" transform="rotate(-140 818.547 605.547)"/>
    <rect width="12" height="12" x="1344.547" y="455.547" fill="#1DBCBC" opacity=".6" transform="rotate(-140 1350.547 461.547)"/>
    <rect width="8" height="8" x="181.873" y="592.873" fill="#1DBCBC" opacity=".2" transform="rotate(-160 185.873 596.873)"/>
    <rect width="8" height="8" x="486.127" y="365.127" fill="#1DBCBC" opacity=".4" transform="rotate(-160 490.127 369.127)"/>
    <rect width="8" height="8" x="651.873" y="219.873" fill="#1DBCBC" opacity=".5" transform="rotate(-160 655.873 223.873)"/>
    <rect width="6" height="6" x="1285" y="585" fill="#1DBCBC" opacity=".6" transform="rotate(-150 1288 588)"/>
    <rect width="6" height="6" x="978.326" y="550.326" fill="#1DBCBC" opacity=".6" transform="rotate(165 981.326 553.326)"/>
    <rect width="6" height="6" x="1321" y="217" fill="#1DBCBC" opacity=".6"/>
    <rect width="6" height="6" x="943.902" y="243.902" fill="#1DBCBC" opacity=".6" transform="rotate(30 946.902 246.902)"/>
    <rect width="6" height="6" x="1423.326" y="363.326" fill="#1DBCBC" opacity=".6" transform="rotate(-15 1426.326 366.326)"/>
    <path fill="#1DBCBC" fill-rule="nonzero" d="M490.830432,649.786271 C489.055423,647.670898 485.901645,647.394978 483.786271,649.169987 C481.670898,650.944996 481.394978,654.098774 483.169987,656.214148 C484.944996,658.329521 488.098774,658.605441 490.214148,656.830432 C492.329521,655.055423 492.605441,651.901645 490.830432,649.786271 Z M492.785298,659.89461 C488.977626,663.089626 483.300826,662.59297 480.10581,658.785298 C476.910793,654.977626 477.407449,649.300826 481.215121,646.10581 C485.022793,642.910793 490.699593,643.407449 493.89461,647.215121 C497.089626,651.022793 496.59297,656.699593 492.785298,659.89461 Z" opacity=".4" transform="rotate(180 487 653)"/>
    <path fill="#1DBCBC" fill-rule="nonzero" d="M285.142301,362.128076 C288.526898,359.288062 288.96837,354.242017 286.128356,350.85742 C283.288341,347.472822 278.242296,347.031351 274.857699,349.871365 C271.473102,352.711379 271.03163,357.757424 273.871644,361.142021 C276.711659,364.526619 281.757704,364.968091 285.142301,362.128076 Z M287.713451,365.192254 C282.636555,369.452275 275.067488,368.790068 270.807467,363.713172 C266.547445,358.636276 267.209653,351.067209 272.286549,346.807187 C277.363445,342.547166 284.932512,343.209373 289.192533,348.286269 C293.452555,353.363165 292.790347,360.932232 287.713451,365.192254 Z" opacity=".3" transform="rotate(180 280 356)"/>
    <polygon fill="#1DBCBC" points="243.431 431.598 249.941 431.598 249.941 424.387 255.242 424.387 255.242 431.598 261.751 431.598 261.751 436.47 255.242 436.47 255.242 443.681 249.941 443.681 249.941 436.47 243.431 436.47" opacity=".2" transform="scale(1 -1) rotate(85 726.256 0)"/>
    <rect width="12" height="12" x="359.283" y="550.694" fill="#1DBCBC" opacity=".3" transform="scale(1 -1) rotate(80 1028.726 0)"/>
    <rect width="12" height="12" x="1308.049" y="689.049" fill="#1DBCBC" opacity=".6" transform="scale(1 -1) rotate(80 2142.377 0)"/>
    <path fill="#1DBCBC" fill-rule="nonzero" d="M922.5,709 C926.642136,709 930,705.642136 930,701.5 C930,697.357864 926.642136,694 922.5,694 C918.357864,694 915,697.357864 915,701.5 C915,705.642136 918.357864,709 922.5,709 Z M922.5,713 C916.148725,713 911,707.851275 911,701.5 C911,695.148725 916.148725,690 922.5,690 C928.851275,690 934,695.148725 934,701.5 C934,707.851275 928.851275,713 922.5,713 Z" opacity=".6" transform="rotate(180 922.5 701.5)"/>
    <path fill="#1DBCBC" fill-rule="nonzero" d="M1426,641 C1428.76142,641 1431,638.761424 1431,636 C1431,633.238576 1428.76142,631 1426,631 C1423.23858,631 1421,633.238576 1421,636 C1421,638.761424 1423.23858,641 1426,641 Z M1426,645 C1421.02944,645 1417,640.970563 1417,636 C1417,631.029437 1421.02944,627 1426,627 C1430.97056,627 1435,631.029437 1435,636 C1435,640.970563 1430.97056,645 1426,645 Z" opacity=".6" transform="rotate(180 1426 636)"/>
    <polygon fill="#1DBCBC" points="1147.08 612.84 1153.092 612.84 1153.092 606.18 1157.988 606.18 1157.988 612.84 1164 612.84 1164 617.34 1157.988 617.34 1157.988 624 1153.092 624 1153.092 617.34 1147.08 617.34" opacity=".6" transform="rotate(180 1155.54 615.09)"/>
    <polygon fill="#1DBCBC" points="1271.792 769.201 1280.901 769.201 1280.901 759.11 1288.319 759.11 1288.319 769.201 1297.428 769.201 1297.428 776.019 1288.319 776.019 1288.319 786.11 1280.901 786.11 1280.901 776.019 1271.792 776.019" opacity=".6" transform="rotate(-135 1284.61 772.61)"/>
    <rect width="6" height="6" x="1034" y="730" fill="#1DBCBC" opacity=".6" transform="rotate(180 1037 733)"/>
    <rect width="12" height="12" x="812.547" y="599.547" fill="#1DBCBC" opacity=".6" transform="rotate(-140 818.547 605.547)"/>
    <rect width="6" height="6" x="1285" y="585" fill="#1DBCBC" opacity=".6" transform="rotate(-150 1288 588)"/>
    <path fill="#1DBCBC" fill-rule="nonzero" d="M1129.69988,260.972856 C1134.11816,260.972856 1137.69988,257.391134 1137.69988,252.972856 C1137.69988,248.554578 1134.11816,244.972856 1129.69988,244.972856 C1125.2816,244.972856 1121.69988,248.554578 1121.69988,252.972856 C1121.69988,257.391134 1125.2816,260.972856 1129.69988,260.972856 Z M1129.69988,264.972856 C1123.07246,264.972856 1117.69988,259.600273 1117.69988,252.972856 C1117.69988,246.345439 1123.07246,240.972856 1129.69988,240.972856 C1136.3273,240.972856 1141.69988,246.345439 1141.69988,252.972856 C1141.69988,259.600273 1136.3273,264.972856 1129.69988,264.972856 Z" opacity=".6" transform="rotate(180 1129.7 252.973)"/>
    <polygon fill="#1DBCBC" points="1253.691 132.862 1260.2 132.862 1260.2 125.651 1265.501 125.651 1265.501 132.862 1272.01 132.862 1272.01 137.735 1265.501 137.735 1265.501 144.946 1260.2 144.946 1260.2 137.735 1253.691 137.735" opacity=".6" transform="rotate(-135 1262.85 135.299)"/>
    <rect width="12" height="12" x="1139.247" y="378.52" fill="#1DBCBC" opacity=".6" transform="rotate(-140 1145.247 384.52)"/>
    <rect width="6" height="6" x="1218.026" y="286.299" fill="#1DBCBC" opacity=".6" transform="rotate(-15 1221.026 289.299)"/>
    <path fill="#1DBCBC" fill-rule="nonzero" d="M1216.69988,517.972856 C1219.4613,517.972856 1221.69988,515.73428 1221.69988,512.972856 C1221.69988,510.211433 1219.4613,507.972856 1216.69988,507.972856 C1213.93845,507.972856 1211.69988,510.211433 1211.69988,512.972856 C1211.69988,515.73428 1213.93845,517.972856 1216.69988,517.972856 Z M1216.69988,521.972856 C1211.72932,521.972856 1207.69988,517.943419 1207.69988,512.972856 C1207.69988,508.002294 1211.72932,503.972856 1216.69988,503.972856 C1221.67044,503.972856 1225.69988,508.002294 1225.69988,512.972856 C1225.69988,517.943419 1221.67044,521.972856 1216.69988,521.972856 Z" opacity=".6" transform="rotate(180 1216.7 512.973)"/>
    <rect width="6" height="6" x="1079.602" y="507.875" fill="#1DBCBC" opacity=".6" transform="rotate(-150 1082.602 510.875)"/>
    <path fill="#1DBCBC" fill-rule="nonzero" d="M390.438889,257 C394.857167,257 398.438889,253.418278 398.438889,249 C398.438889,244.581722 394.857167,241 390.438889,241 C386.020611,241 382.438889,244.581722 382.438889,249 C382.438889,253.418278 386.020611,257 390.438889,257 Z M390.438889,261 C383.811472,261 378.438889,255.627417 378.438889,249 C378.438889,242.372583 383.811472,237 390.438889,237 C397.066306,237 402.438889,242.372583 402.438889,249 C402.438889,255.627417 397.066306,261 390.438889,261 Z" opacity=".4" transform="rotate(180 390.439 249)"/>
    <polygon fill="#1DBCBC" points="500.139 127.862 506.648 127.862 506.648 120.651 511.949 120.651 511.949 127.862 518.458 127.862 518.458 132.735 511.949 132.735 511.949 139.946 506.648 139.946 506.648 132.735 500.139 132.735" opacity=".5" transform="rotate(-135 509.299 130.299)"/>
    <rect width="12" height="12" x="399.986" y="374.547" fill="#1DBCBC" opacity=".4" transform="rotate(-140 405.986 380.547)"/>
    <rect width="6" height="6" x="478.765" y="282.326" fill="#1DBCBC" opacity=".4" transform="rotate(-15 481.765 285.326)"/>
    <path fill="#1DBCBC" fill-rule="nonzero" d="M477.438889,514 C480.200313,514 482.438889,511.761424 482.438889,509 C482.438889,506.238576 480.200313,504 477.438889,504 C474.677465,504 472.438889,506.238576 472.438889,509 C472.438889,511.761424 474.677465,514 477.438889,514 Z M477.438889,518 C472.468326,518 468.438889,513.970563 468.438889,509 C468.438889,504.029437 472.468326,500 477.438889,500 C482.409452,500 486.438889,504.029437 486.438889,509 C486.438889,513.970563 482.409452,518 477.438889,518 Z" opacity=".4" transform="rotate(180 477.439 509)"/>
    <rect width="6" height="6" x="350.902" y="466.902" fill="#1DBCBC" opacity=".3" transform="rotate(-150 353.902 469.902)"/>
    <rect width="6" height="6" x="978.326" y="550.326" fill="#1DBCBC" opacity=".6" transform="rotate(165 981.326 553.326)"/>
    <rect width="12" height="12" x="1308.049" y="689.049" fill="#1DBCBC" opacity=".6" transform="scale(1 -1) rotate(80 2142.377 0)"/>
    <rect width="12" height="12" x="646.049" y="586.049" fill="#1DBCBC" opacity=".5" transform="scale(1 -1) rotate(80 1357.626 0)"/>
    <rect width="6" height="6" x="243.027" y="529.46" fill="#1DBCBC" opacity=".2" transform="scale(-1 1) rotate(25 0 -577.294)"/>
    <path fill="#1DBCBC" fill-rule="nonzero" d="M970.5,484 C972.985281,484 975,481.985281 975,479.5 C975,477.014719 972.985281,475 970.5,475 C968.014719,475 966,477.014719 966,479.5 C966,481.985281 968.014719,484 970.5,484 Z M970.5,488 C965.80558,488 962,484.19442 962,479.5 C962,474.80558 965.80558,471 970.5,471 C975.19442,471 979,474.80558 979,479.5 C979,484.19442 975.19442,488 970.5,488 Z" opacity=".6" transform="rotate(180 970.5 479.5)"/>
    <rect width="6" height="6" x="895" y="536" fill="#1DBCBC" opacity=".6" transform="rotate(180 898 539)"/>
    <rect width="8" height="8" x="675.873" y="471.779" fill="#1DBCBC" opacity=".5" transform="rotate(-160 679.873 475.78)"/>
    <path fill="#1DBCBC" fill-rule="nonzero" d="M732.236316,139.222371 C735.620914,136.382357 736.062385,131.336312 733.222371,127.951714 C730.382357,124.567117 725.336312,124.125645 721.951714,126.96566 C718.567117,129.805674 718.125645,134.851719 720.96566,138.236316 C723.805674,141.620914 728.851719,142.062385 732.236316,139.222371 Z M734.807467,142.286549 C729.730571,146.54657 722.161504,145.884363 717.901482,140.807467 C713.641461,135.730571 714.303668,128.161504 719.380564,123.901482 C724.45746,119.641461 732.026527,120.303668 736.286549,125.380564 C740.54657,130.45746 739.884363,138.026527 734.807467,142.286549 Z" opacity=".5" transform="rotate(180 727.094 133.094)"/>
    <polygon fill="#1DBCBC" points="676.249 323.53 682.758 323.53 682.758 316.319 688.059 316.319 688.059 323.53 694.569 323.53 694.569 328.402 688.059 328.402 688.059 335.613 682.758 335.613 682.758 328.402 676.249 328.402" opacity=".5" transform="scale(1 -1) rotate(85 1041.138 0)"/>
    <rect width="12" height="12" x="1054.049" y="593.049" fill="#1DBCBC" opacity=".6" transform="scale(1 -1) rotate(80 1773.968 0)"/>
    <rect width="6" height="6" x="737.013" y="408.919" fill="#1DBCBC" opacity=".5" transform="scale(-1 1) rotate(25 0 -2926.065)"/>
    <rect width="6" height="6" x="169.326" y="311.326" fill="#1DBCBC" opacity=".2" transform="rotate(-15 172.326 314.326)"/>
    <polygon fill="#1DBCBC" points="317.572 116.091 326.681 116.091 326.681 106 334.099 106 334.099 116.091 343.208 116.091 343.208 122.909 334.099 122.909 334.099 133 326.681 133 326.681 122.909 317.572 122.909" opacity=".3" transform="rotate(-135 330.39 119.5)"/>
    <rect width="6" height="6" x="199" y="120.11" fill="#CCEFEF" opacity=".2" transform="rotate(180 202 123.11)"/>
    <rect width="12" height="12" x="825.547" y="103.547" fill="#1DBCBC" opacity=".6" transform="rotate(-140 831.547 109.547)"/>
    <rect width="6" height="6" x="642.326" y="123.326" fill="#1DBCBC" opacity=".5" transform="rotate(165 645.326 126.326)"/>
    <rect width="12" height="12" x="570.049" y="675.049" fill="#1DBCBC" opacity=".5" transform="scale(1 -1) rotate(80 1387.692 0)"/>
    <path fill="#1DBCBC" fill-rule="nonzero" d="M1514.5,161 C1516.98528,161 1519,158.985281 1519,156.5 C1519,154.014719 1516.98528,152 1514.5,152 C1512.01472,152 1510,154.014719 1510,156.5 C1510,158.985281 1512.01472,161 1514.5,161 Z M1514.5,165 C1509.80558,165 1506,161.19442 1506,156.5 C1506,151.80558 1509.80558,148 1514.5,148 C1519.19442,148 1523,151.80558 1523,156.5 C1523,161.19442 1519.19442,165 1514.5,165 Z" opacity=".6" transform="rotate(180 1514.5 156.5)"/>
    <rect width="8" height="8" x="1461.127" y="46.127" fill="#1DBCBC" transform="rotate(-160 1465.127 50.127)"/>
    <polygon fill="#1DBCBC" points="392.636 646.04 401.034 658.637 384.238 658.637" opacity=".4" transform="rotate(-170 392.636 652.338)"/>
    <ellipse cx="692.652" cy="689.651" fill="#1DBCBC" opacity=".5" transform="matrix(1 0 0 -1 0 1379.302)" rx="7.348" ry="7.349"/>
    <rect width="6.299" height="6.299" x="146.274" y="406.701" fill="#1DBCBC" opacity=".2" transform="matrix(1 0 0 -1 0 819.701)"/>
    <rect width="6.299" height="6.299" x="1.34" y="312.701" fill="#1DBCBC" opacity=".2" transform="scale(1 -1) rotate(30 1183.26 0)"/>
    <path fill="#1DBCBC" fill-rule="nonzero" d="M104.572053,563 C107.333477,563 109.572053,560.761424 109.572053,558 C109.572053,555.238576 107.333477,553 104.572053,553 C101.81063,553 99.5720533,555.238576 99.5720533,558 C99.5720533,560.761424 101.81063,563 104.572053,563 Z M104.572053,567 C99.6014906,567 95.5720533,562.970563 95.5720533,558 C95.5720533,553.029437 99.6014906,549 104.572053,549 C109.542616,549 113.572053,553.029437 113.572053,558 C113.572053,562.970563 109.542616,567 104.572053,567 Z" opacity=".2" transform="rotate(180 104.572 558)"/>
    <rect width="6" height="6" x="25.474" y="462.902" fill="#CCEFEF" opacity=".2" transform="rotate(-150 28.474 465.902)"/>
    <polygon fill="#1DBCBC" points="158.364 206.134 167.473 206.134 167.473 196.043 174.891 196.043 174.891 206.134 184 206.134 184 212.952 174.891 212.952 174.891 223.043 167.473 223.043 167.473 212.952 158.364 212.952" opacity=".2" transform="rotate(-135 171.182 209.543)"/>
    <rect width="6" height="6" x="1544" y="244" fill="#1DBCBC" opacity=".6" transform="rotate(180 1547 247)"/>
    <path fill="#1DBCBC" fill-rule="nonzero" d="M1540.53445,81.1507337 C1542.64982,79.3757248 1542.92574,76.2219468 1541.15073,74.1065735 C1539.37572,71.9912002 1536.22195,71.7152803 1534.10657,73.4902893 C1531.9912,75.2652983 1531.71528,78.4190763 1533.49029,80.5344496 C1535.2653,82.6498229 1538.41908,82.9257427 1540.53445,81.1507337 Z M1543.1056,84.2149115 C1539.29793,87.4099277 1533.62113,86.913272 1530.42611,83.1056 C1527.2311,79.297928 1527.72775,73.6211277 1531.53542,70.4261115 C1535.3431,67.2310954 1541.0199,67.7277511 1544.21491,71.535423 C1547.40993,75.343095 1546.91327,81.0198954 1543.1056,84.2149115 Z" opacity=".6" transform="rotate(180 1537.32 77.32)"/>
    <rect width="12" height="12" x="1603.918" y="164.049" fill="#1DBCBC" opacity=".6" transform="scale(1 -1) rotate(80 1812.574 0)"/>
    <path fill="#1DBCBC" fill-rule="nonzero" d="M61.0720533,408 C65.214189,408 68.5720533,404.642136 68.5720533,400.5 C68.5720533,396.357864 65.214189,393 61.0720533,393 C56.9299177,393 53.5720533,396.357864 53.5720533,400.5 C53.5720533,404.642136 56.9299177,408 61.0720533,408 Z M61.0720533,412 C54.7207787,412 49.5720533,406.851275 49.5720533,400.5 C49.5720533,394.148725 54.7207787,389 61.0720533,389 C67.423328,389 72.5720533,394.148725 72.5720533,400.5 C72.5720533,406.851275 67.423328,412 61.0720533,412 Z" opacity=".2" transform="rotate(180 61.072 400.5)"/>
    <rect width="12" height="12" x="54.339" y="200.7" fill="#1DBCBC" opacity=".2" transform="rotate(-140 60.339 206.7)"/>
    <path fill="#1DBCBC" fill-rule="nonzero" d="M938.5,339 C940.985281,339 943,336.985281 943,334.5 C943,332.014719 940.985281,330 938.5,330 C936.014719,330 934,332.014719 934,334.5 C934,336.985281 936.014719,339 938.5,339 Z M938.5,343 C933.80558,343 930,339.19442 930,334.5 C930,329.80558 933.80558,326 938.5,326 C943.19442,326 947,329.80558 947,334.5 C947,339.19442 943.19442,343 938.5,343 Z" opacity=".6" transform="rotate(180 938.5 334.5)"/>
    <path fill="#1DBCBC" fill-rule="nonzero" d="M854.5,400 C856.985281,400 859,397.985281 859,395.5 C859,393.014719 856.985281,391 854.5,391 C852.014719,391 850,393.014719 850,395.5 C850,397.985281 852.014719,400 854.5,400 Z M854.5,404 C849.80558,404 846,400.19442 846,395.5 C846,390.80558 849.80558,387 854.5,387 C859.19442,387 863,390.80558 863,395.5 C863,400.19442 859.19442,404 854.5,404 Z" opacity=".6" transform="rotate(180 854.5 395.5)"/>
    <polygon fill="#1DBCBC" points="714.08 568.84 720.092 568.84 720.092 562.18 724.988 562.18 724.988 568.84 731 568.84 731 573.34 724.988 573.34 724.988 580 720.092 580 720.092 573.34 714.08 573.34" opacity=".5" transform="rotate(180 722.54 571.09)"/>
    <polygon fill="#1DBCBC" points="1342.094 56.717 1350.977 56.717 1350.977 47 1358.211 47 1358.211 56.717 1367.094 56.717 1367.094 63.283 1358.211 63.283 1358.211 73 1350.977 73 1350.977 63.283 1342.094 63.283" opacity=".6" transform="rotate(180 1354.594 60)"/>
    <polygon fill="#1DBCBC" points="807.572 227.981 816.681 227.981 816.681 217.89 824.099 217.89 824.099 227.981 833.208 227.981 833.208 234.799 824.099 234.799 824.099 244.89 816.681 244.89 816.681 234.799 807.572 234.799" opacity=".6" transform="rotate(-135 820.39 231.39)"/>
    <path fill="#1DBCBC" fill-rule="nonzero" d="M168.94702,12.3487544 C171.156159,12.3487544 172.94702,10.5578934 172.94702,8.34875445 C172.94702,6.13961545 171.156159,4.34875445 168.94702,4.34875445 C166.737881,4.34875445 164.94702,6.13961545 164.94702,8.34875445 C164.94702,10.5578934 166.737881,12.3487544 168.94702,12.3487544 Z M168.94702,16.3487544 C164.528742,16.3487544 160.94702,12.7670324 160.94702,8.34875445 C160.94702,3.93047645 164.528742,0.348754448 168.94702,0.348754448 C173.365298,0.348754448 176.94702,3.93047645 176.94702,8.34875445 C176.94702,12.7670324 173.365298,16.3487544 168.94702,16.3487544 Z" opacity=".2" transform="rotate(180 168.947 8.349)"/>
    <polygon fill="#1DBCBC" points="205.086 127.211 211.595 127.211 211.595 120 216.896 120 216.896 127.211 223.406 127.211 223.406 132.083 216.896 132.083 216.896 139.294 211.595 139.294 211.595 132.083 205.086 132.083" opacity=".2" transform="rotate(-135 214.246 129.647)"/>
    <rect width="6" height="6" x="122.045" y="67.447" fill="#1DBCBC" opacity=".2" transform="rotate(30 125.045 70.447)"/>
    <path fill="#1DBCBC" fill-rule="nonzero" d="M481.626851,60 C484.112132,60 486.126851,57.9852814 486.126851,55.5 C486.126851,53.0147186 484.112132,51 481.626851,51 C479.14157,51 477.126851,53.0147186 477.126851,55.5 C477.126851,57.9852814 479.14157,60 481.626851,60 Z M481.626851,64 C476.932431,64 473.126851,60.1944204 473.126851,55.5 C473.126851,50.8055796 476.932431,47 481.626851,47 C486.321271,47 490.126851,50.8055796 490.126851,55.5 C490.126851,60.1944204 486.321271,64 481.626851,64 Z" opacity=".4" transform="rotate(180 481.627 55.5)"/>
    <polygon fill="#1DBCBC" points="317.572 39.201 326.681 39.201 326.681 29.11 334.099 29.11 334.099 39.201 343.208 39.201 343.208 46.019 334.099 46.019 334.099 56.11 326.681 56.11 326.681 46.019 317.572 46.019" opacity=".3" transform="rotate(-135 330.39 42.61)"/>
    <polygon fill="#1DBCBC" points="1028.542 102.265 1035.051 102.265 1035.051 95.054 1040.352 95.054 1040.352 102.265 1046.861 102.265 1046.861 107.138 1040.352 107.138 1040.352 114.349 1035.051 114.349 1035.051 107.138 1028.542 107.138" opacity=".6" transform="rotate(-135 1037.701 104.701)"/>
    <polygon fill="#1DBCBC" points="960.074 51.836 967.588 51.836 967.588 43.512 973.708 43.512 973.708 51.836 981.222 51.836 981.222 57.46 973.708 57.46 973.708 65.785 967.588 65.785 967.588 57.46 960.074 57.46" opacity=".6" transform="rotate(-135 970.648 54.648)"/>
    <polygon fill="#1DBCBC" points="1466 446.992 1472.311 446.992 1472.311 440 1477.451 440 1477.451 446.992 1483.762 446.992 1483.762 451.716 1477.451 451.716 1477.451 458.708 1472.311 458.708 1472.311 451.716 1466 451.716" opacity=".6" transform="matrix(1 0 0 -1 0 898.708)"/>
    <path fill="#1DBCBC" fill-rule="nonzero" d="M1659.30879,258.929112 L1661.37692,259.441861 L1661.7573,260.963207 L1660.17384,262.388954 L1656.48263,261.473795 L1659.30879,258.929112 Z M1645.38072,255.475939 L1644.1548,255.171998 L1642.38043,256.769646 L1642.55456,258.020622 L1645.84861,258.837314 L1645.38072,255.475939 Z M1647.35909,269.688663 L1656.48263,261.473795 L1645.84861,258.837314 L1647.35909,269.688663 Z M1642.08667,254.659248 L1663,259.844271 L1645.05724,276 L1642.08667,254.659248 Z" opacity=".6" transform="rotate(180 1652.543 265.33)"/>
    <path fill="#1DBCBC" fill-rule="nonzero" d="M1580.22212,612.269863 L1582.29025,612.782613 L1582.67063,614.303959 L1581.08718,615.729706 L1577.39596,614.814547 L1580.22212,612.269863 Z M1563.46789,611.361374 L1563.29376,610.110398 L1565.06813,608.51275 L1566.29405,608.816691 L1566.76195,612.178065 L1563.46789,611.361374 Z M1568.27243,623.029415 L1577.39596,614.814547 L1566.76195,612.178065 L1568.27243,623.029415 Z M1563,608 L1583.91333,613.185022 L1565.97058,629.340752 L1563,608 Z" opacity=".6" transform="rotate(180 1573.457 618.67)"/>
    <polygon fill="#1DBCBC" points="1583.279 435.04 1591.677 447.637 1574.881 447.637" opacity=".6" transform="rotate(-170 1583.28 441.338)"/>
    <path fill="#1DBCBC" fill-rule="nonzero" d="M1519.07708,376.8 C1521.68542,376.8 1523.8,374.685283 1523.8,372.076512 C1523.8,369.467742 1521.68542,367.353025 1519.07708,367.353025 C1516.46875,367.353025 1514.35417,369.467742 1514.35417,372.076512 C1514.35417,374.685283 1516.46875,376.8 1519.07708,376.8 Z M1519.07708,381 C1514.14909,381 1510.15417,377.004819 1510.15417,372.076512 C1510.15417,367.148206 1514.14909,363.153025 1519.07708,363.153025 C1524.00507,363.153025 1528,367.148206 1528,372.076512 C1528,377.004819 1524.00507,381 1519.07708,381 Z" opacity=".6" transform="rotate(180 1519.077 372.077)"/>
    <rect width="8.398" height="8.399" x="1632.419" y="348.419" fill="#1DBCBC" opacity=".6" transform="scale(1 -1) rotate(20 3636.413 0)"/>
    <rect width="12.597" height="12.598" x="786.828" y="486.827" fill="#1DBCBC" opacity=".6" transform="rotate(-50 793.126 493.126)"/>
    <path fill="#1DBCBC" fill-rule="nonzero" d="M1121.70403,150.518666 L1123.55071,151.581607 L1123.49702,153.148864 L1121.58191,154.082922 L1118.28594,152.185778 L1121.70403,150.518666 Z M1105.84925,145.02728 L1106.02668,143.776767 L1108.17268,142.730091 L1109.26733,143.360168 L1108.79058,146.720297 L1105.84925,145.02728 Z M1107.25151,157.567629 L1118.28594,152.185778 L1108.79058,146.720297 L1107.25151,157.567629 Z M1106.326,141.66715 L1125,152.41581 L1103.29919,163 L1106.326,141.66715 Z" opacity=".6" transform="rotate(180 1114.15 152.334)"/>
    <path fill="#1DBCBC" fill-rule="nonzero" d="M479,202.699691 C481.209139,202.699691 483,200.90883 483,198.699691 C483,196.490552 481.209139,194.699691 479,194.699691 C476.790861,194.699691 475,196.490552 475,198.699691 C475,200.90883 476.790861,202.699691 479,202.699691 Z M479,206.699691 C474.581722,206.699691 471,203.117969 471,198.699691 C471,194.281413 474.581722,190.699691 479,190.699691 C483.418278,190.699691 487,194.281413 487,198.699691 C487,203.117969 483.418278,206.699691 479,206.699691 Z" opacity=".4" transform="rotate(180 479 198.7)"/>
    <rect width="6" height="6" x="414.439" y="156.098" fill="#1DBCBC" opacity=".4" transform="rotate(30 417.439 159.098)"/>
    <path fill="#1DBCBC" fill-rule="nonzero" d="M583,183.901471 C587.418278,183.901471 591,180.319749 591,175.901471 C591,171.483193 587.418278,167.901471 583,167.901471 C578.581722,167.901471 575,171.483193 575,175.901471 C575,180.319749 578.581722,183.901471 583,183.901471 Z M583,187.901471 C576.372583,187.901471 571,182.528888 571,175.901471 C571,169.274054 576.372583,163.901471 583,163.901471 C589.627417,163.901471 595,169.274054 595,175.901471 C595,182.528888 589.627417,187.901471 583,187.901471 Z" opacity=".5" transform="rotate(180 583 175.901)"/>
    <path fill="#1DBCBC" fill-rule="nonzero" d="M591.745648,62.851516 L593.59233,63.9144567 L593.538634,65.4817145 L591.623532,66.4157719 L588.327562,64.5186281 L591.745648,62.851516 Z M575.890866,57.3601298 L576.068295,56.1096169 L578.214299,55.0629407 L579.308952,55.6930177 L578.832201,59.0531474 L575.890866,57.3601298 Z M577.293132,69.9004793 L588.327562,64.5186281 L578.832201,59.0531474 L577.293132,69.9004793 Z M576.367617,54 L595.041619,64.7486598 L573.340813,75.3328501 L576.367617,54 Z" opacity=".5" transform="rotate(180 584.191 64.666)"/>
    <rect width="10.498" height="10.498" x="1525.146" y="521.146" fill="#1DBCBC" opacity=".6" transform="scale(-1 1) rotate(40 0 -3678.33)"/>
    <path fill="#1DBCBC" fill-rule="nonzero" d="M1250.9547,387.076205 L1243.47718,391.748679 L1248.14912,399.225343 L1255.62664,394.55287 L1250.9547,387.076205 Z M1260.4013,395.655186 L1247.0468,404 L1238.70252,390.646362 L1252.05702,382.301548 L1260.4013,395.655186 Z" opacity=".6" transform="rotate(180 1249.552 393.15)"/>
    <path fill="#1DBCBC" fill-rule="nonzero" d="M1136.79389,461 C1140.93603,461 1144.29389,457.642136 1144.29389,453.5 C1144.29389,449.357864 1140.93603,446 1136.79389,446 C1132.65176,446 1129.29389,449.357864 1129.29389,453.5 C1129.29389,457.642136 1132.65176,461 1136.79389,461 Z M1136.79389,465 C1130.44262,465 1125.29389,459.851275 1125.29389,453.5 C1125.29389,447.148725 1130.44262,442 1136.79389,442 C1143.14517,442 1148.29389,447.148725 1148.29389,453.5 C1148.29389,459.851275 1143.14517,465 1136.79389,465 Z" opacity=".6" transform="rotate(180 1136.794 453.5)"/>
    <path fill="#1DBCBC" fill-rule="nonzero" d="M869.5,1000 C871.985281,1000 874,997.985281 874,995.5 C874,993.014719 871.985281,991 869.5,991 C867.014719,991 865,993.014719 865,995.5 C865,997.985281 867.014719,1000 869.5,1000 Z M869.5,1004 C864.80558,1004 861,1000.19442 861,995.5 C861,990.80558 864.80558,987 869.5,987 C874.19442,987 878,990.80558 878,995.5 C878,1000.19442 874.19442,1004 869.5,1004 Z" opacity=".6" transform="rotate(180 869.5 995.5)"/>
    <path fill="#1DBCBC" fill-rule="nonzero" d="M1189,929 C1193.41828,929 1197,925.418278 1197,921 C1197,916.581722 1193.41828,913 1189,913 C1184.58172,913 1181,916.581722 1181,921 C1181,925.418278 1184.58172,929 1189,929 Z M1189,933 C1182.37258,933 1177,927.627417 1177,921 C1177,914.372583 1182.37258,909 1189,909 C1195.62742,909 1201,914.372583 1201,921 C1201,927.627417 1195.62742,933 1189,933 Z" opacity=".6" transform="rotate(180 1189 921)"/>
    <path fill="#1DBCBC" fill-rule="nonzero" d="M423.5,948 C425.985281,948 428,945.985281 428,943.5 C428,941.014719 425.985281,939 423.5,939 C421.014719,939 419,941.014719 419,943.5 C419,945.985281 421.014719,948 423.5,948 Z M423.5,952 C418.80558,952 415,948.19442 415,943.5 C415,938.80558 418.80558,935 423.5,935 C428.19442,935 432,938.80558 432,943.5 C432,948.19442 428.19442,952 423.5,952 Z" opacity=".3" transform="rotate(180 423.5 943.5)"/>
    <polygon fill="#1DBCBC" points="106.074 826.836 113.588 826.836 113.588 818.512 119.708 818.512 119.708 826.836 127.222 826.836 127.222 832.46 119.708 832.46 119.708 840.785 113.588 840.785 113.588 832.46 106.074 832.46" opacity=".1" transform="rotate(-135 116.648 829.648)"/>
    <polygon fill="#1DBCBC" points="1310.542 837.265 1317.051 837.265 1317.051 830.054 1322.352 830.054 1322.352 837.265 1328.861 837.265 1328.861 842.138 1322.352 842.138 1322.352 849.349 1317.051 849.349 1317.051 842.138 1310.542 842.138" opacity=".6" transform="rotate(-135 1319.701 839.701)"/>
    <polygon fill="#1DBCBC" points="880.84 894.265 887.349 894.265 887.349 887.054 892.651 887.054 892.651 894.265 899.16 894.265 899.16 899.138 892.651 899.138 892.651 906.349 887.349 906.349 887.349 899.138 880.84 899.138" opacity=".6" transform="rotate(-135 890 896.701)"/>
    <polygon fill="#1DBCBC" points="454.139 1012.265 460.648 1012.265 460.648 1005.054 465.949 1005.054 465.949 1012.265 472.458 1012.265 472.458 1017.138 465.949 1017.138 465.949 1024.349 460.648 1024.349 460.648 1017.138 454.139 1017.138" opacity=".4" transform="rotate(-135 463.299 1014.701)"/>
    <rect width="12" height="12" x="1590.938" y="761.829" fill="#1DBCBC" opacity=".6" transform="rotate(-140 1596.938 767.829)"/>
    <rect width="8" height="8" x="336.873" y="943.873" fill="#1DBCBC" opacity=".3" transform="rotate(-160 340.873 947.873)"/>
    <rect width="8" height="8" x="505.873" y="810.873" fill="#1DBCBC" opacity=".4" transform="rotate(-160 509.873 814.873)"/>
    <rect width="6" height="6" x="1175" y="808" fill="#1DBCBC" opacity=".6"/>
    <rect width="6" height="6" x="797.902" y="834.902" fill="#1DBCBC" opacity=".6" transform="rotate(30 800.902 837.902)"/>
    <rect width="6" height="6" x="1277.326" y="954.326" fill="#1DBCBC" opacity=".6" transform="rotate(-15 1280.326 957.326)"/>
    <path fill="#1DBCBC" fill-rule="nonzero" d="M139.142301,953.128076 C142.526898,950.288062 142.96837,945.242017 140.128356,941.85742 C137.288341,938.472822 132.242296,938.031351 128.857699,940.871365 C125.473102,943.711379 125.03163,948.757424 127.871644,952.142021 C130.711659,955.526619 135.757704,955.968091 139.142301,953.128076 Z M141.713451,956.192254 C136.636555,960.452275 129.067488,959.790068 124.807467,954.713172 C120.547445,949.636276 121.209653,942.067209 126.286549,937.807187 C131.363445,933.547166 138.932512,934.209373 143.192533,939.286269 C147.452555,944.363165 146.790347,951.932232 141.713451,956.192254 Z" opacity=".1" transform="rotate(180 134 947)"/>
    <polygon fill="#1DBCBC" points="97.431 1022.598 103.941 1022.598 103.941 1015.387 109.242 1015.387 109.242 1022.598 115.751 1022.598 115.751 1027.47 109.242 1027.47 109.242 1034.681 103.941 1034.681 103.941 1027.47 97.431 1027.47" opacity=".1" transform="scale(1 -1) rotate(85 1225.22 0)"/>
    <rect width="12" height="12" x="323.049" y="1056.049" fill="#1DBCBC" opacity=".3" transform="scale(1 -1) rotate(80 1594.75 0)"/>
    <path fill="#1DBCBC" fill-rule="nonzero" d="M983.699878,851.972856 C988.118156,851.972856 991.699878,848.391134 991.699878,843.972856 C991.699878,839.554578 988.118156,835.972856 983.699878,835.972856 C979.2816,835.972856 975.699878,839.554578 975.699878,843.972856 C975.699878,848.391134 979.2816,851.972856 983.699878,851.972856 Z M983.699878,855.972856 C977.072461,855.972856 971.699878,850.600273 971.699878,843.972856 C971.699878,837.345439 977.072461,831.972856 983.699878,831.972856 C990.327295,831.972856 995.699878,837.345439 995.699878,843.972856 C995.699878,850.600273 990.327295,855.972856 983.699878,855.972856 Z" opacity=".6" transform="rotate(180 983.7 843.973)"/>
    <rect width="12" height="12" x="993.247" y="969.52" fill="#1DBCBC" opacity=".6" transform="rotate(-140 999.247 975.52)"/>
    <rect width="6" height="6" x="1076.326" y="873.326" fill="#1DBCBC" opacity=".6" transform="rotate(-15 1079.326 876.326)"/>
    <path fill="#1DBCBC" fill-rule="nonzero" d="M244.438889,848 C248.857167,848 252.438889,844.418278 252.438889,840 C252.438889,835.581722 248.857167,832 244.438889,832 C240.020611,832 236.438889,835.581722 236.438889,840 C236.438889,844.418278 240.020611,848 244.438889,848 Z M244.438889,852 C237.811472,852 232.438889,846.627417 232.438889,840 C232.438889,833.372583 237.811472,828 244.438889,828 C251.066306,828 256.438889,833.372583 256.438889,840 C256.438889,846.627417 251.066306,852 244.438889,852 Z" opacity=".2" transform="rotate(180 244.439 840)"/>
    <rect width="12" height="12" x="253.986" y="965.547" fill="#1DBCBC" opacity=".2" transform="rotate(-140 259.986 971.547)"/>
    <rect width="6" height="6" x="416.326" y="835.326" fill="#1DBCBC" opacity=".3" transform="rotate(-15 419.326 838.326)"/>
    <rect width="6" height="6" x="204.902" y="1057.902" fill="#1DBCBC" opacity=".2" transform="rotate(-150 207.902 1060.902)"/>
    <path fill="#1DBCBC" fill-rule="nonzero" d="M1461.5,779 C1463.98528,779 1466,776.985281 1466,774.5 C1466,772.014719 1463.98528,770 1461.5,770 C1459.01472,770 1457,772.014719 1457,774.5 C1457,776.985281 1459.01472,779 1461.5,779 Z M1461.5,783 C1456.80558,783 1453,779.19442 1453,774.5 C1453,769.80558 1456.80558,766 1461.5,766 C1466.19442,766 1470,769.80558 1470,774.5 C1470,779.19442 1466.19442,783 1461.5,783 Z" opacity=".6" transform="rotate(180 1461.5 774.5)"/>
    <rect width="8" height="8" x="529.873" y="1062.779" fill="#1DBCBC" opacity=".45" transform="rotate(-160 533.873 1066.78)"/>
    <polygon fill="#1DBCBC" points="563.431 904.504 569.941 904.504 569.941 897.293 575.242 897.293 575.242 904.504 581.751 904.504 581.751 909.376 575.242 909.376 575.242 916.587 569.941 916.587 569.941 909.376 563.431 909.376" opacity=".45" transform="scale(1 -1) rotate(85 1562.343 0)"/>
    <rect width="6" height="6" x="591.013" y="999.919" fill="#1DBCBC" opacity=".45" transform="scale(-1 1) rotate(25 0 -1676.501)"/>
    <rect width="6" height="6" x="23.326" y="902.326" fill="#1DBCBC" opacity=".1" transform="rotate(-15 26.326 905.326)"/>
    <rect width="6.299" height="6.299" x=".274" y="997.701" fill="#1DBCBC" opacity=".1" transform="matrix(1 0 0 -1 0 2001.701)"/>
    <rect width="6.299" height="6.299" x="689.549" y="900.548" fill="#1DBCBC" transform="scale(1 -1) rotate(30 4065.344 0)"/>
    <rect width="6" height="6" x="318.902" y="844.902" fill="#1DBCBC" opacity=".3" transform="rotate(-150 321.902 847.902)"/>
    <polygon fill="#1DBCBC" points="12.364 797.134 21.473 797.134 21.473 787.043 28.891 787.043 28.891 797.134 38 797.134 38 803.952 28.891 803.952 28.891 814.043 21.473 814.043 21.473 803.952 12.364 803.952" opacity=".1" transform="rotate(-135 25.182 800.543)"/>
    <rect width="6" height="6" x="1398" y="835" fill="#1DBCBC" opacity=".6" transform="rotate(180 1401 838)"/>
    <path fill="#1DBCBC" fill-rule="nonzero" d="M792.5,930 C794.985281,930 797,927.985281 797,925.5 C797,923.014719 794.985281,921 792.5,921 C790.014719,921 788,923.014719 788,925.5 C788,927.985281 790.014719,930 792.5,930 Z M792.5,934 C787.80558,934 784,930.19442 784,925.5 C784,920.80558 787.80558,917 792.5,917 C797.19442,917 801,920.80558 801,925.5 C801,930.19442 797.19442,934 792.5,934 Z" opacity=".6" transform="rotate(180 792.5 925.5)"/>
    <path fill="#1DBCBC" fill-rule="nonzero" d="M708.5,991 C710.985281,991 713,988.985281 713,986.5 C713,984.014719 710.985281,982 708.5,982 C706.014719,982 704,984.014719 704,986.5 C704,988.985281 706.014719,991 708.5,991 Z M708.5,995 C703.80558,995 700,991.19442 700,986.5 C700,981.80558 703.80558,978 708.5,978 C713.19442,978 717,981.80558 717,986.5 C717,991.19442 713.19442,995 708.5,995 Z" opacity=".6" transform="rotate(180 708.5 986.5)"/>
    <polygon fill="#1DBCBC" points="661.572 818.981 670.681 818.981 670.681 808.89 678.099 808.89 678.099 818.981 687.208 818.981 687.208 825.799 678.099 825.799 678.099 835.89 670.681 835.89 670.681 825.799 661.572 825.799" opacity=".45" transform="rotate(-135 674.39 822.39)"/>
    <polygon fill="#1DBCBC" points="1725.238 765.284 1731.549 765.284 1731.549 758.292 1736.689 758.292 1736.689 765.284 1743 765.284 1743 770.008 1736.689 770.008 1736.689 777 1731.549 777 1731.549 770.008 1725.238 770.008" opacity=".6" transform="matrix(1 0 0 -1 0 1535.292)"/>
    <path fill="#1DBCBC" fill-rule="nonzero" d="M1513.30879,849.929112 L1515.37692,850.441861 L1515.7573,851.963207 L1514.17384,853.388954 L1510.48263,852.473795 L1513.30879,849.929112 Z M1499.38072,846.475939 L1498.1548,846.171998 L1496.38043,847.769646 L1496.55456,849.020622 L1499.84861,849.837314 L1499.38072,846.475939 Z M1501.35909,860.688663 L1510.48263,852.473795 L1499.84861,849.837314 L1501.35909,860.688663 Z M1496.08667,845.659248 L1517,850.844271 L1499.05724,867 L1496.08667,845.659248 Z" opacity=".6" transform="rotate(180 1506.543 856.33)"/>
    <polygon fill="#1DBCBC" points="1881.71 766.248 1890.108 778.846 1873.312 778.846" opacity=".6" transform="rotate(-170 1881.71 772.547)"/>
    <path fill="#1DBCBC" fill-rule="nonzero" d="M1373.07708,967.8 C1375.68542,967.8 1377.8,965.685283 1377.8,963.076512 C1377.8,960.467742 1375.68542,958.353025 1373.07708,958.353025 C1370.46875,958.353025 1368.35417,960.467742 1368.35417,963.076512 C1368.35417,965.685283 1370.46875,967.8 1373.07708,967.8 Z M1373.07708,972 C1368.14909,972 1364.15417,968.004819 1364.15417,963.076512 C1364.15417,958.148206 1368.14909,954.153025 1373.07708,954.153025 C1378.00507,954.153025 1382,958.148206 1382,963.076512 C1382,968.004819 1378.00507,972 1373.07708,972 Z" opacity=".6" transform="rotate(180 1373.077 963.077)"/>
    <rect width="8.398" height="8.399" x="1486.419" y="939.419" fill="#1DBCBC" opacity=".6" transform="scale(1 -1) rotate(20 6842.14 0)"/>
    <rect width="12.597" height="12.598" x="906.642" y="798.83" fill="#1DBCBC" opacity=".45" transform="rotate(-50 912.94 805.129)"/>
    <polygon fill="#1DBCBC" points="974.801 638.965 983.91 638.965 983.91 628.874 991.329 628.874 991.329 638.965 1000.438 638.965 1000.438 645.783 991.329 645.783 991.329 655.874 983.91 655.874 983.91 645.783 974.801 645.783" opacity=".6" transform="rotate(-135 987.62 642.374)"/>
    <polygon fill="#1DBCBC" points="2993.542 890.564 3000.051 890.564 3000.051 883.353 3005.352 883.353 3005.352 890.564 3011.861 890.564 3011.861 895.436 3005.352 895.436 3005.352 902.647 3000.051 902.647 3000.051 895.436 2993.542 895.436" opacity=".2" transform="rotate(-135 3002.701 893)"/>
    <path fill="#1DBCBC" fill-rule="nonzero" d="M1104.9547,978.076205 L1097.47718,982.748679 L1102.14912,990.225343 L1109.62664,985.55287 L1104.9547,978.076205 Z M1114.4013,986.655186 L1101.0468,995 L1092.70252,981.646362 L1106.05702,973.301548 L1114.4013,986.655186 Z" opacity=".6" transform="rotate(180 1103.552 984.15)"/>
    <polygon fill="#1DBCBC" points="1066.566 822.84 1072.578 822.84 1072.578 816.18 1077.474 816.18 1077.474 822.84 1083.486 822.84 1083.486 827.34 1077.474 827.34 1077.474 834 1072.578 834 1072.578 827.34 1066.566 827.34" opacity=".6" transform="rotate(180 1075.026 825.09)"/>
    <path fill="#1DBCBC" fill-rule="nonzero" d="M2176.5 964C2178.98528 964 2181 961.985281 2181 959.5 2181 957.014719 2178.98528 955 2176.5 955 2174.01472 955 2172 957.014719 2172 959.5 2172 961.985281 2174.01472 964 2176.5 964zM2176.5 968C2171.80558 968 2168 964.19442 2168 959.5 2168 954.80558 2171.80558 951 2176.5 951 2181.19442 951 2185 954.80558 2185 959.5 2185 964.19442 2181.19442 968 2176.5 968zM1822 840C1824.76142 840 1827 837.761424 1827 835 1827 832.238576 1824.76142 830 1822 830 1819.23858 830 1817 832.238576 1817 835 1817 837.761424 1819.23858 840 1822 840zM1822 844C1817.02944 844 1813 839.970563 1813 835 1813 830.029437 1817.02944 826 1822 826 1826.97056 826 1831 830.029437 1831 835 1831 839.970563 1826.97056 844 1822 844zM2058 799C2062.41828 799 2066 795.418278 2066 791 2066 786.581722 2062.41828 783 2058 783 2053.58172 783 2050 786.581722 2050 791 2050 795.418278 2053.58172 799 2058 799zM2058 803C2051.37258 803 2046 797.627417 2046 791 2046 784.372583 2051.37258 779 2058 779 2064.62742 779 2070 784.372583 2070 791 2070 797.627417 2064.62742 803 2058 803z" opacity=".6"/>
    <path fill="#1DBCBC" fill-rule="nonzero" d="M2708.5 759C2710.98528 759 2713 756.985281 2713 754.5 2713 752.014719 2710.98528 750 2708.5 750 2706.01472 750 2704 752.014719 2704 754.5 2704 756.985281 2706.01472 759 2708.5 759zM2708.5 763C2703.80558 763 2700 759.19442 2700 754.5 2700 749.80558 2703.80558 746 2708.5 746 2713.19442 746 2717 749.80558 2717 754.5 2717 759.19442 2713.19442 763 2708.5 763zM2617.5 848C2619.98528 848 2622 845.985281 2622 843.5 2622 841.014719 2619.98528 839 2617.5 839 2615.01472 839 2613 841.014719 2613 843.5 2613 845.985281 2615.01472 848 2617.5 848zM2617.5 852C2612.80558 852 2609 848.19442 2609 843.5 2609 838.80558 2612.80558 835 2617.5 835 2622.19442 835 2626 838.80558 2626 843.5 2626 848.19442 2622.19442 852 2617.5 852z" opacity=".5"/>
    <polygon fill="#1DBCBC" points="2289.932 888.331 2296.442 888.331 2296.442 881.12 2301.743 881.12 2301.743 888.331 2308.252 888.331 2308.252 893.203 2301.743 893.203 2301.743 900.414 2296.442 900.414 2296.442 893.203 2289.932 893.203" opacity=".6" transform="rotate(45 2299.092 890.767)"/>
    <polygon fill="#1DBCBC" points="2573.542 937.862 2580.051 937.862 2580.051 930.651 2585.352 930.651 2585.352 937.862 2591.861 937.862 2591.861 942.735 2585.352 942.735 2585.352 949.946 2580.051 949.946 2580.051 942.735 2573.542 942.735" opacity=".5" transform="rotate(45 2582.701 940.299)"/>
    <rect width="12" height="12" x="1835.453" y="896.453" fill="#1DBCBC" opacity=".6" transform="rotate(40 1841.453 902.453)"/>
    <rect width="8" height="8" x="2680.041" y="941.119" fill="#1DBCBC" opacity=".4" transform="rotate(20 2684.041 945.12)"/>
    <rect width="6" height="6" x="2207.674" y="807.674" fill="#1DBCBC" opacity=".6" transform="rotate(-15 2210.674 810.674)"/>
    <rect width="6" height="6" x="1762.674" y="994.674" fill="#1DBCBC" opacity=".6" transform="rotate(165 1765.674 997.674)"/>
    <path fill="#1DBCBC" fill-rule="nonzero" d="M2895.14202,872.128076 C2898.52662,869.288062 2898.96809,864.242017 2896.12808,860.85742 C2893.28806,857.472822 2888.24202,857.031351 2884.85742,859.871365 C2881.47282,862.711379 2881.03135,867.757424 2883.87137,871.142021 C2886.71138,874.526619 2891.75742,874.968091 2895.14202,872.128076 Z M2897.71317,875.192254 C2892.63628,879.452275 2885.06721,878.790068 2880.80719,873.713172 C2876.54717,868.636276 2877.20937,861.067209 2882.28627,856.807187 C2887.36317,852.547166 2894.93223,853.209373 2899.19225,858.286269 C2903.45228,863.363165 2902.79007,870.932232 2897.71317,875.192254 Z" opacity=".3"/>
    <polygon fill="#1DBCBC" points="2930.249 927.53 2936.758 927.53 2936.758 920.319 2942.059 920.319 2942.059 927.53 2948.569 927.53 2948.569 932.402 2942.059 932.402 2942.059 939.613 2936.758 939.613 2936.758 932.402 2930.249 932.402" opacity=".2" transform="scale(-1 1) rotate(85 0 -2277.836)"/>
    <rect width="12" height="12" x="2820.716" y="801.306" fill="#1DBCBC" opacity=".3" transform="scale(-1 1) rotate(80 0 -2561.444)"/>
    <rect width="12" height="12" x="2040.753" y="973.48" fill="#1DBCBC" opacity=".6" transform="rotate(40 2046.753 979.48)"/>
    <rect width="6" height="6" x="2263.415" y="748.104" fill="#1DBCBC" opacity=".6" transform="rotate(165 2266.415 751.104)"/>
    <path fill="#1DBCBC" fill-rule="nonzero" d="M1975.30012,856.027144 C1978.06155,856.027144 1980.30012,853.788567 1980.30012,851.027144 C1980.30012,848.26572 1978.06155,846.027144 1975.30012,846.027144 C1972.5387,846.027144 1970.30012,848.26572 1970.30012,851.027144 C1970.30012,853.788567 1972.5387,856.027144 1975.30012,856.027144 Z M1975.30012,860.027144 C1970.32956,860.027144 1966.30012,855.997706 1966.30012,851.027144 C1966.30012,846.056581 1970.32956,842.027144 1975.30012,842.027144 C1980.27068,842.027144 1984.30012,846.056581 1984.30012,851.027144 C1984.30012,855.997706 1980.27068,860.027144 1975.30012,860.027144 Z" opacity=".6"/>
    <rect width="6" height="6" x="2106.398" y="850.125" fill="#1DBCBC" opacity=".6" transform="rotate(30 2109.398 853.125)"/>
    <rect width="12" height="12" x="2591.278" y="624.125" fill="#1DBCBC" opacity=".4" transform="rotate(40 2597.278 630.125)"/>
    <rect width="6" height="6" x="2781.484" y="952.502" fill="#1DBCBC" opacity=".4" transform="rotate(165 2784.484 955.502)"/>
    <path fill="#1DBCBC" fill-rule="nonzero" d="M2714.56111,860 C2717.32253,860 2719.56111,857.761424 2719.56111,855 C2719.56111,852.238576 2717.32253,850 2714.56111,850 C2711.79969,850 2709.56111,852.238576 2709.56111,855 C2709.56111,857.761424 2711.79969,860 2714.56111,860 Z M2714.56111,864 C2709.59055,864 2705.56111,859.970563 2705.56111,855 C2705.56111,850.029437 2709.59055,846 2714.56111,846 C2719.53167,846 2723.56111,850.029437 2723.56111,855 C2723.56111,859.970563 2719.53167,864 2714.56111,864 Z" opacity=".4"/>
    <rect width="6" height="6" x="2835.098" y="891.098" fill="#1DBCBC" opacity=".3" transform="rotate(30 2838.098 894.098)"/>
    <rect width="6" height="6" x="2207.674" y="807.674" fill="#1DBCBC" opacity=".6" transform="rotate(-15 2210.674 810.674)"/>
    <rect width="6" height="6" x="2942.973" y="828.54" fill="#1DBCBC" opacity=".2" transform="scale(1 -1) rotate(25 6696.806 0)"/>
    <path fill="#1DBCBC" fill-rule="nonzero" d="M2221.5,889 C2223.98528,889 2226,886.985281 2226,884.5 C2226,882.014719 2223.98528,880 2221.5,880 C2219.01472,880 2217,882.014719 2217,884.5 C2217,886.985281 2219.01472,889 2221.5,889 Z M2221.5,893 C2216.80558,893 2213,889.19442 2213,884.5 C2213,879.80558 2216.80558,876 2221.5,876 C2226.19442,876 2230,879.80558 2230,884.5 C2230,889.19442 2226.19442,893 2221.5,893 Z" opacity=".6"/>
    <rect width="6" height="6" x="2291" y="822" fill="#1DBCBC" opacity=".6"/>
    <rect width="8" height="8" x="2508.127" y="884.221" fill="#1DBCBC" opacity=".5" transform="rotate(20 2512.127 888.22)"/>
    <polygon fill="#1DBCBC" points="2534.143 806.529 2540.652 806.529 2540.652 799.318 2545.953 799.318 2545.953 806.529 2552.463 806.529 2552.463 811.402 2545.953 811.402 2545.953 818.613 2540.652 818.613 2540.652 811.402 2534.143 811.402" opacity=".5" transform="scale(-1 1) rotate(85 0 -1966.562)"/>
    <rect width="6" height="6" x="2448.987" y="949.081" fill="#1DBCBC" opacity=".5" transform="scale(1 -1) rotate(25 6746.546 0)"/>
    <rect width="6" height="6" x="3125.104" y="823.393" fill="#1DBCBC" opacity=".2" transform="rotate(165 3128.104 826.393)"/>
    <rect width="6.299" height="6.299" x="3039.701" y="713.701" fill="#1DBCBC" opacity=".2" transform="matrix(-1 0 0 1 6085.701 0)"/>
    <rect width="6.299" height="6.299" x="3076.651" y="859.503" fill="#1DBCBC" opacity=".2" transform="scale(-1 1) rotate(30 0 -10631.317)"/>
    <path fill="#1DBCBC" fill-rule="nonzero" d="M3013,798 C3015.76142,798 3018,795.761424 3018,793 C3018,790.238576 3015.76142,788 3013,788 C3010.23858,788 3008,790.238576 3008,793 C3008,795.761424 3010.23858,798 3013,798 Z M3013,802 C3008.02944,802 3004,797.970563 3004,793 C3004,788.029437 3008.02944,784 3013,784 C3017.97056,784 3022,788.029437 3022,793 C3022,797.970563 3017.97056,802 3013,802 Z" opacity=".2"/>
    <rect width="6" height="6" x="3160.526" y="895.098" fill="#CCEFEF" opacity=".2" transform="rotate(30 3163.526 898.098)"/>
    <path fill="#1DBCBC" fill-rule="nonzero" d="M2883.5,751 C2887.64214,751 2891,747.642136 2891,743.5 C2891,739.357864 2887.64214,736 2883.5,736 C2879.35786,736 2876,739.357864 2876,743.5 C2876,747.642136 2879.35786,751 2883.5,751 Z M2883.5,755 C2877.14873,755 2872,749.851275 2872,743.5 C2872,737.148725 2877.14873,732 2883.5,732 C2889.85127,732 2895,737.148725 2895,743.5 C2895,749.851275 2889.85127,755 2883.5,755 Z" opacity=".2"/>
    <path fill="#1DBCBC" fill-rule="nonzero" d="M2461.5 794C2463.98528 794 2466 791.985281 2466 789.5 2466 787.014719 2463.98528 785 2461.5 785 2459.01472 785 2457 787.014719 2457 789.5 2457 791.985281 2459.01472 794 2461.5 794zM2461.5 798C2456.80558 798 2453 794.19442 2453 789.5 2453 784.80558 2456.80558 781 2461.5 781 2466.19442 781 2470 784.80558 2470 789.5 2470 794.19442 2466.19442 798 2461.5 798zM2337.5 973C2339.98528 973 2342 970.985281 2342 968.5 2342 966.014719 2339.98528 964 2337.5 964 2335.01472 964 2333 966.014719 2333 968.5 2333 970.985281 2335.01472 973 2337.5 973zM2337.5 977C2332.80558 977 2329 973.19442 2329 968.5 2329 963.80558 2332.80558 960 2337.5 960 2342.19442 960 2346 963.80558 2346 968.5 2346 973.19442 2342.19442 977 2337.5 977z" opacity=".6"/>
    <polygon fill="#1DBCBC" points="1708.238 912.284 1714.549 912.284 1714.549 905.292 1719.689 905.292 1719.689 912.284 1726 912.284 1726 917.008 1719.689 917.008 1719.689 924 1714.549 924 1714.549 917.008 1708.238 917.008" opacity=".6" transform="matrix(-1 0 0 1 3434.238 0)"/>
    <polygon fill="#1DBCBC" points="1608.721 916.363 1617.119 928.96 1600.323 928.96" opacity=".6" transform="rotate(10 1608.72 922.662)"/>
    <path fill="#1DBCBC" fill-rule="nonzero" d="M1672.92292,996.646975 C1675.53125,996.646975 1677.64583,994.532258 1677.64583,991.923488 C1677.64583,989.314717 1675.53125,987.2 1672.92292,987.2 C1670.31458,987.2 1668.2,989.314717 1668.2,991.923488 C1668.2,994.532258 1670.31458,996.646975 1672.92292,996.646975 Z M1672.92292,1000.84698 C1667.99493,1000.84698 1664,996.851794 1664,991.923488 C1664,986.995181 1667.99493,983 1672.92292,983 C1677.85091,983 1681.84583,986.995181 1681.84583,991.923488 C1681.84583,996.851794 1677.85091,1000.84698 1672.92292,1000.84698 Z" opacity=".6"/>
    <rect width="8.398" height="8.399" x="1551.183" y="1007.183" fill="#1DBCBC" opacity=".6" transform="scale(-1 1) rotate(20 0 -7809.628)"/>
    <rect width="12.597" height="12.598" x="2392.575" y="864.575" fill="#1DBCBC" opacity=".6" transform="rotate(130 2398.874 870.874)"/>
    <rect width="10.498" height="10.498" x="1656.356" y="832.356" fill="#1DBCBC" opacity=".6" transform="scale(1 -1) rotate(40 3962.906 0)"/>
    <path fill="#1DBCBC" fill-rule="nonzero" d="M1943.85088 964.774657L1936.37336 969.44713 1941.0453 976.923795 1948.52282 972.251321 1943.85088 964.774657zM1953.29748 973.353638L1939.94298 981.698452 1931.5987 968.344814 1944.9532 960 1953.29748 973.353638zM2055.20611 918C2059.34824 918 2062.70611 914.642136 2062.70611 910.5 2062.70611 906.357864 2059.34824 903 2055.20611 903 2051.06397 903 2047.70611 906.357864 2047.70611 910.5 2047.70611 914.642136 2051.06397 918 2055.20611 918zM2055.20611 922C2048.85483 922 2043.70611 916.851275 2043.70611 910.5 2043.70611 904.148725 2048.85483 899 2055.20611 899 2061.55738 899 2066.70611 904.148725 2066.70611 910.5 2066.70611 916.851275 2061.55738 922 2055.20611 922z" opacity=".6"/>
    <polygon fill="#1DBCBC" points="1204 194.66 1210.012 194.66 1210.012 188 1214.908 188 1214.908 194.66 1220.92 194.66 1220.92 199.16 1214.908 199.16 1214.908 205.82 1210.012 205.82 1210.012 199.16 1204 199.16" opacity=".6" transform="rotate(180 1212.46 196.91)"/>
    <path fill="#1DBCBC" fill-rule="nonzero" d="M1709.75949,154.5 C1714.17777,154.5 1717.75949,150.918278 1717.75949,146.5 C1717.75949,142.081722 1714.17777,138.5 1709.75949,138.5 C1705.34121,138.5 1701.75949,142.081722 1701.75949,146.5 C1701.75949,150.918278 1705.34121,154.5 1709.75949,154.5 Z M1709.75949,158.5 C1703.13207,158.5 1697.75949,153.127417 1697.75949,146.5 C1697.75949,139.872583 1703.13207,134.5 1709.75949,134.5 C1716.38691,134.5 1721.75949,139.872583 1721.75949,146.5 C1721.75949,153.127417 1716.38691,158.5 1709.75949,158.5 Z" opacity=".6" transform="rotate(180 1709.76 146.5)"/>
    <path fill="#1DBCBC" fill-rule="nonzero" d="M1702.16432,44.351516 L1704.01101,45.4144567 L1703.95731,46.9817145 L1702.04221,47.9157719 L1698.74624,46.0186281 L1702.16432,44.351516 Z M1686.30954,38.8601298 L1686.48697,37.6096169 L1688.63297,36.5629407 L1689.72763,37.1930177 L1689.25088,40.5531474 L1686.30954,38.8601298 Z M1687.71181,51.4004793 L1698.74624,46.0186281 L1689.25088,40.5531474 L1687.71181,51.4004793 Z M1686.78629,35.5 L1705.46029,46.2486598 L1683.75949,56.8328501 L1686.78629,35.5 Z" opacity=".6" transform="rotate(180 1694.61 46.166)"/>
    <polygon fill="#1DBCBC" points="1783.759 88.16 1789.771 88.16 1789.771 81.5 1794.667 81.5 1794.667 88.16 1800.679 88.16 1800.679 92.66 1794.667 92.66 1794.667 99.32 1789.771 99.32 1789.771 92.66 1783.759 92.66" opacity=".6" transform="rotate(180 1792.22 90.41)"/>
  </g>
</svg>
