<svg xmlns="http://www.w3.org/2000/svg" width="3331" height="485" viewBox="0 0 3331 485">
  <g fill="none" fill-rule="evenodd">
    <circle cx="1679" cy="290" r="9.2" stroke="#FFFFFF" stroke-width="3.6" opacity=".1" transform="rotate(37 1679 290)"/>
    <polygon fill="#FFFFFF" points="1551 204.354 1556.685 204.354 1556.685 198 1561.315 198 1561.315 204.354 1567 204.354 1567 208.646 1561.315 208.646 1561.315 215 1556.685 215 1556.685 208.646 1551 208.646" opacity=".1" transform="rotate(37 1559 206.5)"/>
    <rect width="11" height="11" x="1460" y="168" fill="#D8D8D8" opacity=".6" transform="rotate(37 1465.5 173.5)"/>
    <rect width="5" height="5" x="1695" y="353" fill="#D8D8D8" opacity=".1" transform="rotate(37 1697.5 355.5)"/>
    <rect width="5" height="5" x="1547" y="305" fill="#D8D8D8" opacity=".3" transform="rotate(37 1549.5 307.5)"/>
    <circle cx="1922" cy="347" r="5.2" stroke="#FFFFFF" stroke-width="3.6" opacity=".1" transform="rotate(37 1922 347)"/>
    <circle cx="1405.5" cy="256.5" r="5.7" stroke="#FFFFFF" stroke-width="3.6" opacity=".1" transform="rotate(37 1405.5 256.5)"/>
    <polygon fill="#FFFFFF" points="1769 231.97 1777.172 231.97 1777.172 223 1783.828 223 1783.828 231.97 1792 231.97 1792 238.03 1783.828 238.03 1783.828 247 1777.172 247 1777.172 238.03 1769 238.03" opacity=".12" transform="rotate(37 1780.5 235)"/>
    <rect width="5" height="5" x="2009" y="270" fill="#D8D8D8" opacity=".6" transform="rotate(37 2011.5 272.5)"/>
    <circle cx="2097.5" cy="248.5" r="5.7" stroke="#FFFFFF" stroke-width="3.6" opacity=".1" transform="rotate(37 2097.5 248.5)"/>
    <circle cx="1722" cy="82" r="6.2" stroke="#FFFFFF" stroke-width="3.6" opacity=".3" transform="rotate(37 1722 82)"/>
    <polygon fill="#FFFFFF" points="1915 202.98 1920.33 202.98 1920.33 197 1924.67 197 1924.67 202.98 1930 202.98 1930 207.02 1924.67 207.02 1924.67 213 1920.33 213 1920.33 207.02 1915 207.02" opacity=".2" transform="rotate(37 1922.5 205)"/>
    <rect width="5" height="5" x="1817" y="306" fill="#D8D8D8" opacity=".21" transform="rotate(37 1819.5 308.5)"/>
    <rect width="7" height="7" x="2404" y="359" fill="#D8D8D8" opacity=".7" transform="rotate(37 2407.5 362.5)"/>
    <circle cx="1819.5" cy="51.5" r="8.7" stroke="#FFFFFF" stroke-width="3.6" opacity=".2"/>
    <circle cx="1681.5" cy="146.5" r="5.7" stroke="#FFFFFF" stroke-width="3.6" opacity=".2"/>
    <circle cx="1251" cy="169" r="6.2" stroke="#FFFFFF" stroke-width="3.6" opacity=".2"/>
    <circle cx="1392" cy="356" r="9.2" stroke="#FFFFFF" stroke-width="3.6" opacity=".2"/>
    <circle cx="1584" cy="421" r="5.2" stroke="#FFFFFF" stroke-width="3.6" opacity=".2"/>
    <circle cx="2049.5" cy="351.5" r="5.7" stroke="#FFFFFF" stroke-width="3.6" opacity=".2"/>
    <circle cx="2156.5" cy="78.5" r="5.7" stroke="#FFFFFF" stroke-width="3.6" opacity=".2"/>
    <polygon fill="#FFFFFF" points="1499 100.98 1504.33 100.98 1504.33 95 1508.67 95 1508.67 100.98 1514 100.98 1514 105.02 1508.67 105.02 1508.67 111 1504.33 111 1504.33 105.02 1499 105.02" opacity=".2"/>
    <polygon fill="#FFFFFF" points="1987 114.212 1996.949 114.212 1996.949 103 2005.051 103 2005.051 114.212 2015 114.212 2015 121.788 2005.051 121.788 2005.051 133 1996.949 133 1996.949 121.788 1987 121.788" opacity=".2"/>
    <polygon fill="#FFFFFF" points="1768 414.97 1776.172 414.97 1776.172 406 1782.828 406 1782.828 414.97 1791 414.97 1791 421.03 1782.828 421.03 1782.828 430 1776.172 430 1776.172 421.03 1768 421.03" opacity=".2" transform="rotate(45 1779.5 418)"/>
    <polygon fill="#FFFFFF" points="2345 279.475 2351.751 279.475 2351.751 272 2357.249 272 2357.249 279.475 2364 279.475 2364 284.525 2357.249 284.525 2357.249 292 2351.751 292 2351.751 284.525 2345 284.525" opacity=".2" transform="rotate(45 2354.5 282)"/>
    <polygon fill="#FFFFFF" points="1264 270.354 1269.685 270.354 1269.685 264 1274.315 264 1274.315 270.354 1280 270.354 1280 274.646 1274.315 274.646 1274.315 281 1269.685 281 1269.685 274.646 1264 274.646" opacity=".2" transform="rotate(45 1272 272.5)"/>
    <rect width="5" height="5" x="1610" y="41" fill="#D8D8D8" opacity=".2"/>
    <rect width="5" height="5" x="2294" y="97" fill="#D8D8D8" opacity=".2"/>
    <rect width="11" height="11" x="2046" y="36" fill="#D8D8D8" opacity=".2" transform="rotate(40 2051.5 41.5)"/>
    <rect width="11" height="11" x="1172" y="233" fill="#D8D8D8" opacity=".2" transform="rotate(40 1177.5 238.5)"/>
    <rect width="7" height="7" x="2375" y="163" fill="#D8D8D8" opacity=".2" transform="rotate(20 2378.5 166.5)"/>
    <rect width="7" height="7" x="2116" y="425" fill="#D8D8D8" opacity=".2" transform="rotate(20 2119.5 428.5)"/>
    <rect width="7" height="7" x="1933" y="437" fill="#D8D8D8" opacity=".2" transform="rotate(20 1936.5 440.5)"/>
    <rect width="5" height="5" x="1384" y="172" fill="#D8D8D8" opacity=".2" transform="rotate(30 1386.5 174.5)"/>
    <rect width="5" height="5" x="1860" y="136" fill="#D8D8D8" opacity=".2" transform="rotate(-15 1862.5 138.5)"/>
    <rect width="5" height="5" x="1447" y="453" fill="#D8D8D8" opacity=".2" transform="rotate(-180 1449.5 455.5)"/>
    <rect width="5" height="5" x="1691" y="479" fill="#D8D8D8" opacity=".2" transform="rotate(-150 1693.5 481.5)"/>
    <rect width="5" height="5" x="1260" y="371" fill="#D8D8D8" opacity=".2" transform="rotate(165 1262.5 373.5)"/>
    <rect width="5" height="5" x="2388" y="418" fill="#D8D8D8" opacity=".2" transform="rotate(165 2390.5 420.5)"/>
    <g opacity=".7" transform="matrix(-1 0 0 1 3331 0)">
      <circle cx="381.405" cy="124.405" r="9.2" stroke="#FFFFFF" stroke-width="3.6" opacity=".1" transform="rotate(37 381.405 124.405)"/>
      <polygon fill="#FFFFFF" points="259.679 171.456 265.365 171.456 265.365 165.103 269.994 165.103 269.994 171.456 275.679 171.456 275.679 175.749 269.994 175.749 269.994 182.103 265.365 182.103 265.365 175.749 259.679 175.749" opacity=".1" transform="rotate(37 267.68 173.603)"/>
      <rect width="11" height="11" x="388.202" y="312.202" fill="#D8D8D8" opacity=".2" transform="rotate(37 393.702 317.702)"/>
      <rect width="5" height="5" x="403.176" y="320.001" fill="#D8D8D8" opacity=".1" transform="rotate(37 405.676 322.501)"/>
      <rect width="5" height="5" x="255.176" y="272.001" fill="#D8D8D8" opacity=".3" transform="rotate(37 257.676 274.501)"/>
      <circle cx="629.978" cy="313.803" r="5.2" stroke="#FFFFFF" stroke-width="3.6" opacity=".1" transform="rotate(37 629.978 313.803)"/>
      <circle cx="111.503" cy="235.503" r="5.7" stroke="#FFFFFF" stroke-width="3.6" opacity=".1" transform="rotate(37 111.503 235.503)"/>
      <polygon fill="#FFFFFF" points="409.906 217.474 418.078 217.474 418.078 208.504 424.734 208.504 424.734 217.474 432.906 217.474 432.906 223.535 424.734 223.535 424.734 232.504 418.078 232.504 418.078 223.535 409.906 223.535" opacity=".12" transform="rotate(37 421.406 220.504)"/>
      <rect width="5" height="5" x="717.176" y="237.001" fill="#D8D8D8" opacity=".6" transform="rotate(37 719.676 239.501)"/>
      <circle cx="805.678" cy="215.503" r="5.7" stroke="#FFFFFF" stroke-width="3.6" opacity=".1" transform="rotate(37 805.678 215.503)"/>
      <circle cx="150.204" cy="70.204" r="6.2" stroke="#FFFFFF" stroke-width="3.6" opacity=".1" transform="rotate(37 150.204 70.204)"/>
      <polygon fill="#FFFFFF" points="623.479 169.882 628.809 169.882 628.809 163.903 633.149 163.903 633.149 169.882 638.479 169.882 638.479 173.923 633.149 173.923 633.149 179.903 628.809 179.903 628.809 173.923 623.479 173.923" opacity=".2" transform="rotate(37 630.98 171.903)"/>
      <rect width="5" height="5" x="525.176" y="273.001" fill="#D8D8D8" opacity=".21" transform="rotate(37 527.676 275.501)"/>
      <rect width="7" height="7" x="1112.576" y="326.402" fill="#D8D8D8" opacity=".7" transform="rotate(37 1116.076 329.902)"/>
      <circle cx="527.675" cy="18.5" r="8.7" stroke="#FFFFFF" stroke-width="3.6" opacity=".2"/>
      <circle cx="41.5" cy="7.5" r="5.7" stroke="#FFFFFF" stroke-width="3.6" opacity=".1"/>
      <circle cx="954.751" cy="135" r="6.2" stroke="#FFFFFF" stroke-width="3.6" opacity=".2"/>
      <circle cx="17" cy="341" r="9.2" stroke="#FFFFFF" stroke-width="3.6" opacity=".2"/>
      <circle cx="292.175" cy="388" r="5.2" stroke="#FFFFFF" stroke-width="3.6" opacity=".2"/>
      <circle cx="757.675" cy="318.5" r="5.7" stroke="#FFFFFF" stroke-width="3.6" opacity=".2"/>
      <circle cx="864.675" cy="45.5" r="5.7" stroke="#FFFFFF" stroke-width="3.6" opacity=".2"/>
      <polygon fill="#FFFFFF" points="695.175 81.212 705.124 81.212 705.124 70 713.226 70 713.226 81.212 723.175 81.212 723.175 88.788 713.226 88.788 713.226 100 705.124 100 705.124 88.788 695.175 88.788" opacity=".2"/>
      <polygon fill="#FFFFFF" points="476.292 381.587 484.464 381.587 484.464 372.617 491.12 372.617 491.12 381.587 499.292 381.587 499.292 387.647 491.12 387.647 491.12 396.617 484.464 396.617 484.464 387.647 476.292 387.647" opacity=".2" transform="rotate(45 487.792 384.617)"/>
      <polygon fill="#FFFFFF" points="1053.464 246.263 1060.215 246.263 1060.215 238.789 1065.712 238.789 1065.712 246.263 1072.464 246.263 1072.464 251.314 1065.712 251.314 1065.712 258.789 1060.215 258.789 1060.215 251.314 1053.464 251.314" opacity=".2" transform="rotate(45 1062.964 248.789)"/>
      <polygon fill="#FFFFFF" points="967.419 236.521 973.104 236.521 973.104 230.167 977.734 230.167 977.734 236.521 983.419 236.521 983.419 240.814 977.734 240.814 977.734 247.167 973.104 247.167 973.104 240.814 967.419 240.814" opacity=".2" transform="rotate(45 975.419 238.667)"/>
      <rect width="5" height="5" x="318.175" y="8" fill="#D8D8D8" opacity=".2"/>
      <rect width="5" height="5" x="1002.175" y="64" fill="#D8D8D8" opacity=".2"/>
      <rect width="11" height="11" x="754.423" y="3.249" fill="#D8D8D8" opacity=".2" transform="rotate(40 759.923 8.749)"/>
      <rect width="11" height="11" x="876" y="199.249" fill="#D8D8D8" opacity=".2" transform="rotate(40 881.5 204.749)"/>
      <rect width="7" height="7" x="1083.161" y="129.986" fill="#D8D8D8" opacity=".2" transform="rotate(20 1086.66 133.486)"/>
      <rect width="7" height="7" x="824.161" y="391.986" fill="#D8D8D8" opacity=".2" transform="rotate(20 827.66 395.486)"/>
      <rect width="7" height="7" x="641.161" y="403.986" fill="#D8D8D8" opacity=".2" transform="rotate(20 644.66 407.486)"/>
      <rect width="5" height="5" x=".915" y="135.915" fill="#D8D8D8" opacity=".2" transform="rotate(30 3.415 138.415)"/>
      <rect width="5" height="5" x="568.737" y="102.562" fill="#D8D8D8" opacity=".2" transform="rotate(-15 571.237 105.062)"/>
      <rect width="5" height="5" x="155.175" y="420" fill="#D8D8D8" opacity=".2" transform="rotate(-180 157.675 422.5)"/>
      <rect width="5" height="5" x="399.09" y="445.915" fill="#D8D8D8" opacity=".2" transform="rotate(-150 401.59 448.415)"/>
      <rect width="5" height="5" x="964.313" y="336.562" fill="#D8D8D8" opacity=".2" transform="rotate(165 966.813 339.062)"/>
      <rect width="5" height="5" x="1096.737" y="384.562" fill="#D8D8D8" opacity=".2" transform="rotate(165 1099.237 387.062)"/>
    </g>
    <g opacity=".7">
      <circle cx="381.405" cy="124.405" r="9.2" stroke="#FFFFFF" stroke-width="3.6" opacity=".1" transform="rotate(37 381.405 124.405)"/>
      <polygon fill="#FFFFFF" points="259.679 171.456 265.365 171.456 265.365 165.103 269.994 165.103 269.994 171.456 275.679 171.456 275.679 175.749 269.994 175.749 269.994 182.103 265.365 182.103 265.365 175.749 259.679 175.749" opacity=".1" transform="rotate(37 267.68 173.603)"/>
      <rect width="11" height="11" x="388.202" y="312.202" fill="#D8D8D8" opacity=".2" transform="rotate(37 393.702 317.702)"/>
      <rect width="5" height="5" x="403.176" y="320.001" fill="#D8D8D8" opacity=".1" transform="rotate(37 405.676 322.501)"/>
      <rect width="5" height="5" x="255.176" y="272.001" fill="#D8D8D8" opacity=".3" transform="rotate(37 257.676 274.501)"/>
      <circle cx="629.978" cy="313.803" r="5.2" stroke="#FFFFFF" stroke-width="3.6" opacity=".1" transform="rotate(37 629.978 313.803)"/>
      <circle cx="111.503" cy="235.503" r="5.7" stroke="#FFFFFF" stroke-width="3.6" opacity=".1" transform="rotate(37 111.503 235.503)"/>
      <polygon fill="#FFFFFF" points="409.906 217.474 418.078 217.474 418.078 208.504 424.734 208.504 424.734 217.474 432.906 217.474 432.906 223.535 424.734 223.535 424.734 232.504 418.078 232.504 418.078 223.535 409.906 223.535" opacity=".12" transform="rotate(37 421.406 220.504)"/>
      <rect width="5" height="5" x="717.176" y="237.001" fill="#D8D8D8" opacity=".6" transform="rotate(37 719.676 239.501)"/>
      <circle cx="805.678" cy="215.503" r="5.7" stroke="#FFFFFF" stroke-width="3.6" opacity=".1" transform="rotate(37 805.678 215.503)"/>
      <circle cx="150.204" cy="70.204" r="6.2" stroke="#FFFFFF" stroke-width="3.6" opacity=".1" transform="rotate(37 150.204 70.204)"/>
      <polygon fill="#FFFFFF" points="623.479 169.882 628.809 169.882 628.809 163.903 633.149 163.903 633.149 169.882 638.479 169.882 638.479 173.923 633.149 173.923 633.149 179.903 628.809 179.903 628.809 173.923 623.479 173.923" opacity=".2" transform="rotate(37 630.98 171.903)"/>
      <rect width="5" height="5" x="525.176" y="273.001" fill="#D8D8D8" opacity=".21" transform="rotate(37 527.676 275.501)"/>
      <rect width="7" height="7" x="1112.576" y="326.402" fill="#D8D8D8" opacity=".7" transform="rotate(37 1116.076 329.902)"/>
      <circle cx="527.675" cy="18.5" r="8.7" stroke="#FFFFFF" stroke-width="3.6" opacity=".2"/>
      <circle cx="41.5" cy="7.5" r="5.7" stroke="#FFFFFF" stroke-width="3.6" opacity=".1"/>
      <circle cx="954.751" cy="135" r="6.2" stroke="#FFFFFF" stroke-width="3.6" opacity=".2"/>
      <circle cx="17" cy="341" r="9.2" stroke="#FFFFFF" stroke-width="3.6" opacity=".2"/>
      <circle cx="292.175" cy="388" r="5.2" stroke="#FFFFFF" stroke-width="3.6" opacity=".2"/>
      <circle cx="757.675" cy="318.5" r="5.7" stroke="#FFFFFF" stroke-width="3.6" opacity=".2"/>
      <circle cx="864.675" cy="45.5" r="5.7" stroke="#FFFFFF" stroke-width="3.6" opacity=".2"/>
      <polygon fill="#FFFFFF" points="695.175 81.212 705.124 81.212 705.124 70 713.226 70 713.226 81.212 723.175 81.212 723.175 88.788 713.226 88.788 713.226 100 705.124 100 705.124 88.788 695.175 88.788" opacity=".2"/>
      <polygon fill="#FFFFFF" points="476.292 381.587 484.464 381.587 484.464 372.617 491.12 372.617 491.12 381.587 499.292 381.587 499.292 387.647 491.12 387.647 491.12 396.617 484.464 396.617 484.464 387.647 476.292 387.647" opacity=".2" transform="rotate(45 487.792 384.617)"/>
      <polygon fill="#FFFFFF" points="1053.464 246.263 1060.215 246.263 1060.215 238.789 1065.712 238.789 1065.712 246.263 1072.464 246.263 1072.464 251.314 1065.712 251.314 1065.712 258.789 1060.215 258.789 1060.215 251.314 1053.464 251.314" opacity=".2" transform="rotate(45 1062.964 248.789)"/>
      <polygon fill="#FFFFFF" points="967.419 236.521 973.104 236.521 973.104 230.167 977.734 230.167 977.734 236.521 983.419 236.521 983.419 240.814 977.734 240.814 977.734 247.167 973.104 247.167 973.104 240.814 967.419 240.814" opacity=".2" transform="rotate(45 975.419 238.667)"/>
      <rect width="5" height="5" x="318.175" y="8" fill="#D8D8D8" opacity=".2"/>
      <rect width="5" height="5" x="1002.175" y="64" fill="#D8D8D8" opacity=".2"/>
      <rect width="11" height="11" x="754.423" y="3.249" fill="#D8D8D8" opacity=".2" transform="rotate(40 759.923 8.749)"/>
      <rect width="11" height="11" x="876" y="199.249" fill="#D8D8D8" opacity=".2" transform="rotate(40 881.5 204.749)"/>
      <rect width="7" height="7" x="1083.161" y="129.986" fill="#D8D8D8" opacity=".2" transform="rotate(20 1086.66 133.486)"/>
      <rect width="7" height="7" x="824.161" y="391.986" fill="#D8D8D8" opacity=".2" transform="rotate(20 827.66 395.486)"/>
      <rect width="7" height="7" x="641.161" y="403.986" fill="#D8D8D8" opacity=".2" transform="rotate(20 644.66 407.486)"/>
      <rect width="5" height="5" x=".915" y="135.915" fill="#D8D8D8" opacity=".2" transform="rotate(30 3.415 138.415)"/>
      <rect width="5" height="5" x="568.737" y="102.562" fill="#D8D8D8" opacity=".2" transform="rotate(-15 571.237 105.062)"/>
      <rect width="5" height="5" x="155.175" y="420" fill="#D8D8D8" opacity=".2" transform="rotate(-180 157.675 422.5)"/>
      <rect width="5" height="5" x="399.09" y="445.915" fill="#D8D8D8" opacity=".2" transform="rotate(-150 401.59 448.415)"/>
      <rect width="5" height="5" x="964.313" y="336.562" fill="#D8D8D8" opacity=".2" transform="rotate(165 966.813 339.062)"/>
      <rect width="5" height="5" x="1096.737" y="384.562" fill="#D8D8D8" opacity=".2" transform="rotate(165 1099.237 387.062)"/>
    </g>
  </g>
</svg>
