<svg xmlns="http://www.w3.org/2000/svg" width="3331" height="537" viewBox="0 0 3331 537">
  <g fill="none" fill-rule="evenodd" transform="translate(0 -3)">
    <circle cx="1679" cy="311" r="9.2" stroke="#FFFFFF" stroke-width="3.6" opacity=".1" transform="rotate(37 1679 311)"/>
    <polygon fill="#FFFFFF" points="1551 225.354 1556.685 225.354 1556.685 219 1561.315 219 1561.315 225.354 1567 225.354 1567 229.646 1561.315 229.646 1561.315 236 1556.685 236 1556.685 229.646 1551 229.646" opacity=".1" transform="rotate(37 1559 227.5)"/>
    <rect width="11" height="11" x="1460" y="189" fill="#D8D8D8" opacity=".6" transform="rotate(37 1465.5 194.5)"/>
    <rect width="5" height="5" x="1695" y="374" fill="#D8D8D8" opacity=".1" transform="rotate(37 1697.5 376.5)"/>
    <rect width="5" height="5" x="1547" y="326" fill="#D8D8D8" opacity=".3" transform="rotate(37 1549.5 328.5)"/>
    <circle cx="1922" cy="368" r="5.2" stroke="#FFFFFF" stroke-width="3.6" opacity=".1" transform="rotate(37 1922 368)"/>
    <circle cx="1405.5" cy="277.5" r="5.7" stroke="#FFFFFF" stroke-width="3.6" opacity=".1" transform="rotate(37 1405.5 277.5)"/>
    <polygon fill="#FFFFFF" points="1769 252.97 1777.172 252.97 1777.172 244 1783.828 244 1783.828 252.97 1792 252.97 1792 259.03 1783.828 259.03 1783.828 268 1777.172 268 1777.172 259.03 1769 259.03" opacity=".12" transform="rotate(37 1780.5 256)"/>
    <rect width="5" height="5" x="2009" y="291" fill="#D8D8D8" opacity=".6" transform="rotate(37 2011.5 293.5)"/>
    <circle cx="2097.5" cy="269.5" r="5.7" stroke="#FFFFFF" stroke-width="3.6" opacity=".1" transform="rotate(37 2097.5 269.5)"/>
    <circle cx="1722" cy="103" r="6.2" stroke="#FFFFFF" stroke-width="3.6" opacity=".3" transform="rotate(37 1722 103)"/>
    <polygon fill="#FFFFFF" points="1915 223.98 1920.33 223.98 1920.33 218 1924.67 218 1924.67 223.98 1930 223.98 1930 228.02 1924.67 228.02 1924.67 234 1920.33 234 1920.33 228.02 1915 228.02" opacity=".2" transform="rotate(37 1922.5 226)"/>
    <rect width="5" height="5" x="1817" y="327" fill="#D8D8D8" opacity=".21" transform="rotate(37 1819.5 329.5)"/>
    <rect width="7" height="7" x="2404" y="380" fill="#D8D8D8" opacity=".7" transform="rotate(37 2407.5 383.5)"/>
    <circle cx="1819.5" cy="72.5" r="8.7" stroke="#FFFFFF" stroke-width="3.6" opacity=".2"/>
    <circle cx="1681.5" cy="167.5" r="5.7" stroke="#FFFFFF" stroke-width="3.6" opacity=".2"/>
    <circle cx="1251" cy="190" r="6.2" stroke="#FFFFFF" stroke-width="3.6" opacity=".2"/>
    <circle cx="1392" cy="377" r="9.2" stroke="#FFFFFF" stroke-width="3.6" opacity=".2"/>
    <circle cx="1584" cy="442" r="5.2" stroke="#FFFFFF" stroke-width="3.6" opacity=".2"/>
    <circle cx="2049.5" cy="372.5" r="5.7" stroke="#FFFFFF" stroke-width="3.6" opacity=".2"/>
    <circle cx="2156.5" cy="99.5" r="5.7" stroke="#FFFFFF" stroke-width="3.6" opacity=".2"/>
    <polygon fill="#FFFFFF" points="1499 121.98 1504.33 121.98 1504.33 116 1508.67 116 1508.67 121.98 1514 121.98 1514 126.02 1508.67 126.02 1508.67 132 1504.33 132 1504.33 126.02 1499 126.02" opacity=".2"/>
    <polygon fill="#FFFFFF" points="1987 135.212 1996.949 135.212 1996.949 124 2005.051 124 2005.051 135.212 2015 135.212 2015 142.788 2005.051 142.788 2005.051 154 1996.949 154 1996.949 142.788 1987 142.788" opacity=".2"/>
    <polygon fill="#FFFFFF" points="1768 435.97 1776.172 435.97 1776.172 427 1782.828 427 1782.828 435.97 1791 435.97 1791 442.03 1782.828 442.03 1782.828 451 1776.172 451 1776.172 442.03 1768 442.03" opacity=".2" transform="rotate(45 1779.5 439)"/>
    <polygon fill="#FFFFFF" points="2345 300.475 2351.751 300.475 2351.751 293 2357.249 293 2357.249 300.475 2364 300.475 2364 305.525 2357.249 305.525 2357.249 313 2351.751 313 2351.751 305.525 2345 305.525" opacity=".2" transform="rotate(45 2354.5 303)"/>
    <polygon fill="#FFFFFF" points="1264 291.354 1269.685 291.354 1269.685 285 1274.315 285 1274.315 291.354 1280 291.354 1280 295.646 1274.315 295.646 1274.315 302 1269.685 302 1269.685 295.646 1264 295.646" opacity=".2" transform="rotate(45 1272 293.5)"/>
    <rect width="5" height="5" x="1610" y="62" fill="#D8D8D8" opacity=".2"/>
    <rect width="5" height="5" x="2294" y="118" fill="#D8D8D8" opacity=".2"/>
    <rect width="11" height="11" x="2046" y="57" fill="#D8D8D8" opacity=".2" transform="rotate(40 2051.5 62.5)"/>
    <rect width="11" height="11" x="1172" y="254" fill="#D8D8D8" opacity=".2" transform="rotate(40 1177.5 259.5)"/>
    <rect width="7" height="7" x="2375" y="184" fill="#D8D8D8" opacity=".2" transform="rotate(20 2378.5 187.5)"/>
    <rect width="7" height="7" x="2116" y="446" fill="#D8D8D8" opacity=".2" transform="rotate(20 2119.5 449.5)"/>
    <rect width="7" height="7" x="1933" y="458" fill="#D8D8D8" opacity=".2" transform="rotate(20 1936.5 461.5)"/>
    <rect width="5" height="5" x="1384" y="193" fill="#D8D8D8" opacity=".2" transform="rotate(30 1386.5 195.5)"/>
    <rect width="5" height="5" x="1860" y="157" fill="#D8D8D8" opacity=".2" transform="rotate(-15 1862.5 159.5)"/>
    <rect width="5" height="5" x="1447" y="474" fill="#D8D8D8" opacity=".2" transform="rotate(-180 1449.5 476.5)"/>
    <rect width="5" height="5" x="1691" y="500" fill="#D8D8D8" opacity=".2" transform="rotate(-150 1693.5 502.5)"/>
    <rect width="5" height="5" x="1260" y="392" fill="#D8D8D8" opacity=".2" transform="rotate(165 1262.5 394.5)"/>
    <rect width="5" height="5" x="2388" y="439" fill="#D8D8D8" opacity=".2" transform="rotate(165 2390.5 441.5)"/>
    <g opacity=".7" transform="matrix(-1 0 0 1 3331 21)">
      <circle cx="381.405" cy="124.405" r="9.2" stroke="#FFFFFF" stroke-width="3.6" opacity=".1" transform="rotate(37 381.405 124.405)"/>
      <polygon fill="#FFFFFF" points="259.679 171.456 265.365 171.456 265.365 165.103 269.994 165.103 269.994 171.456 275.679 171.456 275.679 175.749 269.994 175.749 269.994 182.103 265.365 182.103 265.365 175.749 259.679 175.749" opacity=".1" transform="rotate(37 267.68 173.603)"/>
      <rect width="11" height="11" x="388.202" y="312.202" fill="#D8D8D8" opacity=".2" transform="rotate(37 393.702 317.702)"/>
      <rect width="5" height="5" x="403.176" y="320.001" fill="#D8D8D8" opacity=".1" transform="rotate(37 405.676 322.501)"/>
      <rect width="5" height="5" x="255.176" y="272.001" fill="#D8D8D8" opacity=".3" transform="rotate(37 257.676 274.501)"/>
      <circle cx="629.978" cy="313.803" r="5.2" stroke="#FFFFFF" stroke-width="3.6" opacity=".1" transform="rotate(37 629.978 313.803)"/>
      <circle cx="111.503" cy="235.503" r="5.7" stroke="#FFFFFF" stroke-width="3.6" opacity=".1" transform="rotate(37 111.503 235.503)"/>
      <polygon fill="#FFFFFF" points="409.906 217.474 418.078 217.474 418.078 208.504 424.734 208.504 424.734 217.474 432.906 217.474 432.906 223.535 424.734 223.535 424.734 232.504 418.078 232.504 418.078 223.535 409.906 223.535" opacity=".12" transform="rotate(37 421.406 220.504)"/>
      <rect width="5" height="5" x="717.176" y="237.001" fill="#D8D8D8" opacity=".6" transform="rotate(37 719.676 239.501)"/>
      <circle cx="805.678" cy="215.503" r="5.7" stroke="#FFFFFF" stroke-width="3.6" opacity=".1" transform="rotate(37 805.678 215.503)"/>
      <circle cx="150.204" cy="70.204" r="6.2" stroke="#FFFFFF" stroke-width="3.6" opacity=".1" transform="rotate(37 150.204 70.204)"/>
      <polygon fill="#FFFFFF" points="623.479 169.882 628.809 169.882 628.809 163.903 633.149 163.903 633.149 169.882 638.479 169.882 638.479 173.923 633.149 173.923 633.149 179.903 628.809 179.903 628.809 173.923 623.479 173.923" opacity=".2" transform="rotate(37 630.98 171.903)"/>
      <rect width="5" height="5" x="525.176" y="273.001" fill="#D8D8D8" opacity=".21" transform="rotate(37 527.676 275.501)"/>
      <rect width="7" height="7" x="1112.576" y="326.402" fill="#D8D8D8" opacity=".7" transform="rotate(37 1116.076 329.902)"/>
      <circle cx="527.675" cy="18.5" r="8.7" stroke="#FFFFFF" stroke-width="3.6" opacity=".2"/>
      <circle cx="41.5" cy="7.5" r="5.7" stroke="#FFFFFF" stroke-width="3.6" opacity=".1"/>
      <circle cx="954.751" cy="135" r="6.2" stroke="#FFFFFF" stroke-width="3.6" opacity=".2"/>
      <circle cx="17" cy="341" r="9.2" stroke="#FFFFFF" stroke-width="3.6" opacity=".2"/>
      <circle cx="292.175" cy="388" r="5.2" stroke="#FFFFFF" stroke-width="3.6" opacity=".2"/>
      <circle cx="757.675" cy="318.5" r="5.7" stroke="#FFFFFF" stroke-width="3.6" opacity=".2"/>
      <circle cx="864.675" cy="45.5" r="5.7" stroke="#FFFFFF" stroke-width="3.6" opacity=".2"/>
      <polygon fill="#FFFFFF" points="695.175 81.212 705.124 81.212 705.124 70 713.226 70 713.226 81.212 723.175 81.212 723.175 88.788 713.226 88.788 713.226 100 705.124 100 705.124 88.788 695.175 88.788" opacity=".2"/>
      <polygon fill="#FFFFFF" points="476.292 381.587 484.464 381.587 484.464 372.617 491.12 372.617 491.12 381.587 499.292 381.587 499.292 387.647 491.12 387.647 491.12 396.617 484.464 396.617 484.464 387.647 476.292 387.647" opacity=".2" transform="rotate(45 487.792 384.617)"/>
      <polygon fill="#FFFFFF" points="1053.464 246.263 1060.215 246.263 1060.215 238.789 1065.712 238.789 1065.712 246.263 1072.464 246.263 1072.464 251.314 1065.712 251.314 1065.712 258.789 1060.215 258.789 1060.215 251.314 1053.464 251.314" opacity=".2" transform="rotate(45 1062.964 248.789)"/>
      <polygon fill="#FFFFFF" points="967.419 236.521 973.104 236.521 973.104 230.167 977.734 230.167 977.734 236.521 983.419 236.521 983.419 240.814 977.734 240.814 977.734 247.167 973.104 247.167 973.104 240.814 967.419 240.814" opacity=".2" transform="rotate(45 975.419 238.667)"/>
      <rect width="5" height="5" x="318.175" y="8" fill="#D8D8D8" opacity=".2"/>
      <rect width="5" height="5" x="1002.175" y="64" fill="#D8D8D8" opacity=".2"/>
      <rect width="11" height="11" x="754.423" y="3.249" fill="#D8D8D8" opacity=".2" transform="rotate(40 759.923 8.749)"/>
      <rect width="11" height="11" x="876" y="199.249" fill="#D8D8D8" opacity=".2" transform="rotate(40 881.5 204.749)"/>
      <rect width="7" height="7" x="1083.161" y="129.986" fill="#D8D8D8" opacity=".2" transform="rotate(20 1086.66 133.486)"/>
      <rect width="7" height="7" x="824.161" y="391.986" fill="#D8D8D8" opacity=".2" transform="rotate(20 827.66 395.486)"/>
      <rect width="7" height="7" x="641.161" y="403.986" fill="#D8D8D8" opacity=".2" transform="rotate(20 644.66 407.486)"/>
      <rect width="5" height="5" x=".915" y="135.915" fill="#D8D8D8" opacity=".2" transform="rotate(30 3.415 138.415)"/>
      <rect width="5" height="5" x="568.737" y="102.562" fill="#D8D8D8" opacity=".2" transform="rotate(-15 571.237 105.062)"/>
      <rect width="5" height="5" x="155.175" y="420" fill="#D8D8D8" opacity=".2" transform="rotate(-180 157.675 422.5)"/>
      <rect width="5" height="5" x="399.09" y="445.915" fill="#D8D8D8" opacity=".2" transform="rotate(-150 401.59 448.415)"/>
      <rect width="5" height="5" x="964.313" y="336.562" fill="#D8D8D8" opacity=".2" transform="rotate(165 966.813 339.062)"/>
      <rect width="5" height="5" x="1096.737" y="384.562" fill="#D8D8D8" opacity=".2" transform="rotate(165 1099.237 387.062)"/>
    </g>
    <g opacity=".7" transform="translate(0 21)">
      <circle cx="381.405" cy="124.405" r="9.2" stroke="#FFFFFF" stroke-width="3.6" opacity=".1" transform="rotate(37 381.405 124.405)"/>
      <polygon fill="#FFFFFF" points="259.679 171.456 265.365 171.456 265.365 165.103 269.994 165.103 269.994 171.456 275.679 171.456 275.679 175.749 269.994 175.749 269.994 182.103 265.365 182.103 265.365 175.749 259.679 175.749" opacity=".1" transform="rotate(37 267.68 173.603)"/>
      <rect width="11" height="11" x="388.202" y="312.202" fill="#D8D8D8" opacity=".2" transform="rotate(37 393.702 317.702)"/>
      <rect width="5" height="5" x="403.176" y="320.001" fill="#D8D8D8" opacity=".1" transform="rotate(37 405.676 322.501)"/>
      <rect width="5" height="5" x="255.176" y="272.001" fill="#D8D8D8" opacity=".3" transform="rotate(37 257.676 274.501)"/>
      <circle cx="629.978" cy="313.803" r="5.2" stroke="#FFFFFF" stroke-width="3.6" opacity=".1" transform="rotate(37 629.978 313.803)"/>
      <circle cx="111.503" cy="235.503" r="5.7" stroke="#FFFFFF" stroke-width="3.6" opacity=".1" transform="rotate(37 111.503 235.503)"/>
      <polygon fill="#FFFFFF" points="409.906 217.474 418.078 217.474 418.078 208.504 424.734 208.504 424.734 217.474 432.906 217.474 432.906 223.535 424.734 223.535 424.734 232.504 418.078 232.504 418.078 223.535 409.906 223.535" opacity=".12" transform="rotate(37 421.406 220.504)"/>
      <rect width="5" height="5" x="717.176" y="237.001" fill="#D8D8D8" opacity=".6" transform="rotate(37 719.676 239.501)"/>
      <circle cx="805.678" cy="215.503" r="5.7" stroke="#FFFFFF" stroke-width="3.6" opacity=".1" transform="rotate(37 805.678 215.503)"/>
      <circle cx="150.204" cy="70.204" r="6.2" stroke="#FFFFFF" stroke-width="3.6" opacity=".1" transform="rotate(37 150.204 70.204)"/>
      <polygon fill="#FFFFFF" points="623.479 169.882 628.809 169.882 628.809 163.903 633.149 163.903 633.149 169.882 638.479 169.882 638.479 173.923 633.149 173.923 633.149 179.903 628.809 179.903 628.809 173.923 623.479 173.923" opacity=".2" transform="rotate(37 630.98 171.903)"/>
      <rect width="5" height="5" x="525.176" y="273.001" fill="#D8D8D8" opacity=".21" transform="rotate(37 527.676 275.501)"/>
      <rect width="7" height="7" x="1112.576" y="326.402" fill="#D8D8D8" opacity=".7" transform="rotate(37 1116.076 329.902)"/>
      <circle cx="527.675" cy="18.5" r="8.7" stroke="#FFFFFF" stroke-width="3.6" opacity=".2"/>
      <circle cx="41.5" cy="7.5" r="5.7" stroke="#FFFFFF" stroke-width="3.6" opacity=".1"/>
      <circle cx="954.751" cy="135" r="6.2" stroke="#FFFFFF" stroke-width="3.6" opacity=".2"/>
      <circle cx="17" cy="341" r="9.2" stroke="#FFFFFF" stroke-width="3.6" opacity=".2"/>
      <circle cx="292.175" cy="388" r="5.2" stroke="#FFFFFF" stroke-width="3.6" opacity=".2"/>
      <circle cx="757.675" cy="318.5" r="5.7" stroke="#FFFFFF" stroke-width="3.6" opacity=".2"/>
      <circle cx="864.675" cy="45.5" r="5.7" stroke="#FFFFFF" stroke-width="3.6" opacity=".2"/>
      <polygon fill="#FFFFFF" points="695.175 81.212 705.124 81.212 705.124 70 713.226 70 713.226 81.212 723.175 81.212 723.175 88.788 713.226 88.788 713.226 100 705.124 100 705.124 88.788 695.175 88.788" opacity=".2"/>
      <polygon fill="#FFFFFF" points="476.292 381.587 484.464 381.587 484.464 372.617 491.12 372.617 491.12 381.587 499.292 381.587 499.292 387.647 491.12 387.647 491.12 396.617 484.464 396.617 484.464 387.647 476.292 387.647" opacity=".2" transform="rotate(45 487.792 384.617)"/>
      <polygon fill="#FFFFFF" points="1053.464 246.263 1060.215 246.263 1060.215 238.789 1065.712 238.789 1065.712 246.263 1072.464 246.263 1072.464 251.314 1065.712 251.314 1065.712 258.789 1060.215 258.789 1060.215 251.314 1053.464 251.314" opacity=".2" transform="rotate(45 1062.964 248.789)"/>
      <polygon fill="#FFFFFF" points="967.419 236.521 973.104 236.521 973.104 230.167 977.734 230.167 977.734 236.521 983.419 236.521 983.419 240.814 977.734 240.814 977.734 247.167 973.104 247.167 973.104 240.814 967.419 240.814" opacity=".2" transform="rotate(45 975.419 238.667)"/>
      <rect width="5" height="5" x="318.175" y="8" fill="#D8D8D8" opacity=".2"/>
      <rect width="5" height="5" x="1002.175" y="64" fill="#D8D8D8" opacity=".2"/>
      <rect width="11" height="11" x="754.423" y="3.249" fill="#D8D8D8" opacity=".2" transform="rotate(40 759.923 8.749)"/>
      <rect width="11" height="11" x="876" y="199.249" fill="#D8D8D8" opacity=".2" transform="rotate(40 881.5 204.749)"/>
      <rect width="7" height="7" x="1083.161" y="129.986" fill="#D8D8D8" opacity=".2" transform="rotate(20 1086.66 133.486)"/>
      <rect width="7" height="7" x="824.161" y="391.986" fill="#D8D8D8" opacity=".2" transform="rotate(20 827.66 395.486)"/>
      <rect width="7" height="7" x="641.161" y="403.986" fill="#D8D8D8" opacity=".2" transform="rotate(20 644.66 407.486)"/>
      <rect width="5" height="5" x=".915" y="135.915" fill="#D8D8D8" opacity=".2" transform="rotate(30 3.415 138.415)"/>
      <rect width="5" height="5" x="568.737" y="102.562" fill="#D8D8D8" opacity=".2" transform="rotate(-15 571.237 105.062)"/>
      <rect width="5" height="5" x="155.175" y="420" fill="#D8D8D8" opacity=".2" transform="rotate(-180 157.675 422.5)"/>
      <rect width="5" height="5" x="399.09" y="445.915" fill="#D8D8D8" opacity=".2" transform="rotate(-150 401.59 448.415)"/>
      <rect width="5" height="5" x="964.313" y="336.562" fill="#D8D8D8" opacity=".2" transform="rotate(165 966.813 339.062)"/>
      <rect width="5" height="5" x="1096.737" y="384.562" fill="#D8D8D8" opacity=".2" transform="rotate(165 1099.237 387.062)"/>
    </g>
    <rect width="11" height="11" x="1211.202" y="25.202" fill="#D8D8D8" opacity=".2" transform="rotate(37 1216.702 30.702)"/>
    <rect width="5" height="5" x="1282.675" y="31" fill="#D8D8D8" opacity=".1" transform="rotate(37 1285.175 33.5)"/>
    <rect width="5" height="5" x="1079.001" y="15.001" fill="#D8D8D8" opacity=".3" transform="rotate(37 1081.501 17.501)"/>
    <rect width="5" height="5" x="1426.001" y="37.001" fill="#D8D8D8" opacity=".21" transform="rotate(37 1428.501 39.501)"/>
    <circle cx="1171.674" cy="98.999" r="5.2" stroke="#FFFFFF" stroke-width="3.6" opacity=".2"/>
    <polygon fill="#FFFFFF" points="1355.791 92.586 1363.963 92.586 1363.963 83.616 1370.618 83.616 1370.618 92.586 1378.791 92.586 1378.791 98.646 1370.618 98.646 1370.618 107.616 1363.963 107.616 1363.963 98.646 1355.791 98.646" opacity=".2" transform="rotate(45 1367.29 95.616)"/>
    <rect width="5" height="5" x="1278.589" y="156.914" fill="#D8D8D8" opacity=".2" transform="rotate(-150 1281.089 159.414)"/>
    <polygon fill="#FFFFFF" points="1645.505 9.456 1651.19 9.456 1651.19 3.103 1655.819 3.103 1655.819 9.456 1661.505 9.456 1661.505 13.749 1655.819 13.749 1655.819 20.103 1651.19 20.103 1651.19 13.749 1645.505 13.749" opacity=".1" transform="rotate(37 1653.505 11.603)"/>
    <circle cx="952.503" cy="24.503" r="5.7" stroke="#FFFFFF" stroke-width="3.6" opacity=".1" transform="rotate(37 952.503 24.503)"/>
    <circle cx="1122" cy="216" r="9.2" stroke="#FFFFFF" stroke-width="3.6" opacity=".2"/>
    <circle cx="1882.5" cy="11.5" r="5.7" stroke="#FFFFFF" stroke-width="3.6" opacity=".2"/>
    <rect width="7" height="7" x="1948.986" y="84.986" fill="#D8D8D8" opacity=".2" transform="rotate(20 1952.486 88.486)"/>
    <rect width="5" height="5" x="2089.562" y="29.562" fill="#D8D8D8" opacity=".2" transform="rotate(165 2092.062 32.062)"/>
    <circle cx="2236.503" cy="19.503" r="5.7" stroke="#FFFFFF" stroke-width="3.6" opacity=".1" transform="rotate(37 2236.503 19.503)"/>
    <polygon fill="#FFFFFF" points="2470.289 321.263 2477.04 321.263 2477.04 313.789 2482.538 313.789 2482.538 321.263 2489.289 321.263 2489.289 326.314 2482.538 326.314 2482.538 333.789 2477.04 333.789 2477.04 326.314 2470.289 326.314" opacity=".2" transform="rotate(45 2479.789 323.789)"/>
    <polygon fill="#FFFFFF" points="2525.667 149.521 2531.352 149.521 2531.352 143.167 2535.982 143.167 2535.982 149.521 2541.667 149.521 2541.667 153.814 2535.982 153.814 2535.982 160.167 2531.352 160.167 2531.352 153.814 2525.667 153.814" opacity=".2" transform="rotate(45 2533.667 151.667)"/>
    <rect width="11" height="11" x="2414.249" y="32.249" fill="#D8D8D8" opacity=".2" transform="rotate(40 2419.749 37.749)"/>
    <circle cx="1200.5" cy="449.5" r="8.7" stroke="#FFFFFF" stroke-width="3.6" opacity=".2"/>
    <circle cx="2002.5" cy="491.5" r="5.7" stroke="#FFFFFF" stroke-width="3.6" opacity=".2"/>
    <polygon fill="#FFFFFF" points="1337 458.212 1346.949 458.212 1346.949 447 1355.051 447 1355.051 458.212 1365 458.212 1365 465.788 1355.051 465.788 1355.051 477 1346.949 477 1346.949 465.788 1337 465.788" opacity=".2"/>
    <rect width="11" height="11" x="1481.249" y="398.249" fill="#D8D8D8" opacity=".2" transform="rotate(40 1486.749 403.749)"/>
    <rect width="5" height="5" x="1241.562" y="533.562" fill="#D8D8D8" opacity=".2" transform="rotate(-15 1244.062 536.062)"/>
    <circle cx="506.405" cy="174.405" r="9.2" stroke="#FFFFFF" stroke-width="3.6" opacity=".1" transform="rotate(37 506.405 174.405)"/>
    <polygon fill="#FFFFFF" points="435.906 85.474 444.078 85.474 444.078 76.504 450.734 76.504 450.734 85.474 458.906 85.474 458.906 91.535 450.734 91.535 450.734 100.504 444.078 100.504 444.078 91.535 435.906 91.535" opacity=".12" transform="rotate(37 447.406 88.504)"/>
  </g>
</svg>
