<svg xmlns="http://www.w3.org/2000/svg" width="5000" height="1046"><path fill="#FFF" fill-rule="evenodd" d="M5000 1046H0s292.734-39.008 582.914-82.047c290.18-43.04 298.68-120.914 540.867-163.766 242.188-42.852 283.532 61.062 506.133 18.625 222.602-42.438 154.516-143.586 369.906-176.398 215.39-32.813 237.914 87.029 379.39 68.789 141.478-18.24 146.477-140.314 326.743-163.79 180.266-23.475 246.742 93.508 425.117 48.836 178.375-44.671 155.32-166.789 371.227-233.476 215.906-66.688 333.32 34.96 507.312-20.586 173.993-55.547 160.672-210.547 375.172-303.078C4474.58.37 4702.055-61.517 4814.063 153.203c78.741 150.948 103.25 810.757 125.156 841.125 21.906 30.367 60.781 51.671 60.781 51.671V772.488v273.511z"/></svg>