<svg xmlns="http://www.w3.org/2000/svg" width="87" height="83" xmlns:xlink="http://www.w3.org/1999/xlink"><defs><path id="a" d="M35.568 27.518c-5.778 0-11.213 2.192-15.297 6.174a3.924 3.924 0 0 0 0 5.654c1.603 1.562 4.2 1.562 5.805 0 2.533-2.47 5.905-3.83 9.492-3.83 3.587 0 6.96 1.36 9.492 3.83a4.156 4.156 0 0 0 2.903 1.171c1.053 0 2.1-.39 2.902-1.17a3.924 3.924 0 0 0 0-5.655c-4.083-3.982-9.52-6.174-15.297-6.174z"/><path id="b" d="M35.07 14.518c-9.37 0-18.178 3.592-24.802 10.115a3.989 3.989 0 0 0 0 5.703 4.14 4.14 0 0 0 5.791 0c5.077-5 11.83-7.753 19.01-7.753 7.179 0 13.93 2.753 19.008 7.753.8.788 1.85 1.182 2.895 1.182 1.05 0 2.097-.394 2.897-1.182a3.989 3.989 0 0 0 0-5.703c-6.624-6.523-15.43-10.115-24.8-10.115z"/><path id="c" d="M69.873 14.6C60.712 5.518 48.53.518 35.57.518c-12.96 0-25.142 5-34.303 14.082a4.026 4.026 0 0 0 0 5.73 4.098 4.098 0 0 0 2.892 1.188 4.088 4.088 0 0 0 2.89-1.187C14.665 12.78 24.796 8.622 35.57 8.622c10.774 0 20.902 4.158 28.519 11.709a4.117 4.117 0 0 0 5.782.001 4.031 4.031 0 0 0 .003-5.732z"/><circle id="d" cx="50" cy="15" r="8"/></defs><g fill="none" fill-rule="evenodd" transform="rotate(-51 51.748 38.837)" opacity=".8"><g fill-rule="nonzero" transform="rotate(-165 40.053 33.67)"><use fill="#FFBD8F" fill-rule="evenodd" xlink:href="#a"/><path stroke="#FFF" stroke-width="4" d="M35.568 25.518c-6.299 0-12.236 2.395-16.693 6.742a5.923 5.923 0 0 0 .001 8.52c2.379 2.317 6.214 2.317 8.595 0 2.159-2.107 5.029-3.265 8.097-3.265 3.068 0 5.939 1.158 8.096 3.263a6.156 6.156 0 0 0 4.3 1.74 6.14 6.14 0 0 0 4.297-1.74 5.923 5.923 0 0 0 0-8.52c-4.457-4.345-10.394-6.74-16.693-6.74z"/><use fill="#FFBD8F" fill-rule="evenodd" xlink:href="#b"/><path stroke="#FFF" stroke-width="4" d="M35.07 12.518c-9.894 0-19.207 3.798-26.206 10.69a5.989 5.989 0 0 0 0 8.554c2.38 2.341 6.223 2.341 8.6-.002 4.7-4.63 10.948-7.177 17.605-7.177 6.656 0 12.903 2.548 17.604 7.178a6.116 6.116 0 0 0 4.3 1.757 6.11 6.11 0 0 0 4.3-1.757 5.989 5.989 0 0 0 0-8.553c-7-6.892-16.31-10.69-26.203-10.69z"/><use fill="#FFBD8F" fill-rule="evenodd" xlink:href="#c"/><path stroke="#FFF" stroke-width="4" d="M71.281 13.18C61.745 3.726 49.057-1.482 35.57-1.482 22.082-1.482 9.394 3.726-.142 13.18a6.026 6.026 0 0 0 0 8.572 6.098 6.098 0 0 0 4.3 1.766c1.6 0 3.147-.622 4.3-1.77 7.24-7.175 16.863-11.126 27.111-11.126 10.248 0 19.869 3.95 27.11 11.13 2.376 2.354 6.219 2.354 8.598.002a6.032 6.032 0 0 0 .005-8.573v-.001z"/></g><rect width="72" height="10" x="14" y="10" fill="#72D3D4" transform="rotate(15 50 15)" rx="2"/><use fill="#1DBCBC" xlink:href="#d"/><circle cx="50" cy="15" r="10" stroke="#FFF" stroke-width="4"/></g></svg>