<svg xmlns="http://www.w3.org/2000/svg" width="4777" height="1149" viewBox="0 0 4777 1149" xmlns:xlink="http://www.w3.org/1999/xlink">
  <defs>
    <linearGradient id="a" x1="1.691%" x2="97.231%" y1="83.171%" y2="83.171%">
      <stop stop-color="#5EE7DF" stop-opacity="0" offset="0%"/>
      <stop stop-color="#5EE7DF" offset="15.239%"/>
      <stop stop-color="#B490CA" offset="83.46%"/>
      <stop stop-color="#B490CA" stop-opacity="0" offset="100%"/>
    </linearGradient>
    <circle id="b" cx="2685" cy="393" r="12"/>
    <circle id="c" cx="2706.5" cy="414.5" r="9.5"/>
    <circle id="d" cx="2680" cy="419" r="7"/>
  </defs>
  <g fill="none" fill-rule="evenodd" transform="translate(-85)" opacity=".8">
    <path fill="url(#a)" d="M2465.52134,1128.15381 C3848.875,1034.65625 5000,201.328125 5000,201.328125 C2350.45312,130.03125 3.97903932e-11,954.546875 3.97903932e-11,954.546875 C3.97903932e-11,954.546875 1082.16769,1221.65138 2465.52134,1128.15381 Z"/>
    <g opacity=".6" transform="translate(348)">
      <polygon fill="#FFFFFF" points="2742.778 710.54 2750.292 710.54 2750.292 702.215 2756.412 702.215 2756.412 710.54 2763.926 710.54 2763.926 716.164 2756.412 716.164 2756.412 724.488 2750.292 724.488 2750.292 716.164 2742.778 716.164" opacity=".801" transform="rotate(45 2753.352 713.352)"/>
      <rect width="6" height="6" x="2603" y="392" fill="#FFFFFF" opacity=".801"/>
      <rect width="8" height="8" x="2781.127" y="422.127" fill="#FFFFFF" opacity=".801" transform="rotate(20 2785.127 426.127)"/>
      <circle cx="2655.906" cy="664.906" r="10" stroke="#FFFFFF" stroke-width="4" opacity=".8" transform="scale(-1 1) rotate(40 0 -6632.136)"/>
      <polygon fill="#FFFFFF" points="2726.249 594.53 2732.758 594.53 2732.758 587.319 2738.059 587.319 2738.059 594.53 2744.569 594.53 2744.569 599.402 2738.059 599.402 2738.059 606.613 2732.758 606.613 2732.758 599.402 2726.249 599.402" opacity=".801" transform="scale(-1 1) rotate(85 0 -2388.209)"/>
      <rect width="12" height="12" x="2719.951" y="484.951" fill="#FFFFFF" opacity=".801" transform="scale(-1 1) rotate(80 0 -2757.71)"/>
      <rect width="6" height="6" x="2663.987" y="532.987" fill="#FFFFFF" opacity=".801" transform="scale(1 -1) rotate(25 5084.667 0)"/>
      <circle cx="2655.5" cy="1003.5" r="11.5" fill="#FFFFFF" opacity=".5"/>
      <polygon fill="#FFFFFF" points="2639.792 806.201 2648.901 806.201 2648.901 796.11 2656.319 796.11 2656.319 806.201 2665.428 806.201 2665.428 813.019 2656.319 813.019 2656.319 823.11 2648.901 823.11 2648.901 813.019 2639.792 813.019" opacity=".801" transform="rotate(45 2652.61 809.61)"/>
      <rect width="6" height="6" x="2796" y="993" fill="#CCEFEF" opacity=".6"/>
      <polygon fill="#FFFFFF" points="1624 628.66 1630.012 628.66 1630.012 622 1634.908 622 1634.908 628.66 1640.92 628.66 1640.92 633.16 1634.908 633.16 1634.908 639.82 1630.012 639.82 1630.012 633.16 1624 633.16" opacity=".796" transform="matrix(-1 0 0 1 3264.92 0)"/>
      <circle cx="1675" cy="709" r="7" stroke="#FFFFFF" stroke-width="4" opacity=".796" transform="matrix(-1 0 0 1 3350 0)"/>
      <polygon fill="#FFFFFF" points="1934 456.66 1940.012 456.66 1940.012 450 1944.908 450 1944.908 456.66 1950.92 456.66 1950.92 461.16 1944.908 461.16 1944.908 467.82 1940.012 467.82 1940.012 461.16 1934 461.16" opacity=".5" transform="matrix(-1 0 0 1 3884.92 0)"/>
      <polygon fill="#FFFFFF" points="1569.792 551.201 1578.901 551.201 1578.901 541.11 1586.319 541.11 1586.319 551.201 1595.428 551.201 1595.428 558.019 1586.319 558.019 1586.319 568.11 1578.901 568.11 1578.901 558.019 1569.792 558.019" opacity=".5" transform="scale(-1 1) rotate(45 0 -3266.148)"/>
      <rect width="6" height="6" x="1886.098" y="678.098" fill="#FFFFFF" opacity=".796" transform="scale(-1 1) rotate(30 0 -6369.112)"/>
      <rect width="12" height="12" x="1820.951" y="498.951" fill="#FFFFFF" opacity=".6" transform="rotate(80 1826.95 504.95)"/>
      <circle cx="1820" cy="969" r="10" stroke="#FFFFFF" stroke-width="4" opacity=".796" transform="matrix(-1 0 0 1 3640 0)"/>
      <polygon fill="#FFFFFF" points="1899.139 580.862 1905.648 580.862 1905.648 573.651 1910.949 573.651 1910.949 580.862 1917.458 580.862 1917.458 585.735 1910.949 585.735 1910.949 592.946 1905.648 592.946 1905.648 585.735 1899.139 585.735" opacity=".796" transform="scale(-1 1) rotate(45 0 -4023.742)"/>
      <polygon fill="#FFFFFF" points="1489.139 952.862 1495.648 952.862 1495.648 945.651 1500.949 945.651 1500.949 952.862 1507.458 952.862 1507.458 957.735 1500.949 957.735 1500.949 964.946 1495.648 964.946 1495.648 957.735 1489.139 957.735" opacity=".796" transform="scale(-1 1) rotate(45 0 -2661.914)"/>
      <rect width="12" height="12" x="1887.453" y="875.453" fill="#FFFFFF" opacity=".796" transform="scale(-1 1) rotate(40 0 -4320.766)"/>
      <rect width="12" height="12" x="1505.453" y="730.453" fill="#FFFFFF" opacity=".796" transform="scale(-1 1) rotate(40 0 -3416.23)"/>
      <rect width="6" height="6" x="1945.674" y="957.674" fill="#FFFFFF" opacity=".796" transform="scale(1 -1) rotate(-15 -5348.371 0)"/>
      <polygon fill="#FFFFFF" points="1630 825.596 1637.817 825.596 1637.817 817 1644.183 817 1644.183 825.596 1652 825.596 1652 831.404 1644.183 831.404 1644.183 840 1637.817 840 1637.817 831.404 1630 831.404" opacity=".796" transform="matrix(-1 0 0 1 3282 0)"/>
      <polygon fill="#FFFFFF" points="1683.792 984.201 1692.901 984.201 1692.901 974.11 1700.319 974.11 1700.319 984.201 1709.428 984.201 1709.428 991.019 1700.319 991.019 1700.319 1001.11 1692.901 1001.11 1692.901 991.019 1683.792 991.019" opacity=".796" transform="scale(-1 1) rotate(45 0 -3108.369)"/>
      <circle cx="1615.5" cy="927.5" r="6.5" stroke="#FFFFFF" stroke-width="4" opacity=".796" transform="matrix(-1 0 0 1 3231 0)"/>
      <rect width="6" height="6" x="1756.674" y="583.674" fill="#FFFFFF" opacity=".796" transform="scale(-1 1) rotate(-15 0 13952.727)"/>
      <rect width="6" height="6" x="1577.674" y="741.674" fill="#FFFFFF" opacity=".796" transform="scale(-1 1) rotate(-15 0 12751.087)"/>
      <rect width="8" height="8" x="1864.127" y="1037.127" fill="#FFFFFF" opacity=".796" transform="scale(-1 1) rotate(20 0 -9553.547)"/>
      <g opacity=".7">
        <use fill="#1DBCBC" xlink:href="#b"/>
        <circle cx="2685" cy="393" r="10.08" stroke="#CCEFEF" stroke-width="3.84"/>
      </g>
      <g opacity=".5">
        <use fill="#1DBCBC" xlink:href="#c"/>
        <circle cx="2706.5" cy="414.5" r="7.964" stroke="#CCEFEF" stroke-width="3.072"/>
      </g>
      <g opacity=".4">
        <use fill="#1DBCBC" xlink:href="#d"/>
        <circle cx="2680" cy="419" r="5.848" stroke="#CCEFEF" stroke-width="2.304"/>
      </g>
      <circle cx="1529" cy="845" r="7" stroke="#FFFFFF" stroke-width="4" opacity=".8" transform="rotate(90 1529 845)"/>
      <polygon fill="#FFFFFF" points="1530.45 1052.21 1536.462 1052.21 1536.462 1045.55 1541.358 1045.55 1541.358 1052.21 1547.37 1052.21 1547.37 1056.71 1541.358 1056.71 1541.358 1063.37 1536.462 1063.37 1536.462 1056.71 1530.45 1056.71" opacity=".5" transform="rotate(90 1538.91 1054.46)"/>
      <rect width="6" height="6" x="1461.306" y="852.988" fill="#FFFFFF" opacity=".6" transform="rotate(120 1464.306 855.988)"/>
      <polygon fill="#FFFFFF" points="2821.792 536.201 2830.901 536.201 2830.901 526.11 2838.319 526.11 2838.319 536.201 2847.428 536.201 2847.428 543.019 2838.319 543.019 2838.319 553.11 2830.901 553.11 2830.901 543.019 2821.792 543.019" opacity=".8" transform="rotate(135 2834.61 539.61)"/>
      <polygon fill="#FFFFFF" points="2483.792 423.201 2492.901 423.201 2492.901 413.11 2500.319 413.11 2500.319 423.201 2509.428 423.201 2509.428 430.019 2500.319 430.019 2500.319 440.11 2492.901 440.11 2492.901 430.019 2483.792 430.019" opacity=".8" transform="rotate(135 2496.61 426.61)"/>
      <circle cx="1464.5" cy="570.5" r="11.5" fill="#FFFFFF" opacity=".5" transform="rotate(90 1464.5 570.5)"/>
      <rect width="12" height="12" x="1446.661" y="677.343" fill="#FFFFFF" opacity=".6" transform="rotate(130 1452.661 683.343)"/>
      <rect width="12" height="12" x="1672.453" y="531.453" fill="#FFFFFF" opacity=".6" transform="rotate(130 1678.453 537.453)"/>
      <polygon fill="#FFFFFF" points="2189.902 993.229 2201.982 993.229 2201.982 980.148 2211.821 980.148 2211.821 993.229 2223.902 993.229 2223.902 1002.067 2211.821 1002.067 2211.821 1015.148 2201.982 1015.148 2201.982 1002.067 2189.902 1002.067" opacity=".4" transform="rotate(114 2206.902 997.648)"/>
      <rect width="10" height="10" x="2292.044" y="827.044" fill="#FFFFFF" opacity=".4" transform="rotate(140 2297.044 832.044)"/>
      <circle cx="2278.709" cy="907.709" r="8.98" stroke="#FFFFFF" stroke-width="5.04" opacity=".4" transform="scale(1 -1) rotate(30 5666.326 0)"/>
      <rect width="8" height="8" x="2317.899" y="745.899" fill="#FFFFFF" opacity=".4" transform="rotate(105 2321.899 749.899)"/>
      <polygon fill="#FFFFFF" points="2580 879.222 2587.462 879.222 2587.462 871 2593.538 871 2593.538 879.222 2601 879.222 2601 884.778 2593.538 884.778 2593.538 893 2587.462 893 2587.462 884.778 2580 884.778" opacity=".4" transform="rotate(60 2590.5 882)"/>
      <circle cx="2406.709" cy="837.709" r="8.98" stroke="#FFFFFF" stroke-width="5.04" opacity=".4" transform="rotate(60 2406.71 837.71)"/>
      <polygon fill="#FFFFFF" points="2174.468 855.462 2184.468 870.462 2164.468 870.462" opacity=".4" transform="scale(-1 1) rotate(70 0 -2242.5)"/>
      <path stroke="#FFFFFF" stroke-width="3.78" d="M2490.035,950.293188 L2500.93323,966.07684 L2479.13676,966.07684 L2490.035,950.293188 Z" opacity=".4" transform="scale(-1 1) rotate(18 0 -14763.995)"/>
      <rect width="8" height="8" x="2498.464" y="866.464" fill="#FFFFFF" opacity=".4" transform="rotate(60 2502.464 870.464)"/>
      <polygon fill="#FFFFFF" points="2419.676 917.336 2427.137 917.336 2427.137 909.114 2433.214 909.114 2433.214 917.336 2440.676 917.336 2440.676 922.892 2433.214 922.892 2433.214 931.114 2427.137 931.114 2427.137 922.892 2419.676 922.892" opacity=".4" transform="rotate(50 2430.176 920.114)"/>
      <rect width="8" height="8" x="2098.634" y="834.634" fill="#FFFFFF" opacity=".4" transform="rotate(80 2102.634 838.634)"/>
      <polygon fill="#FFFFFF" points="2008.495 554.91 2018.495 569.91 1998.495 569.91" opacity=".4" transform="scale(-1 1) rotate(60 0 -2916.405)"/>
      <circle cx="2039.793" cy="911.793" r="7.98" stroke="#FFFFFF" stroke-width="5.04" opacity=".4" transform="rotate(50 2039.793 911.793)"/>
      <circle cx="1775.793" cy="768.793" r="7.98" stroke="#FFFFFF" stroke-width="5.04" opacity=".4" transform="rotate(50 1775.793 768.793)"/>
      <rect width="8" height="8" x="1999.634" y="703.634" fill="#FFFFFF" opacity=".4" transform="scale(1 -1) rotate(-10 -6084.658 0)"/>
      <circle cx="2338.679" cy="986.679" r="9" fill="#FFFFFF" opacity=".4" transform="rotate(50 2338.68 986.68)"/>
      <rect width="10" height="10" x="1833.409" y="807.409" fill="#FFFFFF" opacity=".4" transform="rotate(70 1838.409 812.409)"/>
      <polygon fill="#FFFFFF" points="2008.614 1018.398 2016.076 1018.398 2016.076 1010.176 2022.152 1010.176 2022.152 1018.398 2029.614 1018.398 2029.614 1023.954 2022.152 1023.954 2022.152 1032.176 2016.076 1032.176 2016.076 1023.954 2008.614 1023.954" opacity=".4" transform="scale(1 -1) rotate(-40 -786.543 0)"/>
      <path stroke="#FFFFFF" stroke-width="3.78" d="M1753.51714,856.316257 L1764.41538,872.099909 L1742.61891,872.099909 L1753.51714,856.316257 Z" opacity=".4" transform="scale(-1 1) rotate(24 0 -7386.16)"/>
      <rect width="13" height="13" x="2108.03" y="957.03" fill="#FFFFFF" opacity=".4" transform="rotate(170 2114.53 963.53)"/>
      <rect width="14.842" height="14.842" x="1779.55" y="653.55" stroke="#FFFFFF" stroke-width="4.158" opacity=".4" transform="rotate(-108 1786.97 660.97)"/>
      <polygon fill="#FFFFFF" points="1957.171 805.544 1966.409 805.544 1966.409 795.08 1973.932 795.08 1973.932 805.544 1983.171 805.544 1983.171 812.615 1973.932 812.615 1973.932 823.08 1966.409 823.08 1966.409 812.615 1957.171 812.615" opacity=".4" transform="rotate(175 1970.17 809.08)"/>
      <circle cx="2074.709" cy="762.709" r="8.98" stroke="#FFFFFF" stroke-width="5.04" opacity=".4" transform="scale(1 -1) rotate(30 4921.18 0)"/>
      <circle cx="2516.294" cy="782.294" r="9" fill="#FFFFFF" opacity=".7" transform="rotate(120 2516.294 782.294)"/>
      <circle cx="2208.343" cy="758.343" r="7.98" stroke="#FFFFFF" stroke-width="5.04" opacity=".7" transform="rotate(120 2208.343 758.343)"/>
      <rect width="15" height="15" x="2119.113" y="690.113" fill="#FFFFFF" opacity=".7" transform="rotate(160 2126.613 697.613)"/>
      <polygon fill="#FFFFFF" points="2250 662.343 2258.528 662.343 2258.528 653 2265.472 653 2265.472 662.343 2274 662.343 2274 668.657 2265.472 668.657 2265.472 678 2258.528 678 2258.528 668.657 2250 668.657" opacity=".7" transform="rotate(114 2262 665.5)"/>
      <path stroke="#FFFFFF" stroke-width="3.78" d="M2435.035,722.293188 L2445.93323,738.07684 L2424.13676,738.07684 L2435.035,722.293188 Z" opacity=".7" transform="scale(-1 1) rotate(18 0 -14644.74)"/>
      <rect width="10" height="10" x="2088.576" y="1065.544" fill="#FFFFFF" opacity=".4" transform="rotate(140 2093.576 1070.544)"/>
      <circle cx="2324.709" cy="1061.709" r="8.98" stroke="#FFFFFF" stroke-width="5.04" opacity=".4" transform="scale(1 -1) rotate(30 6287.062 0)"/>
      <circle cx="2203.241" cy="1076.209" r="8.98" stroke="#FFFFFF" stroke-width="5.04" opacity=".4" transform="rotate(60 2203.241 1076.21)"/>
      <polygon fill="#FFFFFF" points="1971 1093.962 1981 1108.962 1961 1108.962" opacity=".4" transform="scale(-1 1) rotate(70 0 -1713.418)"/>
      <circle cx="2559.294" cy="1012.294" r="9" fill="#FFFFFF" opacity=".7" transform="rotate(120 2559.294 1012.294)"/>
      <path stroke="#FFFFFF" stroke-width="3.78" d="M2463.035,1039.29319 L2473.93323,1055.07684 L2452.13676,1055.07684 L2463.035,1039.29319 Z" opacity=".7" transform="scale(-1 1) rotate(18 0 -14504.524)"/>
      <polygon fill="#FFFFFF" points="2051.276 625.815 2058.738 625.815 2058.738 617.593 2064.815 617.593 2064.815 625.815 2072.276 625.815 2072.276 631.371 2064.815 631.371 2064.815 639.593 2058.738 639.593 2058.738 631.371 2051.276 631.371" opacity=".7" transform="rotate(60 2061.776 628.593)"/>
      <polygon fill="#FFFFFF" points="2169.173 582.981 2179.173 597.981 2159.173 597.981" opacity=".7" transform="scale(1 -1) rotate(-50 902.882 0)"/>
      <circle cx="2373.679" cy="648.679" r="9" fill="#FFFFFF" opacity=".7" transform="rotate(50 2373.68 648.68)"/>
      <polygon fill="#FFFFFF" points="2293.173 536.981 2303.173 551.981 2283.173 551.981" opacity=".7" transform="scale(1 -1) rotate(-50 1125.53 0)"/>
      <circle cx="1896.709" cy="756.709" r="8.98" stroke="#FFFFFF" stroke-width="5.04" opacity=".7" transform="rotate(60 1896.71 756.71)"/>
      <polygon fill="#FFFFFF" points="2198.676 496.336 2206.137 496.336 2206.137 488.114 2212.214 488.114 2212.214 496.336 2219.676 496.336 2219.676 501.892 2212.214 501.892 2212.214 510.114 2206.137 510.114 2206.137 501.892 2198.676 501.892" opacity=".7" transform="rotate(50 2209.176 499.114)"/>
      <circle cx="2394.709" cy="552.709" r="8.98" stroke="#FFFFFF" stroke-width="5.04" opacity=".7" transform="scale(1 -1) rotate(30 4457.448 0)"/>
      <rect width="13" height="13" x="2526.831" y="671.831" fill="#FFFFFF" opacity=".7" transform="rotate(160 2533.331 678.331)"/>
      <rect width="14.842" height="14.842" x="2476.427" y="603.427" stroke="#FFFFFF" stroke-width="4.158" opacity=".7" transform="rotate(-118 2483.848 610.848)"/>
      <polygon fill="#FFFFFF" points="2583.173 572.981 2593.173 587.981 2573.173 587.981" opacity=".7" transform="scale(1 -1) rotate(-50 1338.327 0)"/>
      <polygon fill="#FFFFFF" points="2595.495 458.91 2605.495 473.91 2585.495 473.91" opacity=".7" transform="scale(-1 1) rotate(60 0 -4029.12)"/>
      <polygon fill="#FFFFFF" points="2351.468 456.462 2361.468 471.462 2341.468 471.462" opacity=".7" transform="scale(-1 1) rotate(70 0 -2894.282)"/>
      <rect width="8" height="8" x="2060.899" y="498.899" fill="#FFFFFF" opacity=".7" transform="rotate(-75 2064.899 502.899)"/>
      <rect width="8" height="8" x="2494.464" y="507.464" fill="#FFFFFF" opacity=".7" transform="rotate(60 2498.464 511.464)"/>
      <rect width="12" height="12" x="3476.453" y="419.453" fill="#FFFFFF" opacity=".4" transform="rotate(130 3482.453 425.453)"/>
      <polygon fill="#FFFFFF" points="3393.449 557.081 3405.529 557.081 3405.529 544 3415.368 544 3415.368 557.081 3427.449 557.081 3427.449 565.919 3415.368 565.919 3415.368 579 3405.529 579 3405.529 565.919 3393.449 565.919" opacity=".5" transform="rotate(114 3410.449 561.5)"/>
      <rect width="10" height="10" x="3149.044" y="478.044" fill="#FFFFFF" transform="rotate(140 3154.044 483.044)"/>
      <circle cx="3479.709" cy="509.709" r="8.98" stroke="#FFFFFF" stroke-width="5.04" opacity=".4" transform="scale(1 -1) rotate(30 5381.97 0)"/>
      <rect width="8" height="8" x="3377.899" y="348.899" fill="#FFFFFF" opacity=".5" transform="rotate(105 3381.899 352.899)"/>
      <polygon fill="#FFFFFF" points="3159.276 870.815 3166.738 870.815 3166.738 862.593 3172.815 862.593 3172.815 870.815 3180.276 870.815 3180.276 876.371 3172.815 876.371 3172.815 884.593 3166.738 884.593 3166.738 876.371 3159.276 876.371" transform="rotate(60 3169.776 873.593)"/>
      <circle cx="2918.709" cy="941.709" r="8.98" stroke="#FFFFFF" stroke-width="5.04" opacity=".4" transform="rotate(60 2918.71 941.71)"/>
      <polygon fill="#FFFFFF" points="3378.015 419.314 3388.015 434.314 3368.015 434.314" opacity=".5" transform="scale(-1 1) rotate(70 0 -4397.491)"/>
      <path stroke="#FFFFFF" stroke-width="3.78" d="M3059.035,864.293188 L3069.93323,880.07684 L3048.13676,880.07684 L3059.035,864.293188 Z" transform="scale(-1 1) rotate(18 0 -18442.52)"/>
      <rect width="8" height="8" x="2820.464" y="752.464" fill="#FFFFFF" opacity=".4" transform="rotate(60 2824.464 756.464)"/>
      <polygon fill="#FFFFFF" points="2826.676 347.336 2834.137 347.336 2834.137 339.114 2840.214 339.114 2840.214 347.336 2847.676 347.336 2847.676 352.892 2840.214 352.892 2840.214 361.114 2834.137 361.114 2834.137 352.892 2826.676 352.892" opacity=".4" transform="rotate(50 2837.176 350.114)"/>
      <rect width="8" height="8" x="3302.181" y="398.486" fill="#FFFFFF" opacity=".5" transform="rotate(80 3306.18 402.486)"/>
      <polygon fill="#FFFFFF" points="3214.495 563.91 3224.495 578.91 3204.495 578.91" transform="scale(-1 1) rotate(60 0 -4996.259)"/>
      <circle cx="3243.34" cy="475.645" r="7.98" stroke="#FFFFFF" stroke-width="5.04" transform="rotate(50 3243.34 475.645)"/>
      <circle cx="2979.34" cy="332.645" r="7.98" stroke="#FFFFFF" stroke-width="5.04" opacity=".4" transform="rotate(50 2979.34 332.645)"/>
      <rect width="8" height="8" x="3203.181" y="267.486" fill="#FFFFFF" transform="scale(1 -1) rotate(-10 104.086 0)"/>
      <circle cx="3498.679" cy="585.679" r="9" fill="#FFFFFF" opacity=".4" transform="rotate(50 3498.68 585.68)"/>
      <rect width="6" height="6" x="3313" y="594" fill="#FFFFFF" opacity=".5"/>
      <rect width="8" height="8" x="2743.127" y="345.127" fill="#FFFFFF" opacity=".801" transform="rotate(20 2747.127 349.127)"/>
      <circle cx="3402.906" cy="662.906" r="10" stroke="#FFFFFF" stroke-width="4" opacity=".5" transform="scale(-1 1) rotate(40 0 -8686.501)"/>
      <polygon fill="#FFFFFF" points="3132.249 590.53 3138.758 590.53 3138.758 583.319 3144.059 583.319 3144.059 590.53 3150.569 590.53 3150.569 595.402 3144.059 595.402 3144.059 602.613 3138.758 602.613 3138.758 595.402 3132.249 595.402" transform="scale(-1 1) rotate(85 0 -2835.28)"/>
      <rect width="12" height="12" x="3468.951" y="761.951" fill="#FFFFFF" opacity=".4" transform="scale(-1 1) rotate(80 0 -3373.334)"/>
      <rect width="6" height="6" x="2839.987" y="652.987" fill="#FFFFFF" opacity=".801" transform="scale(1 -1) rotate(25 5801.952 0)"/>
      <circle cx="3185.5" cy="684.5" r="11.5" fill="#FFFFFF"/>
      <polygon fill="#FFFFFF" points="3504.792 688.201 3513.901 688.201 3513.901 678.11 3521.319 678.11 3521.319 688.201 3530.428 688.201 3530.428 695.019 3521.319 695.019 3521.319 705.11 3513.901 705.11 3513.901 695.019 3504.792 695.019" opacity=".4" transform="rotate(45 3517.61 691.61)"/>
      <circle cx="2913.5" cy="426.5" r="13.5" fill="#FFFFFF"/>
      <polygon fill="#FFFFFF" points="3043 441.66 3049.012 441.66 3049.012 435 3053.908 435 3053.908 441.66 3059.92 441.66 3059.92 446.16 3053.908 446.16 3053.908 452.82 3049.012 452.82 3049.012 446.16 3043 446.16" opacity=".796" transform="matrix(-1 0 0 1 6102.92 0)"/>
      <circle cx="3094" cy="522" r="7" stroke="#FFFFFF" stroke-width="4" transform="matrix(-1 0 0 1 6188 0)"/>
      <polygon fill="#FFFFFF" points="3353 269.66 3359.012 269.66 3359.012 263 3363.908 263 3363.908 269.66 3369.92 269.66 3369.92 274.16 3363.908 274.16 3363.908 280.82 3359.012 280.82 3359.012 274.16 3353 274.16" opacity=".5" transform="matrix(-1 0 0 1 6722.92 0)"/>
      <polygon fill="#FFFFFF" points="2988.792 364.201 2997.901 364.201 2997.901 354.11 3005.319 354.11 3005.319 364.201 3014.428 364.201 3014.428 371.019 3005.319 371.019 3005.319 381.11 2997.901 381.11 2997.901 371.019 2988.792 371.019" opacity=".5" transform="scale(-1 1) rotate(45 0 -6878.917)"/>
      <rect width="6" height="6" x="3305.098" y="491.098" fill="#FFFFFF" opacity=".5" transform="scale(-1 1) rotate(30 0 -11851.892)"/>
      <rect width="12" height="12" x="3239.951" y="311.951" fill="#FFFFFF" transform="rotate(80 3245.95 317.95)"/>
      <circle cx="3239" cy="782" r="10" stroke="#FFFFFF" stroke-width="4" transform="matrix(-1 0 0 1 6478 0)"/>
      <polygon fill="#FFFFFF" points="3123.139 350.862 3129.648 350.862 3129.648 343.651 3134.949 343.651 3134.949 350.862 3141.458 350.862 3141.458 355.735 3134.949 355.735 3134.949 362.946 3129.648 362.946 3129.648 355.735 3123.139 355.735" transform="scale(-1 1) rotate(45 0 -7208.74)"/>
      <polygon fill="#FFFFFF" points="2908.139 765.862 2914.648 765.862 2914.648 758.651 2919.949 758.651 2919.949 765.862 2926.458 765.862 2926.458 770.735 2919.949 770.735 2919.949 777.946 2914.648 777.946 2914.648 770.735 2908.139 770.735" opacity=".796" transform="scale(-1 1) rotate(45 0 -6274.683)"/>
      <rect width="12" height="12" x="3306.453" y="688.453" fill="#FFFFFF" opacity=".5" transform="scale(-1 1) rotate(40 0 -8406.437)"/>
      <rect width="12" height="12" x="2924.453" y="543.453" fill="#FFFFFF" opacity=".796" transform="scale(-1 1) rotate(40 0 -7501.9)"/>
      <rect width="6" height="6" x="3364.674" y="770.674" fill="#FFFFFF" opacity=".5" transform="scale(1 -1) rotate(-15 -2508.965 0)"/>
      <polygon fill="#FFFFFF" points="3049 638.596 3056.817 638.596 3056.817 630 3063.183 630 3063.183 638.596 3071 638.596 3071 644.404 3063.183 644.404 3063.183 653 3056.817 653 3056.817 644.404 3049 644.404" transform="matrix(-1 0 0 1 6120 0)"/>
      <polygon fill="#FFFFFF" points="3102.792 797.201 3111.901 797.201 3111.901 787.11 3119.319 787.11 3119.319 797.201 3128.428 797.201 3128.428 804.019 3119.319 804.019 3119.319 814.11 3111.901 814.11 3111.901 804.019 3102.792 804.019" transform="scale(-1 1) rotate(45 0 -6721.138)"/>
      <circle cx="3034.5" cy="740.5" r="6.5" stroke="#FFFFFF" stroke-width="4" opacity=".796" transform="matrix(-1 0 0 1 6069 0)"/>
      <rect width="6" height="6" x="3175.674" y="396.674" fill="#FFFFFF" transform="scale(-1 1) rotate(-15 0 24544.102)"/>
      <rect width="6" height="6" x="2996.674" y="554.674" fill="#FFFFFF" opacity=".796" transform="scale(-1 1) rotate(-15 0 23342.462)"/>
      <rect width="8" height="8" x="3283.127" y="850.127" fill="#FFFFFF" transform="scale(-1 1) rotate(20 0 -17788.096)"/>
      <circle cx="2948" cy="658" r="7" stroke="#FFFFFF" stroke-width="4" opacity=".8" transform="rotate(90 2948 658)"/>
      <polygon fill="#FFFFFF" points="2949.45 865.21 2955.462 865.21 2955.462 858.55 2960.358 858.55 2960.358 865.21 2966.37 865.21 2966.37 869.71 2960.358 869.71 2960.358 876.37 2955.462 876.37 2955.462 869.71 2949.45 869.71" opacity=".5" transform="rotate(90 2957.91 867.46)"/>
      <polygon fill="#FFFFFF" points="965.902 1074.229 977.982 1074.229 977.982 1061.148 987.821 1061.148 987.821 1074.229 999.902 1074.229 999.902 1083.067 987.821 1083.067 987.821 1096.148 977.982 1096.148 977.982 1083.067 965.902 1083.067" opacity=".4" transform="rotate(114 982.902 1078.648)"/>
      <rect width="10" height="10" x="1068.044" y="908.044" fill="#FFFFFF" opacity=".4" transform="rotate(140 1073.044 913.044)"/>
      <circle cx="1054.709" cy="988.709" r="8.98" stroke="#FFFFFF" stroke-width="5.04" opacity=".4" transform="scale(1 -1) rotate(30 4744.623 0)"/>
      <rect width="8" height="8" x="1093.899" y="826.899" fill="#FFFFFF" transform="rotate(105 1097.899 830.899)"/>
      <polygon fill="#FFFFFF" points="1356.276 959.815 1363.738 959.815 1363.738 951.593 1369.815 951.593 1369.815 959.815 1377.276 959.815 1377.276 965.371 1369.815 965.371 1369.815 973.593 1363.738 973.593 1363.738 965.371 1356.276 965.371" opacity=".4" transform="rotate(60 1366.776 962.593)"/>
      <circle cx="1182.709" cy="918.709" r="8.98" stroke="#FFFFFF" stroke-width="5.04" transform="rotate(60 1182.71 918.71)"/>
      <polygon fill="#FFFFFF" points="950.468 936.462 960.468 951.462 940.468 951.462" opacity=".4" transform="scale(-1 1) rotate(70 0 -413.447)"/>
      <path stroke="#FFFFFF" stroke-width="3.78" d="M1266.035,1031.29319 L1276.93323,1047.07684 L1255.13676,1047.07684 L1266.035,1031.29319 Z" opacity=".4" transform="scale(-1 1) rotate(18 0 -6954.964)"/>
      <rect width="8" height="8" x="1274.464" y="947.464" fill="#FFFFFF" opacity=".4" transform="rotate(60 1278.464 951.464)"/>
      <polygon fill="#FFFFFF" points="1195.676 998.336 1203.137 998.336 1203.137 990.114 1209.214 990.114 1209.214 998.336 1216.676 998.336 1216.676 1003.892 1209.214 1003.892 1209.214 1012.114 1203.137 1012.114 1203.137 1003.892 1195.676 1003.892" transform="rotate(50 1206.176 1001.114)"/>
      <rect width="8" height="8" x="874.634" y="915.634" fill="#FFFFFF" opacity=".3" transform="rotate(80 878.634 919.634)"/>
      <polygon fill="#FFFFFF" points="781.495 665.91 791.495 680.91 771.495 680.91" opacity=".3" transform="scale(-1 1) rotate(60 0 -680.18)"/>
      <circle cx="815.793" cy="992.793" r="7.98" stroke="#FFFFFF" stroke-width="5.04" opacity=".3" transform="rotate(50 815.793 992.793)"/>
      <circle cx="551.793" cy="849.793" r="7.98" stroke="#FFFFFF" stroke-width="5.04" opacity=".3" transform="rotate(50 551.793 849.793)"/>
      <rect width="8" height="8" x="775.634" y="784.634" fill="#FFFFFF" opacity=".3" transform="scale(1 -1) rotate(-10 -8234.492 0)"/>
      <circle cx="1114.679" cy="1067.679" r="9" fill="#FFFFFF" transform="rotate(50 1114.68 1067.68)"/>
      <rect width="10" height="10" x="609.409" y="888.409" fill="#FFFFFF" opacity=".3" transform="rotate(70 614.409 893.409)"/>
      <polygon fill="#FFFFFF" points="799.614 912.398 807.076 912.398 807.076 904.176 813.152 904.176 813.152 912.398 820.614 912.398 820.614 917.954 813.152 917.954 813.152 926.176 807.076 926.176 807.076 917.954 799.614 917.954" opacity=".3" transform="scale(1 -1) rotate(-40 -1704.31 0)"/>
      <path stroke="#FFFFFF" stroke-width="3.78" d="M529.517144,937.316257 L540.41538,953.099909 L518.618908,953.099909 L529.517144,937.316257 Z" opacity=".3" transform="scale(-1 1) rotate(24 0 -1546.692)"/>
      <rect width="13" height="13" x="884.03" y="1038.03" fill="#FFFFFF" opacity=".3" transform="rotate(170 890.53 1044.53)"/>
      <rect width="14.842" height="14.842" x="555.55" y="734.55" stroke="#FFFFFF" stroke-width="4.158" opacity=".3" transform="rotate(-108 562.97 741.97)"/>
      <polygon fill="#FFFFFF" points="733.171 886.544 742.409 886.544 742.409 876.08 749.932 876.08 749.932 886.544 759.171 886.544 759.171 893.615 749.932 893.615 749.932 904.08 742.409 904.08 742.409 893.615 733.171 893.615" opacity=".3" transform="rotate(175 746.17 890.08)"/>
      <circle cx="850.709" cy="843.709" r="8.98" stroke="#FFFFFF" stroke-width="5.04" opacity=".3" transform="scale(1 -1) rotate(30 3999.475 0)"/>
      <circle cx="1292.294" cy="863.294" r="9" fill="#FFFFFF" opacity=".7" transform="rotate(120 1292.294 863.294)"/>
      <circle cx="984.343" cy="839.343" r="7.98" stroke="#FFFFFF" stroke-width="5.04" opacity=".4" transform="rotate(120 984.343 839.343)"/>
      <rect width="15" height="15" x="895.113" y="771.113" fill="#FFFFFF" opacity=".3" transform="rotate(160 902.613 778.613)"/>
      <polygon fill="#FFFFFF" points="1026.3 743.89 1034.828 743.89 1034.828 734.547 1041.773 734.547 1041.773 743.89 1050.3 743.89 1050.3 750.203 1041.773 750.203 1041.773 759.547 1034.828 759.547 1034.828 750.203 1026.3 750.203" opacity=".4" transform="rotate(114 1038.3 747.047)"/>
      <path stroke="#FFFFFF" stroke-width="3.78" d="M1211.035,803.293188 L1221.93323,819.07684 L1200.13676,819.07684 L1211.035,803.293188 Z" transform="scale(-1 1) rotate(18 0 -6835.707)"/>
      <polygon fill="#FFFFFF" points="827.276 706.815 834.738 706.815 834.738 698.593 840.815 698.593 840.815 706.815 848.276 706.815 848.276 712.371 840.815 712.371 840.815 720.593 834.738 720.593 834.738 712.371 827.276 712.371" opacity=".3" transform="rotate(60 837.776 709.593)"/>
      <polygon fill="#FFFFFF" points="945.173 663.981 955.173 678.981 935.173 678.981" opacity=".4" transform="scale(1 -1) rotate(-50 -494.823 0)"/>
      <circle cx="1149.679" cy="729.679" r="9" fill="#FFFFFF" transform="rotate(50 1149.68 729.68)"/>
      <polygon fill="#FFFFFF" points="1069.173 617.981 1079.173 632.981 1059.173 632.981" opacity=".4" transform="scale(1 -1) rotate(-50 -272.176 0)"/>
      <circle cx="672.709" cy="837.709" r="8.98" stroke="#FFFFFF" stroke-width="5.04" opacity=".3" transform="rotate(60 672.71 837.71)"/>
      <polygon fill="#FFFFFF" points="620.676 769.336 628.137 769.336 628.137 761.114 634.214 761.114 634.214 769.336 641.676 769.336 641.676 774.892 634.214 774.892 634.214 783.114 628.137 783.114 628.137 774.892 620.676 774.892" opacity=".3" transform="rotate(50 631.176 772.114)"/>
      <circle cx="1170.709" cy="633.709" r="8.98" stroke="#FFFFFF" stroke-width="5.04" transform="scale(1 -1) rotate(30 3535.745 0)"/>
      <rect width="13" height="13" x="1302.831" y="752.831" fill="#FFFFFF" opacity=".7" transform="rotate(160 1309.331 759.331)"/>
      <rect width="14.842" height="14.842" x="1252.427" y="684.427" stroke="#FFFFFF" stroke-width="4.158" opacity=".7" transform="rotate(-118 1259.848 691.848)"/>
      <polygon fill="#FFFFFF" points="1359.173 653.981 1369.173 668.981 1349.173 668.981" opacity=".7" transform="scale(1 -1) rotate(-50 -59.378 0)"/>
      <polygon fill="#FFFFFF" points="1371.495 539.91 1381.495 554.91 1361.495 554.91" opacity=".7" transform="scale(-1 1) rotate(60 0 -1828.09)"/>
      <polygon fill="#FFFFFF" points="687.468 963.462 697.468 978.462 677.468 978.462" opacity=".3" transform="scale(-1 1) rotate(70 0 -10.844)"/>
      <rect width="8" height="8" x="701.899" y="730.899" fill="#FFFFFF" opacity=".3" transform="rotate(-75 705.899 734.899)"/>
      <rect width="8" height="8" x="1270.464" y="588.464" fill="#FFFFFF" opacity=".7" transform="rotate(60 1274.464 592.464)"/>
      <polygon fill="#FFFFFF" points="3463.171 268.544 3472.409 268.544 3472.409 258.08 3479.932 258.08 3479.932 268.544 3489.171 268.544 3489.171 275.615 3479.932 275.615 3479.932 286.08 3472.409 286.08 3472.409 275.615 3463.171 275.615" opacity=".4" transform="rotate(5 3476.17 272.08)"/>
      <circle cx="3759.74" cy="285.74" r="8.98" stroke="#FFFFFF" stroke-width="5.04" opacity=".3" transform="scale(-1 1) rotate(20 0 -21036.804)"/>
      <circle cx="3605.847" cy="393.133" r="9" fill="#FFFFFF" opacity=".4" transform="rotate(-70 3605.847 393.133)"/>
      <circle cx="3642.458" cy="270.458" r="7.98" stroke="#FFFFFF" stroke-width="5.04" opacity=".4" transform="rotate(-70 3642.458 270.458)"/>
      <rect width="15" height="15" x="3808.745" y="342.745" fill="#FFFFFF" opacity=".3" transform="rotate(-30 3816.245 350.245)"/>
      <polygon fill="#FFFFFF" points="3850.032 493.511 3858.559 493.511 3858.559 484.168 3865.504 484.168 3865.504 493.511 3874.032 493.511 3874.032 499.824 3865.504 499.824 3865.504 509.168 3858.559 509.168 3858.559 499.824 3850.032 499.824" opacity=".3" transform="rotate(-76 3862.032 496.668)"/>
      <path stroke="#FFFFFF" stroke-width="3.78" d="M3695.04542,423.874072 L3705.94365,439.657724 L3684.14718,439.657724 L3695.04542,423.874072 Z" opacity=".3" transform="scale(1 -1) rotate(28 5423.883 0)"/>
      <polygon fill="#FFFFFF" points="3774.428 413.851 3781.89 413.851 3781.89 405.629 3787.966 405.629 3787.966 413.851 3795.428 413.851 3795.428 419.407 3787.966 419.407 3787.966 427.629 3781.89 427.629 3781.89 419.407 3774.428 419.407" opacity=".3" transform="rotate(-110 3784.928 416.629)"/>
      <polygon fill="#FFFFFF" points="3875.495 399.91 3885.495 414.91 3865.495 414.91" opacity=".3" transform="scale(-1 1) rotate(-60 0 7119.965)"/>
      <circle cx="3769.497" cy="499.953" r="9" fill="#FFFFFF" opacity=".3" transform="rotate(-140 3769.497 499.953)"/>
      <polygon fill="#FFFFFF" points="3866.874 581.089 3876.874 596.089 3856.874 596.089" opacity=".3" transform="scale(-1 1) rotate(-60 0 7286.212)"/>
      <circle cx="3563.74" cy="303.74" r="8.98" stroke="#FFFFFF" stroke-width="5.04" opacity=".4" transform="rotate(-110 3563.74 303.74)"/>
      <polygon fill="#FFFFFF" points="3531.614 444.398 3539.076 444.398 3539.076 436.176 3545.152 436.176 3545.152 444.398 3552.614 444.398 3552.614 449.954 3545.152 449.954 3545.152 458.176 3539.076 458.176 3539.076 449.954 3531.614 449.954" opacity=".4" transform="rotate(-140 3542.114 447.176)"/>
      <circle cx="3765.452" cy="598.117" r="8.98" stroke="#FFFFFF" stroke-width="5.04" opacity=".3" transform="scale(-1 1) rotate(20 0 -20756.823)"/>
      <rect width="13" height="13" x="3600.622" y="491.976" fill="#FFFFFF" opacity=".4" transform="rotate(-30 3607.122 498.476)"/>
      <rect width="14.842" height="14.842" x="3660.151" y="548.92" stroke="#FFFFFF" stroke-width="4.158" opacity=".4" transform="rotate(52 3667.572 556.34)"/>
      <polygon fill="#FFFFFF" points="3575.029 595.994 3585.029 610.994 3565.029 610.994" opacity=".4" transform="scale(-1 1) rotate(-60 0 6795.625)"/>
      <polygon fill="#FFFFFF" points="3582.702 710.472 3592.702 725.472 3572.702 725.472" opacity=".4" transform="scale(1 -1) rotate(50 5122.397 0)"/>
      <polygon fill="#FFFFFF" points="3473.123 338.65 3483.123 353.65 3463.123 353.65" opacity=".4" transform="scale(1 -1) rotate(80 3885.649 0)"/>
      <rect width="8" height="8" x="3684.333" y="335.333" fill="#FFFFFF" opacity=".3" transform="rotate(95 3688.333 339.333)"/>
      <rect width="8" height="8" x="3666.436" y="652.753" fill="#FFFFFF" opacity=".4" transform="rotate(-110 3670.436 656.753)"/>
      <rect width="8" height="8" x="749.127" y="1001.127" fill="#FFFFFF" opacity=".3" transform="scale(-1 1) rotate(20 0 -3266.068)"/>
      <circle cx="85" cy="286" r="7" stroke="#FFFFFF" stroke-width="4" opacity=".8" transform="rotate(90 85 286)"/>
      <polygon fill="#FFFFFF" points="86.45 493.21 92.462 493.21 92.462 486.55 97.358 486.55 97.358 493.21 103.37 493.21 103.37 497.71 97.358 497.71 97.358 504.37 92.462 504.37 92.462 497.71 86.45 497.71" opacity=".5" transform="rotate(90 94.91 495.46)"/>
      <rect width="6" height="6" x="17.098" y="294.098" fill="#FFFFFF" opacity=".6" transform="rotate(120 20.098 297.098)"/>
      <circle cx="20.5" cy="11.5" r="11.5" fill="#FFFFFF" opacity=".5" transform="rotate(90 20.5 11.5)"/>
      <rect width="12" height="12" x="2.453" y="118.453" fill="#FFFFFF" opacity=".6" transform="rotate(130 8.453 124.453)"/>
      <polygon fill="#FFFFFF" points="1348.902 1085.229 1360.982 1085.229 1360.982 1072.148 1370.821 1072.148 1370.821 1085.229 1382.902 1085.229 1382.902 1094.067 1370.821 1094.067 1370.821 1107.148 1360.982 1107.148 1360.982 1094.067 1348.902 1094.067" opacity=".4" transform="rotate(114 1365.902 1089.648)"/>
      <rect width="10" height="10" x="1474.044" y="1087.044" fill="#FFFFFF" opacity=".4" transform="rotate(140 1479.044 1092.044)"/>
      <circle cx="1403.709" cy="778.709" r="8.98" stroke="#FFFFFF" stroke-width="5.04" opacity=".4" transform="scale(1 -1) rotate(30 4309.892 0)"/>
      <rect width="8" height="8" x="1435.899" y="917.899" fill="#FFFFFF" opacity=".4" transform="rotate(105 1439.899 921.899)"/>
      <polygon fill="#FFFFFF" points="1616.276 1095.815 1623.738 1095.815 1623.738 1087.593 1629.815 1087.593 1629.815 1095.815 1637.276 1095.815 1637.276 1101.371 1629.815 1101.371 1629.815 1109.593 1623.738 1109.593 1623.738 1101.371 1616.276 1101.371" opacity=".4" transform="rotate(60 1626.776 1098.593)"/>
      <circle cx="1756.709" cy="1074.709" r="8.98" stroke="#FFFFFF" stroke-width="5.04" opacity=".4" transform="rotate(60 1756.71 1074.71)"/>
      <polygon fill="#FFFFFF" points="1238.468 1101.462 1248.468 1116.462 1228.468 1116.462" opacity=".4" transform="scale(-1 1) rotate(70 0 -659.753)"/>
      <path stroke="#FFFFFF" stroke-width="3.78" d="M1597.035,991.293188 L1607.93323,1007.07684 L1586.13676,1007.07684 L1597.035,991.293188 Z" opacity=".4" transform="scale(-1 1) rotate(18 0 -9084.815)"/>
      <rect width="8" height="8" x="637.464" y="1071.464" fill="#FFFFFF" opacity=".3" transform="rotate(60 641.464 1075.464)"/>
      <polygon fill="#FFFFFF" points="1860.676 1103.336 1868.137 1103.336 1868.137 1095.114 1874.214 1095.114 1874.214 1103.336 1881.676 1103.336 1881.676 1108.892 1874.214 1108.892 1874.214 1117.114 1868.137 1117.114 1868.137 1108.892 1860.676 1108.892" opacity=".4" transform="rotate(50 1871.176 1106.114)"/>
      <rect width="8" height="8" x="948.634" y="1002.634" fill="#FFFFFF" opacity=".4" transform="rotate(80 952.634 1006.634)"/>
      <circle cx="730.793" cy="1071.793" r="7.98" stroke="#FFFFFF" stroke-width="5.04" opacity=".3" transform="rotate(50 730.793 1071.793)"/>
      <circle cx="601.043" cy="979.793" r="7.98" stroke="#FFFFFF" stroke-width="5.04" opacity=".3" transform="rotate(50 601.043 979.793)"/>
      <rect width="8" height="8" x="1368.634" y="880.634" fill="#FFFFFF" opacity=".4" transform="scale(1 -1) rotate(-10 -8738.777 0)"/>
      <circle cx="1432.679" cy="1014.679" r="9" fill="#FFFFFF" opacity=".4" transform="rotate(50 1432.68 1014.68)"/>
      <rect width="10" height="10" x="658.659" y="1018.409" fill="#FFFFFF" opacity=".3" transform="rotate(70 663.66 1023.409)"/>
      <polygon fill="#FFFFFF" points="798.614 1076.398 806.076 1076.398 806.076 1068.176 812.152 1068.176 812.152 1076.398 819.614 1076.398 819.614 1081.954 812.152 1081.954 812.152 1090.176 806.076 1090.176 806.076 1081.954 798.614 1081.954" opacity=".3" transform="scale(1 -1) rotate(-40 -2155.897 0)"/>
      <path stroke="#FFFFFF" stroke-width="3.78" d="M568.517144,1044.31626 L579.41538,1060.09991 L557.618908,1060.09991 L568.517144,1044.31626 Z" opacity=".3" transform="scale(-1 1) rotate(24 0 -1623.173)"/>
    </g>
  </g>
</svg>
