<svg xmlns="http://www.w3.org/2000/svg" width="5000" height="1046" viewBox="0 0 5000 1046">
  <path fill="#FFFFFF" fill-rule="evenodd" d="M-1.54614099e-11,203.056526 L5000,203.056526 C5000,203.056526 4707.26562,242.064338 4417.08594,285.103401 C4126.90625,328.142463 4118.40625,406.017463 3876.21875,448.869026 C3634.03125,491.720588 3592.6875,387.806526 3370.08594,430.244026 C3147.48437,472.681526 3215.57031,573.829963 3000.17969,606.642463 C2784.78906,639.454963 2762.26608,519.613102 2620.78906,537.853401 C2479.31205,556.0937 2474.3125,678.167188 2294.04687,701.642463 C2113.78125,725.117738 2047.30469,608.134651 1868.92969,652.806526 C1690.55469,697.478401 1713.60937,819.595588 1497.70312,886.283088 C1281.79687,952.970588 1164.38281,851.322151 990.390625,906.869026 C816.398437,962.415901 829.71875,1117.4159 615.21875,1209.94715 C525.420039,1248.68462 297.945443,1310.57312 185.9375,1095.8534 C107.195822,944.905258 82.6875,285.095588 60.78125,254.728401 C38.875,224.361213 -1.54614099e-11,203.056526 -1.54614099e-11,203.056526 L-1.54614099e-11,476.568432 L-1.54614099e-11,203.056526 Z" transform="rotate(-180 2500 624.528)"/>
</svg>
