<svg xmlns="http://www.w3.org/2000/svg" width="4777" height="1149" xmlns:xlink="http://www.w3.org/1999/xlink"><defs><linearGradient id="a" x1="1.691%" x2="97.231%" y1="83.171%" y2="83.171%"><stop stop-color="#5EE7DF" stop-opacity="0" offset="0%"/><stop stop-color="#5EE7DF" offset="15.239%"/><stop stop-color="#B490CA" offset="83.46%"/><stop stop-color="#B490CA" stop-opacity="0" offset="100%"/></linearGradient><circle id="b" cx="2685" cy="393" r="12"/><circle id="c" cx="2706.5" cy="414.5" r="9.5"/><circle id="d" cx="2680" cy="419" r="7"/></defs><g fill="none" fill-rule="evenodd" opacity=".8"><path fill="url(#a)" d="M2465.521 1128.154C3848.875 1034.656 5000 201.328 5000 201.328 2350.453 130.031 0 954.547 0 954.547s1082.168 267.104 2465.521 173.607z" transform="translate(-85)"/><g opacity=".6" transform="translate(263)"><path fill="#FFF" opacity=".801" d="M2747.863 703.887l5.314 5.313 5.886-5.887 4.328 4.328-5.887 5.886 5.313 5.314-3.976 3.976-5.314-5.313-5.886 5.886-4.327-4.327 5.886-5.886-5.313-5.314zM2603 392h6v6h-6zM2782.736 421l7.518 2.736-2.736 7.518-7.518-2.736z"/><circle cx="2655.906" cy="664.906" r="10" stroke="#FFF" stroke-width="4" opacity=".8" transform="scale(-1 1) rotate(40 0 -6632.136)"/><path fill="#FFF" opacity=".801" d="M2733.78 587.629l-.567 6.484-7.183-.629-.462 5.281 7.183.629-.567 6.485 4.853.425.568-6.486 7.183.629.462-5.281-7.183-.629.567-6.484zM2721.083 484.001L2719 495.819l11.818 2.083 2.084-11.817zM2665.536 539.973l5.438-2.535-2.536-5.438-5.438 2.535z"/><circle cx="2655.5" cy="1003.5" r="11.5" fill="#FFF" opacity=".5"/><path fill="#FFF" opacity=".801" d="M2645.957 798.136l6.44 6.44 7.136-7.135 5.246 5.246-7.136 7.135 6.441 6.441-4.82 4.821-6.442-6.44-7.135 7.135-5.246-5.246 7.136-7.135-6.441-6.441z"/><path fill="#CCEFEF" opacity=".6" d="M2796 993h6v6h-6z"/><path fill="#FFF" opacity=".796" d="M1640.92 628.66h-6.012V622h-4.896v6.66H1624v4.5h6.012v6.66h4.896v-6.66h6.012z"/><circle cx="1675" cy="709" r="7" stroke="#FFF" stroke-width="4" opacity=".796" transform="matrix(-1 0 0 1 3350 0)"/><path fill="#FFF" opacity=".5" d="M1950.92 456.66h-6.012V450h-4.896v6.66H1934v4.5h6.012v6.66h4.896v-6.66h6.012zM1589.263 543.136l-6.441 6.441-7.136-7.135-5.245 5.245 7.135 7.135-6.44 6.441 4.82 4.821 6.441-6.44 7.136 7.135 5.245-5.246-7.135-7.135 6.44-6.441z"/><path fill="#FFF" opacity=".796" d="M1890.196 677l-5.196 3 3 5.196 5.196-3z"/><path fill="#FFF" opacity=".6" d="M1831.816 498l2.084 11.818-11.818 2.084-2.084-11.818z"/><circle cx="1820" cy="969" r="10" stroke="#FFF" stroke-width="4" opacity=".796" transform="matrix(-1 0 0 1 3640 0)"/><path fill="#FFF" opacity=".796" d="M1913.053 575.099l-4.603 4.602-5.099-5.099-3.748 3.749 5.099 5.099-4.603 4.602 3.446 3.446 4.602-4.603 5.1 5.1 3.748-3.749-5.1-5.099 4.603-4.602zM1503.052 947.099l-4.602 4.602-5.1-5.098-3.748 3.748 5.1 5.099-4.603 4.602 3.446 3.446 4.602-4.602 5.1 5.099 3.747-3.749-5.098-5.099 4.602-4.602zM1894.192 873l-9.192 7.714 7.713 9.192 9.193-7.713zM1512.193 728l-9.193 7.713 7.713 9.193 9.193-7.713zM1945 962.796l5.795 1.553 1.553-5.796-5.795-1.553zM1652 825.596h-7.817V817h-6.366v8.596H1630v5.808h7.817V840h6.366v-8.596H1652zM1703.263 976.136l-6.44 6.44-7.136-7.135-5.246 5.246 7.136 7.135-6.441 6.441 4.82 4.821 6.442-6.44 7.135 7.135 5.246-5.246-7.136-7.135 6.441-6.441z"/><circle cx="1615.5" cy="927.5" r="6.5" stroke="#FFF" stroke-width="4" opacity=".796" transform="matrix(-1 0 0 1 3231 0)"/><path fill="#FFF" opacity=".796" d="M1763.349 584.553l-5.796-1.553-1.553 5.795 5.796 1.553zM1584.349 742.553l-5.796-1.553-1.553 5.795 5.796 1.553zM1870.517 1036l-7.517 2.736 2.736 7.518 7.518-2.736z"/><g opacity=".7"><use fill="#1DBCBC" xlink:href="#b"/><circle cx="2685" cy="393" r="10.08" stroke="#CCEFEF" stroke-width="3.84"/></g><g opacity=".5"><use fill="#1DBCBC" xlink:href="#c"/><circle cx="2706.5" cy="414.5" r="7.964" stroke="#CCEFEF" stroke-width="3.072"/></g><g opacity=".4"><use fill="#1DBCBC" xlink:href="#d"/><circle cx="2680" cy="419" r="5.848" stroke="#CCEFEF" stroke-width="2.304"/></g><circle cx="1529" cy="845" r="7" stroke="#FFF" stroke-width="4" opacity=".8" transform="rotate(90 1529 845)"/><path fill="#FFF" opacity=".5" d="M1541.16 1046v6.012h6.66v4.896h-6.66v6.012h-4.5v-6.012H1530v-4.896h6.66V1046z"/><path fill="#FFF" opacity=".6" d="M1468.404 854.89l-3 5.196-5.196-3 3-5.196z"/><path fill="#FFF" opacity=".8" d="M2846.084 532.957l-6.44 6.44 7.135 7.136-5.246 5.246-7.135-7.136-6.441 6.441-4.821-4.82 6.44-6.442-7.135-7.135 5.246-5.246 7.135 7.136 6.441-6.441zM2508.084 419.957l-6.44 6.44 7.135 7.136-5.246 5.246-7.135-7.136-6.441 6.441-4.821-4.82 6.44-6.442-7.135-7.135 5.246-5.246 7.135 7.136 6.441-6.441z"/><circle cx="1464.5" cy="570.5" r="11.5" fill="#FFF" opacity=".5" transform="rotate(90 1464.5 570.5)"/><path fill="#FFF" opacity=".6" d="M1461.114 682.603l-7.713 9.193-9.193-7.713 7.713-9.193zM1686.906 536.713l-7.713 9.193-9.193-7.713 7.713-9.193z"/><path fill="#FFF" opacity=".4" d="M2217.853 983.915l-4.913 11.036 11.95 5.32-4.002 8.989-11.95-5.32-4.914 11.036-8.073-3.595 4.913-11.037-11.95-5.32 4.002-8.989 11.95 5.321 4.914-11.036zM2304.088 832.66l-7.66 6.428-6.428-7.66 7.66-6.428z"/><circle cx="2278.709" cy="907.709" r="8.98" stroke="#FFF" stroke-width="5.04" opacity=".4" transform="scale(1 -1) rotate(30 5666.326 0)"/><path fill="#FFF" opacity=".4" d="M2326.798 747.07l-2.07 7.728-7.728-2.07 2.07-7.728zM2587.656 871.518l3.73 6.462 7.121-4.111 3.038 5.262-7.12 4.111 3.73 6.462-4.81 2.778-3.732-6.462-7.12 4.111-3.038-5.262 7.12-4.111-3.73-6.462z"/><circle cx="2406.709" cy="837.709" r="8.98" stroke="#FFF" stroke-width="5.04" opacity=".4" transform="rotate(60 2406.71 837.71)"/><path fill="#FFF" opacity=".4" d="M2167.42 860.397l10.675 14.527 6.84-18.794z"/><path stroke="#FFF" stroke-width="3.78" d="M2487.818 950.644l-5.487 18.38 20.73-6.736-15.243-11.644z" opacity=".4"/><path fill="#FFF" opacity=".4" d="M2503.928 865l4 6.928-6.928 4-4-6.928zM2425.555 910.285l4.796 5.715 6.298-5.285 3.906 4.656-6.298 5.285 4.796 5.716-4.256 3.571-4.796-5.716-6.299 5.285-3.906-4.655 6.298-5.285-4.795-5.716zM2105.879 834l1.389 7.879-7.879 1.389-1.389-7.879zM2002 558.66l7.99 16.16 10-17.32z"/><circle cx="2039.793" cy="911.793" r="7.98" stroke="#FFF" stroke-width="5.04" opacity=".4" transform="rotate(50 2039.793 911.793)"/><circle cx="1775.793" cy="768.793" r="7.98" stroke="#FFF" stroke-width="5.04" opacity=".4" transform="rotate(50 1775.793 768.793)"/><path fill="#FFF" opacity=".4" d="M1999 710.878l7.879 1.39 1.389-7.879-7.879-1.39z"/><circle cx="2338.679" cy="986.679" r="9" fill="#FFF" opacity=".4" transform="rotate(50 2338.68 986.68)"/><path fill="#FFF" opacity=".4" d="M1841.397 806l3.42 9.397-9.396 3.42-3.42-9.396zM2009.285 1016.554l5.716 4.797-5.285 6.298 4.655 3.906 5.285-6.299 5.716 4.797 3.571-4.256-5.716-4.797 5.285-6.298-4.654-3.906-5.285 6.298-5.717-4.796z"/><path stroke="#FFF" stroke-width="3.78" d="M1750.6 856.936l-3.537 18.852 19.912-8.865-16.375-9.987z" opacity=".4"/><path fill="#FFF" opacity=".4" d="M2122.06 968.803l-12.803 2.257-2.257-12.803 12.803-2.257z"/><path stroke="#FFF" stroke-width="4.158" opacity=".4" d="M1782.206 670.32l-4.586-14.116 14.115-4.586 4.587 14.115z"/><path fill="#FFF" opacity=".4" d="M1983.428 811.47l-9.203.805.912 10.424-7.495.656-.912-10.425-9.203.806-.617-7.044 9.204-.806-.912-10.425 7.495-.656.912 10.426 9.202-.805z"/><circle cx="2074.709" cy="762.709" r="8.98" stroke="#FFF" stroke-width="5.04" opacity=".4" transform="scale(1 -1) rotate(30 4921.18 0)"/><circle cx="2516.294" cy="782.294" r="9" fill="#FFF" opacity=".7" transform="rotate(120 2516.294 782.294)"/><circle cx="2208.343" cy="758.343" r="7.98" stroke="#FFF" stroke-width="5.04" opacity=".7" transform="rotate(120 2208.343 758.343)"/><path fill="#FFF" opacity=".7" d="M2136.226 702.096l-14.096 5.13-5.13-14.096 14.096-5.13zM2269.765 655.822l-3.469 7.79 8.536 3.8-2.825 6.344-8.535-3.8-3.469 7.79-5.768-2.568 3.469-7.79-8.536-3.8 2.825-6.344 8.535 3.8 3.469-7.79z"/><path stroke="#FFF" stroke-width="3.78" d="M2432.819 722.644l-5.488 18.38 20.73-6.736-15.242-11.644z" opacity=".7"/><path fill="#FFF" opacity=".4" d="M2100.62 1071.16l-7.66 6.428-6.428-7.66 7.66-6.428z"/><circle cx="2324.709" cy="1061.709" r="8.98" stroke="#FFF" stroke-width="5.04" opacity=".4" transform="scale(1 -1) rotate(30 6287.062 0)"/><circle cx="2203.241" cy="1076.209" r="8.98" stroke="#FFF" stroke-width="5.04" opacity=".4" transform="rotate(60 2203.241 1076.21)"/><path fill="#FFF" opacity=".4" d="M1963.953 1098.897l10.675 14.527 6.84-18.794z"/><circle cx="2559.294" cy="1012.294" r="9" fill="#FFF" opacity=".7" transform="rotate(120 2559.294 1012.294)"/><path stroke="#FFF" stroke-width="3.78" d="M2460.818 1039.644l-5.487 18.38 20.73-6.736-15.243-11.644z" opacity=".7"/><path fill="#FFF" opacity=".7" d="M2058.932 618.11l3.73 6.463 7.121-4.111 3.039 5.263-7.12 4.11 3.73 6.462-4.812 2.778-3.73-6.461-7.12 4.11-3.04-5.262 7.121-4.111-3.73-6.462zM2163.428 595.302l17.918-1.981L2168.49 578z"/><circle cx="2373.679" cy="648.679" r="9" fill="#FFF" opacity=".7" transform="rotate(50 2373.68 648.68)"/><path fill="#FFF" opacity=".7" d="M2287.428 549.302l17.918-1.982-12.855-15.32z"/><circle cx="1896.709" cy="756.709" r="8.98" stroke="#FFF" stroke-width="5.04" opacity=".7" transform="rotate(60 1896.71 756.71)"/><path fill="#FFF" opacity=".7" d="M2204.555 489.285l4.796 5.715 6.298-5.285 3.906 4.656-6.298 5.285 4.796 5.716-4.256 3.571-4.796-5.716-6.299 5.285-3.906-4.655 6.298-5.285-4.795-5.716z"/><circle cx="2394.709" cy="552.709" r="8.98" stroke="#FFF" stroke-width="5.04" opacity=".7" transform="scale(1 -1) rotate(30 4457.448 0)"/><path fill="#FFF" opacity=".7" d="M2541.662 682.216l-12.216 4.446-4.446-12.216 12.216-4.446z"/><path stroke="#FFF" stroke-width="4.158" opacity=".7" d="M2480.78 620.884l-6.968-13.104 13.104-6.968 6.968 13.104z"/><path fill="#FFF" opacity=".7" d="M2577.427 585.302l17.919-1.981L2582.49 568zM2589 462.66l7.99 16.16 10-17.32zM2344.42 461.397l10.675 14.527 6.84-18.794zM2060 505.727l2.07-7.727 7.728 2.07-2.07 7.728zM2499.928 506l4 6.928-6.928 4-4-6.928z"/><path fill="#FFF" opacity=".4" d="M3490.906 424.713l-7.713 9.193-9.193-7.713 7.713-9.193z"/><path fill="#FFF" opacity=".5" d="M3421.4 547.767l-4.913 11.036 11.95 5.32-4.002 8.989-11.95-5.32-4.914 11.036-8.073-3.595 4.913-11.037-11.95-5.32 4.002-8.989 11.95 5.321 4.914-11.036z"/><path fill="#FFF" d="M3161.088 483.66l-7.66 6.428-6.428-7.66 7.66-6.428z"/><circle cx="3479.709" cy="509.709" r="8.98" stroke="#FFF" stroke-width="5.04" opacity=".4" transform="scale(1 -1) rotate(30 5381.97 0)"/><path fill="#FFF" opacity=".5" d="M3386.798 350.07l-2.07 7.728-7.728-2.07 2.07-7.728z"/><path fill="#FFF" d="M3166.932 863.11l3.73 6.463 7.121-4.111 3.039 5.263-7.12 4.11 3.73 6.462-4.812 2.778-3.73-6.461-7.12 4.11-3.04-5.262 7.121-4.111-3.73-6.462z"/><circle cx="2918.709" cy="941.709" r="8.98" stroke="#FFF" stroke-width="5.04" opacity=".4" transform="rotate(60 2918.71 941.71)"/><path fill="#FFF" opacity=".5" d="M3370.967 424.25l10.675 14.526 6.84-18.794z"/><path stroke="#FFF" stroke-width="3.78" d="M3056.818 864.644l-5.487 18.38 20.73-6.736-15.243-11.644z"/><path fill="#FFF" opacity=".4" d="M2825.928 751l4 6.928-6.928 4-4-6.928zM2832.555 340.285l4.796 5.715 6.298-5.285 3.906 4.656-6.298 5.285 4.796 5.716-4.256 3.571-4.796-5.716-6.299 5.285-3.906-4.655 6.298-5.285-4.795-5.716z"/><path fill="#FFF" opacity=".5" d="M3309.425 397.853l1.389 7.879-7.878 1.389-1.39-7.879z"/><path fill="#FFF" d="M3208 567.66l7.99 16.16 10-17.32z"/><circle cx="3243.34" cy="475.645" r="7.98" stroke="#FFF" stroke-width="5.04" transform="rotate(50 3243.34 475.645)"/><circle cx="2979.34" cy="332.645" r="7.98" stroke="#FFF" stroke-width="5.04" opacity=".4" transform="rotate(50 2979.34 332.645)"/><path fill="#FFF" d="M3202.547 274.73l7.879 1.39 1.389-7.88-7.879-1.389z"/><circle cx="3498.679" cy="585.679" r="9" fill="#FFF" opacity=".4" transform="rotate(50 3498.68 585.68)"/><path fill="#FFF" opacity=".5" d="M3313 594h6v6h-6z"/><path fill="#FFF" opacity=".801" d="M2744.736 344l7.518 2.736-2.736 7.518-7.518-2.736z"/><circle cx="3402.906" cy="662.906" r="10" stroke="#FFF" stroke-width="4" opacity=".5" transform="scale(-1 1) rotate(40 0 -8686.501)"/><path fill="#FFF" d="M3139.78 583.629l-.567 6.484-7.184-.628-.462 5.28 7.184.629-.567 6.485 4.853.425.567-6.485 7.184.628.462-5.28-7.184-.63.568-6.484z"/><path fill="#FFF" opacity=".4" d="M3470.084 761L3468 772.819l11.818 2.084 2.083-11.818z"/><path fill="#FFF" opacity=".801" d="M2841.536 659.973l5.438-2.535-2.536-5.438-5.438 2.535z"/><circle cx="3185.5" cy="684.5" r="11.5" fill="#FFF"/><path fill="#FFF" opacity=".4" d="M3510.957 680.136l6.44 6.44 7.136-7.135 5.246 5.246-7.136 7.135 6.441 6.441-4.82 4.821-6.442-6.44-7.135 7.135-5.246-5.246 7.136-7.135-6.441-6.441z"/><circle cx="2913.5" cy="426.5" r="13.5" fill="#FFF"/><path fill="#FFF" opacity=".796" d="M3059.92 441.66h-6.012V435h-4.896v6.66H3043v4.5h6.012v6.66h4.896v-6.66h6.012z"/><circle cx="3094" cy="522" r="7" stroke="#FFF" stroke-width="4" transform="matrix(-1 0 0 1 6188 0)"/><path fill="#FFF" opacity=".5" d="M3369.92 269.66h-6.012V263h-4.896v6.66H3353v4.5h6.012v6.66h4.896v-6.66h6.012zM3008.263 356.136l-6.441 6.441-7.136-7.135-5.245 5.245 7.135 7.135-6.44 6.441 4.82 4.821 6.441-6.44 7.136 7.135 5.245-5.246-7.135-7.135 6.44-6.441zM3309.196 490l-5.196 3 3 5.196 5.196-3z"/><path fill="#FFF" d="M3250.816 311l2.084 11.818-11.818 2.084-2.084-11.818z"/><circle cx="3239" cy="782" r="10" stroke="#FFF" stroke-width="4" transform="matrix(-1 0 0 1 6478 0)"/><path fill="#FFF" d="M3137.053 345.099l-4.602 4.602-5.1-5.099-3.748 3.749 5.1 5.099-4.603 4.602 3.445 3.446 4.603-4.603 5.099 5.1 3.748-3.75-5.099-5.098 4.603-4.603z"/><path fill="#FFF" opacity=".796" d="M2922.052 760.099l-4.602 4.602-5.1-5.098-3.748 3.748 5.1 5.099-4.603 4.602 3.446 3.446 4.602-4.602 5.1 5.099 3.747-3.749-5.099-5.099 4.603-4.602z"/><path fill="#FFF" opacity=".5" d="M3313.193 686l-9.193 7.713 7.714 9.193 9.192-7.714z"/><path fill="#FFF" opacity=".796" d="M2931.192 541l-9.192 7.714 7.713 9.192 9.193-7.713z"/><path fill="#FFF" opacity=".5" d="M3364 775.796l5.795 1.553 1.553-5.796-5.795-1.553z"/><path fill="#FFF" d="M3071 638.596h-7.817V630h-6.366v8.596H3049v5.808h7.817V653h6.366v-8.596H3071zM3122.263 789.136l-6.44 6.44-7.136-7.135-5.246 5.246 7.136 7.135-6.441 6.441 4.82 4.821 6.442-6.44 7.135 7.135 5.246-5.246-7.136-7.135 6.441-6.441z"/><circle cx="3034.5" cy="740.5" r="6.5" stroke="#FFF" stroke-width="4" opacity=".796" transform="matrix(-1 0 0 1 6069 0)"/><path fill="#FFF" d="M3182.349 397.553l-5.796-1.553-1.553 5.795 5.796 1.553z"/><path fill="#FFF" opacity=".796" d="M3003.349 555.553l-5.796-1.553-1.553 5.795 5.796 1.553z"/><path fill="#FFF" d="M3289.517 849l-7.517 2.736 2.736 7.518 7.518-2.736z"/><circle cx="2948" cy="658" r="7" stroke="#FFF" stroke-width="4" opacity=".8" transform="rotate(90 2948 658)"/><path fill="#FFF" opacity=".5" d="M2960.16 859v6.012h6.66v4.896h-6.66v6.012h-4.5v-6.012H2949v-4.896h6.66V859z"/><path fill="#FFF" opacity=".4" d="M993.853 1064.915l-4.913 11.036 11.95 5.32-4.002 8.989-11.95-5.32-4.914 11.036-8.073-3.595 4.913-11.037-11.95-5.32 4.002-8.989 11.95 5.321 4.914-11.036zM1080.088 913.66l-7.66 6.428-6.428-7.66 7.66-6.428z"/><circle cx="1054.709" cy="988.709" r="8.98" stroke="#FFF" stroke-width="5.04" opacity=".4" transform="scale(1 -1) rotate(30 4744.623 0)"/><path fill="#FFF" d="M1102.798 828.07l-2.07 7.728-7.728-2.07 2.07-7.728z"/><path fill="#FFF" opacity=".4" d="M1363.932 952.11l3.73 6.463 7.121-4.111 3.039 5.263-7.12 4.11 3.73 6.462-4.812 2.778-3.73-6.461-7.12 4.11-3.04-5.262 7.121-4.111-3.73-6.462z"/><circle cx="1182.709" cy="918.709" r="8.98" stroke="#FFF" stroke-width="5.04" transform="rotate(60 1182.71 918.71)"/><path fill="#FFF" opacity=".4" d="M943.42 941.397l10.676 14.527 6.84-18.794z"/><path stroke="#FFF" stroke-width="3.78" d="M1263.818 1031.644l-5.487 18.38 20.73-6.736-15.243-11.644z" opacity=".4"/><path fill="#FFF" opacity=".4" d="M1279.928 946l4 6.928-6.928 4-4-6.928z"/><path fill="#FFF" d="M1201.555 991.285l4.796 5.715 6.298-5.285 3.906 4.656-6.298 5.285 4.796 5.716-4.256 3.571-4.796-5.716-6.299 5.285-3.906-4.655 6.298-5.285-4.795-5.716z"/><path fill="#FFF" opacity=".3" d="M881.879 915l1.389 7.879-7.879 1.389-1.389-7.879zM775 669.66l7.991 16.16 10-17.32z"/><circle cx="815.793" cy="992.793" r="7.98" stroke="#FFF" stroke-width="5.04" opacity=".3" transform="rotate(50 815.793 992.793)"/><circle cx="551.793" cy="849.793" r="7.98" stroke="#FFF" stroke-width="5.04" opacity=".3" transform="rotate(50 551.793 849.793)"/><path fill="#FFF" opacity=".3" d="M775 791.878l7.879 1.39 1.389-7.879-7.879-1.39z"/><circle cx="1114.679" cy="1067.679" r="9" fill="#FFF" transform="rotate(50 1114.68 1067.68)"/><path fill="#FFF" opacity=".3" d="M617.397 887l3.42 9.397-9.396 3.42-3.42-9.396zM800.285 910.554l5.716 4.796-5.285 6.299 4.655 3.905 5.285-6.298 5.716 4.796 3.571-4.256-5.716-4.796 5.285-6.299-4.654-3.905-5.285 6.298-5.716-4.796z"/><path stroke="#FFF" stroke-width="3.78" d="M526.6 937.936l-3.537 18.852 19.912-8.865-16.376-9.987z" opacity=".3"/><path fill="#FFF" opacity=".3" d="M898.06 1049.803l-12.803 2.257-2.257-12.803 12.803-2.257z"/><path stroke="#FFF" stroke-width="4.158" opacity=".3" d="M558.206 751.32l-4.586-14.116 14.115-4.586 4.587 14.115z"/><path fill="#FFF" opacity=".3" d="M759.428 892.47l-9.203.805.912 10.424-7.495.656-.912-10.425-9.203.806-.617-7.044 9.204-.806-.912-10.425 7.495-.656.912 10.426 9.202-.805z"/><circle cx="850.709" cy="843.709" r="8.98" stroke="#FFF" stroke-width="5.04" opacity=".3" transform="scale(1 -1) rotate(30 3999.475 0)"/><circle cx="1292.294" cy="863.294" r="9" fill="#FFF" opacity=".7" transform="rotate(120 1292.294 863.294)"/><circle cx="984.343" cy="839.343" r="7.98" stroke="#FFF" stroke-width="5.04" opacity=".4" transform="rotate(120 984.343 839.343)"/><path fill="#FFF" opacity=".3" d="M912.226 783.096l-14.096 5.13L893 774.13l14.096-5.13z"/><path fill="#FFF" opacity=".4" d="M1046.065 737.369l-3.469 7.79 8.536 3.8-2.825 6.345-8.536-3.8-3.468 7.79-5.767-2.568 3.468-7.79-8.536-3.8 2.825-6.345 8.536 3.8 3.469-7.79z"/><path stroke="#FFF" stroke-width="3.78" d="M1208.818 803.644l-5.487 18.38 20.73-6.736-15.243-11.644z"/><path fill="#FFF" opacity=".3" d="M834.932 699.11l3.73 6.463 7.121-4.111 3.039 5.263-7.12 4.11 3.73 6.462-4.812 2.778-3.73-6.461-7.12 4.11-3.04-5.262 7.121-4.111-3.73-6.462z"/><path fill="#FFF" opacity=".4" d="M939.428 676.302l17.918-1.981L944.49 659z"/><circle cx="1149.679" cy="729.679" r="9" fill="#FFF" transform="rotate(50 1149.68 729.68)"/><path fill="#FFF" opacity=".4" d="M1063.427 630.302l17.919-1.981-12.856-15.32z"/><circle cx="672.709" cy="837.709" r="8.98" stroke="#FFF" stroke-width="5.04" opacity=".3" transform="rotate(60 672.71 837.71)"/><path fill="#FFF" opacity=".3" d="M626.555 762.285L631.35 768l6.298-5.285 3.906 4.656-6.298 5.285 4.796 5.716-4.256 3.571-4.796-5.716-6.299 5.285-3.906-4.655 6.298-5.285-4.795-5.716z"/><circle cx="1170.709" cy="633.709" r="8.98" stroke="#FFF" stroke-width="5.04" transform="scale(1 -1) rotate(30 3535.745 0)"/><path fill="#FFF" opacity=".7" d="M1317.662 763.216l-12.216 4.446-4.446-12.216 12.216-4.446z"/><path stroke="#FFF" stroke-width="4.158" opacity=".7" d="M1256.78 701.884l-6.968-13.104 13.104-6.968 6.968 13.104z"/><path fill="#FFF" opacity=".7" d="M1353.428 666.302l17.918-1.981L1358.49 649zM1365 543.66l7.991 16.16 10-17.32z"/><path fill="#FFF" opacity=".3" d="M680.42 968.397l10.675 14.527 6.84-18.794zM701 737.727l2.07-7.727 7.728 2.07-2.07 7.728z"/><path fill="#FFF" opacity=".7" d="M1275.928 587l4 6.928-6.928 4-4-6.928z"/><path fill="#FFF" opacity=".4" d="M3463.529 267.425l9.202.805.912-10.425 7.495.656-.912 10.424 9.204.806-.617 7.044-9.203-.806-.912 10.426-7.495-.656.912-10.425-9.203-.805z"/><circle cx="3759.74" cy="285.74" r="8.98" stroke="#FFF" stroke-width="5.04" opacity=".3" transform="scale(-1 1) rotate(20 0 -21036.804)"/><circle cx="3605.847" cy="393.133" r="9" fill="#FFF" opacity=".4" transform="rotate(-70 3605.847 393.133)"/><circle cx="3642.458" cy="270.458" r="7.98" stroke="#FFF" stroke-width="5.04" opacity=".4" transform="rotate(-70 3642.458 270.458)"/><path fill="#FFF" opacity=".3" d="M3806 347.5l12.99-7.5 7.5 12.99-12.99 7.5zM3856.066 507.548l2.063-8.274-9.066-2.26 1.68-6.739 9.066 2.26 2.063-8.274 6.125 1.527-2.063 8.275 9.067 2.26-1.68 6.739-9.067-2.26-2.063 8.273z"/><path stroke="#FFF" stroke-width="3.78" d="M3698.413 437.381l2.213-19.052-19.245 10.233 17.032 8.82z" opacity=".3"/><path fill="#FFF" opacity=".3" d="M3785.909 427.446l-2.552-7.012-7.727 2.812-2.078-5.71 7.726-2.812-2.552-7.012 5.221-1.9 2.552 7.012 7.727-2.812 2.078 5.71-7.726 2.812 2.552 7.012zM3881.99 403.66L3864 402.5l10 17.32z"/><circle cx="3769.497" cy="499.953" r="9" fill="#FFF" opacity=".3" transform="rotate(-140 3769.497 499.953)"/><path fill="#FFF" opacity=".3" d="M3873.37 584.84l-17.99-1.16 10 17.32z"/><circle cx="3563.74" cy="303.74" r="8.98" stroke="#FFF" stroke-width="5.04" opacity=".4" transform="rotate(-110 3563.74 303.74)"/><path fill="#FFF" opacity=".4" d="M3548.372 456.053l-5.716-4.796-5.285 6.298-4.655-3.905 5.285-6.299-5.716-4.796 3.571-4.256 5.716 4.796 5.285-6.298 4.655 3.905-5.285 6.299 5.716 4.796z"/><circle cx="3765.452" cy="598.117" r="8.98" stroke="#FFF" stroke-width="5.04" opacity=".3" transform="scale(-1 1) rotate(20 0 -20756.823)"/><path fill="#FFF" opacity=".4" d="M3598.243 496.097l11.258-6.5 6.5 11.258-11.258 6.5z"/><path stroke="#FFF" stroke-width="4.158" opacity=".4" d="M3668.85 545.924l9.138 11.696-11.696 9.137-9.137-11.695z"/><path fill="#FFF" opacity=".4" d="M3581.523 599.744l-17.99-1.16 10 17.32zM3588.447 722.792l-5.063-17.302-12.856 15.32zM3480.51 347.453L3467.473 335 3464 354.696z"/><path fill="#FFF" opacity=".3" d="M3692.666 335.697l-.697 7.97-7.97-.698.698-7.97z"/><path fill="#FFF" opacity=".4" d="M3668.045 661.88l-2.736-7.518 7.518-2.736 2.736 7.518z"/><path fill="#FFF" opacity=".3" d="M755.518 1000l-7.518 2.736 2.736 7.518 7.518-2.736z"/><circle cx="85" cy="286" r="7" stroke="#FFF" stroke-width="4" opacity=".8" transform="rotate(90 85 286)"/><path fill="#FFF" opacity=".5" d="M97.16 487v6.012h6.66v4.896h-6.66v6.012h-4.5v-6.012H86v-4.896h6.66V487z"/><path fill="#FFF" opacity=".6" d="M24.196 296l-3 5.196-5.196-3L19 293z"/><circle cx="20.5" cy="11.5" r="11.5" fill="#FFF" opacity=".5" transform="rotate(90 20.5 11.5)"/><path fill="#FFF" opacity=".6" d="M16.906 123.713l-7.713 9.193L0 125.193 7.713 116z"/><path fill="#FFF" opacity=".4" d="M1376.853 1075.915l-4.913 11.036 11.95 5.32-4.002 8.989-11.95-5.32-4.914 11.036-8.073-3.595 4.913-11.037-11.95-5.32 4.002-8.989 11.95 5.321 4.914-11.036zM1486.088 1092.66l-7.66 6.428-6.428-7.66 7.66-6.428z"/><circle cx="1403.709" cy="778.709" r="8.98" stroke="#FFF" stroke-width="5.04" opacity=".4" transform="scale(1 -1) rotate(30 4309.892 0)"/><path fill="#FFF" opacity=".4" d="M1444.798 919.07l-2.07 7.728-7.728-2.07 2.07-7.728zM1623.932 1088.11l3.73 6.463 7.121-4.111 3.039 5.263-7.12 4.11 3.73 6.462-4.812 2.778-3.73-6.461-7.12 4.11-3.04-5.262 7.121-4.111-3.73-6.462z"/><circle cx="1756.709" cy="1074.709" r="8.98" stroke="#FFF" stroke-width="5.04" opacity=".4" transform="rotate(60 1756.71 1074.71)"/><path fill="#FFF" opacity=".4" d="M1231.42 1106.397l10.675 14.527 6.84-18.793z"/><path stroke="#FFF" stroke-width="3.78" d="M1594.818 991.644l-5.487 18.38 20.73-6.736-15.243-11.644z" opacity=".4"/><path fill="#FFF" opacity=".3" d="M642.928 1070l4 6.928-6.928 4-4-6.928z"/><path fill="#FFF" opacity=".4" d="M1866.555 1096.285l4.796 5.715 6.298-5.285 3.906 4.656-6.298 5.285 4.796 5.716-4.256 3.571-4.796-5.716-6.299 5.285-3.906-4.655 6.298-5.285-4.795-5.716zM955.879 1002l1.389 7.879-7.879 1.389-1.389-7.879z"/><circle cx="730.793" cy="1071.793" r="7.98" stroke="#FFF" stroke-width="5.04" opacity=".3" transform="rotate(50 730.793 1071.793)"/><circle cx="601.043" cy="979.793" r="7.98" stroke="#FFF" stroke-width="5.04" opacity=".3" transform="rotate(50 601.043 979.793)"/><path fill="#FFF" opacity=".4" d="M1368 887.878l7.879 1.39 1.389-7.879-7.879-1.39z"/><circle cx="1432.679" cy="1014.679" r="9" fill="#FFF" opacity=".4" transform="rotate(50 1432.68 1014.68)"/><path fill="#FFF" opacity=".3" d="M666.648 1017l3.42 9.396-9.397 3.42-3.42-9.396zM799.285 1074.554l5.716 4.797-5.285 6.298 4.655 3.906 5.285-6.299 5.716 4.797 3.571-4.256-5.716-4.797 5.285-6.298-4.654-3.906-5.285 6.299-5.717-4.797z"/><path stroke="#FFF" stroke-width="3.78" d="M565.6 1044.936l-3.537 18.852 19.912-8.865-16.376-9.987z" opacity=".3"/></g></g></svg>