<svg xmlns="http://www.w3.org/2000/svg" width="155" height="220"><g fill="none" fill-rule="evenodd"><path fill="#FFF" d="M0 163.173h154.188V220H0z"/><path fill="#FFF" d="M107.375 143.115h-.912.912v-7.036c8.821-.612 15.817-7.954 16.426-16.825v-18.661c0-13.154-6.996-25.085-17.643-33.038 4.867-6.425 7.605-14.684 7.605-23.25 0-22.331-18.555-40.38-41.064-40.38-22.51 0-41.064 18.049-41.064 40.38 0 8.566 2.737 16.52 7.604 23.25-10.95 7.953-17.946 19.884-17.946 33.038v18.66c.304 4.895 2.433 9.178 6.083 12.237-.912.306-1.825.612-2.738 1.224l-2.129.917-7.604 3.671 1.52 3.671h.305l10.95 21.414H0v3.977h29.81l1.52 3.059 6.084-3.06h2.13v39.158h35.892v-39.157h79.087v-3.977H96.729c6.388-3.977 10.646-11.013 10.646-19.272z"/><path fill="#6000BD" fill-rule="nonzero" d="M72.395 73.485c18.25 0 33.155-14.99 33.155-33.65 0-8.872-2.738-12.849-3.954-14.378-5.171-8.26-24.335-8.872-28.289-8.872h-.912c-18.555 0-26.16 5.813-28.29 7.954l-.303.306-.609.612c-1.216 1.53-3.954 5.812-3.954 14.377 0 18.661 14.905 33.65 33.156 33.65zm-26.16-45.581l.304-.306c1.825-1.53 8.517-7.036 25.856-7.036h.608c10.342 0 22.205 2.141 25.247 7.036v.612c1.216 1.53 3.042 4.894 3.042 11.93 0 16.52-13.08 29.98-29.202 29.98-16.121 0-29.2-13.46-29.2-29.98.303-7.341 2.128-11.012 3.345-12.236zm34.068 77.701h-14.6v-2.753h14.6v2.753zm27.072 34.262h-.912.912v-7.036c8.821-.611 15.817-7.953 16.426-16.825v-18.66c0-13.154-6.996-25.085-17.643-33.039 4.867-6.424 7.605-14.683 7.605-23.249 0-22.331-18.555-40.38-41.064-40.38-22.51 0-41.064 18.049-41.064 40.38 0 8.566 2.737 16.52 7.604 23.25-10.95 7.953-17.946 19.884-17.946 33.038v18.66c.304 4.895 2.433 9.178 6.083 12.237-.912.306-1.825.612-2.738 1.223l-2.129.918-7.604 3.671 1.52 3.671h.305l10.95 21.414H0v3.977h29.81l1.52 3.059 6.084-3.06h2.13v39.158h35.892v-39.157h79.087v-3.977H96.729c6.388-3.977 10.646-11.013 10.646-19.273zm-72.09-99.115c0-20.19 16.73-36.403 37.414-36.403s37.11 16.519 37.11 36.403-16.73 36.404-37.414 36.404c-20.685 0-37.11-16.214-37.11-36.404zM24.638 115.09v-18.05c0-11.93 6.388-22.942 16.426-30.284 7.605 8.565 18.86 14.072 31.33 14.072 12.472 0 23.727-5.507 31.331-14.072 10.038 7.342 16.426 18.048 16.426 30.285v18.049c-.305 7.647-6.388 13.766-13.993 13.766h-2.433v4.588l-13.08-20.496h17.034V98.875h-3.954v10.095H89.733V94.593H57.49v14.377H43.498V98.875h-3.955V112.947H63.27l-31.33 13.766c-4.259-2.141-6.996-6.424-7.3-11.624zm61.14-16.214v6.73l-1.216-1.835-11.863 5.2h-6.692v.306H61.14v-10.4h24.638zm-53.23 61.794L20.38 136.196l4.258-1.835 12.168 24.473-4.259 1.835zm7.908-3.365l-.304.306-12.168-24.473 3.955-1.835c5.475-.306 10.95 2.447 13.688 7.648 3.042 6.424.912 14.072-5.171 18.354zm17.034 15.908c-5.78 0-10.95 2.753-14.297 7.342v-20.19l26.16-11.32 2.129 4.59v26.614c-3.346-4.283-8.517-7.036-13.992-7.036zm13.992 16.213v.612H43.193c.913-7.342 6.997-13.154 13.993-13.154 7.3 0 13.08 5.506 14.296 12.542zm0 9.177H42.889v-4.588h28.593v4.588zm5.78-39.462h-1.826v-6.424l-4.258-8.872-22.814 9.79c2.738-5.201 3.042-11.32.305-16.52-2.13-4.283-6.084-7.342-10.342-8.871l44.714-19.579 20.684 32.427c-.608 9.79-8.517 17.437-18.555 18.049h-7.909z"/><path fill="#CCEFEF" d="M72.682 68.44c15.28 1.069 27.305-15.979 27.237-27.629-.028-4.865-1.596-9.722-3.623-12.895S81.112 21.92 72.963 21.92c-8.53 0-23.592 3.358-25.389 7.455-1.348 3.942-2.25 5.807-2.116 10.06.43 13.716 8.355 27.472 27.224 29.007z"/><path stroke="#72D3D4" stroke-width="1.717" d="M70.602 65.568c6.314 1.134 18.548-2.673 23.534-16.048" stroke-linecap="round"/></g></svg>