<svg xmlns="http://www.w3.org/2000/svg" width="243" height="366" viewBox="0 0 243 366" xmlns:xlink="http://www.w3.org/1999/xlink">
  <defs>
    <path id="a" d="M81.8975125,312 L108.875065,312 C108.875065,312 116.01034,320.261571 113.836208,336.490738 C108.618658,341.680337 85.0347163,341.990258 76.9479809,336.490738 C75.2359733,320.003138 81.8975125,312 81.8975125,312 Z"/>
    <path id="b" d="M119.479212,312 L146.456765,312 C146.456765,312 153.592039,320.261571 151.417907,336.490738 C146.200357,341.680337 122.616416,341.990258 114.52968,336.490738 C112.817673,320.003138 119.479212,312 119.479212,312 Z"/>
    <path id="c" d="M99.9775514,318 L127.165646,318 C127.165646,318 134.356606,326.261571 132.165507,342.490738 C126.907237,347.680337 103.139239,347.990258 94.9893921,342.490738 C93.2640234,326.003138 99.9775514,318 99.9775514,318 Z"/>
    <path id="d" d="M105.039551,4.16870922 C106.196696,1.86639469 110.040937,-1.10844667e-11 113.643907,-1.10844667e-11 L114.85356,-1.10844667e-11 C118.455378,-1.10844667e-11 122.303762,1.87238557 123.457919,4.16870922 L131.716867,19.7136553 C133.834909,22.9093652 133.376933,25.5 130.570167,25.5 L97.927314,25.5 C95.1230592,25.5 94.6590002,22.9145933 96.7806119,19.7136553 L105.039551,4.16870922 Z"/>
  </defs>
  <g fill="none" fill-rule="evenodd" transform="rotate(-90 183 175.5)">
    <g opacity=".9" transform="rotate(90 175.5 175.5)">
      <g transform="translate(0 4.5)">
        <path fill="#FFFFFF" d="M63.0110039,189.156738 C68.8796162,176.301735 88.3463542,66.7895508 88.3463542,66.7895508 L88.3463542,257.002441 L82.531467,267.580078 L1.36721426e-12,267.580078 C1.36721426e-12,267.580078 0.695881673,256.455422 3.35739634,252.955078 C6.01891101,249.454734 57.1423916,202.011741 63.0110039,189.156738 Z"/>
        <path fill="#DEE4E4" d="M70.5273437,190.656738 C76.3959561,177.801735 95.862694,68.2895508 95.862694,68.2895508 L95.862694,254.455078 L83.0717039,269.080078 L7.51633987,269.080078 C7.51633987,269.080078 7.51633987,258.502441 10.8737362,254.455078 C14.2311326,250.407715 64.6587314,203.511741 70.5273437,190.656738 Z"/>
        <polygon fill="#FFFFFF" points="1.503 271.5 81.176 271.5 81.176 292.5 1.503 278.587"/>
        <path fill="#C1C9CA" d="M204.318193,189.156738 C210.186806,176.301735 229.653544,66.7895508 229.653544,66.7895508 L229.653544,257.002441 L223.838657,267.580078 L141.30719,267.580078 C141.30719,267.580078 142.003071,256.455422 144.664586,252.955078 C147.326101,249.454734 198.449581,202.011741 204.318193,189.156738 Z" transform="matrix(-1 0 0 1 370.96 0)"/>
        <polygon fill="#C1C9CA" points="147.32 271.5 226.993 271.5 226.993 292.5 147.32 278.587" transform="matrix(-1 0 0 1 374.314 0)"/>
        <polygon fill="#DEE4E4" points="7.516 271.5 84.703 268.794 79.133 295.184 7.516 278.587"/>
        <polyline fill="#FFFFFF" points="114.248 .587 105.315 3.085 89.437 63.16 89.437 250.396 89.437 259.915 114.248 259.915"/>
        <polyline fill="#FFFFFF" points="122.524 .587 111.405 3.144 97.712 63.235 97.712 256.343 97.712 257.916 121.752 257.916"/>
        <polygon fill="#FFFFFF" points="114.248 .587 123.181 3.085 139.06 63.331 139.06 250.396 139.06 259.915 114.248 259.915"/>
      </g>
      <path fill="#FFFFFF" stroke="#FFFFFF" stroke-width="14" d="M147.485153,270 L135.337058,94.5 L117.254902,94.5 L117.254902,261 L111.24183,261 L111.24183,94.5 L93.146273,94.5 L81.0826466,270 L82.5012901,270 C84.9249216,263.975505 87.183242,261 87.183242,261 L141.421405,261 C141.421405,261 143.795403,264.014546 146.317637,270 L147.485153,270 Z M227.67977,270 L228.496732,270 L228.496732,276 L227.67977,276 L227.67977,279.552751 C227.67977,282.045434 225.697857,284.441852 223.253043,284.917034 L186.405229,292.078893 L186.405229,294 L180.392157,294 L180.392157,293.247613 L152.179468,298.731122 C152.328459,303.67427 152.11666,309.098199 151.395744,315 C150.793892,315.656517 150.070487,316.277617 149.238387,316.862911 C150.958407,320.909874 152.626457,327.469315 151.417907,336.490738 C148.619047,339.274605 140.535088,340.654299 132.393325,340.4863 C132.333144,341.140351 132.257615,341.808505 132.165507,342.490738 C129.793952,344.831321 123.657263,346.17931 116.886417,346.449406 C116.089953,349.364036 115.194688,351 114.248366,351 C113.301378,351 112.40552,349.361735 111.608636,346.443257 C104.987427,346.166523 98.521564,344.874249 94.9893921,342.490738 C94.9179563,341.808099 94.8609867,341.140004 94.8174078,340.486419 C87.7796418,340.341833 80.6977602,339.040838 76.9479809,336.490738 C75.9693366,327.065841 77.7268922,320.413387 79.4122185,316.443469 C78.6351579,315.98427 77.9068793,315.503163 77.2322468,315 C76.6746268,309.110484 76.5588542,303.711963 76.7564007,298.799924 L48.1045752,293.231064 L48.1045752,294 L42.0915033,294 L42.0915033,292.062344 L5.32883491,284.917034 C2.88402092,284.441852 0.902107588,282.045434 0.902107588,279.552751 L0.902107588,276 L0,276 L0,270 L0.902107588,270 L0.902107588,267.229305 C0.902107588,263.089161 3.23863559,257.325031 6.12060008,254.35506 L57.9087233,200.985475 C61.3711999,197.417265 64.9672853,190.573515 65.9417251,185.694926 L97.8632589,25.8779297 L93.5587047,88.5 L134.921738,88.5 L130.593102,25.9654541 L139.052288,67.1271973 L162.646262,185.692672 C163.617267,190.572206 167.210678,197.417265 170.673155,200.985475 L222.461278,254.35506 C225.343242,257.325031 227.67977,263.089161 227.67977,267.229305 L227.67977,270 Z M129.281046,65.25 L129.281046,69 L121.764706,69 L121.764706,63 L114.248366,57 L114.248366,49.5 L129.281046,57 L129.281046,65.25 Z M106.732026,63 L106.732026,69 L99.2156863,69 L99.2156863,65.25 L99.2156863,57 L114.248366,49.5 L114.248366,57 L106.732026,63 Z M105.039551,4.16870922 C106.196696,1.86639469 110.040937,-1.09139364e-11 113.643907,-1.09139364e-11 L114.85356,-1.09139364e-11 C118.455378,-1.09139364e-11 122.303762,1.87238557 123.457919,4.16870922 L128.716867,19.7136553 C130.834909,22.9093652 130.376933,25.5 127.570167,25.5 L100.927314,25.5 C98.1230592,25.5 97.6590002,22.9145933 99.7806119,19.7136553 L105.039551,4.16870922 Z" stroke-linecap="round" stroke-linejoin="round"/>
    </g>
    <g transform="rotate(90 175.5 175.5)">
      <g transform="translate(0 4.5)">
        <path fill="#FFFFFF" d="M63.0110039,189.156738 C68.8796162,176.301735 88.3463542,66.7895508 88.3463542,66.7895508 L88.3463542,257.002441 L82.531467,267.580078 L1.36721426e-12,267.580078 C1.36721426e-12,267.580078 0.695881673,256.455422 3.35739634,252.955078 C6.01891101,249.454734 57.1423916,202.011741 63.0110039,189.156738 Z"/>
        <path fill="#DEE4E4" d="M70.5273437,190.656738 C76.3959561,177.801735 95.862694,68.2895508 95.862694,68.2895508 L95.862694,254.455078 L83.0717039,269.080078 L7.51633987,269.080078 C7.51633987,269.080078 7.51633987,258.502441 10.8737362,254.455078 C14.2311326,250.407715 64.6587314,203.511741 70.5273437,190.656738 Z"/>
        <polygon fill="#FFFFFF" points="1.503 271.5 81.176 271.5 81.176 292.5 1.503 278.587"/>
        <path fill="#C1C9CA" d="M204.318193,189.156738 C210.186806,176.301735 229.653544,66.7895508 229.653544,66.7895508 L229.653544,257.002441 L223.838657,267.580078 L141.30719,267.580078 C141.30719,267.580078 142.003071,256.455422 144.664586,252.955078 C147.326101,249.454734 198.449581,202.011741 204.318193,189.156738 Z" transform="matrix(-1 0 0 1 370.96 0)"/>
        <polygon fill="#C1C9CA" points="147.32 271.5 226.993 271.5 226.993 292.5 147.32 278.587" transform="matrix(-1 0 0 1 374.314 0)"/>
        <polygon fill="#DEE4E4" points="7.516 271.5 84.703 268.794 79.133 295.184 7.516 278.587"/>
        <polyline fill="#FFFFFF" points="114.248 .587 105.315 3.085 89.437 63.16 89.437 250.396 89.437 259.915 114.248 259.915"/>
        <polyline fill="#DEE4E4" points="122.524 .587 111.405 3.144 97.712 63.235 97.712 256.343 97.712 257.916 121.752 257.916"/>
        <polygon fill="#C1C9CA" points="114.248 .587 123.181 3.085 139.06 63.331 139.06 250.396 139.06 259.915 114.248 259.915"/>
      </g>
      <use fill="#DEE4E4" xlink:href="#a"/>
      <path stroke="#4E5F60" stroke-width="6" d="M83.4864865,315 L107.328282,315 C107.827686,315.792746 108.332303,316.739444 108.81092,317.839221 C110.809463,322.431517 111.743365,328.117943 111.003486,334.932706 C105.75052,338.354795 87.2857794,338.441565 79.7980917,334.685828 C79.2933737,327.955361 80.217,322.375254 82.0571524,317.894846 C82.5192018,316.769846 83.005432,315.805252 83.4864865,315 Z"/>
      <use fill="#98A6A7" xlink:href="#b"/>
      <path stroke="#4E5F60" stroke-width="6" d="M121.068186,315 L144.909982,315 C145.409385,315.792746 145.914002,316.739444 146.39262,317.839221 C148.391163,322.431517 149.325065,328.117943 148.585186,334.932706 C143.332219,338.354795 124.867479,338.441565 117.379791,334.685828 C116.875073,327.955361 117.798699,322.375254 119.638852,317.894846 C120.100901,316.769846 120.587131,315.805252 121.068186,315 Z"/>
      <use fill="#C1C9CA" xlink:href="#c"/>
      <path stroke="#4E5F60" stroke-width="6" d="M101.558851,321 L125.626575,321 C126.131573,321.794325 126.641946,322.743648 127.125894,323.847062 C129.138389,328.435606 130.079002,334.116672 129.334757,340.925352 C124.030446,344.357163 105.394354,344.44383 97.8378931,340.67913 C97.3303328,333.954392 98.2606178,328.379265 100.113647,323.902444 C100.580784,322.773865 101.072484,321.806736 101.558851,321 Z"/>
      <path fill="#FFFFFF" fill-rule="nonzero" d="M87.5682009,273.584828 C83.7744607,283.715094 81.8915825,296.348257 82.9905832,311.577177 C97.9075811,319.946878 135.335458,319.742891 145.682836,312.091738 C147.264175,296.687089 145.360207,283.820467 141.242733,273.444306 C140.250569,270.944022 139.203264,268.795443 138.166744,267 L90.5415784,267 C89.5402592,268.827111 88.528295,271.021129 87.5682009,273.584828 Z"/>
      <path fill="#C1C9CA" fill-rule="nonzero" d="M92.3815607,273.993722 C88.3522429,284.753042 86.3524447,298.170678 87.5196894,314.345259 C103.362979,323.234689 137.41229,321.279826 148.402203,313.153564 C150.081737,296.792342 148.987093,285.014206 144.613939,273.993722 C143.560165,271.33818 139.720836,268.906934 138.619951,267 L95.5395743,267 C94.4760769,268.940568 93.4012732,271.270827 92.3815607,273.993722 Z"/>
      <path fill="#DEE4E4" fill-rule="nonzero" d="M92.3815607,273.993722 C88.3522429,284.753042 86.3524447,298.170678 87.5196894,314.345259 C103.362979,323.234689 104.603907,324.814494 115.59382,316.688232 C117.273354,300.32701 118.575278,306.190161 114.202123,295.169678 C113.148349,292.514136 115.303007,268.906934 114.202123,267 L95.5395743,267 C94.4760769,268.940568 93.4012732,271.270827 92.3815607,273.993722 Z"/>
      <path stroke="#4E5F60" stroke-width="6" d="M88.791224,264 L139.852344,264 C140.065164,264.329747 140.29136,264.694937 140.528871,265.095513 C141.71608,267.097807 142.912175,269.513853 144.034418,272.341939 C148.434774,283.430973 150.399772,297.183971 148.538351,313.612996 C137.981707,323.173403 95.5985789,323.417057 80.0956459,313.339294 C78.7191926,296.986443 80.6625088,283.409735 84.7344074,272.536714 C85.8288663,269.614226 86.9947675,267.131807 88.1514432,265.086262 C88.3757518,264.689579 88.5896229,264.327511 88.791224,264 Z"/>
      <use fill="#4E5F60" xlink:href="#d"/>
      <path stroke="#4E5F60" stroke-width="6" d="M129.840903,22.5 L98.6562067,22.5 C98.7896095,22.1913677 98.9928812,21.8060759 99.2812057,21.3710723 L99.3616194,21.2497496 L99.4299106,21.1212122 L107.688849,5.5762661 L107.720038,5.51592406 C108.308294,4.34549938 111.083653,3 113.643907,3 L114.85356,3 C117.409662,3 120.191089,4.34933038 120.777443,5.5159461 L129.067569,21.1212133 L129.135843,21.24972 L129.216235,21.3710154 C129.504391,21.8057855 129.707588,22.1911608 129.840903,22.5 Z"/>
      <rect width="54.118" height="6" x="87.19" y="88.5" fill="#4E5F60"/>
      <path fill="#502CBB" d="M129.281046,65.25 L129.281046,57 L114.248366,49.5 L114.248366,57 L121.764706,63 L121.764706,69 L129.281046,69 L129.281046,65.25 Z M106.732026,63 L114.248366,57 L114.248366,49.5 L99.2156863,57 L99.2156863,65.25 L99.2156863,69 L106.732026,69 L106.732026,63 Z"/>
      <ellipse cx="114.248" cy="306" fill="#DEE4E4" stroke="#4E5F60" stroke-width="6" rx="6.013" ry="45"/>
      <rect width="84.183" height="6" y="270" fill="#4E5F60"/>
      <polyline fill="#4E5F60" points="93.203 64.5 93.203 264 87.19 264 87.19 64.5"/>
      <polyline fill="#4E5F60" points="141.307 64.5 141.307 264 135.294 264 135.294 64.5"/>
      <polyline fill="#4E5F60" points="117.255 88.5 117.255 261 111.242 261 111.242 88.5"/>
      <rect width="6.013" height="21" x="42.092" y="273" fill="#4E5F60"/>
      <path stroke="#4E5F60" stroke-width="6" d="M79.0720422,299.25 L5.32883491,284.917034 C2.88402092,284.441852 0.902107588,282.045434 0.902107588,279.552751 L0.902107588,267.229305 C0.902107588,263.089161 3.23863559,257.325031 6.12060008,254.35506 L57.9087233,200.985475 C61.3711999,197.417265 64.9672853,190.573515 65.9417251,185.694926 L97.8632589,25.8779297" stroke-linecap="square"/>
      <rect width="84.183" height="6" x="144.314" y="270" fill="#4E5F60" transform="matrix(-1 0 0 1 372.81 0)"/>
      <rect width="6.013" height="21" x="180.392" y="273" fill="#4E5F60" transform="matrix(-1 0 0 1 366.797 0)"/>
      <path stroke="#4E5F60" stroke-width="6" d="M208.763037,299.25 L135.019829,284.917034 C132.575015,284.441852 130.593102,282.045434 130.593102,279.552751 L130.593102,267.229305 C130.593102,263.089161 132.92963,257.325031 135.811595,254.35506 L187.599718,200.985475 C191.062194,197.417265 194.655606,190.572206 195.62661,185.692672 L219.220585,67.1271973 L227.67977,25.9654541" stroke-linecap="square" transform="matrix(-1 0 0 1 358.273 0)"/>
    </g>
  </g>
</svg>
