<svg xmlns="http://www.w3.org/2000/svg" width="820" height="1584" viewBox="0 0 820 1584">
  <defs>
    <linearGradient id="a" x1="50%" x2="50%" y1="2.95%" y2="100%">
      <stop stop-color="#5EE7DF" stop-opacity="0" offset="0%"/>
      <stop stop-color="#5EE7DF" offset="14.477%"/>
      <stop stop-color="#B490CA" offset="83.558%"/>
      <stop stop-color="#B490CA" stop-opacity="0" offset="100%"/>
    </linearGradient>
  </defs>
  <g fill="none" fill-rule="evenodd" transform="translate(0 -32)">
    <path fill="url(#a)" d="M402.70965,0 C319.799493,98.9882813 234.781421,184.325809 246.83465,252.683594 C258.887879,321.041379 309.823138,320.480469 466.293634,360.605469 C622.76413,400.730469 748.45812,559.615298 579.124048,670.061555 C409.789976,780.507812 423.668634,771.703125 309.823138,841.774554 C195.977642,911.845983 168.263213,1020.69377 280.42254,1070.00781 C392.581867,1119.32186 636.844415,1134.17578 756.175966,1220.23563 C875.507517,1306.29548 791.604511,1399.64082 781.787941,1503.03313 C781.787941,1503.03313 182.064685,1501.31658 174.732993,1511.16839 C161.069565,1529.52835 521.605831,1376.15315 530.222811,1279.1512 C538.83979,1182.14926 281.271514,1180.0989 129.449644,1128.90233 C-110.444569,1048.00647 27.429616,852.65041 186.555353,776.015625 C345.681089,699.38084 357.871677,697.306913 466.293634,648.722656 C574.715591,600.138399 601.809259,459.207031 436.289728,409.90625 C270.770196,360.605469 177.908455,364.944426 162.664728,291.361328 C147.421,217.77823 309.823138,82.3320313 402.70965,0 Z" opacity=".1"/>
    <g transform="translate(7 32)">
      <polygon fill="#9E7DD8" points="163.785 1060.363 170.097 1060.363 170.097 1053.371 175.236 1053.371 175.236 1060.363 181.547 1060.363 181.547 1065.087 175.236 1065.087 175.236 1072.079 170.097 1072.079 170.097 1065.087 163.785 1065.087" opacity=".796" transform="rotate(-94 172.666 1062.725)"/>
      <polygon fill="#9E7DD8" points="682.844 1185.363 689.155 1185.363 689.155 1178.371 694.295 1178.371 694.295 1185.363 700.606 1185.363 700.606 1190.087 694.295 1190.087 694.295 1197.079 689.155 1197.079 689.155 1190.087 682.844 1190.087" transform="rotate(-94 691.725 1187.725)"/>
      <polygon fill="#9E7DD8" points="199.775 759.183 207.947 759.183 207.947 750.213 214.602 750.213 214.602 759.183 222.775 759.183 222.775 765.243 214.602 765.243 214.602 774.213 207.947 774.213 207.947 765.243 199.775 765.243" transform="rotate(-49 211.275 762.213)"/>
      <rect width="6.299" height="6.299" x="48.142" y="958.333" fill="#9E7DD8" opacity=".796" transform="rotate(-64 51.292 961.483)"/>
      <rect width="12.597" height="12.598" x="265.111" y="1083.549" fill="#1DBCBC" opacity=".6" transform="scale(-1 1) rotate(-14 0 3300.305)"/>
      <ellipse cx="159.221" cy="951.658" stroke="#1DBCBC" stroke-width="4.2" opacity=".796" transform="rotate(-94 159.22 951.658)" rx="10.497" ry="10.498"/>
      <polygon fill="#9E7DD8" points="403.111 1093.557 409.944 1093.557 409.944 1085.986 415.509 1085.986 415.509 1093.557 422.342 1093.557 422.342 1098.672 415.509 1098.672 415.509 1106.242 409.944 1106.242 409.944 1098.672 403.111 1098.672" opacity=".796" transform="rotate(-49 412.727 1096.114)"/>
      <polygon fill="#9E7DD8" points="16.336 910.976 23.17 910.976 23.17 903.406 28.734 903.406 28.734 910.976 35.568 910.976 35.568 916.091 28.734 916.091 28.734 923.661 23.17 923.661 23.17 916.091 16.336 916.091" opacity=".796" transform="rotate(-49 25.952 913.533)"/>
      <rect width="10.498" height="10.498" x="341.083" y="757.083" fill="#1DBCBC" opacity=".796" transform="rotate(-54 346.332 762.332)"/>
      <rect width="12.281" height="12.282" x="494.282" y="617.423" stroke="#9E7DD8" stroke-width="3.465" opacity=".796" transform="rotate(28 500.423 623.565)"/>
      <path stroke="#1DBCBC" stroke-width="3.15" d="M625.087071,488.862603 L634.192393,502.323507 L615.98175,502.323507 L625.087071,488.862603 Z" transform="scale(-1 1) rotate(-64 0 1495.323)"/>
      <polygon fill="#9E7DD8" points="612.917 1146.924 621.315 1159.522 604.519 1159.522" transform="scale(-1 1) rotate(-84 0 1833.936)"/>
      <path stroke="#1DBCBC" stroke-width="3.15" d="M322.657373,1071.82522 L331.762695,1085.28613 L313.552051,1085.28613 L322.657373,1071.82522 Z" transform="scale(1 -1) rotate(44 2990.647 0)"/>
      <polygon fill="#1DBCBC" points="457.917 636.924 466.315 649.522 449.519 649.522" transform="scale(-1 1) rotate(-84 0 1151.791)"/>
      <polygon fill="#1DBCBC" points="525.917 1130.924 534.315 1143.522 517.519 1143.522" transform="scale(-1 1) rotate(-84 0 1721.313)"/>
      <path stroke="#9E7DD8" stroke-width="3.15" d="M735.657373,1224.90546 L744.762695,1238.36637 L726.552051,1238.36637 L735.657373,1224.90546 Z" transform="scale(1 -1) rotate(44 3782.534 0)"/>
      <polygon fill="#1DBCBC" points="635.917 1178.924 644.315 1191.522 627.519 1191.522" transform="scale(-1 1) rotate(-84 0 1891.48)"/>
      <polygon fill="#1DBCBC" points="586.917 500.924 595.315 513.522 578.519 513.522" transform="scale(-1 1) rotate(-84 0 1159.06)"/>
      <path stroke="#9E7DD8" stroke-width="3.15" d="M497.657373,1170.90546 L506.762695,1184.36637 L488.552051,1184.36637 L497.657373,1170.90546 Z" transform="scale(1 -1) rotate(44 3410.879 0)"/>
      <rect width="12.597" height="12.598" x="245.274" y="719.712" fill="#1DBCBC" opacity=".796" transform="rotate(-54 251.573 726.01)"/>
      <polygon fill="#9E7DD8" points="327.376 702.515 332.351 702.515 332.351 696.909 336.402 696.909 336.402 702.515 341.376 702.515 341.376 706.303 336.402 706.303 336.402 711.909 332.351 711.909 332.351 706.303 327.376 706.303" opacity=".796" transform="rotate(-100 334.376 704.409)"/>
      <polygon fill="#9E7DD8" points="434.88 685.249 442.713 685.249 442.713 676.617 449.092 676.617 449.092 685.249 456.925 685.249 456.925 691.081 449.092 691.081 449.092 699.713 442.713 699.713 442.713 691.081 434.88 691.081" opacity=".796" transform="rotate(-49 445.902 688.165)"/>
      <ellipse cx="255.524" cy="275.213" stroke="#1DBCBC" stroke-width="4.2" opacity=".796" transform="rotate(-94 255.524 275.213)" rx="6.823" ry="6.823"/>
      <ellipse cx="579.524" cy="401.571" stroke="#1DBCBC" stroke-width="4.2" opacity=".796" transform="rotate(-94 579.524 401.571)" rx="6.823" ry="6.823"/>
      <ellipse cx="144.604" cy="899.795" stroke="#1DBCBC" stroke-width="4.2" opacity=".796" transform="rotate(-94 144.604 899.795)" rx="6.823" ry="6.823"/>
      <ellipse cx="635.299" cy="1335.736" stroke="#1DBCBC" stroke-width="4.2" opacity=".796" transform="rotate(-94 635.299 1335.736)" rx="6.823" ry="6.823"/>
      <ellipse cx="292.299" cy="706.736" stroke="#1DBCBC" stroke-width="4.2" opacity=".796" transform="rotate(-94 292.299 706.736)" rx="6.823" ry="6.823"/>
      <ellipse cx="357.618" cy="1082.056" fill="#1DBCBC" opacity=".796" transform="rotate(-94 357.618 1082.056)" rx="7.348" ry="7.349"/>
      <rect width="6.299" height="6.299" x="229.629" y="231.066" fill="#1DBCBC" opacity=".7" transform="rotate(-109 232.778 234.216)"/>
      <rect width="6.299" height="6.299" x="542.854" y="442.854" fill="#1DBCBC" opacity=".796" transform="rotate(-109 546.003 446.003)"/>
      <rect width="8.398" height="8.399" x="374.995" y="667.995" fill="#9E7DD8" opacity=".796" transform="rotate(-74 379.194 672.194)"/>
      <ellipse cx="551.858" cy="545.297" stroke="#1DBCBC" stroke-width="4.2" opacity=".8" transform="scale(-1 1) rotate(-4 0 16348.456)" rx="7.348" ry="7.348"/>
      <polygon fill="#9E7DD8" points="190.917 277.924 199.315 290.522 182.519 290.522" transform="scale(-1 1) rotate(-84 0 496.258)"/>
      <polygon fill="#1DBCBC" points="625.775 530.924 634.173 543.522 617.377 543.522" transform="scale(-1 1) rotate(-84 0 1232.216)"/>
      <rect width="6.299" height="6.299" x="179.629" y="921.749" fill="#1DBCBC" opacity=".796" transform="rotate(-109 182.778 924.899)"/>
      <rect width="8.398" height="8.399" x="615.995" y="568.674" fill="#9E7DD8" opacity=".796" transform="rotate(-74 620.194 572.874)"/>
      <rect width="8.398" height="8.399" x="519.995" y="644.995" fill="#9E7DD8" opacity=".796" transform="rotate(-74 524.194 649.194)"/>
      <ellipse cx="220.461" cy="1096.297" stroke="#1DBCBC" stroke-width="4.2" opacity=".8" transform="scale(-1 1) rotate(-4 0 7409.488)" rx="7.348" ry="7.348"/>
      <rect width="10.498" height="10.498" x="117.083" y="1071.715" fill="#1DBCBC" opacity=".796" transform="rotate(-54 122.332 1076.964)"/>
      <rect width="12.281" height="12.282" x="181.282" y="868.72" stroke="#9E7DD8" stroke-width="3.465" opacity=".796" transform="rotate(28 187.423 874.861)"/>
      <polygon fill="#1DBCBC" points="191.917 1008.924 200.315 1021.522 183.519 1021.522" transform="scale(-1 1) rotate(-84 0 1228.369)"/>
      <polygon fill="#9E7DD8" points="280.699 1117.192 288.532 1117.192 288.532 1108.56 294.911 1108.56 294.911 1117.192 302.744 1117.192 302.744 1123.024 294.911 1123.024 294.911 1131.656 288.532 1131.656 288.532 1123.024 280.699 1123.024" opacity=".796" transform="rotate(-49 291.721 1120.108)"/>
      <ellipse cx="512.524" cy="382.524" stroke="#1DBCBC" stroke-width="4.2" opacity=".796" transform="rotate(-94 512.524 382.524)" rx="6.823" ry="6.823"/>
      <polygon fill="#9E7DD8" points="123.398 859.589 131.796 872.187 115 872.187" transform="scale(-1 1) rotate(-84 0 1002.935)"/>
      <polygon fill="#9E7DD8" points="406.142 686.712 414.54 699.309 397.744 699.309" transform="scale(-1 1) rotate(-84 0 1144.077)"/>
      <polygon fill="#9E7DD8" points="594.142 605.712 602.54 618.309 585.744 618.309" transform="scale(-1 1) rotate(-84 0 1271.872)"/>
      <polygon fill="#9E7DD8" points="592.142 464.903 600.54 477.501 583.744 477.501" transform="scale(-1 1) rotate(-84 0 1128.843)"/>
      <polygon fill="#1DBCBC" points="180.223 813.983 188.621 826.581 171.824 826.581" transform="scale(-1 1) rotate(-84 0 1020.44)"/>
      <polygon fill="#1DBCBC" points="588.142 571.769 596.54 584.366 579.744 584.366" transform="scale(-1 1) rotate(-84 0 1231.266)"/>
      <ellipse cx="376.157" cy="710.843" fill="#1DBCBC" opacity=".796" transform="rotate(-94 376.157 710.843)" rx="7.348" ry="7.349"/>
      <rect width="6.299" height="6.299" x="554.629" y="510.066" fill="#1DBCBC" opacity=".796" transform="rotate(-109 557.778 513.216)"/>
      <polygon fill="#9E7DD8" points="581.405 542.801 587.717 542.801 587.717 535.81 592.856 535.81 592.856 542.801 599.167 542.801 599.167 547.526 592.856 547.526 592.856 554.517 587.717 554.517 587.717 547.526 581.405 547.526" transform="scale(-1 1) rotate(-4 0 17448.754)"/>
      <rect width="6.299" height="6.299" x="204.837" y="302.275" fill="#1DBCBC" opacity=".6" transform="scale(-1 1) rotate(26 0 -595.461)"/>
      <rect width="6.299" height="6.299" x="519.062" y="407.062" fill="#1DBCBC" opacity=".6" transform="scale(-1 1) rotate(26 0 -1851.734)"/>
      <ellipse cx="12.885" cy="993.518" stroke="#1DBCBC" stroke-width="4.2" transform="scale(-1 1) rotate(-4 0 1362.494)" rx="9.972" ry="9.973"/>
      <rect width="12.597" height="12.598" x="141.274" y="784.694" fill="#1DBCBC" opacity=".6" transform="scale(-1 1) rotate(36 0 336.811)"/>
      <rect width="12.597" height="12.598" x="246.316" y="797.213" fill="#9E7DD8" opacity=".6" transform="scale(-1 1) rotate(36 0 26.045)"/>
      <rect width="6.299" height="6.299" x="472.837" y="1392.275" fill="#9E7DD8" opacity=".796" transform="rotate(-64 475.986 1395.424)"/>
      <rect width="6.299" height="6.299" x="102.934" y="809.125" fill="#9E7DD8" opacity=".796" transform="rotate(71 106.083 812.274)"/>
      <rect width="6.299" height="6.299" x="475.629" y="1134.066" fill="#9E7DD8" opacity=".796" transform="rotate(71 478.778 1137.216)"/>
      <rect width="8.398" height="8.399" x="329.77" y="1116.207" fill="#9E7DD8" opacity=".796" transform="rotate(-74 333.969 1120.407)"/>
      <rect width="12.597" height="12.598" x="399.274" y="1133.712" fill="#9E7DD8" opacity=".6" transform="scale(-1 1) rotate(36 0 -108.213)"/>
      <ellipse cx="538.014" cy="585.91" fill="#1DBCBC" opacity=".796" transform="rotate(-94 538.014 585.91)" rx="7.348" ry="7.349"/>
      <ellipse cx="85.618" cy="917.056" fill="#1DBCBC" opacity=".796" transform="rotate(-94 85.618 917.056)" rx="7.348" ry="7.349"/>
      <rect width="6.299" height="6.299" x="414.629" y="710.066" fill="#1DBCBC" opacity=".796" transform="rotate(-109 417.778 713.216)"/>
      <rect width="6.299" height="6.299" x="505.854" y="590.854" fill="#1DBCBC" opacity=".796" transform="rotate(-109 509.003 594.003)"/>
      <rect width="6.299" height="6.299" x="618.854" y="456.06" fill="#1DBCBC" opacity=".796" transform="rotate(-109 622.003 459.21)"/>
      <rect width="8.398" height="8.399" x="213.77" y="1049.207" fill="#9E7DD8" opacity=".796" transform="rotate(-74 217.969 1053.407)"/>
      <polygon fill="#9E7DD8" points="102.08 1033.687 108.391 1033.687 108.391 1026.695 113.531 1026.695 113.531 1033.687 119.842 1033.687 119.842 1038.411 113.531 1038.411 113.531 1045.403 108.391 1045.403 108.391 1038.411 102.08 1038.411" transform="scale(-1 1) rotate(-4 0 4213.561)"/>
      <path stroke="#9E7DD8" stroke-width="3.15" d="M71.8443129,859.07551 L80.9496347,872.536415 L62.7389911,872.536415 L71.8443129,859.07551 Z" transform="scale(1 -1) rotate(60 1570.394 0)"/>
      <polygon fill="#9E7DD8" points="244.67 307.155 252.487 307.155 252.487 298.559 258.853 298.559 258.853 307.155 266.67 307.155 266.67 312.963 258.853 312.963 258.853 321.559 252.487 321.559 252.487 312.963 244.67 312.963" opacity=".8" transform="scale(-1 1) rotate(49 0 -250.958)"/>
      <polygon fill="#9E7DD8" points="547.844 470.363 554.155 470.363 554.155 463.371 559.295 463.371 559.295 470.363 565.606 470.363 565.606 475.087 559.295 475.087 559.295 482.079 554.155 482.079 554.155 475.087 547.844 475.087" opacity=".796" transform="rotate(-86 556.725 472.725)"/>
      <ellipse cx="178.481" cy="248.615" stroke="#1DBCBC" stroke-width="4.2" opacity=".7" transform="rotate(-86 178.48 248.615)" rx="7.348" ry="7.348"/>
      <polygon fill="#9E7DD8" points="447.07 370.15 453.381 370.15 453.381 363.158 458.52 363.158 458.52 370.15 464.832 370.15 464.832 374.874 458.52 374.874 458.52 381.866 453.381 381.866 453.381 374.874 447.07 374.874" transform="rotate(-86 455.95 372.512)"/>
      <rect width="10.498" height="10.498" x="775.948" y="1258.386" fill="#1DBCBC" opacity=".796" transform="rotate(-46 781.197 1263.635)"/>
      <rect width="12.281" height="12.282" x="480.631" y="1105.069" stroke="#9E7DD8" stroke-width="3.465" opacity=".796" transform="rotate(36 486.772 1111.21)"/>
      <polygon fill="#9E7DD8" points="586.918 429.586 595.316 442.184 578.52 442.184" transform="scale(-1 1) rotate(-76 0 1187.106)"/>
      <path stroke="#1DBCBC" stroke-width="3.15" d="M563.46418,614.894438 L572.569502,628.355342 L554.358858,628.355342 L563.46418,614.894438 Z" transform="scale(1 -1) rotate(52 1836.717 0)"/>
      <ellipse cx="495.695" cy="661.591" stroke="#1DBCBC" stroke-width="4.2" opacity=".796" transform="rotate(-86 495.695 661.591)" rx="6.823" ry="6.823"/>
      <ellipse cx="436.931" cy="1120.056" fill="#1DBCBC" opacity=".796" transform="rotate(-86 436.931 1120.056)" rx="7.348" ry="7.349"/>
      <rect width="6.299" height="6.299" x="292.318" y="791.756" fill="#1DBCBC" opacity=".796" transform="rotate(-101 295.467 794.905)"/>
      <rect width="6.299" height="6.299" x="483.212" y="387.212" fill="#1DBCBC" opacity=".6" transform="rotate(-86 486.361 390.361)"/>
      <rect width="8.398" height="8.399" x="254.795" y="1047.443" fill="#9E7DD8" opacity=".796" transform="rotate(-66 258.994 1051.642)"/>
      <polygon fill="#9E7DD8" points="80.631 972.221 86.942 972.221 86.942 965.229 92.082 965.229 92.082 972.221 98.393 972.221 98.393 976.945 92.082 976.945 92.082 983.937 86.942 983.937 86.942 976.945 80.631 976.945" transform="scale(-1 1) rotate(4 0 -1588.7)"/>
      <polygon fill="#9E7DD8" points="384.631 738.589 390.942 738.589 390.942 731.597 396.082 731.597 396.082 738.589 402.393 738.589 402.393 743.313 396.082 743.313 396.082 750.305 390.942 750.305 390.942 743.313 384.631 743.313" transform="scale(-1 1) rotate(4 0 -10527.753)"/>
      <rect width="6.299" height="6.299" x="260.997" y="764.435" fill="#1DBCBC" opacity=".6" transform="scale(-1 1) rotate(34 0 -96.4)"/>
      <path stroke="#9E7DD8" stroke-width="3.15" d="M307.796032,739.42351 L316.901353,752.884415 L298.69071,752.884415 L307.796032,739.42351 Z" transform="scale(1 -1) rotate(68 1413.098 0)"/>
      <path stroke="#9E7DD8" stroke-width="3.15" d="M223.57063,829.636328 L232.675952,843.097232 L214.465308,843.097232 L223.57063,829.636328 Z" transform="scale(1 -1) rotate(68 1462.62 0)"/>
      <path stroke="#1DBCBC" stroke-width="3.15" d="M606.09297,1440.47125 L615.198291,1453.93215 L596.987648,1453.93215 L606.09297,1440.47125 Z" opacity=".4" transform="scale(-1 1) rotate(-64 0 2416.535)"/>
      <polygon fill="#1DBCBC" points="735.299 1270.924 743.697 1283.522 726.901 1283.522" opacity=".6" transform="scale(-1 1) rotate(-84 0 2093.855)"/>
      <polygon fill="#1DBCBC" points="48.142 1027.344 56.54 1039.941 39.744 1039.941" transform="scale(-1 1) rotate(-84 0 1087.11)"/>
      <polygon fill="#9E7DD8" points="698.466 1319.592 706.638 1319.592 706.638 1310.622 713.294 1310.622 713.294 1319.592 721.466 1319.592 721.466 1325.652 713.294 1325.652 713.294 1334.622 706.638 1334.622 706.638 1325.652 698.466 1325.652" opacity=".6" transform="rotate(-100 709.966 1322.622)"/>
      <ellipse cx="395.299" cy="1408.736" stroke="#1DBCBC" stroke-width="4.2" opacity=".5" transform="rotate(-94 395.299 1408.736)" rx="6.823" ry="6.823"/>
      <rect width="6.299" height="6.299" x="525.629" y="1169.066" fill="#1DBCBC" opacity=".7" transform="rotate(-109 528.778 1172.216)"/>
      <rect width="8.398" height="8.399" x="563.775" y="1498.816" fill="#9E7DD8" opacity=".4" transform="rotate(-74 567.975 1503.015)"/>
      <ellipse cx="665.864" cy="1226.906" stroke="#1DBCBC" stroke-width="4.2" opacity=".6" transform="scale(-1 1) rotate(-4 0 20294.766)" rx="7.348" ry="7.348"/>
      <ellipse cx="534.624" cy="1214.664" fill="#1DBCBC" opacity=".7" transform="rotate(-94 534.624 1214.664)" rx="7.348" ry="7.349"/>
      <ellipse cx="375.69" cy="1116.297" stroke="#1DBCBC" stroke-width="4.2" opacity=".7" transform="rotate(-86 375.69 1116.297)" rx="7.348" ry="7.348"/>
      <polygon fill="#9E7DD8" points="592.918 1229.586 601.316 1242.184 584.52 1242.184" opacity=".7" transform="scale(-1 1) rotate(-76 0 1994.786)"/>
      <rect width="6.299" height="6.299" x="373.324" y="1528.364" fill="#1DBCBC" opacity=".4" transform="rotate(-101 376.473 1531.514)"/>
      <rect width="6.299" height="6.299" x="499.987" y="1326.425" fill="#1DBCBC" opacity=".8" transform="rotate(-86 503.136 1329.574)"/>
      <polygon fill="#9E7DD8" points="571.19 1179.363 577.501 1179.363 577.501 1172.371 582.64 1172.371 582.64 1179.363 588.952 1179.363 588.952 1184.087 582.64 1184.087 582.64 1191.079 577.501 1191.079 577.501 1184.087 571.19 1184.087" opacity=".8" transform="rotate(-94 580.07 1181.725)"/>
      <rect width="6.299" height="6.299" x="187.837" y="973.275" fill="#9E7DD8" opacity=".796" transform="rotate(-64 190.986 976.424)"/>
      <polygon fill="#1DBCBC" points="448.917 1146.924 457.315 1159.522 440.519 1159.522" opacity=".8" transform="scale(-1 1) rotate(-84 0 1651.796)"/>
      <polygon fill="#9E7DD8" points="382.392 325.675 389.225 325.675 389.225 318.105 394.79 318.105 394.79 325.675 401.623 325.675 401.623 330.79 394.79 330.79 394.79 338.36 389.225 338.36 389.225 330.79 382.392 330.79" opacity=".796" transform="rotate(-49 392.007 328.233)"/>
      <path stroke="#1DBCBC" stroke-width="3.15" d="M301.938228,304.023888 L311.04355,317.484793 L292.832906,317.484793 L301.938228,304.023888 Z" transform="scale(1 -1) rotate(44 1069.553 0)"/>
      <ellipse cx="336.899" cy="314.174" fill="#1DBCBC" opacity=".796" transform="rotate(-94 336.899 314.174)" rx="7.348" ry="7.349"/>
      <rect width="8.398" height="8.399" x="311.995" y="332.995" fill="#9E7DD8" opacity=".796" transform="rotate(-74 316.194 337.194)"/>
      <rect width="8.398" height="8.399" x="538.995" y="377.995" fill="#9E7DD8" opacity=".796" transform="rotate(-74 543.194 382.194)"/>
      <rect width="8.398" height="8.399" x="215.995" y="270.995" fill="#9E7DD8" opacity=".796" transform="rotate(-74 220.194 275.194)"/>
      <rect width="12.597" height="12.598" x="439.701" y="331.903" fill="#9E7DD8" opacity=".6" transform="scale(-1 1) rotate(36 0 -1034.445)"/>
      <ellipse cx="415.461" cy="357.843" fill="#1DBCBC" opacity=".796" transform="rotate(-86 415.461 357.843)" rx="7.348" ry="7.349"/>
      <ellipse cx="365.31" cy="347" stroke="#1DBCBC" stroke-width="4.2" opacity=".7" transform="rotate(-86 365.31 347)" rx="7.348" ry="7.348"/>
      <polygon fill="#1DBCBC" points="493.914 344.712 502.312 357.309 485.516 357.309" opacity=".8" transform="scale(-1 1) rotate(-84 0 899.558)"/>
      <ellipse cx="568.299" cy="1138.736" stroke="#1DBCBC" stroke-width="4.2" opacity=".8" transform="rotate(-94 568.299 1138.736)" rx="6.823" ry="6.823"/>
      <rect width="8.398" height="8.399" x="139.995" y="999.627" fill="#9E7DD8" opacity=".796" transform="rotate(-74 144.194 1003.826)"/>
      <ellipse cx="421.781" cy="648.843" fill="#1DBCBC" opacity=".796" transform="rotate(-94 421.781 648.843)" rx="7.348" ry="7.349"/>
      <path stroke="#9E7DD8" stroke-width="3.15" d="M543.538655,414.856273 L552.643977,428.317177 L534.433334,428.317177 L543.538655,414.856273 Z" transform="scale(1 -1) rotate(60 1272.678 0)"/>
      <polygon fill="#9E7DD8" points="521.844 1376.363 528.155 1376.363 528.155 1369.371 533.295 1369.371 533.295 1376.363 539.606 1376.363 539.606 1381.087 533.295 1381.087 533.295 1388.079 528.155 1388.079 528.155 1381.087 521.844 1381.087" opacity=".5" transform="rotate(-94 530.725 1378.725)"/>
      <polygon fill="#9E7DD8" points="264.07 1572.15 270.381 1572.15 270.381 1565.158 275.52 1565.158 275.52 1572.15 281.832 1572.15 281.832 1576.874 275.52 1576.874 275.52 1583.866 270.381 1583.866 270.381 1576.874 264.07 1576.874" opacity=".1" transform="rotate(-94 272.95 1574.512)"/>
      <rect width="6.299" height="6.299" x="395.843" y="1573.883" fill="#9E7DD8" opacity=".3" transform="rotate(-64 398.992 1577.033)"/>
      <path stroke="#9E7DD8" stroke-width="3.15" d="M338.882774,1569.69264 L347.988096,1583.15355 L329.777453,1583.15355 L338.882774,1569.69264 Z" opacity=".15" transform="scale(1 -1) rotate(44 4239.137 0)"/>
      <polygon fill="#1DBCBC" points="254.142 1526.712 262.54 1539.309 245.744 1539.309" opacity=".1" transform="scale(-1 1) rotate(-84 0 1815.264)"/>
      <ellipse cx="492.305" cy="1515.345" stroke="#1DBCBC" stroke-width="4.2" opacity=".4" transform="rotate(-94 492.305 1515.345)" rx="6.823" ry="6.823"/>
      <ellipse cx="451.524" cy="1574.524" stroke="#1DBCBC" stroke-width="4.2" opacity=".1" transform="rotate(-94 451.524 1574.524)" rx="6.823" ry="6.823"/>
      <ellipse cx="540.858" cy="1269.297" stroke="#1DBCBC" stroke-width="4.2" opacity=".6" transform="scale(-1 1) rotate(-4 0 16757.457)" rx="7.348" ry="7.348"/>
      <rect width="12.281" height="12.282" x="563.282" y="1306.72" stroke="#9E7DD8" stroke-width="3.465" opacity=".8" transform="rotate(28 569.423 1312.861)"/>
      <polygon fill="#9E7DD8" points="548.142 1547.712 556.54 1560.309 539.744 1560.309" opacity=".3" transform="scale(-1 1) rotate(-84 0 2162.784)"/>
      <polygon fill="#1DBCBC" points="527.923 1429.533 536.321 1442.131 519.525 1442.131" opacity=".4" transform="scale(-1 1) rotate(-84 0 2022.15)"/>
      <rect width="6.299" height="6.299" x="450.634" y="1424.675" fill="#9E7DD8" opacity=".5" transform="rotate(71 453.784 1427.825)"/>
      <rect width="8.398" height="8.399" x="311.77" y="1534.207" fill="#9E7DD8" opacity=".2" transform="rotate(-74 315.969 1538.407)"/>
      <rect width="12.597" height="12.598" x="206.274" y="1559.712" fill="#9E7DD8" opacity=".1" transform="scale(-1 1) rotate(36 0 911.78)"/>
      <ellipse cx="433.843" cy="1534.843" fill="#1DBCBC" opacity=".3" transform="rotate(-94 433.843 1534.843)" rx="7.348" ry="7.349"/>
      <polygon fill="#9E7DD8" points="445.405 1362.801 451.717 1362.801 451.717 1355.81 456.856 1355.81 456.856 1362.801 463.167 1362.801 463.167 1367.526 456.856 1367.526 456.856 1374.517 451.717 1374.517 451.717 1367.526 445.405 1367.526" opacity=".6" transform="scale(-1 1) rotate(-4 0 14374.223)"/>
      <path stroke="#9E7DD8" stroke-width="3.15" d="M404.544554,1468.6256 L413.649875,1482.08651 L395.439232,1482.08651 L404.544554,1468.6256 Z" opacity=".4" transform="scale(1 -1) rotate(60 2958.866 0)"/>
      <ellipse cx="460.524" cy="1483.524" stroke="#1DBCBC" stroke-width="4.2" opacity=".2" transform="rotate(-94 460.524 1483.524)" rx="6.823" ry="6.823"/>
      <ellipse cx="212.618" cy="1502.056" fill="#1DBCBC" opacity=".25" transform="rotate(-94 212.618 1502.056)" rx="7.348" ry="7.349"/>
      <path stroke="#9E7DD8" stroke-width="3.15" d="M669.764057,1565.80414 L678.869378,1579.26505 L660.658735,1579.26505 L669.764057,1565.80414 Z" opacity=".4" transform="scale(1 -1) rotate(60 3392.403 0)"/>
      <rect width="10.498" height="10.498" x="497.954" y="1567.994" fill="#1DBCBC" opacity=".3" transform="rotate(-46 503.202 1573.243)"/>
      <rect width="12.281" height="12.282" x="286.631" y="1485.069" stroke="#9E7DD8" stroke-width="3.465" opacity=".2" transform="rotate(36 292.772 1491.21)"/>
      <rect width="12.597" height="12.598" x="765.111" y="1306.549" fill="#1DBCBC" opacity=".8" transform="scale(-1 1) rotate(-14 0 7595.478)"/>
      <polygon fill="#9E7DD8" points="637.117 1525.165 643.95 1525.165 643.95 1517.595 649.515 1517.595 649.515 1525.165 656.348 1525.165 656.348 1530.28 649.515 1530.28 649.515 1537.851 643.95 1537.851 643.95 1530.28 637.117 1530.28" opacity=".3" transform="rotate(-49 646.732 1527.723)"/>
      <rect width="6.299" height="6.299" x="691.634" y="1384.675" fill="#1DBCBC" opacity=".5" transform="rotate(-109 694.784 1387.825)"/>
      <rect width="10.498" height="10.498" x="695.863" y="1492.904" fill="#1DBCBC" opacity=".4" transform="rotate(-54 701.112 1498.153)"/>
      <ellipse cx="592.885" cy="1560.886" stroke="#1DBCBC" stroke-width="4.2" opacity=".15" transform="scale(-1 1) rotate(-4 0 18538.889)" rx="9.972" ry="9.973"/>
      <path stroke="#9E7DD8" stroke-width="3.15" d="M148.39304,1530.63253 L157.498362,1544.09344 L139.287719,1544.09344 L148.39304,1530.63253 Z" opacity=".2" transform="scale(1 -1) rotate(44 3951.97 0)"/>
      <ellipse cx="352.425" cy="1498.098" stroke="#1DBCBC" stroke-width="4.2" opacity=".2" transform="scale(-1 1) rotate(-4 0 11590.233)" rx="9.972" ry="9.973"/>
      <rect width="12.597" height="12.598" x="665.28" y="1443.321" fill="#9E7DD8" opacity=".4" transform="scale(-1 1) rotate(36 0 -617.287)"/>
      <rect width="8.398" height="8.399" x="650.775" y="1375.816" fill="#9E7DD8" opacity=".5" transform="rotate(-74 654.975 1380.015)"/>
      <ellipse cx="771.618" cy="1362.056" fill="#1DBCBC" opacity=".5" transform="rotate(-86 771.618 1362.056)" rx="7.348" ry="7.349"/>
      <polygon fill="#9E7DD8" points="724.411 1448.41 730.722 1448.41 730.722 1441.418 735.862 1441.418 735.862 1448.41 742.173 1448.41 742.173 1453.134 735.862 1453.134 735.862 1460.126 730.722 1460.126 730.722 1453.134 724.411 1453.134" opacity=".4" transform="scale(-1 1) rotate(4 0 -19547.972)"/>
      <path stroke="#9E7DD8" stroke-width="3.15" d="M739.576529,1385.24497 L748.68185,1398.70587 L730.471207,1398.70587 L739.576529,1385.24497 Z" opacity=".5" transform="scale(1 -1) rotate(68 2802.349 0)"/>
      <polygon fill="#9E7DD8" points="320.67 1439.764 328.487 1439.764 328.487 1431.168 334.853 1431.168 334.853 1439.764 342.67 1439.764 342.67 1445.572 334.853 1445.572 334.853 1454.168 328.487 1454.168 328.487 1445.572 320.67 1445.572" opacity=".5" transform="rotate(-49 331.67 1442.668)"/>
      <ellipse cx="199.524" cy="178.524" stroke="#1DBCBC" stroke-width="4.2" opacity=".5" transform="rotate(86 199.524 178.524)" rx="6.823" ry="6.823"/>
      <rect width="6.299" height="6.299" x="358.543" y=".543" fill="#1DBCBC" opacity=".1" transform="rotate(79 361.693 3.692)"/>
      <polygon fill="#1DBCBC" points="325.142 32.701 333.54 45.299 316.744 45.299" opacity=".2" transform="scale(1 -1) rotate(-84 281.828 0)"/>
      <polygon fill="#1DBCBC" points="207.142 236.927 215.54 249.525 198.744 249.525" opacity=".7" transform="scale(1 -1) rotate(-84 -62.988 0)"/>
      <rect width="8.398" height="8.399" x="340.995" y="18.995" fill="#9E7DD8" opacity=".15" transform="rotate(106 345.194 23.194)"/>
      <rect width="12.597" height="12.598" x="280.5" y="71.499" fill="#9E7DD8" opacity=".3" transform="scale(1 -1) rotate(36 526.236 0)"/>
      <polygon fill="#9E7DD8" points="173.631 211.505 179.942 211.505 179.942 204.513 185.082 204.513 185.082 211.505 191.393 211.505 191.393 216.229 185.082 216.229 185.082 223.221 179.942 223.221 179.942 216.229 173.631 216.229" opacity=".6" transform="scale(1 -1) rotate(-4 -5941.843 0)"/>
      <path stroke="#9E7DD8" stroke-width="3.15" d="M216.764057,197.804141 L225.869378,211.265045 L207.658735,211.265045 L216.764057,197.804141 Z" opacity=".6" transform="scale(-1 1) rotate(60 0 -171.53)"/>
      <ellipse cx="255.843" cy="117.843" fill="#1DBCBC" opacity=".4" transform="rotate(86 255.843 117.843)" rx="7.348" ry="7.349"/>
      <rect width="12.281" height="12.282" x="270.857" y="92.861" stroke="#9E7DD8" stroke-width="3.465" opacity=".3" transform="rotate(-144 276.998 99.002)"/>
      <path stroke="#9E7DD8" stroke-width="2.678" d="M307.763006,52.5234652 L315.691728,63.8502114 L299.834283,63.8502114 L307.763006,52.5234652 Z" opacity=".2" transform="scale(-1 1) rotate(44 0 -704.051)"/>
      <ellipse cx="228.885" cy="135.886" stroke="#1DBCBC" stroke-width="4.2" opacity=".4" transform="scale(1 -1) rotate(-4 -3662.371 0)" rx="9.972" ry="9.973"/>
      <polygon fill="#9E7DD8" points="224.896 169.942 232.713 169.942 232.713 161.346 239.079 161.346 239.079 169.942 246.896 169.942 246.896 175.751 239.079 175.751 239.079 184.346 232.713 184.346 232.713 175.751 224.896 175.751" opacity=".5" transform="rotate(131 235.896 172.846)"/>
      <rect width="12.597" height="12.598" x="675.274" y="1261.712" fill="#1DBCBC" opacity=".6" transform="rotate(-54 681.573 1268.01)"/>
      <ellipse cx="625.299" cy="1279.736" stroke="#1DBCBC" stroke-width="4.2" opacity=".6" transform="rotate(-86 625.299 1279.736)" rx="6.823" ry="6.823"/>
      <path stroke="#9E7DD8" stroke-width="3.15" d="M593.296938,1381.63633 L602.40226,1395.09723 L584.191616,1395.09723 L593.296938,1381.63633 Z" opacity=".6" transform="scale(1 -1) rotate(68 2650.72 0)"/>
    </g>
  </g>
</svg>
