<svg xmlns="http://www.w3.org/2000/svg" width="421" height="386" xmlns:xlink="http://www.w3.org/1999/xlink"><defs><path id="a" d="M87.764 5.993L99.836 23.84H75.692z"/><path id="b" d="M392.173 288.173h10.498v10.498h-10.498z"/><path id="c" d="M382.124 122.124h15.746v15.747h-15.746z"/><path id="d" d="M2.083 340.083h10.498v10.498H2.083z"/><path id="e" d="M206.883 372.882l12.072 17.847h-24.144z"/><ellipse id="f" cx="191.843" cy="205.843" rx="7.348" ry="7.349"/></defs><g fill="none" fill-rule="evenodd" opacity=".3"><g transform="scale(1 -1) rotate(88 82.294 -58.12)"><use fill="#1DBCBC" xlink:href="#a"/><path stroke="#1DBCBC" stroke-width="2" d="M87.764 7.778L97.953 22.84H77.576L87.764 7.778z"/></g><g transform="rotate(-74 310.796 211.256)"><use fill="#1DBCBC" xlink:href="#b"/><path stroke="#1DBCBC" stroke-width="2" d="M393.173 289.173h8.498v8.498h-8.498z"/></g><g transform="rotate(8 1219.47 -356.39)"><use fill="#1DBCBC" xlink:href="#c"/><path stroke="#1DBCBC" stroke-width="2" d="M383.124 123.124h13.746v13.747h-13.746z"/></g><g transform="rotate(-82 70.177 312.85)"><use fill="#1DBCBC" xlink:href="#d"/><path stroke="#1DBCBC" stroke-width="2" d="M3.083 341.083h8.498v8.498H3.083z"/></g><g transform="scale(1 -1) rotate(72 728.583 86.917)"><use fill="#1DBCBC" xlink:href="#e"/><path stroke="#1DBCBC" stroke-width="2" d="M206.883 374.666l10.188 15.063h-20.377l10.189-15.063z"/></g><g transform="rotate(-114 179.737 188.097)"><use fill="#1DBCBC" xlink:href="#f"/><ellipse cx="191.843" cy="205.843" stroke="#1DBCBC" stroke-width="2" rx="6.348" ry="6.349"/></g><path stroke="#1DBCBC" stroke-width=".5" d="M.414 61.632l88.98 312.218m8.648 11.45l176.926-58.806M99.3 375.197l87.883-199.853m95.057 129.108L194.73 175.389M17.886 50.342l167.487 116.19M1.188 37.963l322.7-36.76m12.887 17.15l73.98 126.935m-115.67 175.394L417.09 156.794m-9.53-2.824l-210.348 13.304M321.814 16.08L192.628 162.916" stroke-linecap="round" stroke-linejoin="round"/></g></svg>