<svg xmlns="http://www.w3.org/2000/svg" width="111" height="449" xmlns:xlink="http://www.w3.org/1999/xlink"><defs><path id="a" d="M0 407h110v35.5H0z"/><path id="b" d="M37.437 9.678C38.872 7.647 43.64 6 48.107 6h1.5c4.466 0 9.238 1.652 10.67 3.678l10.24 13.716c2.627 2.82 2.059 5.106-1.422 5.106H28.618c-3.477 0-4.053-2.281-1.422-5.106L37.437 9.678z"/></defs><g fill="none" fill-rule="evenodd"><g opacity=".9" transform="translate(0 6.5)"><path fill="#FFF" stroke="#FFF" stroke-width="14" d="M97.196 127.934v-3.97h6.013v304.6h-6.013v-.372H52.098V127.934h45.098zm-78.17 0h33.072v300.258H19.026V127.934zm-6.013 0h6.013v300.258h-6.013V127.934zm0-3.97v304.6H7v-304.6h6.013z"/><use fill="#FFF" xlink:href="#a"/><path stroke="#FFF" stroke-width="13" d="M6.5 413.5h97V436h-97z"/><path fill="#FFF" stroke="#FFF" stroke-width="13" d="M33.615 18.43c11.9-23.736 32.032-24.168 43.365-.142 0 0 26.23 33.3 26.23 113.212H7.114c0-77.696 26.5-113.07 26.5-113.07z"/></g><g transform="translate(7 6.5)"><path fill="#F27E2D" d="M45.098 135.934h46.601v300.258H45.098z"/><path fill="#FFBD8F" d="M12.026 135.934h33.072v300.258H12.026z"/><path fill="#F6E5D3" d="M6.013 135.934h6.013v300.258H6.013z"/><path fill="#4E5F60" d="M6.013 93h84.183v6H6.013zM1.503 205.5h90.196v6H1.503zM1.503 430.5h90.196v6H1.503z"/><path fill="#F6E5D3" d="M26.615 26.43c11.9-23.736 32.032-24.168 43.365-.142 0 0 26.23 33.3 26.23 113.212H.114c0-77.696 26.5-113.07 26.5-113.07z"/><path fill="#FFBD8F" d="M37.936 26.289C47.88 6.373 62.404 7.095 69.634 28.173c0 0 19.17 40.831 23.06 111.327H12.142c0-77.696 25.795-113.211 25.795-113.211z"/><path fill="#F27E2D" d="M45.098 22.475c0-14.04 7.27-16.664 15.236-5.117 0 0 32.985 28.849 35.603 123.739H45.098V22.475z"/><path stroke="#4E5F60" stroke-width="6" d="M93.197 129H3.127c.284-32.323 5.141-59.473 13.063-81.662 2.845-7.967 5.885-14.699 8.915-20.224a78.467 78.467 0 0 1 2.89-4.882c.298-.46.56-.85.783-1.169.126-.18.207-.292.238-.334l.161-.215.12-.24c10.858-21.657 27.779-21.81 37.97-.206l.145.309.211.268c.029.036.106.137.228.305.218.298.474.664.767 1.1a69.475 69.475 0 0 1 2.846 4.661c2.991 5.317 5.995 11.875 8.806 19.728C88.115 68.349 92.924 95.738 93.197 129zM0 129.115L.115 129H0 0v.115z"/><use fill="#4E5F60" xlink:href="#b"/><path stroke="#4E5F60" stroke-width="7.26" d="M67.089 24.87H30.625l9.721-13.02.056-.077c.616-.872 4.3-2.143 7.705-2.143h1.5c3.4 0 7.09 1.274 7.704 2.143L67.09 24.87z"/><path fill="#4E5F60" d="M6.013 131.965v304.599H0V131.965M96.209 131.965v304.599h-6.013V131.965"/></g></g></svg>