<svg xmlns="http://www.w3.org/2000/svg" width="74" height="420" viewBox="0 0 74 420">
  <g fill="none" fill-rule="evenodd" transform="matrix(0 -1 1 0 4 415)">
    <path fill="#FFFFFF" stroke="#FFFFFF" stroke-width="10" d="M55.9808356,49.5332031 C56.4012986,47.3500256 55.9002933,44.1512855 54.4315763,40.5869374 L43.8601234,8.58263663 C42.3828017,3.85491146 37.4568709,0 32.8465434,0 L31.2981882,0 C26.6863864,0 21.7657574,3.84257731 20.2846119,8.58263663 L9.71317021,40.5869374 C8.50531445,43.5180707 7.95218769,46.198508 8.02614379,48.2714075 L8.02614379,129 L8.01960784,129 L8.01960784,135 L8.02614379,135 L8.02614379,195 L8.01960784,195 L8.01960784,201 L8.02614379,201 L8.02614379,343.5 L8.01960784,343.5 L8.01960784,349.5 L8.02614379,349.5 L8.02614379,357 L8.01960784,357 L8.01960784,363 L8.02614379,363 L8.02614379,370.5 L8.01960784,370.5 L8.01960784,376.5 L8.02614379,376.5 L8.02614379,384.065721 L1.19571675,403.824889 C0.111359238,406.961736 1.92129165,409.5 5.23632984,409.5 L58.907461,409.5 C62.2334376,409.5 64.0315433,406.959166 62.9480741,403.824889 L56.124183,384.084628 L56.124183,49.5332031 L55.9808356,49.5332031 Z" opacity=".9" transform="rotate(90 204.5 205.5)"/>
    <g transform="rotate(90 205 205)">
      <polygon fill="#FFFFFF" points="6.013 3.579 13.59 7.444 27.059 48 27.059 390.267 34.066 405 6.013 405" transform="matrix(-1 0 0 1 40.079 0)"/>
      <polygon fill="#DEE4E4" points="12.026 3.579 19.001 5.987 33.072 48 33.072 390.267 40.079 405 12.026 405" transform="matrix(-1 0 0 1 52.105 0)"/>
      <polygon fill="#C1C9CA" points="33.072 3.579 40.649 7.444 54.118 48 54.118 390.267 61.125 405 33.072 405"/>
      <rect width="24.052" height="6" x="21.046" y="16.5" fill="#4E5F60"/>
      <path stroke="#4E5F60" stroke-width="6" d="M11.1859998 387L54.957791 387 61.1127043 404.805031C61.5244051 405.996006 61.1662382 406.5 59.907461 406.5L6.23632984 406.5C4.98208252 406.5 4.62059208 405.992516 5.03108658 404.805031L11.1859998 387zM53.8802919 49.5L12.2636342 49.5C12.190761 49.3461712 12.1102415 49.0666995 12.0614076 48.6584598 11.8653751 47.019673 12.3404642 44.5120101 13.4868984 41.7299299L13.5617906 41.5278742 24.1332322 9.52357342 24.148073 9.4773939C25.2488447 5.95463182 29.0378909 3 32.2981882 3L33.8465434 3C37.1013218 3 40.8984467 5.96288412 41.9966675 9.47741061L52.5829562 41.5278751 52.6578282 41.7298816C53.80263 44.5081378 54.2779708 47.0158962 54.0826477 48.6559693 54.0339132 49.0651789 53.9533307 49.345556 53.8802919 49.5z"/>
      <rect width="48.105" height="6" x="9.02" y="129" fill="#4E5F60"/>
      <rect width="48.105" height="6" x="9.02" y="195" fill="#4E5F60"/>
      <rect width="48.105" height="6" x="9.02" y="343.5" fill="#4E5F60"/>
      <rect width="48.105" height="6" x="9.02" y="357" fill="#4E5F60"/>
      <rect width="48.105" height="6" x="9.02" y="370.5" fill="#4E5F60"/>
      <rect width="342.745" height="6" x="-159.346" y="216" fill="#4E5F60" transform="rotate(90 12.026 219)"/>
      <polyline fill="#4E5F60" points="57.124 49.533 57.124 390 51.111 390 51.111 49.533"/>
      <rect width="7.516" height="7.5" x="22.549" y="39" fill="#4E5F60"/>
      <rect width="7.516" height="10.5" x="22.549" y="99" fill="#4E5F60"/>
      <rect width="7.516" height="10.5" x="22.549" y="208.5" fill="#4E5F60"/>
    </g>
  </g>
</svg>
