<svg xmlns="http://www.w3.org/2000/svg" width="243" height="366" xmlns:xlink="http://www.w3.org/1999/xlink"><defs><path id="a" d="M81.898 312h26.977s7.135 8.262 4.961 24.49c-5.217 5.19-28.801 5.5-36.888 0-1.712-16.487 4.95-24.49 4.95-24.49z"/><path id="b" d="M119.48 312h26.977s7.135 8.262 4.96 24.49c-5.217 5.19-28.8 5.5-36.887 0-1.712-16.487 4.95-24.49 4.95-24.49z"/><path id="c" d="M99.978 318h27.188s7.19 8.262 5 24.49c-5.259 5.19-29.027 5.5-37.177 0-1.725-16.487 4.989-24.49 4.989-24.49z"/><path id="d" d="M105.04 4.169c1.157-2.303 5-4.169 8.604-4.169h1.21c3.601 0 7.45 1.872 8.604 4.169l8.259 15.545c2.118 3.195 1.66 5.786-1.147 5.786H97.927c-2.804 0-3.268-2.585-1.146-5.786l8.259-15.545z"/></defs><g fill="none" fill-rule="evenodd"><g opacity=".9"><path fill="#FFF" d="M70.511 201.157C76.38 188.302 95.846 78.79 95.846 78.79v190.212l-5.815 10.578H7.5s.696-11.125 3.357-14.625c2.662-3.5 53.785-50.943 59.654-63.798z"/><path fill="#DEE4E4" d="M78.027 202.657c5.869-12.855 25.336-122.367 25.336-122.367v186.165L90.572 281.08H15.016s0-10.578 3.358-14.625c3.357-4.047 53.785-50.943 59.653-63.798z"/><path fill="#FFF" d="M9.003 283.5h79.673v21L9.003 290.587z"/><path fill="#C1C9CA" d="M174.142 201.157c-5.869-12.855-25.336-122.367-25.336-122.367v190.212l5.815 10.578h82.532s-.696-11.125-3.358-14.625c-2.661-3.5-53.785-50.943-59.653-63.798zM234.494 283.5h-79.673v21l79.673-13.913z"/><path fill="#DEE4E4" d="M15.016 283.5l77.187-2.706-5.57 26.39-71.617-16.597z"/><path fill="#FFF" d="M121.748 12.587l-8.933 2.498L96.937 75.16v196.755h24.811"/><path fill="#FFF" d="M130.024 12.587l-11.119 2.557-13.693 60.091v194.681h24.04"/><path fill="#FFF" d="M121.748 12.587l8.933 2.498 15.879 60.246v196.584h-24.812z"/><path fill="#FFF" stroke="#FFF" stroke-width="14" d="M154.985 277.5L142.837 102h-18.082v166.5h-6.013V102h-18.096L88.583 277.5H90c2.424-6.024 4.682-9 4.682-9h54.238s2.374 3.015 4.897 9h1.167zm80.195 0h.817v6h-.817v3.553c0 2.492-1.982 4.889-4.427 5.364l-36.848 7.162v1.921h-6.013v-.752l-28.213 5.483c.15 4.943-.062 10.367-.783 16.269a13.274 13.274 0 0 1-2.158 1.863c1.72 4.047 3.388 10.606 2.18 19.628-2.799 2.784-10.883 4.163-19.025 3.995a47.53 47.53 0 0 1-.227 2.005c-2.372 2.34-8.509 3.688-15.28 3.958-.796 2.915-1.691 4.551-2.638 4.551-.947 0-1.842-1.638-2.64-4.557-6.62-.276-13.086-1.569-16.619-3.952a53.377 53.377 0 0 1-.172-2.005c-7.037-.144-14.12-1.445-17.869-3.995-.979-9.425.779-16.078 2.464-20.048-.777-.459-1.505-.94-2.18-1.443-.557-5.89-.673-11.288-.476-16.2l-28.651-5.569v.769h-6.013v-1.938l-36.763-7.145c-2.445-.475-4.427-2.872-4.427-5.364V283.5H7.5v-6h.902v-2.77c0-4.14 2.337-9.905 5.219-12.875l51.788-53.37c3.462-3.568 7.058-10.411 8.033-15.29l31.921-159.817L101.06 96h41.363l-4.329-62.535 8.46 41.162 23.593 118.566c.971 4.88 4.565 11.724 8.027 15.292l51.788 53.37c2.882 2.97 5.219 8.734 5.219 12.874v2.771zM136.78 72.75v3.75h-7.516v-6l-7.517-6V57l15.033 7.5v8.25zm-22.549-2.25v6h-7.516v-12l15.032-7.5v7.5l-7.516 6zm-1.692-58.831c1.157-2.303 5-4.169 8.604-4.169h1.21c3.601 0 7.45 1.872 8.604 4.169l5.259 15.545c2.118 3.195 1.66 5.786-1.147 5.786h-26.643c-2.804 0-3.268-2.585-1.146-5.786l5.259-15.545z" stroke-linecap="round" stroke-linejoin="round"/></g><g transform="translate(7.5 7.5)"><path fill="#FFF" d="M63.011 193.657C68.88 180.802 88.346 71.29 88.346 71.29v190.212l-5.815 10.578H0s.696-11.125 3.357-14.625c2.662-3.5 53.785-50.943 59.654-63.798z"/><path fill="#DEE4E4" d="M70.527 195.157C76.396 182.302 95.863 72.79 95.863 72.79v186.165L83.072 273.58H7.516s0-10.578 3.358-14.625c3.357-4.047 53.785-50.943 59.653-63.798z"/><path fill="#FFF" d="M1.503 276h79.673v21L1.503 283.087z"/><path fill="#C1C9CA" d="M166.642 193.657c-5.869-12.855-25.336-122.367-25.336-122.367v190.212l5.815 10.578h82.532s-.696-11.125-3.358-14.625c-2.661-3.5-53.785-50.943-59.653-63.798zM226.994 276h-79.673v21l79.673-13.913z"/><path fill="#DEE4E4" d="M7.516 276l77.187-2.706-5.57 26.39-71.617-16.597z"/><path fill="#FFF" d="M114.248 5.087l-8.933 2.498L89.437 67.66v196.755h24.811"/><path fill="#DEE4E4" d="M122.524 5.087l-11.119 2.557-13.693 60.091v194.681h24.04"/><path fill="#C1C9CA" d="M114.248 5.087l8.933 2.498 15.879 60.246v196.584h-24.812z"/><use fill="#DEE4E4" xlink:href="#a"/><path stroke="#4E5F60" stroke-width="6" d="M83.486 315h23.842c.5.793 1.004 1.74 1.483 2.84 1.998 4.592 2.932 10.278 2.192 17.093-5.252 3.422-23.717 3.509-31.205-.247-.505-6.73.419-12.31 2.26-16.791.461-1.125.947-2.09 1.428-2.895z"/><use fill="#98A6A7" xlink:href="#b"/><path stroke="#4E5F60" stroke-width="6" d="M121.068 315h23.842c.5.793 1.004 1.74 1.483 2.84 1.998 4.592 2.932 10.278 2.192 17.093-5.253 3.422-23.718 3.509-31.205-.247-.505-6.73.419-12.31 2.259-16.791.462-1.125.948-2.09 1.43-2.895z"/><use fill="#C1C9CA" xlink:href="#c"/><path stroke="#4E5F60" stroke-width="6" d="M101.559 321h24.068a21.17 21.17 0 0 1 1.499 2.847c2.012 4.589 2.953 10.27 2.209 17.078-5.305 3.432-23.94 3.519-31.497-.246-.508-6.725.423-12.3 2.276-16.777a21.75 21.75 0 0 1 1.445-2.902z"/><path fill="#FFF" fill-rule="nonzero" d="M87.568 273.585c-3.794 10.13-5.676 22.763-4.577 37.992 14.917 8.37 52.344 8.166 62.692.515 1.581-15.405-.323-28.272-4.44-38.648-.992-2.5-2.04-4.649-3.076-6.444H90.542c-1.002 1.827-2.014 4.021-2.974 6.585z"/><path fill="#C1C9CA" fill-rule="nonzero" d="M92.382 273.994c-4.03 10.759-6.03 24.177-4.862 40.351 15.843 8.89 49.892 6.935 60.882-1.191 1.68-16.362.585-28.14-3.788-39.16-1.054-2.656-4.893-5.087-5.994-6.994H95.54c-1.064 1.94-2.139 4.27-3.158 6.994z"/><path fill="#DEE4E4" fill-rule="nonzero" d="M92.382 273.994c-4.03 10.759-6.03 24.177-4.862 40.351 15.843 8.89 17.084 10.47 28.074 2.343 1.68-16.361 2.981-10.498-1.392-21.518-1.054-2.656 1.101-26.263 0-28.17H95.54c-1.064 1.94-2.139 4.27-3.158 6.994z"/><path stroke="#4E5F60" stroke-width="6" d="M88.791 264h51.061c.213.33.44.695.677 1.096 1.187 2.002 2.383 4.418 3.505 7.246 4.4 11.089 6.366 24.842 4.504 41.271-10.556 9.56-52.94 9.804-68.442-.274-1.377-16.353.567-29.93 4.638-40.802 1.095-2.923 2.26-5.405 3.417-7.45.225-.397.439-.76.64-1.087z"/><use fill="#4E5F60" xlink:href="#d"/><path stroke="#4E5F60" stroke-width="6" d="M129.84 22.5H98.657c.134-.309.337-.694.625-1.129l.08-.121.069-.129 8.259-15.545.031-.06c.588-1.17 3.364-2.516 5.924-2.516h1.21c2.556 0 5.337 1.35 5.923 2.516l8.29 15.605.069.129.08.121c.288.435.492.82.625 1.129z"/><path fill="#4E5F60" d="M87.19 88.5h54.118v6H87.19z"/><path fill="#502CBB" d="M129.281 65.25V57l-15.033-7.5V57l7.517 6v6h7.516v-3.75zM106.732 63l7.516-6v-7.5L99.216 57v12h7.516v-6z"/><ellipse cx="114.248" cy="306" fill="#DEE4E4" stroke="#4E5F60" stroke-width="6" rx="6.013" ry="45"/><path fill="#4E5F60" d="M0 270h84.183v6H0zM93.203 64.5V264H87.19V64.5M141.307 64.5V264h-6.013V64.5M117.255 88.5V261h-6.013V88.5"/><path fill="#4E5F60" d="M42.092 273h6.013v21h-6.013z"/><path stroke="#4E5F60" stroke-width="6" d="M79.072 299.25L5.329 284.917c-2.445-.475-4.427-2.872-4.427-5.364v-12.324c0-4.14 2.337-9.904 5.219-12.874l51.788-53.37c3.462-3.568 7.058-10.411 8.033-15.29L97.863 25.878" stroke-linecap="square"/><path fill="#4E5F60" d="M228.496 270h-84.183v6h84.183z"/><path fill="#4E5F60" d="M186.405 273h-6.013v21h6.013z"/><path stroke="#4E5F60" stroke-width="6" d="M149.51 299.25l73.743-14.333c2.445-.475 4.427-2.872 4.427-5.364v-12.324c0-4.14-2.337-9.904-5.219-12.874l-51.788-53.37c-3.462-3.568-7.056-10.413-8.027-15.292L139.052 67.127l-8.459-41.162" stroke-linecap="square"/></g></g></svg>