<svg xmlns="http://www.w3.org/2000/svg" width="820" height="1584"><defs><linearGradient id="a" x1="50%" x2="50%" y1="2.95%" y2="100%"><stop stop-color="#5EE7DF" stop-opacity="0" offset="0%"/><stop stop-color="#5EE7DF" offset="14.477%"/><stop stop-color="#B490CA" offset="83.558%"/><stop stop-color="#B490CA" stop-opacity="0" offset="100%"/></linearGradient></defs><g fill="none" fill-rule="evenodd"><path fill="url(#a)" d="M402.71 0C319.8 98.988 234.78 184.326 246.835 252.684c12.053 68.357 62.988 67.796 219.459 107.921 156.47 40.125 282.164 199.01 112.83 309.457-169.334 110.446-155.455 101.641-269.3 171.713-113.846 70.071-141.56 178.919-29.401 228.233 112.159 49.314 356.421 64.168 475.753 150.228s35.429 179.405 25.612 282.797c0 0-599.723-1.716-607.055 8.135-13.663 18.36 346.873-135.015 355.49-232.017 8.617-97.002-248.951-99.052-400.773-150.249-239.895-80.896-102.02-276.252 57.105-352.886 159.126-76.635 171.317-78.71 279.739-127.293 108.422-48.585 135.515-189.516-30.004-238.817-165.52-49.3-258.382-44.962-273.625-118.545C147.42 217.778 309.823 82.332 402.71 0z" opacity=".1" transform="translate(0 -32)"/><g transform="translate(7)"><path fill="#9E7DD8" opacity=".796" d="M170.93 1071.75l-.441-6.297-6.975.487-.358-5.126 6.974-.488-.44-6.296 4.713-.33.44 6.296 6.975-.487.358 5.126-6.975.488.44 6.297z"/><path fill="#9E7DD8" d="M689.988 1196.75l-.44-6.296-6.975.487-.358-5.127 6.974-.488-.44-6.296 4.713-.33.44 6.296 6.975-.487.358 5.127-6.974.488.44 6.296zM201.444 768.904l5.36-6.167-6.769-5.885 4.366-5.023 6.77 5.885 5.362-6.168 4.573 3.976-5.362 6.168 6.77 5.885-4.366 5.022-6.77-5.884-5.36 6.167z"/><path fill="#9E7DD8" opacity=".796" d="M47.08 962.933l2.761-5.661 5.662 2.761-2.762 5.662z"/><path fill="#1DBCBC" opacity=".6" d="M279.046 1085.26l-12.223-3.048-3.048 12.224 12.223 3.048z"/><ellipse cx="159.221" cy="951.658" stroke="#1DBCBC" stroke-width="4.2" opacity=".796" transform="rotate(-94 159.22 951.658)" rx="10.497" ry="10.498"/><path fill="#9E7DD8" opacity=".796" d="M404.489 1101.694l4.482-5.157-5.714-4.967 3.651-4.2 5.714 4.967 4.483-5.157 3.86 3.356-4.482 5.157 5.713 4.966-3.651 4.2-5.713-4.966-4.483 5.156zM17.714 919.113l4.483-5.158-5.713-4.966 3.65-4.2 5.713 4.967 4.484-5.158 3.86 3.356-4.483 5.158 5.713 4.966-3.65 4.2-5.714-4.967-4.483 5.157z"/><path fill="#1DBCBC" opacity=".796" d="M339 763.493l6.17-8.493 8.494 6.17-6.17 8.494z"/><path stroke="#9E7DD8" stroke-width="3.465" opacity=".796" d="M497.884 615.259l10.844 5.765-5.766 10.845-10.844-5.766z"/><path stroke="#1DBCBC" stroke-width="3.15" d="M630.58 492.295l-16.09-2.283 7.983 16.368 8.107-14.085z"/><path fill="#9E7DD8" d="M619.181 1152.564l-13.407-7.035 1.756 16.704z"/><path stroke="#1DBCBC" stroke-width="3.15" d="M326.904 1082.335l-2.801-16.008-13.1 12.65 15.9 3.358z"/><path fill="#1DBCBC" d="M464.181 642.564l-13.407-7.035 1.756 16.704zM532.181 1136.565l-13.406-7.036 1.755 16.704z"/><path stroke="#9E7DD8" stroke-width="3.15" d="M739.904 1235.415l-2.801-16.008-13.1 12.65 15.9 3.358z"/><path fill="#1DBCBC" d="M642.181 1184.564l-13.407-7.035 1.756 16.704zM593.181 506.564l-13.407-7.035 1.756 16.704z"/><path stroke="#9E7DD8" stroke-width="3.15" d="M501.903 1181.415l-2.8-16.008-13.1 12.65 15.9 3.358z"/><path fill="#1DBCBC" opacity=".796" d="M242.775 727.404l7.405-10.191 10.192 7.405-7.405 10.191z"/><path fill="#9E7DD8" opacity=".796" d="M333.726 711.632l-.864-4.9-5.52.974-.704-3.99 5.521-.973-.864-4.899 3.73-.658.864 4.899 5.521-.974.704 3.99-5.521.973.864 4.9zM436.47 694.57l5.14-5.911-6.516-5.663 4.185-4.815 6.515 5.663 5.139-5.911 4.401 3.826-5.138 5.912 6.514 5.663-4.185 4.814-6.514-5.663-5.14 5.911z"/><ellipse cx="255.524" cy="275.213" stroke="#1DBCBC" stroke-width="4.2" opacity=".796" transform="rotate(-94 255.524 275.213)" rx="6.823" ry="6.823"/><ellipse cx="579.524" cy="401.571" stroke="#1DBCBC" stroke-width="4.2" opacity=".796" transform="rotate(-94 579.524 401.571)" rx="6.823" ry="6.823"/><ellipse cx="144.604" cy="899.795" stroke="#1DBCBC" stroke-width="4.2" opacity=".796" transform="rotate(-94 144.604 899.795)" rx="6.823" ry="6.823"/><ellipse cx="635.299" cy="1335.736" stroke="#1DBCBC" stroke-width="4.2" opacity=".796" transform="rotate(-94 635.299 1335.736)" rx="6.823" ry="6.823"/><ellipse cx="292.299" cy="706.736" stroke="#1DBCBC" stroke-width="4.2" opacity=".796" transform="rotate(-94 292.299 706.736)" rx="6.823" ry="6.823"/><ellipse cx="357.618" cy="1082.056" fill="#1DBCBC" opacity=".796" transform="rotate(-94 357.618 1082.056)" rx="7.348" ry="7.349"/><path fill="#1DBCBC" opacity=".7" d="M230.825 238.219l-2.05-5.956 5.955-2.05 2.05 5.955z"/><path fill="#1DBCBC" opacity=".796" d="M544.05 450.006L542 444.05l5.956-2.05 2.05 5.955z"/><path fill="#9E7DD8" opacity=".796" d="M374 675.073l2.315-8.073 8.074 2.315-2.315 8.073z"/><ellipse cx="551.858" cy="545.297" stroke="#1DBCBC" stroke-width="4.2" opacity=".8" transform="scale(-1 1) rotate(-4 0 16348.456)" rx="7.348" ry="7.348"/><path fill="#9E7DD8" d="M197.182 283.565l-13.407-7.035 1.756 16.704z"/><path fill="#1DBCBC" d="M632.039 536.564l-13.407-7.035 1.756 16.704z"/><path fill="#1DBCBC" opacity=".796" d="M180.825 928.902l-2.05-5.956 5.955-2.05 2.05 5.955z"/><path fill="#9E7DD8" opacity=".796" d="M615 575.753l2.314-8.073 8.074 2.315-2.315 8.073zM519 652.073l2.315-8.073 8.074 2.315-2.315 8.073z"/><ellipse cx="220.461" cy="1096.297" stroke="#1DBCBC" stroke-width="4.2" opacity=".8" transform="scale(-1 1) rotate(-4 0 7409.488)" rx="7.348" ry="7.348"/><path fill="#1DBCBC" opacity=".796" d="M115 1078.125l6.17-8.493 8.494 6.17-6.17 8.494z"/><path stroke="#9E7DD8" stroke-width="3.465" opacity=".796" d="M184.884 866.556l10.843 5.765-5.766 10.845-10.843-5.766z"/><path fill="#1DBCBC" d="M198.182 1014.565l-13.407-7.035 1.756 16.704z"/><path fill="#9E7DD8" opacity=".796" d="M282.29 1126.513l5.138-5.911-6.515-5.663 4.185-4.815 6.515 5.663 5.139-5.911 4.401 3.826-5.138 5.912 6.514 5.663-4.185 4.814-6.514-5.663-5.14 5.911z"/><ellipse cx="512.524" cy="382.524" stroke="#1DBCBC" stroke-width="4.2" opacity=".796" transform="rotate(-94 512.524 382.524)" rx="6.823" ry="6.823"/><path fill="#9E7DD8" d="M129.662 865.23l-13.407-7.036 1.756 16.704zM412.406 692.352L399 685.317l1.756 16.704zM600.406 611.352L587 604.317l1.756 16.704zM598.407 470.544L585 463.51l1.756 16.704z"/><path fill="#1DBCBC" d="M186.488 819.624l-13.407-7.035 1.756 16.704zM594.407 577.41L581 570.374l1.755 16.704z"/><ellipse cx="376.157" cy="710.843" fill="#1DBCBC" opacity=".796" transform="rotate(-94 376.157 710.843)" rx="7.348" ry="7.349"/><path fill="#1DBCBC" opacity=".796" d="M555.825 517.219l-2.05-5.956 5.955-2.05 2.05 5.955z"/><path fill="#9E7DD8" d="M599.31 543.426l-6.296-.44.488-6.974-5.126-.358-.488 6.974-6.296-.44-.33 4.713 6.296.44-.487 6.974 5.126.358.488-6.974 6.296.44z"/><path fill="#1DBCBC" opacity=".6" d="M209.435 301.213l-5.661 2.762 2.761 5.661 5.662-2.761zM523.661 406L518 408.762l2.761 5.661 5.661-2.761z"/><ellipse cx="12.885" cy="993.518" stroke="#1DBCBC" stroke-width="4.2" transform="scale(-1 1) rotate(-4 0 1362.494)" rx="9.972" ry="9.973"/><path fill="#1DBCBC" opacity=".6" d="M148.966 782.195l-10.191 7.404 7.405 10.192 10.19-7.404z"/><path fill="#9E7DD8" opacity=".6" d="M254.007 794.714l-10.19 7.404 7.404 10.192 10.191-7.404z"/><path fill="#9E7DD8" opacity=".796" d="M471.775 1396.874l2.762-5.662 5.661 2.762-2.761 5.661zM108.035 808.271l2.051 5.956-5.956 2.05-2.05-5.955zM480.731 1133.213l2.05 5.956-5.955 2.05-2.05-5.955zM328.774 1123.286l2.315-8.073 8.074 2.315-2.315 8.073z"/><path fill="#9E7DD8" opacity=".6" d="M406.966 1131.213l-10.191 7.404 7.404 10.192 10.192-7.404z"/><ellipse cx="538.014" cy="585.91" fill="#1DBCBC" opacity=".796" transform="rotate(-94 538.014 585.91)" rx="7.348" ry="7.349"/><ellipse cx="85.618" cy="917.056" fill="#1DBCBC" opacity=".796" transform="rotate(-94 85.618 917.056)" rx="7.348" ry="7.349"/><path fill="#1DBCBC" opacity=".796" d="M415.825 717.219l-2.05-5.956 5.955-2.05 2.05 5.955zM507.05 598.006L505 592.05l5.956-2.05 2.05 5.955zM620.05 463.213l-2.05-5.956 5.955-2.05 2.05 5.955z"/><path fill="#9E7DD8" opacity=".796" d="M212.774 1056.286l2.315-8.073 8.074 2.315-2.315 8.073z"/><path fill="#9E7DD8" d="M119.985 1034.312l-6.295-.44.488-6.975-5.128-.358-.488 6.974-6.295-.44-.33 4.713 6.296.44-.488 6.975 5.128.358.487-6.974 6.296.44z"/><path stroke="#9E7DD8" stroke-width="3.15" d="M77.138 868.244l-7.105-14.616-9.105 15.771 16.21-1.155z"/><path fill="#9E7DD8" opacity=".8" d="M260.695 299.852l-5.128 5.9-6.488-5.64-4.176 4.804 6.487 5.64-5.128 5.9 4.383 3.81 5.129-5.9 6.487 5.64 4.177-4.805-6.488-5.64 5.129-5.899z"/><path fill="#9E7DD8" opacity=".796" d="M553.75 481.42l.44-6.296-6.975-.488.358-5.127 6.975.487.44-6.295 4.713.33-.44 6.295 6.974.488-.358 5.127-6.975-.487-.44 6.295z"/><ellipse cx="178.481" cy="248.615" stroke="#1DBCBC" stroke-width="4.2" opacity=".7" transform="rotate(-86 178.48 248.615)" rx="7.348" ry="7.348"/><path fill="#9E7DD8" d="M452.974 381.206l.44-6.296-6.974-.488.358-5.126 6.975.487.44-6.296 4.713.33-.44 6.296 6.974.488-.358 5.126-6.975-.487-.44 6.295z"/><path fill="#1DBCBC" opacity=".796" d="M773.775 1263.765l7.292-7.552 7.552 7.292-7.292 7.552z"/><path stroke="#9E7DD8" stroke-width="3.465" opacity=".796" d="M485.413 1102.632l9.936 7.219-7.22 9.936-9.935-7.218z"/><path fill="#9E7DD8" d="M593.03 434.361l-14.255-5.1 4.063 16.297z"/><path stroke="#1DBCBC" stroke-width="3.15" d="M568.28 624.77l-5-15.462-11.212 14.35 16.213 1.112z"/><ellipse cx="495.695" cy="661.591" stroke="#1DBCBC" stroke-width="4.2" opacity=".796" transform="rotate(-86 495.695 661.591)" rx="6.823" ry="6.823"/><ellipse cx="436.931" cy="1120.056" fill="#1DBCBC" opacity=".796" transform="rotate(-86 436.931 1120.056)" rx="7.348" ry="7.349"/><path fill="#1DBCBC" opacity=".796" d="M292.977 798.597l-1.202-6.183 6.183-1.202 1.202 6.183z"/><path fill="#1DBCBC" opacity=".6" d="M483 393.283l.44-6.284 6.283.44-.44 6.283z"/><path fill="#9E7DD8" opacity=".796" d="M253.45 1053.77l3.416-7.672 7.673 3.416-3.416 7.672z"/><path fill="#9E7DD8" d="M98.206 971.607l-6.295.44-.488-6.974-5.128.358.488 6.975-6.296.44.33 4.713 6.296-.44.487 6.975 5.128-.359-.488-6.975 6.296-.44zM402.206 737.975l-6.295.44-.488-6.974-5.128.358.488 6.975-6.296.44.33 4.713 6.296-.44.487 6.975 5.128-.359-.488-6.975 6.296-.44z"/><path fill="#1DBCBC" opacity=".6" d="M264.997 763.212l-5.223 3.523 3.523 5.222 5.222-3.523z"/><path stroke="#9E7DD8" stroke-width="3.15" d="M313.463 747.825l-9.07-13.485-6.822 16.885 15.892-3.4zM229.239 838.04l-9.07-13.486-6.822 16.885 15.892-3.4z"/><path stroke="#1DBCBC" stroke-width="3.15" d="M611.587 1443.904l-16.09-2.283 7.983 16.368 8.107-14.085z" opacity=".4"/><path fill="#1DBCBC" opacity=".6" d="M741.563 1276.564l-13.407-7.035 1.756 16.704z"/><path fill="#1DBCBC" d="M54.406 1032.984l-13.405-7.035 1.755 16.704z"/><path fill="#9E7DD8" opacity=".6" d="M708.979 1334.473l-1.42-8.047-8.833 1.557-1.156-6.555 8.834-1.557-1.419-8.048 5.968-1.052 1.42 8.047 8.833-1.557 1.156 6.555-8.834 1.557 1.419 8.048z"/><ellipse cx="395.299" cy="1408.736" stroke="#1DBCBC" stroke-width="4.2" opacity=".5" transform="rotate(-94 395.299 1408.736)" rx="6.823" ry="6.823"/><path fill="#1DBCBC" opacity=".7" d="M526.825 1176.219l-2.05-5.956 5.955-2.05 2.05 5.955z"/><path fill="#9E7DD8" opacity=".4" d="M562.781 1505.895l2.315-8.073 8.073 2.315-2.314 8.073z"/><ellipse cx="665.864" cy="1226.906" stroke="#1DBCBC" stroke-width="4.2" opacity=".6" transform="scale(-1 1) rotate(-4 0 20294.766)" rx="7.348" ry="7.348"/><ellipse cx="534.624" cy="1214.664" fill="#1DBCBC" opacity=".7" transform="rotate(-94 534.624 1214.664)" rx="7.348" ry="7.349"/><ellipse cx="375.69" cy="1116.297" stroke="#1DBCBC" stroke-width="4.2" opacity=".7" transform="rotate(-86 375.69 1116.297)" rx="7.348" ry="7.348"/><path fill="#9E7DD8" opacity=".7" d="M599.03 1234.362l-14.255-5.101 4.063 16.297z"/><path fill="#1DBCBC" opacity=".4" d="M373.982 1535.206l-1.202-6.183 6.183-1.202 1.202 6.183z"/><path fill="#1DBCBC" opacity=".8" d="M499.775 1332.496l.44-6.284 6.283.44-.44 6.283z"/><path fill="#9E7DD8" opacity=".8" d="M578.333 1190.748l-.44-6.295-6.975.487-.358-5.126 6.974-.488-.44-6.297 4.713-.33.44 6.297 6.975-.487.358 5.126-6.975.488.44 6.296z"/><path fill="#9E7DD8" opacity=".796" d="M186.775 977.874l2.762-5.662 5.661 2.762-2.761 5.661z"/><path fill="#1DBCBC" opacity=".8" d="M455.182 1152.565l-13.407-7.035 1.755 16.704z"/><path fill="#9E7DD8" opacity=".796" d="M383.768 333.811l4.483-5.157-5.713-4.966 3.651-4.2 5.713 4.966 4.483-5.156 3.86 3.355-4.482 5.157 5.713 4.967-3.651 4.2-5.713-4.967-4.483 5.157z"/><path stroke="#1DBCBC" stroke-width="3.15" d="M306.184 314.534l-2.8-16.009-13.1 12.65 15.9 3.359z"/><ellipse cx="336.899" cy="314.174" fill="#1DBCBC" opacity=".796" transform="rotate(-94 336.899 314.174)" rx="7.348" ry="7.349"/><path fill="#9E7DD8" opacity=".796" d="M311 340.073l2.315-8.073 8.074 2.315-2.315 8.073zM538 385.073l2.315-8.073 8.074 2.315-2.315 8.073zM215 278.073l2.315-8.073 8.074 2.315-2.315 8.073z"/><path fill="#9E7DD8" opacity=".6" d="M447.394 329.404l-10.192 7.404L444.607 347l10.192-7.404z"/><ellipse cx="415.461" cy="357.843" fill="#1DBCBC" opacity=".796" transform="rotate(-86 415.461 357.843)" rx="7.348" ry="7.349"/><ellipse cx="365.31" cy="347" stroke="#1DBCBC" stroke-width="4.2" opacity=".7" transform="rotate(-86 365.31 347)" rx="7.348" ry="7.348"/><path fill="#1DBCBC" opacity=".8" d="M500.178 350.353l-13.405-7.036 1.755 16.704z"/><ellipse cx="568.299" cy="1138.736" stroke="#1DBCBC" stroke-width="4.2" opacity=".8" transform="rotate(-94 568.299 1138.736)" rx="6.823" ry="6.823"/><path fill="#9E7DD8" opacity=".796" d="M139 1006.705l2.315-8.073 8.074 2.315-2.315 8.073z"/><ellipse cx="421.781" cy="648.843" fill="#1DBCBC" opacity=".796" transform="rotate(-94 421.781 648.843)" rx="7.348" ry="7.349"/><path stroke="#9E7DD8" stroke-width="3.15" d="M548.832 424.025l-7.105-14.616-9.105 15.771 16.21-1.155z"/><path fill="#9E7DD8" opacity=".5" d="M528.988 1387.75l-.44-6.296-6.975.487-.358-5.127 6.974-.488-.44-6.296 4.713-.33.44 6.296 6.975-.487.358 5.127-6.974.488.44 6.296z"/><path fill="#9E7DD8" opacity=".1" d="M271.213 1583.535l-.44-6.295-6.975.487-.358-5.126 6.974-.488-.44-6.297 4.713-.33.44 6.297 6.975-.487.358 5.126-6.975.488.44 6.296z"/><path fill="#9E7DD8" opacity=".3" d="M394.78 1578.482l2.762-5.661 5.661 2.761-2.761 5.662z"/><path stroke="#9E7DD8" stroke-width="3.15" d="M343.129 1580.202l-2.801-16.008-13.1 12.65 15.9 3.358z" opacity=".15"/><path fill="#1DBCBC" opacity=".1" d="M260.406 1532.352L247 1525.317l1.756 16.704z"/><ellipse cx="492.305" cy="1515.345" stroke="#1DBCBC" stroke-width="4.2" opacity=".4" transform="rotate(-94 492.305 1515.345)" rx="6.823" ry="6.823"/><ellipse cx="451.524" cy="1574.524" stroke="#1DBCBC" stroke-width="4.2" opacity=".1" transform="rotate(-94 451.524 1574.524)" rx="6.823" ry="6.823"/><ellipse cx="540.858" cy="1269.297" stroke="#1DBCBC" stroke-width="4.2" opacity=".6" transform="scale(-1 1) rotate(-4 0 16757.457)" rx="7.348" ry="7.348"/><path stroke="#9E7DD8" stroke-width="3.465" opacity=".8" d="M566.884 1304.556l10.843 5.765-5.766 10.845-10.843-5.766z"/><path fill="#9E7DD8" opacity=".3" d="M554.406 1553.352L541 1546.317l1.756 16.704z"/><path fill="#1DBCBC" opacity=".4" d="M534.188 1435.174l-13.407-7.035 1.755 16.704z"/><path fill="#9E7DD8" opacity=".5" d="M455.737 1423.821l2.05 5.956-5.955 2.05-2.051-5.955z"/><path fill="#9E7DD8" opacity=".2" d="M310.774 1541.286l2.315-8.073 8.074 2.315-2.315 8.073z"/><path fill="#9E7DD8" opacity=".1" d="M213.966 1557.213l-10.191 7.404 7.404 10.192 10.192-7.404z"/><ellipse cx="433.843" cy="1534.843" fill="#1DBCBC" opacity=".3" transform="rotate(-94 433.843 1534.843)" rx="7.348" ry="7.349"/><path fill="#9E7DD8" opacity=".6" d="M463.31 1363.426l-6.296-.44.488-6.974-5.127-.358-.487 6.974-6.296-.44-.33 4.713 6.296.44-.487 6.974 5.126.358.488-6.974 6.296.44z"/><path stroke="#9E7DD8" stroke-width="3.15" d="M409.838 1477.794l-7.105-14.615-9.105 15.77 16.21-1.155z" opacity=".4"/><ellipse cx="460.524" cy="1483.524" stroke="#1DBCBC" stroke-width="4.2" opacity=".2" transform="rotate(-94 460.524 1483.524)" rx="6.823" ry="6.823"/><ellipse cx="212.618" cy="1502.056" fill="#1DBCBC" opacity=".25" transform="rotate(-94 212.618 1502.056)" rx="7.348" ry="7.349"/><path stroke="#9E7DD8" stroke-width="3.15" d="M675.057 1574.972l-7.104-14.615-9.106 15.77 16.21-1.155z" opacity=".4"/><path fill="#1DBCBC" opacity=".3" d="M495.78 1573.372l7.293-7.552 7.552 7.293-7.293 7.551z"/><path stroke="#9E7DD8" stroke-width="3.465" opacity=".2" d="M291.413 1482.632l9.936 7.219-7.22 9.936-9.935-7.218z"/><path fill="#1DBCBC" opacity=".8" d="M779.046 1308.26l-12.223-3.048-3.048 12.224 12.223 3.048z"/><path fill="#9E7DD8" opacity=".3" d="M638.493 1533.301l4.483-5.157-5.713-4.966 3.651-4.2 5.713 4.966 4.483-5.156 3.86 3.355-4.482 5.157 5.714 4.967-3.651 4.2-5.714-4.967-4.483 5.157z"/><path fill="#1DBCBC" opacity=".5" d="M692.831 1391.829l-2.05-5.956 5.955-2.05 2.051 5.955z"/><path fill="#1DBCBC" opacity=".4" d="M693.78 1499.314l6.17-8.493 8.494 6.17-6.17 8.494z"/><ellipse cx="592.885" cy="1560.886" stroke="#1DBCBC" stroke-width="4.2" opacity=".15" transform="scale(-1 1) rotate(-4 0 18538.889)" rx="9.972" ry="9.973"/><path stroke="#9E7DD8" stroke-width="3.15" d="M152.639 1541.142l-2.8-16.008-13.1 12.65 15.9 3.358z" opacity=".2"/><ellipse cx="352.425" cy="1498.098" stroke="#1DBCBC" stroke-width="4.2" opacity=".2" transform="scale(-1 1) rotate(-4 0 11590.233)" rx="9.972" ry="9.973"/><path fill="#9E7DD8" opacity=".4" d="M672.972 1440.822l-10.191 7.404 7.405 10.192 10.191-7.404z"/><path fill="#9E7DD8" opacity=".5" d="M649.781 1382.895l2.315-8.073 8.073 2.315-2.314 8.073z"/><ellipse cx="771.618" cy="1362.056" fill="#1DBCBC" opacity=".5" transform="rotate(-86 771.618 1362.056)" rx="7.348" ry="7.349"/><path fill="#9E7DD8" opacity=".4" d="M741.987 1447.796l-6.295.44-.488-6.975-5.128.359.488 6.975-6.296.44.33 4.713 6.296-.44.487 6.974 5.128-.358-.488-6.975 6.296-.44z"/><path stroke="#9E7DD8" stroke-width="3.15" d="M745.244 1393.647l-9.07-13.484-6.822 16.884 15.892-3.4z" opacity=".5"/><path fill="#9E7DD8" opacity=".5" d="M322.262 1449.065l5.128-5.9-6.487-5.64 4.176-4.804 6.488 5.64 5.128-5.9 4.383 3.81-5.128 5.9 6.487 5.64-4.176 4.804-6.488-5.64-5.128 5.9z"/><ellipse cx="199.524" cy="178.524" stroke="#1DBCBC" stroke-width="4.2" opacity=".5" transform="rotate(86 199.524 178.524)" rx="6.823" ry="6.823"/><path fill="#1DBCBC" opacity=".1" d="M364.183-.001l1.202 6.183-6.183 1.202L358 1.201z"/><path fill="#1DBCBC" opacity=".2" d="M318.877 39.659l13.407 7.035-1.755-16.704z"/><path fill="#1DBCBC" opacity=".7" d="M200.877 243.885l13.407 7.035-1.755-16.704z"/><path fill="#9E7DD8" opacity=".15" d="M350.388 20.315l-2.315 8.073-8.074-2.315L342.314 18z"/><path fill="#9E7DD8" opacity=".3" d="M285.405 86.596l10.192-7.404L288.192 69 278 76.404z"/><path fill="#9E7DD8" opacity=".6" d="M173.488 215.604l6.295.44-.487 6.975 5.127.359.488-6.975 6.296.44.33-4.712-6.297-.44.488-6.976-5.127-.358-.488 6.975-6.296-.44z"/><path stroke="#9E7DD8" stroke-width="3.15" d="M211.47 200.86l7.106 14.616 9.105-15.77-16.21 1.154z" opacity=".6"/><ellipse cx="255.843" cy="117.843" fill="#1DBCBC" opacity=".4" transform="rotate(86 255.843 117.843)" rx="7.348" ry="7.349"/><path stroke="#9E7DD8" stroke-width="3.465" opacity=".3" d="M278.357 107.58l-9.936-7.219 7.22-9.936 9.935 7.218z"/><path stroke="#9E7DD8" stroke-width="2.678" d="M304.175 53.973l2.164 13.656 11.407-11.016-13.571-2.64z" opacity=".2"/><ellipse cx="228.885" cy="135.886" stroke="#1DBCBC" stroke-width="4.2" opacity=".4" transform="scale(1 -1) rotate(-4 -3662.371 0)" rx="9.972" ry="9.973"/><path fill="#9E7DD8" opacity=".5" d="M245.304 166.45l-5.128 5.899 6.487 5.64-4.176 4.804-6.488-5.64-5.128 5.9-4.384-3.811 5.128-5.9-6.486-5.638 4.176-4.805 6.487 5.639 5.128-5.9z"/><path fill="#1DBCBC" opacity=".6" d="M672.775 1269.404l7.405-10.191 10.192 7.405-7.405 10.191z"/><ellipse cx="625.299" cy="1279.736" stroke="#1DBCBC" stroke-width="4.2" opacity=".6" transform="rotate(-86 625.299 1279.736)" rx="6.823" ry="6.823"/><path stroke="#9E7DD8" stroke-width="3.15" d="M598.965 1390.04l-9.07-13.485-6.822 16.884 15.892-3.4z" opacity=".6"/></g></g></svg>