<svg xmlns="http://www.w3.org/2000/svg" width="405" height="389" xmlns:xlink="http://www.w3.org/1999/xlink"><defs><path id="a" d="M87.764 5.993L99.836 23.84H75.692z"/><path id="b" d="M392.173 288.173h10.498v10.498h-10.498z"/><path id="c" d="M382.124 122.124h15.746v15.747h-15.746z"/><path id="d" d="M2.083 340.083h10.498v10.498H2.083z"/><path id="e" d="M206.883 372.882l12.072 17.847h-24.144z"/><ellipse id="f" cx="191.843" cy="205.843" rx="7.348" ry="7.349"/></defs><g fill="none" fill-rule="evenodd" opacity=".3"><g transform="scale(1 -1) rotate(60 113.6 0)"><use fill="#550DB8" xlink:href="#a"/><path stroke="#550DB8" stroke-width="2" d="M87.764 7.778L97.953 22.84H77.576L87.764 7.778z"/></g><g transform="rotate(-46 397.422 293.422)"><use fill="#550DB8" xlink:href="#b"/><path stroke="#550DB8" stroke-width="2" d="M393.173 289.173h8.498v8.498h-8.498z"/></g><g transform="rotate(36 389.998 129.998)"><use fill="#550DB8" xlink:href="#c"/><path stroke="#550DB8" stroke-width="2" d="M383.124 123.124h13.746v13.747h-13.746z"/></g><g transform="rotate(-54 7.332 345.332)"><use fill="#550DB8" xlink:href="#d"/><path stroke="#550DB8" stroke-width="2" d="M3.083 341.083h8.498v8.498H3.083z"/></g><g transform="scale(1 -1) rotate(44 1151.883 0)"><use fill="#550DB8" xlink:href="#e"/><path stroke="#550DB8" stroke-width="2" d="M206.883 374.666l10.188 15.063h-20.377l10.189-15.063z"/></g><g transform="rotate(-86 191.843 205.843)"><use fill="#550DB8" xlink:href="#f"/><ellipse cx="191.843" cy="205.843" stroke="#550DB8" stroke-width="2" rx="6.348" ry="6.349"/></g><path stroke="#550DB8" stroke-width=".5" d="M74.335 20.832L6.322 338.28m2.26 14.169l183.824 31.14m-177.97-39.47l171.42-135.201m23.318 158.622L192.5 212.5M95.062 19.067l93.334 181.22M86.13.297l302.186 119.041m3.327 21.193l5.728 146.809M212.898 387.9l184.663-87.427m-7.088-6.967L198.5 206.5m181-75l-183 69" stroke-linecap="round" stroke-linejoin="round"/></g></svg>