<svg xmlns="http://www.w3.org/2000/svg" width="405" height="389" viewBox="0 0 405 389" xmlns:xlink="http://www.w3.org/1999/xlink">
  <defs>
    <polygon id="a" points="87.764 5.993 99.836 23.84 75.692 23.84"/>
    <rect id="b" width="10.498" height="10.498" x="392.173" y="288.173"/>
    <rect id="c" width="15.746" height="15.747" x="382.124" y="122.124"/>
    <rect id="d" width="10.498" height="10.498" x="2.083" y="340.083"/>
    <polygon id="e" points="206.883 372.882 218.955 390.729 194.811 390.729"/>
    <ellipse id="f" cx="191.843" cy="205.843" rx="7.348" ry="7.349"/>
  </defs>
  <g fill="none" fill-rule="evenodd" opacity=".3">
    <g transform="scale(1 -1) rotate(60 113.6 0)">
      <use fill="#550DB8" xlink:href="#a"/>
      <path stroke="#550DB8" stroke-width="2" d="M87.7640566,7.77787713 L97.9525169,22.8400454 L77.5755963,22.8400454 L87.7640566,7.77787713 Z"/>
    </g>
    <g transform="rotate(-46 397.422 293.422)">
      <use fill="#550DB8" xlink:href="#b"/>
      <rect width="8.498" height="8.498" x="393.173" y="289.173" stroke="#550DB8" stroke-width="2"/>
    </g>
    <g transform="rotate(36 389.998 129.998)">
      <use fill="#550DB8" xlink:href="#c"/>
      <rect width="13.746" height="13.747" x="383.124" y="123.124" stroke="#550DB8" stroke-width="2"/>
    </g>
    <g transform="rotate(-54 7.332 345.332)">
      <use fill="#550DB8" xlink:href="#d"/>
      <rect width="8.498" height="8.498" x="3.083" y="341.083" stroke="#550DB8" stroke-width="2"/>
    </g>
    <g transform="scale(1 -1) rotate(44 1151.883 0)">
      <use fill="#550DB8" xlink:href="#e"/>
      <path stroke="#550DB8" stroke-width="2" d="M206.882774,374.66638 L217.071235,389.728548 L196.694314,389.728548 L206.882774,374.66638 Z"/>
    </g>
    <g transform="rotate(-86 191.843 205.843)">
      <use fill="#550DB8" xlink:href="#f"/>
      <ellipse cx="191.843" cy="205.843" stroke="#550DB8" stroke-width="2" rx="6.348" ry="6.349"/>
    </g>
    <path stroke="#550DB8" stroke-width=".5" d="M74.335083 20.8323975L6.32214355 338.279053M8.58288574 352.44751L192.40625 383.587402M14.4351807 344.117432L185.856934 208.916504M209.174316 367.538574L192.5 212.5M95.0617676 19.0672607L188.396484 200.287109M86.1293945.297729492L388.315063 119.338135M391.642334 140.53064L397.370117 287.339844M212.897705 387.899658L397.561035 300.473022M390.472778 293.505737L198.5 206.5M379.5 131.5L196.5 200.5" stroke-linecap="round" stroke-linejoin="round"/>
  </g>
</svg>
