<svg xmlns="http://www.w3.org/2000/svg" width="74" height="420"><g fill="none" fill-rule="evenodd"><path fill="#FFF" stroke="#FFF" stroke-width="10" d="M60.98 54.533c.421-2.183-.08-5.382-1.548-8.946L48.86 13.583C47.383 8.855 42.457 5 37.847 5h-1.549c-4.612 0-9.532 3.843-11.013 8.583L14.713 45.587c-1.208 2.931-1.76 5.612-1.687 7.684V134h-.006v6h.006v60h-.006v6h.006v142.5h-.006v6h.006v7.5h-.006v6h.006v7.5h-.006v6h.006v7.566l-6.83 19.759c-1.085 3.137.725 5.675 4.04 5.675h53.671c3.326 0 5.125-2.54 4.041-5.675l-6.824-19.74V54.533h-.143z" opacity=".9"/><path fill="#FFF" d="M38.066 8.579l-7.577 3.865L17.02 53v342.267L10.013 410h28.053z"/><path fill="#DEE4E4" d="M44.079 8.579l-6.975 2.408L23.033 53v342.267L16.026 410h28.053z"/><path fill="#C1C9CA" d="M37.072 8.579l7.577 3.865L58.118 53v342.267L65.125 410H37.072z"/><path fill="#4E5F60" d="M25.046 21.5h24.052v6H25.046z"/><path stroke="#4E5F60" stroke-width="6" d="M15.186 392h43.772l6.155 17.805c.411 1.191.053 1.695-1.206 1.695h-53.67c-1.255 0-1.616-.507-1.206-1.695L15.186 392zM57.88 54.5H16.264c-.073-.154-.154-.433-.203-.842-.196-1.638.28-4.146 1.426-6.928l.075-.202 10.571-32.004.015-.047c1.1-3.522 4.89-6.477 8.15-6.477h1.549c3.254 0 7.051 2.963 8.15 6.477l10.586 32.05.075.203c1.145 2.778 1.62 5.286 1.425 6.926-.05.41-.13.69-.203.844z"/><path fill="#4E5F60" d="M13.02 134h48.105v6H13.02zM13.02 200h48.105v6H13.02zM13.02 348.5h48.105v6H13.02zM13.02 362h48.105v6H13.02zM13.02 375.5h48.105v6H13.02z"/><path fill="#4E5F60" d="M19.026 52.628v342.745h-6V52.628zM61.124 54.533V395h-6.013V54.533M26.549 44h7.516v7.5h-7.516zM26.549 104h7.516v10.5h-7.516zM26.549 213.5h7.516V224h-7.516z"/></g></svg>