<svg xmlns="http://www.w3.org/2000/svg" width="279" height="332" xmlns:xlink="http://www.w3.org/1999/xlink"><defs><path id="a" d="M109.58 348.146h22.428l-62.16-124.617L7.69 348.146h22.428l39.73-79.652 39.731 79.652z"/><path id="b" d="M0 336.313c0-5.527 4.472-10.007 9.998-10.007H130.98c5.522 0 9.998 4.475 9.998 10.007V352H0v-15.687z"/><path id="c" d="M162.595 21.873l12.687 236.595h-25.374z"/><path id="d" d="M155.605 227.47c65.474 0 118.55-53.204 118.55-118.835 0-65.63-237.1-65.63-237.1 0 0 65.631 53.076 118.836 118.55 118.836z"/><path id="e" d="M161.062 244.393c23.802 0 69.1 17.762 62.422-119.515-6.679-137.277-38.62-111.994-62.422-111.994-23.801 0-43.096 51.825-43.096 115.755 0 63.929 19.295 115.754 43.096 115.754z"/><ellipse id="f" cx="183.585" cy="114.961" rx="43.097" ry="115.754"/><path id="g" d="M204.84 34.852l6.037 127.133-13.174.082z"/><ellipse id="h" cx="69.448" cy="232.747" rx="25.633" ry="25.694"/><ellipse id="i" cx="249.603" cy="52.667" rx="11.535" ry="11.562"/></defs><g fill="none" fill-rule="evenodd" transform="translate(6 -26)"><g stroke-linecap="round" stroke-linejoin="round"><use fill="#FFF" xlink:href="#a"/><path stroke="#550DB8" stroke-width="5.13" d="M69.849 274.24l37.435 75.05.708 1.42H136.153l-1.85-3.709-62.16-124.617-2.294-4.601-2.296 4.601L5.394 347.001l-1.85 3.71h28.161l.709-1.42 37.435-75.05z"/></g><g stroke-linecap="round" stroke-linejoin="round"><use fill="#E3D8F3" xlink:href="#b"/><path stroke="#550DB8" stroke-width="5.13" d="M-2.565 336.313v18.252h146.109v-18.252c0-6.946-5.622-12.572-12.563-12.572H9.998c-6.942 0-12.563 5.628-12.563 12.572z"/></g><g stroke-linecap="round" stroke-linejoin="round" transform="rotate(45 162.595 140.17)"><use fill="#FFF" xlink:href="#c"/><path stroke="#550DB8" stroke-width="5.13" d="M165.156 21.736h-5.122L147.346 258.33l-.145 2.702h30.788l-.145-2.702-12.688-236.595z"/></g><g transform="rotate(45 155.605 143.441)"><use fill="#FFF" xlink:href="#d"/><path stroke="#550DB8" stroke-width="5.13" d="M155.605 224.906c-64.056 0-115.985-52.055-115.985-116.27 0-27.968 50.642-46.659 115.985-46.659 65.343 0 115.985 18.691 115.985 46.658 0 64.216-51.93 116.27-115.985 116.27z"/></g><g transform="rotate(-45 171.057 128.098)"><use fill="#E3D8F3" xlink:href="#e"/><path stroke="#550DB8" stroke-width="5.13" d="M161.062 241.828c-21.693 0-40.531-50.597-40.531-113.19 0-62.592 18.838-113.189 40.531-113.189 2.815 0 4.959-.22 10.313-.938 3.978-.534 5.913-.748 8.17-.85 11.151-.505 18.553 3.497 25.046 16.227 8.45 16.57 13.988 46.96 16.33 95.115 2.187 44.937-1.077 75.41-8.969 93.997-6.241 14.699-14.897 21.364-26.689 23.088-4.53.662-8.49.626-16.089.12-4.586-.305-6.017-.38-8.112-.38z"/></g><g transform="rotate(-45 183.585 114.961)"><use fill="#FFF" xlink:href="#f"/><ellipse cx="183.585" cy="114.961" stroke="#550DB8" stroke-width="5.13" rx="40.532" ry="113.189"/></g><g stroke-linecap="round" stroke-linejoin="round" transform="rotate(45 204.29 98.46)"><use fill="#FFF" xlink:href="#g"/><path stroke="#550DB8" stroke-width="5.13" d="M207.402 34.73l-5.123-.021-7.137 127.215-.153 2.725 2.73-.017 13.174-.083 2.673-.016-.127-2.67-6.037-127.132z"/></g><use fill="#E3D8F3" xlink:href="#h"/><ellipse cx="69.448" cy="232.747" stroke="#550DB8" stroke-width="5.13" rx="23.068" ry="23.129"/><use fill="#DEE4E4" xlink:href="#i"/><ellipse cx="249.603" cy="52.667" stroke="#550DB8" stroke-width="5.13" rx="8.97" ry="8.997"/></g></svg>