<svg xmlns="http://www.w3.org/2000/svg" width="291" height="291" xmlns:xlink="http://www.w3.org/1999/xlink"><defs><path id="a" d="M3 2h62v118H3z"/><path id="b" d="M3 2h62v118H3z"/><path id="c" d="M245 163h30v12h-30z"/><path id="d" d="M164 108h10v122h-10z"/><path id="e" d="M167.5 133.508c0-14.916 12.085-27.008 27-27.008 14.912 0 27 12.085 27 27.008V231.5h-54v-97.992z"/><path id="f" d="M180 161h54v18h-54z"/><path id="g" d="M81.13 203.227c37.609 0 68.097-30.561 68.097-68.26.081.081-135.753.44-136.193 0 0 37.699 30.487 68.26 68.096 68.26z"/><path id="h" d="M41.13 180.337c12.265 0 22.207-9.966 22.207-22.26.027.026-44.27.144-44.414 0 0 12.294 9.943 22.26 22.207 22.26z"/></defs><g fill="none" fill-rule="evenodd"><path fill="#550DB8" d="M107.322 114.381l5.657-5.656 70.71 70.71-5.656 5.657z"/><g stroke-linecap="round" stroke-linejoin="round" transform="rotate(-45 61.379 22.647)"><use fill="#E3D8F3" xlink:href="#a"/><path stroke="#550DB8" stroke-width="5.13" d="M.435-.565h67.13v123.13H.435z"/></g><path fill="#550DB8" d="M17.52 34.478l2.828-2.828 86.267 86.267-2.828 2.828zM31.662 20.336l2.828-2.828 86.267 86.267-2.828 2.828z"/><path fill="#550DB8" d="M112.441 65.422l2.828 2.829-47.545 47.545-2.828-2.829M91.228 44.209l2.828 2.828-47.545 47.545-2.828-2.828M70.015 22.996l2.828 2.828L25.298 73.37l-2.828-2.828"/><g stroke-linecap="round" stroke-linejoin="round" transform="rotate(-45 322.114 -85.353)"><use fill="#E3D8F3" xlink:href="#b"/><path stroke="#550DB8" stroke-width="5.13" d="M.435-.565h67.13v123.13H.435z"/></g><path fill="#550DB8" d="M170.255 187.213l2.828-2.828 86.267 86.267-2.828 2.828zM184.397 173.071l2.828-2.828 86.267 86.267-2.828 2.828z"/><path fill="#550DB8" d="M265.176 218.157l2.829 2.829-47.546 47.545-2.828-2.829M243.963 196.944l2.828 2.828-47.545 47.546-2.828-2.829M222.75 175.73l2.828 2.83-47.545 47.544-2.828-2.828"/><g stroke-linecap="round" stroke-linejoin="round" transform="rotate(45 349.424 68.04)"><use fill="#E3D8F3" xlink:href="#c"/><path stroke="#550DB8" stroke-width="5.13" d="M242.435 160.435h35.13v17.13h-35.13z"/></g><g stroke-linecap="round" stroke-linejoin="round" transform="rotate(45 194.077 132.387)"><use fill="#E3D8F3" xlink:href="#d"/><path stroke="#550DB8" stroke-width="5.13" d="M161.435 105.435h15.13v127.13h-15.13z"/></g><g stroke-linecap="round" stroke-linejoin="round" transform="rotate(45 237.608 114.356)"><use fill="#FFF" xlink:href="#e"/><path stroke="#550DB8" stroke-width="5.13" d="M164.935 133.508v100.557H224.065V133.508c0-16.337-13.234-29.573-29.565-29.573-16.33 0-29.565 13.24-29.565 29.573z"/></g><g stroke-linecap="round" stroke-linejoin="round" transform="rotate(45 259.654 107.224)"><use fill="#E3D8F3" xlink:href="#f"/><path stroke="#550DB8" stroke-width="5.13" d="M177.435 158.435h59.13v23.13h-59.13z"/></g><path fill="#550DB8" d="M77.086 211.086l2.828 2.829L32.37 261.46l-2.828-2.829"/><g transform="rotate(-135 91.73 184.418)"><use fill="#FFF" xlink:href="#g"/><path stroke="#550DB8" stroke-width="5.13" d="M14.157 132.463a33.414 33.414 0 0 1-.577-.02l.583.025-.006-.005zm1.494 5.16c.898.014 2.013.027 3.343.038 3.635.031 8.858.054 15.512.068 11.885.025 28.12.023 46.823-.002 15.883-.02 32.85-.057 46.722-.099a10848.54 10848.54 0 0 0 18.56-.071c-1.356 35.083-30.156 63.105-65.48 63.105-35.304 0-64.089-27.987-65.48-63.038z"/></g><g transform="rotate(45 -24.065 223.159)"><use fill="#FFF" xlink:href="#h"/><path stroke="#550DB8" stroke-width="5.13" d="M20.019 155.545a68.456 68.456 0 0 1-.84-.018c.39.018.665.028.86.038l-.02-.02zm1.64 5.145c1.112.007 2.54.012 4.263.016 3.878.008 9.174.008 15.275 0a9471.32 9471.32 0 0 0 19.408-.047c-1.262 9.658-9.501 17.113-19.475 17.113-9.963 0-18.196-7.439-19.47-17.082z"/></g></g></svg>