<svg xmlns="http://www.w3.org/2000/svg" width="138" height="252" xmlns:xlink="http://www.w3.org/1999/xlink"><defs><path id="a" d="M48.304 79.326c8.985.09 30.104-15.106 30.037-40.859-.02-7.983-1.094-15.675-4.623-20.881-3.53-5.206-12.235-8.622-26.423-8.622-14.853 0-32.638 6.337-35.767 13.059-2.346 6.468-2.503 9.527-2.27 16.507.749 22.505 17.515 40.796 39.046 40.796z"/></defs><g fill="none" fill-rule="evenodd" transform="translate(-16 -13)"><g fill-rule="nonzero"><path fill="#FFF" d="M153 81.294v97.28c0 4.882-3.855 8.717-8.762 8.717h-22.78c-1.403 0-2.805-.348-3.856-1.046V264H22.973v-13.598c.35-12.204 10.515-22.316 22.43-22.316h.351v-82.984L26.478 134.99l1.752-3.487c-10.163-5.578-14.019-17.782-9.112-28.242l1.402-2.79 18.926 9.763 1.402-2.79 8.06 4.185c.702-1.395 1.402-2.79 2.454-4.184-10.865-6.276-18.926-15.69-23.132-27.197-4.556-12.9-3.855-26.499 2.103-38.354C38.745 24.809 56.27 14 75.545 14c8.06 0 15.771 1.743 23.131 5.23 12.267 5.928 21.73 16.388 26.286 28.94 2.804 8.02 3.505 16.737 2.453 24.756h16.823c4.907-.349 8.762 3.487 8.762 8.368z"/><path fill="#550DB8" stroke="#550DB8" d="M144.238 99.425c0 1.395-1.051 2.441-2.453 2.441H123.56c-1.402 0-2.453-1.046-2.453-2.44 0-1.395 1.051-2.441 2.453-2.441h18.225c1.402 0 2.453 1.046 2.453 2.44zm-2.453 4.882H123.56c-1.402 0-2.453 1.046-2.453 2.44 0 1.395 1.051 2.441 2.453 2.441h18.225c1.402 0 2.453-1.046 2.453-2.44 0-1.395-1.051-2.441-2.453-2.441zm0 7.322H123.56c-1.402 0-2.453 1.046-2.453 2.44 0 1.395 1.051 2.441 2.453 2.441h18.225c1.402 0 2.453-1.046 2.453-2.44 0-1.395-1.051-2.441-2.453-2.441zM153 81.294v97.28c0 4.882-3.855 8.717-8.762 8.717h-22.78c-1.403 0-2.805-.348-3.856-1.046V264H22.973v-13.598c.35-12.204 10.515-22.316 22.43-22.316h.351v-82.984L26.478 134.99l1.752-3.487c-10.163-5.578-14.019-17.782-9.112-28.242l1.402-2.79 18.926 9.763 1.402-2.79 8.06 4.185c.702-1.395 1.402-2.79 2.454-4.184-10.865-6.276-18.926-15.69-23.132-27.197-4.556-12.9-3.855-26.499 2.103-38.354C38.745 24.809 56.27 14 75.545 14c8.06 0 15.771 1.743 23.131 5.23 12.267 5.928 21.73 16.388 26.286 28.94 2.804 8.02 3.505 16.737 2.453 24.756h16.823c4.907-.349 8.762 3.487 8.762 8.368zM28.931 124.181l5.258-10.111-10.164-5.23c-1.402 5.927.35 11.855 4.906 15.341zm16.823 15.69l4.556 2.441 21.73 11.507c5.257 2.79 12.267.697 15.07-4.533 2.804-5.23.701-12.204-4.556-14.993l-30.842-16.388-4.205-2.092-4.206-2.092-10.514 19.526 12.967 6.625zm59.581-33.82c-8.06 5.23-17.524 8.019-27.687 8.019-7.71 0-15.07-1.744-21.73-4.882-1.051 1.395-1.752 2.79-2.453 4.184l31.543 16.737c7.71 4.184 10.514 13.598 6.659 21.269-4.206 7.67-13.669 10.46-21.38 6.625l-19.626-10.46v81.24c1.051.35 2.103.698 3.154 1.047 2.454-1.046 4.907-1.395 7.36-1.395V190.43h3.855v38.005c10.164 1.395 18.225 10.112 19.277 20.572h28.739V126.971c-.35-7.671-3.155-14.645-7.71-20.92zm7.36 3.137v-8.717c-1.051 1.046-2.453 2.092-3.505 3.138 1.052 1.744 2.454 3.487 3.505 5.58zM65.03 233.317c-.7 0-1.401 0-2.102-.35h-3.856c-2.102.35-3.855 1.047-5.607 1.744l-3.155 2.092c-2.102 1.744-3.504 3.487-4.556 5.928a11.995 11.995 0 0 0-1.752 6.276H79.4c-1.051-8.02-7.01-14.296-14.37-15.69zM38.394 253.54h-9.813v5.927h9.813v-5.927zm.701-4.533c.701-5.579 2.804-10.46 6.66-13.947.7-.697 1.401-1.395 2.102-1.743-.7-.35-1.402-.35-2.103-.35h-.35c-9.113 0-16.473 6.974-17.874 16.04h11.565zm73.6 4.533H44.002v5.927h68.693v-5.927zm35.398-172.246c0-2.092-1.752-3.835-3.855-3.835h-17.874c-.701 3.138-1.753 5.927-3.505 9.065s-3.505 6.277-5.608 9.066v83.333c0 2.092 1.753 3.836 3.856 3.836h22.78c2.103 0 3.856-1.744 3.856-3.836V81.294h.35z"/></g><ellipse cx="76" cy="64" fill="#FFF" rx="47" ry="46"/><g transform="scale(-1 1) rotate(-42 13.378 190.239)"><use fill="#CCEFEF" xlink:href="#a"/><path stroke="#550DB8" stroke-width="4" d="M48.284 81.326c5.53.055 13.573-4.446 19.91-11.39 7.625-8.355 12.18-19.24 12.147-31.474-.025-9.516-1.49-16.87-4.968-21.999-4.174-6.157-13.926-9.499-28.078-9.499-15.696 0-34.06 6.651-37.58 14.215l-.067.162c-2.273 6.266-2.653 9.331-2.39 17.256.794 23.825 18.65 42.729 41.046 42.729h-.02z"/><path stroke="#FFF" stroke-width="3" d="M12.915 22.6c2.863-5.964 19.95-12.136 34.38-12.136 13.11 0 21.802 2.978 25.181 7.963 2.998 4.423 4.342 11.164 4.365 20.044.03 11.322-4.177 21.375-11.232 29.105-5.727 6.276-12.907 10.294-17.29 10.25h-.015c-20.435 0-36.815-17.34-37.547-39.346-.25-7.482.074-10.122 2.158-15.88z"/></g><path stroke="#72D3D4" stroke-width="4" d="M38.686 76.007c7.353 5.982 18.706 11.653 33.52 6.07" stroke-linecap="round"/></g></svg>