<svg xmlns="http://www.w3.org/2000/svg" width="831" height="167" xmlns:xlink="http://www.w3.org/1999/xlink"><defs><path id="b" d="M59.04 32.92c-1.584-1.408-3.564-2.486-5.94-3.234-2.376-.748-4.708-1.122-6.996-1.122-2.552 0-4.884.462-6.996 1.386-2.112.924-3.938 2.2-5.478 3.828-1.54 1.628-2.75 3.586-3.63 5.874-.88 2.288-1.32 4.752-1.32 7.392 0 2.64.484 5.104 1.452 7.392.968 2.288 2.288 4.246 3.96 5.874 1.672 1.628 3.63 2.904 5.874 3.828 2.244.924 4.642 1.386 7.194 1.386 2.992 0 5.72-.638 8.184-1.914a19.552 19.552 0 0 0 6.336-5.214h-7.92v-18.48h33.924V69.22a48.585 48.585 0 0 1-7.26 9.834 46.106 46.106 0 0 1-9.438 7.59c-3.476 2.112-7.238 3.74-11.286 4.884a45.887 45.887 0 0 1-12.54 1.716c-6.336 0-12.32-1.188-17.952-3.564-5.632-2.376-10.538-5.632-14.718-9.768-4.18-4.136-7.48-9.02-9.9-14.652S.96 53.556.96 47.044c0-6.336 1.144-12.32 3.432-17.952C6.68 23.46 9.826 18.554 13.83 14.374c4.004-4.18 8.756-7.48 14.256-9.9S39.504.844 45.84.844c4.928 0 9.196.484 12.804 1.452 3.608.968 6.644 2.068 9.108 3.3 2.904 1.408 5.324 2.948 7.26 4.62L59.04 32.92zm1.32-17.028c-1.144-.528-2.42-.968-3.828-1.32-1.232-.352-2.684-.66-4.356-.924-1.672-.264-3.52-.396-5.544-.396-4.664 0-9.02.836-13.068 2.508-4.048 1.672-7.568 3.982-10.56 6.93-2.992 2.948-5.346 6.49-7.062 10.626-1.716 4.136-2.574 8.712-2.574 13.728s.88 9.592 2.64 13.728c1.76 4.136 4.18 7.678 7.26 10.626 3.08 2.948 6.666 5.258 10.758 6.93 4.092 1.672 8.47 2.508 13.134 2.508 6.072 0 11.572-1.43 16.5-4.29 4.928-2.86 8.932-6.666 12.012-11.418V47.836H61.68v3.168h10.56v13.2c-2.728 4.048-6.27 7.26-10.626 9.636-4.356 2.376-9.174 3.564-14.454 3.564-4.224 0-8.162-.726-11.814-2.178-3.652-1.452-6.864-3.52-9.636-6.204-2.772-2.684-4.95-5.896-6.534-9.636-1.584-3.74-2.376-7.854-2.376-12.342s.77-8.602 2.31-12.342 3.652-6.952 6.336-9.636c2.684-2.684 5.83-4.752 9.438-6.204 3.608-1.452 7.524-2.178 11.748-2.178 1.584 0 3.08.132 4.488.396 1.408.264 2.64.528 3.696.792 1.232.352 2.376.704 3.432 1.056l2.112-3.036zM94.944 2.956h51.876v23.1h-23.76v9.768h23.364v21.912H123.06V67.9h24.684V91h-52.8V2.956zm43.032 77.484v-3.168h-26.4V48.364h25.08v-3.168h-25.08V16.684h26.4v-3.168h-29.832V80.44h29.832zm29.304-54.384h-16.236v-23.1h61.512v23.1H196.32V91h-29.04V26.056zm16.236 54.384V16.684h18.876v-3.168h-41.184v3.168h18.876V80.44h3.432zm60.06-77.484h29.832V91h-29.832V2.956zm16.632 77.484V13.516h-3.432V80.44h3.432zm22.44-77.484h23.1l24.288 33.924V2.956h27.588V91h-23.232l-24.156-33.792V91h-27.588V2.956zm15.708 77.484V19.456l43.56 60.984h3.432V13.516h-3.432V74.5l-43.56-60.984h-3.432V80.44h3.432zM404.88 26.056h-16.236v-23.1h61.512v23.1H433.92V91h-29.04V26.056zm16.236 54.384V16.684h18.876v-3.168h-41.184v3.168h18.876V80.44h3.432zm27.72-33.396c0-6.336 1.21-12.32 3.63-17.952 2.42-5.632 5.72-10.538 9.9-14.718 4.18-4.18 9.086-7.48 14.718-9.9S488.7.844 495.036.844c6.336 0 12.32 1.21 17.952 3.63 5.632 2.42 10.538 5.72 14.718 9.9 4.18 4.18 7.48 9.086 9.9 14.718s3.63 11.616 3.63 17.952c0 6.336-1.21 12.32-3.63 17.952-2.42 5.632-5.72 10.538-9.9 14.718-4.18 4.18-9.086 7.48-14.718 9.9s-11.616 3.63-17.952 3.63c-6.336 0-12.32-1.21-17.952-3.63-5.632-2.42-10.538-5.72-14.718-9.9-4.18-4.18-7.48-9.086-9.9-14.718s-3.63-11.616-3.63-17.952zm12.408 0c0 4.664.88 9.042 2.64 13.134 1.76 4.092 4.18 7.678 7.26 10.758 3.08 3.08 6.666 5.5 10.758 7.26 4.092 1.76 8.47 2.64 13.134 2.64s9.042-.88 13.134-2.64c4.092-1.76 7.678-4.18 10.758-7.26 3.08-3.08 5.5-6.666 7.26-10.758 1.76-4.092 2.64-8.47 2.64-13.134s-.88-9.042-2.64-13.134c-1.76-4.092-4.18-7.678-7.26-10.758-3.08-3.08-6.666-5.5-10.758-7.26-4.092-1.76-8.47-2.64-13.134-2.64s-9.042.88-13.134 2.64c-4.092 1.76-7.678 4.18-10.758 7.26-3.08 3.08-5.5 6.666-7.26 10.758-1.76 4.092-2.64 8.47-2.64 13.134zm15.312 0c0 2.552.484 4.95 1.452 7.194.968 2.244 2.288 4.202 3.96 5.874 1.672 1.672 3.63 2.992 5.874 3.96 2.244.968 4.642 1.452 7.194 1.452 2.552 0 4.95-.484 7.194-1.452 2.244-.968 4.202-2.288 5.874-3.96 1.672-1.672 2.992-3.63 3.96-5.874.968-2.244 1.452-4.642 1.452-7.194 0-2.552-.484-4.95-1.452-7.194-.968-2.244-2.288-4.202-3.96-5.874-1.672-1.672-3.63-2.992-5.874-3.96-2.244-.968-4.642-1.452-7.194-1.452-2.552 0-4.95.484-7.194 1.452-2.244.968-4.202 2.288-5.874 3.96-1.672 1.672-2.992 3.63-3.96 5.874-.968 2.244-1.452 4.642-1.452 7.194zm18.48 30.36c-4.224 0-8.162-.792-11.814-2.376-3.652-1.584-6.864-3.762-9.636-6.534-2.772-2.772-4.95-5.984-6.534-9.636-1.584-3.652-2.376-7.59-2.376-11.814s.792-8.162 2.376-11.814c1.584-3.652 3.762-6.864 6.534-9.636 2.772-2.772 5.984-4.95 9.636-6.534 3.652-1.584 7.59-2.376 11.814-2.376s8.162.792 11.814 2.376c3.652 1.584 6.864 3.762 9.636 6.534 2.772 2.772 4.95 5.984 6.534 9.636 1.584 3.652 2.376 7.59 2.376 11.814s-.792 8.162-2.376 11.814c-1.584 3.652-3.762 6.864-6.534 9.636-2.772 2.772-5.984 4.95-9.636 6.534-3.652 1.584-7.59 2.376-11.814 2.376zm89.496 15.84c-5.544 0-10.56-.704-15.048-2.112-4.488-1.408-8.316-3.52-11.484-6.336-3.168-2.816-5.61-6.38-7.326-10.692-1.716-4.312-2.574-9.372-2.574-15.18V2.956h28.116v54.78c0 3.08.638 5.434 1.914 7.062 1.276 1.628 3.41 2.442 6.402 2.442s5.126-.814 6.402-2.442c1.276-1.628 1.914-3.982 1.914-7.062V2.956h28.248v55.968c0 5.808-.858 10.868-2.574 15.18-1.716 4.312-4.18 7.876-7.392 10.692-3.212 2.816-7.062 4.928-11.55 6.336-4.488 1.408-9.504 2.112-15.048 2.112zm0-15.84c-13.2 0-19.8-6.468-19.8-19.404V13.516H561.3V58c0 7.392 2.002 13.046 6.006 16.962 4.004 3.916 9.746 5.874 17.226 5.874 7.48 0 13.244-1.958 17.292-5.874 4.048-3.916 6.072-9.57 6.072-16.962V13.516h-3.564V58c0 12.936-6.6 19.404-19.8 19.404zm60.06-30.36c0-4.224.726-8.184 2.178-11.88 1.452-3.696 3.498-6.908 6.138-9.636 2.64-2.728 5.852-4.884 9.636-6.468 3.784-1.584 8.008-2.376 12.672-2.376 2.288 0 4.334.154 6.138.462 1.804.308 3.322.682 4.554 1.122 1.496.44 2.772.968 3.828 1.584l1.848-3.168a53.058 53.058 0 0 0-4.488-1.716c-1.496-.44-3.212-.836-5.148-1.188-1.936-.352-4.18-.528-6.732-.528-4.488 0-8.778.792-12.87 2.376-4.092 1.584-7.7 3.85-10.824 6.798-3.124 2.948-5.632 6.512-7.524 10.692-1.892 4.18-2.838 8.822-2.838 13.926 0 5.192.902 9.856 2.706 13.992 1.804 4.136 4.29 7.678 7.458 10.626 3.168 2.948 6.864 5.214 11.088 6.798 4.224 1.584 8.712 2.376 13.464 2.376 2.64 0 5.016-.22 7.128-.66 2.112-.44 3.916-.924 5.412-1.452 1.672-.616 3.168-1.32 4.488-2.112l-1.848-3.168c-1.144.792-2.464 1.452-3.96 1.98-1.32.528-2.904.99-4.752 1.386-1.848.396-4.004.594-6.468.594-4.84 0-9.196-.792-13.068-2.376-3.872-1.584-7.15-3.74-9.834-6.468-2.684-2.728-4.752-5.94-6.204-9.636-1.452-3.696-2.178-7.656-2.178-11.88zm-16.632 0c0-7.04 1.232-13.398 3.696-19.074 2.464-5.676 5.808-10.538 10.032-14.586s9.152-7.15 14.784-9.306c5.632-2.156 11.616-3.234 17.952-3.234 5.016 0 9.482.484 13.398 1.452 3.916.968 7.282 2.068 10.098 3.3 3.256 1.408 6.072 2.948 8.448 4.62l-13.86 24.42a46.633 46.633 0 0 0-4.62-3.036c-1.496-.704-3.278-1.386-5.346-2.046-2.068-.66-4.422-.99-7.062-.99-2.728 0-5.236.484-7.524 1.452-2.288.968-4.29 2.288-6.006 3.96a18.152 18.152 0 0 0-4.026 5.874c-.968 2.244-1.452 4.642-1.452 7.194 0 2.552.506 4.95 1.518 7.194a18.523 18.523 0 0 0 4.158 5.874c1.76 1.672 3.828 2.992 6.204 3.96s4.972 1.452 7.788 1.452 5.324-.352 7.524-1.056c2.2-.704 4.048-1.496 5.544-2.376 1.76-.968 3.3-2.112 4.62-3.432l13.86 24.42c-2.376 1.936-5.192 3.652-8.448 5.148-2.816 1.232-6.204 2.376-10.164 3.432s-8.492 1.584-13.596 1.584c-6.864 0-13.2-1.122-19.008-3.366-5.808-2.244-10.824-5.39-15.048-9.438-4.224-4.048-7.524-8.91-9.9-14.586-2.376-5.676-3.564-11.946-3.564-18.81zm83.028-44.088h28.116V32.92h15.708V2.956h28.248V91h-28.248V58.396h-15.708V91h-28.116V2.956zM727.62 80.44V47.044h38.808V80.44h3.432V13.516h-3.432v30.36H727.62v-30.36h-3.432V80.44h3.432z"/><filter id="a" width="113.4%" height="213.6%" x="-6.7%" y="-56.8%" filterUnits="objectBoundingBox"><feOffset in="SourceAlpha" result="shadowOffsetOuter1"/><feGaussianBlur stdDeviation="12.5" in="shadowOffsetOuter1" result="shadowBlurOuter1"/><feColorMatrix values="0 0 0 0 1 0 0 0 0 1 0 0 0 0 1 0 0 0 0.8 0" in="shadowBlurOuter1" result="shadowMatrixOuter1"/><feOffset in="SourceAlpha" result="shadowOffsetOuter2"/><feGaussianBlur stdDeviation="7.5" in="shadowOffsetOuter2" result="shadowBlurOuter2"/><feColorMatrix values="0 0 0 0 0.619607843 0 0 0 0 0.490196078 0 0 0 0 0.847058824 0 0 0 1 0" in="shadowBlurOuter2" result="shadowMatrixOuter2"/><feMerge><feMergeNode in="shadowMatrixOuter1"/><feMergeNode in="shadowMatrixOuter2"/></feMerge></filter></defs><g fill="none" fill-rule="evenodd" transform="translate(23 24)"><g fill="#550DB8"><path d="M8 23h770v12H8z"/><path d="M104 22h11v121h-11zM293 22h11v121h-11zM482 22h11v121h-11zM671 22h11v121h-11z"/><path d="M8 63h770v12H8z"/></g><use fill="#000" filter="url(#a)" xlink:href="#b"/><use fill="#FFF" xlink:href="#b"/></g></svg>