<svg xmlns="http://www.w3.org/2000/svg" width="320" height="1172"><defs><linearGradient id="a" x1="50%" x2="50%" y1="2.95%" y2="100%"><stop stop-color="#5EE7DF" stop-opacity="0" offset="0%"/><stop stop-color="#5EE7DF" offset="14.477%"/><stop stop-color="#B490CA" offset="83.558%"/><stop stop-color="#B490CA" stop-opacity="0" offset="100%"/></linearGradient></defs><g fill="none" fill-rule="evenodd" opacity=".3"><path fill="url(#a)" d="M297.765 0C236.46 73.193 173.598 136.293 182.51 186.838c8.913 50.545 46.574 50.13 162.269 79.8 115.695 29.668 208.633 147.15 83.427 228.816S313.262 570.609 229.084 622.42c-84.178 51.812-104.67 132.296-21.739 168.76 82.931 36.463 263.54 47.446 351.774 111.08 88.234 63.634 26.196 132.655 18.937 209.105 0 0-443.437-1.27-448.858 6.015-10.103 13.576 256.479-99.832 262.85-171.557 6.372-71.724-184.075-73.24-296.333-111.096-177.378-59.816-75.433-204.265 42.225-260.93 117.658-56.665 126.671-58.198 206.839-94.122 80.168-35.924 100.2-140.131-22.185-176.585-122.386-36.454-191.048-33.245-202.32-87.654C109.005 161.03 229.085 60.877 297.765 0z" opacity=".1" transform="translate(-146 -23)"/><g transform="translate(-140.796 .7)"><path fill="#9E7DD8" d="M148.963 568.488l3.964-4.56-5.005-4.352 3.229-3.715 5.005 4.351 3.965-4.56 3.382 2.94-3.965 4.56 5.005 4.351-3.229 3.715-5.005-4.351-3.965 4.56z"/><path fill="#1DBCBC" opacity=".6" d="M206.348 802.384l-9.039-2.253-2.253 9.037 9.038 2.253z"/><path fill="#9E7DD8" opacity=".796" d="M299.111 814.534l3.315-3.814-4.224-3.671 2.7-3.106 4.224 3.672 3.315-3.814 2.853 2.48-3.315 3.814 4.224 3.672-2.7 3.106-4.223-3.672-3.315 3.814z"/><path fill="#1DBCBC" opacity=".796" d="M250.685 564.486l4.563-6.28 6.28 4.562-4.564 6.28z"/><path stroke="#9E7DD8" stroke-width="2.003" opacity=".796" d="M368.058 454.51l8.513 4.527-4.526 8.512-8.513-4.527z"/><path stroke="#1DBCBC" stroke-width="1.821" d="M466.708 363.778l-12.743-1.809 6.323 12.964 6.42-11.155z"/><path fill="#9E7DD8" d="M457.87 852.144l-9.913-5.202 1.299 12.352z"/><path stroke="#1DBCBC" stroke-width="1.821" d="M242.053 800.547l-2.218-12.678-10.375 10.02 12.593 2.658z"/><path fill="#1DBCBC" d="M343.25 475.078l-9.911-5.203 1.298 12.353zM393.536 840.316l-9.912-5.203 1.298 12.352zM438.643 374.527l-9.912-5.203 1.298 12.353z"/><path stroke="#9E7DD8" stroke-width="1.821" d="M371.461 873.802l-2.217-12.678-10.375 10.02 12.592 2.658z"/><path fill="#1DBCBC" opacity=".796" d="M179.528 537.805l5.475-7.536 7.535 5.475-5.475 7.536z"/><path fill="#9E7DD8" opacity=".796" d="M246.784 526.142l-.639-3.622-4.082.72-.52-2.95 4.082-.72-.639-3.622 2.759-.487.639 3.622 4.08-.72.52 2.951-4.08.72.639 3.622zM322.76 513.53l3.8-4.372-4.816-4.187 3.095-3.56 4.816 4.186 3.8-4.371 3.255 2.829-3.8 4.371 4.816 4.187-3.095 3.56-4.816-4.186-3.8 4.371z"/><ellipse cx="188.955" cy="203.478" stroke="#1DBCBC" stroke-width="2.428" opacity=".796" transform="rotate(-94 188.955 203.478)" rx="5.384" ry="5.384"/><ellipse cx="428.546" cy="296.9" stroke="#1DBCBC" stroke-width="2.428" opacity=".796" transform="rotate(-94 428.546 296.9)" rx="5.384" ry="5.384"/><ellipse cx="216.149" cy="522.523" stroke="#1DBCBC" stroke-width="2.428" opacity=".796" transform="rotate(-94 216.149 522.523)" rx="5.384" ry="5.384"/><ellipse cx="264.451" cy="800.014" fill="#1DBCBC" opacity=".796" transform="rotate(-94 264.45 800.014)" rx="5.434" ry="5.433"/><path fill="#1DBCBC" opacity=".7" d="M170.69 176.127l-1.516-4.404 4.403-1.516 1.516 4.404z"/><path fill="#1DBCBC" opacity=".796" d="M402.315 332.71l-1.516-4.404 4.403-1.516 1.516 4.404z"/><path fill="#9E7DD8" opacity=".796" d="M276.566 499.113l1.712-5.97 5.969 1.712-1.712 5.97z"/><ellipse cx="408.087" cy="403.164" stroke="#1DBCBC" stroke-width="2.428" opacity=".8" transform="scale(-1 1) rotate(-4 0 12089.259)" rx="5.773" ry="5.772"/><path fill="#9E7DD8" d="M145.811 209.653l-9.913-5.202 1.298 12.352z"/><path fill="#1DBCBC" d="M467.379 396.708l-9.912-5.203 1.298 12.352z"/><path fill="#9E7DD8" opacity=".796" d="M454.78 425.68l1.711-5.969 5.969 1.712-1.712 5.97zM383.79 482.109l1.711-5.97 5.969 1.712-1.712 5.97z"/><ellipse cx="163.027" cy="810.544" stroke="#1DBCBC" stroke-width="2.428" opacity=".8" transform="scale(-1 1) rotate(-4 0 5479.012)" rx="5.773" ry="5.772"/><path stroke="#9E7DD8" stroke-width="2.003" opacity=".796" d="M136.601 640.307l8.513 4.526-4.526 8.512-8.513-4.527z"/><path fill="#1DBCBC" d="M146.55 750.115l-9.913-5.203 1.299 12.353z"/><path fill="#9E7DD8" opacity=".796" d="M208.747 832.885l3.8-4.371-4.816-4.187 3.094-3.56 4.817 4.187 3.8-4.372 3.255 2.829-3.8 4.372 4.816 4.187-3.095 3.56-4.816-4.187-3.8 4.371z"/><ellipse cx="379.001" cy="282.818" stroke="#1DBCBC" stroke-width="2.428" opacity=".796" transform="rotate(-94 379 282.818)" rx="5.384" ry="5.384"/><path fill="#9E7DD8" d="M304.966 511.89l-9.912-5.204 1.298 12.353zM443.986 452.001l-9.912-5.203 1.298 12.353zM442.508 347.896l-9.912-5.204 1.298 12.353z"/><path fill="#1DBCBC" d="M439.55 426.905l-9.912-5.203 1.298 12.353z"/><ellipse cx="278.16" cy="525.559" fill="#1DBCBC" opacity=".796" transform="rotate(-94 278.16 525.56)" rx="5.434" ry="5.433"/><path fill="#1DBCBC" opacity=".796" d="M411.022 382.404L409.506 378l4.403-1.516 1.516 4.404z"/><path fill="#9E7DD8" d="M443.177 401.78l-4.656-.325.36-5.157-3.79-.265-.36 5.157-4.656-.326-.244 3.485 4.656.325-.36 5.158 3.79.265.36-5.158 4.656.326z"/><path fill="#1DBCBC" opacity=".6" d="M154.874 222.7l-4.187 2.043 2.042 4.185 4.186-2.042zM387.236 300.175l-4.186 2.042 2.041 4.185 4.187-2.042z"/><path fill="#9E7DD8" opacity=".6" d="M187.834 587.569l-7.536 5.475 5.474 7.535 7.536-5.475z"/><path fill="#9E7DD8" opacity=".796" d="M348.868 1032.775l2.042-4.187 4.185 2.042-2.042 4.186zM355.49 837.837l1.516 4.404-4.403 1.516-1.516-4.404zM243.122 830.498l1.712-5.97 5.969 1.712-1.712 5.97z"/><path fill="#9E7DD8" opacity=".6" d="M300.943 836.358l-7.536 5.475 5.474 7.535 7.536-5.475z"/><ellipse cx="397.85" cy="433.191" fill="#1DBCBC" opacity=".796" transform="rotate(-94 397.85 433.191)" rx="5.434" ry="5.433"/><path fill="#1DBCBC" opacity=".796" d="M307.494 530.274l-1.516-4.404 4.403-1.516 1.516 4.404zM374.954 442.134l-1.516-4.404 4.403-1.516 1.516 4.404zM458.515 342.475L457 338.071l4.403-1.516 1.516 4.404z"/><path fill="#9E7DD8" opacity=".796" d="M157.342 780.962l1.712-5.97 5.969 1.712-1.712 5.97z"/><path fill="#9E7DD8" opacity=".8" d="M192.779 221.693l-3.793 4.363-4.796-4.17-3.088 3.553 4.796 4.17-3.792 4.363 3.24 2.817 3.793-4.363 4.797 4.17 3.088-3.553-4.797-4.17 3.793-4.363z"/><path fill="#9E7DD8" opacity=".796" d="M409.486 355.936l.326-4.655-5.157-.361.265-3.792 5.157.36.325-4.655 3.485.244-.326 4.655 5.157.361-.265 3.792-5.157-.36-.325 4.655z"/><path fill="#9E7DD8" d="M334.966 281.845l.326-4.655-5.157-.361.265-3.792 5.157.36.325-4.655 3.485.244-.326 4.655 5.157.361-.265 3.792-5.157-.36-.325 4.655z"/><path stroke="#9E7DD8" stroke-width="2.003" opacity=".796" d="M358.89 814.837l7.8 5.667-5.666 7.8-7.8-5.668z"/><path fill="#9E7DD8" d="M438.532 321.144l-10.54-3.772 3.005 12.05z"/><path stroke="#1DBCBC" stroke-width="1.821" d="M420.588 462.201l-3.96-12.246-8.88 11.366 12.84.88z"/><ellipse cx="366.556" cy="489.145" stroke="#1DBCBC" stroke-width="2.428" opacity=".796" transform="rotate(-86 366.556 489.145)" rx="5.384" ry="5.384"/><ellipse cx="323.101" cy="828.11" fill="#1DBCBC" opacity=".796" transform="rotate(-86 323.101 828.11)" rx="5.434" ry="5.433"/><path fill="#1DBCBC" opacity=".796" d="M216.651 590.44l-.889-4.572 4.572-.889.889 4.573z"/><path fill="#1DBCBC" opacity=".6" d="M357.17 290.773l.324-4.647 4.646.325-.325 4.647z"/><path fill="#9E7DD8" opacity=".796" d="M187.42 779.102l2.526-5.673 5.673 2.525-2.526 5.673z"/><path fill="#9E7DD8" d="M297.423 545.62l-4.656.325-.36-5.157-3.792.265.36 5.157-4.655.325.244 3.485 4.655-.326.361 5.157 3.792-.265-.36-5.157 4.655-.325z"/><path fill="#1DBCBC" opacity=".6" d="M195.96 564.279l-3.862 2.605 2.604 3.86 3.862-2.604z"/><path stroke="#9E7DD8" stroke-width="1.821" d="M232.22 553.072l-7.183-10.68-5.403 13.374 12.585-2.694zM169.936 619.77l-7.182-10.68-5.403 13.374 12.585-2.693z"/><path stroke="#1DBCBC" stroke-width="1.821" d="M452.662 1067.347l-12.742-1.81 6.323 12.965 6.42-11.155z" opacity=".4"/><ellipse cx="292.315" cy="1041.545" stroke="#1DBCBC" stroke-width="2.428" opacity=".5" transform="rotate(-94 292.315 1041.545)" rx="5.384" ry="5.384"/><path fill="#1DBCBC" opacity=".7" d="M389.576 869.634l-1.516-4.404 4.403-1.516 1.516 4.404z"/><path fill="#9E7DD8" opacity=".4" d="M416.164 1113.379l1.712-5.97 5.969 1.712-1.712 5.97z"/><ellipse cx="395.343" cy="898.058" fill="#1DBCBC" opacity=".7" transform="rotate(-94 395.343 898.058)" rx="5.434" ry="5.433"/><ellipse cx="277.815" cy="825.33" stroke="#1DBCBC" stroke-width="2.428" opacity=".7" transform="rotate(-86 277.815 825.33)" rx="5.773" ry="5.772"/><path fill="#9E7DD8" opacity=".7" d="M442.968 912.621l-10.54-3.772 3.005 12.05z"/><path fill="#1DBCBC" opacity=".4" d="M276.552 1135.05l-.889-4.572 4.572-.888.889 4.572z"/><path fill="#1DBCBC" opacity=".8" d="M369.573 985.177l.325-4.647 4.646.325-.325 4.647z"/><path fill="#9E7DD8" opacity=".8" d="M427.666 880.377l-.325-4.655-5.158.36-.265-3.79 5.158-.362-.326-4.655 3.485-.244.325 4.656 5.157-.36.265 3.79-5.157.362.326 4.654z"/><path fill="#9E7DD8" opacity=".796" d="M138.116 722.988l2.042-4.186 4.185 2.041-2.042 4.187z"/><path fill="#1DBCBC" opacity=".8" d="M336.596 852.146l-9.912-5.203 1.298 12.352z"/><path fill="#9E7DD8" opacity=".796" d="M283.789 246.804l3.315-3.813-4.224-3.672 2.7-3.107 4.224 3.672 3.315-3.813 2.854 2.48-3.315 3.814 4.224 3.672-2.7 3.107-4.224-3.672-3.315 3.813z"/><path stroke="#1DBCBC" stroke-width="1.821" d="M226.731 232.875l-2.217-12.678-10.376 10.02 12.593 2.658z"/><ellipse cx="249.129" cy="232.284" fill="#1DBCBC" opacity=".796" transform="rotate(-94 249.13 232.284)" rx="5.434" ry="5.433"/><path fill="#9E7DD8" opacity=".796" d="M229.978 251.432l1.712-5.97 5.969 1.712-1.712 5.97zM397.84 284.703l1.711-5.97 5.969 1.712-1.712 5.97zM158.988 205.593l1.712-5.97 5.969 1.712-1.712 5.97z"/><path fill="#9E7DD8" opacity=".6" d="M330.838 243.543l-7.536 5.475 5.474 7.535 7.536-5.475z"/><ellipse cx="307.225" cy="264.57" fill="#1DBCBC" opacity=".796" transform="rotate(-86 307.225 264.57)" rx="5.434" ry="5.433"/><ellipse cx="270.139" cy="256.553" stroke="#1DBCBC" stroke-width="2.428" opacity=".7" transform="rotate(-86 270.139 256.553)" rx="5.773" ry="5.772"/><path fill="#1DBCBC" opacity=".8" d="M369.87 259.031l-9.913-5.202 1.299 12.352z"/><ellipse cx="420.245" cy="841.921" stroke="#1DBCBC" stroke-width="2.428" opacity=".8" transform="rotate(-94 420.245 841.921)" rx="5.384" ry="5.384"/><ellipse cx="311.898" cy="479.72" fill="#1DBCBC" opacity=".796" transform="rotate(-94 311.898 479.72)" rx="5.434" ry="5.433"/><path stroke="#9E7DD8" stroke-width="1.821" d="M406.242 313.728l-5.626-11.575-7.212 12.491 12.838-.916z"/><path fill="#9E7DD8" opacity=".5" d="M391.176 1026.028l-.325-4.656-5.157.36-.265-3.79 5.157-.36-.326-4.656 3.485-.244.325 4.656 5.157-.36.265 3.79-5.157.36.326 4.656z"/><path fill="#9E7DD8" opacity=".1" d="M200.557 1170.783l-.325-4.656-5.158.36-.265-3.79 5.158-.36-.326-4.656 3.484-.244.325 4.656 5.158-.36.265 3.79-5.158.36.326 4.656z"/><path fill="#9E7DD8" opacity=".3" d="M291.932 1167.046l2.042-4.186 4.185 2.041-2.042 4.187z"/><path stroke="#9E7DD8" stroke-width="1.821" d="M254.051 1168.644l-2.217-12.678-10.376 10.02 12.593 2.658z" opacity=".15"/><path fill="#1DBCBC" opacity=".1" d="M192.565 1132.94l-9.912-5.203 1.298 12.352z"/><ellipse cx="364.049" cy="1120.365" stroke="#1DBCBC" stroke-width="2.428" opacity=".4" transform="rotate(-94 364.049 1120.365)" rx="5.384" ry="5.384"/><ellipse cx="333.892" cy="1164.119" stroke="#1DBCBC" stroke-width="2.428" opacity=".1" transform="rotate(-94 333.892 1164.119)" rx="5.384" ry="5.384"/><ellipse cx="399.953" cy="938.451" stroke="#1DBCBC" stroke-width="2.428" opacity=".6" transform="scale(-1 1) rotate(-4 0 12391.61)" rx="5.773" ry="5.772"/><path stroke="#9E7DD8" stroke-width="2.003" opacity=".8" d="M419.082 964.14l8.513 4.527-4.526 8.512-8.513-4.527z"/><path fill="#9E7DD8" opacity=".3" d="M409.97 1148.466l-9.912-5.204 1.298 12.353z"/><path fill="#1DBCBC" opacity=".4" d="M395.02 1061.091l-9.913-5.203 1.298 12.353z"/><path fill="#9E7DD8" opacity=".5" d="M337.006 1052.697l1.516 4.404-4.403 1.516-1.516-4.404z"/><path fill="#9E7DD8" opacity=".2" d="M229.811 1139.545l1.712-5.97 5.969 1.712-1.712 5.97z"/><path fill="#9E7DD8" opacity=".1" d="M158.224 1151.32l-7.536 5.475 5.475 7.535 7.536-5.475z"/><ellipse cx="320.818" cy="1134.781" fill="#1DBCBC" opacity=".3" transform="rotate(-94 320.818 1134.781)" rx="5.434" ry="5.433"/><path fill="#9E7DD8" opacity=".6" d="M342.608 1008.045l-4.656-.325.36-5.158-3.79-.265-.36 5.158-4.656-.326-.244 3.484 4.656.325-.36 5.158 3.79.265.36-5.158 4.656.326z"/><path stroke="#9E7DD8" stroke-width="1.821" d="M303.458 1092.828l-5.626-11.575-7.212 12.491 12.838-.916z" opacity=".4"/><ellipse cx="340.548" cy="1096.838" stroke="#1DBCBC" stroke-width="2.428" opacity=".2" transform="rotate(-94 340.548 1096.838)" rx="5.384" ry="5.384"/><ellipse cx="157.226" cy="1110.54" fill="#1DBCBC" opacity=".25" transform="rotate(-94 157.226 1110.54)" rx="5.434" ry="5.433"/><path fill="#1DBCBC" opacity=".3" d="M366.62 1163.268l5.392-5.584 5.583 5.391-5.392 5.585z"/><path stroke="#9E7DD8" stroke-width="2.003" opacity=".2" d="M215.432 1095.789l7.8 5.667-5.667 7.799-7.8-5.667z"/><ellipse cx="438.426" cy="1154.036" stroke="#1DBCBC" stroke-width="2.428" opacity=".15" transform="scale(-1 1) rotate(-4 0 13708.903)" rx="7.713" ry="7.712"/><ellipse cx="260.611" cy="1107.614" stroke="#1DBCBC" stroke-width="2.428" opacity=".2" transform="scale(-1 1) rotate(-4 0 8570.53)" rx="7.713" ry="7.712"/><path fill="#9E7DD8" opacity=".5" d="M238.306 1071.362l3.792-4.362-4.797-4.17 3.09-3.553 4.796 4.17 3.792-4.362 3.24 2.817-3.791 4.362 4.796 4.17-3.089 3.552-4.796-4.169-3.792 4.362z"/><ellipse cx="147.544" cy="131.991" stroke="#1DBCBC" stroke-width="2.428" opacity=".5" transform="rotate(86 147.544 131.99)" rx="5.384" ry="5.384"/><path fill="#1DBCBC" opacity=".1" d="M269.306 0l.889 4.572-4.572.888-.889-4.572z"/><path fill="#1DBCBC" opacity=".2" d="M235.804 29.321l9.913 5.203-1.298-12.352z"/><path fill="#1DBCBC" opacity=".7" d="M148.545 180.316l9.913 5.202-1.298-12.352z"/><path fill="#9E7DD8" opacity=".15" d="M259.104 15.018l-1.712 5.97-5.968-1.712 1.711-5.97z"/><path fill="#9E7DD8" opacity=".3" d="M211.05 64.025l7.536-5.475-5.475-7.535-7.536 5.475z"/><path fill="#9E7DD8" opacity=".6" d="M128.29 159.406l4.656.325-.36 5.158 3.79.265.362-5.158 4.655.326.244-3.484-4.656-.325.36-5.158-3.79-.265-.362 5.158-4.655-.326z"/><path stroke="#9E7DD8" stroke-width="1.821" d="M155.986 148.278l5.626 11.576 7.212-12.491-12.838.915z" opacity=".6"/><ellipse cx="189.191" cy="87.127" fill="#1DBCBC" opacity=".4" transform="rotate(86 189.19 87.127)" rx="5.434" ry="5.433"/><path stroke="#9E7DD8" stroke-width="2.003" opacity=".3" d="M205.901 79.93l-7.8-5.667 5.667-7.799 7.8 5.667z"/><path stroke="#9E7DD8" stroke-width="1.548" d="M224.67 39.634l1.712 10.811 9.032-8.722-10.745-2.089z" opacity=".2"/><ellipse cx="169.255" cy="100.467" stroke="#1DBCBC" stroke-width="2.428" opacity=".4" transform="scale(1 -1) rotate(-4 -2707.732 0)" rx="7.713" ry="7.712"/><path fill="#9E7DD8" opacity=".5" d="M181.397 123.063l-3.792 4.362 4.796 4.17-3.089 3.552-4.796-4.169-3.792 4.362-3.242-2.817 3.793-4.363-4.797-4.169 3.09-3.553 4.795 4.17 3.792-4.363z"/><ellipse cx="462.395" cy="946.169" stroke="#1DBCBC" stroke-width="2.428" opacity=".6" transform="rotate(-86 462.395 946.169)" rx="5.384" ry="5.384"/><path stroke="#9E7DD8" stroke-width="1.821" d="M443.341 1027.89l-7.182-10.68-5.403 13.374 12.585-2.693z" opacity=".6"/></g></g></svg>