<svg xmlns="http://www.w3.org/2000/svg" width="320" height="1172" viewBox="0 0 320 1172">
  <defs>
    <linearGradient id="a" x1="50%" x2="50%" y1="2.95%" y2="100%">
      <stop stop-color="#5EE7DF" stop-opacity="0" offset="0%"/>
      <stop stop-color="#5EE7DF" offset="14.477%"/>
      <stop stop-color="#B490CA" offset="83.558%"/>
      <stop stop-color="#B490CA" stop-opacity="0" offset="100%"/>
    </linearGradient>
  </defs>
  <g fill="none" fill-rule="evenodd" transform="translate(-146 -23)" opacity=".3">
    <path fill="url(#a)" d="M297.764785,0 C236.460754,73.1934711 173.598123,136.293363 182.510318,186.83817 C191.422514,237.382977 229.084205,236.968231 344.778983,266.637279 C460.473761,296.306327 553.412293,413.788235 428.206147,495.453911 C303,577.119587 313.261924,570.609265 229.084205,622.421167 C144.906487,674.233068 124.414351,754.71681 207.34531,791.180379 C290.27627,827.643949 470.884768,838.627171 559.118893,902.261159 C647.353018,965.895147 585.314871,1034.91614 578.056468,1111.36602 C578.056468,1111.36602 134.619202,1110.09677 129.198126,1117.38136 C119.095344,1130.95699 385.676996,1017.54899 392.048418,945.824249 C398.419839,874.099503 207.973044,872.583438 95.7154752,834.7279 C-81.6630627,774.912245 20.2815445,630.462943 137.939616,573.797994 C255.597687,517.133045 264.611446,515.599552 344.778983,479.675598 C424.94652,443.751645 444.979663,339.544804 322.594,303.091042 C200.208337,266.637279 131.546073,269.845571 120.274813,215.437087 C109.003553,161.028603 229.084205,60.8775814 297.764785,0 Z" opacity=".1"/>
    <g transform="translate(5.204 23.7)">
      <polygon fill="#9E7DD8" points="147.729 561.299 153.772 561.299 153.772 554.667 158.694 554.667 158.694 561.299 164.737 561.299 164.737 565.78 158.694 565.78 158.694 572.412 153.772 572.412 153.772 565.78 147.729 565.78" transform="rotate(-49 156.233 563.54)"/>
      <rect width="9.315" height="9.314" x="196.044" y="801.119" fill="#1DBCBC" opacity=".6" transform="scale(-1 1) rotate(-14 0 2440.36)"/>
      <polygon fill="#9E7DD8" points="298.092 808.518 303.145 808.518 303.145 802.921 307.26 802.921 307.26 808.518 312.313 808.518 312.313 812.299 307.26 812.299 307.26 817.896 303.145 817.896 303.145 812.299 298.092 812.299" opacity=".796" transform="rotate(-49 305.202 810.408)"/>
      <rect width="7.763" height="7.762" x="252.224" y="559.747" fill="#1DBCBC" opacity=".796" transform="rotate(-54 256.105 563.627)"/>
      <rect width="9.641" height="9.64" x="365.231" y="456.21" stroke="#9E7DD8" stroke-width="2.003" opacity=".796" transform="rotate(28 370.052 461.03)"/>
      <path stroke="#1DBCBC" stroke-width="1.821" d="M462.2384,360.985288 L469.450398,371.645287 L455.026401,371.645287 L462.2384,360.985288 Z" transform="scale(-1 1) rotate(-64 0 1105.694)"/>
      <polygon fill="#9E7DD8" points="453.239 847.975 459.449 857.289 447.029 857.289" transform="scale(-1 1) rotate(-84 0 1356.004)"/>
      <path stroke="#1DBCBC" stroke-width="1.821" d="M238.598164,791.99677 L245.810163,802.656769 L231.386166,802.656769 L238.598164,791.99677 Z" transform="scale(1 -1) rotate(44 2211.167 0)"/>
      <polygon fill="#1DBCBC" points="338.62 470.908 344.83 480.222 332.409 480.222" transform="scale(-1 1) rotate(-84 0 851.64)"/>
      <polygon fill="#1DBCBC" points="388.904 836.145 395.114 845.459 382.694 845.459" transform="scale(-1 1) rotate(-84 0 1272.724)"/>
      <polygon fill="#1DBCBC" points="434.012 370.357 440.223 379.671 427.802 379.671" transform="scale(-1 1) rotate(-84 0 857.033)"/>
      <path stroke="#9E7DD8" stroke-width="1.821" d="M368.006888,865.251415 L375.218886,875.911414 L360.79489,875.911414 L368.006888,865.251415 Z" transform="scale(1 -1) rotate(44 2521.888 0)"/>
      <rect width="9.315" height="9.314" x="181.375" y="532.117" fill="#1DBCBC" opacity=".796" transform="rotate(-54 186.033 536.774)"/>
      <polygon fill="#9E7DD8" points="242.088 519.402 245.766 519.402 245.766 515.257 248.762 515.257 248.762 519.402 252.44 519.402 252.44 522.203 248.762 522.203 248.762 526.347 245.766 526.347 245.766 522.203 242.088 522.203" opacity=".796" transform="rotate(-100 247.264 520.802)"/>
      <polygon fill="#9E7DD8" points="321.584 506.636 327.376 506.636 327.376 500.254 332.094 500.254 332.094 506.636 337.886 506.636 337.886 510.948 332.094 510.948 332.094 517.33 327.376 517.33 327.376 510.948 321.584 510.948" opacity=".796" transform="rotate(-49 329.735 508.792)"/>
      <ellipse cx="188.955" cy="203.478" stroke="#1DBCBC" stroke-width="2.428" opacity=".796" transform="rotate(-94 188.955 203.478)" rx="5.384" ry="5.384"/>
      <ellipse cx="428.546" cy="296.9" stroke="#1DBCBC" stroke-width="2.428" opacity=".796" transform="rotate(-94 428.546 296.9)" rx="5.384" ry="5.384"/>
      <ellipse cx="216.149" cy="522.523" stroke="#1DBCBC" stroke-width="2.428" opacity=".796" transform="rotate(-94 216.149 522.523)" rx="5.384" ry="5.384"/>
      <ellipse cx="264.451" cy="800.014" fill="#1DBCBC" opacity=".796" transform="rotate(-94 264.45 800.014)" rx="5.434" ry="5.433"/>
      <rect width="4.658" height="4.657" x="169.805" y="170.838" fill="#1DBCBC" opacity=".7" transform="rotate(-109 172.134 173.167)"/>
      <rect width="4.658" height="4.657" x="401.429" y="327.422" fill="#1DBCBC" opacity=".796" transform="rotate(-109 403.758 329.75)"/>
      <rect width="6.21" height="6.209" x="277.301" y="493.88" fill="#9E7DD8" opacity=".796" transform="rotate(-74 280.406 496.984)"/>
      <ellipse cx="408.087" cy="403.164" stroke="#1DBCBC" stroke-width="2.428" opacity=".8" transform="scale(-1 1) rotate(-4 0 12089.259)" rx="5.773" ry="5.772"/>
      <polygon fill="#9E7DD8" points="141.179 205.482 147.389 214.797 134.969 214.797" transform="scale(-1 1) rotate(-84 0 366.935)"/>
      <polygon fill="#1DBCBC" points="462.747 392.537 468.957 401.851 456.537 401.851" transform="scale(-1 1) rotate(-84 0 911.127)"/>
      <rect width="6.21" height="6.209" x="455.515" y="420.447" fill="#9E7DD8" opacity=".796" transform="rotate(-74 458.62 423.552)"/>
      <rect width="6.21" height="6.209" x="384.525" y="476.875" fill="#9E7DD8" opacity=".796" transform="rotate(-74 387.63 479.98)"/>
      <ellipse cx="163.027" cy="810.544" stroke="#1DBCBC" stroke-width="2.428" opacity=".8" transform="scale(-1 1) rotate(-4 0 5479.012)" rx="5.773" ry="5.772"/>
      <rect width="9.641" height="9.64" x="133.774" y="642.006" stroke="#9E7DD8" stroke-width="2.003" opacity=".796" transform="rotate(28 138.595 646.826)"/>
      <polygon fill="#1DBCBC" points="141.918 745.945 148.129 755.259 135.708 755.259" transform="scale(-1 1) rotate(-84 0 908.218)"/>
      <polygon fill="#9E7DD8" points="207.571 825.992 213.363 825.992 213.363 819.61 218.08 819.61 218.08 825.992 223.873 825.992 223.873 830.304 218.08 830.304 218.08 836.686 213.363 836.686 213.363 830.304 207.571 830.304" opacity=".796" transform="rotate(-49 215.722 828.148)"/>
      <ellipse cx="379.001" cy="282.818" stroke="#1DBCBC" stroke-width="2.428" opacity=".796" transform="rotate(-94 379 282.818)" rx="5.384" ry="5.384"/>
      <polygon fill="#9E7DD8" points="300.333 507.718 306.544 517.032 294.123 517.032" transform="scale(-1 1) rotate(-84 0 845.93)"/>
      <polygon fill="#9E7DD8" points="439.355 447.831 445.566 457.145 433.145 457.145" transform="scale(-1 1) rotate(-84 0 940.441)"/>
      <polygon fill="#9E7DD8" points="437.876 343.725 444.087 353.039 431.666 353.039" transform="scale(-1 1) rotate(-84 0 834.693)"/>
      <polygon fill="#1DBCBC" points="434.919 422.735 441.129 432.049 428.708 432.049" transform="scale(-1 1) rotate(-84 0 910.418)"/>
      <ellipse cx="278.16" cy="525.559" fill="#1DBCBC" opacity=".796" transform="rotate(-94 278.16 525.56)" rx="5.434" ry="5.433"/>
      <rect width="4.658" height="4.657" x="410.136" y="377.116" fill="#1DBCBC" opacity=".796" transform="rotate(-109 412.465 379.444)"/>
      <polygon fill="#9E7DD8" points="429.937 401.318 434.604 401.318 434.604 396.149 438.404 396.149 438.404 401.318 443.071 401.318 443.071 404.811 438.404 404.811 438.404 409.981 434.604 409.981 434.604 404.811 429.937 404.811" transform="scale(-1 1) rotate(-4 0 12902.905)"/>
      <rect width="4.658" height="4.657" x="151.472" y="223.486" fill="#1DBCBC" opacity=".6" transform="scale(-1 1) rotate(26 0 -440.371)"/>
      <rect width="4.658" height="4.657" x="383.835" y="300.96" fill="#1DBCBC" opacity=".6" transform="scale(-1 1) rotate(26 0 -1369.371)"/>
      <rect width="9.315" height="9.314" x="182.145" y="589.417" fill="#9E7DD8" opacity=".6" transform="scale(-1 1) rotate(36 0 19.154)"/>
      <rect width="4.658" height="4.657" x="349.652" y="1029.374" fill="#9E7DD8" opacity=".796" transform="rotate(-64 351.981 1031.702)"/>
      <rect width="4.658" height="4.657" x="351.717" y="838.468" fill="#9E7DD8" opacity=".796" transform="rotate(71 354.046 840.797)"/>
      <rect width="6.21" height="6.209" x="243.858" y="825.264" fill="#9E7DD8" opacity=".796" transform="rotate(-74 246.963 828.369)"/>
      <rect width="9.315" height="9.314" x="295.255" y="838.206" fill="#9E7DD8" opacity=".6" transform="scale(-1 1) rotate(36 0 -80.172)"/>
      <ellipse cx="397.85" cy="433.191" fill="#1DBCBC" opacity=".796" transform="rotate(-94 397.85 433.191)" rx="5.434" ry="5.433"/>
      <rect width="4.658" height="4.657" x="306.609" y="524.985" fill="#1DBCBC" opacity=".796" transform="rotate(-109 308.938 527.314)"/>
      <rect width="4.658" height="4.657" x="374.068" y="436.846" fill="#1DBCBC" opacity=".796" transform="rotate(-109 376.397 439.174)"/>
      <rect width="4.658" height="4.657" x="457.629" y="337.187" fill="#1DBCBC" opacity=".796" transform="rotate(-109 459.958 339.515)"/>
      <rect width="6.21" height="6.209" x="158.078" y="775.728" fill="#9E7DD8" opacity=".796" transform="rotate(-74 161.183 778.833)"/>
      <polygon fill="#9E7DD8" points="180.928 227.094 186.709 227.094 186.709 220.739 191.416 220.739 191.416 227.094 197.197 227.094 197.197 231.388 191.416 231.388 191.416 237.744 186.709 237.744 186.709 231.388 180.928 231.388" opacity=".8" transform="scale(-1 1) rotate(49 0 -185.619)"/>
      <polygon fill="#9E7DD8" points="405.119 347.761 409.786 347.761 409.786 342.592 413.587 342.592 413.587 347.761 418.254 347.761 418.254 351.254 413.587 351.254 413.587 356.423 409.786 356.423 409.786 351.254 405.119 351.254" opacity=".796" transform="rotate(-86 411.686 349.507)"/>
      <polygon fill="#9E7DD8" points="330.598 273.669 335.265 273.669 335.265 268.5 339.066 268.5 339.066 273.669 343.733 273.669 343.733 277.162 339.066 277.162 339.066 282.331 335.265 282.331 335.265 277.162 330.598 277.162" transform="rotate(-86 337.166 275.415)"/>
      <rect width="9.641" height="9.64" x="355.137" y="816.75" stroke="#9E7DD8" stroke-width="2.003" opacity=".796" transform="rotate(36 359.957 821.57)"/>
      <polygon fill="#9E7DD8" points="434.013 317.613 440.223 326.927 427.803 326.927" transform="scale(-1 1) rotate(-76 0 877.782)"/>
      <path stroke="#1DBCBC" stroke-width="1.821" d="M416.669601,454.166507 L423.8816,464.826507 L409.457603,464.826507 L416.669601,454.166507 Z" transform="scale(1 -1) rotate(52 1358.045 0)"/>
      <ellipse cx="366.556" cy="489.145" stroke="#1DBCBC" stroke-width="2.428" opacity=".796" transform="rotate(-86 366.556 489.145)" rx="5.384" ry="5.384"/>
      <ellipse cx="323.101" cy="828.11" fill="#1DBCBC" opacity=".796" transform="rotate(-86 323.101 828.11)" rx="5.434" ry="5.433"/>
      <rect width="4.658" height="4.657" x="216.163" y="585.382" fill="#1DBCBC" opacity=".796" transform="rotate(-101 218.492 587.71)"/>
      <rect width="4.658" height="4.657" x="357.325" y="286.284" fill="#1DBCBC" opacity=".6" transform="rotate(-86 359.654 288.612)"/>
      <rect width="6.21" height="6.209" x="188.415" y="774.423" fill="#9E7DD8" opacity=".796" transform="rotate(-66 191.52 777.528)"/>
      <polygon fill="#9E7DD8" points="284.426 546.073 289.093 546.073 289.093 540.904 292.894 540.904 292.894 546.073 297.561 546.073 297.561 549.566 292.894 549.566 292.894 554.735 289.093 554.735 289.093 549.566 284.426 549.566" transform="scale(-1 1) rotate(4 0 -7785.143)"/>
      <rect width="4.658" height="4.657" x="193.002" y="565.183" fill="#1DBCBC" opacity=".6" transform="scale(-1 1) rotate(34 0 -71.387)"/>
      <path stroke="#9E7DD8" stroke-width="1.821" d="M227.608523,546.236664 L234.820521,556.896664 L220.396525,556.896664 L227.608523,546.236664 Z" transform="scale(1 -1) rotate(68 1044.81 0)"/>
      <path stroke="#9E7DD8" stroke-width="1.821" d="M165.325656,612.935212 L172.537655,623.595211 L158.113658,623.595211 L165.325656,612.935212 Z" transform="scale(1 -1) rotate(68 1081.412 0)"/>
      <path stroke="#1DBCBC" stroke-width="1.821" d="M448.192671,1064.55398 L455.40467,1075.21398 L440.980673,1075.21398 L448.192671,1064.55398 Z" opacity=".4" transform="scale(-1 1) rotate(-64 0 1786.785)"/>
      <ellipse cx="292.315" cy="1041.545" stroke="#1DBCBC" stroke-width="2.428" opacity=".5" transform="rotate(-94 292.315 1041.545)" rx="5.384" ry="5.384"/>
      <rect width="4.658" height="4.657" x="388.691" y="864.345" fill="#1DBCBC" opacity=".7" transform="rotate(-109 391.02 866.674)"/>
      <rect width="6.21" height="6.209" x="416.9" y="1108.145" fill="#9E7DD8" opacity=".4" transform="rotate(-74 420.005 1111.25)"/>
      <ellipse cx="395.343" cy="898.058" fill="#1DBCBC" opacity=".7" transform="rotate(-94 395.343 898.058)" rx="5.434" ry="5.433"/>
      <ellipse cx="277.815" cy="825.33" stroke="#1DBCBC" stroke-width="2.428" opacity=".7" transform="rotate(-86 277.815 825.33)" rx="5.773" ry="5.772"/>
      <polygon fill="#9E7DD8" points="438.45 909.091 444.66 918.405 432.24 918.405" opacity=".7" transform="scale(-1 1) rotate(-76 0 1474.938)"/>
      <rect width="4.658" height="4.657" x="276.065" y="1129.991" fill="#1DBCBC" opacity=".4" transform="rotate(-101 278.394 1132.32)"/>
      <rect width="4.658" height="4.657" x="369.729" y="980.688" fill="#1DBCBC" opacity=".8" transform="rotate(-86 372.058 983.016)"/>
      <polygon fill="#9E7DD8" points="422.383 871.958 427.049 871.958 427.049 866.788 430.85 866.788 430.85 871.958 435.517 871.958 435.517 875.451 430.85 875.451 430.85 880.62 427.049 880.62 427.049 875.451 422.383 875.451" opacity=".8" transform="rotate(-94 428.95 873.704)"/>
      <rect width="4.658" height="4.657" x="138.901" y="719.587" fill="#9E7DD8" opacity=".796" transform="rotate(-64 141.23 721.916)"/>
      <polygon fill="#1DBCBC" points="331.964 847.975 338.174 857.289 325.754 857.289" opacity=".8" transform="scale(-1 1) rotate(-84 0 1221.316)"/>
      <polygon fill="#9E7DD8" points="282.77 240.787 287.823 240.787 287.823 235.19 291.939 235.19 291.939 240.787 296.992 240.787 296.992 244.569 291.939 244.569 291.939 250.166 287.823 250.166 287.823 244.569 282.77 244.569" opacity=".796" transform="rotate(-49 289.881 242.678)"/>
      <path stroke="#1DBCBC" stroke-width="1.821" d="M223.276804,224.325396 L230.488802,234.985396 L216.064806,234.985396 L223.276804,224.325396 Z" transform="scale(1 -1) rotate(44 790.81 0)"/>
      <ellipse cx="249.129" cy="232.284" fill="#1DBCBC" opacity=".796" transform="rotate(-94 249.13 232.284)" rx="5.434" ry="5.433"/>
      <rect width="6.21" height="6.209" x="230.714" y="246.198" fill="#9E7DD8" opacity=".796" transform="rotate(-74 233.819 249.303)"/>
      <rect width="6.21" height="6.209" x="398.575" y="279.469" fill="#9E7DD8" opacity=".796" transform="rotate(-74 401.68 282.574)"/>
      <rect width="6.21" height="6.209" x="159.724" y="200.359" fill="#9E7DD8" opacity=".796" transform="rotate(-74 162.829 203.464)"/>
      <rect width="9.315" height="9.314" x="325.15" y="245.391" fill="#9E7DD8" opacity=".6" transform="scale(-1 1) rotate(36 0 -764.994)"/>
      <ellipse cx="307.225" cy="264.57" fill="#1DBCBC" opacity=".796" transform="rotate(-86 307.225 264.57)" rx="5.434" ry="5.433"/>
      <ellipse cx="270.139" cy="256.553" stroke="#1DBCBC" stroke-width="2.428" opacity=".7" transform="rotate(-86 270.139 256.553)" rx="5.773" ry="5.772"/>
      <polygon fill="#1DBCBC" points="365.239 254.861 371.449 264.176 359.029 264.176" opacity=".8" transform="scale(-1 1) rotate(-84 0 665.157)"/>
      <ellipse cx="420.245" cy="841.921" stroke="#1DBCBC" stroke-width="2.428" opacity=".8" transform="rotate(-94 420.245 841.921)" rx="5.384" ry="5.384"/>
      <ellipse cx="311.898" cy="479.72" fill="#1DBCBC" opacity=".796" transform="rotate(-94 311.898 479.72)" rx="5.434" ry="5.433"/>
      <path stroke="#9E7DD8" stroke-width="1.821" d="M401.935106,306.268953 L409.147104,316.928952 L394.723108,316.928952 L401.935106,306.268953 Z" transform="scale(1 -1) rotate(60 941.022 0)"/>
      <polygon fill="#9E7DD8" points="385.893 1017.609 390.56 1017.609 390.56 1012.44 394.36 1012.44 394.36 1017.609 399.027 1017.609 399.027 1021.102 394.36 1021.102 394.36 1026.271 390.56 1026.271 390.56 1021.102 385.893 1021.102" opacity=".5" transform="rotate(-94 392.46 1019.355)"/>
      <polygon fill="#9E7DD8" points="195.274 1162.364 199.941 1162.364 199.941 1157.194 203.741 1157.194 203.741 1162.364 208.408 1162.364 208.408 1165.856 203.741 1165.856 203.741 1171.026 199.941 1171.026 199.941 1165.856 195.274 1165.856" opacity=".1" transform="rotate(-94 201.841 1164.11)"/>
      <rect width="4.658" height="4.657" x="292.717" y="1163.645" fill="#9E7DD8" opacity=".3" transform="rotate(-64 295.046 1165.974)"/>
      <path stroke="#9E7DD8" stroke-width="1.821" d="M250.596499,1160.0934 L257.808497,1170.7534 L243.3845,1170.7534 L250.596499,1160.0934 Z" opacity=".15" transform="scale(1 -1) rotate(44 3134.237 0)"/>
      <polygon fill="#1DBCBC" points="187.933 1128.769 194.143 1138.083 181.723 1138.083" opacity=".1" transform="scale(-1 1) rotate(-84 0 1342.147)"/>
      <ellipse cx="364.049" cy="1120.365" stroke="#1DBCBC" stroke-width="2.428" opacity=".4" transform="rotate(-94 364.049 1120.365)" rx="5.384" ry="5.384"/>
      <ellipse cx="333.892" cy="1164.119" stroke="#1DBCBC" stroke-width="2.428" opacity=".1" transform="rotate(-94 333.892 1164.119)" rx="5.384" ry="5.384"/>
      <ellipse cx="399.953" cy="938.451" stroke="#1DBCBC" stroke-width="2.428" opacity=".6" transform="scale(-1 1) rotate(-4 0 12391.61)" rx="5.773" ry="5.772"/>
      <rect width="9.641" height="9.64" x="416.255" y="965.84" stroke="#9E7DD8" stroke-width="2.003" opacity=".8" transform="rotate(28 421.076 970.66)"/>
      <polygon fill="#9E7DD8" points="405.339 1144.295 411.55 1153.61 399.129 1153.61" opacity=".3" transform="scale(-1 1) rotate(-84 0 1599.127)"/>
      <polygon fill="#1DBCBC" points="390.387 1056.92 396.598 1066.235 384.177 1066.235" opacity=".4" transform="scale(-1 1) rotate(-84 0 1495.147)"/>
      <rect width="4.658" height="4.657" x="333.234" y="1053.329" fill="#9E7DD8" opacity=".5" transform="rotate(71 335.563 1055.657)"/>
      <rect width="6.21" height="6.209" x="230.547" y="1134.311" fill="#9E7DD8" opacity=".2" transform="rotate(-74 233.652 1137.416)"/>
      <rect width="9.315" height="9.314" x="152.535" y="1153.168" fill="#9E7DD8" opacity=".1" transform="scale(-1 1) rotate(36 0 674.035)"/>
      <ellipse cx="320.818" cy="1134.781" fill="#1DBCBC" opacity=".3" transform="rotate(-94 320.818 1134.781)" rx="5.434" ry="5.433"/>
      <polygon fill="#9E7DD8" points="329.368 1007.583 334.035 1007.583 334.035 1002.413 337.835 1002.413 337.835 1007.583 342.502 1007.583 342.502 1011.075 337.835 1011.075 337.835 1016.245 334.035 1016.245 334.035 1011.075 329.368 1011.075" opacity=".6" transform="scale(-1 1) rotate(-4 0 10629.248)"/>
      <path stroke="#9E7DD8" stroke-width="1.821" d="M299.151967,1085.36981 L306.363966,1096.02981 L291.939969,1096.02981 L299.151967,1085.36981 Z" opacity=".4" transform="scale(1 -1) rotate(60 2187.68 0)"/>
      <ellipse cx="340.548" cy="1096.838" stroke="#1DBCBC" stroke-width="2.428" opacity=".2" transform="rotate(-94 340.548 1096.838)" rx="5.384" ry="5.384"/>
      <ellipse cx="157.226" cy="1110.54" fill="#1DBCBC" opacity=".25" transform="rotate(-94 157.226 1110.54)" rx="5.434" ry="5.433"/>
      <rect width="7.763" height="7.762" x="368.226" y="1159.291" fill="#1DBCBC" opacity=".3" transform="rotate(-46 372.107 1163.172)"/>
      <rect width="9.641" height="9.64" x="211.678" y="1097.702" stroke="#9E7DD8" stroke-width="2.003" opacity=".2" transform="rotate(36 216.499 1102.522)"/>
      <ellipse cx="438.426" cy="1154.036" stroke="#1DBCBC" stroke-width="2.428" opacity=".15" transform="scale(-1 1) rotate(-4 0 13708.903)" rx="7.713" ry="7.712"/>
      <ellipse cx="260.611" cy="1107.614" stroke="#1DBCBC" stroke-width="2.428" opacity=".2" transform="scale(-1 1) rotate(-4 0 8570.53)" rx="7.713" ry="7.712"/>
      <polygon fill="#9E7DD8" points="237.129 1064.485 242.909 1064.485 242.909 1058.129 247.617 1058.129 247.617 1064.485 253.397 1064.485 253.397 1068.779 247.617 1068.779 247.617 1075.134 242.909 1075.134 242.909 1068.779 237.129 1068.779" opacity=".5" transform="rotate(-49 245.263 1066.632)"/>
      <ellipse cx="147.544" cy="131.991" stroke="#1DBCBC" stroke-width="2.428" opacity=".5" transform="rotate(86 147.544 131.99)" rx="5.384" ry="5.384"/>
      <rect width="4.658" height="4.657" x="265.135" y=".401" fill="#1DBCBC" opacity=".1" transform="rotate(79 267.464 2.73)"/>
      <polygon fill="#1DBCBC" points="240.436 24.177 246.646 33.492 234.226 33.492" opacity=".2" transform="scale(1 -1) rotate(-84 208.412 0)"/>
      <polygon fill="#1DBCBC" points="153.177 175.171 159.387 184.486 146.967 184.486" opacity=".7" transform="scale(1 -1) rotate(-84 -46.543 0)"/>
      <rect width="6.21" height="6.209" x="252.158" y="14.044" fill="#9E7DD8" opacity=".15" transform="rotate(106 255.264 17.148)"/>
      <rect width="9.315" height="9.314" x="207.423" y="52.863" fill="#9E7DD8" opacity=".3" transform="scale(1 -1) rotate(36 389.109 0)"/>
      <polygon fill="#9E7DD8" points="128.396 156.376 133.063 156.376 133.063 151.206 136.864 151.206 136.864 156.376 141.531 156.376 141.531 159.868 136.864 159.868 136.864 165.038 133.063 165.038 133.063 159.868 128.396 159.868" opacity=".6" transform="scale(1 -1) rotate(-4 -4393.058 0)"/>
      <path stroke="#9E7DD8" stroke-width="1.821" d="M160.292342,145.792178 L167.50434,156.452178 L153.080344,156.452178 L160.292342,145.792178 Z" opacity=".6" transform="scale(-1 1) rotate(60 0 -126.87)"/>
      <ellipse cx="189.191" cy="87.127" fill="#1DBCBC" opacity=".4" transform="rotate(86 189.19 87.127)" rx="5.434" ry="5.433"/>
      <rect width="9.641" height="9.64" x="200.013" y="68.377" stroke="#9E7DD8" stroke-width="2.003" opacity=".3" transform="rotate(-144 204.834 73.197)"/>
      <path stroke="#9E7DD8" stroke-width="1.548" d="M227.584101,38.4563051 L233.862185,47.4233987 L221.306017,47.4233987 L227.584101,38.4563051 Z" opacity=".2" transform="scale(-1 1) rotate(44 0 -520.638)"/>
      <ellipse cx="169.255" cy="100.467" stroke="#1DBCBC" stroke-width="2.428" opacity=".4" transform="scale(1 -1) rotate(-4 -2707.732 0)" rx="7.713" ry="7.712"/>
      <polygon fill="#9E7DD8" points="166.306 125.646 172.086 125.646 172.086 119.291 176.794 119.291 176.794 125.646 182.574 125.646 182.574 129.941 176.794 129.941 176.794 136.296 172.086 136.296 172.086 129.941 166.306 129.941" opacity=".5" transform="rotate(131 174.44 127.793)"/>
      <ellipse cx="462.395" cy="946.169" stroke="#1DBCBC" stroke-width="2.428" opacity=".6" transform="rotate(-86 462.395 946.169)" rx="5.384" ry="5.384"/>
      <path stroke="#9E7DD8" stroke-width="1.821" d="M438.730282,1021.05458 L445.942281,1031.71458 L431.518284,1031.71458 L438.730282,1021.05458 Z" opacity=".6" transform="scale(1 -1) rotate(68 1959.879 0)"/>
    </g>
  </g>
</svg>
