<svg xmlns="http://www.w3.org/2000/svg" width="320" height="320" xmlns:xlink="http://www.w3.org/1999/xlink"><defs><ellipse id="a" cx="58.944" cy="59.426" rx="58.798" ry="58.775"/><path id="b" d="M67.884 65.185L56.49 71.169l2.176-12.675-9.218-8.977 12.739-1.849 5.697-11.532 5.698 11.532 12.739 1.849-9.218 8.977 2.176 12.675z"/></defs><g fill="none" fill-rule="evenodd" transform="translate(50 38)"><g transform="translate(84.754 126.103)"><use fill="#1DBCBC" xlink:href="#a"/><ellipse cx="58.944" cy="59.426" stroke="#72D3D4" stroke-width="4.744" rx="56.425" ry="56.403"/><ellipse cx="41.17" cy="70.639" fill="#CCEFEF" opacity=".8" rx="16.092" ry="16.086"/><ellipse cx="68.402" cy="79.301" fill="#CCEFEF" opacity=".7" rx="9.903" ry="9.899"/><ellipse cx="65.927" cy="57.028" fill="#FFF" opacity=".6" rx="7.427" ry="7.424"/></g><path fill="#FFF" fill-rule="nonzero" d="M207.855 101.293l-6.207 35.198-2.626-.463c-1.62 5.35-6.511 8.77-12.099 8.462l-2.12 12.024-1.002 5.685-25.17-4.439.809-4.59c-2.729 2.674-6.835 4.204-10.994 3.471-6.347-1.12-10.932-7.112-10.432-13.787l6.785-38.478-6.874 4.423-19.142 3.613c-.773.54-1.725.823-2.678 1.106l.48 47.198.218.039c.734-.322 1.648-.386 2.343-.489 1.648-.386 3.038-.591 4.429-.797 2.561-.45 4.39-.578 4.39-.578s-1.507.861-3.927 1.787c-1.21.463-2.638.887-4.106 1.53-.734.322-1.648.386-2.381.707-.22-.038-.258.18-.477.142.22.038.18.257.4.296.58.553 1.416.926 1.996 1.479 1.197.887 2.356 1.993 3.335 2.842 1.957 1.698 3.078 3.022 3.078 3.022s-1.674-.746-3.927-2.045c-1.237-.668-2.473-1.337-3.89-2.263-.617-.335-1.416-.926-2.034-1.26-.618-.335-1.017-.63-1.635-.965l-.219-.039-.219-.039c-.695.103-1.171.245-1.866.348-.734.321-1.648.385-2.343.488-1.648.386-3.038.592-4.429.797-2.562.45-4.39.579-4.39.579s1.506-.862 3.926-1.788c1.21-.463 2.64-.887 4.107-1.53.733-.321 1.647-.386 2.381-.707.219.039.258-.18.476-.141-.218-.039-.18-.258-.399-.296-.58-.553-1.416-.926-1.996-1.48-1.197-.887-2.356-1.993-3.335-2.842-1.958-1.697-3.078-3.022-3.078-3.022s1.674.746 3.927 2.045c1.236.669 2.473 1.338 3.889 2.264.618.334 1.236.668 1.816 1.222l-.634-46.324-1.532-.27c-1.094-.193-2.111-.823-2.614-1.814-.502-.99-.747-2.16-.554-3.253l2.018-8.887a4.202 4.202 0 0 1 2.586-3.15l-.3-14.932c-3.193 1.466-6.347 2.713-9.68 3.704-3.811 1.131-7.583 2.044-11.278 2.52-1.866.347-3.913.437-5.96.527-2.047.09-3.837 0-5.806-.348-2.009-.129-3.94-.695-5.872-1.26-1.93-.567-3.824-1.351-5.459-2.316-1.635-.964-3.528-1.749-5.163-2.714-1.674-.746-3.528-1.749-5.202-2.495s-3.567-1.53-5.24-2.276c-.838-.373-1.713-.528-2.77-.94-.836-.372-1.711-.527-2.767-.938-.837-.373-1.713-.528-2.807-.72-.876-.155-1.713-.528-2.845-.502l-2.846-.502c-.438-.077-.875-.154-1.352-.013l-1.351-.013c-.438-.077-.914.064-1.352-.013-.476.142-.914.064-1.39.206-.915.064-1.867.347-2.562.45-1.648.385-3.373 1.208-4.879 2.07l-2.278 1.402-.014-2.482.202-13.941.2-13.94.202-13.942.1-6.97c-.051-2.264.154-4.707.32-6.932l.116-.656.515-.36 1.467-.643c.477-.141.992-.501 1.468-.643l1.429-.424 1.429-.424c.952-.283 2.085-.309 3-.373.475-.142.913-.064 1.57.051l1.21-.463.656.116 1.79.09 1.532.27 2.845.502c.876.155 1.932.566 2.807.72.876.155 1.932.566 2.768.94l1.494.488 1.494.489c.837.373 1.892.785 2.73 1.158l2.729 1.157 2.691 1.376c1.893.785 3.528 1.75 5.164 2.714.836.373 1.635.965 2.69 1.376l2.473 1.338c.837.373 1.635.965 2.51 1.12.838.372 1.675.745 2.769.938.876.154 1.931.566 2.807.72l2.845.502c.876.155 2.009.129 2.884.283.914-.064 1.79.09 2.923.065l2.742-.193c.914-.064 1.866-.347 2.78-.411 3.734-.695 7.505-1.608 11.097-2.778 1.686-.604 3.63-1.389 5.316-1.993.953-.283 1.725-.823 2.459-1.144.515-.36.991-.502 1.506-.862l.025-2.7c-.026-1.132.784-1.891 1.917-1.917 1.133-.025 1.893.785 1.92 1.917l-.682 42.26.281 32.96c.876.155 1.713.528 2.55.901l12.935-8.088 8.803-11.523 4.394-24.923a3.982 3.982 0 0 1 4.634-3.241l.875.154c3.098-15.008 17.951-25.012 33.491-22.272 15.54 2.74 26.076 17.221 23.854 32.384l1.094.193a3.982 3.982 0 0 1 3.246 4.63l-4.433 25.142c.954 3.55 1.174 7.42.48 11.356z"/><path fill="#550DB8" fill-rule="nonzero" stroke="#550DB8" stroke-width=".9" d="M161.139 151.215l3.353-19.02-3.353 19.02zm-6.42-100.544c1.003-5.685 3.113-8.694 4.915-9.954 4.98-5.208 18.01-3.587 21.73-2.931l.657.116c12.914 2.277 17.91 7.215 19.572 9.312l.18.257.361.514c1.005 1.981 2.216 5.35 1.214 11.035-2.352 13.336-15.004 22.376-28.355 20.022-13.647-1.955-22.663-14.816-20.273-28.371zm1.752.309c-2.198 12.461 6.097 24.293 18.354 26.455 12.257 2.16 24.098-6.12 26.296-18.582.963-5.466-.068-8.578-.97-9.865l-.36-.514-.18-.257c-1.082-1.544-5.641-6.405-18.336-8.643l-.438-.078c-2.626-.463-15.797-2.56-20.263 2.288-.888 1.196-3.14 3.73-4.103 9.196zm4.081 40.845l21.45 3.782-4.588 26.016-21.668-3.82 4.587-26.017.22.039zm-2.528 24.576l18.167 3.203 3.97-22.518-18.166-3.204-3.97 22.519zm7.243-16.757l10.068 1.775.308-1.749-10.068-1.775-.308 1.75zm-.733 4.154l10.069 1.775.308-1.749-10.068-1.775-.309 1.75zm-.693 3.935l10.068 1.776.308-1.75-10.068-1.775-.308 1.75zm6.992 6.418c-.27 1.53-1.814 2.61-3.346 2.34s-2.614-1.813-2.344-3.343 1.814-2.61 3.346-2.34c1.57.05 2.653 1.594 2.344 3.343zm-1.75-.309c.115-.655-.246-1.17-.902-1.286-.657-.115-1.172.245-1.287.9-.116.656.245 1.17.901 1.287.657.115 1.172-.245 1.287-.9zm38.772-12.55l-6.207 35.2-2.626-.464c-1.62 5.35-6.511 8.77-12.099 8.462l-2.12 12.024-1.002 5.685-25.17-4.439.809-4.59c-2.729 2.674-6.835 4.204-10.994 3.471-6.347-1.12-10.932-7.112-10.432-13.787l6.785-38.478-6.874 4.423-19.142 3.613c-.773.54-1.725.823-2.678 1.106l.48 47.198.218.039c.734-.322 1.648-.386 2.343-.489 1.648-.386 3.038-.591 4.429-.797 2.561-.45 4.39-.578 4.39-.578s-1.507.861-3.927 1.787c-1.21.463-2.638.887-4.106 1.53-.734.322-1.648.386-2.381.707-.22-.038-.258.18-.477.142.22.038.18.257.4.296.58.553 1.416.926 1.996 1.479 1.197.887 2.356 1.993 3.335 2.842 1.957 1.698 3.078 3.022 3.078 3.022s-1.674-.746-3.927-2.045c-1.237-.668-2.473-1.337-3.89-2.263-.617-.335-1.416-.926-2.034-1.26-.618-.335-1.017-.63-1.635-.965l-.219-.039-.219-.039c-.695.103-1.171.245-1.866.348-.734.321-1.648.385-2.343.488-1.648.386-3.038.592-4.429.797-2.562.45-4.39.579-4.39.579s1.506-.862 3.926-1.788c1.21-.463 2.64-.887 4.107-1.53.733-.321 1.647-.386 2.381-.707.219.039.258-.18.476-.141-.218-.039-.18-.258-.399-.296-.58-.553-1.416-.926-1.996-1.48-1.197-.887-2.356-1.993-3.335-2.842-1.958-1.697-3.078-3.022-3.078-3.022s1.674.746 3.927 2.045c1.236.669 2.473 1.338 3.889 2.264.618.334 1.236.668 1.816 1.222l-.634-46.324-1.532-.27c-1.094-.193-2.111-.823-2.614-1.814-.502-.99-.747-2.16-.554-3.253l2.018-8.887a4.202 4.202 0 0 1 2.586-3.15l-.3-14.932c-3.193 1.466-6.347 2.713-9.68 3.704-3.811 1.131-7.583 2.044-11.278 2.52-1.866.347-3.913.437-5.96.527-2.047.09-3.837 0-5.806-.348-2.009-.129-3.94-.695-5.872-1.26-1.93-.567-3.824-1.351-5.459-2.316-1.635-.964-3.528-1.749-5.163-2.714-1.674-.746-3.528-1.749-5.202-2.495s-3.567-1.53-5.24-2.276c-.838-.373-1.713-.528-2.77-.94-.836-.372-1.711-.527-2.767-.938-.837-.373-1.713-.528-2.807-.72-.876-.155-1.713-.528-2.845-.502l-2.846-.502c-.438-.077-.875-.154-1.352-.013l-1.351-.013c-.438-.077-.914.064-1.352-.013-.476.142-.914.064-1.39.206-.915.064-1.867.347-2.562.45-1.648.385-3.373 1.208-4.879 2.07l-2.278 1.402-.014-2.482.202-13.941.2-13.94.202-13.942.1-6.97c-.051-2.264.154-4.707.32-6.932l.116-.656.515-.36 1.467-.643c.477-.141.992-.501 1.468-.643l1.429-.424 1.429-.424c.952-.283 2.085-.309 3-.373.475-.142.913-.064 1.57.051l1.21-.463.656.116 1.79.09 1.532.27 2.845.502c.876.155 1.932.566 2.807.72.876.155 1.932.566 2.768.94l1.494.488 1.494.489c.837.373 1.892.785 2.73 1.158l2.729 1.157 2.691 1.376c1.893.785 3.528 1.75 5.164 2.714.836.373 1.635.965 2.69 1.376l2.473 1.338c.837.373 1.635.965 2.51 1.12.838.372 1.675.745 2.769.938.876.154 1.931.566 2.807.72l2.845.502c.876.155 2.009.129 2.884.283.914-.064 1.79.09 2.923.065l2.742-.193c.914-.064 1.866-.347 2.78-.411 3.734-.695 7.505-1.608 11.097-2.778 1.686-.604 3.63-1.389 5.316-1.993.953-.283 1.725-.823 2.459-1.144.515-.36.991-.502 1.506-.862l.025-2.7c-.026-1.132.784-1.891 1.917-1.917 1.133-.025 1.893.785 1.92 1.917l-.682 42.26.281 32.96c.876.155 1.713.528 2.55.901l12.935-8.088 8.803-11.523 4.394-24.923a3.982 3.982 0 0 1 4.634-3.241l.875.154c3.098-15.008 17.951-25.012 33.491-22.272 15.54 2.74 26.076 17.221 23.854 32.384l1.094.193a3.982 3.982 0 0 1 3.246 4.63l-4.433 25.142c.954 3.55 1.174 7.42.48 11.356zm-.85-38.697c-1.363 5.17-3.962 9.671-7.758 13.285 2.46 2.688 4.662 5.556 6.13 8.745l3.586-20.332c.115-.656-.426-1.428-1.082-1.543l-.876-.155zm-54.41-11.397c-2.467 13.992 7.129 27.406 21.575 29.953 14.445 2.547 28.05-6.776 30.517-20.768 2.467-13.992-7.128-27.406-21.574-29.953-14.227-2.509-28.05 6.776-30.517 20.768zm-8.978 22.763c2.471-2.495 5.303-4.476 8.752-6.122-2.113-4.655-3.234-9.812-2.747-15.137l-.875-.154c-.657-.116-1.43.424-1.545 1.08l-3.585 20.333zm-23.755 32.33c.797-3.241-1.367-6.328-4.611-7.125l-1.313-.232c-.876-.154-1.648.386-1.764 1.042l-2.018 8.886c-.077.437.103.695.245 1.17.18.258.58.554.798.592l.876.155.437.077.22.038.218.039.22.039c.437.077.913-.065 1.35.012.477-.141.696-.102 1.172-.244 2.42-.926 3.823-2.482 4.17-4.45zm63.934 40.578l1.927-10.931c.23-5.145-3.454-9.852-8.488-10.74-5.034-.887-10.105 2.276-11.648 7.19l-1.966 11.149c2.767-2.893 6.834-4.205 10.993-3.472 4.159.734 7.314 3.319 9.182 6.804zm-9.645-4.18c-5.034-.888-9.886 2.314-11.43 7.227l19.7 3.473c.448-5.105-3.017-9.774-8.27-10.7zm7.987 13.58l-19.918-3.511-.54 3.06 19.918 3.513.54-3.061zm13.962-20.305l-7.442-1.312-1.31 7.433c3.836 0 7.44-2.52 8.752-6.121zm9.129-35.135c1.464-8.307-1.564-16.731-7.681-22.995-6.332 5.196-14.867 7.523-23.622 5.98-8.755-1.544-15.94-6.869-20.153-13.698-4.222 2.186-7.864 4.925-10.528 8.513l-10.758 13.657-11.83 6.931c1.881 2.135 2.732 4.99 2.23 7.833-.23 1.311-.861 2.327-1.453 3.125l16.078-4.153 8.238-5.762 2.626.464-7.131 40.446-.347 1.967c-.23 5.144 3.234 9.813 8.268 10.7 5.035.888 9.887-2.314 11.43-7.226l2.583-14.648c1.813-6.443 8.172-10.507 14.519-9.388 4.159.733 7.314 3.319 9.143 7.022l3.893-22.08 2.627.462-4.163 23.612 10.287 1.814 5.744-32.576z"/><path fill="#CCEFEF" d="M174.425 74.58c11.187 3.15 22.178-5.475 24.191-14.449.841-3.748 1.09-7.125.007-9.946-1.082-2.82-10.09-6.53-16.706-8.058-6.926-1.6-17.775-1.383-19.961 1.432-1.795 2.78-2.199 4.197-2.846 7.494-2.086 10.631 5.274 21.209 15.315 23.527z"/><path stroke="#72D3D4" stroke-width="1.908" d="M176.082 72.095c5.026 1.146 15.01-1.292 19.56-11.456" stroke-linecap="round"/><use fill="#FFF" xlink:href="#b"/><path stroke="#FFBD8F" stroke-width="3.6" d="M58.881 67.88l1.56-9.082.16-.933-.679-.66-6.603-6.43 9.127-1.326.936-.136.42-.848 4.082-8.265 4.084 8.265.419.848.936.136 9.127 1.325-6.603 6.43-.679.661.16.933 1.56 9.082-8.167-4.289-.837-.44-.836.44-8.167 4.289z"/></g></svg>