<svg xmlns="http://www.w3.org/2000/svg" width="320" height="320" xmlns:xlink="http://www.w3.org/1999/xlink"><defs><ellipse id="a" cx="45.47" cy="45.63" rx="45.47" ry="45.63"/></defs><g fill="none" fill-rule="evenodd"><g transform="rotate(15 -624.258 535.345)"><use fill="#1DBCBC" xlink:href="#a"/><ellipse cx="45.47" cy="45.63" stroke="#72D3D4" stroke-width="3.686" rx="43.627" ry="43.787"/><ellipse cx="40.684" cy="40.827" fill="#CCEFEF" rx="33.026" ry="33.142"/><ellipse cx="26.803" cy="27.858" fill="#FFF" opacity=".6" rx="8.615" ry="8.646"/></g><path fill="#FFF" d="M210.162 127.757c2.324.57 3.747 3.019 3.341 5.581l-2.739 9.67c-.735 2.106-2.752 3.403-4.91 3.06l-.393-.061c-.361-.26-.754-.322-.95-.353l-3.029 19.12c-.062.395-.29.561-.517.727-.228.166-.424.135-.62.104l-.196-.031-13.6-5.59-3.654 23.064-.062.394-1.249 7.885-22.767-3.606-2.551-.404-22.767-3.606.905-5.717 3.622-22.866-15.626 3.385-.392-.062c-.197-.03-.393-.062-.558-.29-.165-.228-.33-.457-.268-.85l3.84-24.246c-2.158-.342-3.675-2.2-3.528-4.399l.384-10.042c-.018-2.428 2.092-4.316 4.478-4.14 0 0 1.013-.042 1.405.02l1.842-11.63c.063-.394.321-.757.745-.892l3.555-.852c.674-1.712 1.481-2.998 2.32-4.482l3.996-25.231c.343-2.168 2.39-3.663 4.55-3.32l.785.124c2.827-15.314 17.748-25.68 33.45-23.194 15.897 2.518 26.687 16.957 24.84 32.426l.786.124c2.159.342 3.644 2.396 3.3 4.564l-3.933 24.838 5.308 2.053c.393.062.692.715.63 1.11l-2.686 16.952.393.062.981.155c.196.032 1.539.446 1.539.446z"/><path fill="#550DB8" fill-rule="nonzero" stroke="#550DB8" stroke-width=".96" d="M190.856 123.891c-.557-.29-.918-.55-1.083-.778a1.528 1.528 0 0 1-.237-1.047c.063-.395.321-.758.549-.924.227-.166.651-.3 1.271-.405l-.5 3.154zm1.482 5.893c-.455.332-.88.467-1.5.57l.594-3.745c.558.29.919.55 1.249 1.006.361.26.299.654.205 1.245.165.228-.094.592-.548.924zm-21.64-32.323c13.543 2.145 26.086-7.184 28.24-20.785.906-5.717-.134-9.316-1.258-11.11-2.957-6.733-15.849-9.18-19.774-9.8l-.589-.094c-13.15-2.083-19.497 1.155-21.544 2.65l-.228.165c-.455.333-.486.53-.486.53-1.655 1.556-3.725 4.461-4.661 10.375-2.092 13.207 6.954 25.955 20.3 28.07zm-14.39-37.438l.455-.332.227-.166c1.562-.966 7.516-4.266 20.274-2.245l.589.093c2.551.404 15.866 2.715 18.525 8.794.794 1.338 1.896 4.544 1.021 10.063-1.998 12.616-13.63 21.28-26.192 19.291-12.592-1.792-20.978-13.628-18.98-26.244.874-5.519 2.912-8.227 4.081-9.254zm53.854 67.734s-1.343-.414-1.539-.446l-.981-.155-.393-.062 2.685-16.952c.063-.395-.236-1.048-.629-1.11l-5.308-2.053 3.934-24.838c.343-2.168-1.142-4.222-3.301-4.564l-.785-.124c1.846-15.469-8.944-29.908-24.842-32.426-15.701-2.487-30.622 7.88-33.45 23.194l-.784-.125c-2.16-.342-4.207 1.153-4.55 3.32l-3.996 25.232c-.839 1.484-1.646 2.77-2.32 4.482l-3.555.852a1.098 1.098 0 0 0-.745.892l-1.842 11.63c-.392-.062-1.405-.02-1.405-.02-2.386-.176-4.496 1.712-4.478 4.14l-.384 10.042c-.147 2.2 1.37 4.057 3.529 4.399l-3.84 24.245c-.063.394.102.623.267.85.165.23.361.26.558.291l.392.062 15.626-3.385-3.622 22.866-.905 5.717 22.767 3.606 2.551.404 22.767 3.606 1.249-7.885.062-.394 3.653-23.063 13.6 5.589.197.031c.196.031.392.062.62-.104.227-.166.455-.332.517-.726l3.029-19.12c.196.03.589.092.95.352l.392.062c2.16.342 4.176-.955 4.911-3.061l2.74-9.67c.405-2.562-1.018-5.01-3.342-5.58zm-4.979-46.05l-3.278 20.697c-1.526-3.07-3.671-6.037-6.272-8.672 3.6-3.673 6.343-8.29 7.579-13.55l.98.155c.59.093 1.085.778.991 1.37zm-26.617-33.92c14.524 2.3 24.458 15.796 22.21 29.988-2.248 14.193-15.866 23.958-30.39 21.657-14.492-2.497-24.457-15.795-22.21-29.988 2.248-14.192 15.866-23.957 30.39-21.657zm-35.6 24.065c.125-.788.808-1.286 1.593-1.162l.981.155c-.45 5.385.536 10.592 2.824 15.198-3.287 1.702-6.245 3.86-8.644 6.31l3.247-20.5zm6.625 16.608c4.331 6.95 11.754 12.167 20.586 13.566 8.832 1.399 17.307-1.3 23.574-6.571 2.962 2.893 5.241 6.285 6.508 9.72l-7.57-3.018-.196-.031-.392-.063-22.138 6.395-17.758-11.097-.393-.062-.392-.062-14.19 3.208c2.414-5.073 6.892-9.214 12.36-11.985zm-25.875 40.154l.383-10.042c-.04-1.017.901-1.878 2.11-1.889 0 0 1.405.02 1.601.052l.785.124c3.533.56 5.875 3.557 5.705 7.168-.138 3.413-2.796 6.225-6.061 6.516-.393-.062-1.602-.052-2.614-.01-1.21.01-2.066-.933-1.91-1.919zm32.594 55.88l-20.02-3.17.5-3.154 20.02 3.17-.5 3.155zm-19.082-9.083c1.4-5.032 6.374-8.488 11.477-7.68 5.103.808 8.796 5.435 8.542 10.85l-20.02-3.17zm11.882-10.242c-4.121-.653-7.966.759-10.82 3.54l2.278-14.39 2.088-.478 17.035 10.579-1.218 7.687c-1.659-3.495-5.045-6.254-9.363-6.938zm11.687 7.509l1.218-7.688 21.683-6.063-2.623 16.558c-1.855-3.527-5.076-6.058-9.198-6.71-4.317-.684-8.39.893-11.08 3.903zm19.217 9.51l-20.02-3.172c1.401-5.031 6.375-8.487 11.478-7.679 5.071 1.006 8.765 5.632 8.542 10.85zm-.937 5.913l-20.02-3.17.5-3.155 20.02 3.17-.5 3.155zm20.3-25.276l-15.108-6.232-.59-.094-22.106 6.198-17.758-11.097-.392-.062-.393-.062-19.573 4.174 3.56-22.472c1.012-.041 1.405.02 1.6.052 4.506-.499 7.91-4.203 8.235-8.8.098-4.43-2.708-8.309-6.963-9.387l1.748-11.038 4.372-.925c.196.031 15.625-3.385 15.625-3.385l17.954 11.129.393.062.392.062 22.303-6.167 15.305 6.264-2.623 16.558c-3.689.426-6.905 2.947-7.922 6.827-1.307 4.441.982 9.047 5.112 10.913l-2.779 17.544-.392-.062zm11.44-30.316l-2.738 9.67c-.352.954-1.23 1.42-2.016 1.296l-.196-.03c-.95-.353-2.097-.737-2.49-.8-2.983-1.482-4.674-4.78-3.75-8.07.985-3.683 4.759-5.914 8.394-4.732.196.031 1.539.446 1.539.446.981.155 1.61 1.265 1.258 2.22z"/><path fill="#FFBD8F" fill-rule="nonzero" stroke="#FFBD8F" stroke-width=".96" d="M194.559 125.892c-.33-.457-.692-.716-1.053-.975-.361-.26-.919-.55-1.673-.871l.562-3.548c.754.321 1.053.975 1.155 1.597.103.622.433 1.079 1.022 1.172.392.062.62-.104.847-.27.228-.166.455-.332.518-.726.031-.197.094-.591-.072-.82-.133-.425-.298-.653-.432-1.079-.33-.456-.692-.715-1.053-.975-.361-.259-.919-.55-1.508-.642l.219-1.38c.062-.395-.071-.82-.464-.882-.393-.062-.62.104-.714.695l-.187 1.183c-1.209.01-2.221.052-2.935.747a3.312 3.312 0 0 0-1.356 2.21c-.125.789-.022 1.411.111 1.837l.99 1.369c.558.29 1.085.778 1.839 1.1l-.625 3.942c-.361-.26-.754-.322-.919-.55l-.495-.685c-.165-.228-.102-.622-.236-1.047.03-.197-.134-.426-.3-.654-.164-.228-.36-.26-.557-.29-.392-.062-.62.104-.847.27-.228.166-.455.332-.518.726-.062.394-.125.788.01 1.214.133.425.267.85.597 1.307.33.456.691.715 1.021 1.172.558.29 1.116.58 1.704.674l-.25 1.577c-.03.197-.062.394.103.622-.03.197.165.229.362.26.196.03.392.062.423-.135.032-.197.26-.364.322-.758l.218-1.38c.785.125 1.601.052 2.253-.249a4.653 4.653 0 0 0 1.592-1.162c.486-.53.58-1.12.674-1.712.093-.592.156-.986.022-1.411.094-.591-.04-1.017-.37-1.473zm-53.322 8.932c-.776 1.09-1.294 1.816-1.325 2.013-.486.53-1.137.83-1.726.737-.197-.031-.59-.093-.754-.322-.723-.518-.96-1.566-.41-2.49 0 0 .548-.923 1.52-1.981.518-.727 1.758-.934 2.45-.219.753.322.958 1.567.245 2.262zm6.499-9.276c.691.716.504 1.898-.179 2.397-.486.529-.972 1.058-1.655 1.556-.455.332-.91.664-1.498.571a1.514 1.514 0 0 1-.92-.55c-.69-.715-.73-1.732-.017-2.427.682-.498 1.2-1.225 1.882-1.723.683-.498 1.695-.54 2.387.176zm9.505-.313c.464.882.112 1.836-.767 2.303-.424.135-.651.301-1.044.24-.589-.094-.95-.353-1.249-1.007l-.165-.228c-.464-.882-1.021-1.172-1.414-1.234l-.392-.063c-1.013.042-1.704-.674-1.744-1.69-.04-1.017.673-1.712 1.686-1.754l.98.155c1.179.187 2.686.83 3.944 3.05l.165.228zm4.162 10.56c.464.882-.085 1.806-.963 2.273-.228.166-.62.103-1.013.041-.589-.093-1.146-.383-1.249-1.006-.598-1.307-1.164-2.811-1.73-4.315-.268-.85.115-2.003.963-2.272.847-.27 1.994.113 2.261.964.732 1.732 1.133 3.008 1.731 4.315zm16.598 4.448c-1.2 1.224-2.565 2.22-3.702 3.05-.455.333-.848.27-1.24.208-.393-.062-.95-.352-1.084-.778-.495-.684-.308-1.867.375-2.365.91-.664 2.078-1.691 3.247-2.719.713-.695 1.726-.737 2.417-.02.66.912.7 1.929-.013 2.624zm-9.086 4.016c-.156.986-.87 1.681-1.851 1.526l-.589-.093c-1.57-.25-3.047-1.09-4.46-2.323-.692-.716-.732-1.733-.019-2.428.714-.695 1.727-.737 2.418-.021.857.944 1.807 1.296 2.788 1.452.981.155 1.838 1.099 1.713 1.887zm15.21-10.927c-.486.53-1.003 1.256-1.49 1.785-.486.53-1.106.633-1.498.57-.393-.061-.589-.092-.754-.32-.723-.52-.732-1.733-.214-2.46.486-.528 1.003-1.255 1.49-1.784.517-.726 1.757-.934 2.449-.218.526.487.535 1.701.017 2.427z"/><path fill="#CCEFEF" d="M171.29 92.912c11.34 2.567 21.887-6.722 23.443-15.875.65-3.823.726-7.24-.499-10.024-1.225-2.783-10.416-6.032-17.106-7.212-7.004-1.235-17.835-.427-19.877 2.528-1.652 2.899-1.984 4.349-2.463 7.707-1.545 10.827 6.349 21.086 16.502 22.876z"/><path stroke="#72D3D4" stroke-width="1.92" d="M169.707 89.797c4.746 1.893 14.894 1.083 20.904-8.063" stroke-linecap="round"/></g></svg>