<svg xmlns="http://www.w3.org/2000/svg" width="300" height="690" viewBox="0 0 300 690" xmlns:xlink="http://www.w3.org/1999/xlink">
  <defs>
    <path id="a" d="M147.632915,349.651876 C147.991048,347.463925 148.296763,345.307548 148.537109,343.20783 C151.344927,318.678105 152.445312,278 152.445312,278 L163.498047,278 C163.498047,278 165.900536,320.634835 168.484375,343.20783 C171.068214,365.780826 183,400 183,400 L134,400 C134,400 143.170184,374.776604 147.234913,351.978015 C146.350027,356.196595 144.784142,359 143,359 C140.238576,359 138,352.284271 138,344 C138,335.715729 140.238576,329 143,329 C145.761424,329 148,335.715729 148,344 C148,345.999454 147.869597,347.907536 147.632915,349.65188 Z M116.066977,392 L120.418063,392 L120,404.710938 L125.460316,404.710938 L125.009842,392 L130,392 L126.776581,346 L101.223419,346 L98,392 L103.418063,392 L103,404.710938 L108.460316,404.710938 L108.009842,392 L112.253613,392 L112,399.710938 L116.340251,399.710938 L116.066977,392 Z M175,359 C172.238576,359 170,352.284271 170,344 C170,335.715729 172.238576,329 175,329 C177.761424,329 180,335.715729 180,344 C180,352.284271 177.761424,359 175,359 Z M190.223419,346 L215.776581,346 L219,404.710938 L187,404.710938 L190.223419,346 Z"/>
    <path id="b" d="M24.9039285,6.45218189 C25.8584222,5.09787923 29.0294199,4 32.0014004,4 L32.9992059,4 C35.9702362,4 39.1446506,5.10140327 40.09668,6.45218189 L46.9092345,15.5962678 C48.6563428,17.4760972 48.2785726,19 45.963357,19 L19.037261,19 C16.7241165,19 16.3413283,17.4791725 18.0913813,15.5962678 L24.9039285,6.45218189 Z"/>
    <path id="c" d="M54.4796496,208 L72.425587,208 C72.425587,208 77.1720954,213.507714 75.7258253,224.327159 C72.2550201,227.786892 56.5665721,227.993506 51.1871351,224.327159 C50.0482779,213.335425 54.4796496,208 54.4796496,208 Z"/>
    <path id="d" d="M79.4796496,208 L97.425587,208 C97.425587,208 102.172095,213.507714 100.725825,224.327159 C97.2550201,227.786892 81.5665721,227.993506 76.1871351,224.327159 C75.0482779,213.335425 79.4796496,208 79.4796496,208 Z"/>
    <path id="e" d="M66.5068059,212 L84.5927993,212 C84.5927993,212 89.3763511,217.507714 87.9187938,228.327159 C84.4209012,231.786892 68.6100155,231.993506 63.1885956,228.327159 C62.0408503,217.335425 66.5068059,212 66.5068059,212 Z"/>
    <path id="f" d="M69.8741359,2.77913948 C70.6438889,1.24426313 73.2011451,-7.38964445e-12 75.5979035,-7.38964445e-12 L76.4025854,-7.38964445e-12 C78.7985776,-7.38964445e-12 81.3585892,1.24825704 82.1263549,2.77913948 L87.6203504,13.1424369 C89.0293087,15.2729102 88.7246553,17 86.857546,17 L65.1429524,17 C63.2775133,17 62.9688132,15.2763955 64.3801462,13.1424369 L69.8741359,2.77913948 Z"/>
  </defs>
  <g fill="none" fill-rule="evenodd" transform="translate(0 4)">
    <path fill="#FFFFFF" d="M152.445312,278 L163.498047,278 C163.498047,278 165.900536,320.634835 168.484375,343.20783 C171.068214,365.780826 183,400 183,400 L134,400 C134,400 145.729292,367.737555 148.537109,343.20783 C151.344927,318.678105 152.445312,278 152.445312,278 Z"/>
    <path fill="#FFBD8F" d="M152.445312,278 L163.498047,278 C163.498047,278 165.900536,320.634835 168.484375,343.20783 C171.068214,365.780826 183,400 183,400 L134,400 C134,400 145.729292,367.737555 148.537109,343.20783 C151.344927,318.678105 152.445312,278 152.445312,278 Z" opacity=".5"/>
    <path fill="#FFFFFF" d="M153.680963,290 L162.478037,290 C162.478037,290 164.390223,328.441244 166.446747,348.793945 C168.503272,369.146646 178,400 178,400 L139,400 C139,400 148.335559,370.910911 150.570352,348.793945 C152.805146,326.67698 153.680963,290 153.680963,290 Z"/>
    <g opacity=".5" stroke-linecap="round" stroke-linejoin="round">
      <use fill="#FFFFFF" xlink:href="#a"/>
      <path stroke="#FFFFFF" stroke-width="4" d="M147.710835,330.906605 C146.545583,328.467015 144.957937,327 143,327 C138.538774,327 136,334.616322 136,344 C136,353.383678 138.538774,361 143,361 C143.121764,361 143.241845,360.994728 143.360254,360.984282 C142.298354,365.673516 141.046819,370.557505 139.642206,375.564157 C137.995616,381.433322 136.230811,387.14934 134.46622,392.481707 C133.848873,394.34725 133.27585,396.031018 132.761949,397.504296 C132.582407,398.019016 132.423184,398.470378 132.28613,398.854795 C132.204397,399.084041 132.148526,399.239186 132.120366,399.316643 L131.144808,402 L134,402 L183,402 L185.81547,402 L184.888488,399.341508 C184.860282,399.260614 184.804604,399.099657 184.723289,398.862591 C184.587112,398.46558 184.42896,398.000357 184.250665,397.470877 C183.740539,395.955958 183.171812,394.231388 182.559155,392.328835 C180.80827,386.891608 179.05728,381.121346 177.423642,375.27219 C176.088313,370.491114 174.88913,365.859081 173.860061,361.450295 C172.234293,354.485105 171.075988,348.262201 170.4714,342.980384 C169.714077,336.364244 168.926033,327.622641 168.126555,317.276635 C167.460827,308.661463 166.82465,299.428737 166.239969,290.195704 C166.035315,286.963903 165.851724,283.963017 165.691928,281.270107 C165.636011,280.327772 165.587065,279.491311 165.545433,278.770353 C165.520472,278.338094 165.503507,278.040593 165.494879,277.887478 L165.388519,276 L163.498047,276 L152.445312,276 L150.498683,276 L150.446044,277.945918 C150.441683,278.107112 150.432812,278.420948 150.419321,278.877243 C150.396807,279.63869 150.369457,280.52224 150.337163,281.517709 C150.244862,284.362857 150.131482,287.533553 149.996159,290.948289 C149.609574,300.703443 149.124856,310.458043 148.535277,319.558653 C148.274991,323.576374 148.000245,327.368663 147.710835,330.906605 Z M118.097589,401.710938 L118.001081,404.645193 L117.933138,406.710938 L120,406.710938 L125.460316,406.710938 L127.532451,406.710938 L127.459061,404.640102 L127.081978,394 L130,394 L132.145053,394 L131.995108,391.860194 L128.771689,345.860194 L128.641337,344 L126.776581,344 L101.223419,344 L99.3586629,344 L99.228311,345.860194 L96.0048924,391.860194 L95.854947,394 L98,394 L101.351202,394 L101.001081,404.645193 L100.933138,406.710938 L103,406.710938 L108.460316,406.710938 L110.532451,406.710938 L110.459061,404.640102 L110.355252,401.710938 L112,401.710938 L116.340251,401.710938 L118.097589,401.710938 Z M175,361 C179.461226,361 182,353.383678 182,344 C182,334.616322 179.461226,327 175,327 C170.538774,327 168,334.616322 168,344 C168,353.383678 170.538774,361 175,361 Z M190.223419,344 L188.330213,344 L188.226426,345.890359 L185.003008,404.601296 L184.887181,406.710938 L187,406.710938 L219,406.710938 L221.112819,406.710938 L220.996992,404.601296 L217.773574,345.890359 L217.669787,344 L215.776581,344 L190.223419,344 Z"/>
    </g>
    <g fill="#FFFFFF" stroke="#FFFFFF" opacity=".5" transform="translate(83)" stroke-linecap="round" stroke-linejoin="round">
      <path stroke-width="8" d="M91.3920461,18.7008284 C94.8616591,23.9424515 107.620788,46.2294558 107.99174,91 L108,91 L108,206.045898 L104,206.045898 L104,94.064648 L74,94.064648 L74,93 C60.060404,93 46.6288877,93 44.3414221,93 L48,206.045898 L44,206.045898 L44,91 L44.0851821,91 C44.4840654,45.902537 58.2918917,22.7195635 61.1957794,18.3367615 C60.7613976,17.7174535 61.045526,16.7215171 62.0913813,15.5962678 L68.9039285,6.45218189 C69.8584222,5.09787923 73.0294199,4 76.0014004,4 L76.9992059,4 C79.9702362,4 83.1446506,5.10140327 84.09668,6.45218189 L90.9092345,15.5962678 C92.1934723,16.9780642 92.3295952,18.1675463 91.3920461,18.7008284 Z"/>
      <path stroke-width="8" d="M74,92 L105,92 L105,207.045898 L74,207.045898 L74,92 Z M52,92 L74,92 L74,207.045898 L52,207.045898 L52,92 Z M48,92 L52,92 L52,207.045898 L48,207.045898 L48,92 Z M61.7283329,12.5654489 C69.6314437,-3.22836896 83.0029799,-3.51094626 90.5286605,12.4714083 C90.5286605,12.4714083 108,34.7256489 108,88 C108,88 41.4388873,88 44.0763617,88 C44.0763617,36.2029246 61.7283329,12.5654489 61.7283329,12.5654489 Z"/>
      <path stroke-width="8" d="M44 91.33803L39.8417342 78.7217578C38.8589942 75.569941 35.5821793 73 32.5153093 73L31.4853165 73C28.4174657 73 25.1441777 75.5617182 24.158894 78.7217578L17.1265871 100.057958C16.3577338 101.927818 15.9876802 103.644645 16.0003127 105L16 329.056419 11.4569879 342.227149C10.7392955 344.307824 11.943294 346 14.1485151 346L49.8514849 346C52.050289 346 53.2617438 344.310837 52.5430121 342.227149L48 329.056419 48 104.932166C48 104.93215 48 104.932133 48 104.932117L48 86.8964844 44 86.8964844 44 91.33803zM135.999683 105C136.012407 103.643688 135.642179 101.926152 134.874049 100.057958L127.841734 78.7217578C126.858994 75.569941 123.582179 73 120.515309 73L119.485317 73C116.417466 73 113.144178 75.5617182 112.158894 78.7217578L108 91.3399495 108 86.8964844 104 86.8964844 104 104.932623C104 104.93263 104 104.932648 104 104.932665L104 329.056419 99.4569879 342.227149C98.7392955 344.307824 99.943294 346 102.148515 346L137.851485 346C140.050289 346 141.261744 344.310837 140.543012 342.227149L136 329.056419 136 105z"/>
      <path stroke-width="10" d="M87.4811297,126.117772 L86.8728027,117.310303 L92.1408374,143 L94,143 L94,149.91606 L94,147.526367 C94,147.526367 106.949613,220.53449 110.853516,229.104492 C111.102121,229.65024 111.266404,230.3385 111.356095,231.148908 C112.051185,232.243474 112.797431,233.228826 113.534751,233.990317 L147.976144,269.560779 C149.89594,271.54351 151.456543,275.392774 151.456543,278.15287 L151.456543,286.377965 C151.456543,288.030289 150.13814,289.627901 148.511807,289.944689 L124,294.719262 L124,296 L120,296 L120,295.498409 L101.232429,299.154081 C101.33154,302.449513 101.190648,306.065466 100.711082,310 C100.310719,310.437678 99.8294978,310.851744 99.2759705,311.241941 C100.420157,313.939916 101.529774,318.312877 100.725825,324.327159 C98.8639745,326.18307 93.4863843,327.102866 88.070342,326.990867 C88.0303089,327.426901 87.9800659,327.872336 87.9187938,328.327159 C86.3411945,329.887547 82.2589618,330.786207 77.7548771,330.966271 C77.2250557,332.909358 76.6295101,334 76,334 C75.370047,334 74.7741062,332.907822 74.2440046,330.962168 C69.8394623,330.777682 65.5382578,329.916166 63.1885956,328.327159 C63.1410753,327.872066 63.1031781,327.426669 63.0741887,326.990946 C58.3925444,326.894555 53.6815535,326.027226 51.1871351,324.327159 C50.5361239,318.043894 51.7052804,313.608924 52.8263888,310.962312 C52.3094746,310.65618 51.825011,310.335442 51.3762338,310 C51.0052952,306.073656 50.9282813,302.474642 51.0596927,299.19995 L32,295.487376 L32,296 L28,296 L28,294.708229 L3.54483366,289.944689 C1.91850087,289.627901 0.600097656,288.030289 0.600097656,286.377965 L0.600097656,278.15287 C0.600097656,275.392774 2.16070051,271.54351 4.08049697,269.560779 L38.5218898,233.990317 C39.7981397,232.672229 41.1020953,230.681601 42.1212584,228.616284 C42.8702509,226.708477 43.894731,222.827893 45.0702151,217.752417 L55.7386809,164.22376 C56.6818042,159.110093 57.4657988,154.787387 58,151.822194 L58,143 L59.9686575,143 L65.1003418,117.251953 L64.4884372,126.173252 L66.9077062,117 L65.1429524,117 C63.2775133,117 62.9688132,115.276396 64.3801462,113.142437 L69.8741359,102.779139 C70.6438889,101.244263 73.2011451,100 75.5979035,100 L76.4025854,100 C78.7985776,100 81.3585892,101.248257 82.1263549,102.779139 L87.6203504,113.142437 C89.0293087,115.27291 88.7246553,117 86.857546,117 L85.0833331,117 L87.4811297,126.117772 Z M97.8779454,281.361352 C98.0124552,281.714651 98.1465736,282.080598 98.279543,282.459179 L98.1538092,280.638782 C98.0025301,281.037397 97.9073784,281.284944 97.8779454,281.361352 Z M54.0013391,282.386719 L53.7738836,282.386719 L53.7135544,283.266292 C53.808766,282.965719 53.904795,282.672532 54.0013391,282.386719 Z"/>
    </g>
    <g transform="translate(83)">
      <g transform="translate(44)">
        <rect width="31" height="115.046" x="30" y="92" fill="#F27E2D"/>
        <rect width="22" height="115.046" x="8" y="92" fill="#FFBD8F"/>
        <rect width="4" height="115.046" x="4" y="92" fill="#F6E5D3"/>
        <rect width="56" height="4" x="4" y="62" fill="#4E5F60"/>
        <rect width="60" height="4" x="1" y="137" fill="#4E5F60"/>
        <polyline fill="#4E5F60" points="4 91 4 206.046 0 206.046 0 91"/>
        <polyline fill="#4E5F60" points="64 91 64 206.046 60 206.046 60 91"/>
        <path fill="#F6E5D3" d="M17.7283329,17.5654489 C25.6314437,1.77163104 39.0029799,1.48905374 46.5286605,17.4714083 C46.5286605,17.4714083 64,39.7256489 64,93 C64,93 -2.56111269,93 0.0763616507,93 C0.0763616507,41.2029246 17.7283329,17.5654489 17.7283329,17.5654489 Z"/>
        <path fill="#FFBD8F" d="M25.2515924,17.4888405 C31.857635,4.23207963 41.505435,4.711708 46.3049559,18.7307851 C46.3049559,18.7307851 59.0742187,46.0029297 61.6621094,93 C61.6621094,93 5.43888731,93 8.07636165,93 C8.07636165,41.2029246 25.2515924,17.4888405 25.2515924,17.4888405 Z"/>
        <path fill="#F27E2D" d="M30,14.9555478 C30,5.61124861 34.8276258,3.86248583 40.1183499,11.5455185 C40.1183499,11.5455185 62.0771905,30.804397 63.8189758,94.064648 L30,94.064648 L30,14.9555478 Z"/>
        <path stroke="#4E5F60" stroke-width="4" d="M61.9918391,86 C61.749673,86 61.4699915,86 61.1451035,86 C58.035354,86 58.035354,86 53.6410367,86 C43.3232839,86 43.3232839,86 31.0491279,86 C18.8573931,86 18.8573931,86 8.95174566,86 C4.8348635,86 4.82531902,86 2.08498487,86 C2.27362876,64.4502452 5.50902208,46.3395913 10.786306,31.5301628 C12.6811276,26.2128015 14.7063207,21.7181094 16.7248599,18.0279317 C17.425381,16.7472793 18.0728136,15.6611055 18.6500223,14.7671936 C18.9871799,14.245044 19.2198249,13.9107574 19.330807,13.762143 L19.4372781,13.6195692 L19.5169063,13.4604379 C26.7248206,-0.944078244 37.9538011,-1.0443592 44.7192226,13.3234262 L44.8156966,13.5283089 L44.9555386,13.7064335 C45.0613973,13.8412718 45.287928,14.1528418 45.6181795,14.6454317 C46.1861104,15.4925347 46.8238389,16.5292216 47.5144223,17.7598163 C49.5073636,21.3111661 51.5080913,25.6898182 53.38097,30.930841 C58.6067843,45.5546462 61.8102093,63.8243622 61.9918391,86 Z M1.33809108e-05,86.0763483 L0.0763616507,86 C0.0229929391,86 0.0229929391,86 0.00289471786,86 C0.00153389909,86 0.00153389909,86 0.000683828342,86 C0.000354368566,86 0.000354368566,86 0.000152216485,86 C7.49869312e-05,86 7.49869312e-05,86 2.95368874e-05,86 L2.14840703e-06,86 C5.91762486e-06,86.0256141 9.66270638e-06,86.0510642 1.33844918e-05,86.0763514 L1.33809108e-05,86.0763483 Z"/>
        <use fill="#4E5F60" xlink:href="#b"/>
        <path stroke="#4E5F60" stroke-width="4.84" d="M44.6244016,16.58 L20.3762666,16.58 L26.8445555,7.89799209 L26.8820119,7.84630748 C27.2908184,7.26626418 29.7386179,6.42 32.0014004,6.42 L32.9992059,6.42 C35.2586949,6.42 37.7113621,7.26850628 38.1186101,7.84632657 L44.6244016,16.58 Z"/>
      </g>
      <g transform="translate(10 73)">
        <polygon fill="#FFFFFF" points="4 2.386 9.041 4.963 18 32 18 260.178 22.661 270 4 270" transform="matrix(-1 0 0 1 26.661 0)"/>
        <polygon fill="#DEE4E4" points="8 2.386 12.64 3.991 22 32 22 260.178 26.661 270 8 270" transform="matrix(-1 0 0 1 34.661 0)"/>
        <polygon fill="#C1C9CA" points="22 2.386 27.041 4.963 36 32 36 260.178 40.661 270 22 270"/>
        <rect width="16" height="4" x="14" y="11" fill="#4E5F60"/>
        <path stroke="#4E5F60" stroke-width="4" d="M7.44523134 258L36.5547687 258 40.6523273 269.879308C40.9219723 270.66104 40.6797624 271 39.8514849 271L4.14851507 271C3.31832528 271 3.07759848 270.662285 3.34767271 269.879308L7.44523134 258zM35.8381837 33L8.16190496 33C8.11353166 32.8969378 8.06021222 32.7107298 8.027836 32.4394824 7.89733641 31.3461589 8.2134955 29.6737405 8.97632243 27.8185366L9.0260732 27.6840195 16.05838 6.34781902 16.0682369 6.31708086C16.8004702 3.96863425 19.3195761 2 21.4853165 2L22.5153093 2C24.6773771 2 27.2018585 3.97413615 27.9323948 6.31709198L34.9745627 27.6840201 35.0243001 27.8185044C35.7860408 29.6711584 36.1023673 31.3436399 35.9723402 32.4378199 35.9400292 32.7097165 35.8866672 32.8965282 35.8381837 33z"/>
        <rect width="32" height="4" x="6" y="86" fill="#4E5F60"/>
        <rect width="32" height="4" x="6" y="130" fill="#4E5F60"/>
        <rect width="32" height="4" x="6" y="229" fill="#4E5F60"/>
        <rect width="32" height="4" x="6" y="238" fill="#4E5F60"/>
        <rect width="32" height="4" x="6" y="247" fill="#4E5F60"/>
        <rect width="228" height="4" x="-106" y="144" fill="#4E5F60" transform="rotate(90 8 146)"/>
        <polyline fill="#4E5F60" points="38 13.896 38 260 34 260 34 13.896"/>
        <rect width="5" height="5" x="15" y="26" fill="#4E5F60"/>
        <rect width="5" height="7" x="15" y="66" fill="#4E5F60"/>
        <rect width="5" height="7" x="15" y="139" fill="#4E5F60"/>
      </g>
      <g transform="translate(98 73)">
        <polygon fill="#FFFFFF" points="4 2.386 9.041 4.963 18 32 18 260.178 22.661 270 4 270" transform="matrix(-1 0 0 1 26.661 0)"/>
        <polygon fill="#DEE4E4" points="8 2.386 12.644 3.996 22 32 22 260.178 26.661 270 8 270" transform="matrix(-1 0 0 1 34.661 0)"/>
        <polygon fill="#C1C9CA" points="22 2.386 27.041 4.963 36 32 36 260.178 40.661 270 22 270"/>
        <rect width="16" height="4" x="14" y="11" fill="#4E5F60"/>
        <path stroke="#4E5F60" stroke-width="4" d="M7.44523134 258L36.5547687 258 40.6523273 269.879308C40.9219723 270.66104 40.6797624 271 39.8514849 271L4.14851507 271C3.31832528 271 3.07759848 270.662285 3.34767271 269.879308L7.44523134 258zM35.8381837 33L8.16190496 33C8.11353166 32.8969378 8.06021222 32.7107298 8.027836 32.4394824 7.89733641 31.3461589 8.2134955 29.6737405 8.97632243 27.8185366L9.0260732 27.6840195 16.05838 6.34781902 16.0682369 6.31708086C16.8004702 3.96863425 19.3195761 2 21.4853165 2L22.5153093 2C24.6773771 2 27.2018585 3.97413615 27.9323948 6.31709198L34.9745627 27.6840201 35.0243001 27.8185044C35.7860408 29.6711584 36.1023673 31.3436399 35.9723402 32.4378199 35.9400292 32.7097165 35.8866672 32.8965282 35.8381837 33z"/>
        <rect width="32" height="4" x="6" y="86" fill="#4E5F60"/>
        <rect width="32" height="4" x="6" y="130" fill="#4E5F60"/>
        <rect width="32" height="4" x="6" y="229" fill="#4E5F60"/>
        <rect width="32" height="4" x="6" y="238" fill="#4E5F60"/>
        <rect width="32" height="4" x="6" y="247" fill="#4E5F60"/>
        <polyline fill="#4E5F60" points="10 13.896 10 260 6 260 6 13.896"/>
        <rect width="228" height="4" x="-78" y="144" fill="#4E5F60" transform="rotate(90 36 146)"/>
        <rect width="5" height="5" x="15" y="26" fill="#4E5F60"/>
        <rect width="5" height="7" x="15" y="66" fill="#4E5F60"/>
        <rect width="5" height="7" x="15" y="139" fill="#4E5F60"/>
      </g>
      <g transform="translate(0 100)">
        <g transform="translate(0 3)">
          <path fill="#FFFFFF" d="M41.9160156,126.104492 C45.8199186,117.53449 58.7695313,44.5263672 58.7695313,44.5263672 L58.7695313,171.334961 L54.9013672,178.386719 L9.09494702e-13,178.386719 C9.09494702e-13,178.386719 0.462912591,170.970282 2.23339844,168.636719 C4.00388428,166.303156 38.0121127,134.674494 41.9160156,126.104492 Z"/>
          <path fill="#DEE4E4" d="M46.9160156,127.104492 C50.8199186,118.53449 63.7695313,45.5263672 63.7695313,45.5263672 L63.7695313,169.636719 L55.2607422,179.386719 L5,179.386719 C5,179.386719 5,172.334961 7.23339844,169.636719 C9.46679687,166.938477 43.0121127,135.674494 46.9160156,127.104492 Z"/>
          <polygon fill="#FFFFFF" points="1 181 54 181 54 195 1 185.725"/>
          <path fill="#C1C9CA" d="M135.916016,126.104492 C139.819919,117.53449 152.769531,44.5263672 152.769531,44.5263672 L152.769531,171.334961 L148.901367,178.386719 L94,178.386719 C94,178.386719 94.4629126,170.970282 96.2333984,168.636719 C98.0038843,166.303156 132.012113,134.674494 135.916016,126.104492 Z" transform="matrix(-1 0 0 1 246.77 0)"/>
          <polygon fill="#C1C9CA" points="98 181 151 181 151 195 98 185.725" transform="matrix(-1 0 0 1 249 0)"/>
          <polygon fill="#DEE4E4" points="5 181 56.346 179.196 52.641 196.79 5 185.725"/>
          <polyline fill="#FFFFFF" points="76 .392 70.058 2.056 59.495 42.107 59.495 166.931 59.495 173.276 76 173.276"/>
          <polyline fill="#DEE4E4" points="81.505 .392 74.108 2.096 65 42.156 65 170.895 65 171.944 80.991 171.944"/>
          <polygon fill="#C1C9CA" points="76 .392 81.942 2.056 92.505 42.221 92.505 166.931 92.505 173.276 76 173.276"/>
        </g>
        <use fill="#DEE4E4" xlink:href="#c"/>
        <path stroke="#4E5F60" stroke-width="4" d="M55.5403965,210 L71.39296,210 C71.7248592,210.528203 72.0602047,211.158847 72.3782954,211.891355 C73.7080651,214.953585 74.3294192,218.745535 73.8369783,223.289843 C70.3445374,225.569421 58.0665239,225.627287 53.0875078,223.125138 C52.7515576,218.637091 53.366071,214.916091 54.5904468,211.928483 C54.8975372,211.179149 55.2206775,210.536558 55.5403965,210 Z"/>
        <use fill="#98A6A7" xlink:href="#d"/>
        <path stroke="#4E5F60" stroke-width="4" d="M80.5403965,210 L96.39296,210 C96.7248592,210.528203 97.0602047,211.158847 97.3782954,211.891355 C98.7080651,214.953585 99.3294192,218.745535 98.8369783,223.289843 C95.3445374,225.569421 83.0665239,225.627287 78.0875078,223.125138 C77.7515576,218.637091 78.366071,214.916091 79.5904468,211.928483 C79.8975372,211.179149 80.2206775,210.536558 80.5403965,210 Z"/>
        <use fill="#C1C9CA" xlink:href="#e"/>
        <path stroke="#4E5F60" stroke-width="4" d="M67.5624387,214 L83.5653123,214 C83.9009291,214.529255 84.240099,215.161647 84.5617318,215.896576 C85.9007848,218.956305 86.5266046,222.744684 86.031258,227.28494 C82.5046586,229.571 70.1126699,229.628797 65.0878976,227.120669 C64.7500557,222.636441 65.369,218.918759 66.6019435,215.933542 C66.9124148,215.181826 67.2391898,214.537547 67.5624387,214 Z"/>
        <path fill="#FFFFFF" fill-rule="nonzero" d="M58.2518901,182.389885 C55.7282282,189.143396 54.4757049,197.565504 55.2067792,207.718118 C65.1298257,213.297918 90.0275,213.161927 96.9107562,208.061159 C97.9626901,197.791393 96.6961378,189.213644 93.9571223,182.296204 C93.2971176,180.629348 92.6004324,179.196962 91.9109212,178 L60.2298326,178 C59.5637377,179.218074 58.8905614,180.680753 58.2518901,182.389885 Z"/>
        <path fill="#C1C9CA" fill-rule="nonzero" d="M61.4538208,182.662482 C58.7734485,189.835361 57.443148,198.780452 58.2196195,209.563506 C68.7588515,215.489792 91.4090449,214.186551 98.7197266,208.769043 C99.8369817,197.861561 99.1088056,190.00947 96.199707,182.662482 C95.4987184,180.89212 92.9447297,179.271289 92.2124023,178 L63.5545864,178 C62.8471294,179.293712 62.1321513,180.847218 61.4538208,182.662482 Z"/>
        <path fill="#DEE4E4" fill-rule="nonzero" d="M61.4538208,182.662482 C58.7734485,189.835361 57.443148,198.780452 58.2196195,209.563506 C68.7588515,215.489792 69.5843378,216.542996 76.8950195,211.125488 C78.0122747,200.218007 78.8783368,204.126774 75.9692383,196.779785 C75.2682497,195.009424 76.7015657,179.271289 75.9692383,178 L63.5545864,178 C62.8471294,179.293712 62.1321513,180.847218 61.4538208,182.662482 Z"/>
        <path stroke="#4E5F60" stroke-width="4" d="M59.0691702,176 L93.0285572,176 C93.16982,176.219402 93.3199333,176.462314 93.4775367,176.7287 C94.2673254,178.063624 95.06303,179.674406 95.8096089,181.559907 C98.7370842,188.953307 100.044321,198.122955 98.8058144,209.076742 C91.7854525,215.448451 63.5962735,215.610941 53.2854627,208.894215 C52.3696083,197.991247 53.6624182,188.939175 56.3713736,181.689805 C57.0994711,179.741361 57.875093,178.08632 58.6445744,176.722552 C58.7934185,176.458752 58.9353536,176.217914 59.0691702,176 Z"/>
        <use fill="#4E5F60" xlink:href="#f"/>
        <path stroke="#4E5F60" stroke-width="4" d="M86.3683884,15 L65.6318623,15 C65.7206721,14.7937519 65.8561221,14.5363094 66.0483147,14.245711 L66.1471903,14.0792161 L71.64118,3.71591872 L71.6619105,3.67572294 C72.0529612,2.89597346 73.8970664,2 75.5979035,2 L76.4025854,2 C78.1006598,2 79.9488023,2.89852721 80.3385876,3.67573763 L85.8533068,14.0792169 L85.9521568,14.245673 C86.1442366,14.5361152 86.2796372,14.7936136 86.3683884,15 Z"/>
        <rect width="36" height="4" x="58" y="59" fill="#4E5F60"/>
        <path fill="#502CBB" d="M86,43.5 L86,38 L76,33 L76,38 L81,42 L81,46 L86,46 L86,43.5 Z M71,42 L76,38 L76,33 L66,38 L66,43.5 L66,46 L71,46 L71,42 Z"/>
        <ellipse cx="76" cy="204" fill="#DEE4E4" stroke="#4E5F60" stroke-width="4" rx="4" ry="30"/>
        <rect width="56" height="4" y="180" fill="#4E5F60"/>
        <polyline fill="#4E5F60" points="62 43 62 176 58 176 58 43"/>
        <polyline fill="#4E5F60" points="94 43 94 176 90 176 90 43"/>
        <polyline fill="#4E5F60" points="78 59 78 174 74 174 74 59"/>
        <rect width="4" height="14" x="28" y="182" fill="#4E5F60"/>
        <path stroke="#4E5F60" stroke-width="4" d="M52.6000977,199.5 L3.54483366,189.944689 C1.91850087,189.627901 0.600097656,188.030289 0.600097656,186.377965 L0.600097656,178.15287 C0.600097656,175.392774 2.16070051,171.54351 4.08049697,169.560779 L38.5218898,133.990317 C40.8251895,131.61151 43.218729,127.042182 43.8655824,123.796618 L65.1003418,17.2519531" stroke-linecap="square"/>
        <rect width="56" height="4" x="96" y="180" fill="#4E5F60" transform="matrix(-1 0 0 1 248 0)"/>
        <rect width="4" height="14" x="120" y="182" fill="#4E5F60" transform="matrix(-1 0 0 1 244 0)"/>
        <path stroke="#4E5F60" stroke-width="4" d="M138.872803,199.5 L89.8175387,189.944689 C88.191206,189.627901 86.8728027,188.030289 86.8728027,186.377965 L86.8728027,178.15287 C86.8728027,175.392774 88.4334056,171.54351 90.353202,169.560779 L124.794595,133.990317 C127.097895,131.61151 129.488294,127.048137 130.134223,123.795115 L145.829346,44.7514648 L151.456543,17.3103027" stroke-linecap="square" transform="matrix(-1 0 0 1 238.33 0)"/>
      </g>
      <g transform="translate(15 329)">
        <ellipse cx="61" cy="27" fill="#F27E2D" rx="6" ry="19"/>
        <ellipse cx="45" cy="15" fill="#F27E2D" rx="5" ry="15"/>
        <ellipse cx="77" cy="15" fill="#F27E2D" rx="5" ry="15"/>
        <polygon fill="#F27E2D" points="3.223 17 28.777 17 32 63 0 63"/>
        <ellipse cx="61" cy="22.5" fill="#FFBD8F" rx="3" ry="11.5"/>
        <ellipse cx="45" cy="9.2" fill="#FFBD8F" rx="2" ry="7.2"/>
        <polygon fill="#FFBD8F" points="6.637 25.934 8.696 25.934 10.46 75.711 5 75.711"/>
        <polygon fill="#FFBD8F" points="23.637 25.934 25.696 25.934 27.46 75.711 22 75.711"/>
        <polygon fill="#FFBD8F" points="15.301 31.145 16.938 31.145 18.34 70.711 14 70.711"/>
        <polygon fill="#F27E2D" points="92.223 17 117.777 17 121 75.711 89 75.711"/>
        <polygon fill="#FFBD8F" points="95.637 25.934 97.696 25.934 99.46 75.711 94 75.711"/>
        <polygon fill="#FFBD8F" points="112.637 25.934 114.696 25.934 116.46 75.711 111 75.711"/>
        <polygon fill="#FFBD8F" points="104.301 33.145 105.938 33.145 107.34 72.711 103 72.711"/>
        <ellipse cx="77" cy="9.2" fill="#FFBD8F" rx="2" ry="7.2"/>
      </g>
    </g>
    <g transform="translate(45 357)">
      <g fill="#FFFFFF">
        <ellipse cx="195" cy="96.203" rx="32" ry="35.797"/>
        <ellipse cx="70" cy="54.814" rx="27" ry="30.203"/>
        <ellipse cx="165" cy="68.237" rx="21" ry="23.492"/>
        <ellipse cx="38.962" cy="72.669" rx="19.962" ry="22.331"/>
        <ellipse cx="86.5" cy="18.458" rx="16.5" ry="18.458"/>
        <ellipse cx="16.5" cy="81.102" rx="16.5" ry="18.458"/>
        <ellipse cx="148.5" cy="37.475" rx="14.5" ry="16.22"/>
        <ellipse cx="133" cy="16.78" rx="13" ry="14.542"/>
      </g>
      <g fill="#FFBD8F" opacity=".5">
        <ellipse cx="195" cy="96.203" rx="32" ry="35.797"/>
        <ellipse cx="70" cy="54.814" rx="27" ry="30.203"/>
        <ellipse cx="165" cy="68.237" rx="21" ry="23.492"/>
        <ellipse cx="38.962" cy="72.669" rx="19.962" ry="22.331"/>
        <ellipse cx="86.5" cy="18.458" rx="16.5" ry="18.458"/>
        <ellipse cx="16.5" cy="81.102" rx="16.5" ry="18.458"/>
        <ellipse cx="148.5" cy="37.475" rx="14.5" ry="16.22"/>
        <ellipse cx="133" cy="16.78" rx="13" ry="14.542"/>
      </g>
    </g>
    <g fill="#FFFFFF" transform="translate(0 361)">
      <circle cx="169.5" cy="58.5" r="31.5"/>
      <circle cx="162.5" cy="108.5" r="55.5"/>
      <ellipse cx="66.615" cy="135.121" rx="27.3" ry="27.794"/>
      <ellipse cx="27.615" cy="146.121" rx="27.3" ry="27.794"/>
      <ellipse cx="271.548" cy="131.548" rx="27.3" ry="27.794"/>
      <ellipse cx="45.143" cy="99.889" rx="14.3" ry="14.559"/>
      <ellipse cx="178" cy="16.78" rx="13" ry="14.542"/>
      <ellipse cx="193.5" cy="37.475" rx="14.5" ry="16.22"/>
      <ellipse cx="61.5" cy="81.102" rx="16.5" ry="18.458"/>
      <ellipse cx="131.5" cy="18.458" rx="16.5" ry="18.458"/>
      <ellipse cx="83.962" cy="72.669" rx="19.962" ry="22.331"/>
      <ellipse cx="210" cy="68.237" rx="21" ry="23.492"/>
      <circle cx="97" cy="112" r="34"/>
      <circle cx="145.5" cy="48.5" r="28.5"/>
      <circle cx="34" cy="112" r="21"/>
      <ellipse cx="115" cy="54.814" rx="27" ry="30.203"/>
      <circle cx="267" cy="110" r="27"/>
      <ellipse cx="240" cy="96.203" rx="32" ry="35.797"/>
      <circle cx="64.004" cy="109.004" r="21"/>
      <circle cx="229" cy="130" r="21" transform="rotate(180 229 130)"/>
      <circle cx="92" cy="218" r="32" opacity=".4"/>
      <ellipse cx="209.548" cy="161.548" opacity=".9" rx="27.3" ry="27.794"/>
      <ellipse cx="50.548" cy="168.548" opacity=".9" rx="27.3" ry="27.794"/>
      <ellipse cx="176.365" cy="163.365" opacity=".9" rx="18.2" ry="18.529"/>
      <ellipse cx="84.613" cy="176.613" opacity=".9" rx="23.4" ry="23.824"/>
      <ellipse cx="113.613" cy="137.613" opacity=".8" rx="23.4" ry="23.824"/>
      <ellipse cx="209.613" cy="145.613" opacity=".8" rx="23.4" ry="23.824"/>
      <ellipse cx="171.548" cy="223.548" opacity=".5" rx="27.3" ry="27.794"/>
      <circle cx="149" cy="167" r="21" opacity=".9"/>
      <ellipse cx="249.613" cy="158.613" opacity=".8" rx="23.4" ry="23.824"/>
      <ellipse cx="202.548" cy="221.548" opacity=".5" rx="27.3" ry="27.794"/>
      <ellipse cx="131.613" cy="228.613" opacity=".5" rx="23.4" ry="23.824"/>
      <ellipse cx="202.548" cy="206.548" opacity=".4" rx="27.3" ry="27.794"/>
      <ellipse cx="234.613" cy="208.613" opacity=".4" rx="23.4" ry="23.824"/>
      <ellipse cx="227.613" cy="227.613" opacity=".2" rx="23.4" ry="23.824"/>
      <circle cx="169" cy="206" r="34" opacity=".4"/>
      <circle cx="125" cy="180" r="21" opacity=".7"/>
      <ellipse cx="256" cy="170.203" opacity=".6" rx="27" ry="30.203"/>
      <circle cx="112" cy="154" r="27" opacity=".9"/>
      <ellipse cx="126" cy="195.797" opacity=".4" rx="32" ry="35.797"/>
      <circle cx="97.004" cy="212.004" r="21" opacity=".4"/>
      <ellipse cx="182.548" cy="191.548" opacity=".6" rx="27.3" ry="27.794"/>
      <ellipse cx="67.548" cy="195.548" opacity=".6" rx="27.3" ry="27.794"/>
      <ellipse cx="165.365" cy="189.365" opacity=".6" rx="18.2" ry="18.529"/>
      <ellipse cx="35.613" cy="179.613" opacity=".6" rx="23.4" ry="23.824"/>
      <circle cx="147" cy="195" r="21" opacity=".6"/>
      <ellipse cx="227.613" cy="186.613" opacity=".6" rx="23.4" ry="23.824"/>
      <circle cx="116" cy="201" r="21" opacity=".6"/>
      <ellipse cx="74.613" cy="146.613" opacity=".9" rx="23.4" ry="23.824"/>
      <circle cx="177.004" cy="172.004" r="21" opacity=".4"/>
      <circle cx="137" cy="165" r="21" opacity=".6"/>
      <ellipse cx="217.613" cy="156.613" opacity=".6" rx="23.4" ry="23.824"/>
      <circle cx="106" cy="171" r="21" opacity=".6"/>
      <circle cx="156" cy="244" r="32" opacity=".2" transform="matrix(-1 0 0 1 312 0)"/>
      <ellipse cx="81.548" cy="238.548" opacity=".2" transform="matrix(-1 0 0 1 163.096 0)" rx="27.3" ry="27.794"/>
      <ellipse cx="53.548" cy="210.548" opacity=".2" transform="matrix(-1 0 0 1 107.096 0)" rx="27.3" ry="27.794"/>
      <ellipse cx="118.613" cy="252.613" opacity=".2" transform="matrix(-1 0 0 1 237.225 0)" rx="23.4" ry="23.824"/>
      <ellipse cx="200.548" cy="246.548" opacity=".2" transform="matrix(-1 0 0 1 401.096 0)" rx="27.3" ry="27.794"/>
      <ellipse cx="183.548" cy="259.548" opacity=".1" rx="27.3" ry="27.794"/>
      <ellipse cx="102.548" cy="256.548" opacity=".1" rx="27.3" ry="27.794"/>
      <circle cx="156" cy="274" r="21" opacity=".1"/>
      <ellipse cx="212.613" cy="248.613" opacity=".1" rx="23.4" ry="23.824"/>
      <circle cx="130" cy="274" r="21" opacity=".1"/>
      <ellipse cx="123.613" cy="218.613" opacity=".4" rx="23.4" ry="23.824"/>
      <ellipse cx="119.613" cy="234.613" opacity=".2" rx="23.4" ry="23.824"/>
      <circle cx="177" cy="270" r="32" opacity=".2" transform="matrix(-1 0 0 1 354 0)"/>
      <ellipse cx="86.548" cy="234.548" opacity=".2" transform="matrix(-1 0 0 1 173.096 0)" rx="27.3" ry="27.794"/>
      <ellipse cx="66.452" cy="211.548" opacity=".2" transform="matrix(-1 0 0 1 132.904 0)" rx="27.3" ry="27.794"/>
      <ellipse cx="126.613" cy="279.613" opacity=".2" transform="matrix(-1 0 0 1 253.225 0)" rx="23.4" ry="23.824"/>
      <ellipse cx="147.613" cy="246.613" opacity=".43" transform="matrix(-1 0 0 1 295.225 0)" rx="23.4" ry="23.824"/>
      <ellipse cx="199.548" cy="252.548" opacity=".1" rx="27.3" ry="27.794"/>
      <ellipse cx="109.548" cy="256.548" opacity=".1" rx="27.3" ry="27.794"/>
      <ellipse cx="113.548" cy="236.548" opacity=".3" rx="27.3" ry="27.794"/>
      <ellipse cx="180" cy="239" opacity=".3" rx="24.775" ry="25.223"/>
      <ellipse cx="140" cy="199" opacity=".3" rx="24.775" ry="25.223"/>
      <ellipse cx="190" cy="179" opacity=".3" rx="24.775" ry="25.223"/>
      <ellipse cx="89" cy="199" opacity=".3" rx="24.775" ry="25.223"/>
      <ellipse cx="69" cy="169" opacity=".3" rx="24.775" ry="25.223"/>
      <ellipse cx="239" cy="169" opacity=".3" rx="24.775" ry="25.223"/>
      <ellipse cx="209" cy="189" opacity=".3" rx="24.775" ry="25.223"/>
      <ellipse cx="229" cy="190" opacity=".3" rx="24.775" ry="25.223"/>
      <ellipse cx="209" cy="199" opacity=".3" rx="24.775" ry="25.223"/>
      <circle cx="163" cy="287" r="21" opacity=".1"/>
      <ellipse cx="157.613" cy="232.613" opacity=".3" rx="23.4" ry="23.824"/>
      <circle cx="148" cy="304" r="21" opacity=".1"/>
      <circle cx="144" cy="291" r="21" opacity=".1"/>
      <circle cx="128" cy="287" r="21" opacity=".1"/>
      <circle cx="104" cy="268" r="21" opacity=".1"/>
      <circle cx="169" cy="271" r="21" opacity=".1"/>
      <circle cx="170" cy="291.225" r="21" opacity=".1"/>
    </g>
    <g transform="matrix(-1 0 0 1 220 382)">
      <circle cx="135" cy="69" r="21" fill="#D5C9E5" transform="matrix(-1 0 0 1 270 0)"/>
      <circle cx="132" cy="65" r="21" fill="#FFFFFF" transform="matrix(-1 0 0 1 264 0)"/>
      <circle cx="66" cy="24" r="20" fill="#D5C9E5" transform="matrix(-1 0 0 1 132 0)"/>
      <circle cx="70" cy="20" r="20" fill="#FFFFFF" transform="matrix(-1 0 0 1 140 0)"/>
      <circle cx="54" cy="74" r="25" fill="#D5C9E5" transform="matrix(-1 0 0 1 108 0)"/>
      <circle cx="55" cy="69" r="25" fill="#FFFFFF" transform="matrix(-1 0 0 1 110 0)"/>
      <circle cx="15" cy="43" r="15" fill="#D5C9E5" transform="matrix(-1 0 0 1 30 0)"/>
      <circle cx="17" cy="39" r="15" fill="#FFFFFF" transform="matrix(-1 0 0 1 34 0)"/>
      <circle cx="103" cy="43" r="20" fill="#D5C9E5" transform="matrix(-1 0 0 1 206 0)"/>
      <circle cx="102" cy="38" r="20" fill="#FFFFFF" transform="matrix(-1 0 0 1 204 0)"/>
    </g>
  </g>
</svg>
