<svg xmlns="http://www.w3.org/2000/svg" width="300" height="690" xmlns:xlink="http://www.w3.org/1999/xlink"><defs><path id="a" d="M147.633 349.652c.358-2.188.664-4.344.904-6.444 2.808-24.53 3.908-65.208 3.908-65.208h11.053s2.403 42.635 4.986 65.208C171.068 365.78 183 400 183 400h-49s9.17-25.223 13.235-48.022c-.885 4.219-2.45 7.022-4.235 7.022-2.761 0-5-6.716-5-15 0-8.284 2.239-15 5-15s5 6.716 5 15c0 2-.13 3.908-.367 5.652zM116.067 392h4.351L120 404.71h5.46l-.45-12.71H130l-3.223-46h-25.554L98 392h5.418L103 404.71h5.46l-.45-12.71h4.244l-.254 7.71h4.34l-.273-7.71zM175 359c-2.761 0-5-6.716-5-15 0-8.284 2.239-15 5-15s5 6.716 5 15c0 8.284-2.239 15-5 15zm15.223-13h25.554L219 404.71h-32l3.223-58.71z"/><path id="b" d="M24.904 6.452C25.858 5.098 29.029 4 32 4H33c2.971 0 6.146 1.101 7.098 2.452l6.812 9.144c1.747 1.88 1.37 3.404-.946 3.404H19.037c-2.313 0-2.696-1.52-.946-3.404l6.813-9.144z"/><path id="c" d="M54.48 208h17.946s4.746 5.508 3.3 16.327c-3.471 3.46-19.16 3.667-24.539 0C50.048 213.335 54.48 208 54.48 208z"/><path id="d" d="M79.48 208h17.946s4.746 5.508 3.3 16.327c-3.471 3.46-19.16 3.667-24.539 0C75.048 213.335 79.48 208 79.48 208z"/><path id="e" d="M66.507 212h18.086s4.783 5.508 3.326 16.327c-3.498 3.46-19.309 3.667-24.73 0C62.04 217.335 66.507 212 66.507 212z"/><path id="f" d="M69.874 2.78C70.644 1.243 73.201 0 75.598 0h.805c2.396 0 4.956 1.248 5.723 2.78l5.494 10.362c1.41 2.13 1.105 3.858-.762 3.858H65.143c-1.865 0-2.174-1.724-.763-3.858L69.874 2.78z"/></defs><g fill="none" fill-rule="evenodd"><path fill="#FFF" d="M152.445 282h11.053s2.403 42.635 4.986 65.208C171.068 369.78 183 404 183 404h-49s11.73-32.262 14.537-56.792c2.808-24.53 3.908-65.208 3.908-65.208z"/><path fill="#FFBD8F" d="M152.445 282h11.053s2.403 42.635 4.986 65.208C171.068 369.78 183 404 183 404h-49s11.73-32.262 14.537-56.792c2.808-24.53 3.908-65.208 3.908-65.208z" opacity=".5"/><path fill="#FFF" d="M153.681 294h8.797s1.912 38.441 3.969 58.794C168.503 373.147 178 404 178 404h-39s9.336-29.09 11.57-51.206c2.235-22.117 3.111-58.794 3.111-58.794z"/><g opacity=".5" stroke-linecap="round" stroke-linejoin="round" transform="translate(0 4)"><use fill="#FFF" xlink:href="#a"/><path stroke="#FFF" stroke-width="4" d="M147.71 330.907c-1.164-2.44-2.752-3.907-4.71-3.907-4.461 0-7 7.616-7 17s2.539 17 7 17c.122 0 .242-.005.36-.016a297.452 297.452 0 0 1-3.718 14.58 386.466 386.466 0 0 1-6.88 21.94 210.69 210.69 0 0 1-.642 1.813l-.975 2.683H185.815l-.927-2.658-.165-.48a410.291 410.291 0 0 1-2.164-6.534 457.75 457.75 0 0 1-5.135-17.056 333.403 333.403 0 0 1-3.564-13.822c-1.626-6.965-2.784-13.188-3.389-18.47-.757-6.616-1.545-15.357-2.344-25.703a1983.828 1983.828 0 0 1-1.887-27.081 2264.395 2264.395 0 0 1-.745-12.309l-.106-1.887h-14.89l-.053 1.946-.027.931a1321.785 1321.785 0 0 1-.423 12.071c-.386 9.755-.871 19.51-1.46 28.61-.261 4.018-.536 7.81-.825 11.349zm-29.612 70.804l-.097 2.934-.068 2.066h9.599l-.073-2.07-.377-10.641H132.145l-.15-2.14-3.223-46-.13-1.86H99.358l-.13 1.86-3.224 46-.15 2.14h5.496l-.35 10.645-.068 2.066h9.599l-.073-2.07-.104-2.93H118.098zM175 361c4.461 0 7-7.616 7-17s-2.539-17-7-17-7 7.616-7 17 2.539 17 7 17zm15.223-17h-1.893l-.104 1.89-3.223 58.711-.116 2.11h36.226l-.116-2.11-3.223-58.71-.104-1.891h-27.447z"/></g><g fill="#FFF" stroke="#FFF" opacity=".5" stroke-linecap="round" stroke-linejoin="round"><path stroke-width="8" d="M174.392 22.7c3.47 5.242 16.229 27.53 16.6 72.3H191v115.046h-4V98.065h-30V97h-29.659L131 210.046h-4V95h.085c.4-45.097 14.207-68.28 17.11-72.663-.434-.62-.15-1.615.896-2.74l6.813-9.145C152.858 9.098 156.029 8 159 8H160c2.971 0 6.146 1.101 7.098 2.452l6.812 9.144c1.284 1.382 1.42 2.572.483 3.105z"/><path stroke-width="8" d="M157 96h31v115.046h-31V96zm-22 0h22v115.046h-22V96zm-4 0h4v115.046h-4V96zm13.728-79.435c7.903-15.793 21.275-16.076 28.8-.094 0 0 17.472 22.255 17.472 75.529h-63.924c0-51.797 17.652-75.435 17.652-75.435z"/><path stroke-width="8" d="M127 95.338l-4.158-12.616c-.983-3.152-4.26-5.722-7.327-5.722h-1.03c-3.068 0-6.34 2.562-7.326 5.722l-7.032 21.336c-.77 1.87-1.14 3.587-1.127 4.942v224.056l-4.543 13.171c-.718 2.08.486 3.773 2.692 3.773h35.702c2.2 0 3.41-1.69 2.692-3.773L131 333.057V90.895h-4v4.442zM219 109c.012-1.356-.358-3.074-1.126-4.942l-7.032-21.336c-.983-3.152-4.26-5.722-7.327-5.722h-1.03c-3.068 0-6.34 2.562-7.326 5.722L191 95.34v-4.444h-4v242.16l-4.543 13.171c-.718 2.08.486 3.773 2.692 3.773h35.702c2.2 0 3.41-1.69 2.692-3.773L219 333.057V109z"/><path stroke-width="10" d="M170.481 130.118l-.608-8.808L175.14 147H177v6.916-2.39s12.95 73.008 16.854 81.578c.248.546.412 1.234.502 2.045.695 1.094 1.441 2.08 2.179 2.841l34.441 35.57c1.92 1.984 3.48 5.833 3.48 8.593v8.225c0 1.652-1.318 3.25-2.944 3.567L207 298.719V300h-4v-.502l-18.768 3.656c.1 3.296-.041 6.911-.52 10.846-.401.438-.883.852-1.436 1.242 1.144 2.698 2.254 7.07 1.45 13.085-1.862 1.856-7.24 2.776-12.656 2.664-.04.436-.09.881-.151 1.336-1.578 1.56-5.66 2.46-10.164 2.64-.53 1.942-1.125 3.033-1.755 3.033-.63 0-1.226-1.092-1.756-3.038-4.405-.184-8.706-1.046-11.055-2.635a35.66 35.66 0 0 1-.115-1.336c-4.681-.096-9.392-.964-11.887-2.664-.65-6.283.518-10.718 1.64-13.365a16.266 16.266 0 0 1-1.45-.962 80.478 80.478 0 0 1-.317-10.8L115 299.487V300h-4v-1.292l-24.455-4.763c-1.626-.317-2.945-1.915-2.945-3.567v-8.225c0-2.76 1.56-6.61 3.48-8.592l34.442-35.57c1.276-1.319 2.58-3.31 3.6-5.375.748-1.908 1.773-5.788 2.948-10.864l10.669-53.528c.943-5.114 1.727-9.437 2.261-12.402V147h1.969l5.131-25.748-.612 8.921 2.42-9.173h-1.765c-1.865 0-2.174-1.724-.763-3.858l5.494-10.363c.77-1.535 3.327-2.779 5.724-2.779h.805c2.396 0 4.956 1.248 5.723 2.78l5.494 10.362c1.41 2.13 1.105 3.858-.762 3.858h-1.775l2.398 9.118zm10.397 155.243c.134.354.269.72.402 1.098l-.126-1.82c-.151.398-.247.646-.276.722zM137 286.387h-.227l-.06.88c.095-.301.19-.594.287-.88z"/></g><g transform="translate(127 4)"><path fill="#F27E2D" d="M30 92h31v115.046H30z"/><path fill="#FFBD8F" d="M8 92h22v115.046H8z"/><path fill="#F6E5D3" d="M4 92h4v115.046H4z"/><path fill="#4E5F60" d="M4 62h56v4H4zM1 137h60v4H1z"/><path fill="#4E5F60" d="M4 91v115.046H0V91M64 91v115.046h-4V91"/><path fill="#F6E5D3" d="M17.728 17.565c7.903-15.793 21.275-16.076 28.8-.094C46.529 17.471 64 39.726 64 93H.076c0-51.797 17.652-75.435 17.652-75.435z"/><path fill="#FFBD8F" d="M25.252 17.489C31.858 4.232 41.505 4.712 46.305 18.73c0 0 12.77 27.272 15.357 74.269H8.076c0-51.797 17.176-75.511 17.176-75.511z"/><path fill="#F27E2D" d="M30 14.956c0-9.345 4.828-11.094 10.118-3.41 0 0 21.96 19.258 23.701 82.519H30v-79.11z"/><path stroke="#4E5F60" stroke-width="4" d="M61.992 86H2.085c.189-21.55 3.424-39.66 8.701-54.47 1.895-5.317 3.92-9.812 5.939-13.502.7-1.28 1.348-2.367 1.925-3.26.337-.523.57-.857.68-1.006l.107-.142.08-.16c7.208-14.404 18.437-14.504 25.202-.137l.097.205.14.178c.105.135.332.447.662.94a46.525 46.525 0 0 1 1.896 3.114c1.993 3.551 3.994 7.93 5.867 13.17 5.226 14.625 8.43 32.894 8.61 55.07zM0 86.076L.076 86H.001 0v.076z"/><use fill="#4E5F60" xlink:href="#b"/><path stroke="#4E5F60" stroke-width="4.84" d="M44.624 16.58H20.376l6.469-8.682.037-.052c.409-.58 2.857-1.426 5.12-1.426h.997c2.26 0 4.712.849 5.12 1.426l6.505 8.734z"/></g><path fill="#FFF" d="M115.661 79.386l-5.041 2.577L101.661 109v228.178L97 347h18.661z"/><path fill="#DEE4E4" d="M119.661 79.386l-4.64 1.605-9.36 28.009v228.178L101 347h18.661z"/><path fill="#C1C9CA" d="M115 79.386l5.041 2.577L129 109v228.178l4.661 9.822H115z"/><path fill="#4E5F60" d="M107 88h16v4h-16z"/><path stroke="#4E5F60" stroke-width="4" d="M100.445 335h29.11l4.097 11.88c.27.781.028 1.12-.8 1.12H97.148c-.83 0-1.071-.338-.801-1.12l4.097-11.88zm28.393-225h-27.676a1.948 1.948 0 0 1-.134-.56c-.13-1.094.185-2.766.948-4.621l.05-.135 7.032-21.336.01-.03c.732-2.35 3.252-4.318 5.417-4.318h1.03c2.162 0 4.687 1.974 5.417 4.317l7.043 21.367.05.135c.761 1.852 1.077 3.525.947 4.619a1.955 1.955 0 0 1-.134.562z"/><path fill="#4E5F60" d="M99 163h32v4H99zM99 207h32v4H99zM99 306h32v4H99zM99 315h32v4H99zM99 324h32v4H99z"/><path fill="#4E5F60" d="M103 109v228h-4V109zM131 90.896V337h-4V90.896M108 103h5v5h-5zM108 143h5v7h-5zM108 216h5v7h-5z"/><g><path fill="#FFF" d="M203.661 79.386l-5.041 2.577L189.661 109v228.178L185 347h18.661z"/><path fill="#DEE4E4" d="M207.661 79.386l-4.644 1.61L193.661 109v228.178L189 347h18.661z"/><path fill="#C1C9CA" d="M203 79.386l5.041 2.577L217 109v228.178l4.661 9.822H203z"/><path fill="#4E5F60" d="M195 88h16v4h-16z"/><path stroke="#4E5F60" stroke-width="4" d="M188.445 335h29.11l4.097 11.88c.27.781.028 1.12-.8 1.12h-35.703c-.83 0-1.071-.338-.801-1.12l4.097-11.88zm28.393-225h-27.676a1.948 1.948 0 0 1-.134-.56c-.13-1.094.185-2.766.948-4.621l.05-.135 7.032-21.336.01-.03c.732-2.35 3.252-4.318 5.417-4.318h1.03c2.162 0 4.687 1.974 5.417 4.317l7.043 21.367.05.135c.761 1.852 1.077 3.525.947 4.619a1.955 1.955 0 0 1-.134.562z"/><path fill="#4E5F60" d="M187 163h32v4h-32zM187 207h32v4h-32zM187 306h32v4h-32zM187 315h32v4h-32zM187 324h32v4h-32z"/><path fill="#4E5F60" d="M191 90.896V337h-4V90.896M219 109v228h-4V109zM196 103h5v5h-5zM196 143h5v7h-5zM196 216h5v7h-5z"/></g><g transform="translate(83 104)"><path fill="#FFF" d="M41.916 129.104c3.904-8.57 16.854-81.578 16.854-81.578v126.809l-3.869 7.052H0s.463-7.417 2.233-9.75c1.77-2.334 35.78-33.963 39.683-42.533z"/><path fill="#DEE4E4" d="M46.916 130.104c3.904-8.57 16.854-81.578 16.854-81.578v124.11l-8.51 9.75H5s0-7.051 2.233-9.75c2.234-2.698 35.78-33.962 39.683-42.532z"/><path fill="#FFF" d="M1 184h53v14l-53-9.275z"/><path fill="#C1C9CA" d="M110.854 129.104C106.95 120.534 94 47.526 94 47.526v126.809l3.869 7.052h54.901s-.463-7.417-2.233-9.75c-1.77-2.334-35.78-33.963-39.683-42.533zM151 184H98v14l53-9.275z"/><path fill="#DEE4E4" d="M5 184l51.346-1.804-3.705 17.594L5 188.725z"/><path fill="#FFF" d="M76 3.392l-5.942 1.664-10.563 40.051v131.169H76"/><path fill="#DEE4E4" d="M81.505 3.392l-7.397 1.704L65 45.156v129.788h15.991"/><path fill="#C1C9CA" d="M76 3.392l5.942 1.664 10.563 40.165v131.055H76z"/><use fill="#DEE4E4" xlink:href="#c"/><path stroke="#4E5F60" stroke-width="4" d="M55.54 210h15.853c.332.528.667 1.159.985 1.891 1.33 3.063 1.951 6.855 1.459 11.399-3.492 2.28-15.77 2.337-20.75-.165-.335-4.488.28-8.209 1.503-11.197.308-.749.63-1.391.95-1.928z"/><use fill="#98A6A7" xlink:href="#d"/><path stroke="#4E5F60" stroke-width="4" d="M80.54 210h15.853c.332.528.667 1.159.985 1.891 1.33 3.063 1.951 6.855 1.459 11.399-3.492 2.28-15.77 2.337-20.75-.165-.335-4.488.28-8.209 1.503-11.197.308-.749.63-1.391.95-1.928z"/><use fill="#C1C9CA" xlink:href="#e"/><path stroke="#4E5F60" stroke-width="4" d="M67.562 214h16.003c.336.53.675 1.162.997 1.897 1.339 3.06 1.965 6.848 1.47 11.388-3.527 2.286-15.92 2.344-20.944-.164-.338-4.485.281-8.202 1.514-11.187.31-.752.637-1.396.96-1.934z"/><path fill="#FFF" fill-rule="nonzero" d="M58.252 182.39c-2.524 6.753-3.776 15.176-3.045 25.328 9.923 5.58 34.82 5.444 41.704.343 1.052-10.27-.215-18.847-2.954-25.765A32.91 32.91 0 0 0 91.911 178H60.23c-.666 1.218-1.34 2.68-1.978 4.39z"/><path fill="#C1C9CA" fill-rule="nonzero" d="M61.454 182.662c-2.68 7.173-4.01 16.118-3.234 26.902 10.539 5.926 33.189 4.623 40.5-.795 1.117-10.907.389-18.76-2.52-26.107-.701-1.77-3.255-3.39-3.988-4.662H63.555c-.708 1.294-1.423 2.847-2.101 4.662z"/><path fill="#DEE4E4" fill-rule="nonzero" d="M61.454 182.662c-2.68 7.173-4.01 16.118-3.234 26.902 10.539 5.926 11.364 6.979 18.675 1.561 1.117-10.907 1.983-6.998-.926-14.345-.7-1.77.733-17.509 0-18.78H63.555c-.708 1.294-1.423 2.847-2.101 4.662z"/><path stroke="#4E5F60" stroke-width="4" d="M59.07 176h33.959c.14.22.29.462.449.729.79 1.335 1.585 2.945 2.332 4.83 2.927 7.394 4.234 16.564 2.996 27.518-7.02 6.371-35.21 6.534-45.52-.183-.916-10.903.376-19.955 3.085-27.204.728-1.949 1.504-3.604 2.274-4.967.148-.264.29-.505.424-.723z"/><use fill="#4E5F60" xlink:href="#f"/><path stroke="#4E5F60" stroke-width="4" d="M86.368 15H65.632c.089-.206.224-.464.416-.754l.1-.167L71.64 3.716l.02-.04C72.054 2.896 73.898 2 75.599 2h.805c1.698 0 3.546.899 3.936 1.676l5.514 10.403.1.167c.191.29.327.548.415.754z"/><path fill="#4E5F60" d="M58 59h36v4H58z"/><path fill="#502CBB" d="M86 43.5V38l-10-5v5l5 4v4h5v-2.5zM71 42l5-4v-5l-10 5v8h5v-4z"/><ellipse cx="76" cy="204" fill="#DEE4E4" stroke="#4E5F60" stroke-width="4" rx="4" ry="30"/><path fill="#4E5F60" d="M0 180h56v4H0zM62 43v133h-4V43M94 43v133h-4V43M78 59v115h-4V59"/><path fill="#4E5F60" d="M28 182h4v14h-4z"/><path stroke="#4E5F60" stroke-width="4" d="M52.6 199.5l-49.055-9.555C1.919 189.628.6 188.03.6 186.378v-8.225c0-2.76 1.56-6.61 3.48-8.592l34.442-35.57c2.303-2.38 4.697-6.949 5.344-10.194L65.1 17.252" stroke-linecap="square"/><path fill="#4E5F60" d="M152 180H96v4h56z"/><path fill="#4E5F60" d="M124 182h-4v14h4z"/><path stroke="#4E5F60" stroke-width="4" d="M99.457 199.5l49.055-9.555c1.627-.317 2.945-1.915 2.945-3.567v-8.225c0-2.76-1.56-6.61-3.48-8.592l-34.442-35.57c-2.303-2.38-4.693-6.943-5.34-10.196L92.502 44.751l-5.628-27.44" stroke-linecap="square"/></g><g transform="translate(98 333)"><ellipse cx="61" cy="27" fill="#F27E2D" rx="6" ry="19"/><ellipse cx="45" cy="15" fill="#F27E2D" rx="5" ry="15"/><ellipse cx="77" cy="15" fill="#F27E2D" rx="5" ry="15"/><path fill="#F27E2D" d="M3.223 17h25.554L32 63H0z"/><ellipse cx="61" cy="22.5" fill="#FFBD8F" rx="3" ry="11.5"/><ellipse cx="45" cy="9.2" fill="#FFBD8F" rx="2" ry="7.2"/><path fill="#FFBD8F" d="M6.637 25.934h2.059l1.764 49.777H5zM23.637 25.934h2.059l1.764 49.777H22zM15.301 31.145h1.637l1.402 39.566H14z"/><path fill="#F27E2D" d="M92.223 17h25.554L121 75.711H89z"/><path fill="#FFBD8F" d="M95.637 25.934h2.059l1.764 49.777H94zM112.637 25.934h2.059l1.764 49.777H111zM104.301 33.145h1.637l1.402 39.566H103z"/><ellipse cx="77" cy="9.2" fill="#FFBD8F" rx="2" ry="7.2"/></g><g><g fill="#FFF" transform="translate(45 361)"><ellipse cx="195" cy="96.203" rx="32" ry="35.797"/><ellipse cx="70" cy="54.814" rx="27" ry="30.203"/><ellipse cx="165" cy="68.237" rx="21" ry="23.492"/><ellipse cx="38.962" cy="72.669" rx="19.962" ry="22.331"/><ellipse cx="86.5" cy="18.458" rx="16.5" ry="18.458"/><ellipse cx="16.5" cy="81.102" rx="16.5" ry="18.458"/><ellipse cx="148.5" cy="37.475" rx="14.5" ry="16.22"/><ellipse cx="133" cy="16.78" rx="13" ry="14.542"/></g><g fill="#FFBD8F" opacity=".5" transform="translate(45 361)"><ellipse cx="195" cy="96.203" rx="32" ry="35.797"/><ellipse cx="70" cy="54.814" rx="27" ry="30.203"/><ellipse cx="165" cy="68.237" rx="21" ry="23.492"/><ellipse cx="38.962" cy="72.669" rx="19.962" ry="22.331"/><ellipse cx="86.5" cy="18.458" rx="16.5" ry="18.458"/><ellipse cx="16.5" cy="81.102" rx="16.5" ry="18.458"/><ellipse cx="148.5" cy="37.475" rx="14.5" ry="16.22"/><ellipse cx="133" cy="16.78" rx="13" ry="14.542"/></g></g><g fill="#FFF" transform="translate(0 365)"><circle cx="169.5" cy="58.5" r="31.5"/><circle cx="162.5" cy="108.5" r="55.5"/><ellipse cx="66.615" cy="135.121" rx="27.3" ry="27.794"/><ellipse cx="27.615" cy="146.121" rx="27.3" ry="27.794"/><ellipse cx="271.548" cy="131.548" rx="27.3" ry="27.794"/><ellipse cx="45.143" cy="99.889" rx="14.3" ry="14.559"/><ellipse cx="178" cy="16.78" rx="13" ry="14.542"/><ellipse cx="193.5" cy="37.475" rx="14.5" ry="16.22"/><ellipse cx="61.5" cy="81.102" rx="16.5" ry="18.458"/><ellipse cx="131.5" cy="18.458" rx="16.5" ry="18.458"/><ellipse cx="83.962" cy="72.669" rx="19.962" ry="22.331"/><ellipse cx="210" cy="68.237" rx="21" ry="23.492"/><circle cx="97" cy="112" r="34"/><circle cx="145.5" cy="48.5" r="28.5"/><circle cx="34" cy="112" r="21"/><ellipse cx="115" cy="54.814" rx="27" ry="30.203"/><circle cx="267" cy="110" r="27"/><ellipse cx="240" cy="96.203" rx="32" ry="35.797"/><circle cx="64.004" cy="109.004" r="21"/><circle cx="229" cy="130" r="21" transform="rotate(180 229 130)"/><circle cx="92" cy="218" r="32" opacity=".4"/><ellipse cx="209.548" cy="161.548" opacity=".9" rx="27.3" ry="27.794"/><ellipse cx="50.548" cy="168.548" opacity=".9" rx="27.3" ry="27.794"/><ellipse cx="176.365" cy="163.365" opacity=".9" rx="18.2" ry="18.529"/><ellipse cx="84.613" cy="176.613" opacity=".9" rx="23.4" ry="23.824"/><ellipse cx="113.613" cy="137.613" opacity=".8" rx="23.4" ry="23.824"/><ellipse cx="209.613" cy="145.613" opacity=".8" rx="23.4" ry="23.824"/><ellipse cx="171.548" cy="223.548" opacity=".5" rx="27.3" ry="27.794"/><circle cx="149" cy="167" r="21" opacity=".9"/><ellipse cx="249.613" cy="158.613" opacity=".8" rx="23.4" ry="23.824"/><ellipse cx="202.548" cy="221.548" opacity=".5" rx="27.3" ry="27.794"/><ellipse cx="131.613" cy="228.613" opacity=".5" rx="23.4" ry="23.824"/><ellipse cx="202.548" cy="206.548" opacity=".4" rx="27.3" ry="27.794"/><ellipse cx="234.613" cy="208.613" opacity=".4" rx="23.4" ry="23.824"/><ellipse cx="227.613" cy="227.613" opacity=".2" rx="23.4" ry="23.824"/><circle cx="169" cy="206" r="34" opacity=".4"/><circle cx="125" cy="180" r="21" opacity=".7"/><ellipse cx="256" cy="170.203" opacity=".6" rx="27" ry="30.203"/><circle cx="112" cy="154" r="27" opacity=".9"/><ellipse cx="126" cy="195.797" opacity=".4" rx="32" ry="35.797"/><circle cx="97.004" cy="212.004" r="21" opacity=".4"/><ellipse cx="182.548" cy="191.548" opacity=".6" rx="27.3" ry="27.794"/><ellipse cx="67.548" cy="195.548" opacity=".6" rx="27.3" ry="27.794"/><ellipse cx="165.365" cy="189.365" opacity=".6" rx="18.2" ry="18.529"/><ellipse cx="35.613" cy="179.613" opacity=".6" rx="23.4" ry="23.824"/><circle cx="147" cy="195" r="21" opacity=".6"/><ellipse cx="227.613" cy="186.613" opacity=".6" rx="23.4" ry="23.824"/><circle cx="116" cy="201" r="21" opacity=".6"/><ellipse cx="74.613" cy="146.613" opacity=".9" rx="23.4" ry="23.824"/><circle cx="177.004" cy="172.004" r="21" opacity=".4"/><circle cx="137" cy="165" r="21" opacity=".6"/><ellipse cx="217.613" cy="156.613" opacity=".6" rx="23.4" ry="23.824"/><circle cx="106" cy="171" r="21" opacity=".6"/><circle cx="156" cy="244" r="32" opacity=".2" transform="matrix(-1 0 0 1 312 0)"/><ellipse cx="81.548" cy="238.548" opacity=".2" transform="matrix(-1 0 0 1 163.096 0)" rx="27.3" ry="27.794"/><ellipse cx="53.548" cy="210.548" opacity=".2" transform="matrix(-1 0 0 1 107.096 0)" rx="27.3" ry="27.794"/><ellipse cx="118.613" cy="252.613" opacity=".2" transform="matrix(-1 0 0 1 237.225 0)" rx="23.4" ry="23.824"/><ellipse cx="200.548" cy="246.548" opacity=".2" transform="matrix(-1 0 0 1 401.096 0)" rx="27.3" ry="27.794"/><ellipse cx="183.548" cy="259.548" opacity=".1" rx="27.3" ry="27.794"/><ellipse cx="102.548" cy="256.548" opacity=".1" rx="27.3" ry="27.794"/><circle cx="156" cy="274" r="21" opacity=".1"/><ellipse cx="212.613" cy="248.613" opacity=".1" rx="23.4" ry="23.824"/><circle cx="130" cy="274" r="21" opacity=".1"/><ellipse cx="123.613" cy="218.613" opacity=".4" rx="23.4" ry="23.824"/><ellipse cx="119.613" cy="234.613" opacity=".2" rx="23.4" ry="23.824"/><circle cx="177" cy="270" r="32" opacity=".2" transform="matrix(-1 0 0 1 354 0)"/><ellipse cx="86.548" cy="234.548" opacity=".2" transform="matrix(-1 0 0 1 173.096 0)" rx="27.3" ry="27.794"/><ellipse cx="66.452" cy="211.548" opacity=".2" transform="matrix(-1 0 0 1 132.904 0)" rx="27.3" ry="27.794"/><ellipse cx="126.613" cy="279.613" opacity=".2" transform="matrix(-1 0 0 1 253.225 0)" rx="23.4" ry="23.824"/><ellipse cx="147.613" cy="246.613" opacity=".43" transform="matrix(-1 0 0 1 295.225 0)" rx="23.4" ry="23.824"/><ellipse cx="199.548" cy="252.548" opacity=".1" rx="27.3" ry="27.794"/><ellipse cx="109.548" cy="256.548" opacity=".1" rx="27.3" ry="27.794"/><ellipse cx="113.548" cy="236.548" opacity=".3" rx="27.3" ry="27.794"/><ellipse cx="180" cy="239" opacity=".3" rx="24.775" ry="25.223"/><ellipse cx="140" cy="199" opacity=".3" rx="24.775" ry="25.223"/><ellipse cx="190" cy="179" opacity=".3" rx="24.775" ry="25.223"/><ellipse cx="89" cy="199" opacity=".3" rx="24.775" ry="25.223"/><ellipse cx="69" cy="169" opacity=".3" rx="24.775" ry="25.223"/><ellipse cx="239" cy="169" opacity=".3" rx="24.775" ry="25.223"/><ellipse cx="209" cy="189" opacity=".3" rx="24.775" ry="25.223"/><ellipse cx="229" cy="190" opacity=".3" rx="24.775" ry="25.223"/><ellipse cx="209" cy="199" opacity=".3" rx="24.775" ry="25.223"/><circle cx="163" cy="287" r="21" opacity=".1"/><ellipse cx="157.613" cy="232.613" opacity=".3" rx="23.4" ry="23.824"/><circle cx="148" cy="304" r="21" opacity=".1"/><circle cx="144" cy="291" r="21" opacity=".1"/><circle cx="128" cy="287" r="21" opacity=".1"/><circle cx="104" cy="268" r="21" opacity=".1"/><circle cx="169" cy="271" r="21" opacity=".1"/><circle cx="170" cy="291.225" r="21" opacity=".1"/></g><g transform="matrix(-1 0 0 1 220 386)"><circle cx="135" cy="69" r="21" fill="#D5C9E5" transform="matrix(-1 0 0 1 270 0)"/><circle cx="132" cy="65" r="21" fill="#FFF" transform="matrix(-1 0 0 1 264 0)"/><circle cx="66" cy="24" r="20" fill="#D5C9E5" transform="matrix(-1 0 0 1 132 0)"/><circle cx="70" cy="20" r="20" fill="#FFF" transform="matrix(-1 0 0 1 140 0)"/><circle cx="54" cy="74" r="25" fill="#D5C9E5" transform="matrix(-1 0 0 1 108 0)"/><circle cx="55" cy="69" r="25" fill="#FFF" transform="matrix(-1 0 0 1 110 0)"/><circle cx="15" cy="43" r="15" fill="#D5C9E5" transform="matrix(-1 0 0 1 30 0)"/><circle cx="17" cy="39" r="15" fill="#FFF" transform="matrix(-1 0 0 1 34 0)"/><circle cx="103" cy="43" r="20" fill="#D5C9E5" transform="matrix(-1 0 0 1 206 0)"/><circle cx="102" cy="38" r="20" fill="#FFF" transform="matrix(-1 0 0 1 204 0)"/></g></g></svg>