<svg xmlns="http://www.w3.org/2000/svg" width="320" height="320"><g fill="none" fill-rule="evenodd"><path fill="#FFF" d="M199.03 159.083c.499 1.513.956 3.168 1.287 4.917 1.423 8.223-.47 15.576-5.327 21.709 3.139-5.015 5.01-11.338 5.01-18.209 0-2.924-.339-5.75-.97-8.417zm-4.092 33.373H207.122v46.103h-5.707v-41.03h-12.293v38.162H136V197.53h-12.293v41.03H118v-46.103H129.868c-.56-.442-.892-1.172-.892-1.985v-.99c-13.076-13.938-7.015-30.976-3.293-37.834v-27.573c0-2.427 1.976-4.412 4.39-4.412h.878C131.391 102.676 145.66 89 163 89s31.61 13.676 32.049 30.662h.878c2.414 0 4.39 1.985 4.39 4.412v29.558c3.29 7.854 7.545 23.067-4.39 35.84v.999c0 .813-.415 1.543-.989 1.985z"/><path fill="#550DB8" fill-rule="nonzero" stroke="#550DB8" stroke-width="1.103" d="M200.976 192.456H118v46.103h5.707v-41.03H136v38.162h53.122V197.53h12.293v41.03h5.707v-46.103h-6.146zm-61.244 5.073c-.44.442-.659.883-1.098 1.324v-1.324h1.098zm-1.098 8.383c.659-3.75 2.854-6.618 5.707-8.383h10.318c3.073 1.765 5.487 4.853 5.926 8.824v11.912c-2.634-3.31-6.585-5.294-10.756-5.294-4.61 0-8.56 2.205-11.195 5.735v-12.794zm22.17 18.97v.883h-21.95c.658-5.736 5.268-10.147 10.975-10.147 5.488.22 9.878 3.97 10.976 9.264zm0 4.192v3.529h-21.95v-3.75l21.95.22zm-1.316-31.545h5.488c-1.098 1.103-1.976 2.427-2.635 3.971-.878-1.544-1.756-2.868-2.853-3.97zm4.17 8.824c.44-3.75 2.635-7.059 5.927-8.824h10.317c3.074 1.765 5.488 4.853 5.927 8.824v12.353c-2.634-3.53-6.585-5.735-11.195-5.735s-8.56 2.426-11.195 5.955v-12.573h.22zm.22 19.632c.659-5.735 5.268-10.147 10.976-10.147 5.707 0 10.317 4.412 10.975 10.147h-21.951zm22.17 6.397h-21.95v-3.53h21.95v3.53zm0-33.308c-.438-.442-.877-1.103-1.316-1.545h1.317v1.545zm-23.268-52.28c14.708 0 26.781-12.132 26.781-27.132 0-6.397-1.756-9.927-3.293-11.912 0 0-.22-.22-.439-.662l-.22-.22c-1.975-1.986-8.34-6.397-22.829-6.397h-.658c-4.39 0-18.659.44-23.049 7.279-1.317 1.985-3.073 5.515-3.073 11.912 0 15 12.073 27.132 26.78 27.132zm-21.95-37.72c3.95-6.177 18.438-6.398 21.511-6.398H163c14.268 0 19.976 4.633 21.512 5.956l.22.22.439.442c1.097 1.324 2.853 4.412 2.853 10.588 0 13.897-11.195 25.368-24.804 25.368-13.61 0-24.805-11.25-24.805-25.368-.44-6.397 1.317-9.485 2.414-10.808zm-9.22 82.94l2.195-2.205c-7.903-6.838-10.976-15.662-9.22-25.809.878-4.853 2.415-8.603 3.732-11.03.22-.22.22-.44.44-.882 2.194-4.412 5.706-8.162 9.877-11.25 5.927 6.838 14.707 11.03 24.366 11.03 9.439 0 18.22-4.192 23.927-10.589 3.951 3.089 7.024 6.618 9.22 10.81.219.22.219.661.438.882 1.098 2.426 2.854 6.397 3.732 11.029 1.756 10.147-1.537 18.97-9.22 25.809l2.196 2.206c15.146-13.236 10.536-30 7.024-38.383v-29.558c0-2.427-1.976-4.412-4.39-4.412h-.878C194.609 102.676 180.34 89 163 89s-31.61 13.676-32.049 30.662h-.878c-2.414 0-4.39 1.985-4.39 4.412v27.573c-3.951 7.28-10.537 26.03 5.927 40.368zm64.097-69.485c.878 0 1.537.662 1.537 1.545v24.264c-2.195-3.53-5.049-6.617-8.561-9.264 3.512-4.633 5.707-10.368 6.146-16.324h.878v-.22zM162.78 92.09c16.025 0 28.976 12.793 28.976 28.455 0 15.662-12.951 28.456-28.976 28.456-16.024 0-28.975-12.794-28.975-28.456 0-15.662 12.951-28.456 28.975-28.456zm-34.463 31.985c0-.883.659-1.545 1.537-1.545h1.097c.44 5.956 2.415 11.25 5.708 15.883-3.293 2.426-5.927 5.294-8.342 8.382v-22.72zm60.146 63.75V152.75c0-1.324-.878-2.426-2.195-2.426h-48.073c-1.097 0-2.195 1.102-2.195 2.426v34.853h-7.024v2.868c0 1.323.878 2.426 2.195 2.426h62.561c1.097 0 2.195-1.103 2.195-2.426v-2.868h-7.464v.22zm-26.122-12.795c-2.195 0-3.731-1.764-3.731-3.75 0-2.205 1.756-3.75 3.731-3.75 2.196 0 3.732 1.765 3.732 3.75 0 1.986-1.536 3.75-3.732 3.75z"/><g><path fill="#CCEFEF" d="M164.422 140.777c12.59.598 22.1-11.151 22.038-21.086-.026-4.15-.588-7.765-2.42-10.47-1.831-2.706-12.254-4.422-19.618-4.422-7.708 0-19.119 2.864-20.742 6.357-1.218 3.362-1.3 4.952-1.18 8.58.39 11.696 10.748 21.04 21.922 21.04z"/><path stroke="#72D3D4" stroke-width="2.12" d="M161.228 138.703c5.634.979 16.55-2.304 21-13.837" stroke-linecap="round"/></g></g></svg>