<svg xmlns="http://www.w3.org/2000/svg" width="154" height="245"><g fill="none" fill-rule="evenodd"><g fill-rule="nonzero"><path fill="#FFF" d="M149.323 130.714c3.007 1.34 4.677 4.356 4.009 7.708l-2.004 16.756a5.87 5.87 0 0 1-2.339 4.692v25.47l-31.066 6.033v53.286H35.415v-52.951l-30.732-6.032v-25.47c-1.336-1.341-2.004-2.682-2.338-4.692L.34 138.757c-.334-3.352 1.337-6.368 4.343-7.708V97.87l13.028 2.681c.334-1.005.668-1.675 1.002-2.346V54.638c0-4.022 3.34-7.038 7.015-7.038h1.67C28.066 21.124 50.113.01 77.17.01c27.058 0 49.104 21.114 49.773 47.255h1.336c4.008 0 7.015 3.351 7.015 7.038v43.232c.334 1.006.668 1.676 1.002 2.681l13.027-2.68v33.178z"/><path fill="#550DB8" d="M76.836 89.827c23.05 0 41.755-19.103 41.755-42.227 0-10.054-2.672-15.416-5.01-18.432-6.681-10.39-29.062-11.395-35.743-11.395h-1.002c-22.715 0-32.402 7.038-35.408 10.054v.335c-.668.67-.668 1.006-.668 1.006-2.339 3.016-5.345 8.378-5.345 18.432 0 23.124 18.372 42.227 41.421 42.227zM42.764 30.843l.668-.67.334-.335c2.338-2.011 11.357-9.049 33.404-9.049h1.002c4.343 0 27.392.335 33.07 10.054 1.67 2.011 4.343 7.038 4.343 16.422 0 21.784-17.37 39.21-38.749 39.21s-38.749-17.761-38.749-39.21c.334-9.384 3.007-14.076 4.677-16.422zm106.56 99.87V97.536l-13.028 2.681c-.334-1.005-.668-1.675-1.002-2.68V54.302c0-3.687-3.007-7.038-7.015-7.038h-1.336C126.274 21.125 104.228.01 77.17.01 50.113.01 28.066 21.124 27.398 47.6h-1.67c-3.675 0-7.015 3.016-7.015 7.038v43.567c-.334.67-.668 1.34-1.002 2.346l-13.028-2.68v33.178c-3.006 1.34-4.677 4.356-4.343 7.708l2.005 16.757c.334 2.01 1.002 3.35 2.338 4.691v25.47l30.732 6.033v52.951h82.508v-53.286l31.066-6.032v-25.47a5.87 5.87 0 0 0 2.339-4.693l2.004-16.756c.668-3.352-1.002-6.368-4.009-7.708zm-21.045-78.421c1.336 0 2.338 1.005 2.338 2.346v35.189c-3.34-4.692-7.683-9.049-12.694-12.735 5.011-7.038 8.351-15.416 9.02-24.465h1.336v-.335zM77.17 4.702c25.053 0 45.096 19.774 45.096 44.239 0 24.464-20.377 43.902-45.096 43.902-25.053 0-45.096-19.773-45.096-44.238 0-24.464 20.043-43.902 45.096-43.902zm-53.78 49.6c0-1.34 1.001-2.345 2.338-2.345h1.67c.668 9.048 4.008 17.427 9.019 24.8-5.01 3.686-9.353 8.043-12.694 13.07V54.303h-.334zm15.7 26.141c9.019 10.39 22.714 17.092 38.08 17.092s28.728-6.703 38.081-17.427c7.683 5.697 13.362 12.735 16.702 20.778l-54.783 11.06-54.783-10.724c3.34-8.044 9.02-15.417 16.702-20.779zM6.686 154.508l-1.67-15.081-.334-1.676c0-.67 0-1.005.334-1.34.334-1.006 1.336-2.011 2.672-2.011 0 0 .668 0 1.337-.335h2.338c6.013 0 11.023 4.357 11.691 10.39.668 5.696-3.006 11.059-8.35 12.4-.669 0-2.673.334-4.343.67H9.36c-1.337-.67-2.339-1.676-2.673-3.017zm2.339 7.038h1.67c3.674-.335 4.676-.67 5.01-.67 7.35-2.011 12.36-9.384 11.358-17.092-1.002-8.043-7.683-14.076-15.7-14.076H9.026v-27.146l7.348 1.34 4.343 1.006 54.115 10.724v79.092l-66.14-13.07v-20.108h.334zm65.806 78.086H40.426v-5.362h34.406v5.362zm-34.406-10.389c1.002-9.048 8.35-15.751 17.036-15.751 8.685 0 16.034 7.038 17.036 15.751H40.426zm17.37-20.108c-7.015 0-13.362 3.351-17.37 8.714v-25.806l34.74 6.703v19.438c-4.009-5.362-10.355-9.049-17.37-9.049zm56.119 30.497H79.509v-5.362h34.406v5.362zm-34.406-10.389c1.002-9.048 8.35-15.751 17.036-15.751 8.685 0 16.034 7.038 17.036 15.751H79.509zm34.406-11.394c-4.009-5.363-10.355-8.714-17.37-8.714-7.35 0-13.696 3.687-17.705 9.384V199.08l34.74-6.703v25.47h.335zm31.4-36.195l-66.14 13.07v-79.092l54.114-10.724 4.343-1.005 7.349-1.34v27.145h-2.338c-8.017 0-14.698 6.033-15.7 14.076-1.003 7.708 4.008 15.08 11.357 17.092.334 0 1.336.335 5.01.67H144.982v20.108h.334zm4.008-42.227l-1.67 15.081c0 1.34-1.336 2.346-2.338 2.681h-1.002c-1.67-.335-3.675-.67-4.343-.67-5.679-1.676-9.019-6.703-8.35-12.4.667-6.033 5.678-10.39 11.69-10.39h2.339c.668 0 1.336.336 1.336.336 1.336 0 2.338 1.005 2.672 2.01.334.336.334 1.006.334 1.341l-.668 2.011z"/></g><path fill="#CCEFEF" d="M77.031 86.246c20.212 1.43 36.12-21.38 36.03-36.968-.037-6.51-2.11-13.009-4.792-17.254C105.587 27.78 88.183 24 77.403 24c-11.286 0-31.21 4.493-33.587 9.975-1.783 5.275-2.975 7.77-2.799 13.46.57 18.352 11.052 36.758 36.014 38.811z"/><path stroke="#72D3D4" stroke-width="2.29" d="M74.28 82.402c8.352 1.519 24.536-3.575 31.132-21.471" stroke-linecap="round"/></g></svg>