<svg xmlns="http://www.w3.org/2000/svg" width="21" height="22" viewBox="0 0 21 22" xmlns:xlink="http://www.w3.org/1999/xlink">
  <defs>
    <path id="a" d="M29.3908125,157.689375 C29.3908125,157.689375 20.1271875,173.833125 19.9670625,173.9775 C19.438125,174.47625 18.6073125,174.45 18.1125,173.925 L12.11175,168.38625 C11.615625,167.86125 11.6431875,167.02125 12.172125,166.535625 C12.7010625,166.036875 13.531875,166.063125 14.028,166.588125 L18.724125,170.919375 L27.1175625,156.376875 C27.4798125,155.76 28.28175,155.536875 28.9104375,155.904375 C29.5378125,156.25875 29.7530625,157.0725 29.3908125,157.689375 L29.3908125,157.689375 Z"/>
  </defs>
  <g fill="none" fill-rule="evenodd" transform="translate(-10 -154)">
    <use fill="#FFFFFF" xlink:href="#a"/>
    <path stroke="#FFFFFF" d="M18.6035759,170.128001 L14.3669864,166.220582 C13.7049151,165.518261 12.5579009,165.484641 11.8291049,166.171843 C11.0990282,166.842077 11.0611045,168.002431 11.7483442,168.729668 L17.7733733,174.292414 C18.4338214,174.99492 19.581198,175.028568 20.3100826,174.341282 C20.4392743,174.224965 21.6650832,172.115097 25.1111072,166.134968 C25.125919,166.109263 25.125919,166.109263 25.1407307,166.083559 C26.1674573,164.301745 27.2656619,162.392699 28.3626392,160.483659 C28.7465786,159.8155 29.1029416,159.195065 29.4226389,158.638261 C29.7514334,158.065536 29.7514334,158.065536 29.8244864,157.938226 L29.8219681,157.942564 C30.3264533,157.083477 30.0257552,155.960115 29.1563461,155.469026 C28.299522,154.968105 27.1903965,155.265442 26.6864069,156.123686 L18.6035759,170.128001 Z"/>
  </g>
</svg>
