<svg viewBox="0 0 410 75" width="400" height="80"><defs id="SvgjsDefs1108"></defs><g id="main_text" rel="mainfill" name="main_text" feature="main_text" xmlns:name="mainText_mainfill" groupname="main_text" fill="#ffffff" transform="translate(-5.0930252434857906, -14.40193952193551) scale(3.1995389421350953)"><path d="M4.3457 23.59375 l-2.7539 0 l2.8516 -14.688 l2.7637 0 z M22.129125 23.59375 l-2.5 0 l1.2598 -6.4844 c0.24414 -1.2402 -0.019531 -2.2168 -1.2695 -2.1387 c-1.0352 0.068359 -1.9531 1.0059 -2.5 1.9043 l-1.2891 6.7188 l-2.5 0 l1.2598 -6.4844 c0.23438 -1.2012 -0.019531 -2.2363 -1.2109 -2.1387 c-1.1816 0.097656 -2.0215 1.1035 -2.6172 2.002 l-1.2793 6.6211 l-2.4902 0 l2.0703 -10.674 l2.1094 0 l-0.087891 1.5723 c1.0254 -0.9375 1.8945 -1.6406 3.0664 -1.748 c1.1328 -0.10742 2.5781 0.2832 2.9395 1.9922 c0.83008 -0.84961 1.9141 -1.8848 3.3203 -1.9922 c2.9199 -0.21484 3.4668 1.8359 2.9688 4.3848 z M27.2069875 22.46095 l-0.9082 4.6289 l-2.627 0.89844 l2.9199 -15.059 l2.1289 0 l-0.087891 1.4941 c0.9375 -0.92773 2.2656 -1.7188 3.5254 -1.7188 c3.2129 0 3.7598 2.9297 3.2324 5.625 c-0.54688 2.8516 -2.3633 5.5664 -5.5859 5.5664 c-1.0059 0 -1.9336 -0.56641 -2.5977 -1.4355 z M28.3300875 16.66995 l-0.60547 3.1055 c0.25391 1.0547 1.0352 1.8066 2.2266 1.8066 c1.5625 0 2.6367 -1.8457 2.9297 -3.3203 c0.3125 -1.6309 -0.039063 -3.252 -1.7969 -3.252 c-1.0742 0 -2.0996 0.71289 -2.7539 1.6602 z M45.10759375 23.5839844 l-2.1777 0 l0.078125 -1.3672 c-1.1133 1.1133 -2.0898 1.5723 -3.2227 1.6602 c-2.8223 0.20508 -3.2031 -2.041 -2.7441 -4.4141 l1.2793 -6.543 l2.4707 0 l-1.2793 6.5527 c-0.23438 1.2109 0.0097656 2.1094 1.25 2.1094 c1.0254 0 1.9824 -0.9375 2.627 -1.875 l1.3086 -6.7871 l2.4902 0 z M50.507775 23.73047 c-2.4805 0 -2.5781 -1.4551 -2.2949 -2.8711 l2.2852 -11.758 l2.627 -0.9082 l-2.4707 12.666 c-0.12695 0.66406 0.087891 0.84961 0.54688 0.84961 c0.25391 0 0.44922 -0.068359 0.98633 -0.13672 l-0.058594 1.8066 c-0.74219 0.25391 -1.1719 0.35156 -1.6211 0.35156 z M53.017590625 21.39645 l1.8652 -1.1523 c0.39063 0.79102 1.1133 1.4453 2.1973 1.4453 c0.74219 0 1.8164 -0.3125 1.9922 -1.1719 c0.35156 -1.6797 -5.1465 -1.3477 -4.4824 -4.7461 c0.41016 -2.1094 2.041 -3.0273 4.1113 -3.0273 c1.4258 0 3.0176 0.85938 3.5742 2.2656 l-1.7383 1.0547 c-0.51758 -0.69336 -1.2598 -1.2012 -2.0605 -1.2012 c-0.66406 0 -1.4453 0.25391 -1.5918 0.9668 c-0.3418 1.6406 5.2441 1.2988 4.5703 4.7852 c-0.41992 2.168 -2.3926 3.2422 -4.4727 3.2422 c-1.7578 0 -3.2324 -0.72266 -3.9648 -2.4609 z M65.751928125 23.59375 l-2.4219 0 l1.6992 -8.6816 l-1.1035 0 l0.39063 -1.9922 l3.5254 0 z M65.546828125 9.62875 c0.17578 -0.9375 1.1328 -1.6895 2.002 -1.6895 c0.87891 0 1.5332 0.75195 1.3574 1.6895 c-0.18555 0.9375 -1.1426 1.6797 -2.0117 1.6797 s-1.5332 -0.74219 -1.3477 -1.6797 z M75.224596875 14.90235 l-2.2559 0 l-1.1523 5.8887 c-0.10742 0.55664 0.019531 0.9375 0.72266 0.9375 c0.23438 0 0.41016 -0.058594 0.98633 -0.14648 l-0.048828 1.8066 c-0.76172 0.23438 -1.2012 0.3418 -1.6699 0.3418 c-2.5195 0 -2.7441 -1.3965 -2.4609 -2.8613 l1.1621 -5.9668 l-1.6504 0 l0.39063 -1.9922 l1.6504 0 l0.44922 -2.3145 l2.627 -0.89844 l-0.60547 3.2129 l2.2363 0 z M84.521390625 18.92575 l-6.8652 0 c-0.32227 1.7676 0.27344 2.8027 1.748 2.8027 c1.0254 0 1.9629 -0.19531 3.0371 -1.4941 l1.5723 1.1133 c-1.4844 1.9141 -2.8711 2.5195 -5.1172 2.5195 c-3.3398 0 -4.082 -2.8516 -3.6035 -5.2734 c0.6543 -3.3301 2.7832 -5.8301 6.0352 -5.8301 c3.3398 0 3.8867 2.8418 3.4082 5.3613 c-0.029297 0.15625 -0.068359 0.25391 -0.21484 0.80078 z M78.095690625 17.22655 l4.4043 0 c0.12695 -1.3281 -0.35156 -2.2949 -1.7188 -2.2949 c-1.2695 0 -2.2461 1.0449 -2.6855 2.2949 z"></path></g><g id="SvgjsG1122" rel="mainfill" name="symbol" feature="symbol" xmlns:name="symbol_mainfill" fill="#ffffff" transform="translate(282, -20.213360387973452) scale(2.5450274679778415)"><g><path d="M8.934,28.192c-0.462,0-0.836-0.373-0.836-0.836c0-0.464,0.374-0.838,0.836-0.838c0.463,0,0.836,0.374,0.836,0.838   C9.77,27.819,9.396,28.192,8.934,28.192L8.934,28.192z M6.235,28.192c-0.463,0-0.836-0.373-0.836-0.836   c0-0.464,0.373-0.838,0.836-0.838c0.462,0,0.835,0.374,0.835,0.838C7.07,27.819,6.697,28.192,6.235,28.192L6.235,28.192z    M3.535,28.192c-0.463,0-0.836-0.373-0.836-0.836c0-0.464,0.373-0.838,0.836-0.838c0.462,0,0.835,0.374,0.835,0.838   C4.371,27.819,3.998,28.192,3.535,28.192L3.535,28.192z M0.835,28.192C0.373,28.192,0,27.819,0,27.356   c0-0.464,0.373-0.838,0.835-0.838s0.836,0.374,0.836,0.838C1.671,27.819,1.298,28.192,0.835,28.192L0.835,28.192z"></path><path d="M8.934,25.632c-0.462,0-0.836-0.373-0.836-0.836c0-0.45,0.374-0.836,0.836-0.836c0.463,0,0.836,0.387,0.836,0.836   C9.77,25.259,9.396,25.632,8.934,25.632L8.934,25.632z M6.235,25.632c-0.463,0-0.836-0.373-0.836-0.836   c0-0.45,0.373-0.836,0.836-0.836c0.462,0,0.835,0.387,0.835,0.836C7.07,25.259,6.697,25.632,6.235,25.632L6.235,25.632z    M3.535,25.632c-0.463,0-0.836-0.373-0.836-0.836c0-0.45,0.373-0.836,0.836-0.836c0.462,0,0.835,0.387,0.835,0.836   C4.371,25.259,3.998,25.632,3.535,25.632L3.535,25.632z"></path></g><g><path d="M50.048,25.71c-0.858-0.814-4.393-3.545-13.733-4.473c-0.307-0.031-0.604-0.045-0.906-0.065l-0.286-1.973   c0.115,0.092,0.235,0.18,0.368,0.255c0.423,0.233,0.861,0.352,1.309,0.352c0.229,0,0.46-0.032,0.688-0.091   c0.705-0.19,1.25-0.604,1.621-1.237c0.364-0.635,0.452-1.315,0.261-2.017c-0.186-0.712-0.6-1.259-1.24-1.63   c-0.623-0.354-1.31-0.442-2.013-0.257c-0.688,0.182-1.228,0.594-1.609,1.226c-0.123,0.209-0.203,0.426-0.267,0.646   c-0.392-0.416-0.882-0.723-1.344-0.848l-5.837-1.624c-0.649-0.176-1.291-0.184-1.898-0.021c-1.109,0.296-1.895,1.015-2.275,2.094   c-0.21,0.642-0.229,1.294-0.058,1.94c0.028,0.104,0.067,0.209,0.107,0.313c-0.065-0.03-0.116-0.062-0.184-0.093   c-2.699-1.215-7.082-1.47-10.283-1.47c-2.087,0-3.582,0.106-3.645,0.11l-0.185,0.014L8.49,16.968   c-0.199,0.145-0.389,0.424-0.326,0.769c0.032,0.181,0.162,0.504,0.662,0.645l0.568,0.158c1.814,0.505,5.588,1.554,6.911,2.362   c0.796,0.486,1.495,1.033,2.081,1.555c-0.006,0-0.012,0-0.018,0l-0.213,0.007c-0.961,0.046-1.663,0.627-2.069,1.084   c-0.512-0.319-1.33-0.775-2.157-1.02c-0.982-0.29-1.951-0.334-2.443-0.334l-0.848,0.036l0.001,8.024l0.842,0.034   c0.491,0,1.463-0.044,2.446-0.334c0.837-0.246,1.664-0.712,2.175-1.03c0.403,0.423,1.092,0.95,2.037,0.995l0.217,0.007   c0.032,0,0.064-0.002,0.096-0.002c-0.599,0.54-1.319,1.109-2.147,1.615c-1.328,0.812-5.114,1.862-6.934,2.367l-0.547,0.152   c-0.5,0.142-0.629,0.465-0.66,0.644c-0.062,0.347,0.128,0.625,0.326,0.771l0.148,0.108l0.185,0.016   c0.062,0.004,1.555,0.109,3.642,0.109c3.203,0,7.586-0.255,10.286-1.472c2.367-1.067,3.557-2.305,4.13-3.122   c2.9,0.418,6.103,0.462,9.434,0.133c9.353-0.931,12.879-3.662,13.738-4.479c0,0,0.219-0.193,0.238-0.535   C50.306,25.969,50.048,25.71,50.048,25.71z M35.611,16.456c0.203-0.337,0.475-0.547,0.831-0.641   c0.133-0.036,0.262-0.053,0.384-0.053c0.231,0,0.449,0.061,0.663,0.182c0.336,0.194,0.537,0.463,0.64,0.848   c0.101,0.371,0.056,0.713-0.133,1.041c-0.196,0.335-0.465,0.539-0.843,0.64c-0.357,0.092-0.69,0.05-1.037-0.142   c-0.337-0.188-0.545-0.454-0.647-0.828C35.369,17.123,35.416,16.79,35.611,16.456z M38.553,25.324   c-0.066,0.169-0.192,0.364-0.566,0.364c-0.082,0-0.17-0.025-0.147-0.009l-4.199-1.49c-0.219-0.058-0.675-0.433-0.737-0.839   l-0.487-3.299l-5.591-1.643l2.497,4.253c0,0.001,0.068,0.13,0.06,0.353c-0.006,0.198-0.03,0.324-0.412,0.588l-5.155,3.354   c-0.102,0.073-0.183,0.098-0.277,0.127c-0.429,0.127-1.023,0.027-1.111-0.624c-0.059-0.403,0.085-0.705,0.45-0.93l4.29-2.748   l-2.876-4.592c-0.101-0.188-0.173-0.363-0.219-0.535c-0.108-0.408-0.096-0.803,0.033-1.196c0.238-0.674,0.679-1.078,1.389-1.266   c0.183-0.049,0.374-0.074,0.564-0.074c0.215,0,0.439,0.032,0.663,0.092l5.836,1.625c0.438,0.119,0.977,0.549,1.073,1l0.763,5.295   l3.749,1.374c0.069,0.021,0.293,0.171,0.398,0.395C38.607,25.041,38.611,25.177,38.553,25.324z"></path></g></g></svg>