<svg width="448.83038330078125" height="79.35905456542969"><defs id="SvgjsDefs2929"></defs><g id="SvgjsG2930" featurekey="ZmJY00" fill="#000000" transform="matrix(1,0,0,1,0,0)"></g><g id="SvgjsG2931" featurekey="sICVn4" fill="#7501fc" transform="matrix(2.2569444444444446,0,0,2.2569444444444446,322,-16.227402885754906)"><g><path d="M8.934,28.192c-0.462,0-0.836-0.373-0.836-0.836c0-0.464,0.374-0.838,0.836-0.838c0.463,0,0.836,0.374,0.836,0.838   C9.77,27.819,9.396,28.192,8.934,28.192L8.934,28.192z M6.235,28.192c-0.463,0-0.836-0.373-0.836-0.836   c0-0.464,0.373-0.838,0.836-0.838c0.462,0,0.835,0.374,0.835,0.838C7.07,27.819,6.697,28.192,6.235,28.192L6.235,28.192z    M3.535,28.192c-0.463,0-0.836-0.373-0.836-0.836c0-0.464,0.373-0.838,0.836-0.838c0.462,0,0.835,0.374,0.835,0.838   C4.371,27.819,3.998,28.192,3.535,28.192L3.535,28.192z M0.835,28.192C0.373,28.192,0,27.819,0,27.356   c0-0.464,0.373-0.838,0.835-0.838s0.836,0.374,0.836,0.838C1.671,27.819,1.298,28.192,0.835,28.192L0.835,28.192z"></path><path d="M8.934,25.632c-0.462,0-0.836-0.373-0.836-0.836c0-0.45,0.374-0.836,0.836-0.836c0.463,0,0.836,0.387,0.836,0.836   C9.77,25.259,9.396,25.632,8.934,25.632L8.934,25.632z M6.235,25.632c-0.463,0-0.836-0.373-0.836-0.836   c0-0.45,0.373-0.836,0.836-0.836c0.462,0,0.835,0.387,0.835,0.836C7.07,25.259,6.697,25.632,6.235,25.632L6.235,25.632z    M3.535,25.632c-0.463,0-0.836-0.373-0.836-0.836c0-0.45,0.373-0.836,0.836-0.836c0.462,0,0.835,0.387,0.835,0.836   C4.371,25.259,3.998,25.632,3.535,25.632L3.535,25.632z"></path></g><g><path d="M50.048,25.71c-0.858-0.814-4.393-3.545-13.733-4.473c-0.307-0.031-0.604-0.045-0.906-0.065l-0.286-1.973   c0.115,0.092,0.235,0.18,0.368,0.255c0.423,0.233,0.861,0.352,1.309,0.352c0.229,0,0.46-0.032,0.688-0.091   c0.705-0.19,1.25-0.604,1.621-1.237c0.364-0.635,0.452-1.315,0.261-2.017c-0.186-0.712-0.6-1.259-1.24-1.63   c-0.623-0.354-1.31-0.442-2.013-0.257c-0.688,0.182-1.228,0.594-1.609,1.226c-0.123,0.209-0.203,0.426-0.267,0.646   c-0.392-0.416-0.882-0.723-1.344-0.848l-5.837-1.624c-0.649-0.176-1.291-0.184-1.898-0.021c-1.109,0.296-1.895,1.015-2.275,2.094   c-0.21,0.642-0.229,1.294-0.058,1.94c0.028,0.104,0.067,0.209,0.107,0.313c-0.065-0.03-0.116-0.062-0.184-0.093   c-2.699-1.215-7.082-1.47-10.283-1.47c-2.087,0-3.582,0.106-3.645,0.11l-0.185,0.014L8.49,16.968   c-0.199,0.145-0.389,0.424-0.326,0.769c0.032,0.181,0.162,0.504,0.662,0.645l0.568,0.158c1.814,0.505,5.588,1.554,6.911,2.362   c0.796,0.486,1.495,1.033,2.081,1.555c-0.006,0-0.012,0-0.018,0l-0.213,0.007c-0.961,0.046-1.663,0.627-2.069,1.084   c-0.512-0.319-1.33-0.775-2.157-1.02c-0.982-0.29-1.951-0.334-2.443-0.334l-0.848,0.036l0.001,8.024l0.842,0.034   c0.491,0,1.463-0.044,2.446-0.334c0.837-0.246,1.664-0.712,2.175-1.03c0.403,0.423,1.092,0.95,2.037,0.995l0.217,0.007   c0.032,0,0.064-0.002,0.096-0.002c-0.599,0.54-1.319,1.109-2.147,1.615c-1.328,0.812-5.114,1.862-6.934,2.367l-0.547,0.152   c-0.5,0.142-0.629,0.465-0.66,0.644c-0.062,0.347,0.128,0.625,0.326,0.771l0.148,0.108l0.185,0.016   c0.062,0.004,1.555,0.109,3.642,0.109c3.203,0,7.586-0.255,10.286-1.472c2.367-1.067,3.557-2.305,4.13-3.122   c2.9,0.418,6.103,0.462,9.434,0.133c9.353-0.931,12.879-3.662,13.738-4.479c0,0,0.219-0.193,0.238-0.535   C50.306,25.969,50.048,25.71,50.048,25.71z M35.611,16.456c0.203-0.337,0.475-0.547,0.831-0.641   c0.133-0.036,0.262-0.053,0.384-0.053c0.231,0,0.449,0.061,0.663,0.182c0.336,0.194,0.537,0.463,0.64,0.848   c0.101,0.371,0.056,0.713-0.133,1.041c-0.196,0.335-0.465,0.539-0.843,0.64c-0.357,0.092-0.69,0.05-1.037-0.142   c-0.337-0.188-0.545-0.454-0.647-0.828C35.369,17.123,35.416,16.79,35.611,16.456z M38.553,25.324   c-0.066,0.169-0.192,0.364-0.566,0.364c-0.082,0-0.17-0.025-0.147-0.009l-4.199-1.49c-0.219-0.058-0.675-0.433-0.737-0.839   l-0.487-3.299l-5.591-1.643l2.497,4.253c0,0.001,0.068,0.13,0.06,0.353c-0.006,0.198-0.03,0.324-0.412,0.588l-5.155,3.354   c-0.102,0.073-0.183,0.098-0.277,0.127c-0.429,0.127-1.023,0.027-1.111-0.624c-0.059-0.403,0.085-0.705,0.45-0.93l4.29-2.748   l-2.876-4.592c-0.101-0.188-0.173-0.363-0.219-0.535c-0.108-0.408-0.096-0.803,0.033-1.196c0.238-0.674,0.679-1.078,1.389-1.266   c0.183-0.049,0.374-0.074,0.564-0.074c0.215,0,0.439,0.032,0.663,0.092l5.836,1.625c0.438,0.119,0.977,0.549,1.073,1l0.763,5.295   l3.749,1.374c0.069,0.021,0.293,0.171,0.398,0.395C38.607,25.041,38.611,25.177,38.553,25.324z"></path></g></g><g id="SvgjsG2932" featurekey="lic5xu" fill="#7501fc" transform="matrix(3.1995389421350953,0,0,3.1995389421350953,0,0.09014291522512785)"><path d="M3.16 20 l-3.16 0 l0 -15 l3.16 0 l0 15 z M19.26 20 l-3.16 0 l0 -6.02 l-4.08 5.04 l-4.08 -5.04 l0 6.02 l-3.16 0 l0 -15 l7.24 8.98 l7.24 -8.98 l0 15 z M26.26 5 l1.44 0 c2.46 0 5.04 2.28 5.04 5.18 s-2.2 5.24 -5.04 5.24 c-0.78 0 -3.9 0.04 -3.9 0.04 l0 4.54 l-3.16 0 l0 -15 l5.62 0 z M27.66 12.64 c1.18 -0.24 2 -1.12 2 -2.46 s-0.82 -2.14 -2 -2.36 c-0.32 -0.06 -3.86 -0.02 -3.86 -0.02 l0 0.2 l0 0 l0 4.68 s3.38 0.06 3.86 -0.04 z M45.839999999999996 14.120000000000001 l0 0 c0 3.34 -1.92 6.06 -6.02 6.06 s-6.02 -2.72 -6.02 -6.06 l0 -9.12 l3.14 0 l0 9.12 l0.02 0 c0 1.58 1.04 3.2 2.86 3.2 c1.8 0 2.86 -1.62 2.86 -3.2 l0 0 l0 -9.12 l3.16 0 l0 9.12 z M55.839999999999996 17.16 l0 2.84 l-8.68 0 l0 -15 l3.18 0 l0 12.16 l5.5 0 z M62.879999999999995 11.06 c1.82 0.3 3.38 1.12 4.18 2.62 c0.64 1.28 0.64 2.74 -0.08 4.16 c-0.88 1.52 -2.46 2.4 -4.46 2.4 c-0.48 0 -1.04 0 -1.52 -0.16 c-2.48 -0.48 -3.76 -2.54 -4.16 -3.66 l2.66 -0.96 s0.52 1.84 2.7 1.92 l0.08 0 l0.08 0 l0 0 c0.72 0 1.36 -0.24 1.68 -0.72 c0.32 -0.5 0.32 -1.22 0.16 -1.54 c-0.24 -0.56 -0.96 -1.12 -1.92 -1.28 c-1.86 -0.24 -3.28 -0.96 -4.16 -2.22 c-0.72 -0.96 -0.96 -2.24 -0.72 -3.38 c0.24 -1.1 0.88 -1.98 1.76 -2.62 c0.94 -0.64 2.08 -0.96 3.44 -0.96 c1.68 0 3.02 0.64 4.14 1.92 c0.72 0.94 1.04 1.82 1.04 2 l-2.7 0.88 s-0.48 -1.62 -2.48 -1.92 c-0.66 -0.1 -1.68 0.24 -1.96 1.06 c-0.48 1.46 0.98 2.26 2.24 2.46 z M72.22 20 l-3.16 0 l0 -15 l3.16 0 l0 15 z M83.52000000000001 5 l0 2.76 l-3.24 0 l0 12.24 l-3.18 0 l0 -12.24 l-3.26 0 l0 -2.76 l3.26 0 l3.18 0 l3.24 0 z M87.58000000000001 17.22 l7.84 0 l0 2.78 l-11.02 0 l0 -15 l11.02 0 l0 2.76 l-7.84 0 l-0.02 0 l0 3.36 l5.8 0 l0 2.7 l-5.8 0 l0 3.4 l0 0 l0.02 0 z"></path></g></svg>