<?xml version="1.0" standalone="no"?>
<!DOCTYPE svg PUBLIC "-//W3C//DTD SVG 20010904//EN"
 "http://www.w3.org/TR/2001/REC-SVG-20010904/DTD/svg10.dtd">
<svg version="1.0" xmlns="http://www.w3.org/2000/svg"
 width="700.000000pt" height="700.000000pt" viewBox="0 0 700.000000 700.000000"
 preserveAspectRatio="xMidYMid meet">
<metadata>
Created by potrace 1.11, written by Peter Selinger 2001-2013
</metadata>
<g transform="translate(0.000000,700.000000) scale(0.100000,-0.100000)"
fill="#000000" stroke="none">
<path d="M3480 5060 c-235 -28 -453 -183 -555 -394 -24 -50 -49 -120 -56 -156
-18 -102 -24 -115 -47 -118 -12 -2 -35 -17 -52 -33 l-30 -31 0 -317 0 -318
-29 -65 c-48 -104 -73 -219 -73 -333 -1 -155 38 -271 131 -395 23 -30 41 -65
41 -77 0 -23 -2 -23 -120 -23 l-120 0 0 -515 0 -515 75 0 75 0 0 450 0 450
120 0 120 0 0 -420 0 -420 595 0 595 0 0 420 0 420 120 0 120 0 0 -450 0 -450
75 0 75 0 0 515 0 515 -124 0 -123 0 5 27 c3 15 22 49 44 77 83 109 128 241
128 377 0 86 -22 217 -48 281 -14 37 -17 96 -22 400 -5 342 -6 358 -26 385
-11 15 -36 33 -55 39 -33 11 -35 14 -50 92 -19 98 -41 158 -88 237 -43 74
-147 183 -220 232 -135 90 -316 132 -481 113z m273 -119 c142 -50 244 -126
321 -238 165 -242 135 -553 -73 -764 -121 -122 -267 -182 -441 -182 -108 0
-174 15 -279 65 -203 97 -340 315 -341 544 0 74 29 193 65 266 79 157 221 271
399 319 94 25 263 21 349 -10z m-898 -658 c25 -127 49 -196 92 -266 l23 -37
-75 -75 -75 -75 0 233 c0 129 3 237 7 240 13 14 23 6 28 -20z m1445 -229 l0
-245 -76 78 c-75 77 -76 78 -59 103 37 56 78 160 94 233 9 47 20 77 28 77 10
0 13 -54 13 -246z m-1211 -206 c31 -29 86 -69 121 -88 l65 -35 -140 -3 c-128
-2 -141 -4 -157 -23 -16 -19 -18 -54 -18 -405 l0 -384 -39 0 c-33 0 -44 6 -70
37 -137 166 -158 410 -56 645 46 108 95 180 168 251 33 31 62 57 64 57 3 0 31
-24 62 -52z m1068 -20 c79 -81 122 -151 166 -269 89 -236 70 -423 -60 -601
-32 -45 -38 -48 -79 -48 l-44 0 0 370 c0 300 -3 377 -14 405 l-15 34 -128 3
-128 3 62 33 c34 19 85 56 115 82 29 27 55 49 58 50 3 0 33 -28 67 -62z m-557
-530 c40 -43 14 -108 -43 -108 -38 0 -50 7 -65 37 -34 64 58 124 108 71z
m-187 -659 c67 -55 81 -95 85 -249 l4 -135 -24 22 c-47 43 -110 68 -185 71
-83 5 -124 -7 -193 -53 l-50 -34 0 131 c0 147 9 177 72 240 l38 38 108 0 c105
0 108 -1 145 -31z m157 11 c-6 -11 -15 -20 -20 -20 -5 0 -14 9 -20 20 -10 18
-8 20 20 20 28 0 30 -2 20 -20z m410 -27 c60 -60 70 -95 70 -247 l0 -118 -35
26 c-116 89 -280 88 -386 -2 l-39 -34 0 114 c0 148 16 205 75 264 l44 44 112
0 112 0 47 -47z m-629 -368 c51 -18 103 -65 130 -117 36 -71 44 -68 -201 -68
-215 0 -220 0 -220 20 0 28 33 90 62 117 33 32 107 63 149 63 20 0 56 -7 80
-15z m601 -30 c35 -24 78 -85 93 -132 l6 -23 -226 0 -226 0 6 23 c15 47 58
109 94 132 73 49 180 48 253 0z m-452 -275 l0 -30 -225 0 -225 0 0 30 0 30
225 0 225 0 0 -30z m560 5 l0 -25 -230 0 -230 0 0 25 0 25 230 0 230 0 0 -25z"/>
<path d="M3439 4809 c-340 -22 -473 -143 -472 -429 0 -87 4 -119 26 -185 65
-195 228 -349 424 -400 74 -19 212 -19 288 0 106 27 183 73 271 160 61 60 90
99 118 155 62 128 80 259 52 391 -31 143 -90 207 -242 262 -115 41 -282 58
-465 46z m314 -84 c252 -44 347 -138 347 -344 0 -232 -161 -454 -378 -521 -87
-27 -217 -27 -304 0 -122 37 -258 151 -312 259 -50 100 -61 149 -61 281 0 109
3 130 22 165 65 121 201 169 489 173 62 1 150 -5 197 -13z"/>
</g>
</svg>
